<?xml version="1.0" encoding="utf-8" standalone="no"?>
<!DOCTYPE svg PUBLIC "-//W3C//DTD SVG 1.1//EN"
  "http://www.w3.org/Graphics/SVG/1.1/DTD/svg11.dtd">
<svg xmlns:xlink="http://www.w3.org/1999/xlink" width="850.392pt" height="170.0784pt" viewBox="0 0 850.392 170.0784" xmlns="http://www.w3.org/2000/svg" version="1.1">
 <metadata>
  <rdf:RDF xmlns:dc="http://purl.org/dc/elements/1.1/" xmlns:cc="http://creativecommons.org/ns#" xmlns:rdf="http://www.w3.org/1999/02/22-rdf-syntax-ns#">
   <cc:Work>
    <dc:type rdf:resource="http://purl.org/dc/dcmitype/StillImage"/>
    <dc:date>2025-03-19T09:43:20.527051</dc:date>
    <dc:format>image/svg+xml</dc:format>
    <dc:creator>
     <cc:Agent>
      <dc:title>Matplotlib v3.8.3, https://matplotlib.org/</dc:title>
     </cc:Agent>
    </dc:creator>
   </cc:Work>
  </rdf:RDF>
 </metadata>
 <defs>
  <style type="text/css">*{stroke-linejoin: round; stroke-linecap: butt}</style>
 </defs>
 <g id="figure_1">
  <g id="patch_1">
   <path d="M 0 170.0784 
L 850.392 170.0784 
L 850.392 0 
L 0 0 
z
" style="fill: #ffffff"/>
  </g>
  <g id="axes_1">
   <g id="patch_2">
    <path d="M 114.744848 62.753086 
C 110.926679 56.139824 105.676471 50.464103 99.38019 46.143168 
C 93.083908 41.822233 85.899717 38.964628 78.355759 37.780428 
C 70.8118 36.596228 63.09758 37.115181 55.780205 39.299137 
C 48.46283 41.483092 41.726114 45.277187 36.065303 50.402503 
C 30.404492 55.527818 25.961787 61.855604 23.063791 68.920678 
C 20.165795 75.985751 18.885307 83.610634 19.31646 91.23479 
C 19.747613 98.858946 21.879577 106.290852 25.555622 112.984157 
C 29.231667 119.677462 34.35945 125.464028 40.562005 129.918459 
L 70.418486 88.344923 
z
" style="fill: #e41a1c"/>
   </g>
   <g id="patch_3">
    <path d="M 40.562005 129.918459 
C 44.097164 132.457272 47.941757 134.534835 52.002626 136.100807 
C 56.063494 137.666779 60.30757 138.708409 64.632013 139.200455 
L 70.418486 88.344923 
z
" style="fill: #377eb8"/>
   </g>
   <g id="patch_4">
    <path d="M 64.632013 139.200455 
C 73.315678 140.188505 82.109406 138.936158 90.172006 135.563213 
C 98.234606 132.190267 105.300526 126.807814 110.693854 119.93073 
L 70.418486 88.344923 
z
" style="fill: #4daf4a"/>
   </g>
   <g id="patch_5">
    <path d="M 110.693854 119.93073 
C 116.996993 111.893536 120.752335 102.150651 121.47418 91.962178 
C 122.196025 81.773704 119.851852 71.598674 114.744844 62.75308 
L 70.418486 88.344923 
z
" style="fill: #984ea3"/>
   </g>
   <g id="matplotlib.axis_1"/>
   <g id="matplotlib.axis_2"/>
   <g id="text_1">
    <!-- 56.8% -->
    <g transform="translate(9.875754 41.779152) scale(0.1 -0.1)">
     <defs>
      <path id="DejaVuSans-35" d="M 691 4666 
L 3169 4666 
L 3169 4134 
L 1269 4134 
L 1269 2991 
Q 1406 3038 1543 3061 
Q 1681 3084 1819 3084 
Q 2600 3084 3056 2656 
Q 3513 2228 3513 1497 
Q 3513 744 3044 326 
Q 2575 -91 1722 -91 
Q 1428 -91 1123 -41 
Q 819 9 494 109 
L 494 744 
Q 775 591 1075 516 
Q 1375 441 1709 441 
Q 2250 441 2565 725 
Q 2881 1009 2881 1497 
Q 2881 1984 2565 2268 
Q 2250 2553 1709 2553 
Q 1456 2553 1204 2497 
Q 953 2441 691 2322 
L 691 4666 
z
" transform="scale(0.015625)"/>
      <path id="DejaVuSans-36" d="M 2113 2584 
Q 1688 2584 1439 2293 
Q 1191 2003 1191 1497 
Q 1191 994 1439 701 
Q 1688 409 2113 409 
Q 2538 409 2786 701 
Q 3034 994 3034 1497 
Q 3034 2003 2786 2293 
Q 2538 2584 2113 2584 
z
M 3366 4563 
L 3366 3988 
Q 3128 4100 2886 4159 
Q 2644 4219 2406 4219 
Q 1781 4219 1451 3797 
Q 1122 3375 1075 2522 
Q 1259 2794 1537 2939 
Q 1816 3084 2150 3084 
Q 2853 3084 3261 2657 
Q 3669 2231 3669 1497 
Q 3669 778 3244 343 
Q 2819 -91 2113 -91 
Q 1303 -91 875 529 
Q 447 1150 447 2328 
Q 447 3434 972 4092 
Q 1497 4750 2381 4750 
Q 2619 4750 2861 4703 
Q 3103 4656 3366 4563 
z
" transform="scale(0.015625)"/>
      <path id="DejaVuSans-2e" d="M 684 794 
L 1344 794 
L 1344 0 
L 684 0 
L 684 794 
z
" transform="scale(0.015625)"/>
      <path id="DejaVuSans-38" d="M 2034 2216 
Q 1584 2216 1326 1975 
Q 1069 1734 1069 1313 
Q 1069 891 1326 650 
Q 1584 409 2034 409 
Q 2484 409 2743 651 
Q 3003 894 3003 1313 
Q 3003 1734 2745 1975 
Q 2488 2216 2034 2216 
z
M 1403 2484 
Q 997 2584 770 2862 
Q 544 3141 544 3541 
Q 544 4100 942 4425 
Q 1341 4750 2034 4750 
Q 2731 4750 3128 4425 
Q 3525 4100 3525 3541 
Q 3525 3141 3298 2862 
Q 3072 2584 2669 2484 
Q 3125 2378 3379 2068 
Q 3634 1759 3634 1313 
Q 3634 634 3220 271 
Q 2806 -91 2034 -91 
Q 1263 -91 848 271 
Q 434 634 434 1313 
Q 434 1759 690 2068 
Q 947 2378 1403 2484 
z
M 1172 3481 
Q 1172 3119 1398 2916 
Q 1625 2713 2034 2713 
Q 2441 2713 2670 2916 
Q 2900 3119 2900 3481 
Q 2900 3844 2670 4047 
Q 2441 4250 2034 4250 
Q 1625 4250 1398 4047 
Q 1172 3844 1172 3481 
z
" transform="scale(0.015625)"/>
      <path id="DejaVuSans-25" d="M 4653 2053 
Q 4381 2053 4226 1822 
Q 4072 1591 4072 1178 
Q 4072 772 4226 539 
Q 4381 306 4653 306 
Q 4919 306 5073 539 
Q 5228 772 5228 1178 
Q 5228 1588 5073 1820 
Q 4919 2053 4653 2053 
z
M 4653 2450 
Q 5147 2450 5437 2106 
Q 5728 1763 5728 1178 
Q 5728 594 5436 251 
Q 5144 -91 4653 -91 
Q 4153 -91 3862 251 
Q 3572 594 3572 1178 
Q 3572 1766 3864 2108 
Q 4156 2450 4653 2450 
z
M 1428 4353 
Q 1159 4353 1004 4120 
Q 850 3888 850 3481 
Q 850 3069 1003 2837 
Q 1156 2606 1428 2606 
Q 1700 2606 1854 2837 
Q 2009 3069 2009 3481 
Q 2009 3884 1853 4118 
Q 1697 4353 1428 4353 
z
M 4250 4750 
L 4750 4750 
L 1831 -91 
L 1331 -91 
L 4250 4750 
z
M 1428 4750 
Q 1922 4750 2215 4408 
Q 2509 4066 2509 3481 
Q 2509 2891 2217 2550 
Q 1925 2209 1428 2209 
Q 931 2209 642 2551 
Q 353 2894 353 3481 
Q 353 4063 643 4406 
Q 934 4750 1428 4750 
z
" transform="scale(0.015625)"/>
     </defs>
     <use xlink:href="#DejaVuSans-35"/>
     <use xlink:href="#DejaVuSans-36" x="63.623047"/>
     <use xlink:href="#DejaVuSans-2e" x="127.246094"/>
     <use xlink:href="#DejaVuSans-38" x="159.033203"/>
     <use xlink:href="#DejaVuSans-25" x="222.65625"/>
    </g>
   </g>
   <g id="text_2">
    <!-- 8.1% -->
    <g transform="translate(33.775524 153.186948) scale(0.1 -0.1)">
     <defs>
      <path id="DejaVuSans-31" d="M 794 531 
L 1825 531 
L 1825 4091 
L 703 3866 
L 703 4441 
L 1819 4666 
L 2450 4666 
L 2450 531 
L 3481 531 
L 3481 0 
L 794 0 
L 794 531 
z
" transform="scale(0.015625)"/>
     </defs>
     <use xlink:href="#DejaVuSans-38"/>
     <use xlink:href="#DejaVuSans-2e" x="63.623047"/>
     <use xlink:href="#DejaVuSans-31" x="95.410156"/>
     <use xlink:href="#DejaVuSans-25" x="159.033203"/>
    </g>
   </g>
   <g id="text_3">
    <!-- 16.2% -->
    <g transform="translate(80.214468 152.488074) scale(0.1 -0.1)">
     <defs>
      <path id="DejaVuSans-32" d="M 1228 531 
L 3431 531 
L 3431 0 
L 469 0 
L 469 531 
Q 828 903 1448 1529 
Q 2069 2156 2228 2338 
Q 2531 2678 2651 2914 
Q 2772 3150 2772 3378 
Q 2772 3750 2511 3984 
Q 2250 4219 1831 4219 
Q 1534 4219 1204 4116 
Q 875 4013 500 3803 
L 500 4441 
Q 881 4594 1212 4672 
Q 1544 4750 1819 4750 
Q 2544 4750 2975 4387 
Q 3406 4025 3406 3419 
Q 3406 3131 3298 2873 
Q 3191 2616 2906 2266 
Q 2828 2175 2409 1742 
Q 1991 1309 1228 531 
z
" transform="scale(0.015625)"/>
     </defs>
     <use xlink:href="#DejaVuSans-31"/>
     <use xlink:href="#DejaVuSans-36" x="63.623047"/>
     <use xlink:href="#DejaVuSans-2e" x="127.246094"/>
     <use xlink:href="#DejaVuSans-32" x="159.033203"/>
     <use xlink:href="#DejaVuSans-25" x="222.65625"/>
    </g>
   </g>
   <g id="text_4">
    <!-- 18.9% -->
    <g transform="translate(120.907295 95.806729) scale(0.1 -0.1)">
     <defs>
      <path id="DejaVuSans-39" d="M 703 97 
L 703 672 
Q 941 559 1184 500 
Q 1428 441 1663 441 
Q 2288 441 2617 861 
Q 2947 1281 2994 2138 
Q 2813 1869 2534 1725 
Q 2256 1581 1919 1581 
Q 1219 1581 811 2004 
Q 403 2428 403 3163 
Q 403 3881 828 4315 
Q 1253 4750 1959 4750 
Q 2769 4750 3195 4129 
Q 3622 3509 3622 2328 
Q 3622 1225 3098 567 
Q 2575 -91 1691 -91 
Q 1453 -91 1209 -44 
Q 966 3 703 97 
z
M 1959 2075 
Q 2384 2075 2632 2365 
Q 2881 2656 2881 3163 
Q 2881 3666 2632 3958 
Q 2384 4250 1959 4250 
Q 1534 4250 1286 3958 
Q 1038 3666 1038 3163 
Q 1038 2656 1286 2365 
Q 1534 2075 1959 2075 
z
" transform="scale(0.015625)"/>
     </defs>
     <use xlink:href="#DejaVuSans-31"/>
     <use xlink:href="#DejaVuSans-38" x="63.623047"/>
     <use xlink:href="#DejaVuSans-2e" x="127.246094"/>
     <use xlink:href="#DejaVuSans-39" x="159.033203"/>
     <use xlink:href="#DejaVuSans-25" x="222.65625"/>
    </g>
   </g>
   <g id="text_5">
    <!-- FM-uex -->
    <g transform="translate(52.307541 18.72) scale(0.1 -0.1)">
     <defs>
      <path id="DejaVuSans-46" d="M 628 4666 
L 3309 4666 
L 3309 4134 
L 1259 4134 
L 1259 2759 
L 3109 2759 
L 3109 2228 
L 1259 2228 
L 1259 0 
L 628 0 
L 628 4666 
z
" transform="scale(0.015625)"/>
      <path id="DejaVuSans-4d" d="M 628 4666 
L 1569 4666 
L 2759 1491 
L 3956 4666 
L 4897 4666 
L 4897 0 
L 4281 0 
L 4281 4097 
L 3078 897 
L 2444 897 
L 1241 4097 
L 1241 0 
L 628 0 
L 628 4666 
z
" transform="scale(0.015625)"/>
      <path id="DejaVuSans-2d" d="M 313 2009 
L 1997 2009 
L 1997 1497 
L 313 1497 
L 313 2009 
z
" transform="scale(0.015625)"/>
      <path id="DejaVuSans-75" d="M 544 1381 
L 544 3500 
L 1119 3500 
L 1119 1403 
Q 1119 906 1312 657 
Q 1506 409 1894 409 
Q 2359 409 2629 706 
Q 2900 1003 2900 1516 
L 2900 3500 
L 3475 3500 
L 3475 0 
L 2900 0 
L 2900 538 
Q 2691 219 2414 64 
Q 2138 -91 1772 -91 
Q 1169 -91 856 284 
Q 544 659 544 1381 
z
M 1991 3584 
L 1991 3584 
z
" transform="scale(0.015625)"/>
      <path id="DejaVuSans-65" d="M 3597 1894 
L 3597 1613 
L 953 1613 
Q 991 1019 1311 708 
Q 1631 397 2203 397 
Q 2534 397 2845 478 
Q 3156 559 3463 722 
L 3463 178 
Q 3153 47 2828 -22 
Q 2503 -91 2169 -91 
Q 1331 -91 842 396 
Q 353 884 353 1716 
Q 353 2575 817 3079 
Q 1281 3584 2069 3584 
Q 2775 3584 3186 3129 
Q 3597 2675 3597 1894 
z
M 3022 2063 
Q 3016 2534 2758 2815 
Q 2500 3097 2075 3097 
Q 1594 3097 1305 2825 
Q 1016 2553 972 2059 
L 3022 2063 
z
" transform="scale(0.015625)"/>
      <path id="DejaVuSans-78" d="M 3513 3500 
L 2247 1797 
L 3578 0 
L 2900 0 
L 1881 1375 
L 863 0 
L 184 0 
L 1544 1831 
L 300 3500 
L 978 3500 
L 1906 2253 
L 2834 3500 
L 3513 3500 
z
" transform="scale(0.015625)"/>
     </defs>
     <use xlink:href="#DejaVuSans-46"/>
     <use xlink:href="#DejaVuSans-4d" x="57.519531"/>
     <use xlink:href="#DejaVuSans-2d" x="143.798828"/>
     <use xlink:href="#DejaVuSans-75" x="179.882812"/>
     <use xlink:href="#DejaVuSans-65" x="243.261719"/>
     <use xlink:href="#DejaVuSans-78" x="303.035156"/>
    </g>
   </g>
  </g>
  <g id="axes_2">
   <g id="patch_6">
    <path d="M 286.952642 62.753091 
C 282.399108 54.866138 275.822049 48.335578 267.902989 43.838114 
C 259.983929 39.340651 251.00618 37.037186 241.900029 37.166407 
C 232.793877 37.295629 223.885105 39.852914 216.096851 44.573274 
C 208.308597 49.293633 201.919495 56.008191 197.59159 64.021177 
C 193.263685 72.034162 191.151814 81.058901 191.474811 90.16024 
C 191.797808 99.261579 194.544118 108.113906 199.429165 115.799934 
C 204.314211 123.485961 211.163227 129.730712 219.266507 133.887097 
C 227.369788 138.043482 236.43743 139.962803 245.529833 139.446177 
L 242.626282 88.344927 
z
" style="fill: #e41a1c"/>
   </g>
   <g id="patch_7">
    <path d="M 245.529833 139.446177 
C 246.974903 139.364068 248.415841 139.2207 249.848759 139.016459 
C 251.281678 138.812217 252.705289 138.547287 254.115752 138.222381 
L 242.626282 88.344927 
z
" style="fill: #377eb8"/>
   </g>
   <g id="patch_8">
    <path d="M 254.115752 138.222381 
C 259.775515 136.918632 265.172299 134.660995 270.07451 131.546352 
C 274.976721 128.431709 279.313218 124.50526 282.897907 119.935503 
L 242.626282 88.344927 
z
" style="fill: #4daf4a"/>
   </g>
   <g id="patch_9">
    <path d="M 282.897907 119.935503 
C 289.202638 111.89824 292.959242 102.154658 293.681761 91.965193 
C 294.404281 81.775728 292.060157 71.599553 286.952627 62.753064 
L 242.626282 88.344927 
z
" style="fill: #984ea3"/>
   </g>
   <g id="matplotlib.axis_3"/>
   <g id="matplotlib.axis_4"/>
   <g id="text_6">
    <!-- 67.6% -->
    <g transform="translate(168.197589 59.483426) scale(0.1 -0.1)">
     <defs>
      <path id="DejaVuSans-37" d="M 525 4666 
L 3525 4666 
L 3525 4397 
L 1831 0 
L 1172 0 
L 2766 4134 
L 525 4134 
L 525 4666 
z
" transform="scale(0.015625)"/>
     </defs>
     <use xlink:href="#DejaVuSans-36"/>
     <use xlink:href="#DejaVuSans-37" x="63.623047"/>
     <use xlink:href="#DejaVuSans-2e" x="127.246094"/>
     <use xlink:href="#DejaVuSans-36" x="159.033203"/>
     <use xlink:href="#DejaVuSans-25" x="222.65625"/>
    </g>
   </g>
   <g id="text_7">
    <!-- 2.7% -->
    <g transform="translate(239.313159 156.977293) scale(0.1 -0.1)">
     <use xlink:href="#DejaVuSans-32"/>
     <use xlink:href="#DejaVuSans-2e" x="63.623047"/>
     <use xlink:href="#DejaVuSans-37" x="95.410156"/>
     <use xlink:href="#DejaVuSans-25" x="159.033203"/>
    </g>
   </g>
   <g id="text_8">
    <!-- 10.8% -->
    <g transform="translate(262.425385 147.266154) scale(0.1 -0.1)">
     <defs>
      <path id="DejaVuSans-30" d="M 2034 4250 
Q 1547 4250 1301 3770 
Q 1056 3291 1056 2328 
Q 1056 1369 1301 889 
Q 1547 409 2034 409 
Q 2525 409 2770 889 
Q 3016 1369 3016 2328 
Q 3016 3291 2770 3770 
Q 2525 4250 2034 4250 
z
M 2034 4750 
Q 2819 4750 3233 4129 
Q 3647 3509 3647 2328 
Q 3647 1150 3233 529 
Q 2819 -91 2034 -91 
Q 1250 -91 836 529 
Q 422 1150 422 2328 
Q 422 3509 836 4129 
Q 1250 4750 2034 4750 
z
" transform="scale(0.015625)"/>
     </defs>
     <use xlink:href="#DejaVuSans-31"/>
     <use xlink:href="#DejaVuSans-30" x="63.623047"/>
     <use xlink:href="#DejaVuSans-2e" x="127.246094"/>
     <use xlink:href="#DejaVuSans-38" x="159.033203"/>
     <use xlink:href="#DejaVuSans-25" x="222.65625"/>
    </g>
   </g>
   <g id="text_9">
    <!-- 18.9% -->
    <g transform="translate(293.114811 95.810648) scale(0.1 -0.1)">
     <use xlink:href="#DejaVuSans-31"/>
     <use xlink:href="#DejaVuSans-38" x="63.623047"/>
     <use xlink:href="#DejaVuSans-2e" x="127.246094"/>
     <use xlink:href="#DejaVuSans-39" x="159.033203"/>
     <use xlink:href="#DejaVuSans-25" x="222.65625"/>
    </g>
   </g>
   <g id="text_10">
    <!-- FM-lex -->
    <g transform="translate(226.295023 18.72) scale(0.1 -0.1)">
     <defs>
      <path id="DejaVuSans-6c" d="M 603 4863 
L 1178 4863 
L 1178 0 
L 603 0 
L 603 4863 
z
" transform="scale(0.015625)"/>
     </defs>
     <use xlink:href="#DejaVuSans-46"/>
     <use xlink:href="#DejaVuSans-4d" x="57.519531"/>
     <use xlink:href="#DejaVuSans-2d" x="143.798828"/>
     <use xlink:href="#DejaVuSans-6c" x="179.882812"/>
     <use xlink:href="#DejaVuSans-65" x="207.666016"/>
     <use xlink:href="#DejaVuSans-78" x="267.439453"/>
    </g>
   </g>
  </g>
  <g id="axes_3">
   <g id="patch_10">
    <path d="M 459.161019 62.752929 
C 456.610316 58.334982 453.413394 54.323091 449.676395 50.850457 
C 445.939396 47.377824 441.704142 44.48331 437.111251 42.26302 
C 432.518359 40.042729 427.619229 38.521509 422.576521 37.749866 
C 417.533812 36.978223 412.403958 36.964793 407.357278 37.710022 
C 402.310598 38.45525 397.403571 39.950798 392.799117 42.14701 
C 388.194662 44.343222 383.944311 47.21552 380.189181 50.668539 
C 376.434051 54.121558 373.216166 58.116655 370.642365 62.521186 
C 368.068565 66.925717 366.167653 71.690391 365.002742 76.657012 
C 363.837831 81.623633 363.421959 86.73662 363.768932 91.826213 
C 364.115906 96.915805 365.221842 101.925046 367.050022 106.687619 
C 368.878203 111.450191 371.408168 115.912798 374.555918 119.927274 
C 377.703668 123.941749 381.433977 127.463166 385.622993 130.374608 
C 389.812008 133.286049 394.41285 135.554934 399.272763 137.10593 
C 404.132676 138.656926 409.197272 139.472677 414.298398 139.526098 
C 419.399525 139.57952 424.480094 138.870013 429.371423 137.421136 
C 434.262752 135.972258 438.910101 133.800225 443.15917 130.97715 
L 414.834389 88.344921 
z
" style="fill: #e41a1c"/>
   </g>
   <g id="patch_11">
    <path d="M 443.15917 130.97715 
C 443.15917 130.97715 443.15917 130.97715 443.15917 130.97715 
L 414.834389 88.344921 
z
" style="fill: #377eb8"/>
   </g>
   <g id="patch_12">
    <path d="M 443.15917 130.97715 
C 453.077591 124.387368 460.392024 114.538477 463.833814 103.138723 
C 467.275603 91.738969 466.633551 79.487873 462.019019 68.510333 
L 414.834389 88.344921 
z
" style="fill: #4daf4a"/>
   </g>
   <g id="patch_13">
    <path d="M 462.019019 68.510333 
C 461.60357 67.522019 461.157172 66.547002 460.680487 65.586724 
C 460.203801 64.626447 459.697062 63.681383 459.161021 62.752932 
L 414.834389 88.344921 
z
" style="fill: #984ea3"/>
   </g>
   <g id="matplotlib.axis_5"/>
   <g id="matplotlib.axis_6"/>
   <g id="text_11">
    <!-- 76.0% -->
    <g transform="translate(334.169654 75.910015) scale(0.1 -0.1)">
     <use xlink:href="#DejaVuSans-37"/>
     <use xlink:href="#DejaVuSans-36" x="63.623047"/>
     <use xlink:href="#DejaVuSans-2e" x="127.246094"/>
     <use xlink:href="#DejaVuSans-30" x="159.033203"/>
     <use xlink:href="#DejaVuSans-25" x="222.65625"/>
    </g>
   </g>
   <g id="text_12">
    <!-- 0.0% -->
    <g transform="translate(438.954261 146.526194) scale(0.1 -0.1)">
     <use xlink:href="#DejaVuSans-30"/>
     <use xlink:href="#DejaVuSans-2e" x="63.623047"/>
     <use xlink:href="#DejaVuSans-30" x="95.410156"/>
     <use xlink:href="#DejaVuSans-25" x="159.033203"/>
    </g>
   </g>
   <g id="text_13">
    <!-- 22.0% -->
    <g transform="translate(462.650047 110.336239) scale(0.1 -0.1)">
     <use xlink:href="#DejaVuSans-32"/>
     <use xlink:href="#DejaVuSans-32" x="63.623047"/>
     <use xlink:href="#DejaVuSans-2e" x="127.246094"/>
     <use xlink:href="#DejaVuSans-30" x="159.033203"/>
     <use xlink:href="#DejaVuSans-25" x="222.65625"/>
    </g>
   </g>
   <g id="text_14">
    <!-- 2.0% -->
    <g transform="translate(461.731972 61.51864) scale(0.1 -0.1)">
     <use xlink:href="#DejaVuSans-32"/>
     <use xlink:href="#DejaVuSans-2e" x="63.623047"/>
     <use xlink:href="#DejaVuSans-30" x="95.410156"/>
     <use xlink:href="#DejaVuSans-25" x="159.033203"/>
    </g>
   </g>
   <g id="text_15">
    <!-- BI -->
    <g transform="translate(409.928599 18.72) scale(0.1 -0.1)">
     <defs>
      <path id="DejaVuSans-42" d="M 1259 2228 
L 1259 519 
L 2272 519 
Q 2781 519 3026 730 
Q 3272 941 3272 1375 
Q 3272 1813 3026 2020 
Q 2781 2228 2272 2228 
L 1259 2228 
z
M 1259 4147 
L 1259 2741 
L 2194 2741 
Q 2656 2741 2882 2914 
Q 3109 3088 3109 3444 
Q 3109 3797 2882 3972 
Q 2656 4147 2194 4147 
L 1259 4147 
z
M 628 4666 
L 2241 4666 
Q 2963 4666 3353 4366 
Q 3744 4066 3744 3513 
Q 3744 3084 3544 2831 
Q 3344 2578 2956 2516 
Q 3422 2416 3680 2098 
Q 3938 1781 3938 1306 
Q 3938 681 3513 340 
Q 3088 0 2303 0 
L 628 0 
L 628 4666 
z
" transform="scale(0.015625)"/>
      <path id="DejaVuSans-49" d="M 628 4666 
L 1259 4666 
L 1259 0 
L 628 0 
L 628 4666 
z
" transform="scale(0.015625)"/>
     </defs>
     <use xlink:href="#DejaVuSans-42"/>
     <use xlink:href="#DejaVuSans-49" x="68.603516"/>
    </g>
   </g>
  </g>
  <g id="axes_4">
   <g id="patch_14">
    <path d="M 631.368281 62.753073 
C 628.721382 58.168509 625.379178 54.022215 621.461078 50.462327 
C 617.542978 46.902439 613.096205 43.971863 608.279628 41.775299 
C 603.463051 39.578734 598.334722 38.142657 593.077862 37.518372 
C 587.821002 36.894088 582.498969 37.089121 577.301903 38.096503 
C 572.104838 39.103886 567.095378 40.911476 562.452496 43.454695 
C 557.809615 45.997914 553.589271 49.246108 549.942244 53.08323 
C 546.295217 56.920352 543.265464 61.300155 540.961229 66.06616 
C 538.656993 70.832166 537.106047 75.926932 536.363802 81.168437 
C 535.621556 86.409943 535.696957 91.735015 536.58731 96.953403 
C 537.477663 102.171792 539.172237 107.220603 541.610491 111.919457 
C 544.048745 116.618311 547.20129 120.910575 550.955497 124.642899 
C 554.709704 128.375223 559.020323 131.502622 563.733351 133.913366 
C 568.446378 136.324109 573.505009 137.98914 578.728513 138.848972 
C 583.952018 139.708804 589.277439 139.753073 594.514516 138.980199 
C 599.751593 138.207325 604.837205 136.626623 609.589659 134.294565 
C 614.342113 131.962508 618.704129 128.907203 622.519866 125.237807 
L 587.041896 88.344924 
z
" style="fill: #e41a1c"/>
   </g>
   <g id="patch_15">
    <path d="M 622.519866 125.237807 
C 623.262192 124.523951 623.982804 123.787852 624.680717 123.030517 
C 625.37863 122.273182 626.053526 121.494955 626.704484 120.696899 
L 587.041896 88.344924 
z
" style="fill: #377eb8"/>
   </g>
   <g id="patch_16">
    <path d="M 626.704484 120.696899 
C 631.940484 114.277715 635.540683 106.682332 637.194805 98.565343 
C 638.848927 90.448355 638.508047 82.049839 636.201545 74.093604 
L 587.041896 88.344924 
z
" style="fill: #4daf4a"/>
   </g>
   <g id="patch_17">
    <path d="M 636.201545 74.093604 
C 635.62791 72.114859 634.935326 70.172553 634.127576 68.277288 
C 633.319825 66.382024 632.398381 64.537257 631.368272 62.753058 
L 587.041896 88.344924 
z
" style="fill: #984ea3"/>
   </g>
   <g id="matplotlib.axis_7"/>
   <g id="matplotlib.axis_8"/>
   <g id="text_16">
    <!-- 78.9% -->
    <g transform="translate(505.27678 81.774867) scale(0.1 -0.1)">
     <use xlink:href="#DejaVuSans-37"/>
     <use xlink:href="#DejaVuSans-38" x="63.623047"/>
     <use xlink:href="#DejaVuSans-2e" x="127.246094"/>
     <use xlink:href="#DejaVuSans-39" x="159.033203"/>
     <use xlink:href="#DejaVuSans-25" x="222.65625"/>
    </g>
   </g>
   <g id="text_17">
    <!-- 1.9% -->
    <g transform="translate(623.270019 136.19557) scale(0.1 -0.1)">
     <use xlink:href="#DejaVuSans-31"/>
     <use xlink:href="#DejaVuSans-2e" x="63.623047"/>
     <use xlink:href="#DejaVuSans-39" x="95.410156"/>
     <use xlink:href="#DejaVuSans-25" x="159.033203"/>
    </g>
   </g>
   <g id="text_18">
    <!-- 15.4% -->
    <g transform="translate(636.357083 104.390844) scale(0.1 -0.1)">
     <defs>
      <path id="DejaVuSans-34" d="M 2419 4116 
L 825 1625 
L 2419 1625 
L 2419 4116 
z
M 2253 4666 
L 3047 4666 
L 3047 1625 
L 3713 1625 
L 3713 1100 
L 3047 1100 
L 3047 0 
L 2419 0 
L 2419 1100 
L 313 1100 
L 313 1709 
L 2253 4666 
z
" transform="scale(0.015625)"/>
     </defs>
     <use xlink:href="#DejaVuSans-31"/>
     <use xlink:href="#DejaVuSans-35" x="63.623047"/>
     <use xlink:href="#DejaVuSans-2e" x="127.246094"/>
     <use xlink:href="#DejaVuSans-34" x="159.033203"/>
     <use xlink:href="#DejaVuSans-25" x="222.65625"/>
    </g>
   </g>
   <g id="text_19">
    <!-- 3.8% -->
    <g transform="translate(635.550936 65.016373) scale(0.1 -0.1)">
     <defs>
      <path id="DejaVuSans-33" d="M 2597 2516 
Q 3050 2419 3304 2112 
Q 3559 1806 3559 1356 
Q 3559 666 3084 287 
Q 2609 -91 1734 -91 
Q 1441 -91 1130 -33 
Q 819 25 488 141 
L 488 750 
Q 750 597 1062 519 
Q 1375 441 1716 441 
Q 2309 441 2620 675 
Q 2931 909 2931 1356 
Q 2931 1769 2642 2001 
Q 2353 2234 1838 2234 
L 1294 2234 
L 1294 2753 
L 1863 2753 
Q 2328 2753 2575 2939 
Q 2822 3125 2822 3475 
Q 2822 3834 2567 4026 
Q 2313 4219 1838 4219 
Q 1578 4219 1281 4162 
Q 984 4106 628 3988 
L 628 4550 
Q 988 4650 1302 4700 
Q 1616 4750 1894 4750 
Q 2613 4750 3031 4423 
Q 3450 4097 3450 3541 
Q 3450 3153 3228 2886 
Q 3006 2619 2597 2516 
z
" transform="scale(0.015625)"/>
     </defs>
     <use xlink:href="#DejaVuSans-33"/>
     <use xlink:href="#DejaVuSans-2e" x="63.623047"/>
     <use xlink:href="#DejaVuSans-38" x="95.410156"/>
     <use xlink:href="#DejaVuSans-25" x="159.033203"/>
    </g>
   </g>
   <g id="text_20">
    <!-- MRS -->
    <g transform="translate(576.079362 18.72) scale(0.1 -0.1)">
     <defs>
      <path id="DejaVuSans-52" d="M 2841 2188 
Q 3044 2119 3236 1894 
Q 3428 1669 3622 1275 
L 4263 0 
L 3584 0 
L 2988 1197 
Q 2756 1666 2539 1819 
Q 2322 1972 1947 1972 
L 1259 1972 
L 1259 0 
L 628 0 
L 628 4666 
L 2053 4666 
Q 2853 4666 3247 4331 
Q 3641 3997 3641 3322 
Q 3641 2881 3436 2590 
Q 3231 2300 2841 2188 
z
M 1259 4147 
L 1259 2491 
L 2053 2491 
Q 2509 2491 2742 2702 
Q 2975 2913 2975 3322 
Q 2975 3731 2742 3939 
Q 2509 4147 2053 4147 
L 1259 4147 
z
" transform="scale(0.015625)"/>
      <path id="DejaVuSans-53" d="M 3425 4513 
L 3425 3897 
Q 3066 4069 2747 4153 
Q 2428 4238 2131 4238 
Q 1616 4238 1336 4038 
Q 1056 3838 1056 3469 
Q 1056 3159 1242 3001 
Q 1428 2844 1947 2747 
L 2328 2669 
Q 3034 2534 3370 2195 
Q 3706 1856 3706 1288 
Q 3706 609 3251 259 
Q 2797 -91 1919 -91 
Q 1588 -91 1214 -16 
Q 841 59 441 206 
L 441 856 
Q 825 641 1194 531 
Q 1563 422 1919 422 
Q 2459 422 2753 634 
Q 3047 847 3047 1241 
Q 3047 1584 2836 1778 
Q 2625 1972 2144 2069 
L 1759 2144 
Q 1053 2284 737 2584 
Q 422 2884 422 3419 
Q 422 4038 858 4394 
Q 1294 4750 2059 4750 
Q 2388 4750 2728 4690 
Q 3069 4631 3425 4513 
z
" transform="scale(0.015625)"/>
     </defs>
     <use xlink:href="#DejaVuSans-4d"/>
     <use xlink:href="#DejaVuSans-52" x="86.279297"/>
     <use xlink:href="#DejaVuSans-53" x="155.761719"/>
    </g>
   </g>
  </g>
  <g id="axes_5">
   <g id="patch_18">
    <path d="M 803.576002 62.753135 
C 798.734252 54.366977 791.610601 47.524545 783.036333 43.024306 
C 774.462066 38.524067 764.784202 36.548157 755.132084 37.32715 
C 745.479966 38.106143 736.244237 41.608513 728.502647 47.425555 
C 720.761056 53.242597 714.826923 61.138884 711.392721 70.19297 
C 707.95852 79.247055 707.16324 89.092502 709.099686 98.580409 
C 711.036131 108.068316 715.62593 116.814688 722.333483 123.798881 
C 729.041036 130.783073 737.594873 135.72242 746.996818 138.040532 
C 756.398762 140.358645 766.268297 139.961703 775.453712 136.896028 
L 759.249581 88.345007 
z
" style="fill: #e41a1c"/>
   </g>
   <g id="patch_19">
    <path d="M 775.453712 136.896028 
C 775.453712 136.896028 775.453712 136.896028 775.453712 136.896028 
L 759.249581 88.345007 
z
" style="fill: #377eb8"/>
   </g>
   <g id="patch_20">
    <path d="M 775.453712 136.896028 
C 784.637764 133.830807 792.766283 128.221674 798.890996 120.722988 
C 805.015709 113.224303 808.88881 104.139464 810.058461 94.528309 
L 759.249581 88.345007 
z
" style="fill: #4daf4a"/>
   </g>
   <g id="patch_21">
    <path d="M 810.058461 94.528309 
C 810.724292 89.057102 810.502046 83.514091 809.400323 78.113753 
C 808.2986 72.713415 806.331795 67.526312 803.57601 62.753148 
L 759.249581 88.345007 
z
" style="fill: #984ea3"/>
   </g>
   <g id="matplotlib.axis_9"/>
   <g id="matplotlib.axis_10"/>
   <g id="text_21">
    <!-- 71.8% -->
    <g transform="translate(681.15207 67.506734) scale(0.1 -0.1)">
     <use xlink:href="#DejaVuSans-37"/>
     <use xlink:href="#DejaVuSans-31" x="63.623047"/>
     <use xlink:href="#DejaVuSans-2e" x="127.246094"/>
     <use xlink:href="#DejaVuSans-38" x="159.033203"/>
     <use xlink:href="#DejaVuSans-25" x="222.65625"/>
    </g>
   </g>
   <g id="text_22">
    <!-- 0.0% -->
    <g transform="translate(767.612607 154.220709) scale(0.1 -0.1)">
     <use xlink:href="#DejaVuSans-30"/>
     <use xlink:href="#DejaVuSans-2e" x="63.623047"/>
     <use xlink:href="#DejaVuSans-30" x="95.410156"/>
     <use xlink:href="#DejaVuSans-25" x="159.033203"/>
    </g>
   </g>
   <g id="text_23">
    <!-- 17.9% -->
    <g transform="translate(794.899827 133.195758) scale(0.1 -0.1)">
     <use xlink:href="#DejaVuSans-31"/>
     <use xlink:href="#DejaVuSans-37" x="63.623047"/>
     <use xlink:href="#DejaVuSans-2e" x="127.246094"/>
     <use xlink:href="#DejaVuSans-39" x="159.033203"/>
     <use xlink:href="#DejaVuSans-25" x="222.65625"/>
    </g>
   </g>
   <g id="text_24">
    <!-- 10.3% -->
    <g transform="translate(808.561952 77.803752) scale(0.1 -0.1)">
     <use xlink:href="#DejaVuSans-31"/>
     <use xlink:href="#DejaVuSans-30" x="63.623047"/>
     <use xlink:href="#DejaVuSans-2e" x="127.246094"/>
     <use xlink:href="#DejaVuSans-33" x="159.033203"/>
     <use xlink:href="#DejaVuSans-25" x="222.65625"/>
    </g>
   </g>
   <g id="text_25">
    <!-- NIHSS -->
    <g transform="translate(743.925438 18.72) scale(0.1 -0.1)">
     <defs>
      <path id="DejaVuSans-4e" d="M 628 4666 
L 1478 4666 
L 3547 763 
L 3547 4666 
L 4159 4666 
L 4159 0 
L 3309 0 
L 1241 3903 
L 1241 0 
L 628 0 
L 628 4666 
z
" transform="scale(0.015625)"/>
      <path id="DejaVuSans-48" d="M 628 4666 
L 1259 4666 
L 1259 2753 
L 3553 2753 
L 3553 4666 
L 4184 4666 
L 4184 0 
L 3553 0 
L 3553 2222 
L 1259 2222 
L 1259 0 
L 628 0 
L 628 4666 
z
" transform="scale(0.015625)"/>
     </defs>
     <use xlink:href="#DejaVuSans-4e"/>
     <use xlink:href="#DejaVuSans-49" x="74.804688"/>
     <use xlink:href="#DejaVuSans-48" x="104.296875"/>
     <use xlink:href="#DejaVuSans-53" x="179.492188"/>
     <use xlink:href="#DejaVuSans-53" x="242.96875"/>
    </g>
   </g>
  </g>
 </g>
</svg>
