<?xml version="1.0" encoding="utf-8" standalone="no"?>
<!DOCTYPE svg PUBLIC "-//W3C//DTD SVG 1.1//EN"
  "http://www.w3.org/Graphics/SVG/1.1/DTD/svg11.dtd">
<svg xmlns:xlink="http://www.w3.org/1999/xlink" width="474.263925pt" height="233.712923pt" viewBox="0 0 474.263925 233.712923" xmlns="http://www.w3.org/2000/svg" version="1.1">
 <metadata>
  <rdf:RDF xmlns:dc="http://purl.org/dc/elements/1.1/" xmlns:cc="http://creativecommons.org/ns#" xmlns:rdf="http://www.w3.org/1999/02/22-rdf-syntax-ns#">
   <cc:Work>
    <dc:type rdf:resource="http://purl.org/dc/dcmitype/StillImage"/>
    <dc:date>2025-03-06T10:01:09.792111</dc:date>
    <dc:format>image/svg+xml</dc:format>
    <dc:creator>
     <cc:Agent>
      <dc:title>Matplotlib v3.8.0, https://matplotlib.org/</dc:title>
     </cc:Agent>
    </dc:creator>
   </cc:Work>
  </rdf:RDF>
 </metadata>
 <defs>
  <style type="text/css">*{stroke-linejoin: round; stroke-linecap: butt}</style>
 </defs>
 <g id="figure_1">
  <g id="patch_1">
   <path d="M 0 233.712923 
L 474.263925 233.712923 
L 474.263925 0 
L 0 0 
z
" style="fill: #ffffff"/>
  </g>
  <g id="axes_1">
   <g id="patch_2">
    <path d="M 45.59125 199.814173 
L 243.307785 199.814173 
L 243.307785 7.2 
L 45.59125 7.2 
z
" style="fill: #ffffff"/>
   </g>
   <g id="PathCollection_1">
    <defs>
     <path id="C0_0_dd9940c883" d="M 0 2.5 
C 0.663008 2.5 1.29895 2.236584 1.767767 1.767767 
C 2.236584 1.29895 2.5 0.663008 2.5 -0 
C 2.5 -0.663008 2.236584 -1.29895 1.767767 -1.767767 
C 1.29895 -2.236584 0.663008 -2.5 0 -2.5 
C -0.663008 -2.5 -1.29895 -2.236584 -1.767767 -1.767767 
C -2.236584 -1.29895 -2.5 -0.663008 -2.5 0 
C -2.5 0.663008 -2.236584 1.29895 -1.767767 1.767767 
C -1.29895 2.236584 -0.663008 2.5 0 2.5 
z
"/>
    </defs>
    <g clip-path="url(#pf8ddd2a4e8)">
     <use xlink:href="#C0_0_dd9940c883" x="79.172146" y="137.014281" style="fill: #008000; fill-opacity: 0.7; stroke: #ffffff; stroke-opacity: 0.7; stroke-width: 0.4"/>
    </g>
    <g clip-path="url(#pf8ddd2a4e8)">
     <use xlink:href="#C0_0_dd9940c883" x="105.632284" y="155.35973" style="fill: #008000; fill-opacity: 0.7; stroke: #ffffff; stroke-opacity: 0.7; stroke-width: 0.4"/>
    </g>
    <g clip-path="url(#pf8ddd2a4e8)">
     <use xlink:href="#C0_0_dd9940c883" x="91.935625" y="126.471519" style="fill: #008000; fill-opacity: 0.7; stroke: #ffffff; stroke-opacity: 0.7; stroke-width: 0.4"/>
    </g>
    <g clip-path="url(#pf8ddd2a4e8)">
     <use xlink:href="#C0_0_dd9940c883" x="129.864834" y="89.702331" style="fill: #0000ff; fill-opacity: 0.7; stroke: #ffffff; stroke-opacity: 0.7; stroke-width: 0.4"/>
    </g>
    <g clip-path="url(#pf8ddd2a4e8)">
     <use xlink:href="#C0_0_dd9940c883" x="162.556199" y="80.725326" style="fill: #0000ff; fill-opacity: 0.7; stroke: #ffffff; stroke-opacity: 0.7; stroke-width: 0.4"/>
    </g>
    <g clip-path="url(#pf8ddd2a4e8)">
     <use xlink:href="#C0_0_dd9940c883" x="68.726562" y="149.723006" style="fill: #008000; fill-opacity: 0.7; stroke: #ffffff; stroke-opacity: 0.7; stroke-width: 0.4"/>
    </g>
    <g clip-path="url(#pf8ddd2a4e8)">
     <use xlink:href="#C0_0_dd9940c883" x="132.875089" y="88.058287" style="fill: #0000ff; fill-opacity: 0.7; stroke: #ffffff; stroke-opacity: 0.7; stroke-width: 0.4"/>
    </g>
    <g clip-path="url(#pf8ddd2a4e8)">
     <use xlink:href="#C0_0_dd9940c883" x="234.32067" y="171.6436" style="fill: #008000; fill-opacity: 0.7; stroke: #ffffff; stroke-opacity: 0.7; stroke-width: 0.4"/>
    </g>
    <g clip-path="url(#pf8ddd2a4e8)">
     <use xlink:href="#C0_0_dd9940c883" x="124.356068" y="86.62301" style="fill: #0000ff; fill-opacity: 0.7; stroke: #ffffff; stroke-opacity: 0.7; stroke-width: 0.4"/>
    </g>
    <g clip-path="url(#pf8ddd2a4e8)">
     <use xlink:href="#C0_0_dd9940c883" x="187.059672" y="91.868295" style="fill: #0000ff; fill-opacity: 0.7; stroke: #ffffff; stroke-opacity: 0.7; stroke-width: 0.4"/>
    </g>
    <g clip-path="url(#pf8ddd2a4e8)">
     <use xlink:href="#C0_0_dd9940c883" x="139.648162" y="122.139592" style="fill: #008000; fill-opacity: 0.7; stroke: #ffffff; stroke-opacity: 0.7; stroke-width: 0.4"/>
    </g>
    <g clip-path="url(#pf8ddd2a4e8)">
     <use xlink:href="#C0_0_dd9940c883" x="78.570095" y="161.622757" style="fill: #008000; fill-opacity: 0.7; stroke: #ffffff; stroke-opacity: 0.7; stroke-width: 0.4"/>
    </g>
    <g clip-path="url(#pf8ddd2a4e8)">
     <use xlink:href="#C0_0_dd9940c883" x="123.90453" y="128.976729" style="fill: #008000; fill-opacity: 0.7; stroke: #ffffff; stroke-opacity: 0.7; stroke-width: 0.4"/>
    </g>
    <g clip-path="url(#pf8ddd2a4e8)">
     <use xlink:href="#C0_0_dd9940c883" x="101.508235" y="106.429833" style="fill: #0000ff; fill-opacity: 0.7; stroke: #ffffff; stroke-opacity: 0.7; stroke-width: 0.4"/>
    </g>
    <g clip-path="url(#pf8ddd2a4e8)">
     <use xlink:href="#C0_0_dd9940c883" x="190.160235" y="41.242161" style="fill: #0000ff; fill-opacity: 0.7; stroke: #ffffff; stroke-opacity: 0.7; stroke-width: 0.4"/>
    </g>
    <g clip-path="url(#pf8ddd2a4e8)">
     <use xlink:href="#C0_0_dd9940c883" x="198.107307" y="89.180413" style="fill: #0000ff; fill-opacity: 0.7; stroke: #ffffff; stroke-opacity: 0.7; stroke-width: 0.4"/>
    </g>
    <g clip-path="url(#pf8ddd2a4e8)">
     <use xlink:href="#C0_0_dd9940c883" x="62.164207" y="141.659359" style="fill: #008000; fill-opacity: 0.7; stroke: #ffffff; stroke-opacity: 0.7; stroke-width: 0.4"/>
    </g>
    <g clip-path="url(#pf8ddd2a4e8)">
     <use xlink:href="#C0_0_dd9940c883" x="167.402709" y="108.465316" style="fill: #0000ff; fill-opacity: 0.7; stroke: #ffffff; stroke-opacity: 0.7; stroke-width: 0.4"/>
    </g>
    <g clip-path="url(#pf8ddd2a4e8)">
     <use xlink:href="#C0_0_dd9940c883" x="108.130795" y="186.25733" style="fill: #008000; fill-opacity: 0.7; stroke: #ffffff; stroke-opacity: 0.7; stroke-width: 0.4"/>
    </g>
    <g clip-path="url(#pf8ddd2a4e8)">
     <use xlink:href="#C0_0_dd9940c883" x="138.44406" y="134.326398" style="fill: #008000; fill-opacity: 0.7; stroke: #ffffff; stroke-opacity: 0.7; stroke-width: 0.4"/>
    </g>
    <g clip-path="url(#pf8ddd2a4e8)">
     <use xlink:href="#C0_0_dd9940c883" x="98.287263" y="109.222099" style="fill: #0000ff; fill-opacity: 0.7; stroke: #ffffff; stroke-opacity: 0.7; stroke-width: 0.4"/>
    </g>
    <g clip-path="url(#pf8ddd2a4e8)">
     <use xlink:href="#C0_0_dd9940c883" x="102.531722" y="105.54257" style="fill: #0000ff; fill-opacity: 0.7; stroke: #ffffff; stroke-opacity: 0.7; stroke-width: 0.4"/>
    </g>
    <g clip-path="url(#pf8ddd2a4e8)">
     <use xlink:href="#C0_0_dd9940c883" x="54.578365" y="147.113411" style="fill: #008000; fill-opacity: 0.7; stroke: #ffffff; stroke-opacity: 0.7; stroke-width: 0.4"/>
    </g>
    <g clip-path="url(#pf8ddd2a4e8)">
     <use xlink:href="#C0_0_dd9940c883" x="113.308433" y="113.475738" style="fill: #0000ff; fill-opacity: 0.7; stroke: #ffffff; stroke-opacity: 0.7; stroke-width: 0.4"/>
    </g>
    <g clip-path="url(#pf8ddd2a4e8)">
     <use xlink:href="#C0_0_dd9940c883" x="134.259806" y="134.796125" style="fill: #008000; fill-opacity: 0.7; stroke: #ffffff; stroke-opacity: 0.7; stroke-width: 0.4"/>
    </g>
    <g clip-path="url(#pf8ddd2a4e8)">
     <use xlink:href="#C0_0_dd9940c883" x="199.823152" y="163.501665" style="fill: #008000; fill-opacity: 0.7; stroke: #ffffff; stroke-opacity: 0.7; stroke-width: 0.4"/>
    </g>
    <g clip-path="url(#pf8ddd2a4e8)">
     <use xlink:href="#C0_0_dd9940c883" x="192.23731" y="175.610184" style="fill: #008000; fill-opacity: 0.7; stroke: #ffffff; stroke-opacity: 0.7; stroke-width: 0.4"/>
    </g>
    <g clip-path="url(#pf8ddd2a4e8)">
     <use xlink:href="#C0_0_dd9940c883" x="95.698444" y="128.063371" style="fill: #008000; fill-opacity: 0.7; stroke: #ffffff; stroke-opacity: 0.7; stroke-width: 0.4"/>
    </g>
    <g clip-path="url(#pf8ddd2a4e8)">
     <use xlink:href="#C0_0_dd9940c883" x="156.023947" y="125.662544" style="fill: #008000; fill-opacity: 0.7; stroke: #ffffff; stroke-opacity: 0.7; stroke-width: 0.4"/>
    </g>
    <g clip-path="url(#pf8ddd2a4e8)">
     <use xlink:href="#C0_0_dd9940c883" x="126.192323" y="90.641786" style="fill: #0000ff; fill-opacity: 0.7; stroke: #ffffff; stroke-opacity: 0.7; stroke-width: 0.4"/>
    </g>
    <g clip-path="url(#pf8ddd2a4e8)">
     <use xlink:href="#C0_0_dd9940c883" x="156.264767" y="97.400635" style="fill: #0000ff; fill-opacity: 0.7; stroke: #ffffff; stroke-opacity: 0.7; stroke-width: 0.4"/>
    </g>
    <g clip-path="url(#pf8ddd2a4e8)">
     <use xlink:href="#C0_0_dd9940c883" x="150.846309" y="105.620858" style="fill: #0000ff; fill-opacity: 0.7; stroke: #ffffff; stroke-opacity: 0.7; stroke-width: 0.4"/>
    </g>
    <g clip-path="url(#pf8ddd2a4e8)">
     <use xlink:href="#C0_0_dd9940c883" x="197.836384" y="85.135541" style="fill: #0000ff; fill-opacity: 0.7; stroke: #ffffff; stroke-opacity: 0.7; stroke-width: 0.4"/>
    </g>
    <g clip-path="url(#pf8ddd2a4e8)">
     <use xlink:href="#C0_0_dd9940c883" x="109.515513" y="116.763827" style="fill: #0000ff; fill-opacity: 0.7; stroke: #ffffff; stroke-opacity: 0.7; stroke-width: 0.4"/>
    </g>
    <g clip-path="url(#pf8ddd2a4e8)">
     <use xlink:href="#C0_0_dd9940c883" x="106.324643" y="132.31701" style="fill: #008000; fill-opacity: 0.7; stroke: #ffffff; stroke-opacity: 0.7; stroke-width: 0.4"/>
    </g>
    <g clip-path="url(#pf8ddd2a4e8)">
     <use xlink:href="#C0_0_dd9940c883" x="77.365993" y="159.900425" style="fill: #008000; fill-opacity: 0.7; stroke: #ffffff; stroke-opacity: 0.7; stroke-width: 0.4"/>
    </g>
    <g clip-path="url(#pf8ddd2a4e8)">
     <use xlink:href="#C0_0_dd9940c883" x="133.507242" y="191.058984" style="fill: #008000; fill-opacity: 0.7; stroke: #ffffff; stroke-opacity: 0.7; stroke-width: 0.4"/>
    </g>
   </g>
   <g id="PathCollection_2"/>
   <g id="PathCollection_3"/>
   <g id="matplotlib.axis_1">
    <g id="xtick_1">
     <g id="line2d_1">
      <defs>
       <path id="m57327df5a9" d="M 0 0 
L 0 3.5 
" style="stroke: #000000; stroke-width: 0.8"/>
      </defs>
      <g>
       <use xlink:href="#m57327df5a9" x="96.00549" y="199.814173" style="stroke: #000000; stroke-width: 0.8"/>
      </g>
     </g>
     <g id="text_1">
      <!-- 0.2 -->
      <g transform="translate(89.64424 212.892923) scale(0.08 -0.08)">
       <defs>
        <path id="DejaVuSans-30" d="M 2034 4250 
Q 1547 4250 1301 3770 
Q 1056 3291 1056 2328 
Q 1056 1369 1301 889 
Q 1547 409 2034 409 
Q 2525 409 2770 889 
Q 3016 1369 3016 2328 
Q 3016 3291 2770 3770 
Q 2525 4250 2034 4250 
z
M 2034 4750 
Q 2819 4750 3233 4129 
Q 3647 3509 3647 2328 
Q 3647 1150 3233 529 
Q 2819 -91 2034 -91 
Q 1250 -91 836 529 
Q 422 1150 422 2328 
Q 422 3509 836 4129 
Q 1250 4750 2034 4750 
z
" transform="scale(0.015625)"/>
        <path id="DejaVuSans-2e" d="M 684 794 
L 1344 794 
L 1344 0 
L 684 0 
L 684 794 
z
" transform="scale(0.015625)"/>
        <path id="DejaVuSans-32" d="M 1228 531 
L 3431 531 
L 3431 0 
L 469 0 
L 469 531 
Q 828 903 1448 1529 
Q 2069 2156 2228 2338 
Q 2531 2678 2651 2914 
Q 2772 3150 2772 3378 
Q 2772 3750 2511 3984 
Q 2250 4219 1831 4219 
Q 1534 4219 1204 4116 
Q 875 4013 500 3803 
L 500 4441 
Q 881 4594 1212 4672 
Q 1544 4750 1819 4750 
Q 2544 4750 2975 4387 
Q 3406 4025 3406 3419 
Q 3406 3131 3298 2873 
Q 3191 2616 2906 2266 
Q 2828 2175 2409 1742 
Q 1991 1309 1228 531 
z
" transform="scale(0.015625)"/>
       </defs>
       <use xlink:href="#DejaVuSans-30"/>
       <use xlink:href="#DejaVuSans-2e" x="63.623047"/>
       <use xlink:href="#DejaVuSans-32" x="95.410156"/>
      </g>
     </g>
    </g>
    <g id="xtick_2">
     <g id="line2d_2">
      <g>
       <use xlink:href="#m57327df5a9" x="161.243728" y="199.814173" style="stroke: #000000; stroke-width: 0.8"/>
      </g>
     </g>
     <g id="text_2">
      <!-- 0.4 -->
      <g transform="translate(154.882478 212.892923) scale(0.08 -0.08)">
       <defs>
        <path id="DejaVuSans-34" d="M 2419 4116 
L 825 1625 
L 2419 1625 
L 2419 4116 
z
M 2253 4666 
L 3047 4666 
L 3047 1625 
L 3713 1625 
L 3713 1100 
L 3047 1100 
L 3047 0 
L 2419 0 
L 2419 1100 
L 313 1100 
L 313 1709 
L 2253 4666 
z
" transform="scale(0.015625)"/>
       </defs>
       <use xlink:href="#DejaVuSans-30"/>
       <use xlink:href="#DejaVuSans-2e" x="63.623047"/>
       <use xlink:href="#DejaVuSans-34" x="95.410156"/>
      </g>
     </g>
    </g>
    <g id="xtick_3">
     <g id="line2d_3">
      <g>
       <use xlink:href="#m57327df5a9" x="226.481967" y="199.814173" style="stroke: #000000; stroke-width: 0.8"/>
      </g>
     </g>
     <g id="text_3">
      <!-- 0.6 -->
      <g transform="translate(220.120717 212.892923) scale(0.08 -0.08)">
       <defs>
        <path id="DejaVuSans-36" d="M 2113 2584 
Q 1688 2584 1439 2293 
Q 1191 2003 1191 1497 
Q 1191 994 1439 701 
Q 1688 409 2113 409 
Q 2538 409 2786 701 
Q 3034 994 3034 1497 
Q 3034 2003 2786 2293 
Q 2538 2584 2113 2584 
z
M 3366 4563 
L 3366 3988 
Q 3128 4100 2886 4159 
Q 2644 4219 2406 4219 
Q 1781 4219 1451 3797 
Q 1122 3375 1075 2522 
Q 1259 2794 1537 2939 
Q 1816 3084 2150 3084 
Q 2853 3084 3261 2657 
Q 3669 2231 3669 1497 
Q 3669 778 3244 343 
Q 2819 -91 2113 -91 
Q 1303 -91 875 529 
Q 447 1150 447 2328 
Q 447 3434 972 4092 
Q 1497 4750 2381 4750 
Q 2619 4750 2861 4703 
Q 3103 4656 3366 4563 
z
" transform="scale(0.015625)"/>
       </defs>
       <use xlink:href="#DejaVuSans-30"/>
       <use xlink:href="#DejaVuSans-2e" x="63.623047"/>
       <use xlink:href="#DejaVuSans-36" x="95.410156"/>
      </g>
     </g>
    </g>
    <g id="text_4">
     <!-- INITIAL_IMPAIRMENT (Max - Acute) -->
     <g transform="translate(75.532643 224.626673) scale(0.08 -0.08)">
      <defs>
       <path id="DejaVuSans-49" d="M 628 4666 
L 1259 4666 
L 1259 0 
L 628 0 
L 628 4666 
z
" transform="scale(0.015625)"/>
       <path id="DejaVuSans-4e" d="M 628 4666 
L 1478 4666 
L 3547 763 
L 3547 4666 
L 4159 4666 
L 4159 0 
L 3309 0 
L 1241 3903 
L 1241 0 
L 628 0 
L 628 4666 
z
" transform="scale(0.015625)"/>
       <path id="DejaVuSans-54" d="M -19 4666 
L 3928 4666 
L 3928 4134 
L 2272 4134 
L 2272 0 
L 1638 0 
L 1638 4134 
L -19 4134 
L -19 4666 
z
" transform="scale(0.015625)"/>
       <path id="DejaVuSans-41" d="M 2188 4044 
L 1331 1722 
L 3047 1722 
L 2188 4044 
z
M 1831 4666 
L 2547 4666 
L 4325 0 
L 3669 0 
L 3244 1197 
L 1141 1197 
L 716 0 
L 50 0 
L 1831 4666 
z
" transform="scale(0.015625)"/>
       <path id="DejaVuSans-4c" d="M 628 4666 
L 1259 4666 
L 1259 531 
L 3531 531 
L 3531 0 
L 628 0 
L 628 4666 
z
" transform="scale(0.015625)"/>
       <path id="DejaVuSans-5f" d="M 3263 -1063 
L 3263 -1509 
L -63 -1509 
L -63 -1063 
L 3263 -1063 
z
" transform="scale(0.015625)"/>
       <path id="DejaVuSans-4d" d="M 628 4666 
L 1569 4666 
L 2759 1491 
L 3956 4666 
L 4897 4666 
L 4897 0 
L 4281 0 
L 4281 4097 
L 3078 897 
L 2444 897 
L 1241 4097 
L 1241 0 
L 628 0 
L 628 4666 
z
" transform="scale(0.015625)"/>
       <path id="DejaVuSans-50" d="M 1259 4147 
L 1259 2394 
L 2053 2394 
Q 2494 2394 2734 2622 
Q 2975 2850 2975 3272 
Q 2975 3691 2734 3919 
Q 2494 4147 2053 4147 
L 1259 4147 
z
M 628 4666 
L 2053 4666 
Q 2838 4666 3239 4311 
Q 3641 3956 3641 3272 
Q 3641 2581 3239 2228 
Q 2838 1875 2053 1875 
L 1259 1875 
L 1259 0 
L 628 0 
L 628 4666 
z
" transform="scale(0.015625)"/>
       <path id="DejaVuSans-52" d="M 2841 2188 
Q 3044 2119 3236 1894 
Q 3428 1669 3622 1275 
L 4263 0 
L 3584 0 
L 2988 1197 
Q 2756 1666 2539 1819 
Q 2322 1972 1947 1972 
L 1259 1972 
L 1259 0 
L 628 0 
L 628 4666 
L 2053 4666 
Q 2853 4666 3247 4331 
Q 3641 3997 3641 3322 
Q 3641 2881 3436 2590 
Q 3231 2300 2841 2188 
z
M 1259 4147 
L 1259 2491 
L 2053 2491 
Q 2509 2491 2742 2702 
Q 2975 2913 2975 3322 
Q 2975 3731 2742 3939 
Q 2509 4147 2053 4147 
L 1259 4147 
z
" transform="scale(0.015625)"/>
       <path id="DejaVuSans-45" d="M 628 4666 
L 3578 4666 
L 3578 4134 
L 1259 4134 
L 1259 2753 
L 3481 2753 
L 3481 2222 
L 1259 2222 
L 1259 531 
L 3634 531 
L 3634 0 
L 628 0 
L 628 4666 
z
" transform="scale(0.015625)"/>
       <path id="DejaVuSans-20" transform="scale(0.015625)"/>
       <path id="DejaVuSans-28" d="M 1984 4856 
Q 1566 4138 1362 3434 
Q 1159 2731 1159 2009 
Q 1159 1288 1364 580 
Q 1569 -128 1984 -844 
L 1484 -844 
Q 1016 -109 783 600 
Q 550 1309 550 2009 
Q 550 2706 781 3412 
Q 1013 4119 1484 4856 
L 1984 4856 
z
" transform="scale(0.015625)"/>
       <path id="DejaVuSans-61" d="M 2194 1759 
Q 1497 1759 1228 1600 
Q 959 1441 959 1056 
Q 959 750 1161 570 
Q 1363 391 1709 391 
Q 2188 391 2477 730 
Q 2766 1069 2766 1631 
L 2766 1759 
L 2194 1759 
z
M 3341 1997 
L 3341 0 
L 2766 0 
L 2766 531 
Q 2569 213 2275 61 
Q 1981 -91 1556 -91 
Q 1019 -91 701 211 
Q 384 513 384 1019 
Q 384 1609 779 1909 
Q 1175 2209 1959 2209 
L 2766 2209 
L 2766 2266 
Q 2766 2663 2505 2880 
Q 2244 3097 1772 3097 
Q 1472 3097 1187 3025 
Q 903 2953 641 2809 
L 641 3341 
Q 956 3463 1253 3523 
Q 1550 3584 1831 3584 
Q 2591 3584 2966 3190 
Q 3341 2797 3341 1997 
z
" transform="scale(0.015625)"/>
       <path id="DejaVuSans-78" d="M 3513 3500 
L 2247 1797 
L 3578 0 
L 2900 0 
L 1881 1375 
L 863 0 
L 184 0 
L 1544 1831 
L 300 3500 
L 978 3500 
L 1906 2253 
L 2834 3500 
L 3513 3500 
z
" transform="scale(0.015625)"/>
       <path id="DejaVuSans-2d" d="M 313 2009 
L 1997 2009 
L 1997 1497 
L 313 1497 
L 313 2009 
z
" transform="scale(0.015625)"/>
       <path id="DejaVuSans-63" d="M 3122 3366 
L 3122 2828 
Q 2878 2963 2633 3030 
Q 2388 3097 2138 3097 
Q 1578 3097 1268 2742 
Q 959 2388 959 1747 
Q 959 1106 1268 751 
Q 1578 397 2138 397 
Q 2388 397 2633 464 
Q 2878 531 3122 666 
L 3122 134 
Q 2881 22 2623 -34 
Q 2366 -91 2075 -91 
Q 1284 -91 818 406 
Q 353 903 353 1747 
Q 353 2603 823 3093 
Q 1294 3584 2113 3584 
Q 2378 3584 2631 3529 
Q 2884 3475 3122 3366 
z
" transform="scale(0.015625)"/>
       <path id="DejaVuSans-75" d="M 544 1381 
L 544 3500 
L 1119 3500 
L 1119 1403 
Q 1119 906 1312 657 
Q 1506 409 1894 409 
Q 2359 409 2629 706 
Q 2900 1003 2900 1516 
L 2900 3500 
L 3475 3500 
L 3475 0 
L 2900 0 
L 2900 538 
Q 2691 219 2414 64 
Q 2138 -91 1772 -91 
Q 1169 -91 856 284 
Q 544 659 544 1381 
z
M 1991 3584 
L 1991 3584 
z
" transform="scale(0.015625)"/>
       <path id="DejaVuSans-74" d="M 1172 4494 
L 1172 3500 
L 2356 3500 
L 2356 3053 
L 1172 3053 
L 1172 1153 
Q 1172 725 1289 603 
Q 1406 481 1766 481 
L 2356 481 
L 2356 0 
L 1766 0 
Q 1100 0 847 248 
Q 594 497 594 1153 
L 594 3053 
L 172 3053 
L 172 3500 
L 594 3500 
L 594 4494 
L 1172 4494 
z
" transform="scale(0.015625)"/>
       <path id="DejaVuSans-65" d="M 3597 1894 
L 3597 1613 
L 953 1613 
Q 991 1019 1311 708 
Q 1631 397 2203 397 
Q 2534 397 2845 478 
Q 3156 559 3463 722 
L 3463 178 
Q 3153 47 2828 -22 
Q 2503 -91 2169 -91 
Q 1331 -91 842 396 
Q 353 884 353 1716 
Q 353 2575 817 3079 
Q 1281 3584 2069 3584 
Q 2775 3584 3186 3129 
Q 3597 2675 3597 1894 
z
M 3022 2063 
Q 3016 2534 2758 2815 
Q 2500 3097 2075 3097 
Q 1594 3097 1305 2825 
Q 1016 2553 972 2059 
L 3022 2063 
z
" transform="scale(0.015625)"/>
       <path id="DejaVuSans-29" d="M 513 4856 
L 1013 4856 
Q 1481 4119 1714 3412 
Q 1947 2706 1947 2009 
Q 1947 1309 1714 600 
Q 1481 -109 1013 -844 
L 513 -844 
Q 928 -128 1133 580 
Q 1338 1288 1338 2009 
Q 1338 2731 1133 3434 
Q 928 4138 513 4856 
z
" transform="scale(0.015625)"/>
      </defs>
      <use xlink:href="#DejaVuSans-49"/>
      <use xlink:href="#DejaVuSans-4e" x="29.492188"/>
      <use xlink:href="#DejaVuSans-49" x="104.296875"/>
      <use xlink:href="#DejaVuSans-54" x="133.789062"/>
      <use xlink:href="#DejaVuSans-49" x="194.873047"/>
      <use xlink:href="#DejaVuSans-41" x="224.365234"/>
      <use xlink:href="#DejaVuSans-4c" x="292.773438"/>
      <use xlink:href="#DejaVuSans-5f" x="348.486328"/>
      <use xlink:href="#DejaVuSans-49" x="398.486328"/>
      <use xlink:href="#DejaVuSans-4d" x="427.978516"/>
      <use xlink:href="#DejaVuSans-50" x="514.257812"/>
      <use xlink:href="#DejaVuSans-41" x="568.185547"/>
      <use xlink:href="#DejaVuSans-49" x="636.59375"/>
      <use xlink:href="#DejaVuSans-52" x="666.085938"/>
      <use xlink:href="#DejaVuSans-4d" x="735.568359"/>
      <use xlink:href="#DejaVuSans-45" x="821.847656"/>
      <use xlink:href="#DejaVuSans-4e" x="885.03125"/>
      <use xlink:href="#DejaVuSans-54" x="959.835938"/>
      <use xlink:href="#DejaVuSans-20" x="1020.919922"/>
      <use xlink:href="#DejaVuSans-28" x="1052.707031"/>
      <use xlink:href="#DejaVuSans-4d" x="1091.720703"/>
      <use xlink:href="#DejaVuSans-61" x="1178"/>
      <use xlink:href="#DejaVuSans-78" x="1239.279297"/>
      <use xlink:href="#DejaVuSans-20" x="1298.458984"/>
      <use xlink:href="#DejaVuSans-2d" x="1330.246094"/>
      <use xlink:href="#DejaVuSans-20" x="1366.330078"/>
      <use xlink:href="#DejaVuSans-41" x="1398.117188"/>
      <use xlink:href="#DejaVuSans-63" x="1464.775391"/>
      <use xlink:href="#DejaVuSans-75" x="1519.755859"/>
      <use xlink:href="#DejaVuSans-74" x="1583.134766"/>
      <use xlink:href="#DejaVuSans-65" x="1622.34375"/>
      <use xlink:href="#DejaVuSans-29" x="1683.867188"/>
     </g>
    </g>
   </g>
   <g id="matplotlib.axis_2">
    <g id="ytick_1">
     <g id="line2d_4">
      <defs>
       <path id="m9c3ebcfdec" d="M 0 0 
L -3.5 0 
" style="stroke: #000000; stroke-width: 0.8"/>
      </defs>
      <g>
       <use xlink:href="#m9c3ebcfdec" x="45.59125" y="196.032871" style="stroke: #000000; stroke-width: 0.8"/>
      </g>
     </g>
     <g id="text_5">
      <!-- −0.1 -->
      <g transform="translate(19.165 199.072246) scale(0.08 -0.08)">
       <defs>
        <path id="DejaVuSans-2212" d="M 678 2272 
L 4684 2272 
L 4684 1741 
L 678 1741 
L 678 2272 
z
" transform="scale(0.015625)"/>
        <path id="DejaVuSans-31" d="M 794 531 
L 1825 531 
L 1825 4091 
L 703 3866 
L 703 4441 
L 1819 4666 
L 2450 4666 
L 2450 531 
L 3481 531 
L 3481 0 
L 794 0 
L 794 531 
z
" transform="scale(0.015625)"/>
       </defs>
       <use xlink:href="#DejaVuSans-2212"/>
       <use xlink:href="#DejaVuSans-30" x="83.789062"/>
       <use xlink:href="#DejaVuSans-2e" x="147.412109"/>
       <use xlink:href="#DejaVuSans-31" x="179.199219"/>
      </g>
     </g>
    </g>
    <g id="ytick_2">
     <g id="line2d_5">
      <g>
       <use xlink:href="#m9c3ebcfdec" x="45.59125" y="167.755304" style="stroke: #000000; stroke-width: 0.8"/>
      </g>
     </g>
     <g id="text_6">
      <!-- 0.0 -->
      <g transform="translate(25.86875 170.794679) scale(0.08 -0.08)">
       <use xlink:href="#DejaVuSans-30"/>
       <use xlink:href="#DejaVuSans-2e" x="63.623047"/>
       <use xlink:href="#DejaVuSans-30" x="95.410156"/>
      </g>
     </g>
    </g>
    <g id="ytick_3">
     <g id="line2d_6">
      <g>
       <use xlink:href="#m9c3ebcfdec" x="45.59125" y="139.477738" style="stroke: #000000; stroke-width: 0.8"/>
      </g>
     </g>
     <g id="text_7">
      <!-- 0.1 -->
      <g transform="translate(25.86875 142.517113) scale(0.08 -0.08)">
       <use xlink:href="#DejaVuSans-30"/>
       <use xlink:href="#DejaVuSans-2e" x="63.623047"/>
       <use xlink:href="#DejaVuSans-31" x="95.410156"/>
      </g>
     </g>
    </g>
    <g id="ytick_4">
     <g id="line2d_7">
      <g>
       <use xlink:href="#m9c3ebcfdec" x="45.59125" y="111.200171" style="stroke: #000000; stroke-width: 0.8"/>
      </g>
     </g>
     <g id="text_8">
      <!-- 0.2 -->
      <g transform="translate(25.86875 114.239546) scale(0.08 -0.08)">
       <use xlink:href="#DejaVuSans-30"/>
       <use xlink:href="#DejaVuSans-2e" x="63.623047"/>
       <use xlink:href="#DejaVuSans-32" x="95.410156"/>
      </g>
     </g>
    </g>
    <g id="ytick_5">
     <g id="line2d_8">
      <g>
       <use xlink:href="#m9c3ebcfdec" x="45.59125" y="82.922605" style="stroke: #000000; stroke-width: 0.8"/>
      </g>
     </g>
     <g id="text_9">
      <!-- 0.3 -->
      <g transform="translate(25.86875 85.96198) scale(0.08 -0.08)">
       <defs>
        <path id="DejaVuSans-33" d="M 2597 2516 
Q 3050 2419 3304 2112 
Q 3559 1806 3559 1356 
Q 3559 666 3084 287 
Q 2609 -91 1734 -91 
Q 1441 -91 1130 -33 
Q 819 25 488 141 
L 488 750 
Q 750 597 1062 519 
Q 1375 441 1716 441 
Q 2309 441 2620 675 
Q 2931 909 2931 1356 
Q 2931 1769 2642 2001 
Q 2353 2234 1838 2234 
L 1294 2234 
L 1294 2753 
L 1863 2753 
Q 2328 2753 2575 2939 
Q 2822 3125 2822 3475 
Q 2822 3834 2567 4026 
Q 2313 4219 1838 4219 
Q 1578 4219 1281 4162 
Q 984 4106 628 3988 
L 628 4550 
Q 988 4650 1302 4700 
Q 1616 4750 1894 4750 
Q 2613 4750 3031 4423 
Q 3450 4097 3450 3541 
Q 3450 3153 3228 2886 
Q 3006 2619 2597 2516 
z
" transform="scale(0.015625)"/>
       </defs>
       <use xlink:href="#DejaVuSans-30"/>
       <use xlink:href="#DejaVuSans-2e" x="63.623047"/>
       <use xlink:href="#DejaVuSans-33" x="95.410156"/>
      </g>
     </g>
    </g>
    <g id="ytick_6">
     <g id="line2d_9">
      <g>
       <use xlink:href="#m9c3ebcfdec" x="45.59125" y="54.645038" style="stroke: #000000; stroke-width: 0.8"/>
      </g>
     </g>
     <g id="text_10">
      <!-- 0.4 -->
      <g transform="translate(25.86875 57.684413) scale(0.08 -0.08)">
       <use xlink:href="#DejaVuSans-30"/>
       <use xlink:href="#DejaVuSans-2e" x="63.623047"/>
       <use xlink:href="#DejaVuSans-34" x="95.410156"/>
      </g>
     </g>
    </g>
    <g id="ytick_7">
     <g id="line2d_10">
      <g>
       <use xlink:href="#m9c3ebcfdec" x="45.59125" y="26.367472" style="stroke: #000000; stroke-width: 0.8"/>
      </g>
     </g>
     <g id="text_11">
      <!-- 0.5 -->
      <g transform="translate(25.86875 29.406847) scale(0.08 -0.08)">
       <defs>
        <path id="DejaVuSans-35" d="M 691 4666 
L 3169 4666 
L 3169 4134 
L 1269 4134 
L 1269 2991 
Q 1406 3038 1543 3061 
Q 1681 3084 1819 3084 
Q 2600 3084 3056 2656 
Q 3513 2228 3513 1497 
Q 3513 744 3044 326 
Q 2575 -91 1722 -91 
Q 1428 -91 1123 -41 
Q 819 9 494 109 
L 494 744 
Q 775 591 1075 516 
Q 1375 441 1709 441 
Q 2250 441 2565 725 
Q 2881 1009 2881 1497 
Q 2881 1984 2565 2268 
Q 2250 2553 1709 2553 
Q 1456 2553 1204 2497 
Q 953 2441 691 2322 
L 691 4666 
z
" transform="scale(0.015625)"/>
       </defs>
       <use xlink:href="#DejaVuSans-30"/>
       <use xlink:href="#DejaVuSans-2e" x="63.623047"/>
       <use xlink:href="#DejaVuSans-35" x="95.410156"/>
      </g>
     </g>
    </g>
    <g id="text_12">
     <!-- CHANGE_OBSERVED (Chronic - Acute) -->
     <g transform="translate(13.27875 179.440837) rotate(-90) scale(0.08 -0.08)">
      <defs>
       <path id="DejaVuSans-43" d="M 4122 4306 
L 4122 3641 
Q 3803 3938 3442 4084 
Q 3081 4231 2675 4231 
Q 1875 4231 1450 3742 
Q 1025 3253 1025 2328 
Q 1025 1406 1450 917 
Q 1875 428 2675 428 
Q 3081 428 3442 575 
Q 3803 722 4122 1019 
L 4122 359 
Q 3791 134 3420 21 
Q 3050 -91 2638 -91 
Q 1578 -91 968 557 
Q 359 1206 359 2328 
Q 359 3453 968 4101 
Q 1578 4750 2638 4750 
Q 3056 4750 3426 4639 
Q 3797 4528 4122 4306 
z
" transform="scale(0.015625)"/>
       <path id="DejaVuSans-48" d="M 628 4666 
L 1259 4666 
L 1259 2753 
L 3553 2753 
L 3553 4666 
L 4184 4666 
L 4184 0 
L 3553 0 
L 3553 2222 
L 1259 2222 
L 1259 0 
L 628 0 
L 628 4666 
z
" transform="scale(0.015625)"/>
       <path id="DejaVuSans-47" d="M 3809 666 
L 3809 1919 
L 2778 1919 
L 2778 2438 
L 4434 2438 
L 4434 434 
Q 4069 175 3628 42 
Q 3188 -91 2688 -91 
Q 1594 -91 976 548 
Q 359 1188 359 2328 
Q 359 3472 976 4111 
Q 1594 4750 2688 4750 
Q 3144 4750 3555 4637 
Q 3966 4525 4313 4306 
L 4313 3634 
Q 3963 3931 3569 4081 
Q 3175 4231 2741 4231 
Q 1884 4231 1454 3753 
Q 1025 3275 1025 2328 
Q 1025 1384 1454 906 
Q 1884 428 2741 428 
Q 3075 428 3337 486 
Q 3600 544 3809 666 
z
" transform="scale(0.015625)"/>
       <path id="DejaVuSans-4f" d="M 2522 4238 
Q 1834 4238 1429 3725 
Q 1025 3213 1025 2328 
Q 1025 1447 1429 934 
Q 1834 422 2522 422 
Q 3209 422 3611 934 
Q 4013 1447 4013 2328 
Q 4013 3213 3611 3725 
Q 3209 4238 2522 4238 
z
M 2522 4750 
Q 3503 4750 4090 4092 
Q 4678 3434 4678 2328 
Q 4678 1225 4090 567 
Q 3503 -91 2522 -91 
Q 1538 -91 948 565 
Q 359 1222 359 2328 
Q 359 3434 948 4092 
Q 1538 4750 2522 4750 
z
" transform="scale(0.015625)"/>
       <path id="DejaVuSans-42" d="M 1259 2228 
L 1259 519 
L 2272 519 
Q 2781 519 3026 730 
Q 3272 941 3272 1375 
Q 3272 1813 3026 2020 
Q 2781 2228 2272 2228 
L 1259 2228 
z
M 1259 4147 
L 1259 2741 
L 2194 2741 
Q 2656 2741 2882 2914 
Q 3109 3088 3109 3444 
Q 3109 3797 2882 3972 
Q 2656 4147 2194 4147 
L 1259 4147 
z
M 628 4666 
L 2241 4666 
Q 2963 4666 3353 4366 
Q 3744 4066 3744 3513 
Q 3744 3084 3544 2831 
Q 3344 2578 2956 2516 
Q 3422 2416 3680 2098 
Q 3938 1781 3938 1306 
Q 3938 681 3513 340 
Q 3088 0 2303 0 
L 628 0 
L 628 4666 
z
" transform="scale(0.015625)"/>
       <path id="DejaVuSans-53" d="M 3425 4513 
L 3425 3897 
Q 3066 4069 2747 4153 
Q 2428 4238 2131 4238 
Q 1616 4238 1336 4038 
Q 1056 3838 1056 3469 
Q 1056 3159 1242 3001 
Q 1428 2844 1947 2747 
L 2328 2669 
Q 3034 2534 3370 2195 
Q 3706 1856 3706 1288 
Q 3706 609 3251 259 
Q 2797 -91 1919 -91 
Q 1588 -91 1214 -16 
Q 841 59 441 206 
L 441 856 
Q 825 641 1194 531 
Q 1563 422 1919 422 
Q 2459 422 2753 634 
Q 3047 847 3047 1241 
Q 3047 1584 2836 1778 
Q 2625 1972 2144 2069 
L 1759 2144 
Q 1053 2284 737 2584 
Q 422 2884 422 3419 
Q 422 4038 858 4394 
Q 1294 4750 2059 4750 
Q 2388 4750 2728 4690 
Q 3069 4631 3425 4513 
z
" transform="scale(0.015625)"/>
       <path id="DejaVuSans-56" d="M 1831 0 
L 50 4666 
L 709 4666 
L 2188 738 
L 3669 4666 
L 4325 4666 
L 2547 0 
L 1831 0 
z
" transform="scale(0.015625)"/>
       <path id="DejaVuSans-44" d="M 1259 4147 
L 1259 519 
L 2022 519 
Q 2988 519 3436 956 
Q 3884 1394 3884 2338 
Q 3884 3275 3436 3711 
Q 2988 4147 2022 4147 
L 1259 4147 
z
M 628 4666 
L 1925 4666 
Q 3281 4666 3915 4102 
Q 4550 3538 4550 2338 
Q 4550 1131 3912 565 
Q 3275 0 1925 0 
L 628 0 
L 628 4666 
z
" transform="scale(0.015625)"/>
       <path id="DejaVuSans-68" d="M 3513 2113 
L 3513 0 
L 2938 0 
L 2938 2094 
Q 2938 2591 2744 2837 
Q 2550 3084 2163 3084 
Q 1697 3084 1428 2787 
Q 1159 2491 1159 1978 
L 1159 0 
L 581 0 
L 581 4863 
L 1159 4863 
L 1159 2956 
Q 1366 3272 1645 3428 
Q 1925 3584 2291 3584 
Q 2894 3584 3203 3211 
Q 3513 2838 3513 2113 
z
" transform="scale(0.015625)"/>
       <path id="DejaVuSans-72" d="M 2631 2963 
Q 2534 3019 2420 3045 
Q 2306 3072 2169 3072 
Q 1681 3072 1420 2755 
Q 1159 2438 1159 1844 
L 1159 0 
L 581 0 
L 581 3500 
L 1159 3500 
L 1159 2956 
Q 1341 3275 1631 3429 
Q 1922 3584 2338 3584 
Q 2397 3584 2469 3576 
Q 2541 3569 2628 3553 
L 2631 2963 
z
" transform="scale(0.015625)"/>
       <path id="DejaVuSans-6f" d="M 1959 3097 
Q 1497 3097 1228 2736 
Q 959 2375 959 1747 
Q 959 1119 1226 758 
Q 1494 397 1959 397 
Q 2419 397 2687 759 
Q 2956 1122 2956 1747 
Q 2956 2369 2687 2733 
Q 2419 3097 1959 3097 
z
M 1959 3584 
Q 2709 3584 3137 3096 
Q 3566 2609 3566 1747 
Q 3566 888 3137 398 
Q 2709 -91 1959 -91 
Q 1206 -91 779 398 
Q 353 888 353 1747 
Q 353 2609 779 3096 
Q 1206 3584 1959 3584 
z
" transform="scale(0.015625)"/>
       <path id="DejaVuSans-6e" d="M 3513 2113 
L 3513 0 
L 2938 0 
L 2938 2094 
Q 2938 2591 2744 2837 
Q 2550 3084 2163 3084 
Q 1697 3084 1428 2787 
Q 1159 2491 1159 1978 
L 1159 0 
L 581 0 
L 581 3500 
L 1159 3500 
L 1159 2956 
Q 1366 3272 1645 3428 
Q 1925 3584 2291 3584 
Q 2894 3584 3203 3211 
Q 3513 2838 3513 2113 
z
" transform="scale(0.015625)"/>
       <path id="DejaVuSans-69" d="M 603 3500 
L 1178 3500 
L 1178 0 
L 603 0 
L 603 3500 
z
M 603 4863 
L 1178 4863 
L 1178 4134 
L 603 4134 
L 603 4863 
z
" transform="scale(0.015625)"/>
      </defs>
      <use xlink:href="#DejaVuSans-43"/>
      <use xlink:href="#DejaVuSans-48" x="69.824219"/>
      <use xlink:href="#DejaVuSans-41" x="145.019531"/>
      <use xlink:href="#DejaVuSans-4e" x="213.427734"/>
      <use xlink:href="#DejaVuSans-47" x="288.232422"/>
      <use xlink:href="#DejaVuSans-45" x="365.722656"/>
      <use xlink:href="#DejaVuSans-5f" x="428.90625"/>
      <use xlink:href="#DejaVuSans-4f" x="478.90625"/>
      <use xlink:href="#DejaVuSans-42" x="557.617188"/>
      <use xlink:href="#DejaVuSans-53" x="624.470703"/>
      <use xlink:href="#DejaVuSans-45" x="687.947266"/>
      <use xlink:href="#DejaVuSans-52" x="751.130859"/>
      <use xlink:href="#DejaVuSans-56" x="815.113281"/>
      <use xlink:href="#DejaVuSans-45" x="883.521484"/>
      <use xlink:href="#DejaVuSans-44" x="946.705078"/>
      <use xlink:href="#DejaVuSans-20" x="1023.707031"/>
      <use xlink:href="#DejaVuSans-28" x="1055.494141"/>
      <use xlink:href="#DejaVuSans-43" x="1094.507812"/>
      <use xlink:href="#DejaVuSans-68" x="1164.332031"/>
      <use xlink:href="#DejaVuSans-72" x="1227.710938"/>
      <use xlink:href="#DejaVuSans-6f" x="1266.574219"/>
      <use xlink:href="#DejaVuSans-6e" x="1327.755859"/>
      <use xlink:href="#DejaVuSans-69" x="1391.134766"/>
      <use xlink:href="#DejaVuSans-63" x="1418.917969"/>
      <use xlink:href="#DejaVuSans-20" x="1473.898438"/>
      <use xlink:href="#DejaVuSans-2d" x="1505.685547"/>
      <use xlink:href="#DejaVuSans-20" x="1541.769531"/>
      <use xlink:href="#DejaVuSans-41" x="1573.556641"/>
      <use xlink:href="#DejaVuSans-63" x="1640.214844"/>
      <use xlink:href="#DejaVuSans-75" x="1695.195312"/>
      <use xlink:href="#DejaVuSans-74" x="1758.574219"/>
      <use xlink:href="#DejaVuSans-65" x="1797.783203"/>
      <use xlink:href="#DejaVuSans-29" x="1859.306641"/>
     </g>
    </g>
   </g>
   <g id="line2d_11">
    <path d="M 54.578365 141.945861 
L 56.393944 142.134053 
L 58.209523 142.322246 
L 60.025102 142.510438 
L 61.840681 142.698631 
L 63.656259 142.886823 
L 65.471838 143.075016 
L 67.287417 143.263208 
L 69.102996 143.4514 
L 70.918575 143.639593 
L 72.734154 143.827785 
L 74.549732 144.015978 
L 76.365311 144.20417 
L 78.18089 144.392363 
L 79.996469 144.580555 
L 81.812048 144.768748 
L 83.627627 144.95694 
L 85.443205 145.145132 
L 87.258784 145.333325 
L 89.074363 145.521517 
L 90.889942 145.70971 
L 92.705521 145.897902 
L 94.5211 146.086095 
L 96.336679 146.274287 
L 98.152257 146.46248 
L 99.967836 146.650672 
L 101.783415 146.838865 
L 103.598994 147.027057 
L 105.414573 147.215249 
L 107.230152 147.403442 
L 109.04573 147.591634 
L 110.861309 147.779827 
L 112.676888 147.968019 
L 114.492467 148.156212 
L 116.308046 148.344404 
L 118.123625 148.532597 
L 119.939203 148.720789 
L 121.754782 148.908981 
L 123.570361 149.097174 
L 125.38594 149.285366 
L 127.201519 149.473559 
L 129.017098 149.661751 
L 130.832676 149.849944 
L 132.648255 150.038136 
L 134.463834 150.226329 
L 136.279413 150.414521 
L 138.094992 150.602714 
L 139.910571 150.790906 
L 141.726149 150.979098 
L 143.541728 151.167291 
L 145.357307 151.355483 
L 147.172886 151.543676 
L 148.988465 151.731868 
L 150.804044 151.920061 
L 152.619622 152.108253 
L 154.435201 152.296446 
L 156.25078 152.484638 
L 158.066359 152.67283 
L 159.881938 152.861023 
L 161.697517 153.049215 
L 163.513096 153.237408 
L 165.328674 153.4256 
L 167.144253 153.613793 
L 168.959832 153.801985 
L 170.775411 153.990178 
L 172.59099 154.17837 
L 174.406569 154.366562 
L 176.222147 154.554755 
L 178.037726 154.742947 
L 179.853305 154.93114 
L 181.668884 155.119332 
L 183.484463 155.307525 
L 185.300042 155.495717 
L 187.11562 155.68391 
L 188.931199 155.872102 
L 190.746778 156.060295 
L 192.562357 156.248487 
L 194.377936 156.436679 
L 196.193515 156.624872 
L 198.009093 156.813064 
L 199.824672 157.001257 
L 201.640251 157.189449 
L 203.45583 157.377642 
L 205.271409 157.565834 
L 207.086988 157.754027 
L 208.902566 157.942219 
L 210.718145 158.130411 
L 212.533724 158.318604 
L 214.349303 158.506796 
L 216.164882 158.694989 
L 217.980461 158.883181 
L 219.796039 159.071374 
L 221.611618 159.259566 
L 223.427197 159.447759 
L 225.242776 159.635951 
L 227.058355 159.824144 
L 228.873934 160.012336 
L 230.689513 160.200528 
L 232.505091 160.388721 
L 234.32067 160.576913 
" clip-path="url(#pf8ddd2a4e8)" style="fill: none; stroke: #000000; stroke-width: 0.5; stroke-linecap: square"/>
   </g>
   <g id="line2d_12">
    <path d="M 54.578365 125.028413 
L 56.393944 123.926663 
L 58.209523 122.824913 
L 60.025102 121.723164 
L 61.840681 120.621414 
L 63.656259 119.519664 
L 65.471838 118.417914 
L 67.287417 117.316165 
L 69.102996 116.214415 
L 70.918575 115.112665 
L 72.734154 114.010916 
L 74.549732 112.909166 
L 76.365311 111.807416 
L 78.18089 110.705666 
L 79.996469 109.603917 
L 81.812048 108.502167 
L 83.627627 107.400417 
L 85.443205 106.298667 
L 87.258784 105.196918 
L 89.074363 104.095168 
L 90.889942 102.993418 
L 92.705521 101.891669 
L 94.5211 100.789919 
L 96.336679 99.688169 
L 98.152257 98.586419 
L 99.967836 97.48467 
L 101.783415 96.38292 
L 103.598994 95.28117 
L 105.414573 94.17942 
L 107.230152 93.077671 
L 109.04573 91.975921 
L 110.861309 90.874171 
L 112.676888 89.772422 
L 114.492467 88.670672 
L 116.308046 87.568922 
L 118.123625 86.467172 
L 119.939203 85.365423 
L 121.754782 84.263673 
L 123.570361 83.161923 
L 125.38594 82.060173 
L 127.201519 80.958424 
L 129.017098 79.856674 
L 130.832676 78.754924 
L 132.648255 77.653174 
L 134.463834 76.551425 
L 136.279413 75.449675 
L 138.094992 74.347925 
L 139.910571 73.246176 
L 141.726149 72.144426 
L 143.541728 71.042676 
L 145.357307 69.940926 
L 147.172886 68.839177 
L 148.988465 67.737427 
L 150.804044 66.635677 
L 152.619622 65.533927 
L 154.435201 64.432178 
L 156.25078 63.330428 
L 158.066359 62.228678 
L 159.881938 61.126929 
L 161.697517 60.025179 
L 163.513096 58.923429 
L 165.328674 57.821679 
L 167.144253 56.71993 
L 168.959832 55.61818 
L 170.775411 54.51643 
L 172.59099 53.41468 
L 174.406569 52.312931 
L 176.222147 51.211181 
L 178.037726 50.109431 
L 179.853305 49.007682 
L 181.668884 47.905932 
L 183.484463 46.804182 
L 185.300042 45.702432 
L 187.11562 44.600683 
L 188.931199 43.498933 
L 190.746778 42.397183 
L 192.562357 41.295433 
L 194.377936 40.193684 
L 196.193515 39.091934 
L 198.009093 37.990184 
L 199.824672 36.888435 
L 201.640251 35.786685 
L 203.45583 34.684935 
L 205.271409 33.583185 
L 207.086988 32.481436 
L 208.902566 31.379686 
L 210.718145 30.277936 
L 212.533724 29.176186 
L 214.349303 28.074437 
L 216.164882 26.972687 
L 217.980461 25.870937 
L 219.796039 24.769188 
L 221.611618 23.667438 
L 223.427197 22.565688 
L 225.242776 21.463938 
L 227.058355 20.362189 
L 228.873934 19.260439 
L 230.689513 18.158689 
L 232.505091 17.056939 
L 234.32067 15.95519 
" clip-path="url(#pf8ddd2a4e8)" style="fill: none; stroke-dasharray: 1.85,0.8; stroke-dashoffset: 0; stroke: #000000; stroke-width: 0.5"/>
   </g>
   <g id="patch_3">
    <path d="M 45.59125 199.814173 
L 45.59125 7.2 
" style="fill: none; stroke: #000000; stroke-width: 0.8; stroke-linejoin: miter; stroke-linecap: square"/>
   </g>
   <g id="patch_4">
    <path d="M 45.59125 199.814173 
L 243.307785 199.814173 
" style="fill: none; stroke: #000000; stroke-width: 0.8; stroke-linejoin: miter; stroke-linecap: square"/>
   </g>
   <g id="legend_1">
    <g id="PathCollection_4">
     <defs>
      <path id="m1fcad1fca1" d="M 0 1.5 
C 0.397805 1.5 0.77937 1.341951 1.06066 1.06066 
C 1.341951 0.77937 1.5 0.397805 1.5 0 
C 1.5 -0.397805 1.341951 -0.77937 1.06066 -1.06066 
C 0.77937 -1.341951 0.397805 -1.5 0 -1.5 
C -0.397805 -1.5 -0.77937 -1.341951 -1.06066 -1.06066 
C -1.341951 -0.77937 -1.5 -0.397805 -1.5 0 
C -1.5 0.397805 -1.341951 0.77937 -1.06066 1.06066 
C -0.77937 1.341951 -0.397805 1.5 0 1.5 
z
" style="stroke: #008000"/>
     </defs>
     <g>
      <use xlink:href="#m1fcad1fca1" x="272.193612" y="21.173438" style="fill: #008000; stroke: #008000"/>
     </g>
    </g>
    <g id="text_13">
     <!-- HRR -->
     <g transform="translate(290.193612 23.798438) scale(0.1 -0.1)">
      <use xlink:href="#DejaVuSans-48"/>
      <use xlink:href="#DejaVuSans-52" x="75.195312"/>
      <use xlink:href="#DejaVuSans-52" x="144.677734"/>
     </g>
    </g>
    <g id="PathCollection_5">
     <defs>
      <path id="me4879c4b2f" d="M 0 1.5 
C 0.397805 1.5 0.77937 1.341951 1.06066 1.06066 
C 1.341951 0.77937 1.5 0.397805 1.5 0 
C 1.5 -0.397805 1.341951 -0.77937 1.06066 -1.06066 
C 0.77937 -1.341951 0.397805 -1.5 0 -1.5 
C -0.397805 -1.5 -0.77937 -1.341951 -1.06066 -1.06066 
C -1.341951 -0.77937 -1.5 -0.397805 -1.5 0 
C -1.5 0.397805 -1.341951 0.77937 -1.06066 1.06066 
C -0.77937 1.341951 -0.397805 1.5 0 1.5 
z
" style="stroke: #0000ff"/>
     </defs>
     <g>
      <use xlink:href="#me4879c4b2f" x="272.193612" y="35.851562" style="fill: #0000ff; stroke: #0000ff"/>
     </g>
    </g>
    <g id="text_14">
     <!-- PRR -->
     <g transform="translate(290.193612 38.476562) scale(0.1 -0.1)">
      <use xlink:href="#DejaVuSans-50"/>
      <use xlink:href="#DejaVuSans-52" x="60.302734"/>
      <use xlink:href="#DejaVuSans-52" x="129.785156"/>
     </g>
    </g>
    <g id="line2d_13">
     <path d="M 262.193612 49.654687 
L 272.193612 49.654687 
L 282.193612 49.654687 
" style="fill: none; stroke: #000000; stroke-width: 0.5; stroke-linecap: square"/>
    </g>
    <g id="text_15">
     <!-- Linear fit (HRR): y = -0.12x + 0.10 -->
     <g transform="translate(290.193612 53.154687) scale(0.1 -0.1)">
      <defs>
       <path id="DejaVuSans-66" d="M 2375 4863 
L 2375 4384 
L 1825 4384 
Q 1516 4384 1395 4259 
Q 1275 4134 1275 3809 
L 1275 3500 
L 2222 3500 
L 2222 3053 
L 1275 3053 
L 1275 0 
L 697 0 
L 697 3053 
L 147 3053 
L 147 3500 
L 697 3500 
L 697 3744 
Q 697 4328 969 4595 
Q 1241 4863 1831 4863 
L 2375 4863 
z
" transform="scale(0.015625)"/>
       <path id="DejaVuSans-3a" d="M 750 794 
L 1409 794 
L 1409 0 
L 750 0 
L 750 794 
z
M 750 3309 
L 1409 3309 
L 1409 2516 
L 750 2516 
L 750 3309 
z
" transform="scale(0.015625)"/>
       <path id="DejaVuSans-79" d="M 2059 -325 
Q 1816 -950 1584 -1140 
Q 1353 -1331 966 -1331 
L 506 -1331 
L 506 -850 
L 844 -850 
Q 1081 -850 1212 -737 
Q 1344 -625 1503 -206 
L 1606 56 
L 191 3500 
L 800 3500 
L 1894 763 
L 2988 3500 
L 3597 3500 
L 2059 -325 
z
" transform="scale(0.015625)"/>
       <path id="DejaVuSans-3d" d="M 678 2906 
L 4684 2906 
L 4684 2381 
L 678 2381 
L 678 2906 
z
M 678 1631 
L 4684 1631 
L 4684 1100 
L 678 1100 
L 678 1631 
z
" transform="scale(0.015625)"/>
       <path id="DejaVuSans-2b" d="M 2944 4013 
L 2944 2272 
L 4684 2272 
L 4684 1741 
L 2944 1741 
L 2944 0 
L 2419 0 
L 2419 1741 
L 678 1741 
L 678 2272 
L 2419 2272 
L 2419 4013 
L 2944 4013 
z
" transform="scale(0.015625)"/>
      </defs>
      <use xlink:href="#DejaVuSans-4c"/>
      <use xlink:href="#DejaVuSans-69" x="55.712891"/>
      <use xlink:href="#DejaVuSans-6e" x="83.496094"/>
      <use xlink:href="#DejaVuSans-65" x="146.875"/>
      <use xlink:href="#DejaVuSans-61" x="208.398438"/>
      <use xlink:href="#DejaVuSans-72" x="269.677734"/>
      <use xlink:href="#DejaVuSans-20" x="310.791016"/>
      <use xlink:href="#DejaVuSans-66" x="342.578125"/>
      <use xlink:href="#DejaVuSans-69" x="377.783203"/>
      <use xlink:href="#DejaVuSans-74" x="405.566406"/>
      <use xlink:href="#DejaVuSans-20" x="444.775391"/>
      <use xlink:href="#DejaVuSans-28" x="476.5625"/>
      <use xlink:href="#DejaVuSans-48" x="515.576172"/>
      <use xlink:href="#DejaVuSans-52" x="590.771484"/>
      <use xlink:href="#DejaVuSans-52" x="660.253906"/>
      <use xlink:href="#DejaVuSans-29" x="729.736328"/>
      <use xlink:href="#DejaVuSans-3a" x="768.75"/>
      <use xlink:href="#DejaVuSans-20" x="802.441406"/>
      <use xlink:href="#DejaVuSans-79" x="834.228516"/>
      <use xlink:href="#DejaVuSans-20" x="893.408203"/>
      <use xlink:href="#DejaVuSans-3d" x="925.195312"/>
      <use xlink:href="#DejaVuSans-20" x="1008.984375"/>
      <use xlink:href="#DejaVuSans-2d" x="1040.771484"/>
      <use xlink:href="#DejaVuSans-30" x="1076.855469"/>
      <use xlink:href="#DejaVuSans-2e" x="1140.478516"/>
      <use xlink:href="#DejaVuSans-31" x="1172.265625"/>
      <use xlink:href="#DejaVuSans-32" x="1235.888672"/>
      <use xlink:href="#DejaVuSans-78" x="1299.511719"/>
      <use xlink:href="#DejaVuSans-20" x="1358.691406"/>
      <use xlink:href="#DejaVuSans-2b" x="1390.478516"/>
      <use xlink:href="#DejaVuSans-20" x="1474.267578"/>
      <use xlink:href="#DejaVuSans-30" x="1506.054688"/>
      <use xlink:href="#DejaVuSans-2e" x="1569.677734"/>
      <use xlink:href="#DejaVuSans-31" x="1601.464844"/>
      <use xlink:href="#DejaVuSans-30" x="1665.087891"/>
     </g>
    </g>
    <g id="line2d_14">
     <path d="M 262.193612 64.332813 
L 272.193612 64.332813 
L 282.193612 64.332813 
" style="fill: none; stroke-dasharray: 1.85,0.8; stroke-dashoffset: 0; stroke: #000000; stroke-width: 0.5"/>
    </g>
    <g id="text_16">
     <!-- PRR Line: y = 0.7x + 0.1 -->
     <g transform="translate(290.193612 67.832813) scale(0.1 -0.1)">
      <defs>
       <path id="DejaVuSans-37" d="M 525 4666 
L 3525 4666 
L 3525 4397 
L 1831 0 
L 1172 0 
L 2766 4134 
L 525 4134 
L 525 4666 
z
" transform="scale(0.015625)"/>
      </defs>
      <use xlink:href="#DejaVuSans-50"/>
      <use xlink:href="#DejaVuSans-52" x="60.302734"/>
      <use xlink:href="#DejaVuSans-52" x="129.785156"/>
      <use xlink:href="#DejaVuSans-20" x="199.267578"/>
      <use xlink:href="#DejaVuSans-4c" x="231.054688"/>
      <use xlink:href="#DejaVuSans-69" x="286.767578"/>
      <use xlink:href="#DejaVuSans-6e" x="314.550781"/>
      <use xlink:href="#DejaVuSans-65" x="377.929688"/>
      <use xlink:href="#DejaVuSans-3a" x="439.453125"/>
      <use xlink:href="#DejaVuSans-20" x="473.144531"/>
      <use xlink:href="#DejaVuSans-79" x="504.931641"/>
      <use xlink:href="#DejaVuSans-20" x="564.111328"/>
      <use xlink:href="#DejaVuSans-3d" x="595.898438"/>
      <use xlink:href="#DejaVuSans-20" x="679.6875"/>
      <use xlink:href="#DejaVuSans-30" x="711.474609"/>
      <use xlink:href="#DejaVuSans-2e" x="775.097656"/>
      <use xlink:href="#DejaVuSans-37" x="806.884766"/>
      <use xlink:href="#DejaVuSans-78" x="870.507812"/>
      <use xlink:href="#DejaVuSans-20" x="929.6875"/>
      <use xlink:href="#DejaVuSans-2b" x="961.474609"/>
      <use xlink:href="#DejaVuSans-20" x="1045.263672"/>
      <use xlink:href="#DejaVuSans-30" x="1077.050781"/>
      <use xlink:href="#DejaVuSans-2e" x="1140.673828"/>
      <use xlink:href="#DejaVuSans-31" x="1172.460938"/>
     </g>
    </g>
   </g>
  </g>
 </g>
 <defs>
  <clipPath id="pf8ddd2a4e8">
   <rect x="45.59125" y="7.2" width="197.716535" height="192.614173"/>
  </clipPath>
 </defs>
</svg>
