<?xml version="1.0" encoding="utf-8" standalone="no"?>
<!DOCTYPE svg PUBLIC "-//W3C//DTD SVG 1.1//EN"
  "http://www.w3.org/Graphics/SVG/1.1/DTD/svg11.dtd">
<svg xmlns:xlink="http://www.w3.org/1999/xlink" width="479.353925pt" height="234.50044pt" viewBox="0 0 479.353925 234.50044" xmlns="http://www.w3.org/2000/svg" version="1.1">
 <metadata>
  <rdf:RDF xmlns:dc="http://purl.org/dc/elements/1.1/" xmlns:cc="http://creativecommons.org/ns#" xmlns:rdf="http://www.w3.org/1999/02/22-rdf-syntax-ns#">
   <cc:Work>
    <dc:type rdf:resource="http://purl.org/dc/dcmitype/StillImage"/>
    <dc:date>2025-03-06T10:03:15.560632</dc:date>
    <dc:format>image/svg+xml</dc:format>
    <dc:creator>
     <cc:Agent>
      <dc:title>Matplotlib v3.8.0, https://matplotlib.org/</dc:title>
     </cc:Agent>
    </dc:creator>
   </cc:Work>
  </rdf:RDF>
 </metadata>
 <defs>
  <style type="text/css">*{stroke-linejoin: round; stroke-linecap: butt}</style>
 </defs>
 <g id="figure_1">
  <g id="patch_1">
   <path d="M 0 234.50044 
L 479.353925 234.50044 
L 479.353925 0 
L 0 0 
z
" style="fill: #ffffff"/>
  </g>
  <g id="axes_1">
   <g id="patch_2">
    <path d="M 50.68125 200.60169 
L 248.397785 200.60169 
L 248.397785 7.987516 
L 50.68125 7.987516 
z
" style="fill: #ffffff"/>
   </g>
   <g id="PathCollection_1">
    <defs>
     <path id="C0_0_878258ae85" d="M 0 2.5 
C 0.663008 2.5 1.29895 2.236584 1.767767 1.767767 
C 2.236584 1.29895 2.5 0.663008 2.5 -0 
C 2.5 -0.663008 2.236584 -1.29895 1.767767 -1.767767 
C 1.29895 -2.236584 0.663008 -2.5 0 -2.5 
C -0.663008 -2.5 -1.29895 -2.236584 -1.767767 -1.767767 
C -2.236584 -1.29895 -2.5 -0.663008 -2.5 0 
C -2.5 0.663008 -2.236584 1.29895 -1.767767 1.767767 
C -1.29895 2.236584 -0.663008 2.5 0 2.5 
z
"/>
    </defs>
    <g clip-path="url(#p6de0996d4b)">
     <use xlink:href="#C0_0_878258ae85" x="115.146062" y="105.303582" style="fill: #0000ff; fill-opacity: 0.7; stroke: #ffffff; stroke-opacity: 0.7; stroke-width: 0.4"/>
    </g>
    <g clip-path="url(#p6de0996d4b)">
     <use xlink:href="#C0_0_878258ae85" x="174.833816" y="137.545061" style="fill: #0000ff; fill-opacity: 0.7; stroke: #ffffff; stroke-opacity: 0.7; stroke-width: 0.4"/>
    </g>
    <g clip-path="url(#p6de0996d4b)">
     <use xlink:href="#C0_0_878258ae85" x="143.937425" y="86.775051" style="fill: #008000; fill-opacity: 0.7; stroke: #ffffff; stroke-opacity: 0.7; stroke-width: 0.4"/>
    </g>
    <g clip-path="url(#p6de0996d4b)">
     <use xlink:href="#C0_0_878258ae85" x="229.496663" y="22.154505" style="fill: #008000; fill-opacity: 0.7; stroke: #ffffff; stroke-opacity: 0.7; stroke-width: 0.4"/>
    </g>
    <g clip-path="url(#p6de0996d4b)">
     <use xlink:href="#C0_0_878258ae85" x="91.583319" y="127.638718" style="fill: #0000ff; fill-opacity: 0.7; stroke: #ffffff; stroke-opacity: 0.7; stroke-width: 0.4"/>
    </g>
    <g clip-path="url(#p6de0996d4b)">
     <use xlink:href="#C0_0_878258ae85" x="236.287079" y="19.265155" style="fill: #008000; fill-opacity: 0.7; stroke: #ffffff; stroke-opacity: 0.7; stroke-width: 0.4"/>
    </g>
    <g clip-path="url(#p6de0996d4b)">
     <use xlink:href="#C0_0_878258ae85" x="217.070202" y="16.742706" style="fill: #008000; fill-opacity: 0.7; stroke: #ffffff; stroke-opacity: 0.7; stroke-width: 0.4"/>
    </g>
    <g clip-path="url(#p6de0996d4b)">
     <use xlink:href="#C0_0_878258ae85" x="113.787979" y="148.55211" style="fill: #0000ff; fill-opacity: 0.7; stroke: #ffffff; stroke-opacity: 0.7; stroke-width: 0.4"/>
    </g>
    <g clip-path="url(#p6de0996d4b)">
     <use xlink:href="#C0_0_878258ae85" x="216.05164" y="91.17787" style="fill: #0000ff; fill-opacity: 0.7; stroke: #ffffff; stroke-opacity: 0.7; stroke-width: 0.4"/>
    </g>
    <g clip-path="url(#p6de0996d4b)">
     <use xlink:href="#C0_0_878258ae85" x="165.530947" y="51.552496" style="fill: #008000; fill-opacity: 0.7; stroke: #ffffff; stroke-opacity: 0.7; stroke-width: 0.4"/>
    </g>
    <g clip-path="url(#p6de0996d4b)">
     <use xlink:href="#C0_0_878258ae85" x="76.780213" y="113.467143" style="fill: #008000; fill-opacity: 0.7; stroke: #ffffff; stroke-opacity: 0.7; stroke-width: 0.4"/>
    </g>
    <g clip-path="url(#p6de0996d4b)">
     <use xlink:href="#C0_0_878258ae85" x="180.469861" y="191.8465" style="fill: #0000ff; fill-opacity: 0.7; stroke: #ffffff; stroke-opacity: 0.7; stroke-width: 0.4"/>
    </g>
    <g clip-path="url(#p6de0996d4b)">
     <use xlink:href="#C0_0_878258ae85" x="158.265202" y="56.459805" style="fill: #008000; fill-opacity: 0.7; stroke: #ffffff; stroke-opacity: 0.7; stroke-width: 0.4"/>
    </g>
    <g clip-path="url(#p6de0996d4b)">
     <use xlink:href="#C0_0_878258ae85" x="167.839688" y="49.993165" style="fill: #008000; fill-opacity: 0.7; stroke: #ffffff; stroke-opacity: 0.7; stroke-width: 0.4"/>
    </g>
    <g clip-path="url(#p6de0996d4b)">
     <use xlink:href="#C0_0_878258ae85" x="59.668365" y="123.052448" style="fill: #008000; fill-opacity: 0.7; stroke: #ffffff; stroke-opacity: 0.7; stroke-width: 0.4"/>
    </g>
    <g clip-path="url(#p6de0996d4b)">
     <use xlink:href="#C0_0_878258ae85" x="192.149377" y="63.935426" style="fill: #0000ff; fill-opacity: 0.7; stroke: #ffffff; stroke-opacity: 0.7; stroke-width: 0.4"/>
    </g>
    <g clip-path="url(#p6de0996d4b)">
     <use xlink:href="#C0_0_878258ae85" x="239.41067" y="101.405253" style="fill: #0000ff; fill-opacity: 0.7; stroke: #ffffff; stroke-opacity: 0.7; stroke-width: 0.4"/>
    </g>
    <g clip-path="url(#p6de0996d4b)">
     <use xlink:href="#C0_0_878258ae85" x="152.425444" y="89.572676" style="fill: #0000ff; fill-opacity: 0.7; stroke: #ffffff; stroke-opacity: 0.7; stroke-width: 0.4"/>
    </g>
    <g clip-path="url(#p6de0996d4b)">
     <use xlink:href="#C0_0_878258ae85" x="183.593453" y="69.714126" style="fill: #0000ff; fill-opacity: 0.7; stroke: #ffffff; stroke-opacity: 0.7; stroke-width: 0.4"/>
    </g>
    <g clip-path="url(#p6de0996d4b)">
     <use xlink:href="#C0_0_878258ae85" x="176.395612" y="97.048296" style="fill: #0000ff; fill-opacity: 0.7; stroke: #ffffff; stroke-opacity: 0.7; stroke-width: 0.4"/>
    </g>
    <g clip-path="url(#p6de0996d4b)">
     <use xlink:href="#C0_0_878258ae85" x="111.071812" y="145.525172" style="fill: #0000ff; fill-opacity: 0.7; stroke: #ffffff; stroke-opacity: 0.7; stroke-width: 0.4"/>
    </g>
   </g>
   <g id="PathCollection_2"/>
   <g id="PathCollection_3"/>
   <g id="matplotlib.axis_1">
    <g id="xtick_1">
     <g id="line2d_1">
      <defs>
       <path id="m7df37a2583" d="M 0 0 
L 0 3.5 
" style="stroke: #000000; stroke-width: 0.8"/>
      </defs>
      <g>
       <use xlink:href="#m7df37a2583" x="79.537122" y="200.60169" style="stroke: #000000; stroke-width: 0.8"/>
      </g>
     </g>
     <g id="text_1">
      <!-- 0.10 -->
      <g transform="translate(70.630872 213.68044) scale(0.08 -0.08)">
       <defs>
        <path id="DejaVuSans-30" d="M 2034 4250 
Q 1547 4250 1301 3770 
Q 1056 3291 1056 2328 
Q 1056 1369 1301 889 
Q 1547 409 2034 409 
Q 2525 409 2770 889 
Q 3016 1369 3016 2328 
Q 3016 3291 2770 3770 
Q 2525 4250 2034 4250 
z
M 2034 4750 
Q 2819 4750 3233 4129 
Q 3647 3509 3647 2328 
Q 3647 1150 3233 529 
Q 2819 -91 2034 -91 
Q 1250 -91 836 529 
Q 422 1150 422 2328 
Q 422 3509 836 4129 
Q 1250 4750 2034 4750 
z
" transform="scale(0.015625)"/>
        <path id="DejaVuSans-2e" d="M 684 794 
L 1344 794 
L 1344 0 
L 684 0 
L 684 794 
z
" transform="scale(0.015625)"/>
        <path id="DejaVuSans-31" d="M 794 531 
L 1825 531 
L 1825 4091 
L 703 3866 
L 703 4441 
L 1819 4666 
L 2450 4666 
L 2450 531 
L 3481 531 
L 3481 0 
L 794 0 
L 794 531 
z
" transform="scale(0.015625)"/>
       </defs>
       <use xlink:href="#DejaVuSans-30"/>
       <use xlink:href="#DejaVuSans-2e" x="63.623047"/>
       <use xlink:href="#DejaVuSans-31" x="95.410156"/>
       <use xlink:href="#DejaVuSans-30" x="159.033203"/>
      </g>
     </g>
    </g>
    <g id="xtick_2">
     <g id="line2d_2">
      <g>
       <use xlink:href="#m7df37a2583" x="116.327594" y="200.60169" style="stroke: #000000; stroke-width: 0.8"/>
      </g>
     </g>
     <g id="text_2">
      <!-- 0.15 -->
      <g transform="translate(107.421344 213.68044) scale(0.08 -0.08)">
       <defs>
        <path id="DejaVuSans-35" d="M 691 4666 
L 3169 4666 
L 3169 4134 
L 1269 4134 
L 1269 2991 
Q 1406 3038 1543 3061 
Q 1681 3084 1819 3084 
Q 2600 3084 3056 2656 
Q 3513 2228 3513 1497 
Q 3513 744 3044 326 
Q 2575 -91 1722 -91 
Q 1428 -91 1123 -41 
Q 819 9 494 109 
L 494 744 
Q 775 591 1075 516 
Q 1375 441 1709 441 
Q 2250 441 2565 725 
Q 2881 1009 2881 1497 
Q 2881 1984 2565 2268 
Q 2250 2553 1709 2553 
Q 1456 2553 1204 2497 
Q 953 2441 691 2322 
L 691 4666 
z
" transform="scale(0.015625)"/>
       </defs>
       <use xlink:href="#DejaVuSans-30"/>
       <use xlink:href="#DejaVuSans-2e" x="63.623047"/>
       <use xlink:href="#DejaVuSans-31" x="95.410156"/>
       <use xlink:href="#DejaVuSans-35" x="159.033203"/>
      </g>
     </g>
    </g>
    <g id="xtick_3">
     <g id="line2d_3">
      <g>
       <use xlink:href="#m7df37a2583" x="153.118067" y="200.60169" style="stroke: #000000; stroke-width: 0.8"/>
      </g>
     </g>
     <g id="text_3">
      <!-- 0.20 -->
      <g transform="translate(144.211817 213.68044) scale(0.08 -0.08)">
       <defs>
        <path id="DejaVuSans-32" d="M 1228 531 
L 3431 531 
L 3431 0 
L 469 0 
L 469 531 
Q 828 903 1448 1529 
Q 2069 2156 2228 2338 
Q 2531 2678 2651 2914 
Q 2772 3150 2772 3378 
Q 2772 3750 2511 3984 
Q 2250 4219 1831 4219 
Q 1534 4219 1204 4116 
Q 875 4013 500 3803 
L 500 4441 
Q 881 4594 1212 4672 
Q 1544 4750 1819 4750 
Q 2544 4750 2975 4387 
Q 3406 4025 3406 3419 
Q 3406 3131 3298 2873 
Q 3191 2616 2906 2266 
Q 2828 2175 2409 1742 
Q 1991 1309 1228 531 
z
" transform="scale(0.015625)"/>
       </defs>
       <use xlink:href="#DejaVuSans-30"/>
       <use xlink:href="#DejaVuSans-2e" x="63.623047"/>
       <use xlink:href="#DejaVuSans-32" x="95.410156"/>
       <use xlink:href="#DejaVuSans-30" x="159.033203"/>
      </g>
     </g>
    </g>
    <g id="xtick_4">
     <g id="line2d_4">
      <g>
       <use xlink:href="#m7df37a2583" x="189.908539" y="200.60169" style="stroke: #000000; stroke-width: 0.8"/>
      </g>
     </g>
     <g id="text_4">
      <!-- 0.25 -->
      <g transform="translate(181.002289 213.68044) scale(0.08 -0.08)">
       <use xlink:href="#DejaVuSans-30"/>
       <use xlink:href="#DejaVuSans-2e" x="63.623047"/>
       <use xlink:href="#DejaVuSans-32" x="95.410156"/>
       <use xlink:href="#DejaVuSans-35" x="159.033203"/>
      </g>
     </g>
    </g>
    <g id="xtick_5">
     <g id="line2d_5">
      <g>
       <use xlink:href="#m7df37a2583" x="226.699012" y="200.60169" style="stroke: #000000; stroke-width: 0.8"/>
      </g>
     </g>
     <g id="text_5">
      <!-- 0.30 -->
      <g transform="translate(217.792762 213.68044) scale(0.08 -0.08)">
       <defs>
        <path id="DejaVuSans-33" d="M 2597 2516 
Q 3050 2419 3304 2112 
Q 3559 1806 3559 1356 
Q 3559 666 3084 287 
Q 2609 -91 1734 -91 
Q 1441 -91 1130 -33 
Q 819 25 488 141 
L 488 750 
Q 750 597 1062 519 
Q 1375 441 1716 441 
Q 2309 441 2620 675 
Q 2931 909 2931 1356 
Q 2931 1769 2642 2001 
Q 2353 2234 1838 2234 
L 1294 2234 
L 1294 2753 
L 1863 2753 
Q 2328 2753 2575 2939 
Q 2822 3125 2822 3475 
Q 2822 3834 2567 4026 
Q 2313 4219 1838 4219 
Q 1578 4219 1281 4162 
Q 984 4106 628 3988 
L 628 4550 
Q 988 4650 1302 4700 
Q 1616 4750 1894 4750 
Q 2613 4750 3031 4423 
Q 3450 4097 3450 3541 
Q 3450 3153 3228 2886 
Q 3006 2619 2597 2516 
z
" transform="scale(0.015625)"/>
       </defs>
       <use xlink:href="#DejaVuSans-30"/>
       <use xlink:href="#DejaVuSans-2e" x="63.623047"/>
       <use xlink:href="#DejaVuSans-33" x="95.410156"/>
       <use xlink:href="#DejaVuSans-30" x="159.033203"/>
      </g>
     </g>
    </g>
    <g id="text_6">
     <!-- INITIAL_IMPAIRMENT (Max - Acute) -->
     <g transform="translate(80.622643 225.41419) scale(0.08 -0.08)">
      <defs>
       <path id="DejaVuSans-49" d="M 628 4666 
L 1259 4666 
L 1259 0 
L 628 0 
L 628 4666 
z
" transform="scale(0.015625)"/>
       <path id="DejaVuSans-4e" d="M 628 4666 
L 1478 4666 
L 3547 763 
L 3547 4666 
L 4159 4666 
L 4159 0 
L 3309 0 
L 1241 3903 
L 1241 0 
L 628 0 
L 628 4666 
z
" transform="scale(0.015625)"/>
       <path id="DejaVuSans-54" d="M -19 4666 
L 3928 4666 
L 3928 4134 
L 2272 4134 
L 2272 0 
L 1638 0 
L 1638 4134 
L -19 4134 
L -19 4666 
z
" transform="scale(0.015625)"/>
       <path id="DejaVuSans-41" d="M 2188 4044 
L 1331 1722 
L 3047 1722 
L 2188 4044 
z
M 1831 4666 
L 2547 4666 
L 4325 0 
L 3669 0 
L 3244 1197 
L 1141 1197 
L 716 0 
L 50 0 
L 1831 4666 
z
" transform="scale(0.015625)"/>
       <path id="DejaVuSans-4c" d="M 628 4666 
L 1259 4666 
L 1259 531 
L 3531 531 
L 3531 0 
L 628 0 
L 628 4666 
z
" transform="scale(0.015625)"/>
       <path id="DejaVuSans-5f" d="M 3263 -1063 
L 3263 -1509 
L -63 -1509 
L -63 -1063 
L 3263 -1063 
z
" transform="scale(0.015625)"/>
       <path id="DejaVuSans-4d" d="M 628 4666 
L 1569 4666 
L 2759 1491 
L 3956 4666 
L 4897 4666 
L 4897 0 
L 4281 0 
L 4281 4097 
L 3078 897 
L 2444 897 
L 1241 4097 
L 1241 0 
L 628 0 
L 628 4666 
z
" transform="scale(0.015625)"/>
       <path id="DejaVuSans-50" d="M 1259 4147 
L 1259 2394 
L 2053 2394 
Q 2494 2394 2734 2622 
Q 2975 2850 2975 3272 
Q 2975 3691 2734 3919 
Q 2494 4147 2053 4147 
L 1259 4147 
z
M 628 4666 
L 2053 4666 
Q 2838 4666 3239 4311 
Q 3641 3956 3641 3272 
Q 3641 2581 3239 2228 
Q 2838 1875 2053 1875 
L 1259 1875 
L 1259 0 
L 628 0 
L 628 4666 
z
" transform="scale(0.015625)"/>
       <path id="DejaVuSans-52" d="M 2841 2188 
Q 3044 2119 3236 1894 
Q 3428 1669 3622 1275 
L 4263 0 
L 3584 0 
L 2988 1197 
Q 2756 1666 2539 1819 
Q 2322 1972 1947 1972 
L 1259 1972 
L 1259 0 
L 628 0 
L 628 4666 
L 2053 4666 
Q 2853 4666 3247 4331 
Q 3641 3997 3641 3322 
Q 3641 2881 3436 2590 
Q 3231 2300 2841 2188 
z
M 1259 4147 
L 1259 2491 
L 2053 2491 
Q 2509 2491 2742 2702 
Q 2975 2913 2975 3322 
Q 2975 3731 2742 3939 
Q 2509 4147 2053 4147 
L 1259 4147 
z
" transform="scale(0.015625)"/>
       <path id="DejaVuSans-45" d="M 628 4666 
L 3578 4666 
L 3578 4134 
L 1259 4134 
L 1259 2753 
L 3481 2753 
L 3481 2222 
L 1259 2222 
L 1259 531 
L 3634 531 
L 3634 0 
L 628 0 
L 628 4666 
z
" transform="scale(0.015625)"/>
       <path id="DejaVuSans-20" transform="scale(0.015625)"/>
       <path id="DejaVuSans-28" d="M 1984 4856 
Q 1566 4138 1362 3434 
Q 1159 2731 1159 2009 
Q 1159 1288 1364 580 
Q 1569 -128 1984 -844 
L 1484 -844 
Q 1016 -109 783 600 
Q 550 1309 550 2009 
Q 550 2706 781 3412 
Q 1013 4119 1484 4856 
L 1984 4856 
z
" transform="scale(0.015625)"/>
       <path id="DejaVuSans-61" d="M 2194 1759 
Q 1497 1759 1228 1600 
Q 959 1441 959 1056 
Q 959 750 1161 570 
Q 1363 391 1709 391 
Q 2188 391 2477 730 
Q 2766 1069 2766 1631 
L 2766 1759 
L 2194 1759 
z
M 3341 1997 
L 3341 0 
L 2766 0 
L 2766 531 
Q 2569 213 2275 61 
Q 1981 -91 1556 -91 
Q 1019 -91 701 211 
Q 384 513 384 1019 
Q 384 1609 779 1909 
Q 1175 2209 1959 2209 
L 2766 2209 
L 2766 2266 
Q 2766 2663 2505 2880 
Q 2244 3097 1772 3097 
Q 1472 3097 1187 3025 
Q 903 2953 641 2809 
L 641 3341 
Q 956 3463 1253 3523 
Q 1550 3584 1831 3584 
Q 2591 3584 2966 3190 
Q 3341 2797 3341 1997 
z
" transform="scale(0.015625)"/>
       <path id="DejaVuSans-78" d="M 3513 3500 
L 2247 1797 
L 3578 0 
L 2900 0 
L 1881 1375 
L 863 0 
L 184 0 
L 1544 1831 
L 300 3500 
L 978 3500 
L 1906 2253 
L 2834 3500 
L 3513 3500 
z
" transform="scale(0.015625)"/>
       <path id="DejaVuSans-2d" d="M 313 2009 
L 1997 2009 
L 1997 1497 
L 313 1497 
L 313 2009 
z
" transform="scale(0.015625)"/>
       <path id="DejaVuSans-63" d="M 3122 3366 
L 3122 2828 
Q 2878 2963 2633 3030 
Q 2388 3097 2138 3097 
Q 1578 3097 1268 2742 
Q 959 2388 959 1747 
Q 959 1106 1268 751 
Q 1578 397 2138 397 
Q 2388 397 2633 464 
Q 2878 531 3122 666 
L 3122 134 
Q 2881 22 2623 -34 
Q 2366 -91 2075 -91 
Q 1284 -91 818 406 
Q 353 903 353 1747 
Q 353 2603 823 3093 
Q 1294 3584 2113 3584 
Q 2378 3584 2631 3529 
Q 2884 3475 3122 3366 
z
" transform="scale(0.015625)"/>
       <path id="DejaVuSans-75" d="M 544 1381 
L 544 3500 
L 1119 3500 
L 1119 1403 
Q 1119 906 1312 657 
Q 1506 409 1894 409 
Q 2359 409 2629 706 
Q 2900 1003 2900 1516 
L 2900 3500 
L 3475 3500 
L 3475 0 
L 2900 0 
L 2900 538 
Q 2691 219 2414 64 
Q 2138 -91 1772 -91 
Q 1169 -91 856 284 
Q 544 659 544 1381 
z
M 1991 3584 
L 1991 3584 
z
" transform="scale(0.015625)"/>
       <path id="DejaVuSans-74" d="M 1172 4494 
L 1172 3500 
L 2356 3500 
L 2356 3053 
L 1172 3053 
L 1172 1153 
Q 1172 725 1289 603 
Q 1406 481 1766 481 
L 2356 481 
L 2356 0 
L 1766 0 
Q 1100 0 847 248 
Q 594 497 594 1153 
L 594 3053 
L 172 3053 
L 172 3500 
L 594 3500 
L 594 4494 
L 1172 4494 
z
" transform="scale(0.015625)"/>
       <path id="DejaVuSans-65" d="M 3597 1894 
L 3597 1613 
L 953 1613 
Q 991 1019 1311 708 
Q 1631 397 2203 397 
Q 2534 397 2845 478 
Q 3156 559 3463 722 
L 3463 178 
Q 3153 47 2828 -22 
Q 2503 -91 2169 -91 
Q 1331 -91 842 396 
Q 353 884 353 1716 
Q 353 2575 817 3079 
Q 1281 3584 2069 3584 
Q 2775 3584 3186 3129 
Q 3597 2675 3597 1894 
z
M 3022 2063 
Q 3016 2534 2758 2815 
Q 2500 3097 2075 3097 
Q 1594 3097 1305 2825 
Q 1016 2553 972 2059 
L 3022 2063 
z
" transform="scale(0.015625)"/>
       <path id="DejaVuSans-29" d="M 513 4856 
L 1013 4856 
Q 1481 4119 1714 3412 
Q 1947 2706 1947 2009 
Q 1947 1309 1714 600 
Q 1481 -109 1013 -844 
L 513 -844 
Q 928 -128 1133 580 
Q 1338 1288 1338 2009 
Q 1338 2731 1133 3434 
Q 928 4138 513 4856 
z
" transform="scale(0.015625)"/>
      </defs>
      <use xlink:href="#DejaVuSans-49"/>
      <use xlink:href="#DejaVuSans-4e" x="29.492188"/>
      <use xlink:href="#DejaVuSans-49" x="104.296875"/>
      <use xlink:href="#DejaVuSans-54" x="133.789062"/>
      <use xlink:href="#DejaVuSans-49" x="194.873047"/>
      <use xlink:href="#DejaVuSans-41" x="224.365234"/>
      <use xlink:href="#DejaVuSans-4c" x="292.773438"/>
      <use xlink:href="#DejaVuSans-5f" x="348.486328"/>
      <use xlink:href="#DejaVuSans-49" x="398.486328"/>
      <use xlink:href="#DejaVuSans-4d" x="427.978516"/>
      <use xlink:href="#DejaVuSans-50" x="514.257812"/>
      <use xlink:href="#DejaVuSans-41" x="568.185547"/>
      <use xlink:href="#DejaVuSans-49" x="636.59375"/>
      <use xlink:href="#DejaVuSans-52" x="666.085938"/>
      <use xlink:href="#DejaVuSans-4d" x="735.568359"/>
      <use xlink:href="#DejaVuSans-45" x="821.847656"/>
      <use xlink:href="#DejaVuSans-4e" x="885.03125"/>
      <use xlink:href="#DejaVuSans-54" x="959.835938"/>
      <use xlink:href="#DejaVuSans-20" x="1020.919922"/>
      <use xlink:href="#DejaVuSans-28" x="1052.707031"/>
      <use xlink:href="#DejaVuSans-4d" x="1091.720703"/>
      <use xlink:href="#DejaVuSans-61" x="1178"/>
      <use xlink:href="#DejaVuSans-78" x="1239.279297"/>
      <use xlink:href="#DejaVuSans-20" x="1298.458984"/>
      <use xlink:href="#DejaVuSans-2d" x="1330.246094"/>
      <use xlink:href="#DejaVuSans-20" x="1366.330078"/>
      <use xlink:href="#DejaVuSans-41" x="1398.117188"/>
      <use xlink:href="#DejaVuSans-63" x="1464.775391"/>
      <use xlink:href="#DejaVuSans-75" x="1519.755859"/>
      <use xlink:href="#DejaVuSans-74" x="1583.134766"/>
      <use xlink:href="#DejaVuSans-65" x="1622.34375"/>
      <use xlink:href="#DejaVuSans-29" x="1683.867188"/>
     </g>
    </g>
   </g>
   <g id="matplotlib.axis_2">
    <g id="ytick_1">
     <g id="line2d_6">
      <defs>
       <path id="m3258a334ff" d="M 0 0 
L -3.5 0 
" style="stroke: #000000; stroke-width: 0.8"/>
      </defs>
      <g>
       <use xlink:href="#m3258a334ff" x="50.68125" y="184.178256" style="stroke: #000000; stroke-width: 0.8"/>
      </g>
     </g>
     <g id="text_7">
      <!-- −0.05 -->
      <g transform="translate(19.165 187.217631) scale(0.08 -0.08)">
       <defs>
        <path id="DejaVuSans-2212" d="M 678 2272 
L 4684 2272 
L 4684 1741 
L 678 1741 
L 678 2272 
z
" transform="scale(0.015625)"/>
       </defs>
       <use xlink:href="#DejaVuSans-2212"/>
       <use xlink:href="#DejaVuSans-30" x="83.789062"/>
       <use xlink:href="#DejaVuSans-2e" x="147.412109"/>
       <use xlink:href="#DejaVuSans-30" x="179.199219"/>
       <use xlink:href="#DejaVuSans-35" x="242.822266"/>
      </g>
     </g>
    </g>
    <g id="ytick_2">
     <g id="line2d_7">
      <g>
       <use xlink:href="#m3258a334ff" x="50.68125" y="159.329845" style="stroke: #000000; stroke-width: 0.8"/>
      </g>
     </g>
     <g id="text_8">
      <!-- 0.00 -->
      <g transform="translate(25.86875 162.36922) scale(0.08 -0.08)">
       <use xlink:href="#DejaVuSans-30"/>
       <use xlink:href="#DejaVuSans-2e" x="63.623047"/>
       <use xlink:href="#DejaVuSans-30" x="95.410156"/>
       <use xlink:href="#DejaVuSans-30" x="159.033203"/>
      </g>
     </g>
    </g>
    <g id="ytick_3">
     <g id="line2d_8">
      <g>
       <use xlink:href="#m3258a334ff" x="50.68125" y="134.481433" style="stroke: #000000; stroke-width: 0.8"/>
      </g>
     </g>
     <g id="text_9">
      <!-- 0.05 -->
      <g transform="translate(25.86875 137.520808) scale(0.08 -0.08)">
       <use xlink:href="#DejaVuSans-30"/>
       <use xlink:href="#DejaVuSans-2e" x="63.623047"/>
       <use xlink:href="#DejaVuSans-30" x="95.410156"/>
       <use xlink:href="#DejaVuSans-35" x="159.033203"/>
      </g>
     </g>
    </g>
    <g id="ytick_4">
     <g id="line2d_9">
      <g>
       <use xlink:href="#m3258a334ff" x="50.68125" y="109.633021" style="stroke: #000000; stroke-width: 0.8"/>
      </g>
     </g>
     <g id="text_10">
      <!-- 0.10 -->
      <g transform="translate(25.86875 112.672396) scale(0.08 -0.08)">
       <use xlink:href="#DejaVuSans-30"/>
       <use xlink:href="#DejaVuSans-2e" x="63.623047"/>
       <use xlink:href="#DejaVuSans-31" x="95.410156"/>
       <use xlink:href="#DejaVuSans-30" x="159.033203"/>
      </g>
     </g>
    </g>
    <g id="ytick_5">
     <g id="line2d_10">
      <g>
       <use xlink:href="#m3258a334ff" x="50.68125" y="84.78461" style="stroke: #000000; stroke-width: 0.8"/>
      </g>
     </g>
     <g id="text_11">
      <!-- 0.15 -->
      <g transform="translate(25.86875 87.823985) scale(0.08 -0.08)">
       <use xlink:href="#DejaVuSans-30"/>
       <use xlink:href="#DejaVuSans-2e" x="63.623047"/>
       <use xlink:href="#DejaVuSans-31" x="95.410156"/>
       <use xlink:href="#DejaVuSans-35" x="159.033203"/>
      </g>
     </g>
    </g>
    <g id="ytick_6">
     <g id="line2d_11">
      <g>
       <use xlink:href="#m3258a334ff" x="50.68125" y="59.936198" style="stroke: #000000; stroke-width: 0.8"/>
      </g>
     </g>
     <g id="text_12">
      <!-- 0.20 -->
      <g transform="translate(25.86875 62.975573) scale(0.08 -0.08)">
       <use xlink:href="#DejaVuSans-30"/>
       <use xlink:href="#DejaVuSans-2e" x="63.623047"/>
       <use xlink:href="#DejaVuSans-32" x="95.410156"/>
       <use xlink:href="#DejaVuSans-30" x="159.033203"/>
      </g>
     </g>
    </g>
    <g id="ytick_7">
     <g id="line2d_12">
      <g>
       <use xlink:href="#m3258a334ff" x="50.68125" y="35.087787" style="stroke: #000000; stroke-width: 0.8"/>
      </g>
     </g>
     <g id="text_13">
      <!-- 0.25 -->
      <g transform="translate(25.86875 38.127162) scale(0.08 -0.08)">
       <use xlink:href="#DejaVuSans-30"/>
       <use xlink:href="#DejaVuSans-2e" x="63.623047"/>
       <use xlink:href="#DejaVuSans-32" x="95.410156"/>
       <use xlink:href="#DejaVuSans-35" x="159.033203"/>
      </g>
     </g>
    </g>
    <g id="ytick_8">
     <g id="line2d_13">
      <g>
       <use xlink:href="#m3258a334ff" x="50.68125" y="10.239375" style="stroke: #000000; stroke-width: 0.8"/>
      </g>
     </g>
     <g id="text_14">
      <!-- 0.30 -->
      <g transform="translate(25.86875 13.27875) scale(0.08 -0.08)">
       <use xlink:href="#DejaVuSans-30"/>
       <use xlink:href="#DejaVuSans-2e" x="63.623047"/>
       <use xlink:href="#DejaVuSans-33" x="95.410156"/>
       <use xlink:href="#DejaVuSans-30" x="159.033203"/>
      </g>
     </g>
    </g>
    <g id="text_15">
     <!-- CHANGE_OBSERVED (Chronic - Acute) -->
     <g transform="translate(13.27875 180.228353) rotate(-90) scale(0.08 -0.08)">
      <defs>
       <path id="DejaVuSans-43" d="M 4122 4306 
L 4122 3641 
Q 3803 3938 3442 4084 
Q 3081 4231 2675 4231 
Q 1875 4231 1450 3742 
Q 1025 3253 1025 2328 
Q 1025 1406 1450 917 
Q 1875 428 2675 428 
Q 3081 428 3442 575 
Q 3803 722 4122 1019 
L 4122 359 
Q 3791 134 3420 21 
Q 3050 -91 2638 -91 
Q 1578 -91 968 557 
Q 359 1206 359 2328 
Q 359 3453 968 4101 
Q 1578 4750 2638 4750 
Q 3056 4750 3426 4639 
Q 3797 4528 4122 4306 
z
" transform="scale(0.015625)"/>
       <path id="DejaVuSans-48" d="M 628 4666 
L 1259 4666 
L 1259 2753 
L 3553 2753 
L 3553 4666 
L 4184 4666 
L 4184 0 
L 3553 0 
L 3553 2222 
L 1259 2222 
L 1259 0 
L 628 0 
L 628 4666 
z
" transform="scale(0.015625)"/>
       <path id="DejaVuSans-47" d="M 3809 666 
L 3809 1919 
L 2778 1919 
L 2778 2438 
L 4434 2438 
L 4434 434 
Q 4069 175 3628 42 
Q 3188 -91 2688 -91 
Q 1594 -91 976 548 
Q 359 1188 359 2328 
Q 359 3472 976 4111 
Q 1594 4750 2688 4750 
Q 3144 4750 3555 4637 
Q 3966 4525 4313 4306 
L 4313 3634 
Q 3963 3931 3569 4081 
Q 3175 4231 2741 4231 
Q 1884 4231 1454 3753 
Q 1025 3275 1025 2328 
Q 1025 1384 1454 906 
Q 1884 428 2741 428 
Q 3075 428 3337 486 
Q 3600 544 3809 666 
z
" transform="scale(0.015625)"/>
       <path id="DejaVuSans-4f" d="M 2522 4238 
Q 1834 4238 1429 3725 
Q 1025 3213 1025 2328 
Q 1025 1447 1429 934 
Q 1834 422 2522 422 
Q 3209 422 3611 934 
Q 4013 1447 4013 2328 
Q 4013 3213 3611 3725 
Q 3209 4238 2522 4238 
z
M 2522 4750 
Q 3503 4750 4090 4092 
Q 4678 3434 4678 2328 
Q 4678 1225 4090 567 
Q 3503 -91 2522 -91 
Q 1538 -91 948 565 
Q 359 1222 359 2328 
Q 359 3434 948 4092 
Q 1538 4750 2522 4750 
z
" transform="scale(0.015625)"/>
       <path id="DejaVuSans-42" d="M 1259 2228 
L 1259 519 
L 2272 519 
Q 2781 519 3026 730 
Q 3272 941 3272 1375 
Q 3272 1813 3026 2020 
Q 2781 2228 2272 2228 
L 1259 2228 
z
M 1259 4147 
L 1259 2741 
L 2194 2741 
Q 2656 2741 2882 2914 
Q 3109 3088 3109 3444 
Q 3109 3797 2882 3972 
Q 2656 4147 2194 4147 
L 1259 4147 
z
M 628 4666 
L 2241 4666 
Q 2963 4666 3353 4366 
Q 3744 4066 3744 3513 
Q 3744 3084 3544 2831 
Q 3344 2578 2956 2516 
Q 3422 2416 3680 2098 
Q 3938 1781 3938 1306 
Q 3938 681 3513 340 
Q 3088 0 2303 0 
L 628 0 
L 628 4666 
z
" transform="scale(0.015625)"/>
       <path id="DejaVuSans-53" d="M 3425 4513 
L 3425 3897 
Q 3066 4069 2747 4153 
Q 2428 4238 2131 4238 
Q 1616 4238 1336 4038 
Q 1056 3838 1056 3469 
Q 1056 3159 1242 3001 
Q 1428 2844 1947 2747 
L 2328 2669 
Q 3034 2534 3370 2195 
Q 3706 1856 3706 1288 
Q 3706 609 3251 259 
Q 2797 -91 1919 -91 
Q 1588 -91 1214 -16 
Q 841 59 441 206 
L 441 856 
Q 825 641 1194 531 
Q 1563 422 1919 422 
Q 2459 422 2753 634 
Q 3047 847 3047 1241 
Q 3047 1584 2836 1778 
Q 2625 1972 2144 2069 
L 1759 2144 
Q 1053 2284 737 2584 
Q 422 2884 422 3419 
Q 422 4038 858 4394 
Q 1294 4750 2059 4750 
Q 2388 4750 2728 4690 
Q 3069 4631 3425 4513 
z
" transform="scale(0.015625)"/>
       <path id="DejaVuSans-56" d="M 1831 0 
L 50 4666 
L 709 4666 
L 2188 738 
L 3669 4666 
L 4325 4666 
L 2547 0 
L 1831 0 
z
" transform="scale(0.015625)"/>
       <path id="DejaVuSans-44" d="M 1259 4147 
L 1259 519 
L 2022 519 
Q 2988 519 3436 956 
Q 3884 1394 3884 2338 
Q 3884 3275 3436 3711 
Q 2988 4147 2022 4147 
L 1259 4147 
z
M 628 4666 
L 1925 4666 
Q 3281 4666 3915 4102 
Q 4550 3538 4550 2338 
Q 4550 1131 3912 565 
Q 3275 0 1925 0 
L 628 0 
L 628 4666 
z
" transform="scale(0.015625)"/>
       <path id="DejaVuSans-68" d="M 3513 2113 
L 3513 0 
L 2938 0 
L 2938 2094 
Q 2938 2591 2744 2837 
Q 2550 3084 2163 3084 
Q 1697 3084 1428 2787 
Q 1159 2491 1159 1978 
L 1159 0 
L 581 0 
L 581 4863 
L 1159 4863 
L 1159 2956 
Q 1366 3272 1645 3428 
Q 1925 3584 2291 3584 
Q 2894 3584 3203 3211 
Q 3513 2838 3513 2113 
z
" transform="scale(0.015625)"/>
       <path id="DejaVuSans-72" d="M 2631 2963 
Q 2534 3019 2420 3045 
Q 2306 3072 2169 3072 
Q 1681 3072 1420 2755 
Q 1159 2438 1159 1844 
L 1159 0 
L 581 0 
L 581 3500 
L 1159 3500 
L 1159 2956 
Q 1341 3275 1631 3429 
Q 1922 3584 2338 3584 
Q 2397 3584 2469 3576 
Q 2541 3569 2628 3553 
L 2631 2963 
z
" transform="scale(0.015625)"/>
       <path id="DejaVuSans-6f" d="M 1959 3097 
Q 1497 3097 1228 2736 
Q 959 2375 959 1747 
Q 959 1119 1226 758 
Q 1494 397 1959 397 
Q 2419 397 2687 759 
Q 2956 1122 2956 1747 
Q 2956 2369 2687 2733 
Q 2419 3097 1959 3097 
z
M 1959 3584 
Q 2709 3584 3137 3096 
Q 3566 2609 3566 1747 
Q 3566 888 3137 398 
Q 2709 -91 1959 -91 
Q 1206 -91 779 398 
Q 353 888 353 1747 
Q 353 2609 779 3096 
Q 1206 3584 1959 3584 
z
" transform="scale(0.015625)"/>
       <path id="DejaVuSans-6e" d="M 3513 2113 
L 3513 0 
L 2938 0 
L 2938 2094 
Q 2938 2591 2744 2837 
Q 2550 3084 2163 3084 
Q 1697 3084 1428 2787 
Q 1159 2491 1159 1978 
L 1159 0 
L 581 0 
L 581 3500 
L 1159 3500 
L 1159 2956 
Q 1366 3272 1645 3428 
Q 1925 3584 2291 3584 
Q 2894 3584 3203 3211 
Q 3513 2838 3513 2113 
z
" transform="scale(0.015625)"/>
       <path id="DejaVuSans-69" d="M 603 3500 
L 1178 3500 
L 1178 0 
L 603 0 
L 603 3500 
z
M 603 4863 
L 1178 4863 
L 1178 4134 
L 603 4134 
L 603 4863 
z
" transform="scale(0.015625)"/>
      </defs>
      <use xlink:href="#DejaVuSans-43"/>
      <use xlink:href="#DejaVuSans-48" x="69.824219"/>
      <use xlink:href="#DejaVuSans-41" x="145.019531"/>
      <use xlink:href="#DejaVuSans-4e" x="213.427734"/>
      <use xlink:href="#DejaVuSans-47" x="288.232422"/>
      <use xlink:href="#DejaVuSans-45" x="365.722656"/>
      <use xlink:href="#DejaVuSans-5f" x="428.90625"/>
      <use xlink:href="#DejaVuSans-4f" x="478.90625"/>
      <use xlink:href="#DejaVuSans-42" x="557.617188"/>
      <use xlink:href="#DejaVuSans-53" x="624.470703"/>
      <use xlink:href="#DejaVuSans-45" x="687.947266"/>
      <use xlink:href="#DejaVuSans-52" x="751.130859"/>
      <use xlink:href="#DejaVuSans-56" x="815.113281"/>
      <use xlink:href="#DejaVuSans-45" x="883.521484"/>
      <use xlink:href="#DejaVuSans-44" x="946.705078"/>
      <use xlink:href="#DejaVuSans-20" x="1023.707031"/>
      <use xlink:href="#DejaVuSans-28" x="1055.494141"/>
      <use xlink:href="#DejaVuSans-43" x="1094.507812"/>
      <use xlink:href="#DejaVuSans-68" x="1164.332031"/>
      <use xlink:href="#DejaVuSans-72" x="1227.710938"/>
      <use xlink:href="#DejaVuSans-6f" x="1266.574219"/>
      <use xlink:href="#DejaVuSans-6e" x="1327.755859"/>
      <use xlink:href="#DejaVuSans-69" x="1391.134766"/>
      <use xlink:href="#DejaVuSans-63" x="1418.917969"/>
      <use xlink:href="#DejaVuSans-20" x="1473.898438"/>
      <use xlink:href="#DejaVuSans-2d" x="1505.685547"/>
      <use xlink:href="#DejaVuSans-20" x="1541.769531"/>
      <use xlink:href="#DejaVuSans-41" x="1573.556641"/>
      <use xlink:href="#DejaVuSans-63" x="1640.214844"/>
      <use xlink:href="#DejaVuSans-75" x="1695.195312"/>
      <use xlink:href="#DejaVuSans-74" x="1758.574219"/>
      <use xlink:href="#DejaVuSans-65" x="1797.783203"/>
      <use xlink:href="#DejaVuSans-29" x="1859.306641"/>
     </g>
    </g>
   </g>
   <g id="line2d_14">
    <path d="M 59.668365 131.112588 
L 61.483944 129.990803 
L 63.299523 128.869018 
L 65.115102 127.747234 
L 66.930681 126.625449 
L 68.746259 125.503665 
L 70.561838 124.38188 
L 72.377417 123.260095 
L 74.192996 122.138311 
L 76.008575 121.016526 
L 77.824154 119.894742 
L 79.639732 118.772957 
L 81.455311 117.651173 
L 83.27089 116.529388 
L 85.086469 115.407603 
L 86.902048 114.285819 
L 88.717627 113.164034 
L 90.533205 112.04225 
L 92.348784 110.920465 
L 94.164363 109.79868 
L 95.979942 108.676896 
L 97.795521 107.555111 
L 99.6111 106.433327 
L 101.426679 105.311542 
L 103.242257 104.189758 
L 105.057836 103.067973 
L 106.873415 101.946188 
L 108.688994 100.824404 
L 110.504573 99.702619 
L 112.320152 98.580835 
L 114.13573 97.45905 
L 115.951309 96.337266 
L 117.766888 95.215481 
L 119.582467 94.093696 
L 121.398046 92.971912 
L 123.213625 91.850127 
L 125.029203 90.728343 
L 126.844782 89.606558 
L 128.660361 88.484773 
L 130.47594 87.362989 
L 132.291519 86.241204 
L 134.107098 85.11942 
L 135.922676 83.997635 
L 137.738255 82.875851 
L 139.553834 81.754066 
L 141.369413 80.632281 
L 143.184992 79.510497 
L 145.000571 78.388712 
L 146.816149 77.266928 
L 148.631728 76.145143 
L 150.447307 75.023359 
L 152.262886 73.901574 
L 154.078465 72.779789 
L 155.894044 71.658005 
L 157.709622 70.53622 
L 159.525201 69.414436 
L 161.34078 68.292651 
L 163.156359 67.170866 
L 164.971938 66.049082 
L 166.787517 64.927297 
L 168.603096 63.805513 
L 170.418674 62.683728 
L 172.234253 61.561944 
L 174.049832 60.440159 
L 175.865411 59.318374 
L 177.68099 58.19659 
L 179.496569 57.074805 
L 181.312147 55.953021 
L 183.127726 54.831236 
L 184.943305 53.709451 
L 186.758884 52.587667 
L 188.574463 51.465882 
L 190.390042 50.344098 
L 192.20562 49.222313 
L 194.021199 48.100529 
L 195.836778 46.978744 
L 197.652357 45.856959 
L 199.467936 44.735175 
L 201.283515 43.61339 
L 203.099093 42.491606 
L 204.914672 41.369821 
L 206.730251 40.248037 
L 208.54583 39.126252 
L 210.361409 38.004467 
L 212.176988 36.882683 
L 213.992566 35.760898 
L 215.808145 34.639114 
L 217.623724 33.517329 
L 219.439303 32.395544 
L 221.254882 31.27376 
L 223.070461 30.151975 
L 224.886039 29.030191 
L 226.701618 27.908406 
L 228.517197 26.786622 
L 230.332776 25.664837 
L 232.148355 24.543052 
L 233.963934 23.421268 
L 235.779513 22.299483 
L 237.595091 21.177699 
L 239.41067 20.055914 
" clip-path="url(#p6de0996d4b)" style="fill: none; stroke: #000000; stroke-width: 0.5; stroke-linecap: square"/>
   </g>
   <g id="line2d_15">
    <path d="M 59.668365 138.905349 
L 61.483944 138.046975 
L 63.299523 137.188602 
L 65.115102 136.330228 
L 66.930681 135.471854 
L 68.746259 134.613481 
L 70.561838 133.755107 
L 72.377417 132.896733 
L 74.192996 132.038359 
L 76.008575 131.179986 
L 77.824154 130.321612 
L 79.639732 129.463238 
L 81.455311 128.604864 
L 83.27089 127.746491 
L 85.086469 126.888117 
L 86.902048 126.029743 
L 88.717627 125.171369 
L 90.533205 124.312996 
L 92.348784 123.454622 
L 94.164363 122.596248 
L 95.979942 121.737875 
L 97.795521 120.879501 
L 99.6111 120.021127 
L 101.426679 119.162753 
L 103.242257 118.30438 
L 105.057836 117.446006 
L 106.873415 116.587632 
L 108.688994 115.729258 
L 110.504573 114.870885 
L 112.320152 114.012511 
L 114.13573 113.154137 
L 115.951309 112.295764 
L 117.766888 111.43739 
L 119.582467 110.579016 
L 121.398046 109.720642 
L 123.213625 108.862269 
L 125.029203 108.003895 
L 126.844782 107.145521 
L 128.660361 106.287147 
L 130.47594 105.428774 
L 132.291519 104.5704 
L 134.107098 103.712026 
L 135.922676 102.853652 
L 137.738255 101.995279 
L 139.553834 101.136905 
L 141.369413 100.278531 
L 143.184992 99.420158 
L 145.000571 98.561784 
L 146.816149 97.70341 
L 148.631728 96.845036 
L 150.447307 95.986663 
L 152.262886 95.128289 
L 154.078465 94.269915 
L 155.894044 93.411541 
L 157.709622 92.553168 
L 159.525201 91.694794 
L 161.34078 90.83642 
L 163.156359 89.978047 
L 164.971938 89.119673 
L 166.787517 88.261299 
L 168.603096 87.402925 
L 170.418674 86.544552 
L 172.234253 85.686178 
L 174.049832 84.827804 
L 175.865411 83.96943 
L 177.68099 83.111057 
L 179.496569 82.252683 
L 181.312147 81.394309 
L 183.127726 80.535935 
L 184.943305 79.677562 
L 186.758884 78.819188 
L 188.574463 77.960814 
L 190.390042 77.102441 
L 192.20562 76.244067 
L 194.021199 75.385693 
L 195.836778 74.527319 
L 197.652357 73.668946 
L 199.467936 72.810572 
L 201.283515 71.952198 
L 203.099093 71.093824 
L 204.914672 70.235451 
L 206.730251 69.377077 
L 208.54583 68.518703 
L 210.361409 67.66033 
L 212.176988 66.801956 
L 213.992566 65.943582 
L 215.808145 65.085208 
L 217.623724 64.226835 
L 219.439303 63.368461 
L 221.254882 62.510087 
L 223.070461 61.651713 
L 224.886039 60.79334 
L 226.701618 59.934966 
L 228.517197 59.076592 
L 230.332776 58.218218 
L 232.148355 57.359845 
L 233.963934 56.501471 
L 235.779513 55.643097 
L 237.595091 54.784724 
L 239.41067 53.92635 
" clip-path="url(#p6de0996d4b)" style="fill: none; stroke-dasharray: 1.85,0.8; stroke-dashoffset: 0; stroke: #000000; stroke-width: 0.5"/>
   </g>
   <g id="patch_3">
    <path d="M 50.68125 200.60169 
L 50.68125 7.987516 
" style="fill: none; stroke: #000000; stroke-width: 0.8; stroke-linejoin: miter; stroke-linecap: square"/>
   </g>
   <g id="patch_4">
    <path d="M 50.68125 200.60169 
L 248.397785 200.60169 
" style="fill: none; stroke: #000000; stroke-width: 0.8; stroke-linejoin: miter; stroke-linecap: square"/>
   </g>
   <g id="legend_1">
    <g id="PathCollection_4">
     <defs>
      <path id="m3a6ba5d303" d="M 0 1.5 
C 0.397805 1.5 0.77937 1.341951 1.06066 1.06066 
C 1.341951 0.77937 1.5 0.397805 1.5 0 
C 1.5 -0.397805 1.341951 -0.77937 1.06066 -1.06066 
C 0.77937 -1.341951 0.397805 -1.5 0 -1.5 
C -0.397805 -1.5 -0.77937 -1.341951 -1.06066 -1.06066 
C -1.341951 -0.77937 -1.5 -0.397805 -1.5 0 
C -1.5 0.397805 -1.341951 0.77937 -1.06066 1.06066 
C -0.77937 1.341951 -0.397805 1.5 0 1.5 
z
" style="stroke: #0000ff"/>
     </defs>
     <g>
      <use xlink:href="#m3a6ba5d303" x="277.283612" y="21.960954" style="fill: #0000ff; stroke: #0000ff"/>
     </g>
    </g>
    <g id="text_16">
     <!-- PRR -->
     <g transform="translate(295.283612 24.585954) scale(0.1 -0.1)">
      <use xlink:href="#DejaVuSans-50"/>
      <use xlink:href="#DejaVuSans-52" x="60.302734"/>
      <use xlink:href="#DejaVuSans-52" x="129.785156"/>
     </g>
    </g>
    <g id="PathCollection_5">
     <defs>
      <path id="m92fb982c68" d="M 0 1.5 
C 0.397805 1.5 0.77937 1.341951 1.06066 1.06066 
C 1.341951 0.77937 1.5 0.397805 1.5 0 
C 1.5 -0.397805 1.341951 -0.77937 1.06066 -1.06066 
C 0.77937 -1.341951 0.397805 -1.5 0 -1.5 
C -0.397805 -1.5 -0.77937 -1.341951 -1.06066 -1.06066 
C -1.341951 -0.77937 -1.5 -0.397805 -1.5 0 
C -1.5 0.397805 -1.341951 0.77937 -1.06066 1.06066 
C -0.77937 1.341951 -0.397805 1.5 0 1.5 
z
" style="stroke: #008000"/>
     </defs>
     <g>
      <use xlink:href="#m92fb982c68" x="277.283612" y="36.639079" style="fill: #008000; stroke: #008000"/>
     </g>
    </g>
    <g id="text_17">
     <!-- HRR -->
     <g transform="translate(295.283612 39.264079) scale(0.1 -0.1)">
      <use xlink:href="#DejaVuSans-48"/>
      <use xlink:href="#DejaVuSans-52" x="75.195312"/>
      <use xlink:href="#DejaVuSans-52" x="144.677734"/>
     </g>
    </g>
    <g id="line2d_16">
     <path d="M 267.283612 50.442204 
L 277.283612 50.442204 
L 287.283612 50.442204 
" style="fill: none; stroke: #000000; stroke-width: 0.5; stroke-linecap: square"/>
    </g>
    <g id="text_18">
     <!-- Linear fit (HRR): y = 0.91x + -0.01 -->
     <g transform="translate(295.283612 53.942204) scale(0.1 -0.1)">
      <defs>
       <path id="DejaVuSans-66" d="M 2375 4863 
L 2375 4384 
L 1825 4384 
Q 1516 4384 1395 4259 
Q 1275 4134 1275 3809 
L 1275 3500 
L 2222 3500 
L 2222 3053 
L 1275 3053 
L 1275 0 
L 697 0 
L 697 3053 
L 147 3053 
L 147 3500 
L 697 3500 
L 697 3744 
Q 697 4328 969 4595 
Q 1241 4863 1831 4863 
L 2375 4863 
z
" transform="scale(0.015625)"/>
       <path id="DejaVuSans-3a" d="M 750 794 
L 1409 794 
L 1409 0 
L 750 0 
L 750 794 
z
M 750 3309 
L 1409 3309 
L 1409 2516 
L 750 2516 
L 750 3309 
z
" transform="scale(0.015625)"/>
       <path id="DejaVuSans-79" d="M 2059 -325 
Q 1816 -950 1584 -1140 
Q 1353 -1331 966 -1331 
L 506 -1331 
L 506 -850 
L 844 -850 
Q 1081 -850 1212 -737 
Q 1344 -625 1503 -206 
L 1606 56 
L 191 3500 
L 800 3500 
L 1894 763 
L 2988 3500 
L 3597 3500 
L 2059 -325 
z
" transform="scale(0.015625)"/>
       <path id="DejaVuSans-3d" d="M 678 2906 
L 4684 2906 
L 4684 2381 
L 678 2381 
L 678 2906 
z
M 678 1631 
L 4684 1631 
L 4684 1100 
L 678 1100 
L 678 1631 
z
" transform="scale(0.015625)"/>
       <path id="DejaVuSans-39" d="M 703 97 
L 703 672 
Q 941 559 1184 500 
Q 1428 441 1663 441 
Q 2288 441 2617 861 
Q 2947 1281 2994 2138 
Q 2813 1869 2534 1725 
Q 2256 1581 1919 1581 
Q 1219 1581 811 2004 
Q 403 2428 403 3163 
Q 403 3881 828 4315 
Q 1253 4750 1959 4750 
Q 2769 4750 3195 4129 
Q 3622 3509 3622 2328 
Q 3622 1225 3098 567 
Q 2575 -91 1691 -91 
Q 1453 -91 1209 -44 
Q 966 3 703 97 
z
M 1959 2075 
Q 2384 2075 2632 2365 
Q 2881 2656 2881 3163 
Q 2881 3666 2632 3958 
Q 2384 4250 1959 4250 
Q 1534 4250 1286 3958 
Q 1038 3666 1038 3163 
Q 1038 2656 1286 2365 
Q 1534 2075 1959 2075 
z
" transform="scale(0.015625)"/>
       <path id="DejaVuSans-2b" d="M 2944 4013 
L 2944 2272 
L 4684 2272 
L 4684 1741 
L 2944 1741 
L 2944 0 
L 2419 0 
L 2419 1741 
L 678 1741 
L 678 2272 
L 2419 2272 
L 2419 4013 
L 2944 4013 
z
" transform="scale(0.015625)"/>
      </defs>
      <use xlink:href="#DejaVuSans-4c"/>
      <use xlink:href="#DejaVuSans-69" x="55.712891"/>
      <use xlink:href="#DejaVuSans-6e" x="83.496094"/>
      <use xlink:href="#DejaVuSans-65" x="146.875"/>
      <use xlink:href="#DejaVuSans-61" x="208.398438"/>
      <use xlink:href="#DejaVuSans-72" x="269.677734"/>
      <use xlink:href="#DejaVuSans-20" x="310.791016"/>
      <use xlink:href="#DejaVuSans-66" x="342.578125"/>
      <use xlink:href="#DejaVuSans-69" x="377.783203"/>
      <use xlink:href="#DejaVuSans-74" x="405.566406"/>
      <use xlink:href="#DejaVuSans-20" x="444.775391"/>
      <use xlink:href="#DejaVuSans-28" x="476.5625"/>
      <use xlink:href="#DejaVuSans-48" x="515.576172"/>
      <use xlink:href="#DejaVuSans-52" x="590.771484"/>
      <use xlink:href="#DejaVuSans-52" x="660.253906"/>
      <use xlink:href="#DejaVuSans-29" x="729.736328"/>
      <use xlink:href="#DejaVuSans-3a" x="768.75"/>
      <use xlink:href="#DejaVuSans-20" x="802.441406"/>
      <use xlink:href="#DejaVuSans-79" x="834.228516"/>
      <use xlink:href="#DejaVuSans-20" x="893.408203"/>
      <use xlink:href="#DejaVuSans-3d" x="925.195312"/>
      <use xlink:href="#DejaVuSans-20" x="1008.984375"/>
      <use xlink:href="#DejaVuSans-30" x="1040.771484"/>
      <use xlink:href="#DejaVuSans-2e" x="1104.394531"/>
      <use xlink:href="#DejaVuSans-39" x="1136.181641"/>
      <use xlink:href="#DejaVuSans-31" x="1199.804688"/>
      <use xlink:href="#DejaVuSans-78" x="1263.427734"/>
      <use xlink:href="#DejaVuSans-20" x="1322.607422"/>
      <use xlink:href="#DejaVuSans-2b" x="1354.394531"/>
      <use xlink:href="#DejaVuSans-20" x="1438.183594"/>
      <use xlink:href="#DejaVuSans-2d" x="1469.970703"/>
      <use xlink:href="#DejaVuSans-30" x="1506.054688"/>
      <use xlink:href="#DejaVuSans-2e" x="1569.677734"/>
      <use xlink:href="#DejaVuSans-30" x="1601.464844"/>
      <use xlink:href="#DejaVuSans-31" x="1665.087891"/>
     </g>
    </g>
    <g id="line2d_17">
     <path d="M 267.283612 65.120329 
L 277.283612 65.120329 
L 287.283612 65.120329 
" style="fill: none; stroke-dasharray: 1.85,0.8; stroke-dashoffset: 0; stroke: #000000; stroke-width: 0.5"/>
    </g>
    <g id="text_19">
     <!-- PRR Line: y = 0.7x + -0.01 -->
     <g transform="translate(295.283612 68.620329) scale(0.1 -0.1)">
      <defs>
       <path id="DejaVuSans-37" d="M 525 4666 
L 3525 4666 
L 3525 4397 
L 1831 0 
L 1172 0 
L 2766 4134 
L 525 4134 
L 525 4666 
z
" transform="scale(0.015625)"/>
      </defs>
      <use xlink:href="#DejaVuSans-50"/>
      <use xlink:href="#DejaVuSans-52" x="60.302734"/>
      <use xlink:href="#DejaVuSans-52" x="129.785156"/>
      <use xlink:href="#DejaVuSans-20" x="199.267578"/>
      <use xlink:href="#DejaVuSans-4c" x="231.054688"/>
      <use xlink:href="#DejaVuSans-69" x="286.767578"/>
      <use xlink:href="#DejaVuSans-6e" x="314.550781"/>
      <use xlink:href="#DejaVuSans-65" x="377.929688"/>
      <use xlink:href="#DejaVuSans-3a" x="439.453125"/>
      <use xlink:href="#DejaVuSans-20" x="473.144531"/>
      <use xlink:href="#DejaVuSans-79" x="504.931641"/>
      <use xlink:href="#DejaVuSans-20" x="564.111328"/>
      <use xlink:href="#DejaVuSans-3d" x="595.898438"/>
      <use xlink:href="#DejaVuSans-20" x="679.6875"/>
      <use xlink:href="#DejaVuSans-30" x="711.474609"/>
      <use xlink:href="#DejaVuSans-2e" x="775.097656"/>
      <use xlink:href="#DejaVuSans-37" x="806.884766"/>
      <use xlink:href="#DejaVuSans-78" x="870.507812"/>
      <use xlink:href="#DejaVuSans-20" x="929.6875"/>
      <use xlink:href="#DejaVuSans-2b" x="961.474609"/>
      <use xlink:href="#DejaVuSans-20" x="1045.263672"/>
      <use xlink:href="#DejaVuSans-2d" x="1077.050781"/>
      <use xlink:href="#DejaVuSans-30" x="1113.134766"/>
      <use xlink:href="#DejaVuSans-2e" x="1176.757812"/>
      <use xlink:href="#DejaVuSans-30" x="1208.544922"/>
      <use xlink:href="#DejaVuSans-31" x="1272.167969"/>
     </g>
    </g>
   </g>
  </g>
 </g>
 <defs>
  <clipPath id="p6de0996d4b">
   <rect x="50.68125" y="7.987516" width="197.716535" height="192.614173"/>
  </clipPath>
 </defs>
</svg>
