<?xml version="1.0" encoding="utf-8" standalone="no"?>
<!DOCTYPE svg PUBLIC "-//W3C//DTD SVG 1.1//EN"
  "http://www.w3.org/Graphics/SVG/1.1/DTD/svg11.dtd">
<svg xmlns:xlink="http://www.w3.org/1999/xlink" width="255.1176pt" height="255.1176pt" viewBox="0 0 255.1176 255.1176" xmlns="http://www.w3.org/2000/svg" version="1.1">
 <metadata>
  <rdf:RDF xmlns:dc="http://purl.org/dc/elements/1.1/" xmlns:cc="http://creativecommons.org/ns#" xmlns:rdf="http://www.w3.org/1999/02/22-rdf-syntax-ns#">
   <cc:Work>
    <dc:type rdf:resource="http://purl.org/dc/dcmitype/StillImage"/>
    <dc:date>2025-03-26T09:29:32.139729</dc:date>
    <dc:format>image/svg+xml</dc:format>
    <dc:creator>
     <cc:Agent>
      <dc:title>Matplotlib v3.8.3, https://matplotlib.org/</dc:title>
     </cc:Agent>
    </dc:creator>
   </cc:Work>
  </rdf:RDF>
 </metadata>
 <defs>
  <style type="text/css">*{stroke-linejoin: round; stroke-linecap: butt}</style>
 </defs>
 <g id="figure_1">
  <g id="patch_1">
   <path d="M 0 255.1176 
L 255.1176 255.1176 
L 255.1176 0 
L 0 0 
z
" style="fill: #ffffff"/>
  </g>
  <g id="axes_1">
   <g id="patch_2">
    <path d="M 31.8897 223.2279 
L 229.60584 223.2279 
L 229.60584 30.614112 
L 31.8897 30.614112 
z
" style="fill: #ffffff"/>
   </g>
   <g id="matplotlib.axis_1">
    <g id="xtick_1">
     <g id="line2d_1">
      <defs>
       <path id="me6ddf22ed1" d="M 0 0 
L 0 3.5 
" style="stroke: #000000; stroke-width: 0.8"/>
      </defs>
      <g>
       <use xlink:href="#me6ddf22ed1" x="61.616253" y="223.2279" style="stroke: #000000; stroke-width: 0.8"/>
      </g>
     </g>
     <g id="text_1">
      <!-- 0 -->
      <g transform="translate(59.071253 236.30665) scale(0.08 -0.08)">
       <defs>
        <path id="DejaVuSans-30" d="M 2034 4250 
Q 1547 4250 1301 3770 
Q 1056 3291 1056 2328 
Q 1056 1369 1301 889 
Q 1547 409 2034 409 
Q 2525 409 2770 889 
Q 3016 1369 3016 2328 
Q 3016 3291 2770 3770 
Q 2525 4250 2034 4250 
z
M 2034 4750 
Q 2819 4750 3233 4129 
Q 3647 3509 3647 2328 
Q 3647 1150 3233 529 
Q 2819 -91 2034 -91 
Q 1250 -91 836 529 
Q 422 1150 422 2328 
Q 422 3509 836 4129 
Q 1250 4750 2034 4750 
z
" transform="scale(0.015625)"/>
       </defs>
       <use xlink:href="#DejaVuSans-30"/>
      </g>
     </g>
    </g>
    <g id="xtick_2">
     <g id="line2d_2">
      <g>
       <use xlink:href="#me6ddf22ed1" x="130.74777" y="223.2279" style="stroke: #000000; stroke-width: 0.8"/>
      </g>
     </g>
     <g id="text_2">
      <!-- 1 -->
      <g transform="translate(128.20277 236.30665) scale(0.08 -0.08)">
       <defs>
        <path id="DejaVuSans-31" d="M 794 531 
L 1825 531 
L 1825 4091 
L 703 3866 
L 703 4441 
L 1819 4666 
L 2450 4666 
L 2450 531 
L 3481 531 
L 3481 0 
L 794 0 
L 794 531 
z
" transform="scale(0.015625)"/>
       </defs>
       <use xlink:href="#DejaVuSans-31"/>
      </g>
     </g>
    </g>
    <g id="xtick_3">
     <g id="line2d_3">
      <g>
       <use xlink:href="#me6ddf22ed1" x="199.879287" y="223.2279" style="stroke: #000000; stroke-width: 0.8"/>
      </g>
     </g>
     <g id="text_3">
      <!-- 2 -->
      <g transform="translate(197.334287 236.30665) scale(0.08 -0.08)">
       <defs>
        <path id="DejaVuSans-32" d="M 1228 531 
L 3431 531 
L 3431 0 
L 469 0 
L 469 531 
Q 828 903 1448 1529 
Q 2069 2156 2228 2338 
Q 2531 2678 2651 2914 
Q 2772 3150 2772 3378 
Q 2772 3750 2511 3984 
Q 2250 4219 1831 4219 
Q 1534 4219 1204 4116 
Q 875 4013 500 3803 
L 500 4441 
Q 881 4594 1212 4672 
Q 1544 4750 1819 4750 
Q 2544 4750 2975 4387 
Q 3406 4025 3406 3419 
Q 3406 3131 3298 2873 
Q 3191 2616 2906 2266 
Q 2828 2175 2409 1742 
Q 1991 1309 1228 531 
z
" transform="scale(0.015625)"/>
       </defs>
       <use xlink:href="#DejaVuSans-32"/>
      </g>
     </g>
    </g>
    <g id="text_4">
     <!-- Time Point -->
     <g transform="translate(99.267458 251.088525) scale(0.12 -0.12)">
      <defs>
       <path id="DejaVuSans-54" d="M -19 4666 
L 3928 4666 
L 3928 4134 
L 2272 4134 
L 2272 0 
L 1638 0 
L 1638 4134 
L -19 4134 
L -19 4666 
z
" transform="scale(0.015625)"/>
       <path id="DejaVuSans-69" d="M 603 3500 
L 1178 3500 
L 1178 0 
L 603 0 
L 603 3500 
z
M 603 4863 
L 1178 4863 
L 1178 4134 
L 603 4134 
L 603 4863 
z
" transform="scale(0.015625)"/>
       <path id="DejaVuSans-6d" d="M 3328 2828 
Q 3544 3216 3844 3400 
Q 4144 3584 4550 3584 
Q 5097 3584 5394 3201 
Q 5691 2819 5691 2113 
L 5691 0 
L 5113 0 
L 5113 2094 
Q 5113 2597 4934 2840 
Q 4756 3084 4391 3084 
Q 3944 3084 3684 2787 
Q 3425 2491 3425 1978 
L 3425 0 
L 2847 0 
L 2847 2094 
Q 2847 2600 2669 2842 
Q 2491 3084 2119 3084 
Q 1678 3084 1418 2786 
Q 1159 2488 1159 1978 
L 1159 0 
L 581 0 
L 581 3500 
L 1159 3500 
L 1159 2956 
Q 1356 3278 1631 3431 
Q 1906 3584 2284 3584 
Q 2666 3584 2933 3390 
Q 3200 3197 3328 2828 
z
" transform="scale(0.015625)"/>
       <path id="DejaVuSans-65" d="M 3597 1894 
L 3597 1613 
L 953 1613 
Q 991 1019 1311 708 
Q 1631 397 2203 397 
Q 2534 397 2845 478 
Q 3156 559 3463 722 
L 3463 178 
Q 3153 47 2828 -22 
Q 2503 -91 2169 -91 
Q 1331 -91 842 396 
Q 353 884 353 1716 
Q 353 2575 817 3079 
Q 1281 3584 2069 3584 
Q 2775 3584 3186 3129 
Q 3597 2675 3597 1894 
z
M 3022 2063 
Q 3016 2534 2758 2815 
Q 2500 3097 2075 3097 
Q 1594 3097 1305 2825 
Q 1016 2553 972 2059 
L 3022 2063 
z
" transform="scale(0.015625)"/>
       <path id="DejaVuSans-20" transform="scale(0.015625)"/>
       <path id="DejaVuSans-50" d="M 1259 4147 
L 1259 2394 
L 2053 2394 
Q 2494 2394 2734 2622 
Q 2975 2850 2975 3272 
Q 2975 3691 2734 3919 
Q 2494 4147 2053 4147 
L 1259 4147 
z
M 628 4666 
L 2053 4666 
Q 2838 4666 3239 4311 
Q 3641 3956 3641 3272 
Q 3641 2581 3239 2228 
Q 2838 1875 2053 1875 
L 1259 1875 
L 1259 0 
L 628 0 
L 628 4666 
z
" transform="scale(0.015625)"/>
       <path id="DejaVuSans-6f" d="M 1959 3097 
Q 1497 3097 1228 2736 
Q 959 2375 959 1747 
Q 959 1119 1226 758 
Q 1494 397 1959 397 
Q 2419 397 2687 759 
Q 2956 1122 2956 1747 
Q 2956 2369 2687 2733 
Q 2419 3097 1959 3097 
z
M 1959 3584 
Q 2709 3584 3137 3096 
Q 3566 2609 3566 1747 
Q 3566 888 3137 398 
Q 2709 -91 1959 -91 
Q 1206 -91 779 398 
Q 353 888 353 1747 
Q 353 2609 779 3096 
Q 1206 3584 1959 3584 
z
" transform="scale(0.015625)"/>
       <path id="DejaVuSans-6e" d="M 3513 2113 
L 3513 0 
L 2938 0 
L 2938 2094 
Q 2938 2591 2744 2837 
Q 2550 3084 2163 3084 
Q 1697 3084 1428 2787 
Q 1159 2491 1159 1978 
L 1159 0 
L 581 0 
L 581 3500 
L 1159 3500 
L 1159 2956 
Q 1366 3272 1645 3428 
Q 1925 3584 2291 3584 
Q 2894 3584 3203 3211 
Q 3513 2838 3513 2113 
z
" transform="scale(0.015625)"/>
       <path id="DejaVuSans-74" d="M 1172 4494 
L 1172 3500 
L 2356 3500 
L 2356 3053 
L 1172 3053 
L 1172 1153 
Q 1172 725 1289 603 
Q 1406 481 1766 481 
L 2356 481 
L 2356 0 
L 1766 0 
Q 1100 0 847 248 
Q 594 497 594 1153 
L 594 3053 
L 172 3053 
L 172 3500 
L 594 3500 
L 594 4494 
L 1172 4494 
z
" transform="scale(0.015625)"/>
      </defs>
      <use xlink:href="#DejaVuSans-54"/>
      <use xlink:href="#DejaVuSans-69" x="57.958984"/>
      <use xlink:href="#DejaVuSans-6d" x="85.742188"/>
      <use xlink:href="#DejaVuSans-65" x="183.154297"/>
      <use xlink:href="#DejaVuSans-20" x="244.677734"/>
      <use xlink:href="#DejaVuSans-50" x="276.464844"/>
      <use xlink:href="#DejaVuSans-6f" x="333.142578"/>
      <use xlink:href="#DejaVuSans-69" x="394.324219"/>
      <use xlink:href="#DejaVuSans-6e" x="422.107422"/>
      <use xlink:href="#DejaVuSans-74" x="485.486328"/>
     </g>
    </g>
   </g>
   <g id="matplotlib.axis_2">
    <g id="ytick_1">
     <g id="line2d_4">
      <defs>
       <path id="m352fdcd956" d="M 0 0 
L -3.5 0 
" style="stroke: #000000; stroke-width: 0.8"/>
      </defs>
      <g>
       <use xlink:href="#m352fdcd956" x="31.8897" y="208.801361" style="stroke: #000000; stroke-width: 0.8"/>
      </g>
     </g>
     <g id="text_5">
      <!-- 0 -->
      <g transform="translate(19.7997 211.840736) scale(0.08 -0.08)">
       <use xlink:href="#DejaVuSans-30"/>
      </g>
     </g>
    </g>
    <g id="ytick_2">
     <g id="line2d_5">
      <g>
       <use xlink:href="#m352fdcd956" x="31.8897" y="177.608845" style="stroke: #000000; stroke-width: 0.8"/>
      </g>
     </g>
     <g id="text_6">
      <!-- 20 -->
      <g transform="translate(14.7097 180.64822) scale(0.08 -0.08)">
       <use xlink:href="#DejaVuSans-32"/>
       <use xlink:href="#DejaVuSans-30" x="63.623047"/>
      </g>
     </g>
    </g>
    <g id="ytick_3">
     <g id="line2d_6">
      <g>
       <use xlink:href="#m352fdcd956" x="31.8897" y="146.416329" style="stroke: #000000; stroke-width: 0.8"/>
      </g>
     </g>
     <g id="text_7">
      <!-- 40 -->
      <g transform="translate(14.7097 149.455704) scale(0.08 -0.08)">
       <defs>
        <path id="DejaVuSans-34" d="M 2419 4116 
L 825 1625 
L 2419 1625 
L 2419 4116 
z
M 2253 4666 
L 3047 4666 
L 3047 1625 
L 3713 1625 
L 3713 1100 
L 3047 1100 
L 3047 0 
L 2419 0 
L 2419 1100 
L 313 1100 
L 313 1709 
L 2253 4666 
z
" transform="scale(0.015625)"/>
       </defs>
       <use xlink:href="#DejaVuSans-34"/>
       <use xlink:href="#DejaVuSans-30" x="63.623047"/>
      </g>
     </g>
    </g>
    <g id="ytick_4">
     <g id="line2d_7">
      <g>
       <use xlink:href="#m352fdcd956" x="31.8897" y="115.223812" style="stroke: #000000; stroke-width: 0.8"/>
      </g>
     </g>
     <g id="text_8">
      <!-- 60 -->
      <g transform="translate(14.7097 118.263187) scale(0.08 -0.08)">
       <defs>
        <path id="DejaVuSans-36" d="M 2113 2584 
Q 1688 2584 1439 2293 
Q 1191 2003 1191 1497 
Q 1191 994 1439 701 
Q 1688 409 2113 409 
Q 2538 409 2786 701 
Q 3034 994 3034 1497 
Q 3034 2003 2786 2293 
Q 2538 2584 2113 2584 
z
M 3366 4563 
L 3366 3988 
Q 3128 4100 2886 4159 
Q 2644 4219 2406 4219 
Q 1781 4219 1451 3797 
Q 1122 3375 1075 2522 
Q 1259 2794 1537 2939 
Q 1816 3084 2150 3084 
Q 2853 3084 3261 2657 
Q 3669 2231 3669 1497 
Q 3669 778 3244 343 
Q 2819 -91 2113 -91 
Q 1303 -91 875 529 
Q 447 1150 447 2328 
Q 447 3434 972 4092 
Q 1497 4750 2381 4750 
Q 2619 4750 2861 4703 
Q 3103 4656 3366 4563 
z
" transform="scale(0.015625)"/>
       </defs>
       <use xlink:href="#DejaVuSans-36"/>
       <use xlink:href="#DejaVuSans-30" x="63.623047"/>
      </g>
     </g>
    </g>
    <g id="ytick_5">
     <g id="line2d_8">
      <g>
       <use xlink:href="#m352fdcd956" x="31.8897" y="84.031296" style="stroke: #000000; stroke-width: 0.8"/>
      </g>
     </g>
     <g id="text_9">
      <!-- 80 -->
      <g transform="translate(14.7097 87.070671) scale(0.08 -0.08)">
       <defs>
        <path id="DejaVuSans-38" d="M 2034 2216 
Q 1584 2216 1326 1975 
Q 1069 1734 1069 1313 
Q 1069 891 1326 650 
Q 1584 409 2034 409 
Q 2484 409 2743 651 
Q 3003 894 3003 1313 
Q 3003 1734 2745 1975 
Q 2488 2216 2034 2216 
z
M 1403 2484 
Q 997 2584 770 2862 
Q 544 3141 544 3541 
Q 544 4100 942 4425 
Q 1341 4750 2034 4750 
Q 2731 4750 3128 4425 
Q 3525 4100 3525 3541 
Q 3525 3141 3298 2862 
Q 3072 2584 2669 2484 
Q 3125 2378 3379 2068 
Q 3634 1759 3634 1313 
Q 3634 634 3220 271 
Q 2806 -91 2034 -91 
Q 1263 -91 848 271 
Q 434 634 434 1313 
Q 434 1759 690 2068 
Q 947 2378 1403 2484 
z
M 1172 3481 
Q 1172 3119 1398 2916 
Q 1625 2713 2034 2713 
Q 2441 2713 2670 2916 
Q 2900 3119 2900 3481 
Q 2900 3844 2670 4047 
Q 2441 4250 2034 4250 
Q 1625 4250 1398 4047 
Q 1172 3844 1172 3481 
z
" transform="scale(0.015625)"/>
       </defs>
       <use xlink:href="#DejaVuSans-38"/>
       <use xlink:href="#DejaVuSans-30" x="63.623047"/>
      </g>
     </g>
    </g>
    <g id="ytick_6">
     <g id="line2d_9">
      <g>
       <use xlink:href="#m352fdcd956" x="31.8897" y="52.83878" style="stroke: #000000; stroke-width: 0.8"/>
      </g>
     </g>
     <g id="text_10">
      <!-- 100 -->
      <g transform="translate(9.6197 55.878155) scale(0.08 -0.08)">
       <use xlink:href="#DejaVuSans-31"/>
       <use xlink:href="#DejaVuSans-30" x="63.623047"/>
       <use xlink:href="#DejaVuSans-30" x="127.246094"/>
      </g>
     </g>
    </g>
    <g id="text_11">
     <!-- Score -->
     <g transform="translate(3.124075 143.723818) rotate(-90) scale(0.12 -0.12)">
      <defs>
       <path id="DejaVuSans-53" d="M 3425 4513 
L 3425 3897 
Q 3066 4069 2747 4153 
Q 2428 4238 2131 4238 
Q 1616 4238 1336 4038 
Q 1056 3838 1056 3469 
Q 1056 3159 1242 3001 
Q 1428 2844 1947 2747 
L 2328 2669 
Q 3034 2534 3370 2195 
Q 3706 1856 3706 1288 
Q 3706 609 3251 259 
Q 2797 -91 1919 -91 
Q 1588 -91 1214 -16 
Q 841 59 441 206 
L 441 856 
Q 825 641 1194 531 
Q 1563 422 1919 422 
Q 2459 422 2753 634 
Q 3047 847 3047 1241 
Q 3047 1584 2836 1778 
Q 2625 1972 2144 2069 
L 1759 2144 
Q 1053 2284 737 2584 
Q 422 2884 422 3419 
Q 422 4038 858 4394 
Q 1294 4750 2059 4750 
Q 2388 4750 2728 4690 
Q 3069 4631 3425 4513 
z
" transform="scale(0.015625)"/>
       <path id="DejaVuSans-63" d="M 3122 3366 
L 3122 2828 
Q 2878 2963 2633 3030 
Q 2388 3097 2138 3097 
Q 1578 3097 1268 2742 
Q 959 2388 959 1747 
Q 959 1106 1268 751 
Q 1578 397 2138 397 
Q 2388 397 2633 464 
Q 2878 531 3122 666 
L 3122 134 
Q 2881 22 2623 -34 
Q 2366 -91 2075 -91 
Q 1284 -91 818 406 
Q 353 903 353 1747 
Q 353 2603 823 3093 
Q 1294 3584 2113 3584 
Q 2378 3584 2631 3529 
Q 2884 3475 3122 3366 
z
" transform="scale(0.015625)"/>
       <path id="DejaVuSans-72" d="M 2631 2963 
Q 2534 3019 2420 3045 
Q 2306 3072 2169 3072 
Q 1681 3072 1420 2755 
Q 1159 2438 1159 1844 
L 1159 0 
L 581 0 
L 581 3500 
L 1159 3500 
L 1159 2956 
Q 1341 3275 1631 3429 
Q 1922 3584 2338 3584 
Q 2397 3584 2469 3576 
Q 2541 3569 2628 3553 
L 2631 2963 
z
" transform="scale(0.015625)"/>
      </defs>
      <use xlink:href="#DejaVuSans-53"/>
      <use xlink:href="#DejaVuSans-63" x="63.476562"/>
      <use xlink:href="#DejaVuSans-6f" x="118.457031"/>
      <use xlink:href="#DejaVuSans-72" x="179.638672"/>
      <use xlink:href="#DejaVuSans-65" x="218.501953"/>
     </g>
    </g>
   </g>
   <g id="patch_3">
    <path d="M 40.876797 193.205103 
L 82.355708 193.205103 
L 82.355708 169.810716 
L 40.876797 169.810716 
L 40.876797 193.205103 
z
" clip-path="url(#p8796a7523a)" style="fill: #d3d3d3; stroke: #7f7f7f; stroke-linejoin: miter"/>
   </g>
   <g id="line2d_10">
    <path d="M 61.616253 193.205103 
L 61.616253 201.003232 
" clip-path="url(#p8796a7523a)" style="fill: none; stroke: #7f7f7f"/>
   </g>
   <g id="line2d_11">
    <path d="M 61.616253 169.810716 
L 61.616253 146.416329 
" clip-path="url(#p8796a7523a)" style="fill: none; stroke: #7f7f7f"/>
   </g>
   <g id="line2d_12">
    <path d="M 51.246525 201.003232 
L 71.98598 201.003232 
" clip-path="url(#p8796a7523a)" style="fill: none; stroke: #7f7f7f; stroke-linecap: square"/>
   </g>
   <g id="line2d_13">
    <path d="M 51.246525 146.416329 
L 71.98598 146.416329 
" clip-path="url(#p8796a7523a)" style="fill: none; stroke: #7f7f7f; stroke-linecap: square"/>
   </g>
   <g id="patch_4">
    <path d="M 110.008315 146.416329 
L 151.487225 146.416329 
L 151.487225 68.435038 
L 110.008315 68.435038 
L 110.008315 146.416329 
z
" clip-path="url(#p8796a7523a)" style="fill: #d3d3d3; stroke: #7f7f7f; stroke-linejoin: miter"/>
   </g>
   <g id="line2d_14">
    <path d="M 130.74777 146.416329 
L 130.74777 193.205103 
" clip-path="url(#p8796a7523a)" style="fill: none; stroke: #7f7f7f"/>
   </g>
   <g id="line2d_15">
    <path d="M 130.74777 68.435038 
L 130.74777 52.83878 
" clip-path="url(#p8796a7523a)" style="fill: none; stroke: #7f7f7f"/>
   </g>
   <g id="line2d_16">
    <path d="M 120.378042 193.205103 
L 141.117498 193.205103 
" clip-path="url(#p8796a7523a)" style="fill: none; stroke: #7f7f7f; stroke-linecap: square"/>
   </g>
   <g id="line2d_17">
    <path d="M 120.378042 52.83878 
L 141.117498 52.83878 
" clip-path="url(#p8796a7523a)" style="fill: none; stroke: #7f7f7f; stroke-linecap: square"/>
   </g>
   <g id="patch_5">
    <path d="M 179.139832 78.182699 
L 220.618743 78.182699 
L 220.618743 52.83878 
L 179.139832 52.83878 
L 179.139832 78.182699 
z
" clip-path="url(#p8796a7523a)" style="fill: #d3d3d3; stroke: #7f7f7f; stroke-linejoin: miter"/>
   </g>
   <g id="line2d_18">
    <path d="M 199.879287 78.182699 
L 199.879287 99.627554 
" clip-path="url(#p8796a7523a)" style="fill: none; stroke: #7f7f7f"/>
   </g>
   <g id="line2d_19">
    <path d="M 199.879287 52.83878 
L 199.879287 52.83878 
" clip-path="url(#p8796a7523a)" style="fill: none; stroke: #7f7f7f"/>
   </g>
   <g id="line2d_20">
    <path d="M 189.50956 99.627554 
L 210.249015 99.627554 
" clip-path="url(#p8796a7523a)" style="fill: none; stroke: #7f7f7f; stroke-linecap: square"/>
   </g>
   <g id="line2d_21">
    <path d="M 189.50956 52.83878 
L 210.249015 52.83878 
" clip-path="url(#p8796a7523a)" style="fill: none; stroke: #7f7f7f; stroke-linecap: square"/>
   </g>
   <g id="line2d_22">
    <path d="M 61.616253 169.810716 
L 130.74777 60.636909 
L 199.879287 60.636909 
" clip-path="url(#p8796a7523a)" style="fill: none; stroke: #e41a1c; stroke-opacity: 0.8; stroke-width: 1.2; stroke-linecap: square"/>
    <defs>
     <path id="m74788a1dde" d="M 0 1 
C 0.265203 1 0.51958 0.894634 0.707107 0.707107 
C 0.894634 0.51958 1 0.265203 1 0 
C 1 -0.265203 0.894634 -0.51958 0.707107 -0.707107 
C 0.51958 -0.894634 0.265203 -1 0 -1 
C -0.265203 -1 -0.51958 -0.894634 -0.707107 -0.707107 
C -0.894634 -0.51958 -1 -0.265203 -1 0 
C -1 0.265203 -0.894634 0.51958 -0.707107 0.707107 
C -0.51958 0.894634 -0.265203 1 0 1 
z
" style="stroke: #e41a1c; stroke-opacity: 0.8"/>
    </defs>
    <g clip-path="url(#p8796a7523a)">
     <use xlink:href="#m74788a1dde" x="61.616253" y="169.810716" style="fill: #e41a1c; fill-opacity: 0.8; stroke: #e41a1c; stroke-opacity: 0.8"/>
     <use xlink:href="#m74788a1dde" x="130.74777" y="60.636909" style="fill: #e41a1c; fill-opacity: 0.8; stroke: #e41a1c; stroke-opacity: 0.8"/>
     <use xlink:href="#m74788a1dde" x="199.879287" y="60.636909" style="fill: #e41a1c; fill-opacity: 0.8; stroke: #e41a1c; stroke-opacity: 0.8"/>
    </g>
   </g>
   <g id="line2d_23">
    <path d="M 61.616253 146.416329 
L 130.74777 60.636909 
L 199.879287 76.233167 
" clip-path="url(#p8796a7523a)" style="fill: none; stroke-dasharray: 1.2,1.98; stroke-dashoffset: 0; stroke: #4daf4a; stroke-opacity: 0.8; stroke-width: 1.2"/>
    <defs>
     <path id="mcbbb2ea9f2" d="M 0 1 
C 0.265203 1 0.51958 0.894634 0.707107 0.707107 
C 0.894634 0.51958 1 0.265203 1 0 
C 1 -0.265203 0.894634 -0.51958 0.707107 -0.707107 
C 0.51958 -0.894634 0.265203 -1 0 -1 
C -0.265203 -1 -0.51958 -0.894634 -0.707107 -0.707107 
C -0.894634 -0.51958 -1 -0.265203 -1 0 
C -1 0.265203 -0.894634 0.51958 -0.707107 0.707107 
C -0.51958 0.894634 -0.265203 1 0 1 
z
" style="stroke: #4daf4a; stroke-opacity: 0.8"/>
    </defs>
    <g clip-path="url(#p8796a7523a)">
     <use xlink:href="#mcbbb2ea9f2" x="61.616253" y="146.416329" style="fill: #4daf4a; fill-opacity: 0.8; stroke: #4daf4a; stroke-opacity: 0.8"/>
     <use xlink:href="#mcbbb2ea9f2" x="130.74777" y="60.636909" style="fill: #4daf4a; fill-opacity: 0.8; stroke: #4daf4a; stroke-opacity: 0.8"/>
     <use xlink:href="#mcbbb2ea9f2" x="199.879287" y="76.233167" style="fill: #4daf4a; fill-opacity: 0.8; stroke: #4daf4a; stroke-opacity: 0.8"/>
    </g>
   </g>
   <g id="line2d_24">
    <path d="M 61.616253 169.810716 
L 130.74777 99.627554 
L 199.879287 76.233167 
" clip-path="url(#p8796a7523a)" style="fill: none; stroke: #e41a1c; stroke-opacity: 0.8; stroke-width: 1.2; stroke-linecap: square"/>
    <g clip-path="url(#p8796a7523a)">
     <use xlink:href="#m74788a1dde" x="61.616253" y="169.810716" style="fill: #e41a1c; fill-opacity: 0.8; stroke: #e41a1c; stroke-opacity: 0.8"/>
     <use xlink:href="#m74788a1dde" x="130.74777" y="99.627554" style="fill: #e41a1c; fill-opacity: 0.8; stroke: #e41a1c; stroke-opacity: 0.8"/>
     <use xlink:href="#m74788a1dde" x="199.879287" y="76.233167" style="fill: #e41a1c; fill-opacity: 0.8; stroke: #e41a1c; stroke-opacity: 0.8"/>
    </g>
   </g>
   <g id="line2d_25">
    <path d="M 61.616253 169.810716 
L 130.74777 84.031296 
L 199.879287 52.83878 
" clip-path="url(#p8796a7523a)" style="fill: none; stroke: #e41a1c; stroke-opacity: 0.8; stroke-width: 1.2; stroke-linecap: square"/>
    <g clip-path="url(#p8796a7523a)">
     <use xlink:href="#m74788a1dde" x="61.616253" y="169.810716" style="fill: #e41a1c; fill-opacity: 0.8; stroke: #e41a1c; stroke-opacity: 0.8"/>
     <use xlink:href="#m74788a1dde" x="130.74777" y="84.031296" style="fill: #e41a1c; fill-opacity: 0.8; stroke: #e41a1c; stroke-opacity: 0.8"/>
     <use xlink:href="#m74788a1dde" x="199.879287" y="52.83878" style="fill: #e41a1c; fill-opacity: 0.8; stroke: #e41a1c; stroke-opacity: 0.8"/>
    </g>
   </g>
   <g id="line2d_26">
    <path d="M 61.616253 193.205103 
L 130.74777 107.425683 
L 199.879287 76.233167 
" clip-path="url(#p8796a7523a)" style="fill: none; stroke: #e41a1c; stroke-opacity: 0.8; stroke-width: 1.2; stroke-linecap: square"/>
    <g clip-path="url(#p8796a7523a)">
     <use xlink:href="#m74788a1dde" x="61.616253" y="193.205103" style="fill: #e41a1c; fill-opacity: 0.8; stroke: #e41a1c; stroke-opacity: 0.8"/>
     <use xlink:href="#m74788a1dde" x="130.74777" y="107.425683" style="fill: #e41a1c; fill-opacity: 0.8; stroke: #e41a1c; stroke-opacity: 0.8"/>
     <use xlink:href="#m74788a1dde" x="199.879287" y="76.233167" style="fill: #e41a1c; fill-opacity: 0.8; stroke: #e41a1c; stroke-opacity: 0.8"/>
    </g>
   </g>
   <g id="line2d_27">
    <path d="M 61.616253 177.608845 
L 130.74777 99.627554 
L 199.879287 68.435038 
" clip-path="url(#p8796a7523a)" style="fill: none; stroke: #e41a1c; stroke-opacity: 0.8; stroke-width: 1.2; stroke-linecap: square"/>
    <g clip-path="url(#p8796a7523a)">
     <use xlink:href="#m74788a1dde" x="61.616253" y="177.608845" style="fill: #e41a1c; fill-opacity: 0.8; stroke: #e41a1c; stroke-opacity: 0.8"/>
     <use xlink:href="#m74788a1dde" x="130.74777" y="99.627554" style="fill: #e41a1c; fill-opacity: 0.8; stroke: #e41a1c; stroke-opacity: 0.8"/>
     <use xlink:href="#m74788a1dde" x="199.879287" y="68.435038" style="fill: #e41a1c; fill-opacity: 0.8; stroke: #e41a1c; stroke-opacity: 0.8"/>
    </g>
   </g>
   <g id="line2d_28">
    <path d="M 61.616253 185.406974 
L 130.74777 76.233167 
L 199.879287 76.233167 
" clip-path="url(#p8796a7523a)" style="fill: none; stroke: #e41a1c; stroke-opacity: 0.8; stroke-width: 1.2; stroke-linecap: square"/>
    <g clip-path="url(#p8796a7523a)">
     <use xlink:href="#m74788a1dde" x="61.616253" y="185.406974" style="fill: #e41a1c; fill-opacity: 0.8; stroke: #e41a1c; stroke-opacity: 0.8"/>
     <use xlink:href="#m74788a1dde" x="130.74777" y="76.233167" style="fill: #e41a1c; fill-opacity: 0.8; stroke: #e41a1c; stroke-opacity: 0.8"/>
     <use xlink:href="#m74788a1dde" x="199.879287" y="76.233167" style="fill: #e41a1c; fill-opacity: 0.8; stroke: #e41a1c; stroke-opacity: 0.8"/>
    </g>
   </g>
   <g id="line2d_29">
    <path d="M 61.616253 201.003232 
L 130.74777 193.205103 
L 199.879287 185.406974 
" clip-path="url(#p8796a7523a)" style="fill: none; stroke: #e41a1c; stroke-opacity: 0.8; stroke-width: 1.2; stroke-linecap: square"/>
    <g clip-path="url(#p8796a7523a)">
     <use xlink:href="#m74788a1dde" x="61.616253" y="201.003232" style="fill: #e41a1c; fill-opacity: 0.8; stroke: #e41a1c; stroke-opacity: 0.8"/>
     <use xlink:href="#m74788a1dde" x="130.74777" y="193.205103" style="fill: #e41a1c; fill-opacity: 0.8; stroke: #e41a1c; stroke-opacity: 0.8"/>
     <use xlink:href="#m74788a1dde" x="199.879287" y="185.406974" style="fill: #e41a1c; fill-opacity: 0.8; stroke: #e41a1c; stroke-opacity: 0.8"/>
    </g>
   </g>
   <g id="line2d_30">
    <path d="M 61.616253 169.810716 
L 130.74777 76.233167 
L 199.879287 60.636909 
" clip-path="url(#p8796a7523a)" style="fill: none; stroke: #e41a1c; stroke-opacity: 0.8; stroke-width: 1.2; stroke-linecap: square"/>
    <g clip-path="url(#p8796a7523a)">
     <use xlink:href="#m74788a1dde" x="61.616253" y="169.810716" style="fill: #e41a1c; fill-opacity: 0.8; stroke: #e41a1c; stroke-opacity: 0.8"/>
     <use xlink:href="#m74788a1dde" x="130.74777" y="76.233167" style="fill: #e41a1c; fill-opacity: 0.8; stroke: #e41a1c; stroke-opacity: 0.8"/>
     <use xlink:href="#m74788a1dde" x="199.879287" y="60.636909" style="fill: #e41a1c; fill-opacity: 0.8; stroke: #e41a1c; stroke-opacity: 0.8"/>
    </g>
   </g>
   <g id="line2d_31">
    <path d="M 61.616253 169.810716 
L 130.74777 115.223812 
L 199.879287 52.83878 
" clip-path="url(#p8796a7523a)" style="fill: none; stroke: #e41a1c; stroke-opacity: 0.8; stroke-width: 1.2; stroke-linecap: square"/>
    <g clip-path="url(#p8796a7523a)">
     <use xlink:href="#m74788a1dde" x="61.616253" y="169.810716" style="fill: #e41a1c; fill-opacity: 0.8; stroke: #e41a1c; stroke-opacity: 0.8"/>
     <use xlink:href="#m74788a1dde" x="130.74777" y="115.223812" style="fill: #e41a1c; fill-opacity: 0.8; stroke: #e41a1c; stroke-opacity: 0.8"/>
     <use xlink:href="#m74788a1dde" x="199.879287" y="52.83878" style="fill: #e41a1c; fill-opacity: 0.8; stroke: #e41a1c; stroke-opacity: 0.8"/>
    </g>
   </g>
   <g id="line2d_32">
    <path d="M 61.616253 185.406974 
L 130.74777 60.636909 
L 199.879287 76.233167 
" clip-path="url(#p8796a7523a)" style="fill: none; stroke-dasharray: 1.2,1.98; stroke-dashoffset: 0; stroke: #4daf4a; stroke-opacity: 0.8; stroke-width: 1.2"/>
    <g clip-path="url(#p8796a7523a)">
     <use xlink:href="#mcbbb2ea9f2" x="61.616253" y="185.406974" style="fill: #4daf4a; fill-opacity: 0.8; stroke: #4daf4a; stroke-opacity: 0.8"/>
     <use xlink:href="#mcbbb2ea9f2" x="130.74777" y="60.636909" style="fill: #4daf4a; fill-opacity: 0.8; stroke: #4daf4a; stroke-opacity: 0.8"/>
     <use xlink:href="#mcbbb2ea9f2" x="199.879287" y="76.233167" style="fill: #4daf4a; fill-opacity: 0.8; stroke: #4daf4a; stroke-opacity: 0.8"/>
    </g>
   </g>
   <g id="line2d_33">
    <path d="M 61.616253 169.810716 
L 130.74777 68.435038 
L 199.879287 52.83878 
" clip-path="url(#p8796a7523a)" style="fill: none; stroke: #e41a1c; stroke-opacity: 0.8; stroke-width: 1.2; stroke-linecap: square"/>
    <g clip-path="url(#p8796a7523a)">
     <use xlink:href="#m74788a1dde" x="61.616253" y="169.810716" style="fill: #e41a1c; fill-opacity: 0.8; stroke: #e41a1c; stroke-opacity: 0.8"/>
     <use xlink:href="#m74788a1dde" x="130.74777" y="68.435038" style="fill: #e41a1c; fill-opacity: 0.8; stroke: #e41a1c; stroke-opacity: 0.8"/>
     <use xlink:href="#m74788a1dde" x="199.879287" y="52.83878" style="fill: #e41a1c; fill-opacity: 0.8; stroke: #e41a1c; stroke-opacity: 0.8"/>
    </g>
   </g>
   <g id="line2d_34">
    <path d="M 61.616253 193.205103 
L 130.74777 68.435038 
L 199.879287 52.83878 
" clip-path="url(#p8796a7523a)" style="fill: none; stroke: #e41a1c; stroke-opacity: 0.8; stroke-width: 1.2; stroke-linecap: square"/>
    <g clip-path="url(#p8796a7523a)">
     <use xlink:href="#m74788a1dde" x="61.616253" y="193.205103" style="fill: #e41a1c; fill-opacity: 0.8; stroke: #e41a1c; stroke-opacity: 0.8"/>
     <use xlink:href="#m74788a1dde" x="130.74777" y="68.435038" style="fill: #e41a1c; fill-opacity: 0.8; stroke: #e41a1c; stroke-opacity: 0.8"/>
     <use xlink:href="#m74788a1dde" x="199.879287" y="52.83878" style="fill: #e41a1c; fill-opacity: 0.8; stroke: #e41a1c; stroke-opacity: 0.8"/>
    </g>
   </g>
   <g id="line2d_35">
    <path d="M 61.616253 177.608845 
L 130.74777 68.435038 
L 199.879287 52.83878 
" clip-path="url(#p8796a7523a)" style="fill: none; stroke: #e41a1c; stroke-opacity: 0.8; stroke-width: 1.2; stroke-linecap: square"/>
    <g clip-path="url(#p8796a7523a)">
     <use xlink:href="#m74788a1dde" x="61.616253" y="177.608845" style="fill: #e41a1c; fill-opacity: 0.8; stroke: #e41a1c; stroke-opacity: 0.8"/>
     <use xlink:href="#m74788a1dde" x="130.74777" y="68.435038" style="fill: #e41a1c; fill-opacity: 0.8; stroke: #e41a1c; stroke-opacity: 0.8"/>
     <use xlink:href="#m74788a1dde" x="199.879287" y="52.83878" style="fill: #e41a1c; fill-opacity: 0.8; stroke: #e41a1c; stroke-opacity: 0.8"/>
    </g>
   </g>
   <g id="line2d_36">
    <path d="M 61.616253 201.003232 
L 130.74777 146.416329 
L 199.879287 60.636909 
" clip-path="url(#p8796a7523a)" style="fill: none; stroke: #e41a1c; stroke-opacity: 0.8; stroke-width: 1.2; stroke-linecap: square"/>
    <g clip-path="url(#p8796a7523a)">
     <use xlink:href="#m74788a1dde" x="61.616253" y="201.003232" style="fill: #e41a1c; fill-opacity: 0.8; stroke: #e41a1c; stroke-opacity: 0.8"/>
     <use xlink:href="#m74788a1dde" x="130.74777" y="146.416329" style="fill: #e41a1c; fill-opacity: 0.8; stroke: #e41a1c; stroke-opacity: 0.8"/>
     <use xlink:href="#m74788a1dde" x="199.879287" y="60.636909" style="fill: #e41a1c; fill-opacity: 0.8; stroke: #e41a1c; stroke-opacity: 0.8"/>
    </g>
   </g>
   <g id="line2d_37">
    <path d="M 61.616253 185.406974 
L 130.74777 162.012587 
L 199.879287 52.83878 
" clip-path="url(#p8796a7523a)" style="fill: none; stroke: #e41a1c; stroke-opacity: 0.8; stroke-width: 1.2; stroke-linecap: square"/>
    <g clip-path="url(#p8796a7523a)">
     <use xlink:href="#m74788a1dde" x="61.616253" y="185.406974" style="fill: #e41a1c; fill-opacity: 0.8; stroke: #e41a1c; stroke-opacity: 0.8"/>
     <use xlink:href="#m74788a1dde" x="130.74777" y="162.012587" style="fill: #e41a1c; fill-opacity: 0.8; stroke: #e41a1c; stroke-opacity: 0.8"/>
     <use xlink:href="#m74788a1dde" x="199.879287" y="52.83878" style="fill: #e41a1c; fill-opacity: 0.8; stroke: #e41a1c; stroke-opacity: 0.8"/>
    </g>
   </g>
   <g id="line2d_38">
    <path d="M 61.616253 169.810716 
L 130.74777 60.636909 
L 199.879287 52.83878 
" clip-path="url(#p8796a7523a)" style="fill: none; stroke: #e41a1c; stroke-opacity: 0.8; stroke-width: 1.2; stroke-linecap: square"/>
    <g clip-path="url(#p8796a7523a)">
     <use xlink:href="#m74788a1dde" x="61.616253" y="169.810716" style="fill: #e41a1c; fill-opacity: 0.8; stroke: #e41a1c; stroke-opacity: 0.8"/>
     <use xlink:href="#m74788a1dde" x="130.74777" y="60.636909" style="fill: #e41a1c; fill-opacity: 0.8; stroke: #e41a1c; stroke-opacity: 0.8"/>
     <use xlink:href="#m74788a1dde" x="199.879287" y="52.83878" style="fill: #e41a1c; fill-opacity: 0.8; stroke: #e41a1c; stroke-opacity: 0.8"/>
    </g>
   </g>
   <g id="line2d_39">
    <path d="M 61.616253 201.003232 
L 130.74777 146.416329 
L 199.879287 76.233167 
" clip-path="url(#p8796a7523a)" style="fill: none; stroke: #e41a1c; stroke-opacity: 0.8; stroke-width: 1.2; stroke-linecap: square"/>
    <g clip-path="url(#p8796a7523a)">
     <use xlink:href="#m74788a1dde" x="61.616253" y="201.003232" style="fill: #e41a1c; fill-opacity: 0.8; stroke: #e41a1c; stroke-opacity: 0.8"/>
     <use xlink:href="#m74788a1dde" x="130.74777" y="146.416329" style="fill: #e41a1c; fill-opacity: 0.8; stroke: #e41a1c; stroke-opacity: 0.8"/>
     <use xlink:href="#m74788a1dde" x="199.879287" y="76.233167" style="fill: #e41a1c; fill-opacity: 0.8; stroke: #e41a1c; stroke-opacity: 0.8"/>
    </g>
   </g>
   <g id="line2d_40">
    <path d="M 61.616253 185.406974 
L 130.74777 193.205103 
L 199.879287 138.6182 
" clip-path="url(#p8796a7523a)" style="fill: none; stroke-dasharray: 7.68,1.92,1.2,1.92; stroke-dashoffset: 0; stroke: #984ea3; stroke-opacity: 0.8; stroke-width: 1.2"/>
    <defs>
     <path id="mc9ef20b482" d="M 0 1 
C 0.265203 1 0.51958 0.894634 0.707107 0.707107 
C 0.894634 0.51958 1 0.265203 1 0 
C 1 -0.265203 0.894634 -0.51958 0.707107 -0.707107 
C 0.51958 -0.894634 0.265203 -1 0 -1 
C -0.265203 -1 -0.51958 -0.894634 -0.707107 -0.707107 
C -0.894634 -0.51958 -1 -0.265203 -1 0 
C -1 0.265203 -0.894634 0.51958 -0.707107 0.707107 
C -0.51958 0.894634 -0.265203 1 0 1 
z
" style="stroke: #984ea3; stroke-opacity: 0.8"/>
    </defs>
    <g clip-path="url(#p8796a7523a)">
     <use xlink:href="#mc9ef20b482" x="61.616253" y="185.406974" style="fill: #984ea3; fill-opacity: 0.8; stroke: #984ea3; stroke-opacity: 0.8"/>
     <use xlink:href="#mc9ef20b482" x="130.74777" y="193.205103" style="fill: #984ea3; fill-opacity: 0.8; stroke: #984ea3; stroke-opacity: 0.8"/>
     <use xlink:href="#mc9ef20b482" x="199.879287" y="138.6182" style="fill: #984ea3; fill-opacity: 0.8; stroke: #984ea3; stroke-opacity: 0.8"/>
    </g>
   </g>
   <g id="line2d_41">
    <path d="M 61.616253 201.003232 
L 130.74777 60.636909 
L 199.879287 84.031296 
" clip-path="url(#p8796a7523a)" style="fill: none; stroke-dasharray: 1.2,1.98; stroke-dashoffset: 0; stroke: #4daf4a; stroke-opacity: 0.8; stroke-width: 1.2"/>
    <g clip-path="url(#p8796a7523a)">
     <use xlink:href="#mcbbb2ea9f2" x="61.616253" y="201.003232" style="fill: #4daf4a; fill-opacity: 0.8; stroke: #4daf4a; stroke-opacity: 0.8"/>
     <use xlink:href="#mcbbb2ea9f2" x="130.74777" y="60.636909" style="fill: #4daf4a; fill-opacity: 0.8; stroke: #4daf4a; stroke-opacity: 0.8"/>
     <use xlink:href="#mcbbb2ea9f2" x="199.879287" y="84.031296" style="fill: #4daf4a; fill-opacity: 0.8; stroke: #4daf4a; stroke-opacity: 0.8"/>
    </g>
   </g>
   <g id="line2d_42">
    <path d="M 61.616253 169.810716 
L 130.74777 60.636909 
L 199.879287 52.83878 
" clip-path="url(#p8796a7523a)" style="fill: none; stroke: #e41a1c; stroke-opacity: 0.8; stroke-width: 1.2; stroke-linecap: square"/>
    <g clip-path="url(#p8796a7523a)">
     <use xlink:href="#m74788a1dde" x="61.616253" y="169.810716" style="fill: #e41a1c; fill-opacity: 0.8; stroke: #e41a1c; stroke-opacity: 0.8"/>
     <use xlink:href="#m74788a1dde" x="130.74777" y="60.636909" style="fill: #e41a1c; fill-opacity: 0.8; stroke: #e41a1c; stroke-opacity: 0.8"/>
     <use xlink:href="#m74788a1dde" x="199.879287" y="52.83878" style="fill: #e41a1c; fill-opacity: 0.8; stroke: #e41a1c; stroke-opacity: 0.8"/>
    </g>
   </g>
   <g id="line2d_43">
    <path d="M 61.616253 169.810716 
L 130.74777 68.435038 
L 199.879287 52.83878 
" clip-path="url(#p8796a7523a)" style="fill: none; stroke: #e41a1c; stroke-opacity: 0.8; stroke-width: 1.2; stroke-linecap: square"/>
    <g clip-path="url(#p8796a7523a)">
     <use xlink:href="#m74788a1dde" x="61.616253" y="169.810716" style="fill: #e41a1c; fill-opacity: 0.8; stroke: #e41a1c; stroke-opacity: 0.8"/>
     <use xlink:href="#m74788a1dde" x="130.74777" y="68.435038" style="fill: #e41a1c; fill-opacity: 0.8; stroke: #e41a1c; stroke-opacity: 0.8"/>
     <use xlink:href="#m74788a1dde" x="199.879287" y="52.83878" style="fill: #e41a1c; fill-opacity: 0.8; stroke: #e41a1c; stroke-opacity: 0.8"/>
    </g>
   </g>
   <g id="line2d_44">
    <path d="M 61.616253 185.406974 
L 130.74777 169.810716 
L 199.879287 76.233167 
" clip-path="url(#p8796a7523a)" style="fill: none; stroke: #e41a1c; stroke-opacity: 0.8; stroke-width: 1.2; stroke-linecap: square"/>
    <g clip-path="url(#p8796a7523a)">
     <use xlink:href="#m74788a1dde" x="61.616253" y="185.406974" style="fill: #e41a1c; fill-opacity: 0.8; stroke: #e41a1c; stroke-opacity: 0.8"/>
     <use xlink:href="#m74788a1dde" x="130.74777" y="169.810716" style="fill: #e41a1c; fill-opacity: 0.8; stroke: #e41a1c; stroke-opacity: 0.8"/>
     <use xlink:href="#m74788a1dde" x="199.879287" y="76.233167" style="fill: #e41a1c; fill-opacity: 0.8; stroke: #e41a1c; stroke-opacity: 0.8"/>
    </g>
   </g>
   <g id="line2d_45">
    <path d="M 61.616253 169.810716 
L 130.74777 60.636909 
L 199.879287 60.636909 
" clip-path="url(#p8796a7523a)" style="fill: none; stroke: #e41a1c; stroke-opacity: 0.8; stroke-width: 1.2; stroke-linecap: square"/>
    <g clip-path="url(#p8796a7523a)">
     <use xlink:href="#m74788a1dde" x="61.616253" y="169.810716" style="fill: #e41a1c; fill-opacity: 0.8; stroke: #e41a1c; stroke-opacity: 0.8"/>
     <use xlink:href="#m74788a1dde" x="130.74777" y="60.636909" style="fill: #e41a1c; fill-opacity: 0.8; stroke: #e41a1c; stroke-opacity: 0.8"/>
     <use xlink:href="#m74788a1dde" x="199.879287" y="60.636909" style="fill: #e41a1c; fill-opacity: 0.8; stroke: #e41a1c; stroke-opacity: 0.8"/>
    </g>
   </g>
   <g id="line2d_46">
    <path d="M 61.616253 193.205103 
L 130.74777 123.021941 
L 199.879287 91.829425 
" clip-path="url(#p8796a7523a)" style="fill: none; stroke: #e41a1c; stroke-opacity: 0.8; stroke-width: 1.2; stroke-linecap: square"/>
    <g clip-path="url(#p8796a7523a)">
     <use xlink:href="#m74788a1dde" x="61.616253" y="193.205103" style="fill: #e41a1c; fill-opacity: 0.8; stroke: #e41a1c; stroke-opacity: 0.8"/>
     <use xlink:href="#m74788a1dde" x="130.74777" y="123.021941" style="fill: #e41a1c; fill-opacity: 0.8; stroke: #e41a1c; stroke-opacity: 0.8"/>
     <use xlink:href="#m74788a1dde" x="199.879287" y="91.829425" style="fill: #e41a1c; fill-opacity: 0.8; stroke: #e41a1c; stroke-opacity: 0.8"/>
    </g>
   </g>
   <g id="line2d_47">
    <path d="M 61.616253 201.003232 
L 130.74777 185.406974 
L 199.879287 138.6182 
" clip-path="url(#p8796a7523a)" style="fill: none; stroke: #e41a1c; stroke-opacity: 0.8; stroke-width: 1.2; stroke-linecap: square"/>
    <g clip-path="url(#p8796a7523a)">
     <use xlink:href="#m74788a1dde" x="61.616253" y="201.003232" style="fill: #e41a1c; fill-opacity: 0.8; stroke: #e41a1c; stroke-opacity: 0.8"/>
     <use xlink:href="#m74788a1dde" x="130.74777" y="185.406974" style="fill: #e41a1c; fill-opacity: 0.8; stroke: #e41a1c; stroke-opacity: 0.8"/>
     <use xlink:href="#m74788a1dde" x="199.879287" y="138.6182" style="fill: #e41a1c; fill-opacity: 0.8; stroke: #e41a1c; stroke-opacity: 0.8"/>
    </g>
   </g>
   <g id="line2d_48">
    <path d="M 61.616253 201.003232 
L 130.74777 177.608845 
L 199.879287 154.214458 
" clip-path="url(#p8796a7523a)" style="fill: none; stroke: #e41a1c; stroke-opacity: 0.8; stroke-width: 1.2; stroke-linecap: square"/>
    <g clip-path="url(#p8796a7523a)">
     <use xlink:href="#m74788a1dde" x="61.616253" y="201.003232" style="fill: #e41a1c; fill-opacity: 0.8; stroke: #e41a1c; stroke-opacity: 0.8"/>
     <use xlink:href="#m74788a1dde" x="130.74777" y="177.608845" style="fill: #e41a1c; fill-opacity: 0.8; stroke: #e41a1c; stroke-opacity: 0.8"/>
     <use xlink:href="#m74788a1dde" x="199.879287" y="154.214458" style="fill: #e41a1c; fill-opacity: 0.8; stroke: #e41a1c; stroke-opacity: 0.8"/>
    </g>
   </g>
   <g id="line2d_49">
    <path d="M 61.616253 169.810716 
L 130.74777 130.820071 
L 199.879287 52.83878 
" clip-path="url(#p8796a7523a)" style="fill: none; stroke: #e41a1c; stroke-opacity: 0.8; stroke-width: 1.2; stroke-linecap: square"/>
    <g clip-path="url(#p8796a7523a)">
     <use xlink:href="#m74788a1dde" x="61.616253" y="169.810716" style="fill: #e41a1c; fill-opacity: 0.8; stroke: #e41a1c; stroke-opacity: 0.8"/>
     <use xlink:href="#m74788a1dde" x="130.74777" y="130.820071" style="fill: #e41a1c; fill-opacity: 0.8; stroke: #e41a1c; stroke-opacity: 0.8"/>
     <use xlink:href="#m74788a1dde" x="199.879287" y="52.83878" style="fill: #e41a1c; fill-opacity: 0.8; stroke: #e41a1c; stroke-opacity: 0.8"/>
    </g>
   </g>
   <g id="line2d_50">
    <path d="M 61.616253 201.003232 
L 130.74777 162.012587 
L 199.879287 130.820071 
" clip-path="url(#p8796a7523a)" style="fill: none; stroke: #e41a1c; stroke-opacity: 0.8; stroke-width: 1.2; stroke-linecap: square"/>
    <g clip-path="url(#p8796a7523a)">
     <use xlink:href="#m74788a1dde" x="61.616253" y="201.003232" style="fill: #e41a1c; fill-opacity: 0.8; stroke: #e41a1c; stroke-opacity: 0.8"/>
     <use xlink:href="#m74788a1dde" x="130.74777" y="162.012587" style="fill: #e41a1c; fill-opacity: 0.8; stroke: #e41a1c; stroke-opacity: 0.8"/>
     <use xlink:href="#m74788a1dde" x="199.879287" y="130.820071" style="fill: #e41a1c; fill-opacity: 0.8; stroke: #e41a1c; stroke-opacity: 0.8"/>
    </g>
   </g>
   <g id="line2d_51">
    <path d="M 61.616253 169.810716 
L 130.74777 52.83878 
L 199.879287 52.83878 
" clip-path="url(#p8796a7523a)" style="fill: none; stroke: #e41a1c; stroke-opacity: 0.8; stroke-width: 1.2; stroke-linecap: square"/>
    <g clip-path="url(#p8796a7523a)">
     <use xlink:href="#m74788a1dde" x="61.616253" y="169.810716" style="fill: #e41a1c; fill-opacity: 0.8; stroke: #e41a1c; stroke-opacity: 0.8"/>
     <use xlink:href="#m74788a1dde" x="130.74777" y="52.83878" style="fill: #e41a1c; fill-opacity: 0.8; stroke: #e41a1c; stroke-opacity: 0.8"/>
     <use xlink:href="#m74788a1dde" x="199.879287" y="52.83878" style="fill: #e41a1c; fill-opacity: 0.8; stroke: #e41a1c; stroke-opacity: 0.8"/>
    </g>
   </g>
   <g id="line2d_52">
    <path d="M 61.616253 193.205103 
L 130.74777 169.810716 
L 199.879287 52.83878 
" clip-path="url(#p8796a7523a)" style="fill: none; stroke: #e41a1c; stroke-opacity: 0.8; stroke-width: 1.2; stroke-linecap: square"/>
    <g clip-path="url(#p8796a7523a)">
     <use xlink:href="#m74788a1dde" x="61.616253" y="193.205103" style="fill: #e41a1c; fill-opacity: 0.8; stroke: #e41a1c; stroke-opacity: 0.8"/>
     <use xlink:href="#m74788a1dde" x="130.74777" y="169.810716" style="fill: #e41a1c; fill-opacity: 0.8; stroke: #e41a1c; stroke-opacity: 0.8"/>
     <use xlink:href="#m74788a1dde" x="199.879287" y="52.83878" style="fill: #e41a1c; fill-opacity: 0.8; stroke: #e41a1c; stroke-opacity: 0.8"/>
    </g>
   </g>
   <g id="line2d_53">
    <path d="M 61.616253 193.205103 
L 130.74777 138.6182 
L 199.879287 52.83878 
" clip-path="url(#p8796a7523a)" style="fill: none; stroke: #e41a1c; stroke-opacity: 0.8; stroke-width: 1.2; stroke-linecap: square"/>
    <g clip-path="url(#p8796a7523a)">
     <use xlink:href="#m74788a1dde" x="61.616253" y="193.205103" style="fill: #e41a1c; fill-opacity: 0.8; stroke: #e41a1c; stroke-opacity: 0.8"/>
     <use xlink:href="#m74788a1dde" x="130.74777" y="138.6182" style="fill: #e41a1c; fill-opacity: 0.8; stroke: #e41a1c; stroke-opacity: 0.8"/>
     <use xlink:href="#m74788a1dde" x="199.879287" y="52.83878" style="fill: #e41a1c; fill-opacity: 0.8; stroke: #e41a1c; stroke-opacity: 0.8"/>
    </g>
   </g>
   <g id="line2d_54">
    <path d="M 61.616253 185.406974 
L 130.74777 115.223812 
L 199.879287 99.627554 
" clip-path="url(#p8796a7523a)" style="fill: none; stroke: #e41a1c; stroke-opacity: 0.8; stroke-width: 1.2; stroke-linecap: square"/>
    <g clip-path="url(#p8796a7523a)">
     <use xlink:href="#m74788a1dde" x="61.616253" y="185.406974" style="fill: #e41a1c; fill-opacity: 0.8; stroke: #e41a1c; stroke-opacity: 0.8"/>
     <use xlink:href="#m74788a1dde" x="130.74777" y="115.223812" style="fill: #e41a1c; fill-opacity: 0.8; stroke: #e41a1c; stroke-opacity: 0.8"/>
     <use xlink:href="#m74788a1dde" x="199.879287" y="99.627554" style="fill: #e41a1c; fill-opacity: 0.8; stroke: #e41a1c; stroke-opacity: 0.8"/>
    </g>
   </g>
   <g id="line2d_55">
    <path d="M 61.616253 185.406974 
L 130.74777 99.627554 
L 199.879287 52.83878 
" clip-path="url(#p8796a7523a)" style="fill: none; stroke: #e41a1c; stroke-opacity: 0.8; stroke-width: 1.2; stroke-linecap: square"/>
    <g clip-path="url(#p8796a7523a)">
     <use xlink:href="#m74788a1dde" x="61.616253" y="185.406974" style="fill: #e41a1c; fill-opacity: 0.8; stroke: #e41a1c; stroke-opacity: 0.8"/>
     <use xlink:href="#m74788a1dde" x="130.74777" y="99.627554" style="fill: #e41a1c; fill-opacity: 0.8; stroke: #e41a1c; stroke-opacity: 0.8"/>
     <use xlink:href="#m74788a1dde" x="199.879287" y="52.83878" style="fill: #e41a1c; fill-opacity: 0.8; stroke: #e41a1c; stroke-opacity: 0.8"/>
    </g>
   </g>
   <g id="line2d_56">
    <path d="M 61.616253 169.810716 
L 130.74777 138.6182 
L 199.879287 138.6182 
" clip-path="url(#p8796a7523a)" style="fill: none; stroke: #e41a1c; stroke-opacity: 0.8; stroke-width: 1.2; stroke-linecap: square"/>
    <g clip-path="url(#p8796a7523a)">
     <use xlink:href="#m74788a1dde" x="61.616253" y="169.810716" style="fill: #e41a1c; fill-opacity: 0.8; stroke: #e41a1c; stroke-opacity: 0.8"/>
     <use xlink:href="#m74788a1dde" x="130.74777" y="138.6182" style="fill: #e41a1c; fill-opacity: 0.8; stroke: #e41a1c; stroke-opacity: 0.8"/>
     <use xlink:href="#m74788a1dde" x="199.879287" y="138.6182" style="fill: #e41a1c; fill-opacity: 0.8; stroke: #e41a1c; stroke-opacity: 0.8"/>
    </g>
   </g>
   <g id="line2d_57">
    <path d="M 61.616253 169.810716 
L 130.74777 138.6182 
L 199.879287 52.83878 
" clip-path="url(#p8796a7523a)" style="fill: none; stroke: #e41a1c; stroke-opacity: 0.8; stroke-width: 1.2; stroke-linecap: square"/>
    <g clip-path="url(#p8796a7523a)">
     <use xlink:href="#m74788a1dde" x="61.616253" y="169.810716" style="fill: #e41a1c; fill-opacity: 0.8; stroke: #e41a1c; stroke-opacity: 0.8"/>
     <use xlink:href="#m74788a1dde" x="130.74777" y="138.6182" style="fill: #e41a1c; fill-opacity: 0.8; stroke: #e41a1c; stroke-opacity: 0.8"/>
     <use xlink:href="#m74788a1dde" x="199.879287" y="52.83878" style="fill: #e41a1c; fill-opacity: 0.8; stroke: #e41a1c; stroke-opacity: 0.8"/>
    </g>
   </g>
   <g id="line2d_58">
    <path d="M 40.876797 185.406974 
L 82.355708 185.406974 
" clip-path="url(#p8796a7523a)" style="fill: none; stroke: #7f7f7f"/>
   </g>
   <g id="line2d_59">
    <path d="M 110.008315 103.526619 
L 151.487225 103.526619 
" clip-path="url(#p8796a7523a)" style="fill: none; stroke: #7f7f7f"/>
   </g>
   <g id="line2d_60">
    <path d="M 179.139832 60.636909 
L 220.618743 60.636909 
" clip-path="url(#p8796a7523a)" style="fill: none; stroke: #7f7f7f"/>
   </g>
   <g id="patch_6">
    <path d="M 31.8897 223.2279 
L 31.8897 30.614112 
" style="fill: none; stroke: #000000; stroke-width: 0.8; stroke-linejoin: miter; stroke-linecap: square"/>
   </g>
   <g id="patch_7">
    <path d="M 31.8897 223.2279 
L 229.60584 223.2279 
" style="fill: none; stroke: #000000; stroke-width: 0.8; stroke-linejoin: miter; stroke-linecap: square"/>
   </g>
  </g>
 </g>
 <defs>
  <clipPath id="p8796a7523a">
   <rect x="31.8897" y="30.614112" width="197.71614" height="192.613788"/>
  </clipPath>
 </defs>
</svg>
