<?xml version="1.0" encoding="utf-8" standalone="no"?>
<!DOCTYPE svg PUBLIC "-//W3C//DTD SVG 1.1//EN"
  "http://www.w3.org/Graphics/SVG/1.1/DTD/svg11.dtd">
<svg xmlns:xlink="http://www.w3.org/1999/xlink" width="255.1176pt" height="255.1176pt" viewBox="0 0 255.1176 255.1176" xmlns="http://www.w3.org/2000/svg" version="1.1">
 <metadata>
  <rdf:RDF xmlns:dc="http://purl.org/dc/elements/1.1/" xmlns:cc="http://creativecommons.org/ns#" xmlns:rdf="http://www.w3.org/1999/02/22-rdf-syntax-ns#">
   <cc:Work>
    <dc:type rdf:resource="http://purl.org/dc/dcmitype/StillImage"/>
    <dc:date>2025-04-07T18:55:48.819365</dc:date>
    <dc:format>image/svg+xml</dc:format>
    <dc:creator>
     <cc:Agent>
      <dc:title>Matplotlib v3.8.3, https://matplotlib.org/</dc:title>
     </cc:Agent>
    </dc:creator>
   </cc:Work>
  </rdf:RDF>
 </metadata>
 <defs>
  <style type="text/css">*{stroke-linejoin: round; stroke-linecap: butt}</style>
 </defs>
 <g id="figure_1">
  <g id="patch_1">
   <path d="M 0 255.1176 
L 255.1176 255.1176 
L 255.1176 0 
L 0 0 
z
" style="fill: #ffffff"/>
  </g>
  <g id="axes_1">
   <g id="patch_2">
    <path d="M 31.8897 223.2279 
L 229.60584 223.2279 
L 229.60584 30.614112 
L 31.8897 30.614112 
z
" style="fill: #ffffff"/>
   </g>
   <g id="matplotlib.axis_1">
    <g id="xtick_1">
     <g id="line2d_1">
      <defs>
       <path id="ma837750d6d" d="M 0 0 
L 0 3.5 
" style="stroke: #000000; stroke-width: 0.8"/>
      </defs>
      <g>
       <use xlink:href="#ma837750d6d" x="61.616253" y="223.2279" style="stroke: #000000; stroke-width: 0.8"/>
      </g>
     </g>
     <g id="text_1">
      <!-- 0 -->
      <g transform="translate(59.588753 235.66915) scale(0.08 -0.08)">
       <defs>
        <path id="Calibri-30" d="M 3022 2031 
Q 3022 1566 2948 1181 
Q 2875 797 2704 520 
Q 2534 244 2259 92 
Q 1984 -59 1581 -59 
Q 1200 -59 939 77 
Q 678 213 518 477 
Q 359 741 292 1127 
Q 225 1513 225 2013 
Q 225 2475 300 2861 
Q 375 3247 544 3523 
Q 713 3800 988 3951 
Q 1263 4103 1663 4103 
Q 2047 4103 2308 3967 
Q 2569 3831 2728 3567 
Q 2888 3303 2955 2917 
Q 3022 2531 3022 2031 
z
M 2472 1994 
Q 2472 2297 2450 2537 
Q 2428 2778 2386 2962 
Q 2344 3147 2276 3280 
Q 2209 3413 2115 3498 
Q 2022 3584 1901 3623 
Q 1781 3663 1631 3663 
Q 1366 3663 1200 3538 
Q 1034 3413 939 3194 
Q 844 2975 809 2681 
Q 775 2388 775 2050 
Q 775 1597 822 1280 
Q 869 963 970 763 
Q 1072 563 1230 472 
Q 1388 381 1613 381 
Q 1788 381 1920 437 
Q 2053 494 2148 598 
Q 2244 703 2306 850 
Q 2369 997 2406 1175 
Q 2444 1353 2458 1561 
Q 2472 1769 2472 1994 
z
" transform="scale(0.015625)"/>
       </defs>
       <use xlink:href="#Calibri-30"/>
      </g>
     </g>
    </g>
    <g id="xtick_2">
     <g id="line2d_2">
      <g>
       <use xlink:href="#ma837750d6d" x="130.74777" y="223.2279" style="stroke: #000000; stroke-width: 0.8"/>
      </g>
     </g>
     <g id="text_2">
      <!-- 1 -->
      <g transform="translate(128.72027 235.66915) scale(0.08 -0.08)">
       <defs>
        <path id="Calibri-31" d="M 2897 213 
Q 2897 153 2887 112 
Q 2878 72 2862 47 
Q 2847 22 2826 11 
Q 2806 0 2784 0 
L 672 0 
Q 650 0 631 11 
Q 613 22 595 47 
Q 578 72 568 112 
Q 559 153 559 213 
Q 559 269 568 309 
Q 578 350 592 376 
Q 606 403 626 417 
Q 647 431 672 431 
L 1516 431 
L 1516 3506 
L 734 3041 
Q 675 3009 639 3003 
Q 603 2997 581 3017 
Q 559 3038 551 3084 
Q 544 3131 544 3203 
Q 544 3256 548 3293 
Q 553 3331 562 3356 
Q 572 3381 589 3400 
Q 606 3419 634 3438 
L 1566 4034 
Q 1578 4044 1597 4050 
Q 1616 4056 1644 4062 
Q 1672 4069 1709 4070 
Q 1747 4072 1803 4072 
Q 1878 4072 1928 4065 
Q 1978 4059 2006 4048 
Q 2034 4038 2043 4020 
Q 2053 4003 2053 3984 
L 2053 431 
L 2784 431 
Q 2809 431 2831 417 
Q 2853 403 2867 376 
Q 2881 350 2889 309 
Q 2897 269 2897 213 
z
" transform="scale(0.015625)"/>
       </defs>
       <use xlink:href="#Calibri-31"/>
      </g>
     </g>
    </g>
    <g id="xtick_3">
     <g id="line2d_3">
      <g>
       <use xlink:href="#ma837750d6d" x="199.879287" y="223.2279" style="stroke: #000000; stroke-width: 0.8"/>
      </g>
     </g>
     <g id="text_3">
      <!-- 2 -->
      <g transform="translate(197.851787 235.66915) scale(0.08 -0.08)">
       <defs>
        <path id="Calibri-32" d="M 2888 231 
Q 2888 175 2880 131 
Q 2872 88 2858 58 
Q 2844 28 2820 14 
Q 2797 0 2769 0 
L 534 0 
Q 491 0 458 11 
Q 425 22 401 47 
Q 378 72 367 119 
Q 356 166 356 234 
Q 356 297 361 344 
Q 366 391 381 427 
Q 397 463 420 498 
Q 444 534 481 575 
L 1266 1406 
Q 1538 1694 1702 1922 
Q 1866 2150 1955 2337 
Q 2044 2525 2072 2678 
Q 2100 2831 2100 2966 
Q 2100 3100 2056 3220 
Q 2013 3341 1930 3431 
Q 1847 3522 1722 3575 
Q 1597 3628 1434 3628 
Q 1244 3628 1092 3575 
Q 941 3522 827 3459 
Q 713 3397 636 3344 
Q 559 3291 522 3291 
Q 500 3291 483 3303 
Q 466 3316 455 3344 
Q 444 3372 437 3419 
Q 431 3466 431 3531 
Q 431 3578 434 3612 
Q 438 3647 445 3672 
Q 453 3697 465 3719 
Q 478 3741 515 3773 
Q 553 3806 645 3862 
Q 738 3919 877 3973 
Q 1016 4028 1183 4065 
Q 1350 4103 1534 4103 
Q 1828 4103 2048 4020 
Q 2269 3938 2414 3794 
Q 2559 3650 2631 3459 
Q 2703 3269 2703 3053 
Q 2703 2859 2668 2667 
Q 2634 2475 2523 2251 
Q 2413 2028 2203 1754 
Q 1994 1481 1647 1125 
L 1006 456 
L 2766 456 
Q 2791 456 2814 442 
Q 2838 428 2855 400 
Q 2872 372 2880 330 
Q 2888 288 2888 231 
z
" transform="scale(0.015625)"/>
       </defs>
       <use xlink:href="#Calibri-32"/>
      </g>
     </g>
    </g>
    <g id="text_4">
     <!-- Time Point -->
     <g transform="translate(104.508083 249.253525) scale(0.12 -0.12)">
      <defs>
       <path id="Calibri-54" d="M 3072 3813 
Q 3072 3753 3065 3709 
Q 3059 3666 3045 3639 
Q 3031 3613 3011 3600 
Q 2991 3588 2966 3588 
L 1828 3588 
L 1828 81 
Q 1828 56 1815 37 
Q 1803 19 1772 8 
Q 1741 -3 1689 -11 
Q 1638 -19 1559 -19 
Q 1484 -19 1431 -11 
Q 1378 -3 1347 8 
Q 1316 19 1303 37 
Q 1291 56 1291 81 
L 1291 3588 
L 153 3588 
Q 128 3588 108 3600 
Q 88 3613 75 3639 
Q 63 3666 55 3709 
Q 47 3753 47 3813 
Q 47 3872 55 3917 
Q 63 3963 75 3991 
Q 88 4019 108 4031 
Q 128 4044 153 4044 
L 2966 4044 
Q 2991 4044 3011 4031 
Q 3031 4019 3045 3991 
Q 3059 3963 3065 3917 
Q 3072 3872 3072 3813 
z
" transform="scale(0.015625)"/>
       <path id="Calibri-69" d="M 994 78 
Q 994 53 981 36 
Q 969 19 941 6 
Q 913 -6 863 -12 
Q 813 -19 734 -19 
Q 659 -19 609 -12 
Q 559 -6 529 6 
Q 500 19 489 36 
Q 478 53 478 78 
L 478 2891 
Q 478 2913 489 2931 
Q 500 2950 529 2962 
Q 559 2975 609 2981 
Q 659 2988 734 2988 
Q 813 2988 863 2981 
Q 913 2975 941 2962 
Q 969 2950 981 2931 
Q 994 2913 994 2891 
L 994 78 
z
M 1053 3841 
Q 1053 3659 984 3593 
Q 916 3528 731 3528 
Q 550 3528 483 3592 
Q 416 3656 416 3834 
Q 416 4016 484 4081 
Q 553 4147 738 4147 
Q 919 4147 986 4083 
Q 1053 4019 1053 3841 
z
" transform="scale(0.015625)"/>
       <path id="Calibri-6d" d="M 4650 78 
Q 4650 53 4637 36 
Q 4625 19 4597 6 
Q 4569 -6 4519 -12 
Q 4469 -19 4394 -19 
Q 4316 -19 4266 -12 
Q 4216 -6 4186 6 
Q 4156 19 4143 36 
Q 4131 53 4131 78 
L 4131 1788 
Q 4131 1966 4100 2112 
Q 4069 2259 4000 2365 
Q 3931 2472 3825 2528 
Q 3719 2584 3575 2584 
Q 3397 2584 3217 2446 
Q 3038 2309 2822 2044 
L 2822 78 
Q 2822 53 2809 36 
Q 2797 19 2767 6 
Q 2738 -6 2688 -12 
Q 2638 -19 2563 -19 
Q 2491 -19 2439 -12 
Q 2388 -6 2358 6 
Q 2328 19 2317 36 
Q 2306 53 2306 78 
L 2306 1788 
Q 2306 1966 2272 2112 
Q 2238 2259 2169 2365 
Q 2100 2472 1995 2528 
Q 1891 2584 1747 2584 
Q 1569 2584 1387 2446 
Q 1206 2309 994 2044 
L 994 78 
Q 994 53 981 36 
Q 969 19 941 6 
Q 913 -6 863 -12 
Q 813 -19 734 -19 
Q 659 -19 609 -12 
Q 559 -6 529 6 
Q 500 19 489 36 
Q 478 53 478 78 
L 478 2891 
Q 478 2916 487 2933 
Q 497 2950 525 2964 
Q 553 2978 597 2983 
Q 641 2988 713 2988 
Q 781 2988 826 2983 
Q 872 2978 897 2964 
Q 922 2950 933 2933 
Q 944 2916 944 2891 
L 944 2519 
Q 1181 2784 1404 2907 
Q 1628 3031 1856 3031 
Q 2031 3031 2170 2990 
Q 2309 2950 2415 2876 
Q 2522 2803 2597 2701 
Q 2672 2600 2722 2475 
Q 2863 2628 2989 2734 
Q 3116 2841 3233 2906 
Q 3350 2972 3461 3001 
Q 3572 3031 3684 3031 
Q 3956 3031 4140 2936 
Q 4325 2841 4439 2681 
Q 4553 2522 4601 2308 
Q 4650 2094 4650 1856 
L 4650 78 
z
" transform="scale(0.015625)"/>
       <path id="Calibri-65" d="M 2878 1606 
Q 2878 1484 2817 1432 
Q 2756 1381 2678 1381 
L 834 1381 
Q 834 1147 881 959 
Q 928 772 1037 637 
Q 1147 503 1322 431 
Q 1497 359 1750 359 
Q 1950 359 2106 392 
Q 2263 425 2377 465 
Q 2491 506 2564 539 
Q 2638 572 2675 572 
Q 2697 572 2714 561 
Q 2731 550 2740 528 
Q 2750 506 2754 467 
Q 2759 428 2759 372 
Q 2759 331 2756 301 
Q 2753 272 2748 248 
Q 2744 225 2733 206 
Q 2722 188 2705 170 
Q 2688 153 2603 114 
Q 2519 75 2384 37 
Q 2250 0 2073 -29 
Q 1897 -59 1697 -59 
Q 1350 -59 1089 37 
Q 828 134 650 325 
Q 472 516 381 803 
Q 291 1091 291 1472 
Q 291 1834 384 2123 
Q 478 2413 654 2614 
Q 831 2816 1081 2923 
Q 1331 3031 1641 3031 
Q 1972 3031 2205 2925 
Q 2438 2819 2588 2639 
Q 2738 2459 2808 2217 
Q 2878 1975 2878 1700 
L 2878 1606 
z
M 2359 1759 
Q 2369 2166 2180 2397 
Q 1991 2628 1619 2628 
Q 1428 2628 1284 2556 
Q 1141 2484 1044 2365 
Q 947 2247 894 2089 
Q 841 1931 834 1759 
L 2359 1759 
z
" transform="scale(0.015625)"/>
       <path id="Calibri-20" transform="scale(0.015625)"/>
       <path id="Calibri-50" d="M 3022 2859 
Q 3022 2556 2922 2312 
Q 2822 2069 2636 1897 
Q 2450 1725 2179 1631 
Q 1909 1538 1534 1538 
L 1075 1538 
L 1075 81 
Q 1075 56 1061 37 
Q 1047 19 1017 8 
Q 988 -3 936 -11 
Q 884 -19 806 -19 
Q 728 -19 676 -11 
Q 625 -3 594 8 
Q 563 19 550 37 
Q 538 56 538 81 
L 538 3813 
Q 538 3938 603 3991 
Q 669 4044 750 4044 
L 1616 4044 
Q 1747 4044 1867 4033 
Q 1988 4022 2152 3986 
Q 2316 3950 2486 3851 
Q 2656 3753 2775 3609 
Q 2894 3466 2958 3277 
Q 3022 3088 3022 2859 
z
M 2456 2816 
Q 2456 3063 2364 3228 
Q 2272 3394 2136 3475 
Q 2000 3556 1854 3578 
Q 1709 3600 1572 3600 
L 1075 3600 
L 1075 1978 
L 1559 1978 
Q 1803 1978 1964 2040 
Q 2125 2103 2234 2214 
Q 2344 2325 2400 2479 
Q 2456 2634 2456 2816 
z
" transform="scale(0.015625)"/>
       <path id="Calibri-6f" d="M 3094 1516 
Q 3094 1172 3003 883 
Q 2913 594 2733 384 
Q 2553 175 2283 58 
Q 2013 -59 1656 -59 
Q 1309 -59 1051 44 
Q 794 147 622 344 
Q 450 541 365 822 
Q 281 1103 281 1459 
Q 281 1803 370 2092 
Q 459 2381 639 2590 
Q 819 2800 1087 2915 
Q 1356 3031 1716 3031 
Q 2063 3031 2320 2928 
Q 2578 2825 2750 2628 
Q 2922 2431 3008 2150 
Q 3094 1869 3094 1516 
z
M 2550 1481 
Q 2550 1709 2508 1912 
Q 2466 2116 2369 2269 
Q 2272 2422 2106 2511 
Q 1941 2600 1694 2600 
Q 1466 2600 1302 2519 
Q 1138 2438 1031 2289 
Q 925 2141 873 1937 
Q 822 1734 822 1494 
Q 822 1263 864 1059 
Q 906 856 1004 704 
Q 1103 553 1268 464 
Q 1434 375 1681 375 
Q 1906 375 2072 456 
Q 2238 538 2344 684 
Q 2450 831 2500 1034 
Q 2550 1238 2550 1481 
z
" transform="scale(0.015625)"/>
       <path id="Calibri-6e" d="M 2900 78 
Q 2900 53 2887 36 
Q 2875 19 2847 6 
Q 2819 -6 2769 -12 
Q 2719 -19 2644 -19 
Q 2566 -19 2516 -12 
Q 2466 -6 2437 6 
Q 2409 19 2396 36 
Q 2384 53 2384 78 
L 2384 1725 
Q 2384 1966 2346 2112 
Q 2309 2259 2237 2365 
Q 2166 2472 2052 2528 
Q 1938 2584 1788 2584 
Q 1594 2584 1400 2446 
Q 1206 2309 994 2044 
L 994 78 
Q 994 53 981 36 
Q 969 19 941 6 
Q 913 -6 863 -12 
Q 813 -19 734 -19 
Q 659 -19 609 -12 
Q 559 -6 529 6 
Q 500 19 489 36 
Q 478 53 478 78 
L 478 2891 
Q 478 2916 487 2933 
Q 497 2950 525 2964 
Q 553 2978 597 2983 
Q 641 2988 713 2988 
Q 781 2988 826 2983 
Q 872 2978 897 2964 
Q 922 2950 933 2933 
Q 944 2916 944 2891 
L 944 2519 
Q 1181 2784 1417 2907 
Q 1653 3031 1894 3031 
Q 2175 3031 2367 2936 
Q 2559 2841 2678 2681 
Q 2797 2522 2848 2308 
Q 2900 2094 2900 1794 
L 2900 78 
z
" transform="scale(0.015625)"/>
       <path id="Calibri-74" d="M 1941 284 
Q 1941 194 1928 141 
Q 1916 88 1891 63 
Q 1866 38 1816 16 
Q 1766 -6 1702 -20 
Q 1638 -34 1566 -43 
Q 1494 -53 1422 -53 
Q 1203 -53 1047 5 
Q 891 63 791 180 
Q 691 297 645 476 
Q 600 656 600 900 
L 600 2544 
L 206 2544 
Q 159 2544 131 2594 
Q 103 2644 103 2756 
Q 103 2816 111 2856 
Q 119 2897 131 2923 
Q 144 2950 164 2961 
Q 184 2972 209 2972 
L 600 2972 
L 600 3641 
Q 600 3663 611 3681 
Q 622 3700 651 3714 
Q 681 3728 731 3734 
Q 781 3741 856 3741 
Q 934 3741 984 3734 
Q 1034 3728 1062 3714 
Q 1091 3700 1103 3681 
Q 1116 3663 1116 3641 
L 1116 2972 
L 1838 2972 
Q 1863 2972 1881 2961 
Q 1900 2950 1914 2923 
Q 1928 2897 1934 2856 
Q 1941 2816 1941 2756 
Q 1941 2644 1912 2594 
Q 1884 2544 1838 2544 
L 1116 2544 
L 1116 975 
Q 1116 684 1202 536 
Q 1288 388 1509 388 
Q 1581 388 1637 402 
Q 1694 416 1737 431 
Q 1781 447 1812 461 
Q 1844 475 1869 475 
Q 1884 475 1898 467 
Q 1913 459 1920 437 
Q 1928 416 1934 378 
Q 1941 341 1941 284 
z
" transform="scale(0.015625)"/>
      </defs>
      <use xlink:href="#Calibri-54"/>
      <use xlink:href="#Calibri-69" x="48.730469"/>
      <use xlink:href="#Calibri-6d" x="71.679688"/>
      <use xlink:href="#Calibri-65" x="151.5625"/>
      <use xlink:href="#Calibri-20" x="201.318359"/>
      <use xlink:href="#Calibri-50" x="223.925781"/>
      <use xlink:href="#Calibri-6f" x="275.585938"/>
      <use xlink:href="#Calibri-69" x="328.320312"/>
      <use xlink:href="#Calibri-6e" x="351.269531"/>
      <use xlink:href="#Calibri-74" x="403.808594"/>
     </g>
    </g>
   </g>
   <g id="matplotlib.axis_2">
    <g id="ytick_1">
     <g id="line2d_4">
      <defs>
       <path id="mf20daae93b" d="M 0 0 
L -3.5 0 
" style="stroke: #000000; stroke-width: 0.8"/>
      </defs>
      <g>
       <use xlink:href="#mf20daae93b" x="31.8897" y="219.523789" style="stroke: #000000; stroke-width: 0.8"/>
      </g>
     </g>
     <g id="text_5">
      <!-- 15 -->
      <g transform="translate(16.7797 222.244414) scale(0.08 -0.08)">
       <defs>
        <path id="Calibri-35" d="M 2869 1300 
Q 2869 975 2759 722 
Q 2650 469 2450 295 
Q 2250 122 1973 31 
Q 1697 -59 1359 -59 
Q 1172 -59 1003 -32 
Q 834 -6 703 33 
Q 572 72 487 109 
Q 403 147 379 169 
Q 356 191 347 209 
Q 338 228 330 254 
Q 322 281 319 322 
Q 316 363 316 419 
Q 316 472 320 514 
Q 325 556 337 582 
Q 350 609 367 621 
Q 384 634 406 634 
Q 438 634 503 595 
Q 569 556 680 511 
Q 791 466 955 425 
Q 1119 384 1344 384 
Q 1553 384 1728 434 
Q 1903 484 2029 590 
Q 2156 697 2228 858 
Q 2300 1019 2300 1250 
Q 2300 1444 2239 1592 
Q 2178 1741 2051 1839 
Q 1925 1938 1731 1986 
Q 1538 2034 1269 2034 
Q 1078 2034 940 2015 
Q 803 1997 684 1997 
Q 597 1997 559 2037 
Q 522 2078 522 2194 
L 522 3841 
Q 522 3944 570 3994 
Q 619 4044 709 4044 
L 2500 4044 
Q 2525 4044 2548 4030 
Q 2572 4016 2587 3987 
Q 2603 3959 2611 3915 
Q 2619 3872 2619 3813 
Q 2619 3700 2587 3637 
Q 2556 3575 2500 3575 
L 991 3575 
L 991 2441 
Q 1100 2456 1214 2459 
Q 1328 2463 1478 2463 
Q 1825 2463 2084 2380 
Q 2344 2297 2517 2145 
Q 2691 1994 2780 1778 
Q 2869 1563 2869 1300 
z
" transform="scale(0.015625)"/>
       </defs>
       <use xlink:href="#Calibri-31"/>
       <use xlink:href="#Calibri-35" x="50.683594"/>
      </g>
     </g>
    </g>
    <g id="ytick_2">
     <g id="line2d_5">
      <g>
       <use xlink:href="#mf20daae93b" x="31.8897" y="188.656194" style="stroke: #000000; stroke-width: 0.8"/>
      </g>
     </g>
     <g id="text_6">
      <!-- 20 -->
      <g transform="translate(16.7797 191.376819) scale(0.08 -0.08)">
       <use xlink:href="#Calibri-32"/>
       <use xlink:href="#Calibri-30" x="50.683594"/>
      </g>
     </g>
    </g>
    <g id="ytick_3">
     <g id="line2d_6">
      <g>
       <use xlink:href="#mf20daae93b" x="31.8897" y="157.7886" style="stroke: #000000; stroke-width: 0.8"/>
      </g>
     </g>
     <g id="text_7">
      <!-- 25 -->
      <g transform="translate(16.7797 160.509225) scale(0.08 -0.08)">
       <use xlink:href="#Calibri-32"/>
       <use xlink:href="#Calibri-35" x="50.683594"/>
      </g>
     </g>
    </g>
    <g id="ytick_4">
     <g id="line2d_7">
      <g>
       <use xlink:href="#mf20daae93b" x="31.8897" y="126.921006" style="stroke: #000000; stroke-width: 0.8"/>
      </g>
     </g>
     <g id="text_8">
      <!-- 30 -->
      <g transform="translate(16.7797 129.641631) scale(0.08 -0.08)">
       <defs>
        <path id="Calibri-33" d="M 2856 1156 
Q 2856 878 2759 654 
Q 2663 431 2481 272 
Q 2300 113 2034 27 
Q 1769 -59 1434 -59 
Q 1231 -59 1054 -26 
Q 878 6 740 51 
Q 603 97 512 145 
Q 422 194 398 216 
Q 375 238 362 259 
Q 350 281 340 312 
Q 331 344 326 389 
Q 322 434 322 500 
Q 322 613 344 656 
Q 366 700 406 700 
Q 434 700 517 650 
Q 600 600 729 542 
Q 859 484 1032 434 
Q 1206 384 1419 384 
Q 1625 384 1781 437 
Q 1938 491 2044 587 
Q 2150 684 2203 817 
Q 2256 950 2256 1106 
Q 2256 1278 2189 1415 
Q 2122 1553 1992 1653 
Q 1863 1753 1673 1806 
Q 1484 1859 1244 1859 
L 859 1859 
Q 834 1859 811 1870 
Q 788 1881 770 1906 
Q 753 1931 742 1972 
Q 731 2013 731 2078 
Q 731 2138 740 2177 
Q 750 2216 767 2239 
Q 784 2263 806 2273 
Q 828 2284 856 2284 
L 1209 2284 
Q 1416 2284 1580 2337 
Q 1744 2391 1858 2491 
Q 1972 2591 2033 2730 
Q 2094 2869 2094 3041 
Q 2094 3166 2053 3280 
Q 2013 3394 1931 3478 
Q 1850 3563 1723 3611 
Q 1597 3659 1431 3659 
Q 1250 3659 1098 3604 
Q 947 3550 828 3487 
Q 709 3425 631 3370 
Q 553 3316 522 3316 
Q 500 3316 483 3323 
Q 466 3331 455 3354 
Q 444 3378 439 3420 
Q 434 3463 434 3531 
Q 434 3578 437 3614 
Q 441 3650 450 3676 
Q 459 3703 471 3725 
Q 484 3747 514 3776 
Q 544 3806 634 3862 
Q 725 3919 858 3973 
Q 991 4028 1164 4065 
Q 1338 4103 1538 4103 
Q 1819 4103 2031 4031 
Q 2244 3959 2386 3828 
Q 2528 3697 2598 3514 
Q 2669 3331 2669 3109 
Q 2669 2919 2619 2755 
Q 2569 2591 2472 2464 
Q 2375 2338 2234 2248 
Q 2094 2159 1909 2125 
L 1909 2119 
Q 2119 2097 2292 2014 
Q 2466 1931 2591 1806 
Q 2716 1681 2786 1514 
Q 2856 1347 2856 1156 
z
" transform="scale(0.015625)"/>
       </defs>
       <use xlink:href="#Calibri-33"/>
       <use xlink:href="#Calibri-30" x="50.683594"/>
      </g>
     </g>
    </g>
    <g id="ytick_5">
     <g id="line2d_8">
      <g>
       <use xlink:href="#mf20daae93b" x="31.8897" y="96.053412" style="stroke: #000000; stroke-width: 0.8"/>
      </g>
     </g>
     <g id="text_9">
      <!-- 35 -->
      <g transform="translate(16.7797 98.774037) scale(0.08 -0.08)">
       <use xlink:href="#Calibri-33"/>
       <use xlink:href="#Calibri-35" x="50.683594"/>
      </g>
     </g>
    </g>
    <g id="ytick_6">
     <g id="line2d_9">
      <g>
       <use xlink:href="#mf20daae93b" x="31.8897" y="65.185818" style="stroke: #000000; stroke-width: 0.8"/>
      </g>
     </g>
     <g id="text_10">
      <!-- 40 -->
      <g transform="translate(16.7797 67.906443) scale(0.08 -0.08)">
       <defs>
        <path id="Calibri-34" d="M 3059 1150 
Q 3059 1047 3028 987 
Q 2997 928 2941 928 
L 2484 928 
L 2484 78 
Q 2484 53 2471 36 
Q 2459 19 2428 6 
Q 2397 -6 2347 -12 
Q 2297 -19 2219 -19 
Q 2144 -19 2094 -12 
Q 2044 -6 2014 6 
Q 1984 19 1973 36 
Q 1963 53 1963 78 
L 1963 928 
L 294 928 
Q 256 928 231 937 
Q 206 947 186 972 
Q 166 997 158 1044 
Q 150 1091 150 1166 
Q 150 1225 153 1272 
Q 156 1319 165 1358 
Q 175 1397 190 1433 
Q 206 1469 228 1509 
L 1684 3966 
Q 1700 3991 1729 4009 
Q 1759 4028 1806 4040 
Q 1853 4053 1922 4058 
Q 1991 4063 2084 4063 
Q 2188 4063 2264 4055 
Q 2341 4047 2387 4034 
Q 2434 4022 2459 4001 
Q 2484 3981 2484 3953 
L 2484 1372 
L 2941 1372 
Q 2994 1372 3026 1317 
Q 3059 1263 3059 1150 
z
M 1963 3591 
L 1956 3591 
L 641 1372 
L 1963 1372 
L 1963 3591 
z
" transform="scale(0.015625)"/>
       </defs>
       <use xlink:href="#Calibri-34"/>
       <use xlink:href="#Calibri-30" x="50.683594"/>
      </g>
     </g>
    </g>
    <g id="ytick_7">
     <g id="line2d_10">
      <g>
       <use xlink:href="#mf20daae93b" x="31.8897" y="34.318223" style="stroke: #000000; stroke-width: 0.8"/>
      </g>
     </g>
     <g id="text_11">
      <!-- 45 -->
      <g transform="translate(16.7797 37.038848) scale(0.08 -0.08)">
       <use xlink:href="#Calibri-34"/>
       <use xlink:href="#Calibri-35" x="50.683594"/>
      </g>
     </g>
    </g>
   </g>
   <g id="patch_3">
    <path d="M 40.876797 114.573968 
L 82.355708 114.573968 
L 82.355708 89.879893 
L 40.876797 89.879893 
L 40.876797 114.573968 
z
" clip-path="url(#p58642e3ce6)" style="fill: #d3d3d3; stroke: #7f7f7f; stroke-linejoin: miter"/>
   </g>
   <g id="line2d_11">
    <path d="M 61.616253 114.573968 
L 61.616253 133.094525 
" clip-path="url(#p58642e3ce6)" style="fill: none; stroke: #7f7f7f"/>
   </g>
   <g id="line2d_12">
    <path d="M 61.616253 89.879893 
L 61.616253 71.359336 
" clip-path="url(#p58642e3ce6)" style="fill: none; stroke: #7f7f7f"/>
   </g>
   <g id="line2d_13">
    <path d="M 51.246525 133.094525 
L 71.98598 133.094525 
" clip-path="url(#p58642e3ce6)" style="fill: none; stroke: #7f7f7f; stroke-linecap: square"/>
   </g>
   <g id="line2d_14">
    <path d="M 51.246525 71.359336 
L 71.98598 71.359336 
" clip-path="url(#p58642e3ce6)" style="fill: none; stroke: #7f7f7f; stroke-linecap: square"/>
   </g>
   <g id="patch_4">
    <path d="M 110.008315 102.226931 
L 151.487225 102.226931 
L 151.487225 65.185818 
L 110.008315 65.185818 
L 110.008315 102.226931 
z
" clip-path="url(#p58642e3ce6)" style="fill: #d3d3d3; stroke: #7f7f7f; stroke-linejoin: miter"/>
   </g>
   <g id="line2d_15">
    <path d="M 130.74777 102.226931 
L 130.74777 133.094525 
" clip-path="url(#p58642e3ce6)" style="fill: none; stroke: #7f7f7f"/>
   </g>
   <g id="line2d_16">
    <path d="M 130.74777 65.185818 
L 130.74777 52.83878 
" clip-path="url(#p58642e3ce6)" style="fill: none; stroke: #7f7f7f"/>
   </g>
   <g id="line2d_17">
    <path d="M 120.378042 133.094525 
L 141.117498 133.094525 
" clip-path="url(#p58642e3ce6)" style="fill: none; stroke: #7f7f7f; stroke-linecap: square"/>
   </g>
   <g id="line2d_18">
    <path d="M 120.378042 52.83878 
L 141.117498 52.83878 
" clip-path="url(#p58642e3ce6)" style="fill: none; stroke: #7f7f7f; stroke-linecap: square"/>
   </g>
   <g id="patch_5">
    <path d="M 179.139832 72.902716 
L 220.618743 72.902716 
L 220.618743 52.83878 
L 179.139832 52.83878 
L 179.139832 72.902716 
z
" clip-path="url(#p58642e3ce6)" style="fill: #d3d3d3; stroke: #7f7f7f; stroke-linejoin: miter"/>
   </g>
   <g id="line2d_19">
    <path d="M 199.879287 72.902716 
L 199.879287 102.226931 
" clip-path="url(#p58642e3ce6)" style="fill: none; stroke: #7f7f7f"/>
   </g>
   <g id="line2d_20">
    <path d="M 199.879287 52.83878 
L 199.879287 52.83878 
" clip-path="url(#p58642e3ce6)" style="fill: none; stroke: #7f7f7f"/>
   </g>
   <g id="line2d_21">
    <path d="M 189.50956 102.226931 
L 210.249015 102.226931 
" clip-path="url(#p58642e3ce6)" style="fill: none; stroke: #7f7f7f; stroke-linecap: square"/>
   </g>
   <g id="line2d_22">
    <path d="M 189.50956 52.83878 
L 210.249015 52.83878 
" clip-path="url(#p58642e3ce6)" style="fill: none; stroke: #7f7f7f; stroke-linecap: square"/>
   </g>
   <g id="line2d_23">
    <path d="M 61.616253 102.226931 
L 130.74777 52.83878 
L 199.879287 59.012299 
" clip-path="url(#p58642e3ce6)" style="fill: none; stroke-dasharray: 1.2,1.98; stroke-dashoffset: 0; stroke: #e69f00; stroke-opacity: 0.8; stroke-width: 1.2"/>
    <defs>
     <path id="mbc937a2d3a" d="M 0 1 
C 0.265203 1 0.51958 0.894634 0.707107 0.707107 
C 0.894634 0.51958 1 0.265203 1 0 
C 1 -0.265203 0.894634 -0.51958 0.707107 -0.707107 
C 0.51958 -0.894634 0.265203 -1 0 -1 
C -0.265203 -1 -0.51958 -0.894634 -0.707107 -0.707107 
C -0.894634 -0.51958 -1 -0.265203 -1 0 
C -1 0.265203 -0.894634 0.51958 -0.707107 0.707107 
C -0.51958 0.894634 -0.265203 1 0 1 
z
" style="stroke: #e69f00; stroke-opacity: 0.8"/>
    </defs>
    <g clip-path="url(#p58642e3ce6)">
     <use xlink:href="#mbc937a2d3a" x="61.616253" y="102.226931" style="fill: #e69f00; fill-opacity: 0.8; stroke: #e69f00; stroke-opacity: 0.8"/>
     <use xlink:href="#mbc937a2d3a" x="130.74777" y="52.83878" style="fill: #e69f00; fill-opacity: 0.8; stroke: #e69f00; stroke-opacity: 0.8"/>
     <use xlink:href="#mbc937a2d3a" x="199.879287" y="59.012299" style="fill: #e69f00; fill-opacity: 0.8; stroke: #e69f00; stroke-opacity: 0.8"/>
    </g>
   </g>
   <g id="line2d_24">
    <path d="M 61.616253 77.532855 
L 130.74777 77.532855 
L 199.879287 59.012299 
" clip-path="url(#p58642e3ce6)" style="fill: none; stroke: #009e73; stroke-opacity: 0.8; stroke-width: 1.2; stroke-linecap: square"/>
    <defs>
     <path id="m9db3df43aa" d="M 0 1 
C 0.265203 1 0.51958 0.894634 0.707107 0.707107 
C 0.894634 0.51958 1 0.265203 1 0 
C 1 -0.265203 0.894634 -0.51958 0.707107 -0.707107 
C 0.51958 -0.894634 0.265203 -1 0 -1 
C -0.265203 -1 -0.51958 -0.894634 -0.707107 -0.707107 
C -0.894634 -0.51958 -1 -0.265203 -1 0 
C -1 0.265203 -0.894634 0.51958 -0.707107 0.707107 
C -0.51958 0.894634 -0.265203 1 0 1 
z
" style="stroke: #009e73; stroke-opacity: 0.8"/>
    </defs>
    <g clip-path="url(#p58642e3ce6)">
     <use xlink:href="#m9db3df43aa" x="61.616253" y="77.532855" style="fill: #009e73; fill-opacity: 0.8; stroke: #009e73; stroke-opacity: 0.8"/>
     <use xlink:href="#m9db3df43aa" x="130.74777" y="77.532855" style="fill: #009e73; fill-opacity: 0.8; stroke: #009e73; stroke-opacity: 0.8"/>
     <use xlink:href="#m9db3df43aa" x="199.879287" y="59.012299" style="fill: #009e73; fill-opacity: 0.8; stroke: #009e73; stroke-opacity: 0.8"/>
    </g>
   </g>
   <g id="line2d_25">
    <path d="M 61.616253 102.226931 
L 130.74777 83.706374 
L 199.879287 59.012299 
" clip-path="url(#p58642e3ce6)" style="fill: none; stroke: #009e73; stroke-opacity: 0.8; stroke-width: 1.2; stroke-linecap: square"/>
    <g clip-path="url(#p58642e3ce6)">
     <use xlink:href="#m9db3df43aa" x="61.616253" y="102.226931" style="fill: #009e73; fill-opacity: 0.8; stroke: #009e73; stroke-opacity: 0.8"/>
     <use xlink:href="#m9db3df43aa" x="130.74777" y="83.706374" style="fill: #009e73; fill-opacity: 0.8; stroke: #009e73; stroke-opacity: 0.8"/>
     <use xlink:href="#m9db3df43aa" x="199.879287" y="59.012299" style="fill: #009e73; fill-opacity: 0.8; stroke: #009e73; stroke-opacity: 0.8"/>
    </g>
   </g>
   <g id="line2d_26">
    <path d="M 61.616253 71.359336 
L 130.74777 59.012299 
L 199.879287 52.83878 
" clip-path="url(#p58642e3ce6)" style="fill: none; stroke: #009e73; stroke-opacity: 0.8; stroke-width: 1.2; stroke-linecap: square"/>
    <g clip-path="url(#p58642e3ce6)">
     <use xlink:href="#m9db3df43aa" x="61.616253" y="71.359336" style="fill: #009e73; fill-opacity: 0.8; stroke: #009e73; stroke-opacity: 0.8"/>
     <use xlink:href="#m9db3df43aa" x="130.74777" y="59.012299" style="fill: #009e73; fill-opacity: 0.8; stroke: #009e73; stroke-opacity: 0.8"/>
     <use xlink:href="#m9db3df43aa" x="199.879287" y="52.83878" style="fill: #009e73; fill-opacity: 0.8; stroke: #009e73; stroke-opacity: 0.8"/>
    </g>
   </g>
   <g id="line2d_27">
    <path d="M 61.616253 120.747487 
L 130.74777 65.185818 
L 199.879287 59.012299 
" clip-path="url(#p58642e3ce6)" style="fill: none; stroke: #009e73; stroke-opacity: 0.8; stroke-width: 1.2; stroke-linecap: square"/>
    <g clip-path="url(#p58642e3ce6)">
     <use xlink:href="#m9db3df43aa" x="61.616253" y="120.747487" style="fill: #009e73; fill-opacity: 0.8; stroke: #009e73; stroke-opacity: 0.8"/>
     <use xlink:href="#m9db3df43aa" x="130.74777" y="65.185818" style="fill: #009e73; fill-opacity: 0.8; stroke: #009e73; stroke-opacity: 0.8"/>
     <use xlink:href="#m9db3df43aa" x="199.879287" y="59.012299" style="fill: #009e73; fill-opacity: 0.8; stroke: #009e73; stroke-opacity: 0.8"/>
    </g>
   </g>
   <g id="line2d_28">
    <path d="M 61.616253 77.532855 
L 130.74777 59.012299 
L 199.879287 52.83878 
" clip-path="url(#p58642e3ce6)" style="fill: none; stroke: #009e73; stroke-opacity: 0.8; stroke-width: 1.2; stroke-linecap: square"/>
    <g clip-path="url(#p58642e3ce6)">
     <use xlink:href="#m9db3df43aa" x="61.616253" y="77.532855" style="fill: #009e73; fill-opacity: 0.8; stroke: #009e73; stroke-opacity: 0.8"/>
     <use xlink:href="#m9db3df43aa" x="130.74777" y="59.012299" style="fill: #009e73; fill-opacity: 0.8; stroke: #009e73; stroke-opacity: 0.8"/>
     <use xlink:href="#m9db3df43aa" x="199.879287" y="52.83878" style="fill: #009e73; fill-opacity: 0.8; stroke: #009e73; stroke-opacity: 0.8"/>
    </g>
   </g>
   <g id="line2d_29">
    <path d="M 61.616253 96.053412 
L 130.74777 65.185818 
L 199.879287 52.83878 
" clip-path="url(#p58642e3ce6)" style="fill: none; stroke: #009e73; stroke-opacity: 0.8; stroke-width: 1.2; stroke-linecap: square"/>
    <g clip-path="url(#p58642e3ce6)">
     <use xlink:href="#m9db3df43aa" x="61.616253" y="96.053412" style="fill: #009e73; fill-opacity: 0.8; stroke: #009e73; stroke-opacity: 0.8"/>
     <use xlink:href="#m9db3df43aa" x="130.74777" y="65.185818" style="fill: #009e73; fill-opacity: 0.8; stroke: #009e73; stroke-opacity: 0.8"/>
     <use xlink:href="#m9db3df43aa" x="199.879287" y="52.83878" style="fill: #009e73; fill-opacity: 0.8; stroke: #009e73; stroke-opacity: 0.8"/>
    </g>
   </g>
   <g id="line2d_30">
    <path d="M 61.616253 201.003232 
L 130.74777 170.135638 
L 199.879287 133.094525 
" clip-path="url(#p58642e3ce6)" style="fill: none; stroke: #009e73; stroke-opacity: 0.8; stroke-width: 1.2; stroke-linecap: square"/>
    <g clip-path="url(#p58642e3ce6)">
     <use xlink:href="#m9db3df43aa" x="61.616253" y="201.003232" style="fill: #009e73; fill-opacity: 0.8; stroke: #009e73; stroke-opacity: 0.8"/>
     <use xlink:href="#m9db3df43aa" x="130.74777" y="170.135638" style="fill: #009e73; fill-opacity: 0.8; stroke: #009e73; stroke-opacity: 0.8"/>
     <use xlink:href="#m9db3df43aa" x="199.879287" y="133.094525" style="fill: #009e73; fill-opacity: 0.8; stroke: #009e73; stroke-opacity: 0.8"/>
    </g>
   </g>
   <g id="line2d_31">
    <path d="M 61.616253 89.879893 
L 130.74777 65.185818 
L 199.879287 52.83878 
" clip-path="url(#p58642e3ce6)" style="fill: none; stroke: #009e73; stroke-opacity: 0.8; stroke-width: 1.2; stroke-linecap: square"/>
    <g clip-path="url(#p58642e3ce6)">
     <use xlink:href="#m9db3df43aa" x="61.616253" y="89.879893" style="fill: #009e73; fill-opacity: 0.8; stroke: #009e73; stroke-opacity: 0.8"/>
     <use xlink:href="#m9db3df43aa" x="130.74777" y="65.185818" style="fill: #009e73; fill-opacity: 0.8; stroke: #009e73; stroke-opacity: 0.8"/>
     <use xlink:href="#m9db3df43aa" x="199.879287" y="52.83878" style="fill: #009e73; fill-opacity: 0.8; stroke: #009e73; stroke-opacity: 0.8"/>
    </g>
   </g>
   <g id="line2d_32">
    <path d="M 61.616253 108.400449 
L 130.74777 83.706374 
L 199.879287 71.359336 
" clip-path="url(#p58642e3ce6)" style="fill: none; stroke: #009e73; stroke-opacity: 0.8; stroke-width: 1.2; stroke-linecap: square"/>
    <g clip-path="url(#p58642e3ce6)">
     <use xlink:href="#m9db3df43aa" x="61.616253" y="108.400449" style="fill: #009e73; fill-opacity: 0.8; stroke: #009e73; stroke-opacity: 0.8"/>
     <use xlink:href="#m9db3df43aa" x="130.74777" y="83.706374" style="fill: #009e73; fill-opacity: 0.8; stroke: #009e73; stroke-opacity: 0.8"/>
     <use xlink:href="#m9db3df43aa" x="199.879287" y="71.359336" style="fill: #009e73; fill-opacity: 0.8; stroke: #009e73; stroke-opacity: 0.8"/>
    </g>
   </g>
   <g id="line2d_33">
    <path d="M 61.616253 108.400449 
L 130.74777 71.359336 
L 199.879287 65.185818 
" clip-path="url(#p58642e3ce6)" style="fill: none; stroke: #009e73; stroke-opacity: 0.8; stroke-width: 1.2; stroke-linecap: square"/>
    <g clip-path="url(#p58642e3ce6)">
     <use xlink:href="#m9db3df43aa" x="61.616253" y="108.400449" style="fill: #009e73; fill-opacity: 0.8; stroke: #009e73; stroke-opacity: 0.8"/>
     <use xlink:href="#m9db3df43aa" x="130.74777" y="71.359336" style="fill: #009e73; fill-opacity: 0.8; stroke: #009e73; stroke-opacity: 0.8"/>
     <use xlink:href="#m9db3df43aa" x="199.879287" y="65.185818" style="fill: #009e73; fill-opacity: 0.8; stroke: #009e73; stroke-opacity: 0.8"/>
    </g>
   </g>
   <g id="line2d_34">
    <path d="M 61.616253 83.706374 
L 130.74777 77.532855 
L 199.879287 59.012299 
" clip-path="url(#p58642e3ce6)" style="fill: none; stroke: #009e73; stroke-opacity: 0.8; stroke-width: 1.2; stroke-linecap: square"/>
    <g clip-path="url(#p58642e3ce6)">
     <use xlink:href="#m9db3df43aa" x="61.616253" y="83.706374" style="fill: #009e73; fill-opacity: 0.8; stroke: #009e73; stroke-opacity: 0.8"/>
     <use xlink:href="#m9db3df43aa" x="130.74777" y="77.532855" style="fill: #009e73; fill-opacity: 0.8; stroke: #009e73; stroke-opacity: 0.8"/>
     <use xlink:href="#m9db3df43aa" x="199.879287" y="59.012299" style="fill: #009e73; fill-opacity: 0.8; stroke: #009e73; stroke-opacity: 0.8"/>
    </g>
   </g>
   <g id="line2d_35">
    <path d="M 61.616253 96.053412 
L 130.74777 71.359336 
L 199.879287 52.83878 
" clip-path="url(#p58642e3ce6)" style="fill: none; stroke: #009e73; stroke-opacity: 0.8; stroke-width: 1.2; stroke-linecap: square"/>
    <g clip-path="url(#p58642e3ce6)">
     <use xlink:href="#m9db3df43aa" x="61.616253" y="96.053412" style="fill: #009e73; fill-opacity: 0.8; stroke: #009e73; stroke-opacity: 0.8"/>
     <use xlink:href="#m9db3df43aa" x="130.74777" y="71.359336" style="fill: #009e73; fill-opacity: 0.8; stroke: #009e73; stroke-opacity: 0.8"/>
     <use xlink:href="#m9db3df43aa" x="199.879287" y="52.83878" style="fill: #009e73; fill-opacity: 0.8; stroke: #009e73; stroke-opacity: 0.8"/>
    </g>
   </g>
   <g id="line2d_36">
    <path d="M 61.616253 114.573968 
L 130.74777 65.185818 
L 199.879287 52.83878 
" clip-path="url(#p58642e3ce6)" style="fill: none; stroke: #009e73; stroke-opacity: 0.8; stroke-width: 1.2; stroke-linecap: square"/>
    <g clip-path="url(#p58642e3ce6)">
     <use xlink:href="#m9db3df43aa" x="61.616253" y="114.573968" style="fill: #009e73; fill-opacity: 0.8; stroke: #009e73; stroke-opacity: 0.8"/>
     <use xlink:href="#m9db3df43aa" x="130.74777" y="65.185818" style="fill: #009e73; fill-opacity: 0.8; stroke: #009e73; stroke-opacity: 0.8"/>
     <use xlink:href="#m9db3df43aa" x="199.879287" y="52.83878" style="fill: #009e73; fill-opacity: 0.8; stroke: #009e73; stroke-opacity: 0.8"/>
    </g>
   </g>
   <g id="line2d_37">
    <path d="M 61.616253 114.573968 
L 130.74777 89.879893 
L 199.879287 52.83878 
" clip-path="url(#p58642e3ce6)" style="fill: none; stroke: #009e73; stroke-opacity: 0.8; stroke-width: 1.2; stroke-linecap: square"/>
    <g clip-path="url(#p58642e3ce6)">
     <use xlink:href="#m9db3df43aa" x="61.616253" y="114.573968" style="fill: #009e73; fill-opacity: 0.8; stroke: #009e73; stroke-opacity: 0.8"/>
     <use xlink:href="#m9db3df43aa" x="130.74777" y="89.879893" style="fill: #009e73; fill-opacity: 0.8; stroke: #009e73; stroke-opacity: 0.8"/>
     <use xlink:href="#m9db3df43aa" x="199.879287" y="52.83878" style="fill: #009e73; fill-opacity: 0.8; stroke: #009e73; stroke-opacity: 0.8"/>
    </g>
   </g>
   <g id="line2d_38">
    <path d="M 61.616253 89.879893 
L 130.74777 108.400449 
L 199.879287 89.879893 
" clip-path="url(#p58642e3ce6)" style="fill: none; stroke-dasharray: 7.68,1.92,1.2,1.92; stroke-dashoffset: 0; stroke: #0072b2; stroke-opacity: 0.8; stroke-width: 1.2"/>
    <defs>
     <path id="m1164c975fd" d="M 0 1 
C 0.265203 1 0.51958 0.894634 0.707107 0.707107 
C 0.894634 0.51958 1 0.265203 1 0 
C 1 -0.265203 0.894634 -0.51958 0.707107 -0.707107 
C 0.51958 -0.894634 0.265203 -1 0 -1 
C -0.265203 -1 -0.51958 -0.894634 -0.707107 -0.707107 
C -0.894634 -0.51958 -1 -0.265203 -1 0 
C -1 0.265203 -0.894634 0.51958 -0.707107 0.707107 
C -0.51958 0.894634 -0.265203 1 0 1 
z
" style="stroke: #0072b2; stroke-opacity: 0.8"/>
    </defs>
    <g clip-path="url(#p58642e3ce6)">
     <use xlink:href="#m1164c975fd" x="61.616253" y="89.879893" style="fill: #0072b2; fill-opacity: 0.8; stroke: #0072b2; stroke-opacity: 0.8"/>
     <use xlink:href="#m1164c975fd" x="130.74777" y="108.400449" style="fill: #0072b2; fill-opacity: 0.8; stroke: #0072b2; stroke-opacity: 0.8"/>
     <use xlink:href="#m1164c975fd" x="199.879287" y="89.879893" style="fill: #0072b2; fill-opacity: 0.8; stroke: #0072b2; stroke-opacity: 0.8"/>
    </g>
   </g>
   <g id="line2d_39">
    <path d="M 61.616253 114.573968 
L 130.74777 102.226931 
L 199.879287 52.83878 
" clip-path="url(#p58642e3ce6)" style="fill: none; stroke: #009e73; stroke-opacity: 0.8; stroke-width: 1.2; stroke-linecap: square"/>
    <g clip-path="url(#p58642e3ce6)">
     <use xlink:href="#m9db3df43aa" x="61.616253" y="114.573968" style="fill: #009e73; fill-opacity: 0.8; stroke: #009e73; stroke-opacity: 0.8"/>
     <use xlink:href="#m9db3df43aa" x="130.74777" y="102.226931" style="fill: #009e73; fill-opacity: 0.8; stroke: #009e73; stroke-opacity: 0.8"/>
     <use xlink:href="#m9db3df43aa" x="199.879287" y="52.83878" style="fill: #009e73; fill-opacity: 0.8; stroke: #009e73; stroke-opacity: 0.8"/>
    </g>
   </g>
   <g id="line2d_40">
    <path d="M 61.616253 126.921006 
L 130.74777 89.879893 
L 199.879287 71.359336 
" clip-path="url(#p58642e3ce6)" style="fill: none; stroke: #009e73; stroke-opacity: 0.8; stroke-width: 1.2; stroke-linecap: square"/>
    <g clip-path="url(#p58642e3ce6)">
     <use xlink:href="#m9db3df43aa" x="61.616253" y="126.921006" style="fill: #009e73; fill-opacity: 0.8; stroke: #009e73; stroke-opacity: 0.8"/>
     <use xlink:href="#m9db3df43aa" x="130.74777" y="89.879893" style="fill: #009e73; fill-opacity: 0.8; stroke: #009e73; stroke-opacity: 0.8"/>
     <use xlink:href="#m9db3df43aa" x="199.879287" y="71.359336" style="fill: #009e73; fill-opacity: 0.8; stroke: #009e73; stroke-opacity: 0.8"/>
    </g>
   </g>
   <g id="line2d_41">
    <path d="M 61.616253 83.706374 
L 130.74777 108.400449 
L 199.879287 83.706374 
" clip-path="url(#p58642e3ce6)" style="fill: none; stroke-dasharray: 7.68,1.92,1.2,1.92; stroke-dashoffset: 0; stroke: #0072b2; stroke-opacity: 0.8; stroke-width: 1.2"/>
    <g clip-path="url(#p58642e3ce6)">
     <use xlink:href="#m1164c975fd" x="61.616253" y="83.706374" style="fill: #0072b2; fill-opacity: 0.8; stroke: #0072b2; stroke-opacity: 0.8"/>
     <use xlink:href="#m1164c975fd" x="130.74777" y="108.400449" style="fill: #0072b2; fill-opacity: 0.8; stroke: #0072b2; stroke-opacity: 0.8"/>
     <use xlink:href="#m1164c975fd" x="199.879287" y="83.706374" style="fill: #0072b2; fill-opacity: 0.8; stroke: #0072b2; stroke-opacity: 0.8"/>
    </g>
   </g>
   <g id="line2d_42">
    <path d="M 61.616253 102.226931 
L 130.74777 89.879893 
L 199.879287 96.053412 
" clip-path="url(#p58642e3ce6)" style="fill: none; stroke-dasharray: 1.2,1.98; stroke-dashoffset: 0; stroke: #e69f00; stroke-opacity: 0.8; stroke-width: 1.2"/>
    <g clip-path="url(#p58642e3ce6)">
     <use xlink:href="#mbc937a2d3a" x="61.616253" y="102.226931" style="fill: #e69f00; fill-opacity: 0.8; stroke: #e69f00; stroke-opacity: 0.8"/>
     <use xlink:href="#mbc937a2d3a" x="130.74777" y="89.879893" style="fill: #e69f00; fill-opacity: 0.8; stroke: #e69f00; stroke-opacity: 0.8"/>
     <use xlink:href="#mbc937a2d3a" x="199.879287" y="96.053412" style="fill: #e69f00; fill-opacity: 0.8; stroke: #e69f00; stroke-opacity: 0.8"/>
    </g>
   </g>
   <g id="line2d_43">
    <path d="M 61.616253 108.400449 
L 130.74777 59.012299 
L 199.879287 71.359336 
" clip-path="url(#p58642e3ce6)" style="fill: none; stroke-dasharray: 1.2,1.98; stroke-dashoffset: 0; stroke: #e69f00; stroke-opacity: 0.8; stroke-width: 1.2"/>
    <g clip-path="url(#p58642e3ce6)">
     <use xlink:href="#mbc937a2d3a" x="61.616253" y="108.400449" style="fill: #e69f00; fill-opacity: 0.8; stroke: #e69f00; stroke-opacity: 0.8"/>
     <use xlink:href="#mbc937a2d3a" x="130.74777" y="59.012299" style="fill: #e69f00; fill-opacity: 0.8; stroke: #e69f00; stroke-opacity: 0.8"/>
     <use xlink:href="#mbc937a2d3a" x="199.879287" y="71.359336" style="fill: #e69f00; fill-opacity: 0.8; stroke: #e69f00; stroke-opacity: 0.8"/>
    </g>
   </g>
   <g id="line2d_44">
    <path d="M 61.616253 89.879893 
L 130.74777 77.532855 
L 199.879287 52.83878 
" clip-path="url(#p58642e3ce6)" style="fill: none; stroke: #009e73; stroke-opacity: 0.8; stroke-width: 1.2; stroke-linecap: square"/>
    <g clip-path="url(#p58642e3ce6)">
     <use xlink:href="#m9db3df43aa" x="61.616253" y="89.879893" style="fill: #009e73; fill-opacity: 0.8; stroke: #009e73; stroke-opacity: 0.8"/>
     <use xlink:href="#m9db3df43aa" x="130.74777" y="77.532855" style="fill: #009e73; fill-opacity: 0.8; stroke: #009e73; stroke-opacity: 0.8"/>
     <use xlink:href="#m9db3df43aa" x="199.879287" y="52.83878" style="fill: #009e73; fill-opacity: 0.8; stroke: #009e73; stroke-opacity: 0.8"/>
    </g>
   </g>
   <g id="line2d_45">
    <path d="M 61.616253 71.359336 
L 130.74777 65.185818 
L 199.879287 59.012299 
" clip-path="url(#p58642e3ce6)" style="fill: none; stroke: #009e73; stroke-opacity: 0.8; stroke-width: 1.2; stroke-linecap: square"/>
    <g clip-path="url(#p58642e3ce6)">
     <use xlink:href="#m9db3df43aa" x="61.616253" y="71.359336" style="fill: #009e73; fill-opacity: 0.8; stroke: #009e73; stroke-opacity: 0.8"/>
     <use xlink:href="#m9db3df43aa" x="130.74777" y="65.185818" style="fill: #009e73; fill-opacity: 0.8; stroke: #009e73; stroke-opacity: 0.8"/>
     <use xlink:href="#m9db3df43aa" x="199.879287" y="59.012299" style="fill: #009e73; fill-opacity: 0.8; stroke: #009e73; stroke-opacity: 0.8"/>
    </g>
   </g>
   <g id="line2d_46">
    <path d="M 61.616253 96.053412 
L 130.74777 59.012299 
L 199.879287 59.012299 
" clip-path="url(#p58642e3ce6)" style="fill: none; stroke: #009e73; stroke-opacity: 0.8; stroke-width: 1.2; stroke-linecap: square"/>
    <g clip-path="url(#p58642e3ce6)">
     <use xlink:href="#m9db3df43aa" x="61.616253" y="96.053412" style="fill: #009e73; fill-opacity: 0.8; stroke: #009e73; stroke-opacity: 0.8"/>
     <use xlink:href="#m9db3df43aa" x="130.74777" y="59.012299" style="fill: #009e73; fill-opacity: 0.8; stroke: #009e73; stroke-opacity: 0.8"/>
     <use xlink:href="#m9db3df43aa" x="199.879287" y="59.012299" style="fill: #009e73; fill-opacity: 0.8; stroke: #009e73; stroke-opacity: 0.8"/>
    </g>
   </g>
   <g id="line2d_47">
    <path d="M 61.616253 96.053412 
L 130.74777 83.706374 
L 199.879287 65.185818 
" clip-path="url(#p58642e3ce6)" style="fill: none; stroke: #009e73; stroke-opacity: 0.8; stroke-width: 1.2; stroke-linecap: square"/>
    <g clip-path="url(#p58642e3ce6)">
     <use xlink:href="#m9db3df43aa" x="61.616253" y="96.053412" style="fill: #009e73; fill-opacity: 0.8; stroke: #009e73; stroke-opacity: 0.8"/>
     <use xlink:href="#m9db3df43aa" x="130.74777" y="83.706374" style="fill: #009e73; fill-opacity: 0.8; stroke: #009e73; stroke-opacity: 0.8"/>
     <use xlink:href="#m9db3df43aa" x="199.879287" y="65.185818" style="fill: #009e73; fill-opacity: 0.8; stroke: #009e73; stroke-opacity: 0.8"/>
    </g>
   </g>
   <g id="line2d_48">
    <path d="M 61.616253 176.309157 
L 130.74777 133.094525 
L 199.879287 83.706374 
" clip-path="url(#p58642e3ce6)" style="fill: none; stroke: #009e73; stroke-opacity: 0.8; stroke-width: 1.2; stroke-linecap: square"/>
    <g clip-path="url(#p58642e3ce6)">
     <use xlink:href="#m9db3df43aa" x="61.616253" y="176.309157" style="fill: #009e73; fill-opacity: 0.8; stroke: #009e73; stroke-opacity: 0.8"/>
     <use xlink:href="#m9db3df43aa" x="130.74777" y="133.094525" style="fill: #009e73; fill-opacity: 0.8; stroke: #009e73; stroke-opacity: 0.8"/>
     <use xlink:href="#m9db3df43aa" x="199.879287" y="83.706374" style="fill: #009e73; fill-opacity: 0.8; stroke: #009e73; stroke-opacity: 0.8"/>
    </g>
   </g>
   <g id="line2d_49">
    <path d="M 61.616253 133.094525 
L 130.74777 120.747487 
L 199.879287 102.226931 
" clip-path="url(#p58642e3ce6)" style="fill: none; stroke: #009e73; stroke-opacity: 0.8; stroke-width: 1.2; stroke-linecap: square"/>
    <g clip-path="url(#p58642e3ce6)">
     <use xlink:href="#m9db3df43aa" x="61.616253" y="133.094525" style="fill: #009e73; fill-opacity: 0.8; stroke: #009e73; stroke-opacity: 0.8"/>
     <use xlink:href="#m9db3df43aa" x="130.74777" y="120.747487" style="fill: #009e73; fill-opacity: 0.8; stroke: #009e73; stroke-opacity: 0.8"/>
     <use xlink:href="#m9db3df43aa" x="199.879287" y="102.226931" style="fill: #009e73; fill-opacity: 0.8; stroke: #009e73; stroke-opacity: 0.8"/>
    </g>
   </g>
   <g id="line2d_50">
    <path d="M 61.616253 83.706374 
L 130.74777 71.359336 
L 199.879287 65.185818 
" clip-path="url(#p58642e3ce6)" style="fill: none; stroke: #009e73; stroke-opacity: 0.8; stroke-width: 1.2; stroke-linecap: square"/>
    <g clip-path="url(#p58642e3ce6)">
     <use xlink:href="#m9db3df43aa" x="61.616253" y="83.706374" style="fill: #009e73; fill-opacity: 0.8; stroke: #009e73; stroke-opacity: 0.8"/>
     <use xlink:href="#m9db3df43aa" x="130.74777" y="71.359336" style="fill: #009e73; fill-opacity: 0.8; stroke: #009e73; stroke-opacity: 0.8"/>
     <use xlink:href="#m9db3df43aa" x="199.879287" y="65.185818" style="fill: #009e73; fill-opacity: 0.8; stroke: #009e73; stroke-opacity: 0.8"/>
    </g>
   </g>
   <g id="line2d_51">
    <path d="M 61.616253 102.226931 
L 130.74777 102.226931 
L 199.879287 102.226931 
" clip-path="url(#p58642e3ce6)" style="fill: none; stroke: #d9d9d9; stroke-opacity: 0.8; stroke-width: 1.2; stroke-linecap: square"/>
    <defs>
     <path id="mf86a721b71" d="M 0 1 
C 0.265203 1 0.51958 0.894634 0.707107 0.707107 
C 0.894634 0.51958 1 0.265203 1 0 
C 1 -0.265203 0.894634 -0.51958 0.707107 -0.707107 
C 0.51958 -0.894634 0.265203 -1 0 -1 
C -0.265203 -1 -0.51958 -0.894634 -0.707107 -0.707107 
C -0.894634 -0.51958 -1 -0.265203 -1 0 
C -1 0.265203 -0.894634 0.51958 -0.707107 0.707107 
C -0.51958 0.894634 -0.265203 1 0 1 
z
" style="stroke: #d9d9d9; stroke-opacity: 0.8"/>
    </defs>
    <g clip-path="url(#p58642e3ce6)">
     <use xlink:href="#mf86a721b71" x="61.616253" y="102.226931" style="fill: #d9d9d9; fill-opacity: 0.8; stroke: #d9d9d9; stroke-opacity: 0.8"/>
     <use xlink:href="#mf86a721b71" x="130.74777" y="102.226931" style="fill: #d9d9d9; fill-opacity: 0.8; stroke: #d9d9d9; stroke-opacity: 0.8"/>
     <use xlink:href="#mf86a721b71" x="199.879287" y="102.226931" style="fill: #d9d9d9; fill-opacity: 0.8; stroke: #d9d9d9; stroke-opacity: 0.8"/>
    </g>
   </g>
   <g id="line2d_52">
    <path d="M 61.616253 114.573968 
L 130.74777 77.532855 
L 199.879287 59.012299 
" clip-path="url(#p58642e3ce6)" style="fill: none; stroke: #009e73; stroke-opacity: 0.8; stroke-width: 1.2; stroke-linecap: square"/>
    <g clip-path="url(#p58642e3ce6)">
     <use xlink:href="#m9db3df43aa" x="61.616253" y="114.573968" style="fill: #009e73; fill-opacity: 0.8; stroke: #009e73; stroke-opacity: 0.8"/>
     <use xlink:href="#m9db3df43aa" x="130.74777" y="77.532855" style="fill: #009e73; fill-opacity: 0.8; stroke: #009e73; stroke-opacity: 0.8"/>
     <use xlink:href="#m9db3df43aa" x="199.879287" y="59.012299" style="fill: #009e73; fill-opacity: 0.8; stroke: #009e73; stroke-opacity: 0.8"/>
    </g>
   </g>
   <g id="line2d_53">
    <path d="M 61.616253 114.573968 
L 130.74777 102.226931 
L 199.879287 52.83878 
" clip-path="url(#p58642e3ce6)" style="fill: none; stroke: #009e73; stroke-opacity: 0.8; stroke-width: 1.2; stroke-linecap: square"/>
    <g clip-path="url(#p58642e3ce6)">
     <use xlink:href="#m9db3df43aa" x="61.616253" y="114.573968" style="fill: #009e73; fill-opacity: 0.8; stroke: #009e73; stroke-opacity: 0.8"/>
     <use xlink:href="#m9db3df43aa" x="130.74777" y="102.226931" style="fill: #009e73; fill-opacity: 0.8; stroke: #009e73; stroke-opacity: 0.8"/>
     <use xlink:href="#m9db3df43aa" x="199.879287" y="52.83878" style="fill: #009e73; fill-opacity: 0.8; stroke: #009e73; stroke-opacity: 0.8"/>
    </g>
   </g>
   <g id="line2d_54">
    <path d="M 61.616253 120.747487 
L 130.74777 114.573968 
L 199.879287 59.012299 
" clip-path="url(#p58642e3ce6)" style="fill: none; stroke: #009e73; stroke-opacity: 0.8; stroke-width: 1.2; stroke-linecap: square"/>
    <g clip-path="url(#p58642e3ce6)">
     <use xlink:href="#m9db3df43aa" x="61.616253" y="120.747487" style="fill: #009e73; fill-opacity: 0.8; stroke: #009e73; stroke-opacity: 0.8"/>
     <use xlink:href="#m9db3df43aa" x="130.74777" y="114.573968" style="fill: #009e73; fill-opacity: 0.8; stroke: #009e73; stroke-opacity: 0.8"/>
     <use xlink:href="#m9db3df43aa" x="199.879287" y="59.012299" style="fill: #009e73; fill-opacity: 0.8; stroke: #009e73; stroke-opacity: 0.8"/>
    </g>
   </g>
   <g id="line2d_55">
    <path d="M 61.616253 102.226931 
L 130.74777 65.185818 
L 199.879287 71.359336 
" clip-path="url(#p58642e3ce6)" style="fill: none; stroke-dasharray: 1.2,1.98; stroke-dashoffset: 0; stroke: #e69f00; stroke-opacity: 0.8; stroke-width: 1.2"/>
    <g clip-path="url(#p58642e3ce6)">
     <use xlink:href="#mbc937a2d3a" x="61.616253" y="102.226931" style="fill: #e69f00; fill-opacity: 0.8; stroke: #e69f00; stroke-opacity: 0.8"/>
     <use xlink:href="#mbc937a2d3a" x="130.74777" y="65.185818" style="fill: #e69f00; fill-opacity: 0.8; stroke: #e69f00; stroke-opacity: 0.8"/>
     <use xlink:href="#mbc937a2d3a" x="199.879287" y="71.359336" style="fill: #e69f00; fill-opacity: 0.8; stroke: #e69f00; stroke-opacity: 0.8"/>
    </g>
   </g>
   <g id="line2d_56">
    <path d="M 61.616253 126.921006 
L 130.74777 71.359336 
L 199.879287 52.83878 
" clip-path="url(#p58642e3ce6)" style="fill: none; stroke: #009e73; stroke-opacity: 0.8; stroke-width: 1.2; stroke-linecap: square"/>
    <g clip-path="url(#p58642e3ce6)">
     <use xlink:href="#m9db3df43aa" x="61.616253" y="126.921006" style="fill: #009e73; fill-opacity: 0.8; stroke: #009e73; stroke-opacity: 0.8"/>
     <use xlink:href="#m9db3df43aa" x="130.74777" y="71.359336" style="fill: #009e73; fill-opacity: 0.8; stroke: #009e73; stroke-opacity: 0.8"/>
     <use xlink:href="#m9db3df43aa" x="199.879287" y="52.83878" style="fill: #009e73; fill-opacity: 0.8; stroke: #009e73; stroke-opacity: 0.8"/>
    </g>
   </g>
   <g id="line2d_57">
    <path d="M 61.616253 89.879893 
L 130.74777 83.706374 
L 199.879287 77.532855 
" clip-path="url(#p58642e3ce6)" style="fill: none; stroke: #009e73; stroke-opacity: 0.8; stroke-width: 1.2; stroke-linecap: square"/>
    <g clip-path="url(#p58642e3ce6)">
     <use xlink:href="#m9db3df43aa" x="61.616253" y="89.879893" style="fill: #009e73; fill-opacity: 0.8; stroke: #009e73; stroke-opacity: 0.8"/>
     <use xlink:href="#m9db3df43aa" x="130.74777" y="83.706374" style="fill: #009e73; fill-opacity: 0.8; stroke: #009e73; stroke-opacity: 0.8"/>
     <use xlink:href="#m9db3df43aa" x="199.879287" y="77.532855" style="fill: #009e73; fill-opacity: 0.8; stroke: #009e73; stroke-opacity: 0.8"/>
    </g>
   </g>
   <g id="line2d_58">
    <path d="M 61.616253 102.226931 
L 130.74777 114.573968 
L 199.879287 83.706374 
" clip-path="url(#p58642e3ce6)" style="fill: none; stroke-dasharray: 7.68,1.92,1.2,1.92; stroke-dashoffset: 0; stroke: #0072b2; stroke-opacity: 0.8; stroke-width: 1.2"/>
    <g clip-path="url(#p58642e3ce6)">
     <use xlink:href="#m1164c975fd" x="61.616253" y="102.226931" style="fill: #0072b2; fill-opacity: 0.8; stroke: #0072b2; stroke-opacity: 0.8"/>
     <use xlink:href="#m1164c975fd" x="130.74777" y="114.573968" style="fill: #0072b2; fill-opacity: 0.8; stroke: #0072b2; stroke-opacity: 0.8"/>
     <use xlink:href="#m1164c975fd" x="199.879287" y="83.706374" style="fill: #0072b2; fill-opacity: 0.8; stroke: #0072b2; stroke-opacity: 0.8"/>
    </g>
   </g>
   <g id="line2d_59">
    <path d="M 40.876797 102.226931 
L 82.355708 102.226931 
" clip-path="url(#p58642e3ce6)" style="fill: none; stroke: #7f7f7f"/>
   </g>
   <g id="line2d_60">
    <path d="M 110.008315 77.532855 
L 151.487225 77.532855 
" clip-path="url(#p58642e3ce6)" style="fill: none; stroke: #7f7f7f"/>
   </g>
   <g id="line2d_61">
    <path d="M 179.139832 59.012299 
L 220.618743 59.012299 
" clip-path="url(#p58642e3ce6)" style="fill: none; stroke: #7f7f7f"/>
   </g>
   <g id="patch_6">
    <path d="M 31.8897 223.2279 
L 31.8897 30.614112 
" style="fill: none; stroke: #000000; stroke-width: 0.8; stroke-linejoin: miter; stroke-linecap: square"/>
   </g>
   <g id="patch_7">
    <path d="M 31.8897 223.2279 
L 229.60584 223.2279 
" style="fill: none; stroke: #000000; stroke-width: 0.8; stroke-linejoin: miter; stroke-linecap: square"/>
   </g>
  </g>
 </g>
 <defs>
  <clipPath id="p58642e3ce6">
   <rect x="31.8897" y="30.614112" width="197.71614" height="192.613788"/>
  </clipPath>
 </defs>
</svg>
