<?xml version="1.0" encoding="utf-8" standalone="no"?>
<!DOCTYPE svg PUBLIC "-//W3C//DTD SVG 1.1//EN"
  "http://www.w3.org/Graphics/SVG/1.1/DTD/svg11.dtd">
<svg xmlns:xlink="http://www.w3.org/1999/xlink" width="478.083925pt" height="233.712923pt" viewBox="0 0 478.083925 233.712923" xmlns="http://www.w3.org/2000/svg" version="1.1">
 <metadata>
  <rdf:RDF xmlns:dc="http://purl.org/dc/elements/1.1/" xmlns:cc="http://creativecommons.org/ns#" xmlns:rdf="http://www.w3.org/1999/02/22-rdf-syntax-ns#">
   <cc:Work>
    <dc:type rdf:resource="http://purl.org/dc/dcmitype/StillImage"/>
    <dc:date>2025-03-26T11:15:53.072114</dc:date>
    <dc:format>image/svg+xml</dc:format>
    <dc:creator>
     <cc:Agent>
      <dc:title>Matplotlib v3.8.3, https://matplotlib.org/</dc:title>
     </cc:Agent>
    </dc:creator>
   </cc:Work>
  </rdf:RDF>
 </metadata>
 <defs>
  <style type="text/css">*{stroke-linejoin: round; stroke-linecap: butt}</style>
 </defs>
 <g id="figure_1">
  <g id="patch_1">
   <path d="M 0 233.712923 
L 478.083925 233.712923 
L 478.083925 0 
L 0 0 
z
" style="fill: #ffffff"/>
  </g>
  <g id="axes_1">
   <g id="patch_2">
    <path d="M 43.04875 199.814173 
L 240.765285 199.814173 
L 240.765285 7.2 
L 43.04875 7.2 
z
" style="fill: #ffffff"/>
   </g>
   <g id="PathCollection_1">
    <defs>
     <path id="C0_0_06a928a299" d="M 0 2.5 
C 0.663008 2.5 1.29895 2.236584 1.767767 1.767767 
C 2.236584 1.29895 2.5 0.663008 2.5 -0 
C 2.5 -0.663008 2.236584 -1.29895 1.767767 -1.767767 
C 1.29895 -2.236584 0.663008 -2.5 0 -2.5 
C -0.663008 -2.5 -1.29895 -2.236584 -1.767767 -1.767767 
C -2.236584 -1.29895 -2.5 -0.663008 -2.5 0 
C -2.5 0.663008 -2.236584 1.29895 -1.767767 1.767767 
C -1.29895 2.236584 -0.663008 2.5 0 2.5 
z
"/>
    </defs>
    <g clip-path="url(#p0b68903017)">
     <use xlink:href="#C0_0_06a928a299" x="100.823062" y="82.747358" style="fill: #0000ff; fill-opacity: 0.7; stroke: #ffffff; stroke-opacity: 0.7; stroke-width: 0.4"/>
    </g>
    <g clip-path="url(#p0b68903017)">
     <use xlink:href="#C0_0_06a928a299" x="93.119821" y="138.708365" style="fill: #008000; fill-opacity: 0.7; stroke: #ffffff; stroke-opacity: 0.7; stroke-width: 0.4"/>
    </g>
    <g clip-path="url(#p0b68903017)">
     <use xlink:href="#C0_0_06a928a299" x="111.094051" y="73.72139" style="fill: #0000ff; fill-opacity: 0.7; stroke: #ffffff; stroke-opacity: 0.7; stroke-width: 0.4"/>
    </g>
    <g clip-path="url(#p0b68903017)">
     <use xlink:href="#C0_0_06a928a299" x="111.094051" y="70.111002" style="fill: #0000ff; fill-opacity: 0.7; stroke: #ffffff; stroke-opacity: 0.7; stroke-width: 0.4"/>
    </g>
    <g clip-path="url(#p0b68903017)">
     <use xlink:href="#C0_0_06a928a299" x="149.610259" y="55.669452" style="fill: #0000ff; fill-opacity: 0.7; stroke: #ffffff; stroke-opacity: 0.7; stroke-width: 0.4"/>
    </g>
    <g clip-path="url(#p0b68903017)">
     <use xlink:href="#C0_0_06a928a299" x="72.577843" y="89.968133" style="fill: #0000ff; fill-opacity: 0.7; stroke: #ffffff; stroke-opacity: 0.7; stroke-width: 0.4"/>
    </g>
    <g clip-path="url(#p0b68903017)">
     <use xlink:href="#C0_0_06a928a299" x="98.255315" y="70.111002" style="fill: #0000ff; fill-opacity: 0.7; stroke: #ffffff; stroke-opacity: 0.7; stroke-width: 0.4"/>
    </g>
    <g clip-path="url(#p0b68903017)">
     <use xlink:href="#C0_0_06a928a299" x="231.77817" y="127.877202" style="fill: #008000; fill-opacity: 0.7; stroke: #ffffff; stroke-opacity: 0.7; stroke-width: 0.4"/>
    </g>
    <g clip-path="url(#p0b68903017)">
     <use xlink:href="#C0_0_06a928a299" x="126.500534" y="46.643483" style="fill: #0000ff; fill-opacity: 0.7; stroke: #ffffff; stroke-opacity: 0.7; stroke-width: 0.4"/>
    </g>
    <g clip-path="url(#p0b68903017)">
     <use xlink:href="#C0_0_06a928a299" x="190.694215" y="68.305808" style="fill: #0000ff; fill-opacity: 0.7; stroke: #ffffff; stroke-opacity: 0.7; stroke-width: 0.4"/>
    </g>
    <g clip-path="url(#p0b68903017)">
     <use xlink:href="#C0_0_06a928a299" x="190.694215" y="77.331777" style="fill: #0000ff; fill-opacity: 0.7; stroke: #ffffff; stroke-opacity: 0.7; stroke-width: 0.4"/>
    </g>
    <g clip-path="url(#p0b68903017)">
     <use xlink:href="#C0_0_06a928a299" x="103.39081" y="117.04604" style="fill: #008000; fill-opacity: 0.7; stroke: #ffffff; stroke-opacity: 0.7; stroke-width: 0.4"/>
    </g>
    <g clip-path="url(#p0b68903017)">
     <use xlink:href="#C0_0_06a928a299" x="87.984326" y="133.292784" style="fill: #008000; fill-opacity: 0.7; stroke: #ffffff; stroke-opacity: 0.7; stroke-width: 0.4"/>
    </g>
    <g clip-path="url(#p0b68903017)">
     <use xlink:href="#C0_0_06a928a299" x="118.797293" y="52.059065" style="fill: #0000ff; fill-opacity: 0.7; stroke: #ffffff; stroke-opacity: 0.7; stroke-width: 0.4"/>
    </g>
    <g clip-path="url(#p0b68903017)">
     <use xlink:href="#C0_0_06a928a299" x="185.55872" y="15.95519" style="fill: #0000ff; fill-opacity: 0.7; stroke: #ffffff; stroke-opacity: 0.7; stroke-width: 0.4"/>
    </g>
    <g clip-path="url(#p0b68903017)">
     <use xlink:href="#C0_0_06a928a299" x="216.371687" y="71.916196" style="fill: #008000; fill-opacity: 0.7; stroke: #ffffff; stroke-opacity: 0.7; stroke-width: 0.4"/>
    </g>
    <g clip-path="url(#p0b68903017)">
     <use xlink:href="#C0_0_06a928a299" x="52.035865" y="100.799296" style="fill: #0000ff; fill-opacity: 0.7; stroke: #ffffff; stroke-opacity: 0.7; stroke-width: 0.4"/>
    </g>
    <g clip-path="url(#p0b68903017)">
     <use xlink:href="#C0_0_06a928a299" x="185.55872" y="79.136971" style="fill: #0000ff; fill-opacity: 0.7; stroke: #ffffff; stroke-opacity: 0.7; stroke-width: 0.4"/>
    </g>
    <g clip-path="url(#p0b68903017)">
     <use xlink:href="#C0_0_06a928a299" x="90.552073" y="191.058984" style="fill: #008000; fill-opacity: 0.7; stroke: #ffffff; stroke-opacity: 0.7; stroke-width: 0.4"/>
    </g>
    <g clip-path="url(#p0b68903017)">
     <use xlink:href="#C0_0_06a928a299" x="195.829709" y="86.357746" style="fill: #008000; fill-opacity: 0.7; stroke: #ffffff; stroke-opacity: 0.7; stroke-width: 0.4"/>
    </g>
    <g clip-path="url(#p0b68903017)">
     <use xlink:href="#C0_0_06a928a299" x="59.739107" y="93.578521" style="fill: #0000ff; fill-opacity: 0.7; stroke: #ffffff; stroke-opacity: 0.7; stroke-width: 0.4"/>
    </g>
    <g clip-path="url(#p0b68903017)">
     <use xlink:href="#C0_0_06a928a299" x="98.255315" y="66.500615" style="fill: #0000ff; fill-opacity: 0.7; stroke: #ffffff; stroke-opacity: 0.7; stroke-width: 0.4"/>
    </g>
    <g clip-path="url(#p0b68903017)">
     <use xlink:href="#C0_0_06a928a299" x="52.035865" y="98.994102" style="fill: #0000ff; fill-opacity: 0.7; stroke: #ffffff; stroke-opacity: 0.7; stroke-width: 0.4"/>
    </g>
    <g clip-path="url(#p0b68903017)">
     <use xlink:href="#C0_0_06a928a299" x="100.823062" y="84.552552" style="fill: #0000ff; fill-opacity: 0.7; stroke: #ffffff; stroke-opacity: 0.7; stroke-width: 0.4"/>
    </g>
    <g clip-path="url(#p0b68903017)">
     <use xlink:href="#C0_0_06a928a299" x="108.526304" y="118.851233" style="fill: #008000; fill-opacity: 0.7; stroke: #ffffff; stroke-opacity: 0.7; stroke-width: 0.4"/>
    </g>
    <g clip-path="url(#p0b68903017)">
     <use xlink:href="#C0_0_06a928a299" x="200.965204" y="133.292784" style="fill: #008000; fill-opacity: 0.7; stroke: #ffffff; stroke-opacity: 0.7; stroke-width: 0.4"/>
    </g>
    <g clip-path="url(#p0b68903017)">
     <use xlink:href="#C0_0_06a928a299" x="200.965204" y="136.903171" style="fill: #008000; fill-opacity: 0.7; stroke: #ffffff; stroke-opacity: 0.7; stroke-width: 0.4"/>
    </g>
    <g clip-path="url(#p0b68903017)">
     <use xlink:href="#C0_0_06a928a299" x="54.603612" y="108.020071" style="fill: #0000ff; fill-opacity: 0.7; stroke: #ffffff; stroke-opacity: 0.7; stroke-width: 0.4"/>
    </g>
    <g clip-path="url(#p0b68903017)">
     <use xlink:href="#C0_0_06a928a299" x="185.55872" y="93.578521" style="fill: #008000; fill-opacity: 0.7; stroke: #ffffff; stroke-opacity: 0.7; stroke-width: 0.4"/>
    </g>
    <g clip-path="url(#p0b68903017)">
     <use xlink:href="#C0_0_06a928a299" x="175.287731" y="21.370771" style="fill: #0000ff; fill-opacity: 0.7; stroke: #ffffff; stroke-opacity: 0.7; stroke-width: 0.4"/>
    </g>
    <g clip-path="url(#p0b68903017)">
     <use xlink:href="#C0_0_06a928a299" x="152.178007" y="71.916196" style="fill: #0000ff; fill-opacity: 0.7; stroke: #ffffff; stroke-opacity: 0.7; stroke-width: 0.4"/>
    </g>
    <g clip-path="url(#p0b68903017)">
     <use xlink:href="#C0_0_06a928a299" x="175.287731" y="71.916196" style="fill: #0000ff; fill-opacity: 0.7; stroke: #ffffff; stroke-opacity: 0.7; stroke-width: 0.4"/>
    </g>
    <g clip-path="url(#p0b68903017)">
     <use xlink:href="#C0_0_06a928a299" x="193.261962" y="57.474646" style="fill: #0000ff; fill-opacity: 0.7; stroke: #ffffff; stroke-opacity: 0.7; stroke-width: 0.4"/>
    </g>
    <g clip-path="url(#p0b68903017)">
     <use xlink:href="#C0_0_06a928a299" x="100.823062" y="84.552552" style="fill: #0000ff; fill-opacity: 0.7; stroke: #ffffff; stroke-opacity: 0.7; stroke-width: 0.4"/>
    </g>
    <g clip-path="url(#p0b68903017)">
     <use xlink:href="#C0_0_06a928a299" x="98.255315" y="98.994102" style="fill: #0000ff; fill-opacity: 0.7; stroke: #ffffff; stroke-opacity: 0.7; stroke-width: 0.4"/>
    </g>
    <g clip-path="url(#p0b68903017)">
     <use xlink:href="#C0_0_06a928a299" x="108.526304" y="111.630458" style="fill: #008000; fill-opacity: 0.7; stroke: #ffffff; stroke-opacity: 0.7; stroke-width: 0.4"/>
    </g>
   </g>
   <g id="matplotlib.axis_1">
    <g id="xtick_1">
     <g id="line2d_1">
      <defs>
       <path id="m3fd8cc4648" d="M 0 0 
L 0 3.5 
" style="stroke: #000000; stroke-width: 0.8"/>
      </defs>
      <g>
       <use xlink:href="#m3fd8cc4648" x="67.442349" y="199.814173" style="stroke: #000000; stroke-width: 0.8"/>
      </g>
     </g>
     <g id="text_1">
      <!-- 20 -->
      <g transform="translate(62.352349 212.892923) scale(0.08 -0.08)">
       <defs>
        <path id="DejaVuSans-32" d="M 1228 531 
L 3431 531 
L 3431 0 
L 469 0 
L 469 531 
Q 828 903 1448 1529 
Q 2069 2156 2228 2338 
Q 2531 2678 2651 2914 
Q 2772 3150 2772 3378 
Q 2772 3750 2511 3984 
Q 2250 4219 1831 4219 
Q 1534 4219 1204 4116 
Q 875 4013 500 3803 
L 500 4441 
Q 881 4594 1212 4672 
Q 1544 4750 1819 4750 
Q 2544 4750 2975 4387 
Q 3406 4025 3406 3419 
Q 3406 3131 3298 2873 
Q 3191 2616 2906 2266 
Q 2828 2175 2409 1742 
Q 1991 1309 1228 531 
z
" transform="scale(0.015625)"/>
        <path id="DejaVuSans-30" d="M 2034 4250 
Q 1547 4250 1301 3770 
Q 1056 3291 1056 2328 
Q 1056 1369 1301 889 
Q 1547 409 2034 409 
Q 2525 409 2770 889 
Q 3016 1369 3016 2328 
Q 3016 3291 2770 3770 
Q 2525 4250 2034 4250 
z
M 2034 4750 
Q 2819 4750 3233 4129 
Q 3647 3509 3647 2328 
Q 3647 1150 3233 529 
Q 2819 -91 2034 -91 
Q 1250 -91 836 529 
Q 422 1150 422 2328 
Q 422 3509 836 4129 
Q 1250 4750 2034 4750 
z
" transform="scale(0.015625)"/>
       </defs>
       <use xlink:href="#DejaVuSans-32"/>
       <use xlink:href="#DejaVuSans-30" x="63.623047"/>
      </g>
     </g>
    </g>
    <g id="xtick_2">
     <g id="line2d_2">
      <g>
       <use xlink:href="#m3fd8cc4648" x="118.797293" y="199.814173" style="stroke: #000000; stroke-width: 0.8"/>
      </g>
     </g>
     <g id="text_2">
      <!-- 40 -->
      <g transform="translate(113.707293 212.892923) scale(0.08 -0.08)">
       <defs>
        <path id="DejaVuSans-34" d="M 2419 4116 
L 825 1625 
L 2419 1625 
L 2419 4116 
z
M 2253 4666 
L 3047 4666 
L 3047 1625 
L 3713 1625 
L 3713 1100 
L 3047 1100 
L 3047 0 
L 2419 0 
L 2419 1100 
L 313 1100 
L 313 1709 
L 2253 4666 
z
" transform="scale(0.015625)"/>
       </defs>
       <use xlink:href="#DejaVuSans-34"/>
       <use xlink:href="#DejaVuSans-30" x="63.623047"/>
      </g>
     </g>
    </g>
    <g id="xtick_3">
     <g id="line2d_3">
      <g>
       <use xlink:href="#m3fd8cc4648" x="170.152237" y="199.814173" style="stroke: #000000; stroke-width: 0.8"/>
      </g>
     </g>
     <g id="text_3">
      <!-- 60 -->
      <g transform="translate(165.062237 212.892923) scale(0.08 -0.08)">
       <defs>
        <path id="DejaVuSans-36" d="M 2113 2584 
Q 1688 2584 1439 2293 
Q 1191 2003 1191 1497 
Q 1191 994 1439 701 
Q 1688 409 2113 409 
Q 2538 409 2786 701 
Q 3034 994 3034 1497 
Q 3034 2003 2786 2293 
Q 2538 2584 2113 2584 
z
M 3366 4563 
L 3366 3988 
Q 3128 4100 2886 4159 
Q 2644 4219 2406 4219 
Q 1781 4219 1451 3797 
Q 1122 3375 1075 2522 
Q 1259 2794 1537 2939 
Q 1816 3084 2150 3084 
Q 2853 3084 3261 2657 
Q 3669 2231 3669 1497 
Q 3669 778 3244 343 
Q 2819 -91 2113 -91 
Q 1303 -91 875 529 
Q 447 1150 447 2328 
Q 447 3434 972 4092 
Q 1497 4750 2381 4750 
Q 2619 4750 2861 4703 
Q 3103 4656 3366 4563 
z
" transform="scale(0.015625)"/>
       </defs>
       <use xlink:href="#DejaVuSans-36"/>
       <use xlink:href="#DejaVuSans-30" x="63.623047"/>
      </g>
     </g>
    </g>
    <g id="xtick_4">
     <g id="line2d_4">
      <g>
       <use xlink:href="#m3fd8cc4648" x="221.507181" y="199.814173" style="stroke: #000000; stroke-width: 0.8"/>
      </g>
     </g>
     <g id="text_4">
      <!-- 80 -->
      <g transform="translate(216.417181 212.892923) scale(0.08 -0.08)">
       <defs>
        <path id="DejaVuSans-38" d="M 2034 2216 
Q 1584 2216 1326 1975 
Q 1069 1734 1069 1313 
Q 1069 891 1326 650 
Q 1584 409 2034 409 
Q 2484 409 2743 651 
Q 3003 894 3003 1313 
Q 3003 1734 2745 1975 
Q 2488 2216 2034 2216 
z
M 1403 2484 
Q 997 2584 770 2862 
Q 544 3141 544 3541 
Q 544 4100 942 4425 
Q 1341 4750 2034 4750 
Q 2731 4750 3128 4425 
Q 3525 4100 3525 3541 
Q 3525 3141 3298 2862 
Q 3072 2584 2669 2484 
Q 3125 2378 3379 2068 
Q 3634 1759 3634 1313 
Q 3634 634 3220 271 
Q 2806 -91 2034 -91 
Q 1263 -91 848 271 
Q 434 634 434 1313 
Q 434 1759 690 2068 
Q 947 2378 1403 2484 
z
M 1172 3481 
Q 1172 3119 1398 2916 
Q 1625 2713 2034 2713 
Q 2441 2713 2670 2916 
Q 2900 3119 2900 3481 
Q 2900 3844 2670 4047 
Q 2441 4250 2034 4250 
Q 1625 4250 1398 4047 
Q 1172 3844 1172 3481 
z
" transform="scale(0.015625)"/>
       </defs>
       <use xlink:href="#DejaVuSans-38"/>
       <use xlink:href="#DejaVuSans-30" x="63.623047"/>
      </g>
     </g>
    </g>
    <g id="text_5">
     <!-- INITIAL_IMPAIRMENT (Max - Acute) -->
     <g transform="translate(72.990143 224.626673) scale(0.08 -0.08)">
      <defs>
       <path id="DejaVuSans-49" d="M 628 4666 
L 1259 4666 
L 1259 0 
L 628 0 
L 628 4666 
z
" transform="scale(0.015625)"/>
       <path id="DejaVuSans-4e" d="M 628 4666 
L 1478 4666 
L 3547 763 
L 3547 4666 
L 4159 4666 
L 4159 0 
L 3309 0 
L 1241 3903 
L 1241 0 
L 628 0 
L 628 4666 
z
" transform="scale(0.015625)"/>
       <path id="DejaVuSans-54" d="M -19 4666 
L 3928 4666 
L 3928 4134 
L 2272 4134 
L 2272 0 
L 1638 0 
L 1638 4134 
L -19 4134 
L -19 4666 
z
" transform="scale(0.015625)"/>
       <path id="DejaVuSans-41" d="M 2188 4044 
L 1331 1722 
L 3047 1722 
L 2188 4044 
z
M 1831 4666 
L 2547 4666 
L 4325 0 
L 3669 0 
L 3244 1197 
L 1141 1197 
L 716 0 
L 50 0 
L 1831 4666 
z
" transform="scale(0.015625)"/>
       <path id="DejaVuSans-4c" d="M 628 4666 
L 1259 4666 
L 1259 531 
L 3531 531 
L 3531 0 
L 628 0 
L 628 4666 
z
" transform="scale(0.015625)"/>
       <path id="DejaVuSans-5f" d="M 3263 -1063 
L 3263 -1509 
L -63 -1509 
L -63 -1063 
L 3263 -1063 
z
" transform="scale(0.015625)"/>
       <path id="DejaVuSans-4d" d="M 628 4666 
L 1569 4666 
L 2759 1491 
L 3956 4666 
L 4897 4666 
L 4897 0 
L 4281 0 
L 4281 4097 
L 3078 897 
L 2444 897 
L 1241 4097 
L 1241 0 
L 628 0 
L 628 4666 
z
" transform="scale(0.015625)"/>
       <path id="DejaVuSans-50" d="M 1259 4147 
L 1259 2394 
L 2053 2394 
Q 2494 2394 2734 2622 
Q 2975 2850 2975 3272 
Q 2975 3691 2734 3919 
Q 2494 4147 2053 4147 
L 1259 4147 
z
M 628 4666 
L 2053 4666 
Q 2838 4666 3239 4311 
Q 3641 3956 3641 3272 
Q 3641 2581 3239 2228 
Q 2838 1875 2053 1875 
L 1259 1875 
L 1259 0 
L 628 0 
L 628 4666 
z
" transform="scale(0.015625)"/>
       <path id="DejaVuSans-52" d="M 2841 2188 
Q 3044 2119 3236 1894 
Q 3428 1669 3622 1275 
L 4263 0 
L 3584 0 
L 2988 1197 
Q 2756 1666 2539 1819 
Q 2322 1972 1947 1972 
L 1259 1972 
L 1259 0 
L 628 0 
L 628 4666 
L 2053 4666 
Q 2853 4666 3247 4331 
Q 3641 3997 3641 3322 
Q 3641 2881 3436 2590 
Q 3231 2300 2841 2188 
z
M 1259 4147 
L 1259 2491 
L 2053 2491 
Q 2509 2491 2742 2702 
Q 2975 2913 2975 3322 
Q 2975 3731 2742 3939 
Q 2509 4147 2053 4147 
L 1259 4147 
z
" transform="scale(0.015625)"/>
       <path id="DejaVuSans-45" d="M 628 4666 
L 3578 4666 
L 3578 4134 
L 1259 4134 
L 1259 2753 
L 3481 2753 
L 3481 2222 
L 1259 2222 
L 1259 531 
L 3634 531 
L 3634 0 
L 628 0 
L 628 4666 
z
" transform="scale(0.015625)"/>
       <path id="DejaVuSans-20" transform="scale(0.015625)"/>
       <path id="DejaVuSans-28" d="M 1984 4856 
Q 1566 4138 1362 3434 
Q 1159 2731 1159 2009 
Q 1159 1288 1364 580 
Q 1569 -128 1984 -844 
L 1484 -844 
Q 1016 -109 783 600 
Q 550 1309 550 2009 
Q 550 2706 781 3412 
Q 1013 4119 1484 4856 
L 1984 4856 
z
" transform="scale(0.015625)"/>
       <path id="DejaVuSans-61" d="M 2194 1759 
Q 1497 1759 1228 1600 
Q 959 1441 959 1056 
Q 959 750 1161 570 
Q 1363 391 1709 391 
Q 2188 391 2477 730 
Q 2766 1069 2766 1631 
L 2766 1759 
L 2194 1759 
z
M 3341 1997 
L 3341 0 
L 2766 0 
L 2766 531 
Q 2569 213 2275 61 
Q 1981 -91 1556 -91 
Q 1019 -91 701 211 
Q 384 513 384 1019 
Q 384 1609 779 1909 
Q 1175 2209 1959 2209 
L 2766 2209 
L 2766 2266 
Q 2766 2663 2505 2880 
Q 2244 3097 1772 3097 
Q 1472 3097 1187 3025 
Q 903 2953 641 2809 
L 641 3341 
Q 956 3463 1253 3523 
Q 1550 3584 1831 3584 
Q 2591 3584 2966 3190 
Q 3341 2797 3341 1997 
z
" transform="scale(0.015625)"/>
       <path id="DejaVuSans-78" d="M 3513 3500 
L 2247 1797 
L 3578 0 
L 2900 0 
L 1881 1375 
L 863 0 
L 184 0 
L 1544 1831 
L 300 3500 
L 978 3500 
L 1906 2253 
L 2834 3500 
L 3513 3500 
z
" transform="scale(0.015625)"/>
       <path id="DejaVuSans-2d" d="M 313 2009 
L 1997 2009 
L 1997 1497 
L 313 1497 
L 313 2009 
z
" transform="scale(0.015625)"/>
       <path id="DejaVuSans-63" d="M 3122 3366 
L 3122 2828 
Q 2878 2963 2633 3030 
Q 2388 3097 2138 3097 
Q 1578 3097 1268 2742 
Q 959 2388 959 1747 
Q 959 1106 1268 751 
Q 1578 397 2138 397 
Q 2388 397 2633 464 
Q 2878 531 3122 666 
L 3122 134 
Q 2881 22 2623 -34 
Q 2366 -91 2075 -91 
Q 1284 -91 818 406 
Q 353 903 353 1747 
Q 353 2603 823 3093 
Q 1294 3584 2113 3584 
Q 2378 3584 2631 3529 
Q 2884 3475 3122 3366 
z
" transform="scale(0.015625)"/>
       <path id="DejaVuSans-75" d="M 544 1381 
L 544 3500 
L 1119 3500 
L 1119 1403 
Q 1119 906 1312 657 
Q 1506 409 1894 409 
Q 2359 409 2629 706 
Q 2900 1003 2900 1516 
L 2900 3500 
L 3475 3500 
L 3475 0 
L 2900 0 
L 2900 538 
Q 2691 219 2414 64 
Q 2138 -91 1772 -91 
Q 1169 -91 856 284 
Q 544 659 544 1381 
z
M 1991 3584 
L 1991 3584 
z
" transform="scale(0.015625)"/>
       <path id="DejaVuSans-74" d="M 1172 4494 
L 1172 3500 
L 2356 3500 
L 2356 3053 
L 1172 3053 
L 1172 1153 
Q 1172 725 1289 603 
Q 1406 481 1766 481 
L 2356 481 
L 2356 0 
L 1766 0 
Q 1100 0 847 248 
Q 594 497 594 1153 
L 594 3053 
L 172 3053 
L 172 3500 
L 594 3500 
L 594 4494 
L 1172 4494 
z
" transform="scale(0.015625)"/>
       <path id="DejaVuSans-65" d="M 3597 1894 
L 3597 1613 
L 953 1613 
Q 991 1019 1311 708 
Q 1631 397 2203 397 
Q 2534 397 2845 478 
Q 3156 559 3463 722 
L 3463 178 
Q 3153 47 2828 -22 
Q 2503 -91 2169 -91 
Q 1331 -91 842 396 
Q 353 884 353 1716 
Q 353 2575 817 3079 
Q 1281 3584 2069 3584 
Q 2775 3584 3186 3129 
Q 3597 2675 3597 1894 
z
M 3022 2063 
Q 3016 2534 2758 2815 
Q 2500 3097 2075 3097 
Q 1594 3097 1305 2825 
Q 1016 2553 972 2059 
L 3022 2063 
z
" transform="scale(0.015625)"/>
       <path id="DejaVuSans-29" d="M 513 4856 
L 1013 4856 
Q 1481 4119 1714 3412 
Q 1947 2706 1947 2009 
Q 1947 1309 1714 600 
Q 1481 -109 1013 -844 
L 513 -844 
Q 928 -128 1133 580 
Q 1338 1288 1338 2009 
Q 1338 2731 1133 3434 
Q 928 4138 513 4856 
z
" transform="scale(0.015625)"/>
      </defs>
      <use xlink:href="#DejaVuSans-49"/>
      <use xlink:href="#DejaVuSans-4e" x="29.492188"/>
      <use xlink:href="#DejaVuSans-49" x="104.296875"/>
      <use xlink:href="#DejaVuSans-54" x="133.789062"/>
      <use xlink:href="#DejaVuSans-49" x="194.873047"/>
      <use xlink:href="#DejaVuSans-41" x="224.365234"/>
      <use xlink:href="#DejaVuSans-4c" x="292.773438"/>
      <use xlink:href="#DejaVuSans-5f" x="348.486328"/>
      <use xlink:href="#DejaVuSans-49" x="398.486328"/>
      <use xlink:href="#DejaVuSans-4d" x="427.978516"/>
      <use xlink:href="#DejaVuSans-50" x="514.257812"/>
      <use xlink:href="#DejaVuSans-41" x="568.185547"/>
      <use xlink:href="#DejaVuSans-49" x="636.59375"/>
      <use xlink:href="#DejaVuSans-52" x="666.085938"/>
      <use xlink:href="#DejaVuSans-4d" x="735.568359"/>
      <use xlink:href="#DejaVuSans-45" x="821.847656"/>
      <use xlink:href="#DejaVuSans-4e" x="885.03125"/>
      <use xlink:href="#DejaVuSans-54" x="959.835938"/>
      <use xlink:href="#DejaVuSans-20" x="1020.919922"/>
      <use xlink:href="#DejaVuSans-28" x="1052.707031"/>
      <use xlink:href="#DejaVuSans-4d" x="1091.720703"/>
      <use xlink:href="#DejaVuSans-61" x="1178"/>
      <use xlink:href="#DejaVuSans-78" x="1239.279297"/>
      <use xlink:href="#DejaVuSans-20" x="1298.458984"/>
      <use xlink:href="#DejaVuSans-2d" x="1330.246094"/>
      <use xlink:href="#DejaVuSans-20" x="1366.330078"/>
      <use xlink:href="#DejaVuSans-41" x="1398.117188"/>
      <use xlink:href="#DejaVuSans-63" x="1464.775391"/>
      <use xlink:href="#DejaVuSans-75" x="1519.755859"/>
      <use xlink:href="#DejaVuSans-74" x="1583.134766"/>
      <use xlink:href="#DejaVuSans-65" x="1622.34375"/>
      <use xlink:href="#DejaVuSans-29" x="1683.867188"/>
     </g>
    </g>
   </g>
   <g id="matplotlib.axis_2">
    <g id="ytick_1">
     <g id="line2d_5">
      <defs>
       <path id="m34ba43d0f1" d="M 0 0 
L -3.5 0 
" style="stroke: #000000; stroke-width: 0.8"/>
      </defs>
      <g>
       <use xlink:href="#m34ba43d0f1" x="43.04875" y="196.474565" style="stroke: #000000; stroke-width: 0.8"/>
      </g>
     </g>
     <g id="text_6">
      <!-- −40 -->
      <g transform="translate(19.165 199.51394) scale(0.08 -0.08)">
       <defs>
        <path id="DejaVuSans-2212" d="M 678 2272 
L 4684 2272 
L 4684 1741 
L 678 1741 
L 678 2272 
z
" transform="scale(0.015625)"/>
       </defs>
       <use xlink:href="#DejaVuSans-2212"/>
       <use xlink:href="#DejaVuSans-34" x="83.789062"/>
       <use xlink:href="#DejaVuSans-30" x="147.412109"/>
      </g>
     </g>
    </g>
    <g id="ytick_2">
     <g id="line2d_6">
      <g>
       <use xlink:href="#m34ba43d0f1" x="43.04875" y="160.37069" style="stroke: #000000; stroke-width: 0.8"/>
      </g>
     </g>
     <g id="text_7">
      <!-- −20 -->
      <g transform="translate(19.165 163.410065) scale(0.08 -0.08)">
       <use xlink:href="#DejaVuSans-2212"/>
       <use xlink:href="#DejaVuSans-32" x="83.789062"/>
       <use xlink:href="#DejaVuSans-30" x="147.412109"/>
      </g>
     </g>
    </g>
    <g id="ytick_3">
     <g id="line2d_7">
      <g>
       <use xlink:href="#m34ba43d0f1" x="43.04875" y="124.266815" style="stroke: #000000; stroke-width: 0.8"/>
      </g>
     </g>
     <g id="text_8">
      <!-- 0 -->
      <g transform="translate(30.95875 127.30619) scale(0.08 -0.08)">
       <use xlink:href="#DejaVuSans-30"/>
      </g>
     </g>
    </g>
    <g id="ytick_4">
     <g id="line2d_8">
      <g>
       <use xlink:href="#m34ba43d0f1" x="43.04875" y="88.16294" style="stroke: #000000; stroke-width: 0.8"/>
      </g>
     </g>
     <g id="text_9">
      <!-- 20 -->
      <g transform="translate(25.86875 91.202315) scale(0.08 -0.08)">
       <use xlink:href="#DejaVuSans-32"/>
       <use xlink:href="#DejaVuSans-30" x="63.623047"/>
      </g>
     </g>
    </g>
    <g id="ytick_5">
     <g id="line2d_9">
      <g>
       <use xlink:href="#m34ba43d0f1" x="43.04875" y="52.059065" style="stroke: #000000; stroke-width: 0.8"/>
      </g>
     </g>
     <g id="text_10">
      <!-- 40 -->
      <g transform="translate(25.86875 55.09844) scale(0.08 -0.08)">
       <use xlink:href="#DejaVuSans-34"/>
       <use xlink:href="#DejaVuSans-30" x="63.623047"/>
      </g>
     </g>
    </g>
    <g id="ytick_6">
     <g id="line2d_10">
      <g>
       <use xlink:href="#m34ba43d0f1" x="43.04875" y="15.95519" style="stroke: #000000; stroke-width: 0.8"/>
      </g>
     </g>
     <g id="text_11">
      <!-- 60 -->
      <g transform="translate(25.86875 18.994565) scale(0.08 -0.08)">
       <use xlink:href="#DejaVuSans-36"/>
       <use xlink:href="#DejaVuSans-30" x="63.623047"/>
      </g>
     </g>
    </g>
    <g id="text_12">
     <!-- CHANGE_OBSERVED (Chronic - Acute) -->
     <g transform="translate(13.27875 179.440837) rotate(-90) scale(0.08 -0.08)">
      <defs>
       <path id="DejaVuSans-43" d="M 4122 4306 
L 4122 3641 
Q 3803 3938 3442 4084 
Q 3081 4231 2675 4231 
Q 1875 4231 1450 3742 
Q 1025 3253 1025 2328 
Q 1025 1406 1450 917 
Q 1875 428 2675 428 
Q 3081 428 3442 575 
Q 3803 722 4122 1019 
L 4122 359 
Q 3791 134 3420 21 
Q 3050 -91 2638 -91 
Q 1578 -91 968 557 
Q 359 1206 359 2328 
Q 359 3453 968 4101 
Q 1578 4750 2638 4750 
Q 3056 4750 3426 4639 
Q 3797 4528 4122 4306 
z
" transform="scale(0.015625)"/>
       <path id="DejaVuSans-48" d="M 628 4666 
L 1259 4666 
L 1259 2753 
L 3553 2753 
L 3553 4666 
L 4184 4666 
L 4184 0 
L 3553 0 
L 3553 2222 
L 1259 2222 
L 1259 0 
L 628 0 
L 628 4666 
z
" transform="scale(0.015625)"/>
       <path id="DejaVuSans-47" d="M 3809 666 
L 3809 1919 
L 2778 1919 
L 2778 2438 
L 4434 2438 
L 4434 434 
Q 4069 175 3628 42 
Q 3188 -91 2688 -91 
Q 1594 -91 976 548 
Q 359 1188 359 2328 
Q 359 3472 976 4111 
Q 1594 4750 2688 4750 
Q 3144 4750 3555 4637 
Q 3966 4525 4313 4306 
L 4313 3634 
Q 3963 3931 3569 4081 
Q 3175 4231 2741 4231 
Q 1884 4231 1454 3753 
Q 1025 3275 1025 2328 
Q 1025 1384 1454 906 
Q 1884 428 2741 428 
Q 3075 428 3337 486 
Q 3600 544 3809 666 
z
" transform="scale(0.015625)"/>
       <path id="DejaVuSans-4f" d="M 2522 4238 
Q 1834 4238 1429 3725 
Q 1025 3213 1025 2328 
Q 1025 1447 1429 934 
Q 1834 422 2522 422 
Q 3209 422 3611 934 
Q 4013 1447 4013 2328 
Q 4013 3213 3611 3725 
Q 3209 4238 2522 4238 
z
M 2522 4750 
Q 3503 4750 4090 4092 
Q 4678 3434 4678 2328 
Q 4678 1225 4090 567 
Q 3503 -91 2522 -91 
Q 1538 -91 948 565 
Q 359 1222 359 2328 
Q 359 3434 948 4092 
Q 1538 4750 2522 4750 
z
" transform="scale(0.015625)"/>
       <path id="DejaVuSans-42" d="M 1259 2228 
L 1259 519 
L 2272 519 
Q 2781 519 3026 730 
Q 3272 941 3272 1375 
Q 3272 1813 3026 2020 
Q 2781 2228 2272 2228 
L 1259 2228 
z
M 1259 4147 
L 1259 2741 
L 2194 2741 
Q 2656 2741 2882 2914 
Q 3109 3088 3109 3444 
Q 3109 3797 2882 3972 
Q 2656 4147 2194 4147 
L 1259 4147 
z
M 628 4666 
L 2241 4666 
Q 2963 4666 3353 4366 
Q 3744 4066 3744 3513 
Q 3744 3084 3544 2831 
Q 3344 2578 2956 2516 
Q 3422 2416 3680 2098 
Q 3938 1781 3938 1306 
Q 3938 681 3513 340 
Q 3088 0 2303 0 
L 628 0 
L 628 4666 
z
" transform="scale(0.015625)"/>
       <path id="DejaVuSans-53" d="M 3425 4513 
L 3425 3897 
Q 3066 4069 2747 4153 
Q 2428 4238 2131 4238 
Q 1616 4238 1336 4038 
Q 1056 3838 1056 3469 
Q 1056 3159 1242 3001 
Q 1428 2844 1947 2747 
L 2328 2669 
Q 3034 2534 3370 2195 
Q 3706 1856 3706 1288 
Q 3706 609 3251 259 
Q 2797 -91 1919 -91 
Q 1588 -91 1214 -16 
Q 841 59 441 206 
L 441 856 
Q 825 641 1194 531 
Q 1563 422 1919 422 
Q 2459 422 2753 634 
Q 3047 847 3047 1241 
Q 3047 1584 2836 1778 
Q 2625 1972 2144 2069 
L 1759 2144 
Q 1053 2284 737 2584 
Q 422 2884 422 3419 
Q 422 4038 858 4394 
Q 1294 4750 2059 4750 
Q 2388 4750 2728 4690 
Q 3069 4631 3425 4513 
z
" transform="scale(0.015625)"/>
       <path id="DejaVuSans-56" d="M 1831 0 
L 50 4666 
L 709 4666 
L 2188 738 
L 3669 4666 
L 4325 4666 
L 2547 0 
L 1831 0 
z
" transform="scale(0.015625)"/>
       <path id="DejaVuSans-44" d="M 1259 4147 
L 1259 519 
L 2022 519 
Q 2988 519 3436 956 
Q 3884 1394 3884 2338 
Q 3884 3275 3436 3711 
Q 2988 4147 2022 4147 
L 1259 4147 
z
M 628 4666 
L 1925 4666 
Q 3281 4666 3915 4102 
Q 4550 3538 4550 2338 
Q 4550 1131 3912 565 
Q 3275 0 1925 0 
L 628 0 
L 628 4666 
z
" transform="scale(0.015625)"/>
       <path id="DejaVuSans-68" d="M 3513 2113 
L 3513 0 
L 2938 0 
L 2938 2094 
Q 2938 2591 2744 2837 
Q 2550 3084 2163 3084 
Q 1697 3084 1428 2787 
Q 1159 2491 1159 1978 
L 1159 0 
L 581 0 
L 581 4863 
L 1159 4863 
L 1159 2956 
Q 1366 3272 1645 3428 
Q 1925 3584 2291 3584 
Q 2894 3584 3203 3211 
Q 3513 2838 3513 2113 
z
" transform="scale(0.015625)"/>
       <path id="DejaVuSans-72" d="M 2631 2963 
Q 2534 3019 2420 3045 
Q 2306 3072 2169 3072 
Q 1681 3072 1420 2755 
Q 1159 2438 1159 1844 
L 1159 0 
L 581 0 
L 581 3500 
L 1159 3500 
L 1159 2956 
Q 1341 3275 1631 3429 
Q 1922 3584 2338 3584 
Q 2397 3584 2469 3576 
Q 2541 3569 2628 3553 
L 2631 2963 
z
" transform="scale(0.015625)"/>
       <path id="DejaVuSans-6f" d="M 1959 3097 
Q 1497 3097 1228 2736 
Q 959 2375 959 1747 
Q 959 1119 1226 758 
Q 1494 397 1959 397 
Q 2419 397 2687 759 
Q 2956 1122 2956 1747 
Q 2956 2369 2687 2733 
Q 2419 3097 1959 3097 
z
M 1959 3584 
Q 2709 3584 3137 3096 
Q 3566 2609 3566 1747 
Q 3566 888 3137 398 
Q 2709 -91 1959 -91 
Q 1206 -91 779 398 
Q 353 888 353 1747 
Q 353 2609 779 3096 
Q 1206 3584 1959 3584 
z
" transform="scale(0.015625)"/>
       <path id="DejaVuSans-6e" d="M 3513 2113 
L 3513 0 
L 2938 0 
L 2938 2094 
Q 2938 2591 2744 2837 
Q 2550 3084 2163 3084 
Q 1697 3084 1428 2787 
Q 1159 2491 1159 1978 
L 1159 0 
L 581 0 
L 581 3500 
L 1159 3500 
L 1159 2956 
Q 1366 3272 1645 3428 
Q 1925 3584 2291 3584 
Q 2894 3584 3203 3211 
Q 3513 2838 3513 2113 
z
" transform="scale(0.015625)"/>
       <path id="DejaVuSans-69" d="M 603 3500 
L 1178 3500 
L 1178 0 
L 603 0 
L 603 3500 
z
M 603 4863 
L 1178 4863 
L 1178 4134 
L 603 4134 
L 603 4863 
z
" transform="scale(0.015625)"/>
      </defs>
      <use xlink:href="#DejaVuSans-43"/>
      <use xlink:href="#DejaVuSans-48" x="69.824219"/>
      <use xlink:href="#DejaVuSans-41" x="145.019531"/>
      <use xlink:href="#DejaVuSans-4e" x="213.427734"/>
      <use xlink:href="#DejaVuSans-47" x="288.232422"/>
      <use xlink:href="#DejaVuSans-45" x="365.722656"/>
      <use xlink:href="#DejaVuSans-5f" x="428.90625"/>
      <use xlink:href="#DejaVuSans-4f" x="478.90625"/>
      <use xlink:href="#DejaVuSans-42" x="557.617188"/>
      <use xlink:href="#DejaVuSans-53" x="624.470703"/>
      <use xlink:href="#DejaVuSans-45" x="687.947266"/>
      <use xlink:href="#DejaVuSans-52" x="751.130859"/>
      <use xlink:href="#DejaVuSans-56" x="815.113281"/>
      <use xlink:href="#DejaVuSans-45" x="883.521484"/>
      <use xlink:href="#DejaVuSans-44" x="946.705078"/>
      <use xlink:href="#DejaVuSans-20" x="1023.707031"/>
      <use xlink:href="#DejaVuSans-28" x="1055.494141"/>
      <use xlink:href="#DejaVuSans-43" x="1094.507812"/>
      <use xlink:href="#DejaVuSans-68" x="1164.332031"/>
      <use xlink:href="#DejaVuSans-72" x="1227.710938"/>
      <use xlink:href="#DejaVuSans-6f" x="1266.574219"/>
      <use xlink:href="#DejaVuSans-6e" x="1327.755859"/>
      <use xlink:href="#DejaVuSans-69" x="1391.134766"/>
      <use xlink:href="#DejaVuSans-63" x="1418.917969"/>
      <use xlink:href="#DejaVuSans-20" x="1473.898438"/>
      <use xlink:href="#DejaVuSans-2d" x="1505.685547"/>
      <use xlink:href="#DejaVuSans-20" x="1541.769531"/>
      <use xlink:href="#DejaVuSans-41" x="1573.556641"/>
      <use xlink:href="#DejaVuSans-63" x="1640.214844"/>
      <use xlink:href="#DejaVuSans-75" x="1695.195312"/>
      <use xlink:href="#DejaVuSans-74" x="1758.574219"/>
      <use xlink:href="#DejaVuSans-65" x="1797.783203"/>
      <use xlink:href="#DejaVuSans-29" x="1859.306641"/>
     </g>
    </g>
   </g>
   <g id="line2d_11"/>
   <g id="line2d_12"/>
   <g id="line2d_13">
    <path d="M 52.035865 133.738642 
L 53.851444 133.287069 
L 55.667023 132.835496 
L 57.482602 132.383923 
L 59.298181 131.93235 
L 61.113759 131.480777 
L 62.929338 131.029203 
L 64.744917 130.57763 
L 66.560496 130.126057 
L 68.376075 129.674484 
L 70.191654 129.222911 
L 72.007232 128.771338 
L 73.822811 128.319765 
L 75.63839 127.868191 
L 77.453969 127.416618 
L 79.269548 126.965045 
L 81.085127 126.513472 
L 82.900705 126.061899 
L 84.716284 125.610326 
L 86.531863 125.158752 
L 88.347442 124.707179 
L 90.163021 124.255606 
L 91.9786 123.804033 
L 93.794179 123.35246 
L 95.609757 122.900887 
L 97.425336 122.449313 
L 99.240915 121.99774 
L 101.056494 121.546167 
L 102.872073 121.094594 
L 104.687652 120.643021 
L 106.50323 120.191448 
L 108.318809 119.739874 
L 110.134388 119.288301 
L 111.949967 118.836728 
L 113.765546 118.385155 
L 115.581125 117.933582 
L 117.396703 117.482009 
L 119.212282 117.030436 
L 121.027861 116.578862 
L 122.84344 116.127289 
L 124.659019 115.675716 
L 126.474598 115.224143 
L 128.290176 114.77257 
L 130.105755 114.320997 
L 131.921334 113.869423 
L 133.736913 113.41785 
L 135.552492 112.966277 
L 137.368071 112.514704 
L 139.183649 112.063131 
L 140.999228 111.611558 
L 142.814807 111.159984 
L 144.630386 110.708411 
L 146.445965 110.256838 
L 148.261544 109.805265 
L 150.077122 109.353692 
L 151.892701 108.902119 
L 153.70828 108.450545 
L 155.523859 107.998972 
L 157.339438 107.547399 
L 159.155017 107.095826 
L 160.970596 106.644253 
L 162.786174 106.19268 
L 164.601753 105.741107 
L 166.417332 105.289533 
L 168.232911 104.83796 
L 170.04849 104.386387 
L 171.864069 103.934814 
L 173.679647 103.483241 
L 175.495226 103.031668 
L 177.310805 102.580094 
L 179.126384 102.128521 
L 180.941963 101.676948 
L 182.757542 101.225375 
L 184.57312 100.773802 
L 186.388699 100.322229 
L 188.204278 99.870655 
L 190.019857 99.419082 
L 191.835436 98.967509 
L 193.651015 98.515936 
L 195.466593 98.064363 
L 197.282172 97.61279 
L 199.097751 97.161216 
L 200.91333 96.709643 
L 202.728909 96.25807 
L 204.544488 95.806497 
L 206.360066 95.354924 
L 208.175645 94.903351 
L 209.991224 94.451778 
L 211.806803 94.000204 
L 213.622382 93.548631 
L 215.437961 93.097058 
L 217.253539 92.645485 
L 219.069118 92.193912 
L 220.884697 91.742339 
L 222.700276 91.290765 
L 224.515855 90.839192 
L 226.331434 90.387619 
L 228.147013 89.936046 
L 229.962591 89.484473 
L 231.77817 89.0329 
" clip-path="url(#p0b68903017)" style="fill: none; stroke: #000000; stroke-width: 0.5; stroke-linecap: square"/>
   </g>
   <g id="line2d_14">
    <path d="M 52.035865 124.988892 
L 53.851444 124.095413 
L 55.667023 123.201933 
L 57.482602 122.308453 
L 59.298181 121.414973 
L 61.113759 120.521494 
L 62.929338 119.628014 
L 64.744917 118.734534 
L 66.560496 117.841054 
L 68.376075 116.947575 
L 70.191654 116.054095 
L 72.007232 115.160615 
L 73.822811 114.267135 
L 75.63839 113.373656 
L 77.453969 112.480176 
L 79.269548 111.586696 
L 81.085127 110.693216 
L 82.900705 109.799737 
L 84.716284 108.906257 
L 86.531863 108.012777 
L 88.347442 107.119298 
L 90.163021 106.225818 
L 91.9786 105.332338 
L 93.794179 104.438858 
L 95.609757 103.545379 
L 97.425336 102.651899 
L 99.240915 101.758419 
L 101.056494 100.864939 
L 102.872073 99.97146 
L 104.687652 99.07798 
L 106.50323 98.1845 
L 108.318809 97.29102 
L 110.134388 96.397541 
L 111.949967 95.504061 
L 113.765546 94.610581 
L 115.581125 93.717102 
L 117.396703 92.823622 
L 119.212282 91.930142 
L 121.027861 91.036662 
L 122.84344 90.143183 
L 124.659019 89.249703 
L 126.474598 88.356223 
L 128.290176 87.462743 
L 130.105755 86.569264 
L 131.921334 85.675784 
L 133.736913 84.782304 
L 135.552492 83.888824 
L 137.368071 82.995345 
L 139.183649 82.101865 
L 140.999228 81.208385 
L 142.814807 80.314905 
L 144.630386 79.421426 
L 146.445965 78.527946 
L 148.261544 77.634466 
L 150.077122 76.740987 
L 151.892701 75.847507 
L 153.70828 74.954027 
L 155.523859 74.060547 
L 157.339438 73.167068 
L 159.155017 72.273588 
L 160.970596 71.380108 
L 162.786174 70.486628 
L 164.601753 69.593149 
L 166.417332 68.699669 
L 168.232911 67.806189 
L 170.04849 66.912709 
L 171.864069 66.01923 
L 173.679647 65.12575 
L 175.495226 64.23227 
L 177.310805 63.338791 
L 179.126384 62.445311 
L 180.941963 61.551831 
L 182.757542 60.658351 
L 184.57312 59.764872 
L 186.388699 58.871392 
L 188.204278 57.977912 
L 190.019857 57.084432 
L 191.835436 56.190953 
L 193.651015 55.297473 
L 195.466593 54.403993 
L 197.282172 53.510513 
L 199.097751 52.617034 
L 200.91333 51.723554 
L 202.728909 50.830074 
L 204.544488 49.936594 
L 206.360066 49.043115 
L 208.175645 48.149635 
L 209.991224 47.256155 
L 211.806803 46.362676 
L 213.622382 45.469196 
L 215.437961 44.575716 
L 217.253539 43.682236 
L 219.069118 42.788757 
L 220.884697 41.895277 
L 222.700276 41.001797 
L 224.515855 40.108317 
L 226.331434 39.214838 
L 228.147013 38.321358 
L 229.962591 37.427878 
L 231.77817 36.534398 
" clip-path="url(#p0b68903017)" style="fill: none; stroke-dasharray: 1.85,0.8; stroke-dashoffset: 0; stroke: #000000; stroke-width: 0.5"/>
   </g>
   <g id="patch_3">
    <path d="M 43.04875 199.814173 
L 43.04875 7.2 
" style="fill: none; stroke: #000000; stroke-width: 0.8; stroke-linejoin: miter; stroke-linecap: square"/>
   </g>
   <g id="patch_4">
    <path d="M 43.04875 199.814173 
L 240.765285 199.814173 
" style="fill: none; stroke: #000000; stroke-width: 0.8; stroke-linejoin: miter; stroke-linecap: square"/>
   </g>
   <g id="legend_1">
    <g id="line2d_15">
     <defs>
      <path id="m7e622d4a28" d="M 0 1.25 
C 0.331504 1.25 0.649475 1.118292 0.883883 0.883883 
C 1.118292 0.649475 1.25 0.331504 1.25 0 
C 1.25 -0.331504 1.118292 -0.649475 0.883883 -0.883883 
C 0.649475 -1.118292 0.331504 -1.25 0 -1.25 
C -0.331504 -1.25 -0.649475 -1.118292 -0.883883 -0.883883 
C -1.118292 -0.649475 -1.25 -0.331504 -1.25 0 
C -1.25 0.331504 -1.118292 0.649475 -0.883883 0.883883 
C -0.649475 1.118292 -0.331504 1.25 0 1.25 
z
" style="stroke: #ffffff; stroke-opacity: 0.7; stroke-width: 0.4"/>
     </defs>
     <g>
      <use xlink:href="#m7e622d4a28" x="269.651112" y="20.298438" style="fill: #0000ff; fill-opacity: 0.7; stroke: #ffffff; stroke-opacity: 0.7; stroke-width: 0.4"/>
     </g>
    </g>
    <g id="text_13">
     <!-- PRR -->
     <g transform="translate(287.651112 23.798438) scale(0.1 -0.1)">
      <use xlink:href="#DejaVuSans-50"/>
      <use xlink:href="#DejaVuSans-52" x="60.302734"/>
      <use xlink:href="#DejaVuSans-52" x="129.785156"/>
     </g>
    </g>
    <g id="line2d_16">
     <defs>
      <path id="m6937da1fbe" d="M 0 1.25 
C 0.331504 1.25 0.649475 1.118292 0.883883 0.883883 
C 1.118292 0.649475 1.25 0.331504 1.25 0 
C 1.25 -0.331504 1.118292 -0.649475 0.883883 -0.883883 
C 0.649475 -1.118292 0.331504 -1.25 0 -1.25 
C -0.331504 -1.25 -0.649475 -1.118292 -0.883883 -0.883883 
C -1.118292 -0.649475 -1.25 -0.331504 -1.25 0 
C -1.25 0.331504 -1.118292 0.649475 -0.883883 0.883883 
C -0.649475 1.118292 -0.331504 1.25 0 1.25 
z
" style="stroke: #ffffff; stroke-opacity: 0.7; stroke-width: 0.4"/>
     </defs>
     <g>
      <use xlink:href="#m6937da1fbe" x="269.651112" y="34.976562" style="fill: #008000; fill-opacity: 0.7; stroke: #ffffff; stroke-opacity: 0.7; stroke-width: 0.4"/>
     </g>
    </g>
    <g id="text_14">
     <!-- HRR -->
     <g transform="translate(287.651112 38.476562) scale(0.1 -0.1)">
      <use xlink:href="#DejaVuSans-48"/>
      <use xlink:href="#DejaVuSans-52" x="75.195312"/>
      <use xlink:href="#DejaVuSans-52" x="144.677734"/>
     </g>
    </g>
    <g id="line2d_17">
     <path d="M 259.651112 49.654687 
L 269.651112 49.654687 
L 279.651112 49.654687 
" style="fill: none; stroke: #000000; stroke-width: 0.5; stroke-linecap: square"/>
    </g>
    <g id="text_15">
     <!-- Linear fit (HRR): y = 0.35x + -10.20 -->
     <g transform="translate(287.651112 53.154687) scale(0.1 -0.1)">
      <defs>
       <path id="DejaVuSans-66" d="M 2375 4863 
L 2375 4384 
L 1825 4384 
Q 1516 4384 1395 4259 
Q 1275 4134 1275 3809 
L 1275 3500 
L 2222 3500 
L 2222 3053 
L 1275 3053 
L 1275 0 
L 697 0 
L 697 3053 
L 147 3053 
L 147 3500 
L 697 3500 
L 697 3744 
Q 697 4328 969 4595 
Q 1241 4863 1831 4863 
L 2375 4863 
z
" transform="scale(0.015625)"/>
       <path id="DejaVuSans-3a" d="M 750 794 
L 1409 794 
L 1409 0 
L 750 0 
L 750 794 
z
M 750 3309 
L 1409 3309 
L 1409 2516 
L 750 2516 
L 750 3309 
z
" transform="scale(0.015625)"/>
       <path id="DejaVuSans-79" d="M 2059 -325 
Q 1816 -950 1584 -1140 
Q 1353 -1331 966 -1331 
L 506 -1331 
L 506 -850 
L 844 -850 
Q 1081 -850 1212 -737 
Q 1344 -625 1503 -206 
L 1606 56 
L 191 3500 
L 800 3500 
L 1894 763 
L 2988 3500 
L 3597 3500 
L 2059 -325 
z
" transform="scale(0.015625)"/>
       <path id="DejaVuSans-3d" d="M 678 2906 
L 4684 2906 
L 4684 2381 
L 678 2381 
L 678 2906 
z
M 678 1631 
L 4684 1631 
L 4684 1100 
L 678 1100 
L 678 1631 
z
" transform="scale(0.015625)"/>
       <path id="DejaVuSans-2e" d="M 684 794 
L 1344 794 
L 1344 0 
L 684 0 
L 684 794 
z
" transform="scale(0.015625)"/>
       <path id="DejaVuSans-33" d="M 2597 2516 
Q 3050 2419 3304 2112 
Q 3559 1806 3559 1356 
Q 3559 666 3084 287 
Q 2609 -91 1734 -91 
Q 1441 -91 1130 -33 
Q 819 25 488 141 
L 488 750 
Q 750 597 1062 519 
Q 1375 441 1716 441 
Q 2309 441 2620 675 
Q 2931 909 2931 1356 
Q 2931 1769 2642 2001 
Q 2353 2234 1838 2234 
L 1294 2234 
L 1294 2753 
L 1863 2753 
Q 2328 2753 2575 2939 
Q 2822 3125 2822 3475 
Q 2822 3834 2567 4026 
Q 2313 4219 1838 4219 
Q 1578 4219 1281 4162 
Q 984 4106 628 3988 
L 628 4550 
Q 988 4650 1302 4700 
Q 1616 4750 1894 4750 
Q 2613 4750 3031 4423 
Q 3450 4097 3450 3541 
Q 3450 3153 3228 2886 
Q 3006 2619 2597 2516 
z
" transform="scale(0.015625)"/>
       <path id="DejaVuSans-35" d="M 691 4666 
L 3169 4666 
L 3169 4134 
L 1269 4134 
L 1269 2991 
Q 1406 3038 1543 3061 
Q 1681 3084 1819 3084 
Q 2600 3084 3056 2656 
Q 3513 2228 3513 1497 
Q 3513 744 3044 326 
Q 2575 -91 1722 -91 
Q 1428 -91 1123 -41 
Q 819 9 494 109 
L 494 744 
Q 775 591 1075 516 
Q 1375 441 1709 441 
Q 2250 441 2565 725 
Q 2881 1009 2881 1497 
Q 2881 1984 2565 2268 
Q 2250 2553 1709 2553 
Q 1456 2553 1204 2497 
Q 953 2441 691 2322 
L 691 4666 
z
" transform="scale(0.015625)"/>
       <path id="DejaVuSans-2b" d="M 2944 4013 
L 2944 2272 
L 4684 2272 
L 4684 1741 
L 2944 1741 
L 2944 0 
L 2419 0 
L 2419 1741 
L 678 1741 
L 678 2272 
L 2419 2272 
L 2419 4013 
L 2944 4013 
z
" transform="scale(0.015625)"/>
       <path id="DejaVuSans-31" d="M 794 531 
L 1825 531 
L 1825 4091 
L 703 3866 
L 703 4441 
L 1819 4666 
L 2450 4666 
L 2450 531 
L 3481 531 
L 3481 0 
L 794 0 
L 794 531 
z
" transform="scale(0.015625)"/>
      </defs>
      <use xlink:href="#DejaVuSans-4c"/>
      <use xlink:href="#DejaVuSans-69" x="55.712891"/>
      <use xlink:href="#DejaVuSans-6e" x="83.496094"/>
      <use xlink:href="#DejaVuSans-65" x="146.875"/>
      <use xlink:href="#DejaVuSans-61" x="208.398438"/>
      <use xlink:href="#DejaVuSans-72" x="269.677734"/>
      <use xlink:href="#DejaVuSans-20" x="310.791016"/>
      <use xlink:href="#DejaVuSans-66" x="342.578125"/>
      <use xlink:href="#DejaVuSans-69" x="377.783203"/>
      <use xlink:href="#DejaVuSans-74" x="405.566406"/>
      <use xlink:href="#DejaVuSans-20" x="444.775391"/>
      <use xlink:href="#DejaVuSans-28" x="476.5625"/>
      <use xlink:href="#DejaVuSans-48" x="515.576172"/>
      <use xlink:href="#DejaVuSans-52" x="590.771484"/>
      <use xlink:href="#DejaVuSans-52" x="660.253906"/>
      <use xlink:href="#DejaVuSans-29" x="729.736328"/>
      <use xlink:href="#DejaVuSans-3a" x="768.75"/>
      <use xlink:href="#DejaVuSans-20" x="802.441406"/>
      <use xlink:href="#DejaVuSans-79" x="834.228516"/>
      <use xlink:href="#DejaVuSans-20" x="893.408203"/>
      <use xlink:href="#DejaVuSans-3d" x="925.195312"/>
      <use xlink:href="#DejaVuSans-20" x="1008.984375"/>
      <use xlink:href="#DejaVuSans-30" x="1040.771484"/>
      <use xlink:href="#DejaVuSans-2e" x="1104.394531"/>
      <use xlink:href="#DejaVuSans-33" x="1136.181641"/>
      <use xlink:href="#DejaVuSans-35" x="1199.804688"/>
      <use xlink:href="#DejaVuSans-78" x="1263.427734"/>
      <use xlink:href="#DejaVuSans-20" x="1322.607422"/>
      <use xlink:href="#DejaVuSans-2b" x="1354.394531"/>
      <use xlink:href="#DejaVuSans-20" x="1438.183594"/>
      <use xlink:href="#DejaVuSans-2d" x="1469.970703"/>
      <use xlink:href="#DejaVuSans-31" x="1506.054688"/>
      <use xlink:href="#DejaVuSans-30" x="1569.677734"/>
      <use xlink:href="#DejaVuSans-2e" x="1633.300781"/>
      <use xlink:href="#DejaVuSans-32" x="1665.087891"/>
      <use xlink:href="#DejaVuSans-30" x="1728.710938"/>
     </g>
    </g>
    <g id="line2d_18">
     <path d="M 259.651112 64.332813 
L 269.651112 64.332813 
L 279.651112 64.332813 
" style="fill: none; stroke-dasharray: 1.85,0.8; stroke-dashoffset: 0; stroke: #000000; stroke-width: 0.5"/>
    </g>
    <g id="text_16">
     <!-- PRR Line: y = 0.7x + -10.2 -->
     <g transform="translate(287.651112 67.832813) scale(0.1 -0.1)">
      <defs>
       <path id="DejaVuSans-37" d="M 525 4666 
L 3525 4666 
L 3525 4397 
L 1831 0 
L 1172 0 
L 2766 4134 
L 525 4134 
L 525 4666 
z
" transform="scale(0.015625)"/>
      </defs>
      <use xlink:href="#DejaVuSans-50"/>
      <use xlink:href="#DejaVuSans-52" x="60.302734"/>
      <use xlink:href="#DejaVuSans-52" x="129.785156"/>
      <use xlink:href="#DejaVuSans-20" x="199.267578"/>
      <use xlink:href="#DejaVuSans-4c" x="231.054688"/>
      <use xlink:href="#DejaVuSans-69" x="286.767578"/>
      <use xlink:href="#DejaVuSans-6e" x="314.550781"/>
      <use xlink:href="#DejaVuSans-65" x="377.929688"/>
      <use xlink:href="#DejaVuSans-3a" x="439.453125"/>
      <use xlink:href="#DejaVuSans-20" x="473.144531"/>
      <use xlink:href="#DejaVuSans-79" x="504.931641"/>
      <use xlink:href="#DejaVuSans-20" x="564.111328"/>
      <use xlink:href="#DejaVuSans-3d" x="595.898438"/>
      <use xlink:href="#DejaVuSans-20" x="679.6875"/>
      <use xlink:href="#DejaVuSans-30" x="711.474609"/>
      <use xlink:href="#DejaVuSans-2e" x="775.097656"/>
      <use xlink:href="#DejaVuSans-37" x="806.884766"/>
      <use xlink:href="#DejaVuSans-78" x="870.507812"/>
      <use xlink:href="#DejaVuSans-20" x="929.6875"/>
      <use xlink:href="#DejaVuSans-2b" x="961.474609"/>
      <use xlink:href="#DejaVuSans-20" x="1045.263672"/>
      <use xlink:href="#DejaVuSans-2d" x="1077.050781"/>
      <use xlink:href="#DejaVuSans-31" x="1113.134766"/>
      <use xlink:href="#DejaVuSans-30" x="1176.757812"/>
      <use xlink:href="#DejaVuSans-2e" x="1240.380859"/>
      <use xlink:href="#DejaVuSans-32" x="1272.167969"/>
     </g>
    </g>
   </g>
  </g>
 </g>
 <defs>
  <clipPath id="p0b68903017">
   <rect x="43.04875" y="7.2" width="197.716535" height="192.614173"/>
  </clipPath>
 </defs>
</svg>
