<?xml version="1.0" encoding="utf-8" standalone="no"?>
<!DOCTYPE svg PUBLIC "-//W3C//DTD SVG 1.1//EN"
  "http://www.w3.org/Graphics/SVG/1.1/DTD/svg11.dtd">
<svg xmlns:xlink="http://www.w3.org/1999/xlink" width="285.714286pt" height="285.714286pt" viewBox="0 0 285.714286 285.714286" xmlns="http://www.w3.org/2000/svg" version="1.1">
 <metadata>
  <rdf:RDF xmlns:dc="http://purl.org/dc/elements/1.1/" xmlns:cc="http://creativecommons.org/ns#" xmlns:rdf="http://www.w3.org/1999/02/22-rdf-syntax-ns#">
   <cc:Work>
    <dc:type rdf:resource="http://purl.org/dc/dcmitype/StillImage"/>
    <dc:date>2025-04-07T19:28:52.995274</dc:date>
    <dc:format>image/svg+xml</dc:format>
    <dc:creator>
     <cc:Agent>
      <dc:title>Matplotlib v3.8.3, https://matplotlib.org/</dc:title>
     </cc:Agent>
    </dc:creator>
   </cc:Work>
  </rdf:RDF>
 </metadata>
 <defs>
  <style type="text/css">*{stroke-linejoin: round; stroke-linecap: butt}</style>
 </defs>
 <g id="figure_1">
  <g id="patch_1">
   <path d="M 0 285.714286 
L 285.714286 285.714286 
L 285.714286 0 
L 0 0 
z
" style="fill: #ffffff"/>
  </g>
  <g id="axes_1">
   <g id="patch_2">
    <path d="M 71.489572 240.778286 
L 272.754286 240.778286 
L 272.754286 12.96 
L 71.489572 12.96 
z
" style="fill: #ffffff"/>
   </g>
   <g id="patch_3">
    <path d="M 240.7376 92.587487 
Q 242.432416 82.767007 243.937093 74.048275 
" style="fill: none; stroke: #008000; stroke-linecap: round"/>
    <path d="M 240.755739 78.370194 
L 243.937093 74.048275 
L 245.485816 79.18651 
" style="fill: none; stroke: #008000; stroke-linecap: round"/>
   </g>
   <g id="patch_4">
    <path d="M 244.786798 69.001318 
Q 245.484795 64.687199 246.004223 61.476761 
" style="fill: none; stroke: #008000; stroke-linecap: round"/>
    <path d="M 242.868393 65.831823 
L 246.004223 61.476761 
L 247.606775 66.598462 
" style="fill: none; stroke: #008000; stroke-linecap: round"/>
   </g>
   <g id="patch_5">
    <path d="M 209.142429 91.355908 
Q 215.976226 99.275488 222.079612 106.348607 
" style="fill: none; stroke: #008000; stroke-linecap: round"/>
    <path d="M 220.76081 101.146611 
L 222.079612 106.348607 
L 217.126734 104.282451 
" style="fill: none; stroke: #008000; stroke-linecap: round"/>
   </g>
   <g id="patch_6">
    <path d="M 225.818666 107.657968 
Q 229.205172 105.564865 231.640637 104.059573 
" style="fill: none; stroke: #008000; stroke-linecap: round"/>
    <path d="M 226.295772 104.541666 
L 231.640637 104.059573 
L 228.819393 108.624721 
" style="fill: none; stroke: #008000; stroke-linecap: round"/>
   </g>
   <g id="patch_7">
    <path d="M 230.528156 99.846644 
Q 228.18815 98.490746 226.815512 97.695382 
" style="fill: none; stroke: #008000; stroke-linecap: round"/>
    <path d="M 229.765411 102.178472 
L 226.815512 97.695382 
L 232.171924 98.025317 
" style="fill: none; stroke: #008000; stroke-linecap: round"/>
   </g>
   <g id="patch_8">
    <path d="M 225.037394 94.354055 
Q 234.292824 76.477433 243.034214 59.593667 
" style="fill: none; stroke: #008000; stroke-linecap: round"/>
    <path d="M 238.69602 62.752793 
L 243.034214 59.593667 
L 242.958599 64.959697 
" style="fill: none; stroke: #008000; stroke-linecap: round"/>
   </g>
   <g id="patch_9">
    <path d="M 193.216288 99.733409 
Q 214.958482 85.126633 235.772627 71.143335 
" style="fill: none; stroke: #008000; stroke-linecap: round"/>
    <path d="M 230.449907 71.827914 
L 235.772627 71.143335 
L 233.126658 75.812259 
" style="fill: none; stroke: #008000; stroke-linecap: round"/>
   </g>
   <g id="patch_10">
    <path d="M 239.282373 67.626372 
Q 242.433188 61.540655 245.069963 56.447794 
" style="fill: none; stroke: #008000; stroke-linecap: round"/>
    <path d="M 240.731769 59.60692 
L 245.069963 56.447794 
L 244.994347 61.813824 
" style="fill: none; stroke: #008000; stroke-linecap: round"/>
   </g>
   <g id="patch_11">
    <path d="M 179.020495 123.391741 
Q 210.891076 103.991897 241.80664 85.173379 
" style="fill: none; stroke: #ff0000; stroke-linecap: round"/>
    <path d="M 236.458617 85.619092 
L 241.80664 85.173379 
L 238.954397 89.719225 
" style="fill: none; stroke: #ff0000; stroke-linecap: round"/>
   </g>
   <g id="patch_12">
    <path d="M 243.380758 81.874841 
Q 238.363452 74.122204 233.953595 67.308186 
" style="fill: none; stroke: #ff0000; stroke-linecap: round"/>
    <path d="M 234.546667 72.641878 
L 233.953595 67.308186 
L 238.576391 70.033944 
" style="fill: none; stroke: #ff0000; stroke-linecap: round"/>
   </g>
   <g id="patch_13">
    <path d="M 236.892353 75.343653 
Q 241.41523 59.968611 245.622583 45.666158 
" style="fill: none; stroke: #008000; stroke-linecap: round"/>
    <path d="M 241.965518 49.593737 
L 245.622583 45.666158 
L 246.570407 50.948357 
" style="fill: none; stroke: #008000; stroke-linecap: round"/>
   </g>
   <g id="patch_14">
    <path d="M 244.606944 43.303021 
Q 239.380287 45.033619 235.214996 46.412788 
" style="fill: none; stroke: #008000; stroke-linecap: round"/>
    <path d="M 240.526092 47.182371 
L 235.214996 46.412788 
L 239.017321 42.625661 
" style="fill: none; stroke: #008000; stroke-linecap: round"/>
   </g>
   <g id="patch_15">
    <path d="M 182.963743 94.209824 
Q 195.627799 103.993941 207.407112 113.094516 
" style="fill: none; stroke: #008000; stroke-linecap: round"/>
    <path d="M 205.076001 108.260684 
L 207.407112 113.094516 
L 202.14138 112.059106 
" style="fill: none; stroke: #008000; stroke-linecap: round"/>
   </g>
   <g id="patch_16">
    <path d="M 210.631689 113.153532 
Q 224.116988 80.409357 237.176531 48.698976 
" style="fill: none; stroke: #008000; stroke-linecap: round"/>
    <path d="M 233.129483 52.223378 
L 237.176531 48.698976 
L 237.567823 54.051255 
" style="fill: none; stroke: #008000; stroke-linecap: round"/>
   </g>
   <g id="patch_17">
    <path d="M 142.758437 174.897923 
Q 134.576658 175.530039 127.509592 176.076033 
" style="fill: none; stroke: #ff0000; stroke-linecap: round"/>
    <path d="M 132.4802 178.099161 
L 127.509592 176.076033 
L 132.110459 173.313423 
" style="fill: none; stroke: #ff0000; stroke-linecap: round"/>
   </g>
   <g id="patch_18">
    <path d="M 126.390237 176.487058 
Q 133.558538 177.102408 139.612902 177.622135 
" style="fill: none; stroke: #ff0000; stroke-linecap: round"/>
    <path d="M 135.03576 174.820391 
L 139.612902 177.622135 
L 134.625222 179.602802 
" style="fill: none; stroke: #ff0000; stroke-linecap: round"/>
   </g>
   <g id="patch_19">
    <path d="M 206.679871 108.488905 
Q 220.046995 81.195324 232.922367 54.905825 
" style="fill: none; stroke: #008000; stroke-linecap: round"/>
    <path d="M 228.655764 58.160991 
L 232.922367 54.905825 
L 232.966538 60.272207 
" style="fill: none; stroke: #008000; stroke-linecap: round"/>
   </g>
   <g id="patch_20">
    <path d="M 235.875085 50.885956 
Q 240.398685 47.391069 244.037542 44.579726 
" style="fill: none; stroke: #008000; stroke-linecap: round"/>
    <path d="M 238.771811 45.615136 
L 244.037542 44.579726 
L 241.706432 49.413557 
" style="fill: none; stroke: #008000; stroke-linecap: round"/>
   </g>
   <g id="patch_21">
    <path d="M 173.921984 147.709621 
Q 180.363934 129.93468 186.424935 113.21087 
" style="fill: none; stroke: #ff0000; stroke-linecap: round"/>
    <path d="M 182.533041 116.905889 
L 186.424935 113.21087 
L 187.045814 118.541397 
" style="fill: none; stroke: #ff0000; stroke-linecap: round"/>
   </g>
   <g id="patch_22">
    <path d="M 189.422587 109.78334 
Q 205.802064 105.565135 221.098835 101.62576 
" style="fill: none; stroke: #ff0000; stroke-linecap: round"/>
    <path d="M 215.851961 100.498678 
L 221.098835 101.62576 
L 217.049045 105.14701 
" style="fill: none; stroke: #ff0000; stroke-linecap: round"/>
   </g>
   <g id="patch_23">
    <path d="M 225.398096 148.048464 
Q 233.275792 138.581001 240.438376 129.972965 
" style="fill: none; stroke: #ff0000; stroke-linecap: round"/>
    <path d="M 235.523352 132.12762 
L 240.438376 129.972965 
L 239.213085 135.197777 
" style="fill: none; stroke: #ff0000; stroke-linecap: round"/>
   </g>
   <g id="patch_24">
    <path d="M 242.646437 125.591387 
Q 243.449526 118.145893 244.132716 111.811986 
" style="fill: none; stroke: #ff0000; stroke-linecap: round"/>
    <path d="M 241.231803 116.326928 
L 244.132716 111.811986 
L 246.004122 116.841682 
" style="fill: none; stroke: #ff0000; stroke-linecap: round"/>
   </g>
   <g id="patch_25">
    <path d="M 242.432302 94.129791 
Q 242.432302 81.192988 242.432302 69.374218 
" style="fill: none; stroke: #008000; stroke-linecap: round"/>
    <path d="M 240.032302 74.174218 
L 242.432302 69.374218 
L 244.832302 74.174218 
" style="fill: none; stroke: #008000; stroke-linecap: round"/>
   </g>
   <g id="patch_26">
    <path d="M 242.604455 68.254156 
Q 243.449823 78.050994 244.199073 86.733936 
" style="fill: none; stroke: #008000; stroke-linecap: round"/>
    <path d="M 246.177529 81.745379 
L 244.199073 86.733936 
L 241.3953 82.158036 
" style="fill: none; stroke: #008000; stroke-linecap: round"/>
   </g>
   <g id="patch_27">
    <path d="M 187.39687 86.240834 
Q 208.853626 81.195579 229.222031 76.406234 
" style="fill: none; stroke: #008000; stroke-linecap: round"/>
    <path d="M 224.00012 75.168639 
L 229.222031 76.406234 
L 225.098808 79.841207 
" style="fill: none; stroke: #008000; stroke-linecap: round"/>
   </g>
   <g id="patch_28">
    <path d="M 233.049093 77.528137 
Q 236.327606 85.126973 239.16321 91.699247 
" style="fill: none; stroke: #008000; stroke-linecap: round"/>
    <path d="M 239.465333 86.341195 
L 239.16321 91.699247 
L 235.058042 88.242718 
" style="fill: none; stroke: #008000; stroke-linecap: round"/>
   </g>
   <g id="patch_29">
    <path d="M 226.691603 103.637248 
Q 234.292466 76.477642 241.592014 50.394701 
" style="fill: none; stroke: #008000; stroke-linecap: round"/>
    <path d="M 237.987196 54.370288 
L 241.592014 50.394701 
L 242.609592 55.663908 
" style="fill: none; stroke: #008000; stroke-linecap: round"/>
   </g>
   <g id="patch_30">
    <path d="M 243.737982 45.879031 
Q 244.468222 45.032767 244.468051 45.032965 
" style="fill: none; stroke: #008000; stroke-linecap: round"/>
    <path d="M 239.515173 47.099121 
L 244.468051 45.032965 
L 243.149249 50.234961 
" style="fill: none; stroke: #008000; stroke-linecap: round"/>
   </g>
   <g id="patch_31">
    <path d="M 168.177091 144.740454 
Q 184.433153 118.144365 200.106141 92.502228 
" style="fill: none; stroke: #ff0000; stroke-linecap: round"/>
    <path d="M 195.555079 95.34614 
L 200.106141 92.502228 
L 199.650633 97.849424 
" style="fill: none; stroke: #ff0000; stroke-linecap: round"/>
   </g>
   <g id="patch_32">
    <path d="M 203.164149 88.444798 
Q 221.065998 70.974336 238.167697 54.284743 
" style="fill: none; stroke: #ff0000; stroke-linecap: round"/>
    <path d="M 233.056211 55.919588 
L 238.167697 54.284743 
L 236.408681 59.354839 
" style="fill: none; stroke: #ff0000; stroke-linecap: round"/>
   </g>
   <g id="patch_33">
    <path d="M 177.158982 164.639179 
Q 201.730889 155.877333 225.24971 147.490997 
" style="fill: none; stroke: #ff0000; stroke-linecap: round"/>
    <path d="M 219.922464 146.84257 
L 225.24971 147.490997 
L 221.534621 151.363737 
" style="fill: none; stroke: #ff0000; stroke-linecap: round"/>
   </g>
   <g id="patch_34">
    <path d="M 228.488652 144.463124 
Q 230.222239 133.07864 231.787516 122.799449 
" style="fill: none; stroke: #ff0000; stroke-linecap: round"/>
    <path d="M 228.692271 127.183449 
L 231.787516 122.799449 
L 233.437569 127.906046 
" style="fill: none; stroke: #ff0000; stroke-linecap: round"/>
   </g>
   <g id="patch_35">
    <path d="M 233.841046 65.910567 
Q 236.326841 67.831066 237.927893 69.068022 
" style="fill: none; stroke: #008000; stroke-linecap: round"/>
    <path d="M 235.596782 64.234191 
L 237.927893 69.068022 
L 232.662161 68.032612 
" style="fill: none; stroke: #008000; stroke-linecap: round"/>
   </g>
   <g id="patch_36">
    <path d="M 240.842184 69.027996 
Q 243.449447 57.613378 245.807747 47.288723 
" style="fill: none; stroke: #008000; stroke-linecap: round"/>
    <path d="M 242.399146 51.433773 
L 245.807747 47.288723 
L 247.078626 52.502634 
" style="fill: none; stroke: #008000; stroke-linecap: round"/>
   </g>
   <g id="patch_37">
    <path d="M 193.317766 145.491071 
Q 201.732986 140.940013 209.164777 136.920806 
" style="fill: none; stroke: #ff0000; stroke-linecap: round"/>
    <path d="M 203.800981 137.093122 
L 209.164777 136.920806 
L 206.084352 141.315232 
" style="fill: none; stroke: #ff0000; stroke-linecap: round"/>
   </g>
   <g id="patch_38">
    <path d="M 212.995626 133.755468 
Q 221.065282 121.286404 228.527488 109.755959 
" style="fill: none; stroke: #ff0000; stroke-linecap: round"/>
    <path d="M 223.904692 112.481717 
L 228.527488 109.755959 
L 227.934416 115.089651 
" style="fill: none; stroke: #ff0000; stroke-linecap: round"/>
   </g>
   <g id="patch_39">
    <path d="M 203.766684 90.268752 
Q 203.766684 114.211468 203.766684 137.03615 
" style="fill: none; stroke: #008000; stroke-linecap: round"/>
    <path d="M 206.166684 132.23615 
L 203.766684 137.03615 
L 201.366684 132.23615 
" style="fill: none; stroke: #008000; stroke-linecap: round"/>
   </g>
   <g id="patch_40">
    <path d="M 205.717752 140.585291 
Q 218.010684 143.298831 229.211865 145.771378 
" style="fill: none; stroke: #008000; stroke-linecap: round"/>
    <path d="M 225.042023 142.393152 
L 229.211865 145.771378 
L 224.007379 147.080317 
" style="fill: none; stroke: #008000; stroke-linecap: round"/>
   </g>
   <g id="patch_41">
    <path d="M 228.712725 150.803539 
Q 232.25738 137.795361 235.508095 125.865885 
" style="fill: none; stroke: #ff0000; stroke-linecap: round"/>
    <path d="M 231.930565 129.866045 
L 235.508095 125.865885 
L 236.561706 131.128005 
" style="fill: none; stroke: #ff0000; stroke-linecap: round"/>
   </g>
   <g id="patch_42">
    <path d="M 237.911111 121.636208 
Q 238.363912 121.286379 237.931971 121.620092 
" style="fill: none; stroke: #ff0000; stroke-linecap: round"/>
    <path d="M 232.66624 122.655502 
L 237.931971 121.620092 
L 235.60086 126.453923 
" style="fill: none; stroke: #ff0000; stroke-linecap: round"/>
   </g>
   <g id="patch_43">
    <path d="M 199.566449 68.790393 
Q 222.081881 61.542398 243.533063 54.636998 
" style="fill: none; stroke: #008000; stroke-linecap: round"/>
    <path d="M 238.228547 53.823299 
L 243.533063 54.636998 
L 239.699394 58.392392 
" style="fill: none; stroke: #008000; stroke-linecap: round"/>
   </g>
   <g id="patch_44">
    <path d="M 246.502367 51.679371 
Q 246.502367 48.177594 246.502367 45.79385 
" style="fill: none; stroke: #008000; stroke-linecap: round"/>
    <path d="M 244.102367 50.59385 
L 246.502367 45.79385 
L 248.902367 50.59385 
" style="fill: none; stroke: #008000; stroke-linecap: round"/>
   </g>
   <g id="patch_45">
    <path d="M 214.364156 91.029636 
Q 215.977415 83.551312 217.35491 77.165882 
" style="fill: none; stroke: #008000; stroke-linecap: round"/>
    <path d="M 213.996684 81.351848 
L 217.35491 77.165882 
L 218.688748 82.364043 
" style="fill: none; stroke: #008000; stroke-linecap: round"/>
   </g>
   <g id="patch_46">
    <path d="M 219.356096 72.636751 
Q 232.258196 58.396711 244.409609 44.985204 
" style="fill: none; stroke: #008000; stroke-linecap: round"/>
    <path d="M 239.408167 46.930861 
L 244.409609 44.985204 
L 242.965269 50.153752 
" style="fill: none; stroke: #008000; stroke-linecap: round"/>
   </g>
   <g id="patch_47">
    <path d="M 239.245111 66.318791 
Q 234.292482 73.333765 229.984681 79.435395 
" style="fill: none; stroke: #008000; stroke-linecap: round"/>
    <path d="M 234.713696 76.898386 
L 229.984681 79.435395 
L 230.792483 74.129978 
" style="fill: none; stroke: #008000; stroke-linecap: round"/>
   </g>
   <g id="patch_48">
    <path d="M 229.031071 80.170264 
Q 237.343906 62.330238 245.184524 45.503627 
" style="fill: none; stroke: #008000; stroke-linecap: round"/>
    <path d="M 240.981756 48.840803 
L 245.184524 45.503627 
L 245.332603 50.868147 
" style="fill: none; stroke: #008000; stroke-linecap: round"/>
   </g>
   <g id="patch_49">
    <path d="M 205.407355 93.412666 
Q 225.13592 79.622209 243.94813 66.472293 
" style="fill: none; stroke: #008000; stroke-linecap: round"/>
    <path d="M 238.638986 67.255225 
L 243.94813 66.472293 
L 241.388989 71.189368 
" style="fill: none; stroke: #008000; stroke-linecap: round"/>
   </g>
   <g id="patch_50">
    <path d="M 244.919453 63.463915 
Q 243.449964 62.328603 242.865218 61.876834 
" style="fill: none; stroke: #008000; stroke-linecap: round"/>
    <path d="M 245.196328 66.710665 
L 242.865218 61.876834 
L 248.130949 62.912244 
" style="fill: none; stroke: #008000; stroke-linecap: round"/>
   </g>
   <g id="patch_51">
    <path d="M 187.266078 98.43504 
Q 200.715504 92.200508 213.15058 86.436182 
" style="fill: none; stroke: #008000; stroke-linecap: round"/>
    <path d="M 207.786365 86.277464 
L 213.15058 86.436182 
L 209.805076 90.632324 
" style="fill: none; stroke: #008000; stroke-linecap: round"/>
   </g>
   <g id="patch_52">
    <path d="M 217.063455 86.804996 
Q 219.029941 89.843569 220.388978 91.943523 
" style="fill: none; stroke: #008000; stroke-linecap: round"/>
    <path d="M 219.795906 86.609832 
L 220.388978 91.943523 
L 215.766182 89.217766 
" style="fill: none; stroke: #008000; stroke-linecap: round"/>
   </g>
   <g id="patch_53">
    <path d="M 167.103308 155.877061 
Q 175.276179 155.877061 182.331016 155.877061 
" style="fill: none; stroke: #ff0000; stroke-linecap: round"/>
    <path d="M 177.531016 153.477061 
L 182.331016 155.877061 
L 177.531016 158.277061 
" style="fill: none; stroke: #ff0000; stroke-linecap: round"/>
   </g>
   <g id="patch_54">
    <path d="M 184.014547 157.264675 
Q 181.381348 159.807653 179.552375 161.57396 
" style="fill: none; stroke: #ff0000; stroke-linecap: round"/>
    <path d="M 184.672346 159.965888 
L 179.552375 161.57396 
L 181.337899 156.51314 
" style="fill: none; stroke: #ff0000; stroke-linecap: round"/>
   </g>
   <g id="patch_55">
    <path d="M 171.290129 155.446383 
Q 158.997196 152.732842 147.796015 150.260295 
" style="fill: none; stroke: #ff0000; stroke-linecap: round"/>
    <path d="M 151.965858 153.638521 
L 147.796015 150.260295 
L 153.000502 148.951357 
" style="fill: none; stroke: #ff0000; stroke-linecap: round"/>
   </g>
   <g id="patch_56">
    <path d="M 146.458361 150.624665 
Q 158.994833 158.234739 170.575579 165.264653 
" style="fill: none; stroke: #ff0000; stroke-linecap: round"/>
    <path d="M 167.717787 160.722294 
L 170.575579 165.264653 
L 165.227016 164.825471 
" style="fill: none; stroke: #ff0000; stroke-linecap: round"/>
   </g>
   <g id="patch_57">
    <path d="M 199.476273 65.417897 
Q 212.925699 59.183365 225.360775 53.419039 
" style="fill: none; stroke: #008000; stroke-linecap: round"/>
    <path d="M 219.99656 53.260321 
L 225.360775 53.419039 
L 222.015271 57.615181 
" style="fill: none; stroke: #008000; stroke-linecap: round"/>
   </g>
   <g id="patch_58">
    <path d="M 230.187328 52.108898 
Q 231.239595 52.108898 231.173828 52.108898 
" style="fill: none; stroke: #008000; stroke-linecap: round"/>
    <path d="M 226.373828 49.708898 
L 231.173828 52.108898 
L 226.373828 54.508898 
" style="fill: none; stroke: #008000; stroke-linecap: round"/>
   </g>
   <g id="patch_59">
    <path d="M 202.258296 147.754628 
Q 187.487496 160.592865 173.560538 172.697665 
" style="fill: none; stroke: #ff0000; stroke-linecap: round"/>
    <path d="M 178.75778 171.36025 
L 173.560538 172.697665 
L 175.608951 167.737422 
" style="fill: none; stroke: #ff0000; stroke-linecap: round"/>
   </g>
   <g id="patch_60">
    <path d="M 172.691077 173.405567 
Q 201.730623 147.230641 229.9397 121.804262 
" style="fill: none; stroke: #ff0000; stroke-linecap: round"/>
    <path d="M 224.767442 123.235256 
L 229.9397 121.804262 
L 227.98114 126.800665 
" style="fill: none; stroke: #ff0000; stroke-linecap: round"/>
   </g>
   <g id="patch_61">
    <path d="M 230.709873 138.216559 
Q 237.344674 111.854387 243.706599 86.576438 
" style="fill: none; stroke: #ff0000; stroke-linecap: round"/>
    <path d="M 240.207655 90.645515 
L 243.706599 86.576438 
L 244.862494 91.81704 
" style="fill: none; stroke: #ff0000; stroke-linecap: round"/>
   </g>
   <g id="patch_62">
    <path d="M 244.5903 81.558742 
Q 245.484831 67.045539 246.310581 53.648253 
" style="fill: none; stroke: #ff0000; stroke-linecap: round"/>
    <path d="M 243.619836 58.291516 
L 246.310581 53.648253 
L 248.410745 58.586807 
" style="fill: none; stroke: #ff0000; stroke-linecap: round"/>
   </g>
   <g id="patch_63">
    <path d="M 186.938913 124.663624 
Q 197.662101 114.998231 207.55482 106.081384 
" style="fill: none; stroke: #ff0000; stroke-linecap: round"/>
    <path d="M 202.382561 107.512377 
L 207.55482 106.081384 
L 205.596259 111.077786 
" style="fill: none; stroke: #ff0000; stroke-linecap: round"/>
   </g>
   <g id="patch_64">
    <path d="M 211.246273 102.54491 
Q 221.063056 92.202622 230.11014 82.671236 
" style="fill: none; stroke: #ff0000; stroke-linecap: round"/>
    <path d="M 225.064924 84.500387 
L 230.11014 82.671236 
L 228.546331 87.8049 
" style="fill: none; stroke: #ff0000; stroke-linecap: round"/>
   </g>
   <g id="patch_65">
    <path d="M 205.765696 140.154612 
Q 216.995284 140.154612 227.106839 140.154612 
" style="fill: none; stroke: #ff0000; stroke-linecap: round"/>
    <path d="M 222.306839 137.754612 
L 227.106839 140.154612 
L 222.306839 142.554612 
" style="fill: none; stroke: #ff0000; stroke-linecap: round"/>
   </g>
   <g id="patch_66">
    <path d="M 230.657457 138.203796 
Q 235.30949 117.357949 239.718008 97.603294 
" style="fill: none; stroke: #ff0000; stroke-linecap: round"/>
    <path d="M 236.330159 101.765322 
L 239.718008 97.603294 
L 241.014921 102.81079 
" style="fill: none; stroke: #ff0000; stroke-linecap: round"/>
   </g>
   <g id="patch_67">
    <path d="M 163.706826 149.270063 
Q 174.258594 118.143534 184.451417 88.075853 
" style="fill: none; stroke: #ff0000; stroke-linecap: round"/>
    <path d="M 180.637427 91.851231 
L 184.451417 88.075853 
L 185.183325 93.392272 
" style="fill: none; stroke: #ff0000; stroke-linecap: round"/>
   </g>
   <g id="patch_68">
    <path d="M 187.381592 85.658631 
Q 199.697159 89.056802 210.934967 92.157593 
" style="fill: none; stroke: #ff0000; stroke-linecap: round"/>
    <path d="M 206.946242 88.567318 
L 210.934967 92.157593 
L 205.669513 93.194409 
" style="fill: none; stroke: #ff0000; stroke-linecap: round"/>
   </g>
   <g id="patch_69">
    <path d="M 208.756886 92.78229 
Q 209.872742 90.627043 210.474557 89.464652 
" style="fill: none; stroke: #008000; stroke-linecap: round"/>
    <path d="M 206.136364 92.623778 
L 210.474557 89.464652 
L 210.398942 94.830683 
" style="fill: none; stroke: #008000; stroke-linecap: round"/>
   </g>
   <g id="patch_70">
    <path d="M 213.364029 85.331208 
Q 226.149708 73.336393 238.120003 62.106527 
" style="fill: none; stroke: #008000; stroke-linecap: round"/>
    <path d="M 232.977292 63.640318 
L 238.120003 62.106527 
L 236.26141 67.140971 
" style="fill: none; stroke: #008000; stroke-linecap: round"/>
   </g>
   <g id="patch_71">
    <path d="M 209.587096 91.007757 
Q 208.854437 85.913358 208.280933 81.925607 
" style="fill: none; stroke: #008000; stroke-linecap: round"/>
    <path d="M 206.588663 87.018369 
L 208.280933 81.925607 
L 211.339781 86.33508 
" style="fill: none; stroke: #008000; stroke-linecap: round"/>
   </g>
   <g id="patch_72">
    <path d="M 209.751796 78.268005 
Q 221.064873 74.906326 231.306231 71.863108 
" style="fill: none; stroke: #008000; stroke-linecap: round"/>
    <path d="M 226.021454 70.929762 
L 231.306231 71.863108 
L 227.388688 75.530922 
" style="fill: none; stroke: #008000; stroke-linecap: round"/>
   </g>
   <g id="patch_73">
    <path d="M 244.669546 100.085398 
Q 239.377 102.42195 235.107248 104.306959 
" style="fill: none; stroke: #008000; stroke-linecap: round"/>
    <path d="M 240.467656 104.563928 
L 235.107248 104.306959 
L 238.529068 100.172814 
" style="fill: none; stroke: #008000; stroke-linecap: round"/>
   </g>
   <g id="patch_74">
    <path d="M 233.528289 104.02196 
Q 239.380244 96.917281 244.521381 90.675584 
" style="fill: none; stroke: #008000; stroke-linecap: round"/>
    <path d="M 239.617164 92.854723 
L 244.521381 90.675584 
L 243.322162 95.906441 
" style="fill: none; stroke: #008000; stroke-linecap: round"/>
   </g>
   <g id="patch_75">
    <path d="M 207.93711 126.502644 
Q 197.661806 129.148841 188.46921 131.516209 
" style="fill: none; stroke: #ff0000; stroke-linecap: round"/>
    <path d="M 193.716084 132.643291 
L 188.46921 131.516209 
L 192.519 127.994959 
" style="fill: none; stroke: #ff0000; stroke-linecap: round"/>
   </g>
   <g id="patch_76">
    <path d="M 184.170305 130.75377 
Q 176.292609 121.286307 169.130025 112.678271 
" style="fill: none; stroke: #ff0000; stroke-linecap: round"/>
    <path d="M 170.355315 117.903083 
L 169.130025 112.678271 
L 174.045049 114.832926 
" style="fill: none; stroke: #ff0000; stroke-linecap: round"/>
   </g>
   <g id="matplotlib.axis_1">
    <g id="xtick_1">
     <g id="line2d_1">
      <defs>
       <path id="mec2a8049fc" d="M 0 0 
L 0 3.5 
" style="stroke: #000000; stroke-width: 0.8"/>
      </defs>
      <g>
       <use xlink:href="#mec2a8049fc" x="71.489572" y="240.778286" style="stroke: #000000; stroke-width: 0.8"/>
      </g>
     </g>
     <g id="text_1">
      <!-- 0 -->
      <g transform="translate(68.448322 255.940161) scale(0.12 -0.12)">
       <defs>
        <path id="Calibri-30" d="M 3022 2031 
Q 3022 1566 2948 1181 
Q 2875 797 2704 520 
Q 2534 244 2259 92 
Q 1984 -59 1581 -59 
Q 1200 -59 939 77 
Q 678 213 518 477 
Q 359 741 292 1127 
Q 225 1513 225 2013 
Q 225 2475 300 2861 
Q 375 3247 544 3523 
Q 713 3800 988 3951 
Q 1263 4103 1663 4103 
Q 2047 4103 2308 3967 
Q 2569 3831 2728 3567 
Q 2888 3303 2955 2917 
Q 3022 2531 3022 2031 
z
M 2472 1994 
Q 2472 2297 2450 2537 
Q 2428 2778 2386 2962 
Q 2344 3147 2276 3280 
Q 2209 3413 2115 3498 
Q 2022 3584 1901 3623 
Q 1781 3663 1631 3663 
Q 1366 3663 1200 3538 
Q 1034 3413 939 3194 
Q 844 2975 809 2681 
Q 775 2388 775 2050 
Q 775 1597 822 1280 
Q 869 963 970 763 
Q 1072 563 1230 472 
Q 1388 381 1613 381 
Q 1788 381 1920 437 
Q 2053 494 2148 598 
Q 2244 703 2306 850 
Q 2369 997 2406 1175 
Q 2444 1353 2458 1561 
Q 2472 1769 2472 1994 
z
" transform="scale(0.015625)"/>
       </defs>
       <use xlink:href="#Calibri-30"/>
      </g>
     </g>
    </g>
    <g id="xtick_2">
     <g id="line2d_2">
      <g>
       <use xlink:href="#mec2a8049fc" x="115.242771" y="240.778286" style="stroke: #000000; stroke-width: 0.8"/>
      </g>
     </g>
     <g id="text_2">
      <!-- 21 -->
      <g transform="translate(109.160271 255.940161) scale(0.12 -0.12)">
       <defs>
        <path id="Calibri-32" d="M 2888 231 
Q 2888 175 2880 131 
Q 2872 88 2858 58 
Q 2844 28 2820 14 
Q 2797 0 2769 0 
L 534 0 
Q 491 0 458 11 
Q 425 22 401 47 
Q 378 72 367 119 
Q 356 166 356 234 
Q 356 297 361 344 
Q 366 391 381 427 
Q 397 463 420 498 
Q 444 534 481 575 
L 1266 1406 
Q 1538 1694 1702 1922 
Q 1866 2150 1955 2337 
Q 2044 2525 2072 2678 
Q 2100 2831 2100 2966 
Q 2100 3100 2056 3220 
Q 2013 3341 1930 3431 
Q 1847 3522 1722 3575 
Q 1597 3628 1434 3628 
Q 1244 3628 1092 3575 
Q 941 3522 827 3459 
Q 713 3397 636 3344 
Q 559 3291 522 3291 
Q 500 3291 483 3303 
Q 466 3316 455 3344 
Q 444 3372 437 3419 
Q 431 3466 431 3531 
Q 431 3578 434 3612 
Q 438 3647 445 3672 
Q 453 3697 465 3719 
Q 478 3741 515 3773 
Q 553 3806 645 3862 
Q 738 3919 877 3973 
Q 1016 4028 1183 4065 
Q 1350 4103 1534 4103 
Q 1828 4103 2048 4020 
Q 2269 3938 2414 3794 
Q 2559 3650 2631 3459 
Q 2703 3269 2703 3053 
Q 2703 2859 2668 2667 
Q 2634 2475 2523 2251 
Q 2413 2028 2203 1754 
Q 1994 1481 1647 1125 
L 1006 456 
L 2766 456 
Q 2791 456 2814 442 
Q 2838 428 2855 400 
Q 2872 372 2880 330 
Q 2888 288 2888 231 
z
" transform="scale(0.015625)"/>
        <path id="Calibri-31" d="M 2897 213 
Q 2897 153 2887 112 
Q 2878 72 2862 47 
Q 2847 22 2826 11 
Q 2806 0 2784 0 
L 672 0 
Q 650 0 631 11 
Q 613 22 595 47 
Q 578 72 568 112 
Q 559 153 559 213 
Q 559 269 568 309 
Q 578 350 592 376 
Q 606 403 626 417 
Q 647 431 672 431 
L 1516 431 
L 1516 3506 
L 734 3041 
Q 675 3009 639 3003 
Q 603 2997 581 3017 
Q 559 3038 551 3084 
Q 544 3131 544 3203 
Q 544 3256 548 3293 
Q 553 3331 562 3356 
Q 572 3381 589 3400 
Q 606 3419 634 3438 
L 1566 4034 
Q 1578 4044 1597 4050 
Q 1616 4056 1644 4062 
Q 1672 4069 1709 4070 
Q 1747 4072 1803 4072 
Q 1878 4072 1928 4065 
Q 1978 4059 2006 4048 
Q 2034 4038 2043 4020 
Q 2053 4003 2053 3984 
L 2053 431 
L 2784 431 
Q 2809 431 2831 417 
Q 2853 403 2867 376 
Q 2881 350 2889 309 
Q 2897 269 2897 213 
z
" transform="scale(0.015625)"/>
       </defs>
       <use xlink:href="#Calibri-32"/>
       <use xlink:href="#Calibri-31" x="50.683594"/>
      </g>
     </g>
    </g>
    <g id="xtick_3">
     <g id="line2d_3">
      <g>
       <use xlink:href="#mec2a8049fc" x="158.995969" y="240.778286" style="stroke: #000000; stroke-width: 0.8"/>
      </g>
     </g>
     <g id="text_3">
      <!-- 43 -->
      <g transform="translate(152.913469 255.940161) scale(0.12 -0.12)">
       <defs>
        <path id="Calibri-34" d="M 3059 1150 
Q 3059 1047 3028 987 
Q 2997 928 2941 928 
L 2484 928 
L 2484 78 
Q 2484 53 2471 36 
Q 2459 19 2428 6 
Q 2397 -6 2347 -12 
Q 2297 -19 2219 -19 
Q 2144 -19 2094 -12 
Q 2044 -6 2014 6 
Q 1984 19 1973 36 
Q 1963 53 1963 78 
L 1963 928 
L 294 928 
Q 256 928 231 937 
Q 206 947 186 972 
Q 166 997 158 1044 
Q 150 1091 150 1166 
Q 150 1225 153 1272 
Q 156 1319 165 1358 
Q 175 1397 190 1433 
Q 206 1469 228 1509 
L 1684 3966 
Q 1700 3991 1729 4009 
Q 1759 4028 1806 4040 
Q 1853 4053 1922 4058 
Q 1991 4063 2084 4063 
Q 2188 4063 2264 4055 
Q 2341 4047 2387 4034 
Q 2434 4022 2459 4001 
Q 2484 3981 2484 3953 
L 2484 1372 
L 2941 1372 
Q 2994 1372 3026 1317 
Q 3059 1263 3059 1150 
z
M 1963 3591 
L 1956 3591 
L 641 1372 
L 1963 1372 
L 1963 3591 
z
" transform="scale(0.015625)"/>
        <path id="Calibri-33" d="M 2856 1156 
Q 2856 878 2759 654 
Q 2663 431 2481 272 
Q 2300 113 2034 27 
Q 1769 -59 1434 -59 
Q 1231 -59 1054 -26 
Q 878 6 740 51 
Q 603 97 512 145 
Q 422 194 398 216 
Q 375 238 362 259 
Q 350 281 340 312 
Q 331 344 326 389 
Q 322 434 322 500 
Q 322 613 344 656 
Q 366 700 406 700 
Q 434 700 517 650 
Q 600 600 729 542 
Q 859 484 1032 434 
Q 1206 384 1419 384 
Q 1625 384 1781 437 
Q 1938 491 2044 587 
Q 2150 684 2203 817 
Q 2256 950 2256 1106 
Q 2256 1278 2189 1415 
Q 2122 1553 1992 1653 
Q 1863 1753 1673 1806 
Q 1484 1859 1244 1859 
L 859 1859 
Q 834 1859 811 1870 
Q 788 1881 770 1906 
Q 753 1931 742 1972 
Q 731 2013 731 2078 
Q 731 2138 740 2177 
Q 750 2216 767 2239 
Q 784 2263 806 2273 
Q 828 2284 856 2284 
L 1209 2284 
Q 1416 2284 1580 2337 
Q 1744 2391 1858 2491 
Q 1972 2591 2033 2730 
Q 2094 2869 2094 3041 
Q 2094 3166 2053 3280 
Q 2013 3394 1931 3478 
Q 1850 3563 1723 3611 
Q 1597 3659 1431 3659 
Q 1250 3659 1098 3604 
Q 947 3550 828 3487 
Q 709 3425 631 3370 
Q 553 3316 522 3316 
Q 500 3316 483 3323 
Q 466 3331 455 3354 
Q 444 3378 439 3420 
Q 434 3463 434 3531 
Q 434 3578 437 3614 
Q 441 3650 450 3676 
Q 459 3703 471 3725 
Q 484 3747 514 3776 
Q 544 3806 634 3862 
Q 725 3919 858 3973 
Q 991 4028 1164 4065 
Q 1338 4103 1538 4103 
Q 1819 4103 2031 4031 
Q 2244 3959 2386 3828 
Q 2528 3697 2598 3514 
Q 2669 3331 2669 3109 
Q 2669 2919 2619 2755 
Q 2569 2591 2472 2464 
Q 2375 2338 2234 2248 
Q 2094 2159 1909 2125 
L 1909 2119 
Q 2119 2097 2292 2014 
Q 2466 1931 2591 1806 
Q 2716 1681 2786 1514 
Q 2856 1347 2856 1156 
z
" transform="scale(0.015625)"/>
       </defs>
       <use xlink:href="#Calibri-34"/>
       <use xlink:href="#Calibri-33" x="50.683594"/>
      </g>
     </g>
    </g>
    <g id="xtick_4">
     <g id="line2d_4">
      <g>
       <use xlink:href="#mec2a8049fc" x="202.749168" y="240.778286" style="stroke: #000000; stroke-width: 0.8"/>
      </g>
     </g>
     <g id="text_4">
      <!-- 64 -->
      <g transform="translate(196.666668 255.940161) scale(0.12 -0.12)">
       <defs>
        <path id="Calibri-36" d="M 2991 1309 
Q 2991 1044 2909 795 
Q 2828 547 2659 358 
Q 2491 169 2231 55 
Q 1972 -59 1619 -59 
Q 1366 -59 1172 3 
Q 978 66 834 181 
Q 691 297 595 465 
Q 500 634 442 850 
Q 384 1066 359 1322 
Q 334 1578 334 1872 
Q 334 2131 362 2397 
Q 391 2663 462 2909 
Q 534 3156 657 3373 
Q 781 3591 967 3752 
Q 1153 3913 1412 4006 
Q 1672 4100 2016 4100 
Q 2131 4100 2250 4086 
Q 2369 4072 2469 4048 
Q 2569 4025 2637 3997 
Q 2706 3969 2728 3951 
Q 2750 3934 2761 3914 
Q 2772 3894 2778 3870 
Q 2784 3847 2787 3817 
Q 2791 3788 2791 3744 
Q 2791 3688 2789 3647 
Q 2788 3606 2777 3581 
Q 2766 3556 2748 3543 
Q 2731 3531 2703 3531 
Q 2669 3531 2609 3553 
Q 2550 3575 2465 3601 
Q 2381 3628 2261 3650 
Q 2141 3672 1981 3672 
Q 1691 3672 1481 3553 
Q 1272 3434 1139 3234 
Q 1006 3034 942 2770 
Q 878 2506 869 2219 
Q 950 2266 1051 2312 
Q 1153 2359 1273 2396 
Q 1394 2434 1528 2457 
Q 1663 2481 1816 2481 
Q 2144 2481 2369 2392 
Q 2594 2303 2733 2145 
Q 2872 1988 2931 1773 
Q 2991 1559 2991 1309 
z
M 2447 1259 
Q 2447 1441 2411 1589 
Q 2375 1738 2290 1841 
Q 2206 1944 2065 2000 
Q 1925 2056 1719 2056 
Q 1603 2056 1487 2036 
Q 1372 2016 1264 1980 
Q 1156 1944 1057 1895 
Q 959 1847 878 1791 
Q 878 1388 929 1116 
Q 981 844 1079 680 
Q 1178 516 1325 445 
Q 1472 375 1669 375 
Q 1869 375 2016 450 
Q 2163 525 2259 651 
Q 2356 778 2401 936 
Q 2447 1094 2447 1259 
z
" transform="scale(0.015625)"/>
       </defs>
       <use xlink:href="#Calibri-36"/>
       <use xlink:href="#Calibri-34" x="50.683594"/>
      </g>
     </g>
    </g>
    <g id="xtick_5">
     <g id="line2d_5">
      <g>
       <use xlink:href="#mec2a8049fc" x="246.502367" y="240.778286" style="stroke: #000000; stroke-width: 0.8"/>
      </g>
     </g>
     <g id="text_5">
      <!--      86$_{max}$ -->
      <g transform="translate(224.242367 255.913911) scale(0.12 -0.12)">
       <defs>
        <path id="Calibri-20" transform="scale(0.015625)"/>
        <path id="Calibri-38" d="M 2981 1038 
Q 2981 775 2887 570 
Q 2794 366 2617 225 
Q 2441 84 2181 12 
Q 1922 -59 1588 -59 
Q 1275 -59 1028 6 
Q 781 72 609 200 
Q 438 328 347 515 
Q 256 703 256 944 
Q 256 1134 318 1293 
Q 381 1453 498 1587 
Q 616 1722 787 1839 
Q 959 1956 1175 2063 
Q 988 2159 844 2267 
Q 700 2375 600 2501 
Q 500 2628 448 2772 
Q 397 2916 397 3084 
Q 397 3297 473 3483 
Q 550 3669 704 3806 
Q 859 3944 1098 4023 
Q 1338 4103 1656 4103 
Q 1963 4103 2186 4029 
Q 2409 3956 2554 3829 
Q 2700 3703 2769 3531 
Q 2838 3359 2838 3163 
Q 2838 3003 2786 2856 
Q 2734 2709 2634 2578 
Q 2534 2447 2389 2333 
Q 2244 2219 2056 2119 
Q 2278 2009 2451 1893 
Q 2625 1778 2742 1645 
Q 2859 1513 2920 1364 
Q 2981 1216 2981 1038 
z
M 2306 3113 
Q 2306 3244 2261 3350 
Q 2216 3456 2128 3531 
Q 2041 3606 1911 3645 
Q 1781 3684 1616 3684 
Q 1278 3684 1104 3531 
Q 931 3378 931 3113 
Q 931 2991 973 2886 
Q 1016 2781 1105 2687 
Q 1194 2594 1330 2505 
Q 1466 2416 1653 2319 
Q 1969 2481 2137 2678 
Q 2306 2875 2306 3113 
z
M 2438 981 
Q 2438 1125 2384 1242 
Q 2331 1359 2223 1461 
Q 2116 1563 1955 1658 
Q 1794 1753 1581 1856 
Q 1384 1759 1236 1662 
Q 1088 1566 992 1462 
Q 897 1359 848 1245 
Q 800 1131 800 994 
Q 800 691 1008 525 
Q 1216 359 1628 359 
Q 2028 359 2233 526 
Q 2438 694 2438 981 
z
" transform="scale(0.015625)"/>
        <path id="DejaVuSans-Oblique-6d" d="M 5747 2113 
L 5338 0 
L 4763 0 
L 5166 2094 
Q 5191 2228 5203 2325 
Q 5216 2422 5216 2491 
Q 5216 2772 5059 2928 
Q 4903 3084 4622 3084 
Q 4203 3084 3875 2770 
Q 3547 2456 3450 1953 
L 3066 0 
L 2491 0 
L 2900 2094 
Q 2925 2209 2937 2307 
Q 2950 2406 2950 2484 
Q 2950 2769 2794 2926 
Q 2638 3084 2363 3084 
Q 1938 3084 1609 2770 
Q 1281 2456 1184 1953 
L 800 0 
L 225 0 
L 909 3500 
L 1484 3500 
L 1375 2956 
Q 1609 3263 1923 3423 
Q 2238 3584 2597 3584 
Q 2978 3584 3223 3384 
Q 3469 3184 3519 2828 
Q 3781 3197 4126 3390 
Q 4472 3584 4856 3584 
Q 5306 3584 5551 3325 
Q 5797 3066 5797 2591 
Q 5797 2488 5784 2364 
Q 5772 2241 5747 2113 
z
" transform="scale(0.015625)"/>
        <path id="DejaVuSans-Oblique-61" d="M 3438 1997 
L 3047 0 
L 2472 0 
L 2578 531 
Q 2325 219 2001 64 
Q 1678 -91 1281 -91 
Q 834 -91 548 182 
Q 263 456 263 884 
Q 263 1497 752 1853 
Q 1241 2209 2100 2209 
L 2900 2209 
L 2931 2363 
Q 2938 2388 2941 2417 
Q 2944 2447 2944 2509 
Q 2944 2788 2717 2942 
Q 2491 3097 2081 3097 
Q 1800 3097 1504 3025 
Q 1209 2953 897 2809 
L 997 3341 
Q 1322 3463 1633 3523 
Q 1944 3584 2234 3584 
Q 2853 3584 3176 3315 
Q 3500 3047 3500 2534 
Q 3500 2431 3484 2292 
Q 3469 2153 3438 1997 
z
M 2816 1759 
L 2241 1759 
Q 1534 1759 1195 1570 
Q 856 1381 856 984 
Q 856 709 1029 553 
Q 1203 397 1509 397 
Q 1978 397 2328 733 
Q 2678 1069 2791 1631 
L 2816 1759 
z
" transform="scale(0.015625)"/>
        <path id="DejaVuSans-Oblique-78" d="M 3841 3500 
L 2234 1784 
L 3219 0 
L 2559 0 
L 1819 1388 
L 531 0 
L -166 0 
L 1556 1844 
L 641 3500 
L 1300 3500 
L 1972 2234 
L 3144 3500 
L 3841 3500 
z
" transform="scale(0.015625)"/>
       </defs>
       <use xlink:href="#Calibri-20" transform="translate(0 0.890625)"/>
       <use xlink:href="#Calibri-20" transform="translate(22.607422 0.890625)"/>
       <use xlink:href="#Calibri-20" transform="translate(45.214844 0.890625)"/>
       <use xlink:href="#Calibri-20" transform="translate(67.822266 0.890625)"/>
       <use xlink:href="#Calibri-20" transform="translate(90.429688 0.890625)"/>
       <use xlink:href="#Calibri-38" transform="translate(113.037109 0.890625)"/>
       <use xlink:href="#Calibri-36" transform="translate(163.720703 0.890625)"/>
       <use xlink:href="#DejaVuSans-Oblique-6d" transform="translate(215.361328 -15.515625) scale(0.7)"/>
       <use xlink:href="#DejaVuSans-Oblique-61" transform="translate(283.549805 -15.515625) scale(0.7)"/>
       <use xlink:href="#DejaVuSans-Oblique-78" transform="translate(326.445312 -15.515625) scale(0.7)"/>
      </g>
     </g>
    </g>
    <g id="text_6">
     <!-- FM-LE -->
     <g transform="translate(156.945679 270.235786) scale(0.12 -0.12)">
      <defs>
       <path id="Calibri-46" d="M 2663 3813 
Q 2663 3753 2656 3709 
Q 2650 3666 2634 3639 
Q 2619 3613 2598 3600 
Q 2578 3588 2556 3588 
L 1075 3588 
L 1075 2213 
L 2475 2213 
Q 2497 2213 2517 2202 
Q 2538 2191 2553 2166 
Q 2569 2141 2575 2098 
Q 2581 2056 2581 1991 
Q 2581 1931 2575 1889 
Q 2569 1847 2553 1820 
Q 2538 1794 2517 1780 
Q 2497 1766 2475 1766 
L 1075 1766 
L 1075 81 
Q 1075 59 1062 39 
Q 1050 19 1019 8 
Q 988 -3 938 -11 
Q 888 -19 806 -19 
Q 731 -19 678 -11 
Q 625 -3 594 8 
Q 563 19 550 39 
Q 538 59 538 81 
L 538 3825 
Q 538 3947 602 3995 
Q 666 4044 738 4044 
L 2556 4044 
Q 2578 4044 2598 4031 
Q 2619 4019 2634 3991 
Q 2650 3963 2656 3917 
Q 2663 3872 2663 3813 
z
" transform="scale(0.015625)"/>
       <path id="Calibri-4d" d="M 4934 81 
Q 4934 56 4921 37 
Q 4909 19 4878 8 
Q 4847 -3 4798 -11 
Q 4750 -19 4672 -19 
Q 4600 -19 4548 -11 
Q 4497 -3 4467 8 
Q 4438 19 4425 37 
Q 4413 56 4413 81 
L 4413 3603 
L 4406 3603 
L 2966 66 
Q 2956 44 2939 28 
Q 2922 13 2889 2 
Q 2856 -9 2811 -14 
Q 2766 -19 2703 -19 
Q 2638 -19 2591 -12 
Q 2544 -6 2512 5 
Q 2481 16 2464 31 
Q 2447 47 2441 66 
L 1063 3603 
L 1059 3603 
L 1059 81 
Q 1059 56 1046 37 
Q 1034 19 1003 8 
Q 972 -3 922 -11 
Q 872 -19 794 -19 
Q 719 -19 669 -11 
Q 619 -3 589 8 
Q 559 19 548 37 
Q 538 56 538 81 
L 538 3800 
Q 538 3931 606 3987 
Q 675 4044 759 4044 
L 1084 4044 
Q 1184 4044 1259 4025 
Q 1334 4006 1390 3965 
Q 1447 3925 1484 3862 
Q 1522 3800 1550 3716 
L 2722 788 
L 2738 788 
L 3956 3706 
Q 3991 3800 4031 3865 
Q 4072 3931 4120 3970 
Q 4169 4009 4228 4026 
Q 4288 4044 4366 4044 
L 4706 4044 
Q 4753 4044 4795 4030 
Q 4838 4016 4867 3986 
Q 4897 3956 4915 3911 
Q 4934 3866 4934 3800 
L 4934 81 
z
" transform="scale(0.015625)"/>
       <path id="Calibri-2d" d="M 1744 1578 
Q 1744 1456 1716 1409 
Q 1688 1363 1634 1363 
L 328 1363 
Q 272 1363 244 1411 
Q 216 1459 216 1578 
Q 216 1697 244 1744 
Q 272 1791 328 1791 
L 1634 1791 
Q 1659 1791 1679 1781 
Q 1700 1772 1714 1745 
Q 1728 1719 1736 1678 
Q 1744 1638 1744 1578 
z
" transform="scale(0.015625)"/>
       <path id="Calibri-4c" d="M 2634 234 
Q 2634 172 2628 130 
Q 2622 88 2608 58 
Q 2594 28 2573 14 
Q 2553 0 2525 0 
L 738 0 
Q 666 0 602 48 
Q 538 97 538 219 
L 538 3963 
Q 538 3988 550 4006 
Q 563 4025 594 4036 
Q 625 4047 678 4055 
Q 731 4063 806 4063 
Q 884 4063 936 4055 
Q 988 4047 1019 4036 
Q 1050 4025 1062 4006 
Q 1075 3988 1075 3963 
L 1075 466 
L 2525 466 
Q 2553 466 2573 452 
Q 2594 438 2608 411 
Q 2622 384 2628 340 
Q 2634 297 2634 234 
z
" transform="scale(0.015625)"/>
       <path id="Calibri-45" d="M 2788 222 
Q 2788 166 2781 123 
Q 2775 81 2759 53 
Q 2744 25 2723 12 
Q 2703 0 2678 0 
L 738 0 
Q 666 0 602 48 
Q 538 97 538 219 
L 538 3825 
Q 538 3947 602 3995 
Q 666 4044 738 4044 
L 2656 4044 
Q 2681 4044 2701 4031 
Q 2722 4019 2734 3991 
Q 2747 3963 2755 3920 
Q 2763 3878 2763 3816 
Q 2763 3759 2755 3717 
Q 2747 3675 2734 3648 
Q 2722 3622 2701 3609 
Q 2681 3597 2656 3597 
L 1075 3597 
L 1075 2328 
L 2431 2328 
Q 2456 2328 2476 2314 
Q 2497 2300 2511 2275 
Q 2525 2250 2531 2206 
Q 2538 2163 2538 2103 
Q 2538 2047 2531 2006 
Q 2525 1966 2511 1941 
Q 2497 1916 2476 1905 
Q 2456 1894 2431 1894 
L 1075 1894 
L 1075 447 
L 2678 447 
Q 2703 447 2723 434 
Q 2744 422 2759 395 
Q 2775 369 2781 326 
Q 2788 284 2788 222 
z
" transform="scale(0.015625)"/>
      </defs>
      <use xlink:href="#Calibri-46"/>
      <use xlink:href="#Calibri-4d" x="45.947266"/>
      <use xlink:href="#Calibri-2d" x="131.445312"/>
      <use xlink:href="#Calibri-4c" x="162.060547"/>
      <use xlink:href="#Calibri-45" x="204.101562"/>
     </g>
    </g>
   </g>
   <g id="matplotlib.axis_2">
    <g id="ytick_1">
     <g id="line2d_6">
      <defs>
       <path id="mc5f3fd1820" d="M 0 0 
L -3.5 0 
" style="stroke: #000000; stroke-width: 0.8"/>
      </defs>
      <g>
       <use xlink:href="#mc5f3fd1820" x="71.489572" y="240.778286" style="stroke: #000000; stroke-width: 0.8"/>
      </g>
     </g>
     <g id="text_7">
      <!-- 0 -->
      <g transform="translate(58.407072 244.859223) scale(0.12 -0.12)">
       <use xlink:href="#Calibri-30"/>
      </g>
     </g>
    </g>
    <g id="ytick_2">
     <g id="line2d_7">
      <g>
       <use xlink:href="#mc5f3fd1820" x="71.489572" y="191.252571" style="stroke: #000000; stroke-width: 0.8"/>
      </g>
     </g>
     <g id="text_8">
      <!-- 31 -->
      <g transform="translate(52.324572 195.333509) scale(0.12 -0.12)">
       <use xlink:href="#Calibri-33"/>
       <use xlink:href="#Calibri-31" x="50.683594"/>
      </g>
     </g>
    </g>
    <g id="ytick_3">
     <g id="line2d_8">
      <g>
       <use xlink:href="#mc5f3fd1820" x="71.489572" y="141.726857" style="stroke: #000000; stroke-width: 0.8"/>
      </g>
     </g>
     <g id="text_9">
      <!-- 63 -->
      <g transform="translate(52.324572 145.807795) scale(0.12 -0.12)">
       <use xlink:href="#Calibri-36"/>
       <use xlink:href="#Calibri-33" x="50.683594"/>
      </g>
     </g>
    </g>
    <g id="ytick_4">
     <g id="line2d_9">
      <g>
       <use xlink:href="#mc5f3fd1820" x="71.489572" y="92.201143" style="stroke: #000000; stroke-width: 0.8"/>
      </g>
     </g>
     <g id="text_10">
      <!-- 94 -->
      <g transform="translate(52.324572 96.28208) scale(0.12 -0.12)">
       <defs>
        <path id="Calibri-39" d="M 2919 2181 
Q 2919 1919 2887 1650 
Q 2856 1381 2781 1132 
Q 2706 884 2579 667 
Q 2453 450 2261 287 
Q 2069 125 1805 33 
Q 1541 -59 1191 -59 
Q 1056 -59 929 -42 
Q 803 -25 701 0 
Q 600 25 531 53 
Q 463 81 431 109 
Q 400 138 386 186 
Q 372 234 372 316 
Q 372 384 376 425 
Q 381 466 390 487 
Q 400 509 417 517 
Q 434 525 459 525 
Q 494 525 556 501 
Q 619 478 714 450 
Q 809 422 937 398 
Q 1066 375 1225 375 
Q 1528 375 1745 492 
Q 1963 609 2100 806 
Q 2238 1003 2306 1262 
Q 2375 1522 2381 1809 
Q 2216 1713 1984 1638 
Q 1753 1563 1453 1563 
Q 1116 1563 886 1655 
Q 656 1747 517 1906 
Q 378 2066 317 2284 
Q 256 2503 256 2763 
Q 256 3031 334 3273 
Q 413 3516 578 3700 
Q 744 3884 1000 3993 
Q 1256 4103 1613 4103 
Q 1866 4103 2061 4039 
Q 2256 3975 2400 3854 
Q 2544 3734 2644 3564 
Q 2744 3394 2805 3178 
Q 2866 2963 2892 2711 
Q 2919 2459 2919 2181 
z
M 2372 2241 
Q 2372 2641 2319 2914 
Q 2266 3188 2162 3356 
Q 2059 3525 1909 3600 
Q 1759 3675 1563 3675 
Q 1359 3675 1215 3601 
Q 1072 3528 980 3404 
Q 888 3281 844 3125 
Q 800 2969 800 2803 
Q 800 2619 839 2466 
Q 878 2313 965 2206 
Q 1053 2100 1193 2042 
Q 1334 1984 1541 1984 
Q 1775 1984 1994 2054 
Q 2213 2125 2372 2241 
z
" transform="scale(0.015625)"/>
       </defs>
       <use xlink:href="#Calibri-39"/>
       <use xlink:href="#Calibri-34" x="50.683594"/>
      </g>
     </g>
    </g>
    <g id="ytick_5">
     <g id="line2d_10">
      <g>
       <use xlink:href="#mc5f3fd1820" x="71.489572" y="42.675429" style="stroke: #000000; stroke-width: 0.8"/>
      </g>
     </g>
     <g id="text_11">
      <!-- 126$_{max}$ -->
      <g transform="translate(27.409572 46.743241) scale(0.12 -0.12)">
       <use xlink:href="#Calibri-31" transform="translate(0 0.890625)"/>
       <use xlink:href="#Calibri-32" transform="translate(50.683594 0.890625)"/>
       <use xlink:href="#Calibri-36" transform="translate(101.367188 0.890625)"/>
       <use xlink:href="#DejaVuSans-Oblique-6d" transform="translate(153.007812 -15.515625) scale(0.7)"/>
       <use xlink:href="#DejaVuSans-Oblique-61" transform="translate(221.196289 -15.515625) scale(0.7)"/>
       <use xlink:href="#DejaVuSans-Oblique-78" transform="translate(264.091797 -15.515625) scale(0.7)"/>
      </g>
     </g>
    </g>
    <g id="text_12">
     <!-- FM-UE -->
     <g transform="translate(21.275822 143.371955) rotate(-90) scale(0.12 -0.12)">
      <defs>
       <path id="Calibri-55" d="M 3578 1494 
Q 3578 1125 3470 836 
Q 3363 547 3163 347 
Q 2963 147 2675 44 
Q 2388 -59 2022 -59 
Q 1688 -59 1413 37 
Q 1138 134 941 323 
Q 744 513 637 797 
Q 531 1081 531 1453 
L 531 3963 
Q 531 3988 543 4006 
Q 556 4025 587 4036 
Q 619 4047 669 4055 
Q 719 4063 800 4063 
Q 875 4063 928 4055 
Q 981 4047 1011 4036 
Q 1041 4025 1053 4006 
Q 1066 3988 1066 3963 
L 1066 1519 
Q 1066 1238 1134 1028 
Q 1203 819 1333 680 
Q 1463 541 1645 470 
Q 1828 400 2056 400 
Q 2291 400 2473 469 
Q 2656 538 2782 675 
Q 2909 813 2976 1016 
Q 3044 1219 3044 1491 
L 3044 3963 
Q 3044 3988 3056 4006 
Q 3069 4025 3100 4036 
Q 3131 4047 3182 4055 
Q 3234 4063 3313 4063 
Q 3388 4063 3439 4055 
Q 3491 4047 3520 4036 
Q 3550 4025 3564 4006 
Q 3578 3988 3578 3963 
L 3578 1494 
z
" transform="scale(0.015625)"/>
      </defs>
      <use xlink:href="#Calibri-46"/>
      <use xlink:href="#Calibri-4d" x="45.947266"/>
      <use xlink:href="#Calibri-2d" x="131.445312"/>
      <use xlink:href="#Calibri-55" x="162.060547"/>
      <use xlink:href="#Calibri-45" x="226.220703"/>
     </g>
    </g>
   </g>
   <g id="QuadContourSet_1">
    <path d="M 71.489572 84.510969 
L 74.523713 84.510969 
L 75.535094 85.655785 
L 78.569235 85.655785 
L 79.580616 86.8006 
L 82.614757 86.8006 
L 83.626138 87.945416 
L 87.671659 87.945416 
L 88.68304 89.090231 
L 91.717181 89.090231 
L 92.728562 90.235047 
L 95.762703 90.235047 
L 96.774084 91.379862 
L 100.819606 91.379862 
L 101.830986 92.524678 
L 104.865127 92.524678 
L 105.876508 93.669493 
L 108.910649 93.669493 
L 109.92203 94.814309 
L 113.967552 94.814309 
L 114.978932 95.959124 
L 118.013074 95.959124 
L 119.024454 97.10394 
L 122.058595 97.10394 
L 123.069976 98.248755 
L 127.115498 98.248755 
L 128.126878 99.393571 
L 131.16102 99.393571 
L 132.1724 100.538386 
L 135.206542 100.538386 
L 136.217922 101.683202 
L 139.252063 101.683202 
L 140.263444 102.828017 
L 144.308966 102.828017 
L 145.320346 103.972833 
L 148.354488 103.972833 
L 149.365868 105.117648 
L 152.40001 105.117648 
L 153.41139 106.262464 
L 157.456912 106.262464 
L 158.468292 107.407279 
L 161.502434 107.407279 
L 162.513814 108.552095 
L 165.547956 108.552095 
L 166.559336 109.69691 
L 170.604858 109.69691 
L 171.616239 110.841726 
L 174.65038 110.841726 
L 175.66176 111.986541 
L 178.695902 111.986541 
L 179.707282 113.131357 
L 182.741424 113.131357 
L 183.752804 114.276172 
L 187.798326 114.276172 
L 188.809707 115.420988 
L 191.843848 115.420988 
L 192.855228 116.565803 
L 195.88937 116.565803 
L 196.90075 117.710619 
L 200.946272 117.710619 
L 201.957653 118.855434 
L 204.991794 118.855434 
L 206.003175 120.00025 
L 209.037316 120.00025 
L 210.048696 121.145065 
L 214.094218 121.145065 
L 215.105599 122.289881 
L 218.13974 122.289881 
L 219.151121 123.434696 
L 222.185262 123.434696 
L 223.196643 124.579512 
L 227.242164 124.579512 
L 228.253545 125.724327 
L 231.287686 125.724327 
L 232.299067 126.869143 
L 235.333208 126.869143 
L 236.344589 128.013958 
L 239.37873 128.013958 
L 240.390111 129.158774 
L 244.435633 129.158774 
L 245.447013 130.303589 
L 248.481154 130.303589 
L 249.492535 131.448405 
L 252.526676 131.448405 
L 253.538057 132.59322 
L 257.583579 132.59322 
L 258.594959 133.738036 
L 261.629101 133.738036 
L 262.640481 134.882851 
L 265.674622 134.882851 
L 266.686003 136.027667 
L 270.731525 136.027667 
L 271.742905 137.172482 
L 272.754286 137.172482 
L 272.754286 137.172482 
" clip-path="url(#p2f733eb19e)" style="fill: none; stroke-dasharray: 3.7,1.6; stroke-dashoffset: 0; stroke: #808080"/>
   </g>
   <g id="PathCollection_1">
    <defs>
     <path id="m0e7e1eb619" d="M 0 1.581139 
C 0.419323 1.581139 0.821528 1.41454 1.118034 1.118034 
C 1.41454 0.821528 1.581139 0.419323 1.581139 0 
C 1.581139 -0.419323 1.41454 -0.821528 1.118034 -1.118034 
C 0.821528 -1.41454 0.419323 -1.581139 0 -1.581139 
C -0.419323 -1.581139 -0.821528 -1.41454 -1.118034 -1.118034 
C -1.41454 -0.821528 -1.581139 -0.419323 -1.581139 0 
C -1.581139 0.419323 -1.41454 0.821528 -1.118034 1.118034 
C -0.821528 1.41454 -0.419323 1.581139 0 1.581139 
z
" style="stroke: #000000"/>
    </defs>
    <g clip-path="url(#p2f733eb19e)">
     <use xlink:href="#m0e7e1eb619" x="240.397269" y="94.55951" style="fill: #008000; stroke: #000000"/>
     <use xlink:href="#m0e7e1eb619" x="244.467334" y="70.975837" style="fill: #008000; stroke: #000000"/>
     <use xlink:href="#m0e7e1eb619" x="246.502367" y="58.397878" style="fill: #008000; stroke: #000000"/>
    </g>
   </g>
   <g id="PathCollection_2">
    <g clip-path="url(#p2f733eb19e)">
     <use xlink:href="#m0e7e1eb619" x="207.836749" y="89.842776" style="fill: #008000; stroke: #000000"/>
     <use xlink:href="#m0e7e1eb619" x="224.117009" y="108.709714" style="fill: #008000; stroke: #000000"/>
     <use xlink:href="#m0e7e1eb619" x="234.292172" y="102.420735" style="fill: #008000; stroke: #000000"/>
    </g>
   </g>
   <g id="PathCollection_3">
    <g clip-path="url(#p2f733eb19e)">
     <use xlink:href="#m0e7e1eb619" x="232.257139" y="100.84849" style="fill: #008000; stroke: #000000"/>
     <use xlink:href="#m0e7e1eb619" x="224.117009" y="96.131755" style="fill: #008000; stroke: #000000"/>
     <use xlink:href="#m0e7e1eb619" x="244.467334" y="56.825633" style="fill: #008000; stroke: #000000"/>
    </g>
   </g>
   <g id="PathCollection_4">
    <g clip-path="url(#p2f733eb19e)">
     <use xlink:href="#m0e7e1eb619" x="191.556489" y="100.84849" style="fill: #008000; stroke: #000000"/>
     <use xlink:href="#m0e7e1eb619" x="238.362237" y="69.403592" style="fill: #008000; stroke: #000000"/>
     <use xlink:href="#m0e7e1eb619" x="246.502367" y="53.681143" style="fill: #008000; stroke: #000000"/>
    </g>
   </g>
   <g id="PathCollection_5">
    <defs>
     <path id="m4d7b67514e" d="M 0 1.581139 
C 0.419323 1.581139 0.821528 1.41454 1.118034 1.118034 
C 1.41454 0.821528 1.581139 0.419323 1.581139 0 
C 1.581139 -0.419323 1.41454 -0.821528 1.118034 -1.118034 
C 0.821528 -1.41454 0.419323 -1.581139 0 -1.581139 
C -0.419323 -1.581139 -0.821528 -1.41454 -1.118034 -1.118034 
C -1.41454 -0.821528 -1.581139 -0.419323 -1.581139 0 
C -1.581139 0.419323 -1.41454 0.821528 -1.118034 1.118034 
C -0.821528 1.41454 -0.419323 1.581139 0 1.581139 
z
" style="stroke: #000000"/>
    </defs>
    <g clip-path="url(#p2f733eb19e)">
     <use xlink:href="#m4d7b67514e" x="177.311262" y="124.432163" style="fill: #ff0000; stroke: #000000"/>
     <use xlink:href="#m4d7b67514e" x="244.467334" y="83.553796" style="fill: #ff0000; stroke: #000000"/>
     <use xlink:href="#m4d7b67514e" x="232.257139" y="64.686857" style="fill: #ff0000; stroke: #000000"/>
    </g>
   </g>
   <g id="PathCollection_6">
    <g clip-path="url(#p2f733eb19e)">
     <use xlink:href="#m0e7e1eb619" x="236.327204" y="77.264816" style="fill: #008000; stroke: #000000"/>
     <use xlink:href="#m0e7e1eb619" x="246.502367" y="42.675429" style="fill: #008000; stroke: #000000"/>
     <use xlink:href="#m0e7e1eb619" x="232.257139" y="47.392163" style="fill: #008000; stroke: #000000"/>
    </g>
   </g>
   <g id="PathCollection_7">
    <g clip-path="url(#p2f733eb19e)">
     <use xlink:href="#m0e7e1eb619" x="181.381327" y="92.987265" style="fill: #008000; stroke: #000000"/>
     <use xlink:href="#m0e7e1eb619" x="209.871782" y="114.998694" style="fill: #008000; stroke: #000000"/>
     <use xlink:href="#m0e7e1eb619" x="238.362237" y="45.819918" style="fill: #008000; stroke: #000000"/>
    </g>
   </g>
   <g id="PathCollection_8">
    <g clip-path="url(#p2f733eb19e)">
     <use xlink:href="#m4d7b67514e" x="144.750742" y="174.744" style="fill: #ff0000; stroke: #000000"/>
     <use xlink:href="#m4d7b67514e" x="124.400417" y="176.316245" style="fill: #ff0000; stroke: #000000"/>
     <use xlink:href="#m4d7b67514e" x="142.715709" y="177.88849" style="fill: #ff0000; stroke: #000000"/>
    </g>
   </g>
   <g id="PathCollection_9">
    <g clip-path="url(#p2f733eb19e)">
     <use xlink:href="#m0e7e1eb619" x="205.801717" y="110.281959" style="fill: #008000; stroke: #000000"/>
     <use xlink:href="#m0e7e1eb619" x="234.292172" y="52.108898" style="fill: #008000; stroke: #000000"/>
     <use xlink:href="#m0e7e1eb619" x="246.502367" y="42.675429" style="fill: #008000; stroke: #000000"/>
    </g>
   </g>
   <g id="PathCollection_10">
    <g clip-path="url(#p2f733eb19e)">
     <use xlink:href="#m4d7b67514e" x="173.241197" y="149.588082" style="fill: #ff0000; stroke: #000000"/>
     <use xlink:href="#m4d7b67514e" x="187.486424" y="110.281959" style="fill: #ff0000; stroke: #000000"/>
     <use xlink:href="#m4d7b67514e" x="224.117009" y="100.84849" style="fill: #ff0000; stroke: #000000"/>
    </g>
   </g>
   <g id="PathCollection_11">
    <g clip-path="url(#p2f733eb19e)">
     <use xlink:href="#m4d7b67514e" x="224.117009" y="149.588082" style="fill: #ff0000; stroke: #000000"/>
     <use xlink:href="#m4d7b67514e" x="242.432302" y="127.576653" style="fill: #ff0000; stroke: #000000"/>
     <use xlink:href="#m4d7b67514e" x="244.467334" y="108.709714" style="fill: #ff0000; stroke: #000000"/>
    </g>
   </g>
   <g id="PathCollection_12">
    <g clip-path="url(#p2f733eb19e)">
     <use xlink:href="#m0e7e1eb619" x="242.432302" y="96.131755" style="fill: #008000; stroke: #000000"/>
     <use xlink:href="#m0e7e1eb619" x="242.432302" y="66.259102" style="fill: #008000; stroke: #000000"/>
     <use xlink:href="#m0e7e1eb619" x="244.467334" y="89.842776" style="fill: #008000; stroke: #000000"/>
    </g>
   </g>
   <g id="PathCollection_13">
    <g clip-path="url(#p2f733eb19e)">
     <use xlink:href="#m0e7e1eb619" x="185.451392" y="86.698286" style="fill: #008000; stroke: #000000"/>
     <use xlink:href="#m0e7e1eb619" x="232.257139" y="75.692571" style="fill: #008000; stroke: #000000"/>
     <use xlink:href="#m0e7e1eb619" x="240.397269" y="94.55951" style="fill: #008000; stroke: #000000"/>
    </g>
   </g>
   <g id="PathCollection_14">
    <g clip-path="url(#p2f733eb19e)">
     <use xlink:href="#m0e7e1eb619" x="226.152042" y="105.565224" style="fill: #008000; stroke: #000000"/>
     <use xlink:href="#m0e7e1eb619" x="242.432302" y="47.392163" style="fill: #008000; stroke: #000000"/>
     <use xlink:href="#m0e7e1eb619" x="246.502367" y="42.675429" style="fill: #008000; stroke: #000000"/>
    </g>
   </g>
   <g id="PathCollection_15">
    <g clip-path="url(#p2f733eb19e)">
     <use xlink:href="#m4d7b67514e" x="167.136099" y="146.443592" style="fill: #ff0000; stroke: #000000"/>
     <use xlink:href="#m4d7b67514e" x="201.731652" y="89.842776" style="fill: #ff0000; stroke: #000000"/>
     <use xlink:href="#m4d7b67514e" x="240.397269" y="52.108898" style="fill: #ff0000; stroke: #000000"/>
    </g>
   </g>
   <g id="PathCollection_16">
    <g clip-path="url(#p2f733eb19e)">
     <use xlink:href="#m4d7b67514e" x="175.276229" y="165.310531" style="fill: #ff0000; stroke: #000000"/>
     <use xlink:href="#m4d7b67514e" x="228.187074" y="146.443592" style="fill: #ff0000; stroke: #000000"/>
     <use xlink:href="#m4d7b67514e" x="232.257139" y="119.715429" style="fill: #ff0000; stroke: #000000"/>
    </g>
   </g>
   <g id="PathCollection_17">
    <g clip-path="url(#p2f733eb19e)">
     <use xlink:href="#m0e7e1eb619" x="232.257139" y="64.686857" style="fill: #008000; stroke: #000000"/>
     <use xlink:href="#m0e7e1eb619" x="240.397269" y="70.975837" style="fill: #008000; stroke: #000000"/>
     <use xlink:href="#m0e7e1eb619" x="246.502367" y="44.247673" style="fill: #008000; stroke: #000000"/>
    </g>
   </g>
   <g id="PathCollection_18">
    <g clip-path="url(#p2f733eb19e)">
     <use xlink:href="#m4d7b67514e" x="191.556489" y="146.443592" style="fill: #ff0000; stroke: #000000"/>
     <use xlink:href="#m4d7b67514e" x="211.906814" y="135.437878" style="fill: #ff0000; stroke: #000000"/>
     <use xlink:href="#m4d7b67514e" x="230.222107" y="107.137469" style="fill: #ff0000; stroke: #000000"/>
    </g>
   </g>
   <g id="PathCollection_19">
    <g clip-path="url(#p2f733eb19e)">
     <use xlink:href="#m0e7e1eb619" x="203.766684" y="88.270531" style="fill: #008000; stroke: #000000"/>
     <use xlink:href="#m0e7e1eb619" x="203.766684" y="140.154612" style="fill: #008000; stroke: #000000"/>
     <use xlink:href="#m0e7e1eb619" x="232.257139" y="146.443592" style="fill: #008000; stroke: #000000"/>
    </g>
   </g>
   <g id="PathCollection_20">
    <g clip-path="url(#p2f733eb19e)">
     <use xlink:href="#m4d7b67514e" x="228.187074" y="152.732571" style="fill: #ff0000; stroke: #000000"/>
     <use xlink:href="#m4d7b67514e" x="236.327204" y="122.859918" style="fill: #ff0000; stroke: #000000"/>
     <use xlink:href="#m4d7b67514e" x="240.397269" y="119.715429" style="fill: #ff0000; stroke: #000000"/>
    </g>
   </g>
   <g id="PathCollection_21">
    <g clip-path="url(#p2f733eb19e)">
     <use xlink:href="#m0e7e1eb619" x="197.661587" y="69.403592" style="fill: #008000; stroke: #000000"/>
     <use xlink:href="#m0e7e1eb619" x="246.502367" y="53.681143" style="fill: #008000; stroke: #000000"/>
     <use xlink:href="#m0e7e1eb619" x="246.502367" y="42.675429" style="fill: #008000; stroke: #000000"/>
    </g>
   </g>
   <g id="PathCollection_22">
    <g clip-path="url(#p2f733eb19e)">
     <use xlink:href="#m0e7e1eb619" x="213.941847" y="92.987265" style="fill: #008000; stroke: #000000"/>
     <use xlink:href="#m0e7e1eb619" x="218.011912" y="74.120327" style="fill: #008000; stroke: #000000"/>
     <use xlink:href="#m0e7e1eb619" x="246.502367" y="42.675429" style="fill: #008000; stroke: #000000"/>
    </g>
   </g>
   <g id="PathCollection_23">
    <g clip-path="url(#p2f733eb19e)">
     <use xlink:href="#m0e7e1eb619" x="240.397269" y="64.686857" style="fill: #008000; stroke: #000000"/>
     <use xlink:href="#m0e7e1eb619" x="228.187074" y="81.981551" style="fill: #008000; stroke: #000000"/>
     <use xlink:href="#m0e7e1eb619" x="246.502367" y="42.675429" style="fill: #008000; stroke: #000000"/>
    </g>
   </g>
   <g id="PathCollection_24">
    <g clip-path="url(#p2f733eb19e)">
     <use xlink:href="#m0e7e1eb619" x="203.766684" y="94.55951" style="fill: #008000; stroke: #000000"/>
     <use xlink:href="#m0e7e1eb619" x="246.502367" y="64.686857" style="fill: #008000; stroke: #000000"/>
     <use xlink:href="#m0e7e1eb619" x="240.397269" y="59.970122" style="fill: #008000; stroke: #000000"/>
    </g>
   </g>
   <g id="PathCollection_25">
    <g clip-path="url(#p2f733eb19e)">
     <use xlink:href="#m0e7e1eb619" x="185.451392" y="99.276245" style="fill: #008000; stroke: #000000"/>
     <use xlink:href="#m0e7e1eb619" x="215.976879" y="85.126041" style="fill: #008000; stroke: #000000"/>
     <use xlink:href="#m0e7e1eb619" x="222.081977" y="94.55951" style="fill: #008000; stroke: #000000"/>
    </g>
   </g>
   <g id="PathCollection_26">
    <g clip-path="url(#p2f733eb19e)">
     <use xlink:href="#m4d7b67514e" x="165.101067" y="155.877061" style="fill: #ff0000; stroke: #000000"/>
     <use xlink:href="#m4d7b67514e" x="185.451392" y="155.877061" style="fill: #ff0000; stroke: #000000"/>
     <use xlink:href="#m4d7b67514e" x="177.311262" y="163.738286" style="fill: #ff0000; stroke: #000000"/>
    </g>
   </g>
   <g id="PathCollection_27">
    <g clip-path="url(#p2f733eb19e)">
     <use xlink:href="#m4d7b67514e" x="173.241197" y="155.877061" style="fill: #ff0000; stroke: #000000"/>
     <use xlink:href="#m4d7b67514e" x="144.750742" y="149.588082" style="fill: #ff0000; stroke: #000000"/>
     <use xlink:href="#m4d7b67514e" x="173.241197" y="166.882776" style="fill: #ff0000; stroke: #000000"/>
    </g>
   </g>
   <g id="PathCollection_28">
    <g clip-path="url(#p2f733eb19e)">
     <use xlink:href="#m0e7e1eb619" x="197.661587" y="66.259102" style="fill: #008000; stroke: #000000"/>
     <use xlink:href="#m0e7e1eb619" x="228.187074" y="52.108898" style="fill: #008000; stroke: #000000"/>
     <use xlink:href="#m0e7e1eb619" x="234.292172" y="52.108898" style="fill: #008000; stroke: #000000"/>
    </g>
   </g>
   <g id="PathCollection_29">
    <g clip-path="url(#p2f733eb19e)">
     <use xlink:href="#m4d7b67514e" x="203.766684" y="146.443592" style="fill: #ff0000; stroke: #000000"/>
     <use xlink:href="#m4d7b67514e" x="171.206164" y="174.744" style="fill: #ff0000; stroke: #000000"/>
     <use xlink:href="#m4d7b67514e" x="232.257139" y="119.715429" style="fill: #ff0000; stroke: #000000"/>
    </g>
   </g>
   <g id="PathCollection_30">
    <g clip-path="url(#p2f733eb19e)">
     <use xlink:href="#m4d7b67514e" x="230.222107" y="140.154612" style="fill: #ff0000; stroke: #000000"/>
     <use xlink:href="#m4d7b67514e" x="244.467334" y="83.553796" style="fill: #ff0000; stroke: #000000"/>
     <use xlink:href="#m4d7b67514e" x="246.502367" y="50.536653" style="fill: #ff0000; stroke: #000000"/>
    </g>
   </g>
   <g id="PathCollection_31">
    <g clip-path="url(#p2f733eb19e)">
     <use xlink:href="#m4d7b67514e" x="185.451392" y="126.004408" style="fill: #ff0000; stroke: #000000"/>
     <use xlink:href="#m4d7b67514e" x="209.871782" y="103.99298" style="fill: #ff0000; stroke: #000000"/>
     <use xlink:href="#m4d7b67514e" x="232.257139" y="80.409306" style="fill: #ff0000; stroke: #000000"/>
    </g>
   </g>
   <g id="PathCollection_32">
    <g clip-path="url(#p2f733eb19e)">
     <use xlink:href="#m4d7b67514e" x="203.766684" y="140.154612" style="fill: #ff0000; stroke: #000000"/>
     <use xlink:href="#m4d7b67514e" x="230.222107" y="140.154612" style="fill: #ff0000; stroke: #000000"/>
     <use xlink:href="#m4d7b67514e" x="240.397269" y="94.55951" style="fill: #ff0000; stroke: #000000"/>
    </g>
   </g>
   <g id="PathCollection_33">
    <g clip-path="url(#p2f733eb19e)">
     <use xlink:href="#m4d7b67514e" x="163.066034" y="151.160327" style="fill: #ff0000; stroke: #000000"/>
     <use xlink:href="#m4d7b67514e" x="185.451392" y="85.126041" style="fill: #ff0000; stroke: #000000"/>
     <use xlink:href="#m4d7b67514e" x="213.941847" y="92.987265" style="fill: #ff0000; stroke: #000000"/>
    </g>
   </g>
   <g id="PathCollection_34">
    <g clip-path="url(#p2f733eb19e)">
     <use xlink:href="#m0e7e1eb619" x="207.836749" y="94.55951" style="fill: #008000; stroke: #000000"/>
     <use xlink:href="#m0e7e1eb619" x="211.906814" y="86.698286" style="fill: #008000; stroke: #000000"/>
     <use xlink:href="#m0e7e1eb619" x="240.397269" y="59.970122" style="fill: #008000; stroke: #000000"/>
    </g>
   </g>
   <g id="PathCollection_35">
    <g clip-path="url(#p2f733eb19e)">
     <use xlink:href="#m0e7e1eb619" x="209.871782" y="92.987265" style="fill: #008000; stroke: #000000"/>
     <use xlink:href="#m0e7e1eb619" x="207.836749" y="78.837061" style="fill: #008000; stroke: #000000"/>
     <use xlink:href="#m0e7e1eb619" x="234.292172" y="70.975837" style="fill: #008000; stroke: #000000"/>
    </g>
   </g>
   <g id="PathCollection_36">
    <g clip-path="url(#p2f733eb19e)">
     <use xlink:href="#m0e7e1eb619" x="246.502367" y="99.276245" style="fill: #008000; stroke: #000000"/>
     <use xlink:href="#m0e7e1eb619" x="232.257139" y="105.565224" style="fill: #008000; stroke: #000000"/>
     <use xlink:href="#m0e7e1eb619" x="246.502367" y="88.270531" style="fill: #008000; stroke: #000000"/>
    </g>
   </g>
   <g id="PathCollection_37">
    <g clip-path="url(#p2f733eb19e)">
     <use xlink:href="#m4d7b67514e" x="209.871782" y="126.004408" style="fill: #ff0000; stroke: #000000"/>
     <use xlink:href="#m4d7b67514e" x="185.451392" y="132.293388" style="fill: #ff0000; stroke: #000000"/>
     <use xlink:href="#m4d7b67514e" x="167.136099" y="110.281959" style="fill: #ff0000; stroke: #000000"/>
    </g>
   </g>
   <g id="patch_77">
    <path d="M 71.489572 240.778286 
L 71.489572 12.96 
" style="fill: none; stroke: #000000; stroke-width: 0.8; stroke-linejoin: miter; stroke-linecap: square"/>
   </g>
   <g id="patch_78">
    <path d="M 71.489572 240.778286 
L 272.754286 240.778286 
" style="fill: none; stroke: #000000; stroke-width: 0.8; stroke-linejoin: miter; stroke-linecap: square"/>
   </g>
  </g>
 </g>
 <defs>
  <clipPath id="p2f733eb19e">
   <rect x="71.489572" y="12.96" width="201.264714" height="227.818286"/>
  </clipPath>
 </defs>
</svg>
