<?xml version="1.0" encoding="utf-8" standalone="no"?>
<!DOCTYPE svg PUBLIC "-//W3C//DTD SVG 1.1//EN"
  "http://www.w3.org/Graphics/SVG/1.1/DTD/svg11.dtd">
<svg xmlns:xlink="http://www.w3.org/1999/xlink" width="510.23622pt" height="141.732283pt" viewBox="0 0 510.23622 141.732283" xmlns="http://www.w3.org/2000/svg" version="1.1">
 <metadata>
  <rdf:RDF xmlns:dc="http://purl.org/dc/elements/1.1/" xmlns:cc="http://creativecommons.org/ns#" xmlns:rdf="http://www.w3.org/1999/02/22-rdf-syntax-ns#">
   <cc:Work>
    <dc:type rdf:resource="http://purl.org/dc/dcmitype/StillImage"/>
    <dc:date>2025-04-13T17:31:45.858673</dc:date>
    <dc:format>image/svg+xml</dc:format>
    <dc:creator>
     <cc:Agent>
      <dc:title>Matplotlib v3.8.3, https://matplotlib.org/</dc:title>
     </cc:Agent>
    </dc:creator>
   </cc:Work>
  </rdf:RDF>
 </metadata>
 <defs>
  <style type="text/css">*{stroke-linejoin: round; stroke-linecap: butt}</style>
 </defs>
 <g id="figure_1">
  <g id="patch_1">
   <path d="M 0 141.732283 
L 510.23622 141.732283 
L 510.23622 0 
L 0 0 
z
" style="fill: #ffffff"/>
  </g>
  <g id="axes_1">
   <g id="patch_2">
    <path d="M 46.49 106.299213 
L 167.021075 106.299213 
L 167.021075 27.12 
L 46.49 27.12 
z
" style="fill: #ffffff"/>
   </g>
   <g id="PathCollection_1">
    <defs>
     <path id="m416b008e3b" d="M 0 1.936492 
C 0.513564 1.936492 1.006162 1.732451 1.369306 1.369306 
C 1.732451 1.006162 1.936492 0.513564 1.936492 0 
C 1.936492 -0.513564 1.732451 -1.006162 1.369306 -1.369306 
C 1.006162 -1.732451 0.513564 -1.936492 0 -1.936492 
C -0.513564 -1.936492 -1.006162 -1.732451 -1.369306 -1.369306 
C -1.732451 -1.006162 -1.936492 -0.513564 -1.936492 0 
C -1.936492 0.513564 -1.732451 1.006162 -1.369306 1.369306 
C -1.006162 1.732451 -0.513564 1.936492 0 1.936492 
z
" style="stroke: #e69f00; stroke-opacity: 0.9"/>
    </defs>
    <g clip-path="url(#p09db31c4c2)">
     <use xlink:href="#m416b008e3b" x="65.64661" y="70.728856" style="fill: #e69f00; fill-opacity: 0.9; stroke: #e69f00; stroke-opacity: 0.9"/>
     <use xlink:href="#m416b008e3b" x="113.159401" y="74.491985" style="fill: #e69f00; fill-opacity: 0.9; stroke: #e69f00; stroke-opacity: 0.9"/>
     <use xlink:href="#m416b008e3b" x="108.276142" y="68.810578" style="fill: #e69f00; fill-opacity: 0.9; stroke: #e69f00; stroke-opacity: 0.9"/>
     <use xlink:href="#m416b008e3b" x="118.30662" y="70.554467" style="fill: #e69f00; fill-opacity: 0.9; stroke: #e69f00; stroke-opacity: 0.9"/>
     <use xlink:href="#m416b008e3b" x="110.783761" y="73.089813" style="fill: #e69f00; fill-opacity: 0.9; stroke: #e69f00; stroke-opacity: 0.9"/>
     <use xlink:href="#m416b008e3b" x="88.97954" y="77.704412" style="fill: #e69f00; fill-opacity: 0.9; stroke: #e69f00; stroke-opacity: 0.9"/>
     <use xlink:href="#m416b008e3b" x="110.783761" y="81.017802" style="fill: #e69f00; fill-opacity: 0.9; stroke: #e69f00; stroke-opacity: 0.9"/>
     <use xlink:href="#m416b008e3b" x="103.260903" y="84.430842" style="fill: #e69f00; fill-opacity: 0.9; stroke: #e69f00; stroke-opacity: 0.9"/>
     <use xlink:href="#m416b008e3b" x="106.680384" y="96.887194" style="fill: #e69f00; fill-opacity: 0.9; stroke: #e69f00; stroke-opacity: 0.9"/>
     <use xlink:href="#m416b008e3b" x="51.968685" y="101.421305" style="fill: #e69f00; fill-opacity: 0.9; stroke: #e69f00; stroke-opacity: 0.9"/>
     <use xlink:href="#m416b008e3b" x="65.64661" y="95.666471" style="fill: #e69f00; fill-opacity: 0.9; stroke: #e69f00; stroke-opacity: 0.9"/>
     <use xlink:href="#m416b008e3b" x="92.197876" y="69.600457" style="fill: #e69f00; fill-opacity: 0.9; stroke: #e69f00; stroke-opacity: 0.9"/>
     <use xlink:href="#m416b008e3b" x="79.617633" y="73.469253" style="fill: #e69f00; fill-opacity: 0.9; stroke: #e69f00; stroke-opacity: 0.9"/>
     <use xlink:href="#m416b008e3b" x="110.783761" y="58.260048" style="fill: #e69f00; fill-opacity: 0.9; stroke: #e69f00; stroke-opacity: 0.9"/>
     <use xlink:href="#m416b008e3b" x="102.121076" y="86.96044" style="fill: #e69f00; fill-opacity: 0.9; stroke: #e69f00; stroke-opacity: 0.9"/>
     <use xlink:href="#m416b008e3b" x="73.169469" y="89.911637" style="fill: #e69f00; fill-opacity: 0.9; stroke: #e69f00; stroke-opacity: 0.9"/>
     <use xlink:href="#m416b008e3b" x="89.719757" y="71.496167" style="fill: #e69f00; fill-opacity: 0.9; stroke: #e69f00; stroke-opacity: 0.9"/>
     <use xlink:href="#m416b008e3b" x="64.213684" y="74.565412" style="fill: #e69f00; fill-opacity: 0.9; stroke: #e69f00; stroke-opacity: 0.9"/>
     <use xlink:href="#m416b008e3b" x="77.736918" y="79.526973" style="fill: #e69f00; fill-opacity: 0.9; stroke: #e69f00; stroke-opacity: 0.9"/>
     <use xlink:href="#m416b008e3b" x="73.169469" y="81.500725" style="fill: #e69f00; fill-opacity: 0.9; stroke: #e69f00; stroke-opacity: 0.9"/>
     <use xlink:href="#m416b008e3b" x="111.858456" y="67.988458" style="fill: #e69f00; fill-opacity: 0.9; stroke: #e69f00; stroke-opacity: 0.9"/>
     <use xlink:href="#m416b008e3b" x="99.157525" y="70.637072" style="fill: #e69f00; fill-opacity: 0.9; stroke: #e69f00; stroke-opacity: 0.9"/>
    </g>
   </g>
   <g id="PathCollection_2">
    <defs>
     <path id="m31475e5238" d="M -3.162278 3.162278 
L 3.162278 -3.162278 
M -3.162278 -3.162278 
L 3.162278 3.162278 
" style="stroke: #ff0000; stroke-opacity: 0.5; stroke-width: 1.5"/>
    </defs>
    <g clip-path="url(#p09db31c4c2)">
     <use xlink:href="#m31475e5238" x="106.680384" y="96.887194" style="fill: #ff0000; fill-opacity: 0.5; stroke: #ff0000; stroke-opacity: 0.5; stroke-width: 1.5"/>
    </g>
   </g>
   <g id="PathCollection_3">
    <defs>
     <path id="m69dedaae28" d="M 0 1.936492 
C 0.513564 1.936492 1.006162 1.732451 1.369306 1.369306 
C 1.732451 1.006162 1.936492 0.513564 1.936492 0 
C 1.936492 -0.513564 1.732451 -1.006162 1.369306 -1.369306 
C 1.006162 -1.732451 0.513564 -1.936492 0 -1.936492 
C -0.513564 -1.936492 -1.006162 -1.732451 -1.369306 -1.369306 
C -1.732451 -1.006162 -1.936492 -0.513564 -1.936492 0 
C -1.936492 0.513564 -1.732451 1.006162 -1.369306 1.369306 
C -1.006162 1.732451 -0.513564 1.936492 0 1.936492 
z
" style="stroke: #cc79a7; stroke-opacity: 0.9"/>
    </defs>
    <g clip-path="url(#p09db31c4c2)">
     <use xlink:href="#m69dedaae28" x="145.890435" y="66.892299" style="fill: #cc79a7; fill-opacity: 0.9; stroke: #cc79a7; stroke-opacity: 0.9"/>
     <use xlink:href="#m69dedaae28" x="122.209456" y="75.113491" style="fill: #cc79a7; fill-opacity: 0.9; stroke: #cc79a7; stroke-opacity: 0.9"/>
     <use xlink:href="#m69dedaae28" x="125.829479" y="76.75773" style="fill: #cc79a7; fill-opacity: 0.9; stroke: #cc79a7; stroke-opacity: 0.9"/>
     <use xlink:href="#m69dedaae28" x="115.799001" y="78.106848" style="fill: #cc79a7; fill-opacity: 0.9; stroke: #cc79a7; stroke-opacity: 0.9"/>
     <use xlink:href="#m69dedaae28" x="136.941675" y="36.17164" style="fill: #cc79a7; fill-opacity: 0.9; stroke: #cc79a7; stroke-opacity: 0.9"/>
     <use xlink:href="#m69dedaae28" x="110.783761" y="43.872962" style="fill: #cc79a7; fill-opacity: 0.9; stroke: #cc79a7; stroke-opacity: 0.9"/>
     <use xlink:href="#m69dedaae28" x="120.81424" y="47.709518" style="fill: #cc79a7; fill-opacity: 0.9; stroke: #cc79a7; stroke-opacity: 0.9"/>
     <use xlink:href="#m69dedaae28" x="132.516464" y="38.757554" style="fill: #cc79a7; fill-opacity: 0.9; stroke: #cc79a7; stroke-opacity: 0.9"/>
     <use xlink:href="#m69dedaae28" x="133.352337" y="55.382631" style="fill: #cc79a7; fill-opacity: 0.9; stroke: #cc79a7; stroke-opacity: 0.9"/>
     <use xlink:href="#m69dedaae28" x="133.352337" y="61.137465" style="fill: #cc79a7; fill-opacity: 0.9; stroke: #cc79a7; stroke-opacity: 0.9"/>
     <use xlink:href="#m69dedaae28" x="161.54239" y="30.719055" style="fill: #cc79a7; fill-opacity: 0.9; stroke: #cc79a7; stroke-opacity: 0.9"/>
     <use xlink:href="#m69dedaae28" x="115.799001" y="57.300909" style="fill: #cc79a7; fill-opacity: 0.9; stroke: #cc79a7; stroke-opacity: 0.9"/>
     <use xlink:href="#m69dedaae28" x="103.260903" y="66.892299" style="fill: #cc79a7; fill-opacity: 0.9; stroke: #cc79a7; stroke-opacity: 0.9"/>
     <use xlink:href="#m69dedaae28" x="82.364073" y="102.700157" style="fill: #cc79a7; fill-opacity: 0.9; stroke: #cc79a7; stroke-opacity: 0.9"/>
     <use xlink:href="#m69dedaae28" x="113.291381" y="66.61826" style="fill: #cc79a7; fill-opacity: 0.9; stroke: #cc79a7; stroke-opacity: 0.9"/>
     <use xlink:href="#m69dedaae28" x="139.139152" y="52.600074" style="fill: #cc79a7; fill-opacity: 0.9; stroke: #cc79a7; stroke-opacity: 0.9"/>
     <use xlink:href="#m69dedaae28" x="103.260903" y="74.565412" style="fill: #cc79a7; fill-opacity: 0.9; stroke: #cc79a7; stroke-opacity: 0.9"/>
     <use xlink:href="#m69dedaae28" x="102.121076" y="74.565412" style="fill: #cc79a7; fill-opacity: 0.9; stroke: #cc79a7; stroke-opacity: 0.9"/>
     <use xlink:href="#m69dedaae28" x="128.337098" y="53.289964" style="fill: #cc79a7; fill-opacity: 0.9; stroke: #cc79a7; stroke-opacity: 0.9"/>
     <use xlink:href="#m69dedaae28" x="104.022326" y="77.516609" style="fill: #cc79a7; fill-opacity: 0.9; stroke: #cc79a7; stroke-opacity: 0.9"/>
     <use xlink:href="#m69dedaae28" x="85.498598" y="94.891782" style="fill: #cc79a7; fill-opacity: 0.9; stroke: #cc79a7; stroke-opacity: 0.9"/>
     <use xlink:href="#m69dedaae28" x="112.584104" y="41.216885" style="fill: #cc79a7; fill-opacity: 0.9; stroke: #cc79a7; stroke-opacity: 0.9"/>
     <use xlink:href="#m69dedaae28" x="145.544556" y="41.780295" style="fill: #cc79a7; fill-opacity: 0.9; stroke: #cc79a7; stroke-opacity: 0.9"/>
     <use xlink:href="#m69dedaae28" x="112.664476" y="63.535313" style="fill: #cc79a7; fill-opacity: 0.9; stroke: #cc79a7; stroke-opacity: 0.9"/>
     <use xlink:href="#m69dedaae28" x="127.197271" y="42.826629" style="fill: #cc79a7; fill-opacity: 0.9; stroke: #cc79a7; stroke-opacity: 0.9"/>
     <use xlink:href="#m69dedaae28" x="130.128255" y="40.584485" style="fill: #cc79a7; fill-opacity: 0.9; stroke: #cc79a7; stroke-opacity: 0.9"/>
    </g>
   </g>
   <g id="PathCollection_4"/>
   <g id="matplotlib.axis_1">
    <g id="xtick_1">
     <g id="line2d_1">
      <defs>
       <path id="mde650ebb95" d="M 0 0 
L 0 3.5 
" style="stroke: #000000; stroke-width: 0.8"/>
      </defs>
      <g>
       <use xlink:href="#mde650ebb95" x="65.64661" y="106.299213" style="stroke: #000000; stroke-width: 0.8"/>
      </g>
     </g>
     <g id="text_1">
      <!-- 0 -->
      <g transform="translate(62.60536 121.461088) scale(0.12 -0.12)">
       <defs>
        <path id="Calibri-30" d="M 3022 2031 
Q 3022 1566 2948 1181 
Q 2875 797 2704 520 
Q 2534 244 2259 92 
Q 1984 -59 1581 -59 
Q 1200 -59 939 77 
Q 678 213 518 477 
Q 359 741 292 1127 
Q 225 1513 225 2013 
Q 225 2475 300 2861 
Q 375 3247 544 3523 
Q 713 3800 988 3951 
Q 1263 4103 1663 4103 
Q 2047 4103 2308 3967 
Q 2569 3831 2728 3567 
Q 2888 3303 2955 2917 
Q 3022 2531 3022 2031 
z
M 2472 1994 
Q 2472 2297 2450 2537 
Q 2428 2778 2386 2962 
Q 2344 3147 2276 3280 
Q 2209 3413 2115 3498 
Q 2022 3584 1901 3623 
Q 1781 3663 1631 3663 
Q 1366 3663 1200 3538 
Q 1034 3413 939 3194 
Q 844 2975 809 2681 
Q 775 2388 775 2050 
Q 775 1597 822 1280 
Q 869 963 970 763 
Q 1072 563 1230 472 
Q 1388 381 1613 381 
Q 1788 381 1920 437 
Q 2053 494 2148 598 
Q 2244 703 2306 850 
Q 2369 997 2406 1175 
Q 2444 1353 2458 1561 
Q 2472 1769 2472 1994 
z
" transform="scale(0.015625)"/>
       </defs>
       <use xlink:href="#Calibri-30"/>
      </g>
     </g>
    </g>
    <g id="xtick_2">
     <g id="line2d_2">
      <g>
       <use xlink:href="#mde650ebb95" x="103.260903" y="106.299213" style="stroke: #000000; stroke-width: 0.8"/>
      </g>
     </g>
     <g id="text_2">
      <!-- 25 -->
      <g transform="translate(97.178403 121.461088) scale(0.12 -0.12)">
       <defs>
        <path id="Calibri-32" d="M 2888 231 
Q 2888 175 2880 131 
Q 2872 88 2858 58 
Q 2844 28 2820 14 
Q 2797 0 2769 0 
L 534 0 
Q 491 0 458 11 
Q 425 22 401 47 
Q 378 72 367 119 
Q 356 166 356 234 
Q 356 297 361 344 
Q 366 391 381 427 
Q 397 463 420 498 
Q 444 534 481 575 
L 1266 1406 
Q 1538 1694 1702 1922 
Q 1866 2150 1955 2337 
Q 2044 2525 2072 2678 
Q 2100 2831 2100 2966 
Q 2100 3100 2056 3220 
Q 2013 3341 1930 3431 
Q 1847 3522 1722 3575 
Q 1597 3628 1434 3628 
Q 1244 3628 1092 3575 
Q 941 3522 827 3459 
Q 713 3397 636 3344 
Q 559 3291 522 3291 
Q 500 3291 483 3303 
Q 466 3316 455 3344 
Q 444 3372 437 3419 
Q 431 3466 431 3531 
Q 431 3578 434 3612 
Q 438 3647 445 3672 
Q 453 3697 465 3719 
Q 478 3741 515 3773 
Q 553 3806 645 3862 
Q 738 3919 877 3973 
Q 1016 4028 1183 4065 
Q 1350 4103 1534 4103 
Q 1828 4103 2048 4020 
Q 2269 3938 2414 3794 
Q 2559 3650 2631 3459 
Q 2703 3269 2703 3053 
Q 2703 2859 2668 2667 
Q 2634 2475 2523 2251 
Q 2413 2028 2203 1754 
Q 1994 1481 1647 1125 
L 1006 456 
L 2766 456 
Q 2791 456 2814 442 
Q 2838 428 2855 400 
Q 2872 372 2880 330 
Q 2888 288 2888 231 
z
" transform="scale(0.015625)"/>
        <path id="Calibri-35" d="M 2869 1300 
Q 2869 975 2759 722 
Q 2650 469 2450 295 
Q 2250 122 1973 31 
Q 1697 -59 1359 -59 
Q 1172 -59 1003 -32 
Q 834 -6 703 33 
Q 572 72 487 109 
Q 403 147 379 169 
Q 356 191 347 209 
Q 338 228 330 254 
Q 322 281 319 322 
Q 316 363 316 419 
Q 316 472 320 514 
Q 325 556 337 582 
Q 350 609 367 621 
Q 384 634 406 634 
Q 438 634 503 595 
Q 569 556 680 511 
Q 791 466 955 425 
Q 1119 384 1344 384 
Q 1553 384 1728 434 
Q 1903 484 2029 590 
Q 2156 697 2228 858 
Q 2300 1019 2300 1250 
Q 2300 1444 2239 1592 
Q 2178 1741 2051 1839 
Q 1925 1938 1731 1986 
Q 1538 2034 1269 2034 
Q 1078 2034 940 2015 
Q 803 1997 684 1997 
Q 597 1997 559 2037 
Q 522 2078 522 2194 
L 522 3841 
Q 522 3944 570 3994 
Q 619 4044 709 4044 
L 2500 4044 
Q 2525 4044 2548 4030 
Q 2572 4016 2587 3987 
Q 2603 3959 2611 3915 
Q 2619 3872 2619 3813 
Q 2619 3700 2587 3637 
Q 2556 3575 2500 3575 
L 991 3575 
L 991 2441 
Q 1100 2456 1214 2459 
Q 1328 2463 1478 2463 
Q 1825 2463 2084 2380 
Q 2344 2297 2517 2145 
Q 2691 1994 2780 1778 
Q 2869 1563 2869 1300 
z
" transform="scale(0.015625)"/>
       </defs>
       <use xlink:href="#Calibri-32"/>
       <use xlink:href="#Calibri-35" x="50.683594"/>
      </g>
     </g>
    </g>
    <g id="xtick_3">
     <g id="line2d_3">
      <g>
       <use xlink:href="#mde650ebb95" x="140.875196" y="106.299213" style="stroke: #000000; stroke-width: 0.8"/>
      </g>
     </g>
     <g id="text_3">
      <!-- 50 -->
      <g transform="translate(134.792696 121.461088) scale(0.12 -0.12)">
       <use xlink:href="#Calibri-35"/>
       <use xlink:href="#Calibri-30" x="50.683594"/>
      </g>
     </g>
    </g>
   </g>
   <g id="matplotlib.axis_2">
    <g id="ytick_1">
     <g id="line2d_4">
      <defs>
       <path id="m2c5b818c25" d="M 0 0 
L -3.5 0 
" style="stroke: #000000; stroke-width: 0.8"/>
      </defs>
      <g>
       <use xlink:href="#m2c5b818c25" x="46.49" y="89.911637" style="stroke: #000000; stroke-width: 0.8"/>
      </g>
     </g>
     <g id="text_4">
      <!-- 0 -->
      <g transform="translate(33.4075 93.992574) scale(0.12 -0.12)">
       <use xlink:href="#Calibri-30"/>
      </g>
     </g>
    </g>
    <g id="ytick_2">
     <g id="line2d_5">
      <g>
       <use xlink:href="#m2c5b818c25" x="46.49" y="66.892299" style="stroke: #000000; stroke-width: 0.8"/>
      </g>
     </g>
     <g id="text_5">
      <!-- 20 -->
      <g transform="translate(27.325 70.973237) scale(0.12 -0.12)">
       <use xlink:href="#Calibri-32"/>
       <use xlink:href="#Calibri-30" x="50.683594"/>
      </g>
     </g>
    </g>
    <g id="ytick_3">
     <g id="line2d_6">
      <g>
       <use xlink:href="#m2c5b818c25" x="46.49" y="43.872962" style="stroke: #000000; stroke-width: 0.8"/>
      </g>
     </g>
     <g id="text_6">
      <!-- 40 -->
      <g transform="translate(27.325 47.9539) scale(0.12 -0.12)">
       <defs>
        <path id="Calibri-34" d="M 3059 1150 
Q 3059 1047 3028 987 
Q 2997 928 2941 928 
L 2484 928 
L 2484 78 
Q 2484 53 2471 36 
Q 2459 19 2428 6 
Q 2397 -6 2347 -12 
Q 2297 -19 2219 -19 
Q 2144 -19 2094 -12 
Q 2044 -6 2014 6 
Q 1984 19 1973 36 
Q 1963 53 1963 78 
L 1963 928 
L 294 928 
Q 256 928 231 937 
Q 206 947 186 972 
Q 166 997 158 1044 
Q 150 1091 150 1166 
Q 150 1225 153 1272 
Q 156 1319 165 1358 
Q 175 1397 190 1433 
Q 206 1469 228 1509 
L 1684 3966 
Q 1700 3991 1729 4009 
Q 1759 4028 1806 4040 
Q 1853 4053 1922 4058 
Q 1991 4063 2084 4063 
Q 2188 4063 2264 4055 
Q 2341 4047 2387 4034 
Q 2434 4022 2459 4001 
Q 2484 3981 2484 3953 
L 2484 1372 
L 2941 1372 
Q 2994 1372 3026 1317 
Q 3059 1263 3059 1150 
z
M 1963 3591 
L 1956 3591 
L 641 1372 
L 1963 1372 
L 1963 3591 
z
" transform="scale(0.015625)"/>
       </defs>
       <use xlink:href="#Calibri-34"/>
       <use xlink:href="#Calibri-30" x="50.683594"/>
      </g>
     </g>
    </g>
    <g id="text_7">
     <!-- Change observed -->
     <g transform="translate(21.185625 108.843669) rotate(-90) scale(0.12 -0.12)">
      <defs>
       <path id="Calibri-43" d="M 3238 572 
Q 3238 522 3234 484 
Q 3231 447 3223 419 
Q 3216 391 3203 369 
Q 3191 347 3159 315 
Q 3128 284 3028 220 
Q 2928 156 2779 95 
Q 2631 34 2439 -8 
Q 2247 -50 2019 -50 
Q 1625 -50 1308 81 
Q 991 213 767 469 
Q 544 725 423 1101 
Q 303 1478 303 1969 
Q 303 2472 433 2865 
Q 563 3259 797 3532 
Q 1031 3806 1357 3950 
Q 1684 4094 2081 4094 
Q 2256 4094 2422 4061 
Q 2588 4028 2728 3978 
Q 2869 3928 2978 3862 
Q 3088 3797 3130 3755 
Q 3172 3713 3184 3691 
Q 3197 3669 3205 3639 
Q 3213 3609 3217 3568 
Q 3222 3528 3222 3472 
Q 3222 3409 3215 3365 
Q 3209 3322 3196 3292 
Q 3184 3263 3167 3248 
Q 3150 3234 3125 3234 
Q 3081 3234 3003 3295 
Q 2925 3356 2801 3429 
Q 2678 3503 2501 3564 
Q 2325 3625 2078 3625 
Q 1809 3625 1589 3517 
Q 1369 3409 1212 3200 
Q 1056 2991 970 2689 
Q 884 2388 884 2000 
Q 884 1616 967 1320 
Q 1050 1025 1204 826 
Q 1359 628 1584 526 
Q 1809 425 2094 425 
Q 2334 425 2514 484 
Q 2694 544 2820 617 
Q 2947 691 3028 750 
Q 3109 809 3156 809 
Q 3178 809 3193 800 
Q 3209 791 3218 764 
Q 3228 738 3233 691 
Q 3238 644 3238 572 
z
" transform="scale(0.015625)"/>
       <path id="Calibri-68" d="M 2900 78 
Q 2900 53 2887 36 
Q 2875 19 2847 6 
Q 2819 -6 2769 -12 
Q 2719 -19 2644 -19 
Q 2566 -19 2516 -12 
Q 2466 -6 2437 6 
Q 2409 19 2396 36 
Q 2384 53 2384 78 
L 2384 1725 
Q 2384 1966 2346 2112 
Q 2309 2259 2237 2365 
Q 2166 2472 2052 2528 
Q 1938 2584 1788 2584 
Q 1594 2584 1400 2446 
Q 1206 2309 994 2044 
L 994 78 
Q 994 53 981 36 
Q 969 19 941 6 
Q 913 -6 863 -12 
Q 813 -19 734 -19 
Q 659 -19 609 -12 
Q 559 -6 529 6 
Q 500 19 489 36 
Q 478 53 478 78 
L 478 4253 
Q 478 4278 489 4297 
Q 500 4316 529 4328 
Q 559 4341 609 4347 
Q 659 4353 734 4353 
Q 813 4353 863 4347 
Q 913 4341 941 4328 
Q 969 4316 981 4297 
Q 994 4278 994 4253 
L 994 2569 
Q 1216 2803 1441 2917 
Q 1666 3031 1894 3031 
Q 2175 3031 2367 2936 
Q 2559 2841 2678 2681 
Q 2797 2522 2848 2308 
Q 2900 2094 2900 1791 
L 2900 78 
z
" transform="scale(0.015625)"/>
       <path id="Calibri-61" d="M 2597 75 
Q 2597 38 2572 19 
Q 2547 0 2503 -9 
Q 2459 -19 2375 -19 
Q 2294 -19 2245 -9 
Q 2197 0 2175 19 
Q 2153 38 2153 75 
L 2153 356 
Q 1969 159 1742 50 
Q 1516 -59 1263 -59 
Q 1041 -59 861 -1 
Q 681 56 554 165 
Q 428 275 358 434 
Q 288 594 288 797 
Q 288 1034 384 1209 
Q 481 1384 662 1500 
Q 844 1616 1106 1673 
Q 1369 1731 1697 1731 
L 2084 1731 
L 2084 1950 
Q 2084 2113 2050 2238 
Q 2016 2363 1939 2445 
Q 1863 2528 1741 2570 
Q 1619 2613 1441 2613 
Q 1250 2613 1098 2567 
Q 947 2522 833 2467 
Q 719 2413 642 2367 
Q 566 2322 528 2322 
Q 503 2322 484 2334 
Q 466 2347 452 2372 
Q 438 2397 431 2436 
Q 425 2475 425 2522 
Q 425 2600 436 2645 
Q 447 2691 489 2731 
Q 531 2772 634 2826 
Q 738 2881 872 2926 
Q 1006 2972 1165 3001 
Q 1325 3031 1488 3031 
Q 1791 3031 2003 2962 
Q 2216 2894 2347 2761 
Q 2478 2628 2537 2431 
Q 2597 2234 2597 1972 
L 2597 75 
z
M 2084 1359 
L 1644 1359 
Q 1431 1359 1275 1323 
Q 1119 1288 1016 1217 
Q 913 1147 864 1048 
Q 816 950 816 822 
Q 816 603 955 473 
Q 1094 344 1344 344 
Q 1547 344 1720 447 
Q 1894 550 2084 763 
L 2084 1359 
z
" transform="scale(0.015625)"/>
       <path id="Calibri-6e" d="M 2900 78 
Q 2900 53 2887 36 
Q 2875 19 2847 6 
Q 2819 -6 2769 -12 
Q 2719 -19 2644 -19 
Q 2566 -19 2516 -12 
Q 2466 -6 2437 6 
Q 2409 19 2396 36 
Q 2384 53 2384 78 
L 2384 1725 
Q 2384 1966 2346 2112 
Q 2309 2259 2237 2365 
Q 2166 2472 2052 2528 
Q 1938 2584 1788 2584 
Q 1594 2584 1400 2446 
Q 1206 2309 994 2044 
L 994 78 
Q 994 53 981 36 
Q 969 19 941 6 
Q 913 -6 863 -12 
Q 813 -19 734 -19 
Q 659 -19 609 -12 
Q 559 -6 529 6 
Q 500 19 489 36 
Q 478 53 478 78 
L 478 2891 
Q 478 2916 487 2933 
Q 497 2950 525 2964 
Q 553 2978 597 2983 
Q 641 2988 713 2988 
Q 781 2988 826 2983 
Q 872 2978 897 2964 
Q 922 2950 933 2933 
Q 944 2916 944 2891 
L 944 2519 
Q 1181 2784 1417 2907 
Q 1653 3031 1894 3031 
Q 2175 3031 2367 2936 
Q 2559 2841 2678 2681 
Q 2797 2522 2848 2308 
Q 2900 2094 2900 1794 
L 2900 78 
z
" transform="scale(0.015625)"/>
       <path id="Calibri-67" d="M 2828 2763 
Q 2828 2653 2798 2604 
Q 2769 2556 2722 2556 
L 2319 2556 
Q 2428 2444 2472 2308 
Q 2516 2172 2516 2025 
Q 2516 1781 2437 1593 
Q 2359 1406 2214 1276 
Q 2069 1147 1869 1078 
Q 1669 1009 1425 1009 
Q 1253 1009 1098 1054 
Q 944 1100 859 1169 
Q 803 1113 767 1041 
Q 731 969 731 875 
Q 731 766 832 694 
Q 934 622 1103 616 
L 1838 584 
Q 2047 578 2222 526 
Q 2397 475 2525 379 
Q 2653 284 2725 145 
Q 2797 6 2797 -178 
Q 2797 -372 2715 -547 
Q 2634 -722 2467 -855 
Q 2300 -988 2040 -1064 
Q 1781 -1141 1428 -1141 
Q 1088 -1141 848 -1083 
Q 609 -1025 456 -925 
Q 303 -825 234 -686 
Q 166 -547 166 -384 
Q 166 -281 191 -184 
Q 216 -88 267 0 
Q 319 88 395 167 
Q 472 247 572 325 
Q 419 403 345 522 
Q 272 641 272 778 
Q 272 969 350 1119 
Q 428 1269 544 1388 
Q 447 1503 390 1648 
Q 334 1794 334 2000 
Q 334 2241 415 2431 
Q 497 2622 640 2753 
Q 784 2884 986 2954 
Q 1188 3025 1425 3025 
Q 1553 3025 1664 3011 
Q 1775 2997 1872 2972 
L 2722 2972 
Q 2775 2972 2801 2920 
Q 2828 2869 2828 2763 
z
M 2022 2022 
Q 2022 2309 1864 2470 
Q 1706 2631 1416 2631 
Q 1266 2631 1155 2581 
Q 1044 2531 970 2443 
Q 897 2356 861 2242 
Q 825 2128 825 2003 
Q 825 1725 983 1565 
Q 1141 1406 1425 1406 
Q 1578 1406 1690 1454 
Q 1803 1503 1876 1589 
Q 1950 1675 1986 1787 
Q 2022 1900 2022 2022 
z
M 2281 -206 
Q 2281 -25 2132 73 
Q 1984 172 1731 178 
L 1003 203 
Q 903 125 839 54 
Q 775 -16 737 -80 
Q 700 -144 686 -206 
Q 672 -269 672 -334 
Q 672 -538 878 -642 
Q 1084 -747 1453 -747 
Q 1688 -747 1845 -701 
Q 2003 -656 2100 -581 
Q 2197 -506 2239 -409 
Q 2281 -313 2281 -206 
z
" transform="scale(0.015625)"/>
       <path id="Calibri-65" d="M 2878 1606 
Q 2878 1484 2817 1432 
Q 2756 1381 2678 1381 
L 834 1381 
Q 834 1147 881 959 
Q 928 772 1037 637 
Q 1147 503 1322 431 
Q 1497 359 1750 359 
Q 1950 359 2106 392 
Q 2263 425 2377 465 
Q 2491 506 2564 539 
Q 2638 572 2675 572 
Q 2697 572 2714 561 
Q 2731 550 2740 528 
Q 2750 506 2754 467 
Q 2759 428 2759 372 
Q 2759 331 2756 301 
Q 2753 272 2748 248 
Q 2744 225 2733 206 
Q 2722 188 2705 170 
Q 2688 153 2603 114 
Q 2519 75 2384 37 
Q 2250 0 2073 -29 
Q 1897 -59 1697 -59 
Q 1350 -59 1089 37 
Q 828 134 650 325 
Q 472 516 381 803 
Q 291 1091 291 1472 
Q 291 1834 384 2123 
Q 478 2413 654 2614 
Q 831 2816 1081 2923 
Q 1331 3031 1641 3031 
Q 1972 3031 2205 2925 
Q 2438 2819 2588 2639 
Q 2738 2459 2808 2217 
Q 2878 1975 2878 1700 
L 2878 1606 
z
M 2359 1759 
Q 2369 2166 2180 2397 
Q 1991 2628 1619 2628 
Q 1428 2628 1284 2556 
Q 1141 2484 1044 2365 
Q 947 2247 894 2089 
Q 841 1931 834 1759 
L 2359 1759 
z
" transform="scale(0.015625)"/>
       <path id="Calibri-20" transform="scale(0.015625)"/>
       <path id="Calibri-6f" d="M 3094 1516 
Q 3094 1172 3003 883 
Q 2913 594 2733 384 
Q 2553 175 2283 58 
Q 2013 -59 1656 -59 
Q 1309 -59 1051 44 
Q 794 147 622 344 
Q 450 541 365 822 
Q 281 1103 281 1459 
Q 281 1803 370 2092 
Q 459 2381 639 2590 
Q 819 2800 1087 2915 
Q 1356 3031 1716 3031 
Q 2063 3031 2320 2928 
Q 2578 2825 2750 2628 
Q 2922 2431 3008 2150 
Q 3094 1869 3094 1516 
z
M 2550 1481 
Q 2550 1709 2508 1912 
Q 2466 2116 2369 2269 
Q 2272 2422 2106 2511 
Q 1941 2600 1694 2600 
Q 1466 2600 1302 2519 
Q 1138 2438 1031 2289 
Q 925 2141 873 1937 
Q 822 1734 822 1494 
Q 822 1263 864 1059 
Q 906 856 1004 704 
Q 1103 553 1268 464 
Q 1434 375 1681 375 
Q 1906 375 2072 456 
Q 2238 538 2344 684 
Q 2450 831 2500 1034 
Q 2550 1238 2550 1481 
z
" transform="scale(0.015625)"/>
       <path id="Calibri-62" d="M 3066 1522 
Q 3066 1156 2986 864 
Q 2906 572 2751 365 
Q 2597 159 2372 50 
Q 2147 -59 1856 -59 
Q 1722 -59 1608 -32 
Q 1494 -6 1384 53 
Q 1275 113 1165 203 
Q 1056 294 934 422 
L 934 78 
Q 934 53 921 34 
Q 909 16 881 5 
Q 853 -6 811 -12 
Q 769 -19 703 -19 
Q 641 -19 597 -12 
Q 553 -6 525 5 
Q 497 16 487 34 
Q 478 53 478 78 
L 478 4253 
Q 478 4278 489 4297 
Q 500 4316 529 4328 
Q 559 4341 609 4347 
Q 659 4353 734 4353 
Q 813 4353 863 4347 
Q 913 4341 941 4328 
Q 969 4316 981 4297 
Q 994 4278 994 4253 
L 994 2569 
Q 1119 2697 1236 2784 
Q 1353 2872 1465 2926 
Q 1578 2981 1690 3006 
Q 1803 3031 1928 3031 
Q 2234 3031 2451 2909 
Q 2669 2788 2805 2583 
Q 2941 2378 3003 2103 
Q 3066 1828 3066 1522 
z
M 2522 1463 
Q 2522 1678 2489 1881 
Q 2456 2084 2375 2240 
Q 2294 2397 2159 2492 
Q 2025 2588 1825 2588 
Q 1725 2588 1628 2559 
Q 1531 2531 1431 2465 
Q 1331 2400 1223 2297 
Q 1116 2194 994 2038 
L 994 916 
Q 1206 656 1400 520 
Q 1594 384 1803 384 
Q 1997 384 2134 478 
Q 2272 572 2358 726 
Q 2444 881 2483 1073 
Q 2522 1266 2522 1463 
z
" transform="scale(0.015625)"/>
       <path id="Calibri-73" d="M 2244 844 
Q 2244 628 2164 459 
Q 2084 291 1937 175 
Q 1791 59 1587 0 
Q 1384 -59 1141 -59 
Q 991 -59 855 -36 
Q 719 -13 611 23 
Q 503 59 428 98 
Q 353 138 318 169 
Q 284 200 268 256 
Q 253 313 253 409 
Q 253 469 259 509 
Q 266 550 275 575 
Q 284 600 301 611 
Q 319 622 341 622 
Q 375 622 442 580 
Q 509 538 607 488 
Q 706 438 840 395 
Q 975 353 1150 353 
Q 1281 353 1387 381 
Q 1494 409 1572 464 
Q 1650 519 1692 603 
Q 1734 688 1734 803 
Q 1734 922 1673 1003 
Q 1613 1084 1513 1146 
Q 1413 1209 1288 1257 
Q 1163 1306 1030 1359 
Q 897 1413 770 1480 
Q 644 1547 544 1644 
Q 444 1741 383 1875 
Q 322 2009 322 2197 
Q 322 2363 386 2514 
Q 450 2666 578 2780 
Q 706 2894 898 2962 
Q 1091 3031 1347 3031 
Q 1459 3031 1571 3012 
Q 1684 2994 1775 2966 
Q 1866 2938 1930 2905 
Q 1994 2872 2026 2847 
Q 2059 2822 2070 2803 
Q 2081 2784 2086 2761 
Q 2091 2738 2095 2703 
Q 2100 2669 2100 2619 
Q 2100 2566 2095 2527 
Q 2091 2488 2080 2463 
Q 2069 2438 2053 2427 
Q 2038 2416 2019 2416 
Q 1991 2416 1937 2450 
Q 1884 2484 1800 2523 
Q 1716 2563 1602 2597 
Q 1488 2631 1341 2631 
Q 1209 2631 1109 2601 
Q 1009 2572 945 2517 
Q 881 2463 848 2388 
Q 816 2313 816 2225 
Q 816 2103 878 2020 
Q 941 1938 1041 1875 
Q 1141 1813 1269 1763 
Q 1397 1713 1530 1659 
Q 1663 1606 1792 1540 
Q 1922 1475 2022 1381 
Q 2122 1288 2183 1156 
Q 2244 1025 2244 844 
z
" transform="scale(0.015625)"/>
       <path id="Calibri-72" d="M 2122 2706 
Q 2122 2638 2119 2591 
Q 2116 2544 2106 2517 
Q 2097 2491 2083 2477 
Q 2069 2463 2044 2463 
Q 2019 2463 1983 2477 
Q 1947 2491 1901 2505 
Q 1856 2519 1800 2531 
Q 1744 2544 1678 2544 
Q 1600 2544 1525 2512 
Q 1450 2481 1367 2409 
Q 1284 2338 1193 2219 
Q 1103 2100 994 1928 
L 994 78 
Q 994 53 981 36 
Q 969 19 941 6 
Q 913 -6 863 -12 
Q 813 -19 734 -19 
Q 659 -19 609 -12 
Q 559 -6 529 6 
Q 500 19 489 36 
Q 478 53 478 78 
L 478 2891 
Q 478 2916 487 2933 
Q 497 2950 525 2964 
Q 553 2978 597 2983 
Q 641 2988 713 2988 
Q 781 2988 826 2983 
Q 872 2978 897 2964 
Q 922 2950 933 2933 
Q 944 2916 944 2891 
L 944 2481 
Q 1059 2650 1161 2756 
Q 1263 2863 1353 2923 
Q 1444 2984 1533 3007 
Q 1622 3031 1713 3031 
Q 1753 3031 1804 3026 
Q 1856 3022 1912 3009 
Q 1969 2997 2014 2981 
Q 2059 2966 2078 2950 
Q 2097 2934 2103 2920 
Q 2109 2906 2114 2884 
Q 2119 2863 2120 2820 
Q 2122 2778 2122 2706 
z
" transform="scale(0.015625)"/>
       <path id="Calibri-76" d="M 2784 2897 
Q 2784 2884 2782 2870 
Q 2781 2856 2778 2840 
Q 2775 2825 2770 2806 
Q 2766 2788 2759 2766 
L 1800 94 
Q 1788 59 1767 37 
Q 1747 16 1706 3 
Q 1666 -9 1603 -14 
Q 1541 -19 1447 -19 
Q 1353 -19 1290 -12 
Q 1228 -6 1189 6 
Q 1150 19 1128 41 
Q 1106 63 1094 94 
L 138 2766 
Q 125 2803 117 2831 
Q 109 2859 107 2873 
Q 106 2888 106 2897 
Q 106 2922 118 2940 
Q 131 2959 161 2970 
Q 191 2981 239 2984 
Q 288 2988 359 2988 
Q 450 2988 504 2983 
Q 559 2978 589 2965 
Q 619 2953 633 2934 
Q 647 2916 659 2888 
L 1453 569 
L 1466 531 
L 1475 569 
L 2259 2888 
Q 2266 2916 2281 2934 
Q 2297 2953 2326 2965 
Q 2356 2978 2407 2983 
Q 2459 2988 2544 2988 
Q 2616 2988 2662 2984 
Q 2709 2981 2736 2968 
Q 2763 2956 2773 2939 
Q 2784 2922 2784 2897 
z
" transform="scale(0.015625)"/>
       <path id="Calibri-64" d="M 2888 78 
Q 2888 53 2877 34 
Q 2866 16 2839 5 
Q 2813 -6 2769 -12 
Q 2725 -19 2663 -19 
Q 2597 -19 2553 -12 
Q 2509 -6 2481 5 
Q 2453 16 2440 34 
Q 2428 53 2428 78 
L 2428 450 
Q 2206 209 1967 75 
Q 1728 -59 1444 -59 
Q 1134 -59 915 61 
Q 697 181 561 386 
Q 425 591 362 867 
Q 300 1144 300 1450 
Q 300 1813 378 2105 
Q 456 2397 609 2603 
Q 763 2809 989 2920 
Q 1216 3031 1513 3031 
Q 1759 3031 1964 2923 
Q 2169 2816 2369 2606 
L 2369 4241 
Q 2369 4263 2380 4283 
Q 2391 4303 2422 4314 
Q 2453 4325 2501 4333 
Q 2550 4341 2625 4341 
Q 2703 4341 2753 4333 
Q 2803 4325 2831 4314 
Q 2859 4303 2873 4283 
Q 2888 4263 2888 4241 
L 2888 78 
z
M 2369 2056 
Q 2159 2316 1964 2452 
Q 1769 2588 1556 2588 
Q 1359 2588 1221 2494 
Q 1084 2400 998 2247 
Q 913 2094 873 1900 
Q 834 1706 834 1506 
Q 834 1294 867 1091 
Q 900 888 981 730 
Q 1063 572 1197 476 
Q 1331 381 1534 381 
Q 1638 381 1733 409 
Q 1828 438 1928 503 
Q 2028 569 2137 673 
Q 2247 778 2369 931 
L 2369 2056 
z
" transform="scale(0.015625)"/>
      </defs>
      <use xlink:href="#Calibri-43"/>
      <use xlink:href="#Calibri-68" x="53.320312"/>
      <use xlink:href="#Calibri-61" x="105.859375"/>
      <use xlink:href="#Calibri-6e" x="153.759766"/>
      <use xlink:href="#Calibri-67" x="206.298828"/>
      <use xlink:href="#Calibri-65" x="253.369141"/>
      <use xlink:href="#Calibri-20" x="303.125"/>
      <use xlink:href="#Calibri-6f" x="325.732422"/>
      <use xlink:href="#Calibri-62" x="378.466797"/>
      <use xlink:href="#Calibri-73" x="431.005859"/>
      <use xlink:href="#Calibri-65" x="470.117188"/>
      <use xlink:href="#Calibri-72" x="519.873047"/>
      <use xlink:href="#Calibri-76" x="554.736328"/>
      <use xlink:href="#Calibri-65" x="599.902344"/>
      <use xlink:href="#Calibri-64" x="649.658203"/>
     </g>
    </g>
   </g>
   <g id="line2d_7">
    <path d="M 51.968685 99.987617 
L 52.638765 99.628079 
L 53.308846 99.268542 
L 53.978926 98.909004 
L 54.649006 98.549467 
L 55.319086 98.189929 
L 55.989166 97.830392 
L 56.659246 97.470854 
L 57.329326 97.111317 
L 57.999407 96.75178 
L 58.669487 96.392242 
L 59.339567 96.032705 
L 60.009647 95.673167 
L 60.679727 95.31363 
L 61.349807 94.954092 
L 62.019887 94.594555 
L 62.689968 94.235017 
L 63.360048 93.87548 
L 64.030128 93.515942 
L 64.700208 93.156405 
L 65.370288 92.796867 
L 66.040368 92.43733 
L 66.710449 92.077792 
L 67.380529 91.718255 
L 68.050609 91.358717 
L 68.720689 90.99918 
L 69.390769 90.639642 
L 70.060849 90.280105 
L 70.730929 89.920567 
L 71.40101 89.56103 
L 72.07109 89.201492 
L 72.74117 88.841955 
L 73.41125 88.482417 
L 74.08133 88.12288 
L 74.75141 87.763342 
L 75.42149 87.403805 
L 76.091571 87.044267 
L 76.761651 86.68473 
L 77.431731 86.325192 
L 78.101811 85.965655 
L 78.771891 85.606117 
L 79.441971 85.24658 
L 80.112052 84.887042 
L 80.782132 84.527505 
L 81.452212 84.167967 
L 82.122292 83.80843 
L 82.792372 83.448892 
L 83.462452 83.089355 
L 84.132532 82.729818 
L 84.802613 82.37028 
L 85.472693 82.010743 
L 86.142773 81.651205 
L 86.812853 81.291668 
L 87.482933 80.93213 
L 88.153013 80.572593 
L 88.823093 80.213055 
L 89.493174 79.853518 
L 90.163254 79.49398 
L 90.833334 79.134443 
L 91.503414 78.774905 
L 92.173494 78.415368 
L 92.843574 78.05583 
L 93.513655 77.696293 
L 94.183735 77.336755 
L 94.853815 76.977218 
L 95.523895 76.61768 
L 96.193975 76.258143 
L 96.864055 75.898605 
L 97.534135 75.539068 
L 98.204216 75.17953 
L 98.874296 74.819993 
L 99.544376 74.460455 
L 100.214456 74.100918 
L 100.884536 73.74138 
L 101.554616 73.381843 
L 102.224696 73.022305 
L 102.894777 72.662768 
L 103.564857 72.30323 
L 104.234937 71.943693 
L 104.905017 71.584155 
L 105.575097 71.224618 
L 106.245177 70.86508 
L 106.915258 70.505543 
L 107.585338 70.146005 
L 108.255418 69.786468 
L 108.925498 69.42693 
L 109.595578 69.067393 
L 110.265658 68.707856 
L 110.935738 68.348318 
L 111.605819 67.988781 
L 112.275899 67.629243 
L 112.945979 67.269706 
L 113.616059 66.910168 
L 114.286139 66.550631 
L 114.956219 66.191093 
L 115.626299 65.831556 
L 116.29638 65.472018 
L 116.96646 65.112481 
L 117.63654 64.752943 
L 118.30662 64.393406 
" clip-path="url(#p09db31c4c2)" style="fill: none; stroke: #e69f00; stroke-width: 1.5; stroke-linecap: square"/>
   </g>
   <g id="line2d_8">
    <path d="M 82.364073 80.854263 
L 83.163854 80.358924 
L 83.963635 79.863586 
L 84.763416 79.368248 
L 85.563197 78.87291 
L 86.362978 78.377572 
L 87.162759 77.882233 
L 87.96254 77.386895 
L 88.762321 76.891557 
L 89.562102 76.396219 
L 90.361883 75.900881 
L 91.161664 75.405543 
L 91.961445 74.910204 
L 92.761226 74.414866 
L 93.561007 73.919528 
L 94.360788 73.42419 
L 95.160569 72.928852 
L 95.96035 72.433513 
L 96.760131 71.938175 
L 97.559912 71.442837 
L 98.359693 70.947499 
L 99.159474 70.452161 
L 99.959255 69.956822 
L 100.759036 69.461484 
L 101.558817 68.966146 
L 102.358598 68.470808 
L 103.158379 67.97547 
L 103.95816 67.480131 
L 104.757941 66.984793 
L 105.557722 66.489455 
L 106.357503 65.994117 
L 107.157284 65.498779 
L 107.957065 65.003441 
L 108.756846 64.508102 
L 109.556627 64.012764 
L 110.356408 63.517426 
L 111.156188 63.022088 
L 111.955969 62.52675 
L 112.75575 62.031411 
L 113.555531 61.536073 
L 114.355312 61.040735 
L 115.155093 60.545397 
L 115.954874 60.050059 
L 116.754655 59.55472 
L 117.554436 59.059382 
L 118.354217 58.564044 
L 119.153998 58.068706 
L 119.953779 57.573368 
L 120.75356 57.078029 
L 121.553341 56.582691 
L 122.353122 56.087353 
L 123.152903 55.592015 
L 123.952684 55.096677 
L 124.752465 54.601338 
L 125.552246 54.106 
L 126.352027 53.610662 
L 127.151808 53.115324 
L 127.951589 52.619986 
L 128.75137 52.124648 
L 129.551151 51.629309 
L 130.350932 51.133971 
L 131.150713 50.638633 
L 131.950494 50.143295 
L 132.750275 49.647957 
L 133.550056 49.152618 
L 134.349837 48.65728 
L 135.149618 48.161942 
L 135.949399 47.666604 
L 136.74918 47.171266 
L 137.548961 46.675927 
L 138.348742 46.180589 
L 139.148523 45.685251 
L 139.948304 45.189913 
L 140.748084 44.694575 
L 141.547865 44.199236 
L 142.347646 43.703898 
L 143.147427 43.20856 
L 143.947208 42.713222 
L 144.746989 42.217884 
L 145.54677 41.722546 
L 146.346551 41.227207 
L 147.146332 40.731869 
L 147.946113 40.236531 
L 148.745894 39.741193 
L 149.545675 39.245855 
L 150.345456 38.750516 
L 151.145237 38.255178 
L 151.945018 37.75984 
L 152.744799 37.264502 
L 153.54458 36.769164 
L 154.344361 36.273825 
L 155.144142 35.778487 
L 155.943923 35.283149 
L 156.743704 34.787811 
L 157.543485 34.292473 
L 158.343266 33.797134 
L 159.143047 33.301796 
L 159.942828 32.806458 
L 160.742609 32.31112 
L 161.54239 31.815782 
" clip-path="url(#p09db31c4c2)" style="fill: none; stroke: #cc79a7; stroke-width: 1.5; stroke-linecap: square"/>
   </g>
   <g id="patch_3">
    <path d="M 46.49 106.299213 
L 46.49 27.12 
" style="fill: none; stroke: #000000; stroke-width: 0.8; stroke-linejoin: miter; stroke-linecap: square"/>
   </g>
   <g id="patch_4">
    <path d="M 46.49 106.299213 
L 167.021075 106.299213 
" style="fill: none; stroke: #000000; stroke-width: 0.8; stroke-linejoin: miter; stroke-linecap: square"/>
   </g>
   <g id="text_8">
    <!-- Paw Drags -->
    <g transform="translate(81.3071 21.12) scale(0.12 -0.12)">
     <defs>
      <path id="Calibri-50" d="M 3022 2859 
Q 3022 2556 2922 2312 
Q 2822 2069 2636 1897 
Q 2450 1725 2179 1631 
Q 1909 1538 1534 1538 
L 1075 1538 
L 1075 81 
Q 1075 56 1061 37 
Q 1047 19 1017 8 
Q 988 -3 936 -11 
Q 884 -19 806 -19 
Q 728 -19 676 -11 
Q 625 -3 594 8 
Q 563 19 550 37 
Q 538 56 538 81 
L 538 3813 
Q 538 3938 603 3991 
Q 669 4044 750 4044 
L 1616 4044 
Q 1747 4044 1867 4033 
Q 1988 4022 2152 3986 
Q 2316 3950 2486 3851 
Q 2656 3753 2775 3609 
Q 2894 3466 2958 3277 
Q 3022 3088 3022 2859 
z
M 2456 2816 
Q 2456 3063 2364 3228 
Q 2272 3394 2136 3475 
Q 2000 3556 1854 3578 
Q 1709 3600 1572 3600 
L 1075 3600 
L 1075 1978 
L 1559 1978 
Q 1803 1978 1964 2040 
Q 2125 2103 2234 2214 
Q 2344 2325 2400 2479 
Q 2456 2634 2456 2816 
z
" transform="scale(0.015625)"/>
      <path id="Calibri-77" d="M 4413 2897 
Q 4413 2875 4406 2844 
Q 4400 2813 4384 2766 
L 3556 94 
Q 3547 59 3526 37 
Q 3506 16 3470 3 
Q 3434 -9 3371 -14 
Q 3309 -19 3216 -19 
Q 3119 -19 3053 -12 
Q 2988 -6 2948 6 
Q 2909 19 2890 41 
Q 2872 63 2863 94 
L 2272 2134 
L 2266 2163 
L 2259 2134 
L 1713 94 
Q 1703 59 1683 37 
Q 1663 16 1622 3 
Q 1581 -9 1517 -14 
Q 1453 -19 1359 -19 
Q 1263 -19 1202 -12 
Q 1141 -6 1102 6 
Q 1063 19 1044 41 
Q 1025 63 1016 94 
L 194 2766 
Q 178 2813 172 2844 
Q 166 2875 166 2897 
Q 166 2925 178 2942 
Q 191 2959 220 2970 
Q 250 2981 300 2984 
Q 350 2988 422 2988 
Q 509 2988 562 2983 
Q 616 2978 644 2967 
Q 672 2956 684 2936 
Q 697 2916 706 2888 
L 1384 569 
L 1391 541 
L 1397 569 
L 2019 2888 
Q 2025 2916 2039 2936 
Q 2053 2956 2081 2967 
Q 2109 2978 2157 2983 
Q 2206 2988 2284 2988 
Q 2359 2988 2407 2983 
Q 2456 2978 2484 2967 
Q 2513 2956 2525 2937 
Q 2538 2919 2544 2894 
L 3216 569 
L 3222 541 
L 3225 569 
L 3894 2888 
Q 3900 2916 3914 2936 
Q 3928 2956 3958 2967 
Q 3988 2978 4039 2983 
Q 4091 2988 4172 2988 
Q 4247 2988 4292 2984 
Q 4338 2981 4364 2968 
Q 4391 2956 4402 2940 
Q 4413 2925 4413 2897 
z
" transform="scale(0.015625)"/>
      <path id="Calibri-44" d="M 3647 2081 
Q 3647 1556 3512 1164 
Q 3378 772 3120 514 
Q 2863 256 2488 128 
Q 2113 0 1594 0 
L 738 0 
Q 666 0 602 48 
Q 538 97 538 219 
L 538 3825 
Q 538 3947 602 3995 
Q 666 4044 738 4044 
L 1653 4044 
Q 2178 4044 2540 3908 
Q 2903 3772 3148 3517 
Q 3394 3263 3520 2900 
Q 3647 2538 3647 2081 
z
M 3081 2059 
Q 3081 2388 3000 2670 
Q 2919 2953 2745 3159 
Q 2572 3366 2306 3481 
Q 2041 3597 1622 3597 
L 1075 3597 
L 1075 450 
L 1628 450 
Q 2016 450 2281 547 
Q 2547 644 2725 844 
Q 2903 1044 2992 1345 
Q 3081 1647 3081 2059 
z
" transform="scale(0.015625)"/>
     </defs>
     <use xlink:href="#Calibri-50"/>
     <use xlink:href="#Calibri-61" x="51.660156"/>
     <use xlink:href="#Calibri-77" x="99.560547"/>
     <use xlink:href="#Calibri-20" x="171.044922"/>
     <use xlink:href="#Calibri-44" x="193.652344"/>
     <use xlink:href="#Calibri-72" x="255.175781"/>
     <use xlink:href="#Calibri-61" x="290.039062"/>
     <use xlink:href="#Calibri-67" x="337.939453"/>
     <use xlink:href="#Calibri-73" x="385.009766"/>
    </g>
   </g>
  </g>
  <g id="axes_2">
   <g id="patch_5">
    <path d="M 211.617573 106.299213 
L 332.148648 106.299213 
L 332.148648 27.12 
L 211.617573 27.12 
z
" style="fill: #ffffff"/>
   </g>
   <g id="PathCollection_5">
    <g clip-path="url(#pae32120a85)">
     <use xlink:href="#m416b008e3b" x="255.50371" y="91.604256" style="fill: #e69f00; fill-opacity: 0.9; stroke: #e69f00; stroke-opacity: 0.9"/>
     <use xlink:href="#m416b008e3b" x="247.549031" y="74.067742" style="fill: #e69f00; fill-opacity: 0.9; stroke: #e69f00; stroke-opacity: 0.9"/>
     <use xlink:href="#m416b008e3b" x="256.684177" y="78.368517" style="fill: #e69f00; fill-opacity: 0.9; stroke: #e69f00; stroke-opacity: 0.9"/>
     <use xlink:href="#m416b008e3b" x="241.838707" y="83.775986" style="fill: #e69f00; fill-opacity: 0.9; stroke: #e69f00; stroke-opacity: 0.9"/>
     <use xlink:href="#m416b008e3b" x="255.97725" y="78.289175" style="fill: #e69f00; fill-opacity: 0.9; stroke: #e69f00; stroke-opacity: 0.9"/>
     <use xlink:href="#m416b008e3b" x="248.293522" y="79.301142" style="fill: #e69f00; fill-opacity: 0.9; stroke: #e69f00; stroke-opacity: 0.9"/>
     <use xlink:href="#m416b008e3b" x="256.155135" y="77.574956" style="fill: #e69f00; fill-opacity: 0.9; stroke: #e69f00; stroke-opacity: 0.9"/>
     <use xlink:href="#m416b008e3b" x="260.652657" y="86.272641" style="fill: #e69f00; fill-opacity: 0.9; stroke: #e69f00; stroke-opacity: 0.9"/>
     <use xlink:href="#m416b008e3b" x="280.719699" y="102.700157" style="fill: #e69f00; fill-opacity: 0.9; stroke: #e69f00; stroke-opacity: 0.9"/>
     <use xlink:href="#m416b008e3b" x="227.700165" y="90.181705" style="fill: #e69f00; fill-opacity: 0.9; stroke: #e69f00; stroke-opacity: 0.9"/>
     <use xlink:href="#m416b008e3b" x="217.096258" y="99.570544" style="fill: #e69f00; fill-opacity: 0.9; stroke: #e69f00; stroke-opacity: 0.9"/>
     <use xlink:href="#m416b008e3b" x="224.165529" y="93.311318" style="fill: #e69f00; fill-opacity: 0.9; stroke: #e69f00; stroke-opacity: 0.9"/>
     <use xlink:href="#m416b008e3b" x="248.907979" y="77.663252" style="fill: #e69f00; fill-opacity: 0.9; stroke: #e69f00; stroke-opacity: 0.9"/>
     <use xlink:href="#m416b008e3b" x="252.442614" y="93.311318" style="fill: #e69f00; fill-opacity: 0.9; stroke: #e69f00; stroke-opacity: 0.9"/>
     <use xlink:href="#m416b008e3b" x="248.907979" y="87.052092" style="fill: #e69f00; fill-opacity: 0.9; stroke: #e69f00; stroke-opacity: 0.9"/>
     <use xlink:href="#m416b008e3b" x="271.312877" y="73.357093" style="fill: #e69f00; fill-opacity: 0.9; stroke: #e69f00; stroke-opacity: 0.9"/>
     <use xlink:href="#m416b008e3b" x="282.596438" y="58.409693" style="fill: #e69f00; fill-opacity: 0.9; stroke: #e69f00; stroke-opacity: 0.9"/>
     <use xlink:href="#m416b008e3b" x="234.823732" y="100.849311" style="fill: #e69f00; fill-opacity: 0.9; stroke: #e69f00; stroke-opacity: 0.9"/>
     <use xlink:href="#m416b008e3b" x="241.808465" y="89.555782" style="fill: #e69f00; fill-opacity: 0.9; stroke: #e69f00; stroke-opacity: 0.9"/>
     <use xlink:href="#m416b008e3b" x="233.355582" y="85.800246" style="fill: #e69f00; fill-opacity: 0.9; stroke: #e69f00; stroke-opacity: 0.9"/>
     <use xlink:href="#m416b008e3b" x="289.61723" y="97.554861" style="fill: #e69f00; fill-opacity: 0.9; stroke: #e69f00; stroke-opacity: 0.9"/>
     <use xlink:href="#m416b008e3b" x="275.324729" y="85.69139" style="fill: #e69f00; fill-opacity: 0.9; stroke: #e69f00; stroke-opacity: 0.9"/>
    </g>
   </g>
   <g id="PathCollection_6">
    <g clip-path="url(#pae32120a85)">
     <use xlink:href="#m31475e5238" x="280.719699" y="102.700157" style="fill: #ff0000; fill-opacity: 0.5; stroke: #ff0000; stroke-opacity: 0.5; stroke-width: 1.5"/>
     <use xlink:href="#m31475e5238" x="289.61723" y="97.554861" style="fill: #ff0000; fill-opacity: 0.5; stroke: #ff0000; stroke-opacity: 0.5; stroke-width: 1.5"/>
    </g>
   </g>
   <g id="PathCollection_7">
    <g clip-path="url(#pae32120a85)">
     <use xlink:href="#m69dedaae28" x="250.321833" y="84.087195" style="fill: #cc79a7; fill-opacity: 0.9; stroke: #cc79a7; stroke-opacity: 0.9"/>
     <use xlink:href="#m69dedaae28" x="275.655793" y="77.235817" style="fill: #cc79a7; fill-opacity: 0.9; stroke: #cc79a7; stroke-opacity: 0.9"/>
     <use xlink:href="#m69dedaae28" x="247.802401" y="87.108182" style="fill: #cc79a7; fill-opacity: 0.9; stroke: #cc79a7; stroke-opacity: 0.9"/>
     <use xlink:href="#m69dedaae28" x="237.597145" y="92.702623" style="fill: #cc79a7; fill-opacity: 0.9; stroke: #cc79a7; stroke-opacity: 0.9"/>
     <use xlink:href="#m69dedaae28" x="282.811627" y="70.716313" style="fill: #cc79a7; fill-opacity: 0.9; stroke: #cc79a7; stroke-opacity: 0.9"/>
     <use xlink:href="#m69dedaae28" x="260.162473" y="84.257225" style="fill: #cc79a7; fill-opacity: 0.9; stroke: #cc79a7; stroke-opacity: 0.9"/>
     <use xlink:href="#m69dedaae28" x="274.274187" y="65.681076" style="fill: #cc79a7; fill-opacity: 0.9; stroke: #cc79a7; stroke-opacity: 0.9"/>
     <use xlink:href="#m69dedaae28" x="259.843116" y="73.357093" style="fill: #cc79a7; fill-opacity: 0.9; stroke: #cc79a7; stroke-opacity: 0.9"/>
     <use xlink:href="#m69dedaae28" x="278.816434" y="81.517467" style="fill: #cc79a7; fill-opacity: 0.9; stroke: #cc79a7; stroke-opacity: 0.9"/>
     <use xlink:href="#m69dedaae28" x="291.323606" y="68.274413" style="fill: #cc79a7; fill-opacity: 0.9; stroke: #cc79a7; stroke-opacity: 0.9"/>
     <use xlink:href="#m69dedaae28" x="326.669963" y="30.719055" style="fill: #cc79a7; fill-opacity: 0.9; stroke: #cc79a7; stroke-opacity: 0.9"/>
     <use xlink:href="#m69dedaae28" x="287.217923" y="80.339915" style="fill: #cc79a7; fill-opacity: 0.9; stroke: #cc79a7; stroke-opacity: 0.9"/>
     <use xlink:href="#m69dedaae28" x="282.571175" y="78.11034" style="fill: #cc79a7; fill-opacity: 0.9; stroke: #cc79a7; stroke-opacity: 0.9"/>
     <use xlink:href="#m69dedaae28" x="313.486568" y="72.265387" style="fill: #cc79a7; fill-opacity: 0.9; stroke: #cc79a7; stroke-opacity: 0.9"/>
     <use xlink:href="#m69dedaae28" x="320.151544" y="42.065995" style="fill: #cc79a7; fill-opacity: 0.9; stroke: #cc79a7; stroke-opacity: 0.9"/>
     <use xlink:href="#m69dedaae28" x="318.186837" y="63.957705" style="fill: #cc79a7; fill-opacity: 0.9; stroke: #cc79a7; stroke-opacity: 0.9"/>
     <use xlink:href="#m69dedaae28" x="303.253205" y="91.37823" style="fill: #cc79a7; fill-opacity: 0.9; stroke: #cc79a7; stroke-opacity: 0.9"/>
     <use xlink:href="#m69dedaae28" x="309.208048" y="59.656825" style="fill: #cc79a7; fill-opacity: 0.9; stroke: #cc79a7; stroke-opacity: 0.9"/>
     <use xlink:href="#m69dedaae28" x="310.303604" y="47.565531" style="fill: #cc79a7; fill-opacity: 0.9; stroke: #cc79a7; stroke-opacity: 0.9"/>
     <use xlink:href="#m69dedaae28" x="290.997332" y="92.591078" style="fill: #cc79a7; fill-opacity: 0.9; stroke: #cc79a7; stroke-opacity: 0.9"/>
    </g>
   </g>
   <g id="PathCollection_8">
    <g clip-path="url(#pae32120a85)">
     <use xlink:href="#m31475e5238" x="303.253205" y="91.37823" style="fill: #ff0000; fill-opacity: 0.5; stroke: #ff0000; stroke-opacity: 0.5; stroke-width: 1.5"/>
    </g>
   </g>
   <g id="matplotlib.axis_3">
    <g id="xtick_4">
     <g id="line2d_9">
      <g>
       <use xlink:href="#mde650ebb95" x="213.561622" y="106.299213" style="stroke: #000000; stroke-width: 0.8"/>
      </g>
     </g>
     <g id="text_9">
      <!-- 0 -->
      <g transform="translate(210.520372 121.461088) scale(0.12 -0.12)">
       <use xlink:href="#Calibri-30"/>
      </g>
     </g>
    </g>
    <g id="xtick_5">
     <g id="line2d_10">
      <g>
       <use xlink:href="#mde650ebb95" x="247.494124" y="106.299213" style="stroke: #000000; stroke-width: 0.8"/>
      </g>
     </g>
     <g id="text_10">
      <!-- 8 -->
      <g transform="translate(244.452874 121.461088) scale(0.12 -0.12)">
       <defs>
        <path id="Calibri-38" d="M 2981 1038 
Q 2981 775 2887 570 
Q 2794 366 2617 225 
Q 2441 84 2181 12 
Q 1922 -59 1588 -59 
Q 1275 -59 1028 6 
Q 781 72 609 200 
Q 438 328 347 515 
Q 256 703 256 944 
Q 256 1134 318 1293 
Q 381 1453 498 1587 
Q 616 1722 787 1839 
Q 959 1956 1175 2063 
Q 988 2159 844 2267 
Q 700 2375 600 2501 
Q 500 2628 448 2772 
Q 397 2916 397 3084 
Q 397 3297 473 3483 
Q 550 3669 704 3806 
Q 859 3944 1098 4023 
Q 1338 4103 1656 4103 
Q 1963 4103 2186 4029 
Q 2409 3956 2554 3829 
Q 2700 3703 2769 3531 
Q 2838 3359 2838 3163 
Q 2838 3003 2786 2856 
Q 2734 2709 2634 2578 
Q 2534 2447 2389 2333 
Q 2244 2219 2056 2119 
Q 2278 2009 2451 1893 
Q 2625 1778 2742 1645 
Q 2859 1513 2920 1364 
Q 2981 1216 2981 1038 
z
M 2306 3113 
Q 2306 3244 2261 3350 
Q 2216 3456 2128 3531 
Q 2041 3606 1911 3645 
Q 1781 3684 1616 3684 
Q 1278 3684 1104 3531 
Q 931 3378 931 3113 
Q 931 2991 973 2886 
Q 1016 2781 1105 2687 
Q 1194 2594 1330 2505 
Q 1466 2416 1653 2319 
Q 1969 2481 2137 2678 
Q 2306 2875 2306 3113 
z
M 2438 981 
Q 2438 1125 2384 1242 
Q 2331 1359 2223 1461 
Q 2116 1563 1955 1658 
Q 1794 1753 1581 1856 
Q 1384 1759 1236 1662 
Q 1088 1566 992 1462 
Q 897 1359 848 1245 
Q 800 1131 800 994 
Q 800 691 1008 525 
Q 1216 359 1628 359 
Q 2028 359 2233 526 
Q 2438 694 2438 981 
z
" transform="scale(0.015625)"/>
       </defs>
       <use xlink:href="#Calibri-38"/>
      </g>
     </g>
    </g>
    <g id="xtick_6">
     <g id="line2d_11">
      <g>
       <use xlink:href="#mde650ebb95" x="281.426626" y="106.299213" style="stroke: #000000; stroke-width: 0.8"/>
      </g>
     </g>
     <g id="text_11">
      <!-- 16 -->
      <g transform="translate(275.344126 121.461088) scale(0.12 -0.12)">
       <defs>
        <path id="Calibri-31" d="M 2897 213 
Q 2897 153 2887 112 
Q 2878 72 2862 47 
Q 2847 22 2826 11 
Q 2806 0 2784 0 
L 672 0 
Q 650 0 631 11 
Q 613 22 595 47 
Q 578 72 568 112 
Q 559 153 559 213 
Q 559 269 568 309 
Q 578 350 592 376 
Q 606 403 626 417 
Q 647 431 672 431 
L 1516 431 
L 1516 3506 
L 734 3041 
Q 675 3009 639 3003 
Q 603 2997 581 3017 
Q 559 3038 551 3084 
Q 544 3131 544 3203 
Q 544 3256 548 3293 
Q 553 3331 562 3356 
Q 572 3381 589 3400 
Q 606 3419 634 3438 
L 1566 4034 
Q 1578 4044 1597 4050 
Q 1616 4056 1644 4062 
Q 1672 4069 1709 4070 
Q 1747 4072 1803 4072 
Q 1878 4072 1928 4065 
Q 1978 4059 2006 4048 
Q 2034 4038 2043 4020 
Q 2053 4003 2053 3984 
L 2053 431 
L 2784 431 
Q 2809 431 2831 417 
Q 2853 403 2867 376 
Q 2881 350 2889 309 
Q 2897 269 2897 213 
z
" transform="scale(0.015625)"/>
        <path id="Calibri-36" d="M 2991 1309 
Q 2991 1044 2909 795 
Q 2828 547 2659 358 
Q 2491 169 2231 55 
Q 1972 -59 1619 -59 
Q 1366 -59 1172 3 
Q 978 66 834 181 
Q 691 297 595 465 
Q 500 634 442 850 
Q 384 1066 359 1322 
Q 334 1578 334 1872 
Q 334 2131 362 2397 
Q 391 2663 462 2909 
Q 534 3156 657 3373 
Q 781 3591 967 3752 
Q 1153 3913 1412 4006 
Q 1672 4100 2016 4100 
Q 2131 4100 2250 4086 
Q 2369 4072 2469 4048 
Q 2569 4025 2637 3997 
Q 2706 3969 2728 3951 
Q 2750 3934 2761 3914 
Q 2772 3894 2778 3870 
Q 2784 3847 2787 3817 
Q 2791 3788 2791 3744 
Q 2791 3688 2789 3647 
Q 2788 3606 2777 3581 
Q 2766 3556 2748 3543 
Q 2731 3531 2703 3531 
Q 2669 3531 2609 3553 
Q 2550 3575 2465 3601 
Q 2381 3628 2261 3650 
Q 2141 3672 1981 3672 
Q 1691 3672 1481 3553 
Q 1272 3434 1139 3234 
Q 1006 3034 942 2770 
Q 878 2506 869 2219 
Q 950 2266 1051 2312 
Q 1153 2359 1273 2396 
Q 1394 2434 1528 2457 
Q 1663 2481 1816 2481 
Q 2144 2481 2369 2392 
Q 2594 2303 2733 2145 
Q 2872 1988 2931 1773 
Q 2991 1559 2991 1309 
z
M 2447 1259 
Q 2447 1441 2411 1589 
Q 2375 1738 2290 1841 
Q 2206 1944 2065 2000 
Q 1925 2056 1719 2056 
Q 1603 2056 1487 2036 
Q 1372 2016 1264 1980 
Q 1156 1944 1057 1895 
Q 959 1847 878 1791 
Q 878 1388 929 1116 
Q 981 844 1079 680 
Q 1178 516 1325 445 
Q 1472 375 1669 375 
Q 1869 375 2016 450 
Q 2163 525 2259 651 
Q 2356 778 2401 936 
Q 2447 1094 2447 1259 
z
" transform="scale(0.015625)"/>
       </defs>
       <use xlink:href="#Calibri-31"/>
       <use xlink:href="#Calibri-36" x="50.683594"/>
      </g>
     </g>
    </g>
    <g id="xtick_7">
     <g id="line2d_12">
      <g>
       <use xlink:href="#mde650ebb95" x="315.359128" y="106.299213" style="stroke: #000000; stroke-width: 0.8"/>
      </g>
     </g>
     <g id="text_12">
      <!-- 24 -->
      <g transform="translate(309.276628 121.461088) scale(0.12 -0.12)">
       <use xlink:href="#Calibri-32"/>
       <use xlink:href="#Calibri-34" x="50.683594"/>
      </g>
     </g>
    </g>
   </g>
   <g id="matplotlib.axis_4">
    <g id="ytick_4">
     <g id="line2d_13">
      <g>
       <use xlink:href="#m2c5b818c25" x="211.617573" y="105.829771" style="stroke: #000000; stroke-width: 0.8"/>
      </g>
     </g>
     <g id="text_13">
      <!-- 0 -->
      <g transform="translate(198.535073 109.910708) scale(0.12 -0.12)">
       <use xlink:href="#Calibri-30"/>
      </g>
     </g>
    </g>
    <g id="ytick_5">
     <g id="line2d_14">
      <g>
       <use xlink:href="#m2c5b818c25" x="211.617573" y="83.296556" style="stroke: #000000; stroke-width: 0.8"/>
      </g>
     </g>
     <g id="text_14">
      <!-- 6 -->
      <g transform="translate(198.535073 87.377493) scale(0.12 -0.12)">
       <use xlink:href="#Calibri-36"/>
      </g>
     </g>
    </g>
    <g id="ytick_6">
     <g id="line2d_15">
      <g>
       <use xlink:href="#m2c5b818c25" x="211.617573" y="60.763341" style="stroke: #000000; stroke-width: 0.8"/>
      </g>
     </g>
     <g id="text_15">
      <!-- 12 -->
      <g transform="translate(192.452573 64.844279) scale(0.12 -0.12)">
       <use xlink:href="#Calibri-31"/>
       <use xlink:href="#Calibri-32" x="50.683594"/>
      </g>
     </g>
    </g>
    <g id="ytick_7">
     <g id="line2d_16">
      <g>
       <use xlink:href="#m2c5b818c25" x="211.617573" y="38.230127" style="stroke: #000000; stroke-width: 0.8"/>
      </g>
     </g>
     <g id="text_16">
      <!-- 18 -->
      <g transform="translate(192.452573 42.311064) scale(0.12 -0.12)">
       <use xlink:href="#Calibri-31"/>
       <use xlink:href="#Calibri-38" x="50.683594"/>
      </g>
     </g>
    </g>
   </g>
   <g id="line2d_17">
    <path d="M 217.096258 102.299824 
L 217.828793 101.860494 
L 218.561328 101.421164 
L 219.293863 100.981835 
L 220.026398 100.542505 
L 220.758933 100.103175 
L 221.491468 99.663846 
L 222.224003 99.224516 
L 222.956539 98.785186 
L 223.689074 98.345856 
L 224.421609 97.906527 
L 225.154144 97.467197 
L 225.886679 97.027867 
L 226.619214 96.588538 
L 227.351749 96.149208 
L 228.084284 95.709878 
L 228.816819 95.270548 
L 229.549354 94.831219 
L 230.281889 94.391889 
L 231.014424 93.952559 
L 231.746959 93.513229 
L 232.479495 93.0739 
L 233.21203 92.63457 
L 233.944565 92.19524 
L 234.6771 91.755911 
L 235.409635 91.316581 
L 236.14217 90.877251 
L 236.874705 90.437921 
L 237.60724 89.998592 
L 238.339775 89.559262 
L 239.07231 89.119932 
L 239.804845 88.680603 
L 240.53738 88.241273 
L 241.269915 87.801943 
L 242.002451 87.362613 
L 242.734986 86.923284 
L 243.467521 86.483954 
L 244.200056 86.044624 
L 244.932591 85.605294 
L 245.665126 85.165965 
L 246.397661 84.726635 
L 247.130196 84.287305 
L 247.862731 83.847976 
L 248.595266 83.408646 
L 249.327801 82.969316 
L 250.060336 82.529986 
L 250.792871 82.090657 
L 251.525406 81.651327 
L 252.257942 81.211997 
L 252.990477 80.772668 
L 253.723012 80.333338 
L 254.455547 79.894008 
L 255.188082 79.454678 
L 255.920617 79.015349 
L 256.653152 78.576019 
L 257.385687 78.136689 
L 258.118222 77.697359 
L 258.850757 77.25803 
L 259.583292 76.8187 
L 260.315827 76.37937 
L 261.048362 75.940041 
L 261.780898 75.500711 
L 262.513433 75.061381 
L 263.245968 74.622051 
L 263.978503 74.182722 
L 264.711038 73.743392 
L 265.443573 73.304062 
L 266.176108 72.864733 
L 266.908643 72.425403 
L 267.641178 71.986073 
L 268.373713 71.546743 
L 269.106248 71.107414 
L 269.838783 70.668084 
L 270.571318 70.228754 
L 271.303854 69.789424 
L 272.036389 69.350095 
L 272.768924 68.910765 
L 273.501459 68.471435 
L 274.233994 68.032106 
L 274.966529 67.592776 
L 275.699064 67.153446 
L 276.431599 66.714116 
L 277.164134 66.274787 
L 277.896669 65.835457 
L 278.629204 65.396127 
L 279.361739 64.956798 
L 280.094274 64.517468 
L 280.826809 64.078138 
L 281.559345 63.638808 
L 282.29188 63.199479 
L 283.024415 62.760149 
L 283.75695 62.320819 
L 284.489485 61.881489 
L 285.22202 61.44216 
L 285.954555 61.00283 
L 286.68709 60.5635 
L 287.419625 60.124171 
L 288.15216 59.684841 
L 288.884695 59.245511 
L 289.61723 58.806181 
" clip-path="url(#pae32120a85)" style="fill: none; stroke: #e69f00; stroke-width: 1.5; stroke-linecap: square"/>
   </g>
   <g id="line2d_18">
    <path d="M 237.597145 100.773578 
L 238.49687 100.21482 
L 239.396595 99.656063 
L 240.296321 99.097305 
L 241.196046 98.538547 
L 242.095772 97.97979 
L 242.995497 97.421032 
L 243.895223 96.862274 
L 244.794948 96.303517 
L 245.694674 95.744759 
L 246.594399 95.186001 
L 247.494124 94.627244 
L 248.39385 94.068486 
L 249.293575 93.509728 
L 250.193301 92.950971 
L 251.093026 92.392213 
L 251.992752 91.833455 
L 252.892477 91.274698 
L 253.792202 90.71594 
L 254.691928 90.157182 
L 255.591653 89.598425 
L 256.491379 89.039667 
L 257.391104 88.480909 
L 258.29083 87.922152 
L 259.190555 87.363394 
L 260.09028 86.804636 
L 260.990006 86.245879 
L 261.889731 85.687121 
L 262.789457 85.128363 
L 263.689182 84.569605 
L 264.588908 84.010848 
L 265.488633 83.45209 
L 266.388358 82.893332 
L 267.288084 82.334575 
L 268.187809 81.775817 
L 269.087535 81.217059 
L 269.98726 80.658302 
L 270.886986 80.099544 
L 271.786711 79.540786 
L 272.686437 78.982029 
L 273.586162 78.423271 
L 274.485887 77.864513 
L 275.385613 77.305756 
L 276.285338 76.746998 
L 277.185064 76.18824 
L 278.084789 75.629483 
L 278.984515 75.070725 
L 279.88424 74.511967 
L 280.783965 73.95321 
L 281.683691 73.394452 
L 282.583416 72.835694 
L 283.483142 72.276937 
L 284.382867 71.718179 
L 285.282593 71.159421 
L 286.182318 70.600664 
L 287.082043 70.041906 
L 287.981769 69.483148 
L 288.881494 68.924391 
L 289.78122 68.365633 
L 290.680945 67.806875 
L 291.580671 67.248118 
L 292.480396 66.68936 
L 293.380121 66.130602 
L 294.279847 65.571845 
L 295.179572 65.013087 
L 296.079298 64.454329 
L 296.979023 63.895571 
L 297.878749 63.336814 
L 298.778474 62.778056 
L 299.6782 62.219298 
L 300.577925 61.660541 
L 301.47765 61.101783 
L 302.377376 60.543025 
L 303.277101 59.984268 
L 304.176827 59.42551 
L 305.076552 58.866752 
L 305.976278 58.307995 
L 306.876003 57.749237 
L 307.775728 57.190479 
L 308.675454 56.631722 
L 309.575179 56.072964 
L 310.474905 55.514206 
L 311.37463 54.955449 
L 312.274356 54.396691 
L 313.174081 53.837933 
L 314.073806 53.279176 
L 314.973532 52.720418 
L 315.873257 52.16166 
L 316.772983 51.602903 
L 317.672708 51.044145 
L 318.572434 50.485387 
L 319.472159 49.92663 
L 320.371884 49.367872 
L 321.27161 48.809114 
L 322.171335 48.250357 
L 323.071061 47.691599 
L 323.970786 47.132841 
L 324.870512 46.574084 
L 325.770237 46.015326 
L 326.669963 45.456568 
" clip-path="url(#pae32120a85)" style="fill: none; stroke: #cc79a7; stroke-width: 1.5; stroke-linecap: square"/>
   </g>
   <g id="patch_6">
    <path d="M 211.617573 106.299213 
L 211.617573 27.12 
" style="fill: none; stroke: #000000; stroke-width: 0.8; stroke-linejoin: miter; stroke-linecap: square"/>
   </g>
   <g id="patch_7">
    <path d="M 211.617573 106.299213 
L 332.148648 106.299213 
" style="fill: none; stroke: #000000; stroke-width: 0.8; stroke-linejoin: miter; stroke-linecap: square"/>
   </g>
   <g id="text_17">
    <!-- Foot Faults -->
    <g transform="translate(245.15311 21.12) scale(0.12 -0.12)">
     <defs>
      <path id="Calibri-46" d="M 2663 3813 
Q 2663 3753 2656 3709 
Q 2650 3666 2634 3639 
Q 2619 3613 2598 3600 
Q 2578 3588 2556 3588 
L 1075 3588 
L 1075 2213 
L 2475 2213 
Q 2497 2213 2517 2202 
Q 2538 2191 2553 2166 
Q 2569 2141 2575 2098 
Q 2581 2056 2581 1991 
Q 2581 1931 2575 1889 
Q 2569 1847 2553 1820 
Q 2538 1794 2517 1780 
Q 2497 1766 2475 1766 
L 1075 1766 
L 1075 81 
Q 1075 59 1062 39 
Q 1050 19 1019 8 
Q 988 -3 938 -11 
Q 888 -19 806 -19 
Q 731 -19 678 -11 
Q 625 -3 594 8 
Q 563 19 550 39 
Q 538 59 538 81 
L 538 3825 
Q 538 3947 602 3995 
Q 666 4044 738 4044 
L 2556 4044 
Q 2578 4044 2598 4031 
Q 2619 4019 2634 3991 
Q 2650 3963 2656 3917 
Q 2663 3872 2663 3813 
z
" transform="scale(0.015625)"/>
      <path id="Calibri-74" d="M 1941 284 
Q 1941 194 1928 141 
Q 1916 88 1891 63 
Q 1866 38 1816 16 
Q 1766 -6 1702 -20 
Q 1638 -34 1566 -43 
Q 1494 -53 1422 -53 
Q 1203 -53 1047 5 
Q 891 63 791 180 
Q 691 297 645 476 
Q 600 656 600 900 
L 600 2544 
L 206 2544 
Q 159 2544 131 2594 
Q 103 2644 103 2756 
Q 103 2816 111 2856 
Q 119 2897 131 2923 
Q 144 2950 164 2961 
Q 184 2972 209 2972 
L 600 2972 
L 600 3641 
Q 600 3663 611 3681 
Q 622 3700 651 3714 
Q 681 3728 731 3734 
Q 781 3741 856 3741 
Q 934 3741 984 3734 
Q 1034 3728 1062 3714 
Q 1091 3700 1103 3681 
Q 1116 3663 1116 3641 
L 1116 2972 
L 1838 2972 
Q 1863 2972 1881 2961 
Q 1900 2950 1914 2923 
Q 1928 2897 1934 2856 
Q 1941 2816 1941 2756 
Q 1941 2644 1912 2594 
Q 1884 2544 1838 2544 
L 1116 2544 
L 1116 975 
Q 1116 684 1202 536 
Q 1288 388 1509 388 
Q 1581 388 1637 402 
Q 1694 416 1737 431 
Q 1781 447 1812 461 
Q 1844 475 1869 475 
Q 1884 475 1898 467 
Q 1913 459 1920 437 
Q 1928 416 1934 378 
Q 1941 341 1941 284 
z
" transform="scale(0.015625)"/>
      <path id="Calibri-75" d="M 2888 78 
Q 2888 53 2877 36 
Q 2866 19 2837 6 
Q 2809 -6 2764 -12 
Q 2719 -19 2653 -19 
Q 2581 -19 2536 -12 
Q 2491 -6 2464 6 
Q 2438 19 2428 36 
Q 2419 53 2419 78 
L 2419 450 
Q 2178 184 1943 62 
Q 1709 -59 1469 -59 
Q 1188 -59 995 34 
Q 803 128 684 289 
Q 566 450 514 664 
Q 463 878 463 1184 
L 463 2891 
Q 463 2916 473 2933 
Q 484 2950 515 2964 
Q 547 2978 597 2983 
Q 647 2988 722 2988 
Q 797 2988 847 2983 
Q 897 2978 926 2964 
Q 956 2950 968 2933 
Q 981 2916 981 2891 
L 981 1253 
Q 981 1006 1017 857 
Q 1053 709 1126 604 
Q 1200 500 1312 442 
Q 1425 384 1575 384 
Q 1769 384 1961 521 
Q 2153 659 2369 925 
L 2369 2891 
Q 2369 2916 2380 2933 
Q 2391 2950 2422 2964 
Q 2453 2978 2501 2983 
Q 2550 2988 2628 2988 
Q 2703 2988 2753 2983 
Q 2803 2978 2831 2964 
Q 2859 2950 2873 2933 
Q 2888 2916 2888 2891 
L 2888 78 
z
" transform="scale(0.015625)"/>
      <path id="Calibri-6c" d="M 994 78 
Q 994 53 981 36 
Q 969 19 941 6 
Q 913 -6 863 -12 
Q 813 -19 734 -19 
Q 659 -19 609 -12 
Q 559 -6 529 6 
Q 500 19 489 36 
Q 478 53 478 78 
L 478 4253 
Q 478 4278 489 4297 
Q 500 4316 529 4328 
Q 559 4341 609 4347 
Q 659 4353 734 4353 
Q 813 4353 863 4347 
Q 913 4341 941 4328 
Q 969 4316 981 4297 
Q 994 4278 994 4253 
L 994 78 
z
" transform="scale(0.015625)"/>
     </defs>
     <use xlink:href="#Calibri-46"/>
     <use xlink:href="#Calibri-6f" x="44.572266"/>
     <use xlink:href="#Calibri-6f" x="97.306641"/>
     <use xlink:href="#Calibri-74" x="150.041016"/>
     <use xlink:href="#Calibri-20" x="183.537109"/>
     <use xlink:href="#Calibri-46" x="206.144531"/>
     <use xlink:href="#Calibri-61" x="249.466797"/>
     <use xlink:href="#Calibri-75" x="297.367188"/>
     <use xlink:href="#Calibri-6c" x="349.90625"/>
     <use xlink:href="#Calibri-74" x="372.855469"/>
     <use xlink:href="#Calibri-73" x="406.351562"/>
    </g>
   </g>
  </g>
  <g id="axes_3">
   <g id="patch_8">
    <path d="M 376.745145 106.299213 
L 497.27622 106.299213 
L 497.27622 27.12 
L 376.745145 27.12 
z
" style="fill: #ffffff"/>
   </g>
   <g id="PathCollection_9">
    <g clip-path="url(#pcb33b9c27d)">
     <use xlink:href="#m416b008e3b" x="382.831448" y="91.312906" style="fill: #e69f00; fill-opacity: 0.9; stroke: #e69f00; stroke-opacity: 0.9"/>
     <use xlink:href="#m416b008e3b" x="397.41427" y="91.672504" style="fill: #e69f00; fill-opacity: 0.9; stroke: #e69f00; stroke-opacity: 0.9"/>
     <use xlink:href="#m416b008e3b" x="388.907624" y="87.716932" style="fill: #e69f00; fill-opacity: 0.9; stroke: #e69f00; stroke-opacity: 0.9"/>
     <use xlink:href="#m416b008e3b" x="383.844144" y="90.713577" style="fill: #e69f00; fill-opacity: 0.9; stroke: #e69f00; stroke-opacity: 0.9"/>
     <use xlink:href="#m416b008e3b" x="383.844144" y="95.508209" style="fill: #e69f00; fill-opacity: 0.9; stroke: #e69f00; stroke-opacity: 0.9"/>
     <use xlink:href="#m416b008e3b" x="388.907624" y="87.716932" style="fill: #e69f00; fill-opacity: 0.9; stroke: #e69f00; stroke-opacity: 0.9"/>
     <use xlink:href="#m416b008e3b" x="404.098064" y="78.726997" style="fill: #e69f00; fill-opacity: 0.9; stroke: #e69f00; stroke-opacity: 0.9"/>
     <use xlink:href="#m416b008e3b" x="410.781857" y="74.771426" style="fill: #e69f00; fill-opacity: 0.9; stroke: #e69f00; stroke-opacity: 0.9"/>
     <use xlink:href="#m416b008e3b" x="399.034584" y="81.723642" style="fill: #e69f00; fill-opacity: 0.9; stroke: #e69f00; stroke-opacity: 0.9"/>
     <use xlink:href="#m416b008e3b" x="383.844144" y="90.713577" style="fill: #e69f00; fill-opacity: 0.9; stroke: #e69f00; stroke-opacity: 0.9"/>
     <use xlink:href="#m416b008e3b" x="388.907624" y="87.716932" style="fill: #e69f00; fill-opacity: 0.9; stroke: #e69f00; stroke-opacity: 0.9"/>
     <use xlink:href="#m416b008e3b" x="382.223831" y="87.716932" style="fill: #e69f00; fill-opacity: 0.9; stroke: #e69f00; stroke-opacity: 0.9"/>
     <use xlink:href="#m416b008e3b" x="388.907624" y="84.720287" style="fill: #e69f00; fill-opacity: 0.9; stroke: #e69f00; stroke-opacity: 0.9"/>
     <use xlink:href="#m416b008e3b" x="388.907624" y="96.706867" style="fill: #e69f00; fill-opacity: 0.9; stroke: #e69f00; stroke-opacity: 0.9"/>
     <use xlink:href="#m416b008e3b" x="404.098064" y="75.730352" style="fill: #e69f00; fill-opacity: 0.9; stroke: #e69f00; stroke-opacity: 0.9"/>
     <use xlink:href="#m416b008e3b" x="437.922109" y="62.66498" style="fill: #e69f00; fill-opacity: 0.9; stroke: #e69f00; stroke-opacity: 0.9"/>
     <use xlink:href="#m416b008e3b" x="404.098064" y="82.682569" style="fill: #e69f00; fill-opacity: 0.9; stroke: #e69f00; stroke-opacity: 0.9"/>
     <use xlink:href="#m416b008e3b" x="417.66819" y="78.726997" style="fill: #e69f00; fill-opacity: 0.9; stroke: #e69f00; stroke-opacity: 0.9"/>
     <use xlink:href="#m416b008e3b" x="383.844144" y="94.669149" style="fill: #e69f00; fill-opacity: 0.9; stroke: #e69f00; stroke-opacity: 0.9"/>
     <use xlink:href="#m416b008e3b" x="383.844144" y="96.706867" style="fill: #e69f00; fill-opacity: 0.9; stroke: #e69f00; stroke-opacity: 0.9"/>
     <use xlink:href="#m416b008e3b" x="383.844144" y="102.700157" style="fill: #e69f00; fill-opacity: 0.9; stroke: #e69f00; stroke-opacity: 0.9"/>
     <use xlink:href="#m416b008e3b" x="404.098064" y="78.726997" style="fill: #e69f00; fill-opacity: 0.9; stroke: #e69f00; stroke-opacity: 0.9"/>
    </g>
   </g>
   <g id="PathCollection_10"/>
   <g id="PathCollection_11">
    <g clip-path="url(#pcb33b9c27d)">
     <use xlink:href="#m69dedaae28" x="388.907624" y="78.726997" style="fill: #cc79a7; fill-opacity: 0.9; stroke: #cc79a7; stroke-opacity: 0.9"/>
     <use xlink:href="#m69dedaae28" x="485.113742" y="45.763902" style="fill: #cc79a7; fill-opacity: 0.9; stroke: #cc79a7; stroke-opacity: 0.9"/>
     <use xlink:href="#m69dedaae28" x="451.289696" y="53.794911" style="fill: #cc79a7; fill-opacity: 0.9; stroke: #cc79a7; stroke-opacity: 0.9"/>
     <use xlink:href="#m69dedaae28" x="444.605903" y="57.750482" style="fill: #cc79a7; fill-opacity: 0.9; stroke: #cc79a7; stroke-opacity: 0.9"/>
     <use xlink:href="#m69dedaae28" x="409.161544" y="69.737062" style="fill: #cc79a7; fill-opacity: 0.9; stroke: #cc79a7; stroke-opacity: 0.9"/>
     <use xlink:href="#m69dedaae28" x="424.351983" y="61.706054" style="fill: #cc79a7; fill-opacity: 0.9; stroke: #cc79a7; stroke-opacity: 0.9"/>
     <use xlink:href="#m69dedaae28" x="434.478943" y="57.750482" style="fill: #cc79a7; fill-opacity: 0.9; stroke: #cc79a7; stroke-opacity: 0.9"/>
     <use xlink:href="#m69dedaae28" x="410.17424" y="69.137733" style="fill: #cc79a7; fill-opacity: 0.9; stroke: #cc79a7; stroke-opacity: 0.9"/>
     <use xlink:href="#m69dedaae28" x="423.541827" y="71.774781" style="fill: #cc79a7; fill-opacity: 0.9; stroke: #cc79a7; stroke-opacity: 0.9"/>
     <use xlink:href="#m69dedaae28" x="393.971104" y="90.713577" style="fill: #cc79a7; fill-opacity: 0.9; stroke: #cc79a7; stroke-opacity: 0.9"/>
     <use xlink:href="#m69dedaae28" x="419.288503" y="69.737062" style="fill: #cc79a7; fill-opacity: 0.9; stroke: #cc79a7; stroke-opacity: 0.9"/>
     <use xlink:href="#m69dedaae28" x="388.907624" y="90.713577" style="fill: #cc79a7; fill-opacity: 0.9; stroke: #cc79a7; stroke-opacity: 0.9"/>
     <use xlink:href="#m69dedaae28" x="491.797535" y="30.780677" style="fill: #cc79a7; fill-opacity: 0.9; stroke: #cc79a7; stroke-opacity: 0.9"/>
     <use xlink:href="#m69dedaae28" x="457.97349" y="44.804976" style="fill: #cc79a7; fill-opacity: 0.9; stroke: #cc79a7; stroke-opacity: 0.9"/>
     <use xlink:href="#m69dedaae28" x="434.478943" y="48.760547" style="fill: #cc79a7; fill-opacity: 0.9; stroke: #cc79a7; stroke-opacity: 0.9"/>
     <use xlink:href="#m69dedaae28" x="427.79515" y="64.702699" style="fill: #cc79a7; fill-opacity: 0.9; stroke: #cc79a7; stroke-opacity: 0.9"/>
     <use xlink:href="#m69dedaae28" x="410.781857" y="70.815855" style="fill: #cc79a7; fill-opacity: 0.9; stroke: #cc79a7; stroke-opacity: 0.9"/>
     <use xlink:href="#m69dedaae28" x="414.225024" y="72.733707" style="fill: #cc79a7; fill-opacity: 0.9; stroke: #cc79a7; stroke-opacity: 0.9"/>
     <use xlink:href="#m69dedaae28" x="420.908817" y="64.702699" style="fill: #cc79a7; fill-opacity: 0.9; stroke: #cc79a7; stroke-opacity: 0.9"/>
     <use xlink:href="#m69dedaae28" x="419.288503" y="69.737062" style="fill: #cc79a7; fill-opacity: 0.9; stroke: #cc79a7; stroke-opacity: 0.9"/>
     <use xlink:href="#m69dedaae28" x="469.923302" y="39.770612" style="fill: #cc79a7; fill-opacity: 0.9; stroke: #cc79a7; stroke-opacity: 0.9"/>
     <use xlink:href="#m69dedaae28" x="414.225024" y="72.733707" style="fill: #cc79a7; fill-opacity: 0.9; stroke: #cc79a7; stroke-opacity: 0.9"/>
     <use xlink:href="#m69dedaae28" x="419.288503" y="63.743772" style="fill: #cc79a7; fill-opacity: 0.9; stroke: #cc79a7; stroke-opacity: 0.9"/>
     <use xlink:href="#m69dedaae28" x="409.161544" y="75.730352" style="fill: #cc79a7; fill-opacity: 0.9; stroke: #cc79a7; stroke-opacity: 0.9"/>
     <use xlink:href="#m69dedaae28" x="419.288503" y="75.730352" style="fill: #cc79a7; fill-opacity: 0.9; stroke: #cc79a7; stroke-opacity: 0.9"/>
     <use xlink:href="#m69dedaae28" x="431.035777" y="54.753837" style="fill: #cc79a7; fill-opacity: 0.9; stroke: #cc79a7; stroke-opacity: 0.9"/>
    </g>
   </g>
   <g id="PathCollection_12">
    <g clip-path="url(#pcb33b9c27d)">
     <use xlink:href="#m31475e5238" x="485.113742" y="45.763902" style="fill: #ff0000; fill-opacity: 0.5; stroke: #ff0000; stroke-opacity: 0.5; stroke-width: 1.5"/>
     <use xlink:href="#m31475e5238" x="393.971104" y="90.713577" style="fill: #ff0000; fill-opacity: 0.5; stroke: #ff0000; stroke-opacity: 0.5; stroke-width: 1.5"/>
    </g>
   </g>
   <g id="matplotlib.axis_5">
    <g id="xtick_8">
     <g id="line2d_19">
      <g>
       <use xlink:href="#mde650ebb95" x="383.844144" y="106.299213" style="stroke: #000000; stroke-width: 0.8"/>
      </g>
     </g>
     <g id="text_18">
      <!-- 0.0 -->
      <g transform="translate(376.246644 121.461088) scale(0.12 -0.12)">
       <defs>
        <path id="Calibri-2e" d="M 1144 341 
Q 1144 119 1070 45 
Q 997 -28 803 -28 
Q 616 -28 544 44 
Q 472 116 472 331 
Q 472 553 545 626 
Q 619 700 813 700 
Q 1000 700 1072 628 
Q 1144 556 1144 341 
z
" transform="scale(0.015625)"/>
       </defs>
       <use xlink:href="#Calibri-30"/>
       <use xlink:href="#Calibri-2e" x="50.683594"/>
       <use xlink:href="#Calibri-30" x="75.927734"/>
      </g>
     </g>
    </g>
    <g id="xtick_9">
     <g id="line2d_20">
      <g>
       <use xlink:href="#mde650ebb95" x="414.225024" y="106.299213" style="stroke: #000000; stroke-width: 0.8"/>
      </g>
     </g>
     <g id="text_19">
      <!-- 1.5 -->
      <g transform="translate(406.627524 121.461088) scale(0.12 -0.12)">
       <use xlink:href="#Calibri-31"/>
       <use xlink:href="#Calibri-2e" x="50.683594"/>
       <use xlink:href="#Calibri-35" x="75.927734"/>
      </g>
     </g>
    </g>
    <g id="xtick_10">
     <g id="line2d_21">
      <g>
       <use xlink:href="#mde650ebb95" x="444.605903" y="106.299213" style="stroke: #000000; stroke-width: 0.8"/>
      </g>
     </g>
     <g id="text_20">
      <!-- 3.0 -->
      <g transform="translate(437.008403 121.461088) scale(0.12 -0.12)">
       <defs>
        <path id="Calibri-33" d="M 2856 1156 
Q 2856 878 2759 654 
Q 2663 431 2481 272 
Q 2300 113 2034 27 
Q 1769 -59 1434 -59 
Q 1231 -59 1054 -26 
Q 878 6 740 51 
Q 603 97 512 145 
Q 422 194 398 216 
Q 375 238 362 259 
Q 350 281 340 312 
Q 331 344 326 389 
Q 322 434 322 500 
Q 322 613 344 656 
Q 366 700 406 700 
Q 434 700 517 650 
Q 600 600 729 542 
Q 859 484 1032 434 
Q 1206 384 1419 384 
Q 1625 384 1781 437 
Q 1938 491 2044 587 
Q 2150 684 2203 817 
Q 2256 950 2256 1106 
Q 2256 1278 2189 1415 
Q 2122 1553 1992 1653 
Q 1863 1753 1673 1806 
Q 1484 1859 1244 1859 
L 859 1859 
Q 834 1859 811 1870 
Q 788 1881 770 1906 
Q 753 1931 742 1972 
Q 731 2013 731 2078 
Q 731 2138 740 2177 
Q 750 2216 767 2239 
Q 784 2263 806 2273 
Q 828 2284 856 2284 
L 1209 2284 
Q 1416 2284 1580 2337 
Q 1744 2391 1858 2491 
Q 1972 2591 2033 2730 
Q 2094 2869 2094 3041 
Q 2094 3166 2053 3280 
Q 2013 3394 1931 3478 
Q 1850 3563 1723 3611 
Q 1597 3659 1431 3659 
Q 1250 3659 1098 3604 
Q 947 3550 828 3487 
Q 709 3425 631 3370 
Q 553 3316 522 3316 
Q 500 3316 483 3323 
Q 466 3331 455 3354 
Q 444 3378 439 3420 
Q 434 3463 434 3531 
Q 434 3578 437 3614 
Q 441 3650 450 3676 
Q 459 3703 471 3725 
Q 484 3747 514 3776 
Q 544 3806 634 3862 
Q 725 3919 858 3973 
Q 991 4028 1164 4065 
Q 1338 4103 1538 4103 
Q 1819 4103 2031 4031 
Q 2244 3959 2386 3828 
Q 2528 3697 2598 3514 
Q 2669 3331 2669 3109 
Q 2669 2919 2619 2755 
Q 2569 2591 2472 2464 
Q 2375 2338 2234 2248 
Q 2094 2159 1909 2125 
L 1909 2119 
Q 2119 2097 2292 2014 
Q 2466 1931 2591 1806 
Q 2716 1681 2786 1514 
Q 2856 1347 2856 1156 
z
" transform="scale(0.015625)"/>
       </defs>
       <use xlink:href="#Calibri-33"/>
       <use xlink:href="#Calibri-2e" x="50.683594"/>
       <use xlink:href="#Calibri-30" x="75.927734"/>
      </g>
     </g>
    </g>
    <g id="xtick_11">
     <g id="line2d_22">
      <g>
       <use xlink:href="#mde650ebb95" x="474.986782" y="106.299213" style="stroke: #000000; stroke-width: 0.8"/>
      </g>
     </g>
     <g id="text_21">
      <!-- 4.5 -->
      <g transform="translate(467.389282 121.461088) scale(0.12 -0.12)">
       <use xlink:href="#Calibri-34"/>
       <use xlink:href="#Calibri-2e" x="50.683594"/>
       <use xlink:href="#Calibri-35" x="75.927734"/>
      </g>
     </g>
    </g>
   </g>
   <g id="matplotlib.axis_6">
    <g id="ytick_8">
     <g id="line2d_23">
      <g>
       <use xlink:href="#m2c5b818c25" x="376.745145" y="90.713577" style="stroke: #000000; stroke-width: 0.8"/>
      </g>
     </g>
     <g id="text_22">
      <!-- 0 -->
      <g transform="translate(363.662645 94.794515) scale(0.12 -0.12)">
       <use xlink:href="#Calibri-30"/>
      </g>
     </g>
    </g>
    <g id="ytick_9">
     <g id="line2d_24">
      <g>
       <use xlink:href="#m2c5b818c25" x="376.745145" y="66.740417" style="stroke: #000000; stroke-width: 0.8"/>
      </g>
     </g>
     <g id="text_23">
      <!-- 2 -->
      <g transform="translate(363.662645 70.821355) scale(0.12 -0.12)">
       <use xlink:href="#Calibri-32"/>
      </g>
     </g>
    </g>
    <g id="ytick_10">
     <g id="line2d_25">
      <g>
       <use xlink:href="#m2c5b818c25" x="376.745145" y="42.767257" style="stroke: #000000; stroke-width: 0.8"/>
      </g>
     </g>
     <g id="text_24">
      <!-- 4 -->
      <g transform="translate(363.662645 46.848195) scale(0.12 -0.12)">
       <use xlink:href="#Calibri-34"/>
      </g>
     </g>
    </g>
   </g>
   <g id="line2d_26">
    <path d="M 382.223831 90.047396 
L 382.78644 89.757807 
L 383.349048 89.468218 
L 383.911657 89.178629 
L 384.474266 88.88904 
L 385.036875 88.599451 
L 385.599484 88.309862 
L 386.162093 88.020273 
L 386.724702 87.730684 
L 387.287311 87.441095 
L 387.849919 87.151506 
L 388.412528 86.861918 
L 388.975137 86.572329 
L 389.537746 86.28274 
L 390.100355 85.993151 
L 390.662964 85.703562 
L 391.225573 85.413973 
L 391.788182 85.124384 
L 392.35079 84.834795 
L 392.913399 84.545206 
L 393.476008 84.255617 
L 394.038617 83.966028 
L 394.601226 83.676439 
L 395.163835 83.38685 
L 395.726444 83.097261 
L 396.289053 82.807672 
L 396.851661 82.518083 
L 397.41427 82.228494 
L 397.976879 81.938906 
L 398.539488 81.649317 
L 399.102097 81.359728 
L 399.664706 81.070139 
L 400.227315 80.78055 
L 400.789924 80.490961 
L 401.352532 80.201372 
L 401.915141 79.911783 
L 402.47775 79.622194 
L 403.040359 79.332605 
L 403.602968 79.043016 
L 404.165577 78.753427 
L 404.728186 78.463838 
L 405.290795 78.174249 
L 405.853403 77.88466 
L 406.416012 77.595071 
L 406.978621 77.305483 
L 407.54123 77.015894 
L 408.103839 76.726305 
L 408.666448 76.436716 
L 409.229057 76.147127 
L 409.791666 75.857538 
L 410.354274 75.567949 
L 410.916883 75.27836 
L 411.479492 74.988771 
L 412.042101 74.699182 
L 412.60471 74.409593 
L 413.167319 74.120004 
L 413.729928 73.830415 
L 414.292537 73.540826 
L 414.855145 73.251237 
L 415.417754 72.961648 
L 415.980363 72.672059 
L 416.542972 72.382471 
L 417.105581 72.092882 
L 417.66819 71.803293 
L 418.230799 71.513704 
L 418.793408 71.224115 
L 419.356016 70.934526 
L 419.918625 70.644937 
L 420.481234 70.355348 
L 421.043843 70.065759 
L 421.606452 69.77617 
L 422.169061 69.486581 
L 422.73167 69.196992 
L 423.294279 68.907403 
L 423.856887 68.617814 
L 424.419496 68.328225 
L 424.982105 68.038636 
L 425.544714 67.749047 
L 426.107323 67.459459 
L 426.669932 67.16987 
L 427.232541 66.880281 
L 427.79515 66.590692 
L 428.357758 66.301103 
L 428.920367 66.011514 
L 429.482976 65.721925 
L 430.045585 65.432336 
L 430.608194 65.142747 
L 431.170803 64.853158 
L 431.733412 64.563569 
L 432.296021 64.27398 
L 432.858629 63.984391 
L 433.421238 63.694802 
L 433.983847 63.405213 
L 434.546456 63.115624 
L 435.109065 62.826036 
L 435.671674 62.536447 
L 436.234283 62.246858 
L 436.796892 61.957269 
L 437.3595 61.66768 
L 437.922109 61.378091 
" clip-path="url(#pcb33b9c27d)" style="fill: none; stroke: #e69f00; stroke-width: 1.5; stroke-linecap: square"/>
   </g>
   <g id="line2d_27">
    <path d="M 388.907624 80.750415 
L 389.946916 80.245048 
L 390.986208 79.739681 
L 392.0255 79.234314 
L 393.064792 78.728946 
L 394.104084 78.223579 
L 395.143376 77.718212 
L 396.182668 77.212845 
L 397.22196 76.707477 
L 398.261252 76.20211 
L 399.300544 75.696743 
L 400.339836 75.191375 
L 401.379129 74.686008 
L 402.418421 74.180641 
L 403.457713 73.675274 
L 404.497005 73.169906 
L 405.536297 72.664539 
L 406.575589 72.159172 
L 407.614881 71.653805 
L 408.654173 71.148437 
L 409.693465 70.64307 
L 410.732757 70.137703 
L 411.772049 69.632335 
L 412.811341 69.126968 
L 413.850633 68.621601 
L 414.889925 68.116234 
L 415.929217 67.610866 
L 416.968509 67.105499 
L 418.007801 66.600132 
L 419.047093 66.094764 
L 420.086385 65.589397 
L 421.125677 65.08403 
L 422.164969 64.578663 
L 423.204261 64.073295 
L 424.243553 63.567928 
L 425.282845 63.062561 
L 426.322137 62.557194 
L 427.361429 62.051826 
L 428.400721 61.546459 
L 429.440013 61.041092 
L 430.479305 60.535724 
L 431.518597 60.030357 
L 432.557889 59.52499 
L 433.597181 59.019623 
L 434.636474 58.514255 
L 435.675766 58.008888 
L 436.715058 57.503521 
L 437.75435 56.998153 
L 438.793642 56.492786 
L 439.832934 55.987419 
L 440.872226 55.482052 
L 441.911518 54.976684 
L 442.95081 54.471317 
L 443.990102 53.96595 
L 445.029394 53.460583 
L 446.068686 52.955215 
L 447.107978 52.449848 
L 448.14727 51.944481 
L 449.186562 51.439113 
L 450.225854 50.933746 
L 451.265146 50.428379 
L 452.304438 49.923012 
L 453.34373 49.417644 
L 454.383022 48.912277 
L 455.422314 48.40691 
L 456.461606 47.901543 
L 457.500898 47.396175 
L 458.54019 46.890808 
L 459.579482 46.385441 
L 460.618774 45.880073 
L 461.658066 45.374706 
L 462.697358 44.869339 
L 463.73665 44.363972 
L 464.775942 43.858604 
L 465.815234 43.353237 
L 466.854526 42.84787 
L 467.893819 42.342502 
L 468.933111 41.837135 
L 469.972403 41.331768 
L 471.011695 40.826401 
L 472.050987 40.321033 
L 473.090279 39.815666 
L 474.129571 39.310299 
L 475.168863 38.804932 
L 476.208155 38.299564 
L 477.247447 37.794197 
L 478.286739 37.28883 
L 479.326031 36.783462 
L 480.365323 36.278095 
L 481.404615 35.772728 
L 482.443907 35.267361 
L 483.483199 34.761993 
L 484.522491 34.256626 
L 485.561783 33.751259 
L 486.601075 33.245892 
L 487.640367 32.740524 
L 488.679659 32.235157 
L 489.718951 31.72979 
L 490.758243 31.224422 
L 491.797535 30.719055 
" clip-path="url(#pcb33b9c27d)" style="fill: none; stroke: #cc79a7; stroke-width: 1.5; stroke-linecap: square"/>
   </g>
   <g id="patch_9">
    <path d="M 376.745145 106.299213 
L 376.745145 27.12 
" style="fill: none; stroke: #000000; stroke-width: 0.8; stroke-linejoin: miter; stroke-linecap: square"/>
   </g>
   <g id="patch_10">
    <path d="M 376.745145 106.299213 
L 497.27622 106.299213 
" style="fill: none; stroke: #000000; stroke-width: 0.8; stroke-linejoin: miter; stroke-linecap: square"/>
   </g>
   <g id="text_25">
    <!-- Hindlimb Drops -->
    <g transform="translate(399.085058 21.12) scale(0.12 -0.12)">
     <defs>
      <path id="Calibri-48" d="M 3450 81 
Q 3450 56 3437 37 
Q 3425 19 3394 8 
Q 3363 -3 3311 -11 
Q 3259 -19 3184 -19 
Q 3103 -19 3053 -11 
Q 3003 -3 2972 8 
Q 2941 19 2928 37 
Q 2916 56 2916 81 
L 2916 1875 
L 1075 1875 
L 1075 81 
Q 1075 56 1062 37 
Q 1050 19 1019 8 
Q 988 -3 936 -11 
Q 884 -19 806 -19 
Q 731 -19 678 -11 
Q 625 -3 594 8 
Q 563 19 550 37 
Q 538 56 538 81 
L 538 3963 
Q 538 3988 550 4006 
Q 563 4025 594 4036 
Q 625 4047 678 4055 
Q 731 4063 806 4063 
Q 884 4063 936 4055 
Q 988 4047 1019 4036 
Q 1050 4025 1062 4006 
Q 1075 3988 1075 3963 
L 1075 2344 
L 2916 2344 
L 2916 3963 
Q 2916 3988 2928 4006 
Q 2941 4025 2972 4036 
Q 3003 4047 3053 4055 
Q 3103 4063 3184 4063 
Q 3259 4063 3311 4055 
Q 3363 4047 3394 4036 
Q 3425 4025 3437 4006 
Q 3450 3988 3450 3963 
L 3450 81 
z
" transform="scale(0.015625)"/>
      <path id="Calibri-69" d="M 994 78 
Q 994 53 981 36 
Q 969 19 941 6 
Q 913 -6 863 -12 
Q 813 -19 734 -19 
Q 659 -19 609 -12 
Q 559 -6 529 6 
Q 500 19 489 36 
Q 478 53 478 78 
L 478 2891 
Q 478 2913 489 2931 
Q 500 2950 529 2962 
Q 559 2975 609 2981 
Q 659 2988 734 2988 
Q 813 2988 863 2981 
Q 913 2975 941 2962 
Q 969 2950 981 2931 
Q 994 2913 994 2891 
L 994 78 
z
M 1053 3841 
Q 1053 3659 984 3593 
Q 916 3528 731 3528 
Q 550 3528 483 3592 
Q 416 3656 416 3834 
Q 416 4016 484 4081 
Q 553 4147 738 4147 
Q 919 4147 986 4083 
Q 1053 4019 1053 3841 
z
" transform="scale(0.015625)"/>
      <path id="Calibri-6d" d="M 4650 78 
Q 4650 53 4637 36 
Q 4625 19 4597 6 
Q 4569 -6 4519 -12 
Q 4469 -19 4394 -19 
Q 4316 -19 4266 -12 
Q 4216 -6 4186 6 
Q 4156 19 4143 36 
Q 4131 53 4131 78 
L 4131 1788 
Q 4131 1966 4100 2112 
Q 4069 2259 4000 2365 
Q 3931 2472 3825 2528 
Q 3719 2584 3575 2584 
Q 3397 2584 3217 2446 
Q 3038 2309 2822 2044 
L 2822 78 
Q 2822 53 2809 36 
Q 2797 19 2767 6 
Q 2738 -6 2688 -12 
Q 2638 -19 2563 -19 
Q 2491 -19 2439 -12 
Q 2388 -6 2358 6 
Q 2328 19 2317 36 
Q 2306 53 2306 78 
L 2306 1788 
Q 2306 1966 2272 2112 
Q 2238 2259 2169 2365 
Q 2100 2472 1995 2528 
Q 1891 2584 1747 2584 
Q 1569 2584 1387 2446 
Q 1206 2309 994 2044 
L 994 78 
Q 994 53 981 36 
Q 969 19 941 6 
Q 913 -6 863 -12 
Q 813 -19 734 -19 
Q 659 -19 609 -12 
Q 559 -6 529 6 
Q 500 19 489 36 
Q 478 53 478 78 
L 478 2891 
Q 478 2916 487 2933 
Q 497 2950 525 2964 
Q 553 2978 597 2983 
Q 641 2988 713 2988 
Q 781 2988 826 2983 
Q 872 2978 897 2964 
Q 922 2950 933 2933 
Q 944 2916 944 2891 
L 944 2519 
Q 1181 2784 1404 2907 
Q 1628 3031 1856 3031 
Q 2031 3031 2170 2990 
Q 2309 2950 2415 2876 
Q 2522 2803 2597 2701 
Q 2672 2600 2722 2475 
Q 2863 2628 2989 2734 
Q 3116 2841 3233 2906 
Q 3350 2972 3461 3001 
Q 3572 3031 3684 3031 
Q 3956 3031 4140 2936 
Q 4325 2841 4439 2681 
Q 4553 2522 4601 2308 
Q 4650 2094 4650 1856 
L 4650 78 
z
" transform="scale(0.015625)"/>
      <path id="Calibri-70" d="M 3066 1528 
Q 3066 1159 2986 865 
Q 2906 572 2751 367 
Q 2597 163 2369 52 
Q 2141 -59 1847 -59 
Q 1722 -59 1615 -34 
Q 1509 -9 1407 44 
Q 1306 97 1206 178 
Q 1106 259 994 369 
L 994 -1038 
Q 994 -1063 981 -1081 
Q 969 -1100 941 -1112 
Q 913 -1125 863 -1131 
Q 813 -1138 734 -1138 
Q 659 -1138 609 -1131 
Q 559 -1125 529 -1112 
Q 500 -1100 489 -1081 
Q 478 -1063 478 -1038 
L 478 2891 
Q 478 2919 487 2936 
Q 497 2953 525 2965 
Q 553 2978 597 2983 
Q 641 2988 703 2988 
Q 769 2988 811 2983 
Q 853 2978 881 2965 
Q 909 2953 920 2936 
Q 931 2919 931 2891 
L 931 2513 
Q 1059 2644 1178 2741 
Q 1297 2838 1417 2902 
Q 1538 2966 1664 2998 
Q 1791 3031 1931 3031 
Q 2238 3031 2453 2912 
Q 2669 2794 2805 2587 
Q 2941 2381 3003 2107 
Q 3066 1834 3066 1528 
z
M 2522 1469 
Q 2522 1684 2489 1886 
Q 2456 2088 2376 2244 
Q 2297 2400 2162 2494 
Q 2028 2588 1828 2588 
Q 1728 2588 1631 2558 
Q 1534 2528 1434 2464 
Q 1334 2400 1225 2295 
Q 1116 2191 994 2038 
L 994 919 
Q 1206 659 1397 521 
Q 1588 384 1797 384 
Q 1991 384 2130 478 
Q 2269 572 2355 728 
Q 2441 884 2481 1078 
Q 2522 1272 2522 1469 
z
" transform="scale(0.015625)"/>
     </defs>
     <use xlink:href="#Calibri-48"/>
     <use xlink:href="#Calibri-69" x="62.304688"/>
     <use xlink:href="#Calibri-6e" x="85.253906"/>
     <use xlink:href="#Calibri-64" x="137.792969"/>
     <use xlink:href="#Calibri-6c" x="190.332031"/>
     <use xlink:href="#Calibri-69" x="213.28125"/>
     <use xlink:href="#Calibri-6d" x="236.230469"/>
     <use xlink:href="#Calibri-62" x="316.113281"/>
     <use xlink:href="#Calibri-20" x="368.652344"/>
     <use xlink:href="#Calibri-44" x="391.259766"/>
     <use xlink:href="#Calibri-72" x="452.783203"/>
     <use xlink:href="#Calibri-6f" x="487.646484"/>
     <use xlink:href="#Calibri-70" x="540.380859"/>
     <use xlink:href="#Calibri-73" x="592.919922"/>
    </g>
   </g>
  </g>
  <g id="text_26">
   <!-- Initial impairment -->
   <g transform="translate(211.472798 138.181211) scale(0.12 -0.12)">
    <defs>
     <path id="Calibri-49" d="M 1075 81 
Q 1075 56 1062 37 
Q 1050 19 1019 8 
Q 988 -3 936 -11 
Q 884 -19 806 -19 
Q 731 -19 678 -11 
Q 625 -3 594 8 
Q 563 19 550 37 
Q 538 56 538 81 
L 538 3963 
Q 538 3988 552 4006 
Q 566 4025 598 4036 
Q 631 4047 682 4055 
Q 734 4063 806 4063 
Q 884 4063 936 4055 
Q 988 4047 1019 4036 
Q 1050 4025 1062 4006 
Q 1075 3988 1075 3963 
L 1075 81 
z
" transform="scale(0.015625)"/>
    </defs>
    <use xlink:href="#Calibri-49"/>
    <use xlink:href="#Calibri-6e" x="25.195312"/>
    <use xlink:href="#Calibri-69" x="77.734375"/>
    <use xlink:href="#Calibri-74" x="100.683594"/>
    <use xlink:href="#Calibri-69" x="134.179688"/>
    <use xlink:href="#Calibri-61" x="157.128906"/>
    <use xlink:href="#Calibri-6c" x="205.029297"/>
    <use xlink:href="#Calibri-20" x="227.978516"/>
    <use xlink:href="#Calibri-69" x="250.585938"/>
    <use xlink:href="#Calibri-6d" x="273.535156"/>
    <use xlink:href="#Calibri-70" x="353.417969"/>
    <use xlink:href="#Calibri-61" x="405.957031"/>
    <use xlink:href="#Calibri-69" x="453.857422"/>
    <use xlink:href="#Calibri-72" x="476.806641"/>
    <use xlink:href="#Calibri-6d" x="511.669922"/>
    <use xlink:href="#Calibri-65" x="591.552734"/>
    <use xlink:href="#Calibri-6e" x="641.308594"/>
    <use xlink:href="#Calibri-74" x="693.847656"/>
   </g>
  </g>
 </g>
 <defs>
  <clipPath id="p09db31c4c2">
   <rect x="46.49" y="27.12" width="120.531075" height="79.179213"/>
  </clipPath>
  <clipPath id="pae32120a85">
   <rect x="211.617573" y="27.12" width="120.531075" height="79.179213"/>
  </clipPath>
  <clipPath id="pcb33b9c27d">
   <rect x="376.745145" y="27.12" width="120.531075" height="79.179213"/>
  </clipPath>
 </defs>
</svg>
