<?xml version="1.0" encoding="utf-8" standalone="no"?>
<!DOCTYPE svg PUBLIC "-//W3C//DTD SVG 1.1//EN"
  "http://www.w3.org/Graphics/SVG/1.1/DTD/svg11.dtd">
<svg xmlns:xlink="http://www.w3.org/1999/xlink" width="510.23622pt" height="141.732283pt" viewBox="0 0 510.23622 141.732283" xmlns="http://www.w3.org/2000/svg" version="1.1">
 <metadata>
  <rdf:RDF xmlns:dc="http://purl.org/dc/elements/1.1/" xmlns:cc="http://creativecommons.org/ns#" xmlns:rdf="http://www.w3.org/1999/02/22-rdf-syntax-ns#">
   <cc:Work>
    <dc:type rdf:resource="http://purl.org/dc/dcmitype/StillImage"/>
    <dc:date>2025-05-20T16:17:59.723398</dc:date>
    <dc:format>image/svg+xml</dc:format>
    <dc:creator>
     <cc:Agent>
      <dc:title>Matplotlib v3.8.3, https://matplotlib.org/</dc:title>
     </cc:Agent>
    </dc:creator>
   </cc:Work>
  </rdf:RDF>
 </metadata>
 <defs>
  <style type="text/css">*{stroke-linejoin: round; stroke-linecap: butt}</style>
 </defs>
 <g id="figure_1">
  <g id="patch_1">
   <path d="M 0 141.732283 
L 510.23622 141.732283 
L 510.23622 0 
L 0 0 
z
" style="fill: #ffffff"/>
  </g>
  <g id="axes_1">
   <g id="patch_2">
    <path d="M 46.49 106.299213 
L 167.021075 106.299213 
L 167.021075 27.12 
L 46.49 27.12 
z
" style="fill: #ffffff"/>
   </g>
   <g id="PathCollection_1">
    <defs>
     <path id="m2e1768a1eb" d="M 0 1.936492 
C 0.513564 1.936492 1.006162 1.732451 1.369306 1.369306 
C 1.732451 1.006162 1.936492 0.513564 1.936492 0 
C 1.936492 -0.513564 1.732451 -1.006162 1.369306 -1.369306 
C 1.006162 -1.732451 0.513564 -1.936492 0 -1.936492 
C -0.513564 -1.936492 -1.006162 -1.732451 -1.369306 -1.369306 
C -1.732451 -1.006162 -1.936492 -0.513564 -1.936492 0 
C -1.936492 0.513564 -1.732451 1.006162 -1.369306 1.369306 
C -1.006162 1.732451 -0.513564 1.936492 0 1.936492 
z
" style="stroke: #e69f00; stroke-opacity: 0.9"/>
    </defs>
    <g clip-path="url(#p49661dca28)">
     <use xlink:href="#m2e1768a1eb" x="65.64661" y="70.728856" style="fill: #e69f00; fill-opacity: 0.9; stroke: #e69f00; stroke-opacity: 0.9"/>
     <use xlink:href="#m2e1768a1eb" x="113.159401" y="74.491985" style="fill: #e69f00; fill-opacity: 0.9; stroke: #e69f00; stroke-opacity: 0.9"/>
     <use xlink:href="#m2e1768a1eb" x="108.276142" y="68.810578" style="fill: #e69f00; fill-opacity: 0.9; stroke: #e69f00; stroke-opacity: 0.9"/>
     <use xlink:href="#m2e1768a1eb" x="118.30662" y="70.554467" style="fill: #e69f00; fill-opacity: 0.9; stroke: #e69f00; stroke-opacity: 0.9"/>
     <use xlink:href="#m2e1768a1eb" x="110.783761" y="73.089813" style="fill: #e69f00; fill-opacity: 0.9; stroke: #e69f00; stroke-opacity: 0.9"/>
     <use xlink:href="#m2e1768a1eb" x="88.97954" y="77.704412" style="fill: #e69f00; fill-opacity: 0.9; stroke: #e69f00; stroke-opacity: 0.9"/>
     <use xlink:href="#m2e1768a1eb" x="110.783761" y="81.017802" style="fill: #e69f00; fill-opacity: 0.9; stroke: #e69f00; stroke-opacity: 0.9"/>
     <use xlink:href="#m2e1768a1eb" x="103.260903" y="84.430842" style="fill: #e69f00; fill-opacity: 0.9; stroke: #e69f00; stroke-opacity: 0.9"/>
     <use xlink:href="#m2e1768a1eb" x="106.680384" y="96.887194" style="fill: #e69f00; fill-opacity: 0.9; stroke: #e69f00; stroke-opacity: 0.9"/>
     <use xlink:href="#m2e1768a1eb" x="51.968685" y="101.421305" style="fill: #e69f00; fill-opacity: 0.9; stroke: #e69f00; stroke-opacity: 0.9"/>
     <use xlink:href="#m2e1768a1eb" x="65.64661" y="95.666471" style="fill: #e69f00; fill-opacity: 0.9; stroke: #e69f00; stroke-opacity: 0.9"/>
     <use xlink:href="#m2e1768a1eb" x="92.197876" y="69.600457" style="fill: #e69f00; fill-opacity: 0.9; stroke: #e69f00; stroke-opacity: 0.9"/>
     <use xlink:href="#m2e1768a1eb" x="79.617633" y="73.469253" style="fill: #e69f00; fill-opacity: 0.9; stroke: #e69f00; stroke-opacity: 0.9"/>
     <use xlink:href="#m2e1768a1eb" x="110.783761" y="58.260048" style="fill: #e69f00; fill-opacity: 0.9; stroke: #e69f00; stroke-opacity: 0.9"/>
     <use xlink:href="#m2e1768a1eb" x="102.121076" y="86.96044" style="fill: #e69f00; fill-opacity: 0.9; stroke: #e69f00; stroke-opacity: 0.9"/>
     <use xlink:href="#m2e1768a1eb" x="73.169469" y="89.911637" style="fill: #e69f00; fill-opacity: 0.9; stroke: #e69f00; stroke-opacity: 0.9"/>
     <use xlink:href="#m2e1768a1eb" x="89.719757" y="71.496167" style="fill: #e69f00; fill-opacity: 0.9; stroke: #e69f00; stroke-opacity: 0.9"/>
     <use xlink:href="#m2e1768a1eb" x="64.213684" y="74.565412" style="fill: #e69f00; fill-opacity: 0.9; stroke: #e69f00; stroke-opacity: 0.9"/>
     <use xlink:href="#m2e1768a1eb" x="77.736918" y="79.526973" style="fill: #e69f00; fill-opacity: 0.9; stroke: #e69f00; stroke-opacity: 0.9"/>
     <use xlink:href="#m2e1768a1eb" x="73.169469" y="81.500725" style="fill: #e69f00; fill-opacity: 0.9; stroke: #e69f00; stroke-opacity: 0.9"/>
     <use xlink:href="#m2e1768a1eb" x="111.858456" y="67.988458" style="fill: #e69f00; fill-opacity: 0.9; stroke: #e69f00; stroke-opacity: 0.9"/>
     <use xlink:href="#m2e1768a1eb" x="99.157525" y="70.637072" style="fill: #e69f00; fill-opacity: 0.9; stroke: #e69f00; stroke-opacity: 0.9"/>
    </g>
   </g>
   <g id="PathCollection_2">
    <defs>
     <path id="m9421ee6124" d="M -3.162278 3.162278 
L 3.162278 -3.162278 
M -3.162278 -3.162278 
L 3.162278 3.162278 
" style="stroke: #ff0000; stroke-opacity: 0.5; stroke-width: 1.5"/>
    </defs>
    <g clip-path="url(#p49661dca28)">
     <use xlink:href="#m9421ee6124" x="106.680384" y="96.887194" style="fill: #ff0000; fill-opacity: 0.5; stroke: #ff0000; stroke-opacity: 0.5; stroke-width: 1.5"/>
    </g>
   </g>
   <g id="PathCollection_3">
    <defs>
     <path id="m918501ded0" d="M 0 1.936492 
C 0.513564 1.936492 1.006162 1.732451 1.369306 1.369306 
C 1.732451 1.006162 1.936492 0.513564 1.936492 0 
C 1.936492 -0.513564 1.732451 -1.006162 1.369306 -1.369306 
C 1.006162 -1.732451 0.513564 -1.936492 0 -1.936492 
C -0.513564 -1.936492 -1.006162 -1.732451 -1.369306 -1.369306 
C -1.732451 -1.006162 -1.936492 -0.513564 -1.936492 0 
C -1.936492 0.513564 -1.732451 1.006162 -1.369306 1.369306 
C -1.006162 1.732451 -0.513564 1.936492 0 1.936492 
z
" style="stroke: #cc79a7; stroke-opacity: 0.9"/>
    </defs>
    <g clip-path="url(#p49661dca28)">
     <use xlink:href="#m918501ded0" x="145.890435" y="66.892299" style="fill: #cc79a7; fill-opacity: 0.9; stroke: #cc79a7; stroke-opacity: 0.9"/>
     <use xlink:href="#m918501ded0" x="122.209456" y="75.113491" style="fill: #cc79a7; fill-opacity: 0.9; stroke: #cc79a7; stroke-opacity: 0.9"/>
     <use xlink:href="#m918501ded0" x="125.829479" y="76.75773" style="fill: #cc79a7; fill-opacity: 0.9; stroke: #cc79a7; stroke-opacity: 0.9"/>
     <use xlink:href="#m918501ded0" x="115.799001" y="78.106848" style="fill: #cc79a7; fill-opacity: 0.9; stroke: #cc79a7; stroke-opacity: 0.9"/>
     <use xlink:href="#m918501ded0" x="136.941675" y="36.17164" style="fill: #cc79a7; fill-opacity: 0.9; stroke: #cc79a7; stroke-opacity: 0.9"/>
     <use xlink:href="#m918501ded0" x="110.783761" y="43.872962" style="fill: #cc79a7; fill-opacity: 0.9; stroke: #cc79a7; stroke-opacity: 0.9"/>
     <use xlink:href="#m918501ded0" x="120.81424" y="47.709518" style="fill: #cc79a7; fill-opacity: 0.9; stroke: #cc79a7; stroke-opacity: 0.9"/>
     <use xlink:href="#m918501ded0" x="132.516464" y="38.757554" style="fill: #cc79a7; fill-opacity: 0.9; stroke: #cc79a7; stroke-opacity: 0.9"/>
     <use xlink:href="#m918501ded0" x="133.352337" y="55.382631" style="fill: #cc79a7; fill-opacity: 0.9; stroke: #cc79a7; stroke-opacity: 0.9"/>
     <use xlink:href="#m918501ded0" x="133.352337" y="61.137465" style="fill: #cc79a7; fill-opacity: 0.9; stroke: #cc79a7; stroke-opacity: 0.9"/>
     <use xlink:href="#m918501ded0" x="161.54239" y="30.719055" style="fill: #cc79a7; fill-opacity: 0.9; stroke: #cc79a7; stroke-opacity: 0.9"/>
     <use xlink:href="#m918501ded0" x="115.799001" y="57.300909" style="fill: #cc79a7; fill-opacity: 0.9; stroke: #cc79a7; stroke-opacity: 0.9"/>
     <use xlink:href="#m918501ded0" x="103.260903" y="66.892299" style="fill: #cc79a7; fill-opacity: 0.9; stroke: #cc79a7; stroke-opacity: 0.9"/>
     <use xlink:href="#m918501ded0" x="82.364073" y="102.700157" style="fill: #cc79a7; fill-opacity: 0.9; stroke: #cc79a7; stroke-opacity: 0.9"/>
     <use xlink:href="#m918501ded0" x="113.291381" y="66.61826" style="fill: #cc79a7; fill-opacity: 0.9; stroke: #cc79a7; stroke-opacity: 0.9"/>
     <use xlink:href="#m918501ded0" x="139.139152" y="52.600074" style="fill: #cc79a7; fill-opacity: 0.9; stroke: #cc79a7; stroke-opacity: 0.9"/>
     <use xlink:href="#m918501ded0" x="103.260903" y="74.565412" style="fill: #cc79a7; fill-opacity: 0.9; stroke: #cc79a7; stroke-opacity: 0.9"/>
     <use xlink:href="#m918501ded0" x="102.121076" y="74.565412" style="fill: #cc79a7; fill-opacity: 0.9; stroke: #cc79a7; stroke-opacity: 0.9"/>
     <use xlink:href="#m918501ded0" x="128.337098" y="53.289964" style="fill: #cc79a7; fill-opacity: 0.9; stroke: #cc79a7; stroke-opacity: 0.9"/>
     <use xlink:href="#m918501ded0" x="104.022326" y="77.516609" style="fill: #cc79a7; fill-opacity: 0.9; stroke: #cc79a7; stroke-opacity: 0.9"/>
     <use xlink:href="#m918501ded0" x="85.498598" y="94.891782" style="fill: #cc79a7; fill-opacity: 0.9; stroke: #cc79a7; stroke-opacity: 0.9"/>
     <use xlink:href="#m918501ded0" x="112.584104" y="41.216885" style="fill: #cc79a7; fill-opacity: 0.9; stroke: #cc79a7; stroke-opacity: 0.9"/>
     <use xlink:href="#m918501ded0" x="145.544556" y="41.780295" style="fill: #cc79a7; fill-opacity: 0.9; stroke: #cc79a7; stroke-opacity: 0.9"/>
     <use xlink:href="#m918501ded0" x="112.664476" y="63.535313" style="fill: #cc79a7; fill-opacity: 0.9; stroke: #cc79a7; stroke-opacity: 0.9"/>
     <use xlink:href="#m918501ded0" x="127.197271" y="42.826629" style="fill: #cc79a7; fill-opacity: 0.9; stroke: #cc79a7; stroke-opacity: 0.9"/>
     <use xlink:href="#m918501ded0" x="130.128255" y="40.584485" style="fill: #cc79a7; fill-opacity: 0.9; stroke: #cc79a7; stroke-opacity: 0.9"/>
    </g>
   </g>
   <g id="PathCollection_4"/>
   <g id="matplotlib.axis_1">
    <g id="xtick_1">
     <g id="line2d_1">
      <defs>
       <path id="mab955b247a" d="M 0 0 
L 0 3.5 
" style="stroke: #000000; stroke-width: 0.8"/>
      </defs>
      <g>
       <use xlink:href="#mab955b247a" x="65.64661" y="106.299213" style="stroke: #000000; stroke-width: 0.8"/>
      </g>
     </g>
     <g id="text_1">
      <!-- 0 -->
      <g transform="translate(62.60536 121.461088) scale(0.12 -0.12)">
       <defs>
        <path id="Calibri-30" d="M 3022 2031 
Q 3022 1566 2948 1181 
Q 2875 797 2704 520 
Q 2534 244 2259 92 
Q 1984 -59 1581 -59 
Q 1200 -59 939 77 
Q 678 213 518 477 
Q 359 741 292 1127 
Q 225 1513 225 2013 
Q 225 2475 300 2861 
Q 375 3247 544 3523 
Q 713 3800 988 3951 
Q 1263 4103 1663 4103 
Q 2047 4103 2308 3967 
Q 2569 3831 2728 3567 
Q 2888 3303 2955 2917 
Q 3022 2531 3022 2031 
z
M 2472 1994 
Q 2472 2297 2450 2537 
Q 2428 2778 2386 2962 
Q 2344 3147 2276 3280 
Q 2209 3413 2115 3498 
Q 2022 3584 1901 3623 
Q 1781 3663 1631 3663 
Q 1366 3663 1200 3538 
Q 1034 3413 939 3194 
Q 844 2975 809 2681 
Q 775 2388 775 2050 
Q 775 1597 822 1280 
Q 869 963 970 763 
Q 1072 563 1230 472 
Q 1388 381 1613 381 
Q 1788 381 1920 437 
Q 2053 494 2148 598 
Q 2244 703 2306 850 
Q 2369 997 2406 1175 
Q 2444 1353 2458 1561 
Q 2472 1769 2472 1994 
z
" transform="scale(0.015625)"/>
       </defs>
       <use xlink:href="#Calibri-30"/>
      </g>
     </g>
    </g>
    <g id="xtick_2">
     <g id="line2d_2">
      <g>
       <use xlink:href="#mab955b247a" x="103.260903" y="106.299213" style="stroke: #000000; stroke-width: 0.8"/>
      </g>
     </g>
     <g id="text_2">
      <!-- 25 -->
      <g transform="translate(97.178403 121.461088) scale(0.12 -0.12)">
       <defs>
        <path id="Calibri-32" d="M 2888 231 
Q 2888 175 2880 131 
Q 2872 88 2858 58 
Q 2844 28 2820 14 
Q 2797 0 2769 0 
L 534 0 
Q 491 0 458 11 
Q 425 22 401 47 
Q 378 72 367 119 
Q 356 166 356 234 
Q 356 297 361 344 
Q 366 391 381 427 
Q 397 463 420 498 
Q 444 534 481 575 
L 1266 1406 
Q 1538 1694 1702 1922 
Q 1866 2150 1955 2337 
Q 2044 2525 2072 2678 
Q 2100 2831 2100 2966 
Q 2100 3100 2056 3220 
Q 2013 3341 1930 3431 
Q 1847 3522 1722 3575 
Q 1597 3628 1434 3628 
Q 1244 3628 1092 3575 
Q 941 3522 827 3459 
Q 713 3397 636 3344 
Q 559 3291 522 3291 
Q 500 3291 483 3303 
Q 466 3316 455 3344 
Q 444 3372 437 3419 
Q 431 3466 431 3531 
Q 431 3578 434 3612 
Q 438 3647 445 3672 
Q 453 3697 465 3719 
Q 478 3741 515 3773 
Q 553 3806 645 3862 
Q 738 3919 877 3973 
Q 1016 4028 1183 4065 
Q 1350 4103 1534 4103 
Q 1828 4103 2048 4020 
Q 2269 3938 2414 3794 
Q 2559 3650 2631 3459 
Q 2703 3269 2703 3053 
Q 2703 2859 2668 2667 
Q 2634 2475 2523 2251 
Q 2413 2028 2203 1754 
Q 1994 1481 1647 1125 
L 1006 456 
L 2766 456 
Q 2791 456 2814 442 
Q 2838 428 2855 400 
Q 2872 372 2880 330 
Q 2888 288 2888 231 
z
" transform="scale(0.015625)"/>
        <path id="Calibri-35" d="M 2869 1300 
Q 2869 975 2759 722 
Q 2650 469 2450 295 
Q 2250 122 1973 31 
Q 1697 -59 1359 -59 
Q 1172 -59 1003 -32 
Q 834 -6 703 33 
Q 572 72 487 109 
Q 403 147 379 169 
Q 356 191 347 209 
Q 338 228 330 254 
Q 322 281 319 322 
Q 316 363 316 419 
Q 316 472 320 514 
Q 325 556 337 582 
Q 350 609 367 621 
Q 384 634 406 634 
Q 438 634 503 595 
Q 569 556 680 511 
Q 791 466 955 425 
Q 1119 384 1344 384 
Q 1553 384 1728 434 
Q 1903 484 2029 590 
Q 2156 697 2228 858 
Q 2300 1019 2300 1250 
Q 2300 1444 2239 1592 
Q 2178 1741 2051 1839 
Q 1925 1938 1731 1986 
Q 1538 2034 1269 2034 
Q 1078 2034 940 2015 
Q 803 1997 684 1997 
Q 597 1997 559 2037 
Q 522 2078 522 2194 
L 522 3841 
Q 522 3944 570 3994 
Q 619 4044 709 4044 
L 2500 4044 
Q 2525 4044 2548 4030 
Q 2572 4016 2587 3987 
Q 2603 3959 2611 3915 
Q 2619 3872 2619 3813 
Q 2619 3700 2587 3637 
Q 2556 3575 2500 3575 
L 991 3575 
L 991 2441 
Q 1100 2456 1214 2459 
Q 1328 2463 1478 2463 
Q 1825 2463 2084 2380 
Q 2344 2297 2517 2145 
Q 2691 1994 2780 1778 
Q 2869 1563 2869 1300 
z
" transform="scale(0.015625)"/>
       </defs>
       <use xlink:href="#Calibri-32"/>
       <use xlink:href="#Calibri-35" x="50.683594"/>
      </g>
     </g>
    </g>
    <g id="xtick_3">
     <g id="line2d_3">
      <g>
       <use xlink:href="#mab955b247a" x="140.875196" y="106.299213" style="stroke: #000000; stroke-width: 0.8"/>
      </g>
     </g>
     <g id="text_3">
      <!-- 50 -->
      <g transform="translate(134.792696 121.461088) scale(0.12 -0.12)">
       <use xlink:href="#Calibri-35"/>
       <use xlink:href="#Calibri-30" x="50.683594"/>
      </g>
     </g>
    </g>
   </g>
   <g id="matplotlib.axis_2">
    <g id="ytick_1">
     <g id="line2d_4">
      <defs>
       <path id="mf8dd3fef35" d="M 0 0 
L -3.5 0 
" style="stroke: #000000; stroke-width: 0.8"/>
      </defs>
      <g>
       <use xlink:href="#mf8dd3fef35" x="46.49" y="89.911637" style="stroke: #000000; stroke-width: 0.8"/>
      </g>
     </g>
     <g id="text_4">
      <!-- 0 -->
      <g transform="translate(33.4075 93.992574) scale(0.12 -0.12)">
       <use xlink:href="#Calibri-30"/>
      </g>
     </g>
    </g>
    <g id="ytick_2">
     <g id="line2d_5">
      <g>
       <use xlink:href="#mf8dd3fef35" x="46.49" y="66.892299" style="stroke: #000000; stroke-width: 0.8"/>
      </g>
     </g>
     <g id="text_5">
      <!-- 20 -->
      <g transform="translate(27.325 70.973237) scale(0.12 -0.12)">
       <use xlink:href="#Calibri-32"/>
       <use xlink:href="#Calibri-30" x="50.683594"/>
      </g>
     </g>
    </g>
    <g id="ytick_3">
     <g id="line2d_6">
      <g>
       <use xlink:href="#mf8dd3fef35" x="46.49" y="43.872962" style="stroke: #000000; stroke-width: 0.8"/>
      </g>
     </g>
     <g id="text_6">
      <!-- 40 -->
      <g transform="translate(27.325 47.9539) scale(0.12 -0.12)">
       <defs>
        <path id="Calibri-34" d="M 3059 1150 
Q 3059 1047 3028 987 
Q 2997 928 2941 928 
L 2484 928 
L 2484 78 
Q 2484 53 2471 36 
Q 2459 19 2428 6 
Q 2397 -6 2347 -12 
Q 2297 -19 2219 -19 
Q 2144 -19 2094 -12 
Q 2044 -6 2014 6 
Q 1984 19 1973 36 
Q 1963 53 1963 78 
L 1963 928 
L 294 928 
Q 256 928 231 937 
Q 206 947 186 972 
Q 166 997 158 1044 
Q 150 1091 150 1166 
Q 150 1225 153 1272 
Q 156 1319 165 1358 
Q 175 1397 190 1433 
Q 206 1469 228 1509 
L 1684 3966 
Q 1700 3991 1729 4009 
Q 1759 4028 1806 4040 
Q 1853 4053 1922 4058 
Q 1991 4063 2084 4063 
Q 2188 4063 2264 4055 
Q 2341 4047 2387 4034 
Q 2434 4022 2459 4001 
Q 2484 3981 2484 3953 
L 2484 1372 
L 2941 1372 
Q 2994 1372 3026 1317 
Q 3059 1263 3059 1150 
z
M 1963 3591 
L 1956 3591 
L 641 1372 
L 1963 1372 
L 1963 3591 
z
" transform="scale(0.015625)"/>
       </defs>
       <use xlink:href="#Calibri-34"/>
       <use xlink:href="#Calibri-30" x="50.683594"/>
      </g>
     </g>
    </g>
    <g id="text_7">
     <!-- Change observed -->
     <g transform="translate(21.185625 108.843669) rotate(-90) scale(0.12 -0.12)">
      <defs>
       <path id="Calibri-43" d="M 3238 572 
Q 3238 522 3234 484 
Q 3231 447 3223 419 
Q 3216 391 3203 369 
Q 3191 347 3159 315 
Q 3128 284 3028 220 
Q 2928 156 2779 95 
Q 2631 34 2439 -8 
Q 2247 -50 2019 -50 
Q 1625 -50 1308 81 
Q 991 213 767 469 
Q 544 725 423 1101 
Q 303 1478 303 1969 
Q 303 2472 433 2865 
Q 563 3259 797 3532 
Q 1031 3806 1357 3950 
Q 1684 4094 2081 4094 
Q 2256 4094 2422 4061 
Q 2588 4028 2728 3978 
Q 2869 3928 2978 3862 
Q 3088 3797 3130 3755 
Q 3172 3713 3184 3691 
Q 3197 3669 3205 3639 
Q 3213 3609 3217 3568 
Q 3222 3528 3222 3472 
Q 3222 3409 3215 3365 
Q 3209 3322 3196 3292 
Q 3184 3263 3167 3248 
Q 3150 3234 3125 3234 
Q 3081 3234 3003 3295 
Q 2925 3356 2801 3429 
Q 2678 3503 2501 3564 
Q 2325 3625 2078 3625 
Q 1809 3625 1589 3517 
Q 1369 3409 1212 3200 
Q 1056 2991 970 2689 
Q 884 2388 884 2000 
Q 884 1616 967 1320 
Q 1050 1025 1204 826 
Q 1359 628 1584 526 
Q 1809 425 2094 425 
Q 2334 425 2514 484 
Q 2694 544 2820 617 
Q 2947 691 3028 750 
Q 3109 809 3156 809 
Q 3178 809 3193 800 
Q 3209 791 3218 764 
Q 3228 738 3233 691 
Q 3238 644 3238 572 
z
" transform="scale(0.015625)"/>
       <path id="Calibri-68" d="M 2900 78 
Q 2900 53 2887 36 
Q 2875 19 2847 6 
Q 2819 -6 2769 -12 
Q 2719 -19 2644 -19 
Q 2566 -19 2516 -12 
Q 2466 -6 2437 6 
Q 2409 19 2396 36 
Q 2384 53 2384 78 
L 2384 1725 
Q 2384 1966 2346 2112 
Q 2309 2259 2237 2365 
Q 2166 2472 2052 2528 
Q 1938 2584 1788 2584 
Q 1594 2584 1400 2446 
Q 1206 2309 994 2044 
L 994 78 
Q 994 53 981 36 
Q 969 19 941 6 
Q 913 -6 863 -12 
Q 813 -19 734 -19 
Q 659 -19 609 -12 
Q 559 -6 529 6 
Q 500 19 489 36 
Q 478 53 478 78 
L 478 4253 
Q 478 4278 489 4297 
Q 500 4316 529 4328 
Q 559 4341 609 4347 
Q 659 4353 734 4353 
Q 813 4353 863 4347 
Q 913 4341 941 4328 
Q 969 4316 981 4297 
Q 994 4278 994 4253 
L 994 2569 
Q 1216 2803 1441 2917 
Q 1666 3031 1894 3031 
Q 2175 3031 2367 2936 
Q 2559 2841 2678 2681 
Q 2797 2522 2848 2308 
Q 2900 2094 2900 1791 
L 2900 78 
z
" transform="scale(0.015625)"/>
       <path id="Calibri-61" d="M 2597 75 
Q 2597 38 2572 19 
Q 2547 0 2503 -9 
Q 2459 -19 2375 -19 
Q 2294 -19 2245 -9 
Q 2197 0 2175 19 
Q 2153 38 2153 75 
L 2153 356 
Q 1969 159 1742 50 
Q 1516 -59 1263 -59 
Q 1041 -59 861 -1 
Q 681 56 554 165 
Q 428 275 358 434 
Q 288 594 288 797 
Q 288 1034 384 1209 
Q 481 1384 662 1500 
Q 844 1616 1106 1673 
Q 1369 1731 1697 1731 
L 2084 1731 
L 2084 1950 
Q 2084 2113 2050 2238 
Q 2016 2363 1939 2445 
Q 1863 2528 1741 2570 
Q 1619 2613 1441 2613 
Q 1250 2613 1098 2567 
Q 947 2522 833 2467 
Q 719 2413 642 2367 
Q 566 2322 528 2322 
Q 503 2322 484 2334 
Q 466 2347 452 2372 
Q 438 2397 431 2436 
Q 425 2475 425 2522 
Q 425 2600 436 2645 
Q 447 2691 489 2731 
Q 531 2772 634 2826 
Q 738 2881 872 2926 
Q 1006 2972 1165 3001 
Q 1325 3031 1488 3031 
Q 1791 3031 2003 2962 
Q 2216 2894 2347 2761 
Q 2478 2628 2537 2431 
Q 2597 2234 2597 1972 
L 2597 75 
z
M 2084 1359 
L 1644 1359 
Q 1431 1359 1275 1323 
Q 1119 1288 1016 1217 
Q 913 1147 864 1048 
Q 816 950 816 822 
Q 816 603 955 473 
Q 1094 344 1344 344 
Q 1547 344 1720 447 
Q 1894 550 2084 763 
L 2084 1359 
z
" transform="scale(0.015625)"/>
       <path id="Calibri-6e" d="M 2900 78 
Q 2900 53 2887 36 
Q 2875 19 2847 6 
Q 2819 -6 2769 -12 
Q 2719 -19 2644 -19 
Q 2566 -19 2516 -12 
Q 2466 -6 2437 6 
Q 2409 19 2396 36 
Q 2384 53 2384 78 
L 2384 1725 
Q 2384 1966 2346 2112 
Q 2309 2259 2237 2365 
Q 2166 2472 2052 2528 
Q 1938 2584 1788 2584 
Q 1594 2584 1400 2446 
Q 1206 2309 994 2044 
L 994 78 
Q 994 53 981 36 
Q 969 19 941 6 
Q 913 -6 863 -12 
Q 813 -19 734 -19 
Q 659 -19 609 -12 
Q 559 -6 529 6 
Q 500 19 489 36 
Q 478 53 478 78 
L 478 2891 
Q 478 2916 487 2933 
Q 497 2950 525 2964 
Q 553 2978 597 2983 
Q 641 2988 713 2988 
Q 781 2988 826 2983 
Q 872 2978 897 2964 
Q 922 2950 933 2933 
Q 944 2916 944 2891 
L 944 2519 
Q 1181 2784 1417 2907 
Q 1653 3031 1894 3031 
Q 2175 3031 2367 2936 
Q 2559 2841 2678 2681 
Q 2797 2522 2848 2308 
Q 2900 2094 2900 1794 
L 2900 78 
z
" transform="scale(0.015625)"/>
       <path id="Calibri-67" d="M 2828 2763 
Q 2828 2653 2798 2604 
Q 2769 2556 2722 2556 
L 2319 2556 
Q 2428 2444 2472 2308 
Q 2516 2172 2516 2025 
Q 2516 1781 2437 1593 
Q 2359 1406 2214 1276 
Q 2069 1147 1869 1078 
Q 1669 1009 1425 1009 
Q 1253 1009 1098 1054 
Q 944 1100 859 1169 
Q 803 1113 767 1041 
Q 731 969 731 875 
Q 731 766 832 694 
Q 934 622 1103 616 
L 1838 584 
Q 2047 578 2222 526 
Q 2397 475 2525 379 
Q 2653 284 2725 145 
Q 2797 6 2797 -178 
Q 2797 -372 2715 -547 
Q 2634 -722 2467 -855 
Q 2300 -988 2040 -1064 
Q 1781 -1141 1428 -1141 
Q 1088 -1141 848 -1083 
Q 609 -1025 456 -925 
Q 303 -825 234 -686 
Q 166 -547 166 -384 
Q 166 -281 191 -184 
Q 216 -88 267 0 
Q 319 88 395 167 
Q 472 247 572 325 
Q 419 403 345 522 
Q 272 641 272 778 
Q 272 969 350 1119 
Q 428 1269 544 1388 
Q 447 1503 390 1648 
Q 334 1794 334 2000 
Q 334 2241 415 2431 
Q 497 2622 640 2753 
Q 784 2884 986 2954 
Q 1188 3025 1425 3025 
Q 1553 3025 1664 3011 
Q 1775 2997 1872 2972 
L 2722 2972 
Q 2775 2972 2801 2920 
Q 2828 2869 2828 2763 
z
M 2022 2022 
Q 2022 2309 1864 2470 
Q 1706 2631 1416 2631 
Q 1266 2631 1155 2581 
Q 1044 2531 970 2443 
Q 897 2356 861 2242 
Q 825 2128 825 2003 
Q 825 1725 983 1565 
Q 1141 1406 1425 1406 
Q 1578 1406 1690 1454 
Q 1803 1503 1876 1589 
Q 1950 1675 1986 1787 
Q 2022 1900 2022 2022 
z
M 2281 -206 
Q 2281 -25 2132 73 
Q 1984 172 1731 178 
L 1003 203 
Q 903 125 839 54 
Q 775 -16 737 -80 
Q 700 -144 686 -206 
Q 672 -269 672 -334 
Q 672 -538 878 -642 
Q 1084 -747 1453 -747 
Q 1688 -747 1845 -701 
Q 2003 -656 2100 -581 
Q 2197 -506 2239 -409 
Q 2281 -313 2281 -206 
z
" transform="scale(0.015625)"/>
       <path id="Calibri-65" d="M 2878 1606 
Q 2878 1484 2817 1432 
Q 2756 1381 2678 1381 
L 834 1381 
Q 834 1147 881 959 
Q 928 772 1037 637 
Q 1147 503 1322 431 
Q 1497 359 1750 359 
Q 1950 359 2106 392 
Q 2263 425 2377 465 
Q 2491 506 2564 539 
Q 2638 572 2675 572 
Q 2697 572 2714 561 
Q 2731 550 2740 528 
Q 2750 506 2754 467 
Q 2759 428 2759 372 
Q 2759 331 2756 301 
Q 2753 272 2748 248 
Q 2744 225 2733 206 
Q 2722 188 2705 170 
Q 2688 153 2603 114 
Q 2519 75 2384 37 
Q 2250 0 2073 -29 
Q 1897 -59 1697 -59 
Q 1350 -59 1089 37 
Q 828 134 650 325 
Q 472 516 381 803 
Q 291 1091 291 1472 
Q 291 1834 384 2123 
Q 478 2413 654 2614 
Q 831 2816 1081 2923 
Q 1331 3031 1641 3031 
Q 1972 3031 2205 2925 
Q 2438 2819 2588 2639 
Q 2738 2459 2808 2217 
Q 2878 1975 2878 1700 
L 2878 1606 
z
M 2359 1759 
Q 2369 2166 2180 2397 
Q 1991 2628 1619 2628 
Q 1428 2628 1284 2556 
Q 1141 2484 1044 2365 
Q 947 2247 894 2089 
Q 841 1931 834 1759 
L 2359 1759 
z
" transform="scale(0.015625)"/>
       <path id="Calibri-20" transform="scale(0.015625)"/>
       <path id="Calibri-6f" d="M 3094 1516 
Q 3094 1172 3003 883 
Q 2913 594 2733 384 
Q 2553 175 2283 58 
Q 2013 -59 1656 -59 
Q 1309 -59 1051 44 
Q 794 147 622 344 
Q 450 541 365 822 
Q 281 1103 281 1459 
Q 281 1803 370 2092 
Q 459 2381 639 2590 
Q 819 2800 1087 2915 
Q 1356 3031 1716 3031 
Q 2063 3031 2320 2928 
Q 2578 2825 2750 2628 
Q 2922 2431 3008 2150 
Q 3094 1869 3094 1516 
z
M 2550 1481 
Q 2550 1709 2508 1912 
Q 2466 2116 2369 2269 
Q 2272 2422 2106 2511 
Q 1941 2600 1694 2600 
Q 1466 2600 1302 2519 
Q 1138 2438 1031 2289 
Q 925 2141 873 1937 
Q 822 1734 822 1494 
Q 822 1263 864 1059 
Q 906 856 1004 704 
Q 1103 553 1268 464 
Q 1434 375 1681 375 
Q 1906 375 2072 456 
Q 2238 538 2344 684 
Q 2450 831 2500 1034 
Q 2550 1238 2550 1481 
z
" transform="scale(0.015625)"/>
       <path id="Calibri-62" d="M 3066 1522 
Q 3066 1156 2986 864 
Q 2906 572 2751 365 
Q 2597 159 2372 50 
Q 2147 -59 1856 -59 
Q 1722 -59 1608 -32 
Q 1494 -6 1384 53 
Q 1275 113 1165 203 
Q 1056 294 934 422 
L 934 78 
Q 934 53 921 34 
Q 909 16 881 5 
Q 853 -6 811 -12 
Q 769 -19 703 -19 
Q 641 -19 597 -12 
Q 553 -6 525 5 
Q 497 16 487 34 
Q 478 53 478 78 
L 478 4253 
Q 478 4278 489 4297 
Q 500 4316 529 4328 
Q 559 4341 609 4347 
Q 659 4353 734 4353 
Q 813 4353 863 4347 
Q 913 4341 941 4328 
Q 969 4316 981 4297 
Q 994 4278 994 4253 
L 994 2569 
Q 1119 2697 1236 2784 
Q 1353 2872 1465 2926 
Q 1578 2981 1690 3006 
Q 1803 3031 1928 3031 
Q 2234 3031 2451 2909 
Q 2669 2788 2805 2583 
Q 2941 2378 3003 2103 
Q 3066 1828 3066 1522 
z
M 2522 1463 
Q 2522 1678 2489 1881 
Q 2456 2084 2375 2240 
Q 2294 2397 2159 2492 
Q 2025 2588 1825 2588 
Q 1725 2588 1628 2559 
Q 1531 2531 1431 2465 
Q 1331 2400 1223 2297 
Q 1116 2194 994 2038 
L 994 916 
Q 1206 656 1400 520 
Q 1594 384 1803 384 
Q 1997 384 2134 478 
Q 2272 572 2358 726 
Q 2444 881 2483 1073 
Q 2522 1266 2522 1463 
z
" transform="scale(0.015625)"/>
       <path id="Calibri-73" d="M 2244 844 
Q 2244 628 2164 459 
Q 2084 291 1937 175 
Q 1791 59 1587 0 
Q 1384 -59 1141 -59 
Q 991 -59 855 -36 
Q 719 -13 611 23 
Q 503 59 428 98 
Q 353 138 318 169 
Q 284 200 268 256 
Q 253 313 253 409 
Q 253 469 259 509 
Q 266 550 275 575 
Q 284 600 301 611 
Q 319 622 341 622 
Q 375 622 442 580 
Q 509 538 607 488 
Q 706 438 840 395 
Q 975 353 1150 353 
Q 1281 353 1387 381 
Q 1494 409 1572 464 
Q 1650 519 1692 603 
Q 1734 688 1734 803 
Q 1734 922 1673 1003 
Q 1613 1084 1513 1146 
Q 1413 1209 1288 1257 
Q 1163 1306 1030 1359 
Q 897 1413 770 1480 
Q 644 1547 544 1644 
Q 444 1741 383 1875 
Q 322 2009 322 2197 
Q 322 2363 386 2514 
Q 450 2666 578 2780 
Q 706 2894 898 2962 
Q 1091 3031 1347 3031 
Q 1459 3031 1571 3012 
Q 1684 2994 1775 2966 
Q 1866 2938 1930 2905 
Q 1994 2872 2026 2847 
Q 2059 2822 2070 2803 
Q 2081 2784 2086 2761 
Q 2091 2738 2095 2703 
Q 2100 2669 2100 2619 
Q 2100 2566 2095 2527 
Q 2091 2488 2080 2463 
Q 2069 2438 2053 2427 
Q 2038 2416 2019 2416 
Q 1991 2416 1937 2450 
Q 1884 2484 1800 2523 
Q 1716 2563 1602 2597 
Q 1488 2631 1341 2631 
Q 1209 2631 1109 2601 
Q 1009 2572 945 2517 
Q 881 2463 848 2388 
Q 816 2313 816 2225 
Q 816 2103 878 2020 
Q 941 1938 1041 1875 
Q 1141 1813 1269 1763 
Q 1397 1713 1530 1659 
Q 1663 1606 1792 1540 
Q 1922 1475 2022 1381 
Q 2122 1288 2183 1156 
Q 2244 1025 2244 844 
z
" transform="scale(0.015625)"/>
       <path id="Calibri-72" d="M 2122 2706 
Q 2122 2638 2119 2591 
Q 2116 2544 2106 2517 
Q 2097 2491 2083 2477 
Q 2069 2463 2044 2463 
Q 2019 2463 1983 2477 
Q 1947 2491 1901 2505 
Q 1856 2519 1800 2531 
Q 1744 2544 1678 2544 
Q 1600 2544 1525 2512 
Q 1450 2481 1367 2409 
Q 1284 2338 1193 2219 
Q 1103 2100 994 1928 
L 994 78 
Q 994 53 981 36 
Q 969 19 941 6 
Q 913 -6 863 -12 
Q 813 -19 734 -19 
Q 659 -19 609 -12 
Q 559 -6 529 6 
Q 500 19 489 36 
Q 478 53 478 78 
L 478 2891 
Q 478 2916 487 2933 
Q 497 2950 525 2964 
Q 553 2978 597 2983 
Q 641 2988 713 2988 
Q 781 2988 826 2983 
Q 872 2978 897 2964 
Q 922 2950 933 2933 
Q 944 2916 944 2891 
L 944 2481 
Q 1059 2650 1161 2756 
Q 1263 2863 1353 2923 
Q 1444 2984 1533 3007 
Q 1622 3031 1713 3031 
Q 1753 3031 1804 3026 
Q 1856 3022 1912 3009 
Q 1969 2997 2014 2981 
Q 2059 2966 2078 2950 
Q 2097 2934 2103 2920 
Q 2109 2906 2114 2884 
Q 2119 2863 2120 2820 
Q 2122 2778 2122 2706 
z
" transform="scale(0.015625)"/>
       <path id="Calibri-76" d="M 2784 2897 
Q 2784 2884 2782 2870 
Q 2781 2856 2778 2840 
Q 2775 2825 2770 2806 
Q 2766 2788 2759 2766 
L 1800 94 
Q 1788 59 1767 37 
Q 1747 16 1706 3 
Q 1666 -9 1603 -14 
Q 1541 -19 1447 -19 
Q 1353 -19 1290 -12 
Q 1228 -6 1189 6 
Q 1150 19 1128 41 
Q 1106 63 1094 94 
L 138 2766 
Q 125 2803 117 2831 
Q 109 2859 107 2873 
Q 106 2888 106 2897 
Q 106 2922 118 2940 
Q 131 2959 161 2970 
Q 191 2981 239 2984 
Q 288 2988 359 2988 
Q 450 2988 504 2983 
Q 559 2978 589 2965 
Q 619 2953 633 2934 
Q 647 2916 659 2888 
L 1453 569 
L 1466 531 
L 1475 569 
L 2259 2888 
Q 2266 2916 2281 2934 
Q 2297 2953 2326 2965 
Q 2356 2978 2407 2983 
Q 2459 2988 2544 2988 
Q 2616 2988 2662 2984 
Q 2709 2981 2736 2968 
Q 2763 2956 2773 2939 
Q 2784 2922 2784 2897 
z
" transform="scale(0.015625)"/>
       <path id="Calibri-64" d="M 2888 78 
Q 2888 53 2877 34 
Q 2866 16 2839 5 
Q 2813 -6 2769 -12 
Q 2725 -19 2663 -19 
Q 2597 -19 2553 -12 
Q 2509 -6 2481 5 
Q 2453 16 2440 34 
Q 2428 53 2428 78 
L 2428 450 
Q 2206 209 1967 75 
Q 1728 -59 1444 -59 
Q 1134 -59 915 61 
Q 697 181 561 386 
Q 425 591 362 867 
Q 300 1144 300 1450 
Q 300 1813 378 2105 
Q 456 2397 609 2603 
Q 763 2809 989 2920 
Q 1216 3031 1513 3031 
Q 1759 3031 1964 2923 
Q 2169 2816 2369 2606 
L 2369 4241 
Q 2369 4263 2380 4283 
Q 2391 4303 2422 4314 
Q 2453 4325 2501 4333 
Q 2550 4341 2625 4341 
Q 2703 4341 2753 4333 
Q 2803 4325 2831 4314 
Q 2859 4303 2873 4283 
Q 2888 4263 2888 4241 
L 2888 78 
z
M 2369 2056 
Q 2159 2316 1964 2452 
Q 1769 2588 1556 2588 
Q 1359 2588 1221 2494 
Q 1084 2400 998 2247 
Q 913 2094 873 1900 
Q 834 1706 834 1506 
Q 834 1294 867 1091 
Q 900 888 981 730 
Q 1063 572 1197 476 
Q 1331 381 1534 381 
Q 1638 381 1733 409 
Q 1828 438 1928 503 
Q 2028 569 2137 673 
Q 2247 778 2369 931 
L 2369 2056 
z
" transform="scale(0.015625)"/>
      </defs>
      <use xlink:href="#Calibri-43"/>
      <use xlink:href="#Calibri-68" x="53.320312"/>
      <use xlink:href="#Calibri-61" x="105.859375"/>
      <use xlink:href="#Calibri-6e" x="153.759766"/>
      <use xlink:href="#Calibri-67" x="206.298828"/>
      <use xlink:href="#Calibri-65" x="253.369141"/>
      <use xlink:href="#Calibri-20" x="303.125"/>
      <use xlink:href="#Calibri-6f" x="325.732422"/>
      <use xlink:href="#Calibri-62" x="378.466797"/>
      <use xlink:href="#Calibri-73" x="431.005859"/>
      <use xlink:href="#Calibri-65" x="470.117188"/>
      <use xlink:href="#Calibri-72" x="519.873047"/>
      <use xlink:href="#Calibri-76" x="554.736328"/>
      <use xlink:href="#Calibri-65" x="599.902344"/>
      <use xlink:href="#Calibri-64" x="649.658203"/>
     </g>
    </g>
   </g>
   <g id="line2d_7">
    <path d="M 51.968685 99.972939 
L 52.638765 99.61412 
L 53.308846 99.255302 
L 53.978926 98.896484 
L 54.649006 98.537665 
L 55.319086 98.178847 
L 55.989166 97.820028 
L 56.659246 97.46121 
L 57.329326 97.102392 
L 57.999407 96.743573 
L 58.669487 96.384755 
L 59.339567 96.025936 
L 60.009647 95.667118 
L 60.679727 95.3083 
L 61.349807 94.949481 
L 62.019887 94.590663 
L 62.689968 94.231844 
L 63.360048 93.873026 
L 64.030128 93.514207 
L 64.700208 93.155389 
L 65.370288 92.796571 
L 66.040368 92.437752 
L 66.710449 92.078934 
L 67.380529 91.720115 
L 68.050609 91.361297 
L 68.720689 91.002479 
L 69.390769 90.64366 
L 70.060849 90.284842 
L 70.730929 89.926023 
L 71.40101 89.567205 
L 72.07109 89.208387 
L 72.74117 88.849568 
L 73.41125 88.49075 
L 74.08133 88.131931 
L 74.75141 87.773113 
L 75.42149 87.414294 
L 76.091571 87.055476 
L 76.761651 86.696658 
L 77.431731 86.337839 
L 78.101811 85.979021 
L 78.771891 85.620202 
L 79.441971 85.261384 
L 80.112052 84.902566 
L 80.782132 84.543747 
L 81.452212 84.184929 
L 82.122292 83.82611 
L 82.792372 83.467292 
L 83.462452 83.108474 
L 84.132532 82.749655 
L 84.802613 82.390837 
L 85.472693 82.032018 
L 86.142773 81.6732 
L 86.812853 81.314381 
L 87.482933 80.955563 
L 88.153013 80.596745 
L 88.823093 80.237926 
L 89.493174 79.879108 
L 90.163254 79.520289 
L 90.833334 79.161471 
L 91.503414 78.802653 
L 92.173494 78.443834 
L 92.843574 78.085016 
L 93.513655 77.726197 
L 94.183735 77.367379 
L 94.853815 77.00856 
L 95.523895 76.649742 
L 96.193975 76.290924 
L 96.864055 75.932105 
L 97.534135 75.573287 
L 98.204216 75.214468 
L 98.874296 74.85565 
L 99.544376 74.496832 
L 100.214456 74.138013 
L 100.884536 73.779195 
L 101.554616 73.420376 
L 102.224696 73.061558 
L 102.894777 72.70274 
L 103.564857 72.343921 
L 104.234937 71.985103 
L 104.905017 71.626284 
L 105.575097 71.267466 
L 106.245177 70.908647 
L 106.915258 70.549829 
L 107.585338 70.191011 
L 108.255418 69.832192 
L 108.925498 69.473374 
L 109.595578 69.114555 
L 110.265658 68.755737 
L 110.935738 68.396919 
L 111.605819 68.0381 
L 112.275899 67.679282 
L 112.945979 67.320463 
L 113.616059 66.961645 
L 114.286139 66.602827 
L 114.956219 66.244008 
L 115.626299 65.88519 
L 116.29638 65.526371 
L 116.96646 65.167553 
L 117.63654 64.808734 
L 118.30662 64.449916 
" clip-path="url(#p49661dca28)" style="fill: none; stroke-dasharray: 5.55,2.4; stroke-dashoffset: 0; stroke: #e69f00; stroke-width: 1.5"/>
   </g>
   <g id="line2d_8">
    <path d="M 82.364073 82.256131 
L 83.163854 81.827859 
L 83.963635 81.399588 
L 84.763416 80.971316 
L 85.563197 80.543045 
L 86.362978 80.114774 
L 87.162759 79.686502 
L 87.96254 79.258231 
L 88.762321 78.82996 
L 89.562102 78.401688 
L 90.361883 77.973417 
L 91.161664 77.545146 
L 91.961445 77.116874 
L 92.761226 76.688603 
L 93.561007 76.260331 
L 94.360788 75.83206 
L 95.160569 75.403789 
L 95.96035 74.975517 
L 96.760131 74.547246 
L 97.559912 74.118975 
L 98.359693 73.690703 
L 99.159474 73.262432 
L 99.959255 72.834161 
L 100.759036 72.405889 
L 101.558817 71.977618 
L 102.358598 71.549346 
L 103.158379 71.121075 
L 103.95816 70.692804 
L 104.757941 70.264532 
L 105.557722 69.836261 
L 106.357503 69.40799 
L 107.157284 68.979718 
L 107.957065 68.551447 
L 108.756846 68.123176 
L 109.556627 67.694904 
L 110.356408 67.266633 
L 111.156188 66.838362 
L 111.955969 66.41009 
L 112.75575 65.981819 
L 113.555531 65.553547 
L 114.355312 65.125276 
L 115.155093 64.697005 
L 115.954874 64.268733 
L 116.754655 63.840462 
L 117.554436 63.412191 
L 118.354217 62.983919 
L 119.153998 62.555648 
L 119.953779 62.127377 
L 120.75356 61.699105 
L 121.553341 61.270834 
L 122.353122 60.842562 
L 123.152903 60.414291 
L 123.952684 59.98602 
L 124.752465 59.557748 
L 125.552246 59.129477 
L 126.352027 58.701206 
L 127.151808 58.272934 
L 127.951589 57.844663 
L 128.75137 57.416392 
L 129.551151 56.98812 
L 130.350932 56.559849 
L 131.150713 56.131577 
L 131.950494 55.703306 
L 132.750275 55.275035 
L 133.550056 54.846763 
L 134.349837 54.418492 
L 135.149618 53.990221 
L 135.949399 53.561949 
L 136.74918 53.133678 
L 137.548961 52.705407 
L 138.348742 52.277135 
L 139.148523 51.848864 
L 139.948304 51.420592 
L 140.748084 50.992321 
L 141.547865 50.56405 
L 142.347646 50.135778 
L 143.147427 49.707507 
L 143.947208 49.279236 
L 144.746989 48.850964 
L 145.54677 48.422693 
L 146.346551 47.994422 
L 147.146332 47.56615 
L 147.946113 47.137879 
L 148.745894 46.709607 
L 149.545675 46.281336 
L 150.345456 45.853065 
L 151.145237 45.424793 
L 151.945018 44.996522 
L 152.744799 44.568251 
L 153.54458 44.139979 
L 154.344361 43.711708 
L 155.144142 43.283437 
L 155.943923 42.855165 
L 156.743704 42.426894 
L 157.543485 41.998622 
L 158.343266 41.570351 
L 159.143047 41.14208 
L 159.942828 40.713808 
L 160.742609 40.285537 
L 161.54239 39.857266 
" clip-path="url(#p49661dca28)" style="fill: none; stroke-dasharray: 5.55,2.4; stroke-dashoffset: 0; stroke: #cc79a7; stroke-width: 1.5"/>
   </g>
   <g id="patch_3">
    <path d="M 46.49 106.299213 
L 46.49 27.12 
" style="fill: none; stroke: #000000; stroke-width: 0.8; stroke-linejoin: miter; stroke-linecap: square"/>
   </g>
   <g id="patch_4">
    <path d="M 46.49 106.299213 
L 167.021075 106.299213 
" style="fill: none; stroke: #000000; stroke-width: 0.8; stroke-linejoin: miter; stroke-linecap: square"/>
   </g>
   <g id="text_8">
    <!-- Paw Drags -->
    <g transform="translate(81.3071 21.12) scale(0.12 -0.12)">
     <defs>
      <path id="Calibri-50" d="M 3022 2859 
Q 3022 2556 2922 2312 
Q 2822 2069 2636 1897 
Q 2450 1725 2179 1631 
Q 1909 1538 1534 1538 
L 1075 1538 
L 1075 81 
Q 1075 56 1061 37 
Q 1047 19 1017 8 
Q 988 -3 936 -11 
Q 884 -19 806 -19 
Q 728 -19 676 -11 
Q 625 -3 594 8 
Q 563 19 550 37 
Q 538 56 538 81 
L 538 3813 
Q 538 3938 603 3991 
Q 669 4044 750 4044 
L 1616 4044 
Q 1747 4044 1867 4033 
Q 1988 4022 2152 3986 
Q 2316 3950 2486 3851 
Q 2656 3753 2775 3609 
Q 2894 3466 2958 3277 
Q 3022 3088 3022 2859 
z
M 2456 2816 
Q 2456 3063 2364 3228 
Q 2272 3394 2136 3475 
Q 2000 3556 1854 3578 
Q 1709 3600 1572 3600 
L 1075 3600 
L 1075 1978 
L 1559 1978 
Q 1803 1978 1964 2040 
Q 2125 2103 2234 2214 
Q 2344 2325 2400 2479 
Q 2456 2634 2456 2816 
z
" transform="scale(0.015625)"/>
      <path id="Calibri-77" d="M 4413 2897 
Q 4413 2875 4406 2844 
Q 4400 2813 4384 2766 
L 3556 94 
Q 3547 59 3526 37 
Q 3506 16 3470 3 
Q 3434 -9 3371 -14 
Q 3309 -19 3216 -19 
Q 3119 -19 3053 -12 
Q 2988 -6 2948 6 
Q 2909 19 2890 41 
Q 2872 63 2863 94 
L 2272 2134 
L 2266 2163 
L 2259 2134 
L 1713 94 
Q 1703 59 1683 37 
Q 1663 16 1622 3 
Q 1581 -9 1517 -14 
Q 1453 -19 1359 -19 
Q 1263 -19 1202 -12 
Q 1141 -6 1102 6 
Q 1063 19 1044 41 
Q 1025 63 1016 94 
L 194 2766 
Q 178 2813 172 2844 
Q 166 2875 166 2897 
Q 166 2925 178 2942 
Q 191 2959 220 2970 
Q 250 2981 300 2984 
Q 350 2988 422 2988 
Q 509 2988 562 2983 
Q 616 2978 644 2967 
Q 672 2956 684 2936 
Q 697 2916 706 2888 
L 1384 569 
L 1391 541 
L 1397 569 
L 2019 2888 
Q 2025 2916 2039 2936 
Q 2053 2956 2081 2967 
Q 2109 2978 2157 2983 
Q 2206 2988 2284 2988 
Q 2359 2988 2407 2983 
Q 2456 2978 2484 2967 
Q 2513 2956 2525 2937 
Q 2538 2919 2544 2894 
L 3216 569 
L 3222 541 
L 3225 569 
L 3894 2888 
Q 3900 2916 3914 2936 
Q 3928 2956 3958 2967 
Q 3988 2978 4039 2983 
Q 4091 2988 4172 2988 
Q 4247 2988 4292 2984 
Q 4338 2981 4364 2968 
Q 4391 2956 4402 2940 
Q 4413 2925 4413 2897 
z
" transform="scale(0.015625)"/>
      <path id="Calibri-44" d="M 3647 2081 
Q 3647 1556 3512 1164 
Q 3378 772 3120 514 
Q 2863 256 2488 128 
Q 2113 0 1594 0 
L 738 0 
Q 666 0 602 48 
Q 538 97 538 219 
L 538 3825 
Q 538 3947 602 3995 
Q 666 4044 738 4044 
L 1653 4044 
Q 2178 4044 2540 3908 
Q 2903 3772 3148 3517 
Q 3394 3263 3520 2900 
Q 3647 2538 3647 2081 
z
M 3081 2059 
Q 3081 2388 3000 2670 
Q 2919 2953 2745 3159 
Q 2572 3366 2306 3481 
Q 2041 3597 1622 3597 
L 1075 3597 
L 1075 450 
L 1628 450 
Q 2016 450 2281 547 
Q 2547 644 2725 844 
Q 2903 1044 2992 1345 
Q 3081 1647 3081 2059 
z
" transform="scale(0.015625)"/>
     </defs>
     <use xlink:href="#Calibri-50"/>
     <use xlink:href="#Calibri-61" x="51.660156"/>
     <use xlink:href="#Calibri-77" x="99.560547"/>
     <use xlink:href="#Calibri-20" x="171.044922"/>
     <use xlink:href="#Calibri-44" x="193.652344"/>
     <use xlink:href="#Calibri-72" x="255.175781"/>
     <use xlink:href="#Calibri-61" x="290.039062"/>
     <use xlink:href="#Calibri-67" x="337.939453"/>
     <use xlink:href="#Calibri-73" x="385.009766"/>
    </g>
   </g>
  </g>
  <g id="axes_2">
   <g id="patch_5">
    <path d="M 211.617573 106.299213 
L 332.148648 106.299213 
L 332.148648 27.12 
L 211.617573 27.12 
z
" style="fill: #ffffff"/>
   </g>
   <g id="PathCollection_5">
    <g clip-path="url(#p89beafcb5d)">
     <use xlink:href="#m2e1768a1eb" x="255.50371" y="91.604256" style="fill: #e69f00; fill-opacity: 0.9; stroke: #e69f00; stroke-opacity: 0.9"/>
     <use xlink:href="#m2e1768a1eb" x="247.549031" y="74.067742" style="fill: #e69f00; fill-opacity: 0.9; stroke: #e69f00; stroke-opacity: 0.9"/>
     <use xlink:href="#m2e1768a1eb" x="256.684177" y="78.368517" style="fill: #e69f00; fill-opacity: 0.9; stroke: #e69f00; stroke-opacity: 0.9"/>
     <use xlink:href="#m2e1768a1eb" x="241.838707" y="83.775986" style="fill: #e69f00; fill-opacity: 0.9; stroke: #e69f00; stroke-opacity: 0.9"/>
     <use xlink:href="#m2e1768a1eb" x="255.97725" y="78.289175" style="fill: #e69f00; fill-opacity: 0.9; stroke: #e69f00; stroke-opacity: 0.9"/>
     <use xlink:href="#m2e1768a1eb" x="248.293522" y="79.301142" style="fill: #e69f00; fill-opacity: 0.9; stroke: #e69f00; stroke-opacity: 0.9"/>
     <use xlink:href="#m2e1768a1eb" x="256.155135" y="77.574956" style="fill: #e69f00; fill-opacity: 0.9; stroke: #e69f00; stroke-opacity: 0.9"/>
     <use xlink:href="#m2e1768a1eb" x="260.652657" y="86.272641" style="fill: #e69f00; fill-opacity: 0.9; stroke: #e69f00; stroke-opacity: 0.9"/>
     <use xlink:href="#m2e1768a1eb" x="280.719699" y="102.700157" style="fill: #e69f00; fill-opacity: 0.9; stroke: #e69f00; stroke-opacity: 0.9"/>
     <use xlink:href="#m2e1768a1eb" x="227.700165" y="90.181705" style="fill: #e69f00; fill-opacity: 0.9; stroke: #e69f00; stroke-opacity: 0.9"/>
     <use xlink:href="#m2e1768a1eb" x="217.096258" y="99.570544" style="fill: #e69f00; fill-opacity: 0.9; stroke: #e69f00; stroke-opacity: 0.9"/>
     <use xlink:href="#m2e1768a1eb" x="224.165529" y="93.311318" style="fill: #e69f00; fill-opacity: 0.9; stroke: #e69f00; stroke-opacity: 0.9"/>
     <use xlink:href="#m2e1768a1eb" x="248.907979" y="77.663252" style="fill: #e69f00; fill-opacity: 0.9; stroke: #e69f00; stroke-opacity: 0.9"/>
     <use xlink:href="#m2e1768a1eb" x="252.442614" y="93.311318" style="fill: #e69f00; fill-opacity: 0.9; stroke: #e69f00; stroke-opacity: 0.9"/>
     <use xlink:href="#m2e1768a1eb" x="248.907979" y="87.052092" style="fill: #e69f00; fill-opacity: 0.9; stroke: #e69f00; stroke-opacity: 0.9"/>
     <use xlink:href="#m2e1768a1eb" x="271.312877" y="73.357093" style="fill: #e69f00; fill-opacity: 0.9; stroke: #e69f00; stroke-opacity: 0.9"/>
     <use xlink:href="#m2e1768a1eb" x="282.596438" y="58.409693" style="fill: #e69f00; fill-opacity: 0.9; stroke: #e69f00; stroke-opacity: 0.9"/>
     <use xlink:href="#m2e1768a1eb" x="234.823732" y="100.849311" style="fill: #e69f00; fill-opacity: 0.9; stroke: #e69f00; stroke-opacity: 0.9"/>
     <use xlink:href="#m2e1768a1eb" x="241.808465" y="89.555782" style="fill: #e69f00; fill-opacity: 0.9; stroke: #e69f00; stroke-opacity: 0.9"/>
     <use xlink:href="#m2e1768a1eb" x="233.355582" y="85.800246" style="fill: #e69f00; fill-opacity: 0.9; stroke: #e69f00; stroke-opacity: 0.9"/>
     <use xlink:href="#m2e1768a1eb" x="289.61723" y="97.554861" style="fill: #e69f00; fill-opacity: 0.9; stroke: #e69f00; stroke-opacity: 0.9"/>
     <use xlink:href="#m2e1768a1eb" x="275.324729" y="85.69139" style="fill: #e69f00; fill-opacity: 0.9; stroke: #e69f00; stroke-opacity: 0.9"/>
    </g>
   </g>
   <g id="PathCollection_6">
    <g clip-path="url(#p89beafcb5d)">
     <use xlink:href="#m9421ee6124" x="280.719699" y="102.700157" style="fill: #ff0000; fill-opacity: 0.5; stroke: #ff0000; stroke-opacity: 0.5; stroke-width: 1.5"/>
     <use xlink:href="#m9421ee6124" x="289.61723" y="97.554861" style="fill: #ff0000; fill-opacity: 0.5; stroke: #ff0000; stroke-opacity: 0.5; stroke-width: 1.5"/>
    </g>
   </g>
   <g id="PathCollection_7">
    <g clip-path="url(#p89beafcb5d)">
     <use xlink:href="#m918501ded0" x="250.321833" y="84.087195" style="fill: #cc79a7; fill-opacity: 0.9; stroke: #cc79a7; stroke-opacity: 0.9"/>
     <use xlink:href="#m918501ded0" x="275.655793" y="77.235817" style="fill: #cc79a7; fill-opacity: 0.9; stroke: #cc79a7; stroke-opacity: 0.9"/>
     <use xlink:href="#m918501ded0" x="247.802401" y="87.108182" style="fill: #cc79a7; fill-opacity: 0.9; stroke: #cc79a7; stroke-opacity: 0.9"/>
     <use xlink:href="#m918501ded0" x="237.597145" y="92.702623" style="fill: #cc79a7; fill-opacity: 0.9; stroke: #cc79a7; stroke-opacity: 0.9"/>
     <use xlink:href="#m918501ded0" x="282.811627" y="70.716313" style="fill: #cc79a7; fill-opacity: 0.9; stroke: #cc79a7; stroke-opacity: 0.9"/>
     <use xlink:href="#m918501ded0" x="260.162473" y="84.257225" style="fill: #cc79a7; fill-opacity: 0.9; stroke: #cc79a7; stroke-opacity: 0.9"/>
     <use xlink:href="#m918501ded0" x="274.274187" y="65.681076" style="fill: #cc79a7; fill-opacity: 0.9; stroke: #cc79a7; stroke-opacity: 0.9"/>
     <use xlink:href="#m918501ded0" x="259.843116" y="73.357093" style="fill: #cc79a7; fill-opacity: 0.9; stroke: #cc79a7; stroke-opacity: 0.9"/>
     <use xlink:href="#m918501ded0" x="278.816434" y="81.517467" style="fill: #cc79a7; fill-opacity: 0.9; stroke: #cc79a7; stroke-opacity: 0.9"/>
     <use xlink:href="#m918501ded0" x="291.323606" y="68.274413" style="fill: #cc79a7; fill-opacity: 0.9; stroke: #cc79a7; stroke-opacity: 0.9"/>
     <use xlink:href="#m918501ded0" x="326.669963" y="30.719055" style="fill: #cc79a7; fill-opacity: 0.9; stroke: #cc79a7; stroke-opacity: 0.9"/>
     <use xlink:href="#m918501ded0" x="287.217923" y="80.339915" style="fill: #cc79a7; fill-opacity: 0.9; stroke: #cc79a7; stroke-opacity: 0.9"/>
     <use xlink:href="#m918501ded0" x="282.571175" y="78.11034" style="fill: #cc79a7; fill-opacity: 0.9; stroke: #cc79a7; stroke-opacity: 0.9"/>
     <use xlink:href="#m918501ded0" x="313.486568" y="72.265387" style="fill: #cc79a7; fill-opacity: 0.9; stroke: #cc79a7; stroke-opacity: 0.9"/>
     <use xlink:href="#m918501ded0" x="320.151544" y="42.065995" style="fill: #cc79a7; fill-opacity: 0.9; stroke: #cc79a7; stroke-opacity: 0.9"/>
     <use xlink:href="#m918501ded0" x="318.186837" y="63.957705" style="fill: #cc79a7; fill-opacity: 0.9; stroke: #cc79a7; stroke-opacity: 0.9"/>
     <use xlink:href="#m918501ded0" x="303.253205" y="91.37823" style="fill: #cc79a7; fill-opacity: 0.9; stroke: #cc79a7; stroke-opacity: 0.9"/>
     <use xlink:href="#m918501ded0" x="309.208048" y="59.656825" style="fill: #cc79a7; fill-opacity: 0.9; stroke: #cc79a7; stroke-opacity: 0.9"/>
     <use xlink:href="#m918501ded0" x="310.303604" y="47.565531" style="fill: #cc79a7; fill-opacity: 0.9; stroke: #cc79a7; stroke-opacity: 0.9"/>
     <use xlink:href="#m918501ded0" x="290.997332" y="92.591078" style="fill: #cc79a7; fill-opacity: 0.9; stroke: #cc79a7; stroke-opacity: 0.9"/>
    </g>
   </g>
   <g id="PathCollection_8">
    <g clip-path="url(#p89beafcb5d)">
     <use xlink:href="#m9421ee6124" x="303.253205" y="91.37823" style="fill: #ff0000; fill-opacity: 0.5; stroke: #ff0000; stroke-opacity: 0.5; stroke-width: 1.5"/>
    </g>
   </g>
   <g id="matplotlib.axis_3">
    <g id="xtick_4">
     <g id="line2d_9">
      <g>
       <use xlink:href="#mab955b247a" x="213.561622" y="106.299213" style="stroke: #000000; stroke-width: 0.8"/>
      </g>
     </g>
     <g id="text_9">
      <!-- 0 -->
      <g transform="translate(210.520372 121.461088) scale(0.12 -0.12)">
       <use xlink:href="#Calibri-30"/>
      </g>
     </g>
    </g>
    <g id="xtick_5">
     <g id="line2d_10">
      <g>
       <use xlink:href="#mab955b247a" x="247.494124" y="106.299213" style="stroke: #000000; stroke-width: 0.8"/>
      </g>
     </g>
     <g id="text_10">
      <!-- 8 -->
      <g transform="translate(244.452874 121.461088) scale(0.12 -0.12)">
       <defs>
        <path id="Calibri-38" d="M 2981 1038 
Q 2981 775 2887 570 
Q 2794 366 2617 225 
Q 2441 84 2181 12 
Q 1922 -59 1588 -59 
Q 1275 -59 1028 6 
Q 781 72 609 200 
Q 438 328 347 515 
Q 256 703 256 944 
Q 256 1134 318 1293 
Q 381 1453 498 1587 
Q 616 1722 787 1839 
Q 959 1956 1175 2063 
Q 988 2159 844 2267 
Q 700 2375 600 2501 
Q 500 2628 448 2772 
Q 397 2916 397 3084 
Q 397 3297 473 3483 
Q 550 3669 704 3806 
Q 859 3944 1098 4023 
Q 1338 4103 1656 4103 
Q 1963 4103 2186 4029 
Q 2409 3956 2554 3829 
Q 2700 3703 2769 3531 
Q 2838 3359 2838 3163 
Q 2838 3003 2786 2856 
Q 2734 2709 2634 2578 
Q 2534 2447 2389 2333 
Q 2244 2219 2056 2119 
Q 2278 2009 2451 1893 
Q 2625 1778 2742 1645 
Q 2859 1513 2920 1364 
Q 2981 1216 2981 1038 
z
M 2306 3113 
Q 2306 3244 2261 3350 
Q 2216 3456 2128 3531 
Q 2041 3606 1911 3645 
Q 1781 3684 1616 3684 
Q 1278 3684 1104 3531 
Q 931 3378 931 3113 
Q 931 2991 973 2886 
Q 1016 2781 1105 2687 
Q 1194 2594 1330 2505 
Q 1466 2416 1653 2319 
Q 1969 2481 2137 2678 
Q 2306 2875 2306 3113 
z
M 2438 981 
Q 2438 1125 2384 1242 
Q 2331 1359 2223 1461 
Q 2116 1563 1955 1658 
Q 1794 1753 1581 1856 
Q 1384 1759 1236 1662 
Q 1088 1566 992 1462 
Q 897 1359 848 1245 
Q 800 1131 800 994 
Q 800 691 1008 525 
Q 1216 359 1628 359 
Q 2028 359 2233 526 
Q 2438 694 2438 981 
z
" transform="scale(0.015625)"/>
       </defs>
       <use xlink:href="#Calibri-38"/>
      </g>
     </g>
    </g>
    <g id="xtick_6">
     <g id="line2d_11">
      <g>
       <use xlink:href="#mab955b247a" x="281.426626" y="106.299213" style="stroke: #000000; stroke-width: 0.8"/>
      </g>
     </g>
     <g id="text_11">
      <!-- 16 -->
      <g transform="translate(275.344126 121.461088) scale(0.12 -0.12)">
       <defs>
        <path id="Calibri-31" d="M 2897 213 
Q 2897 153 2887 112 
Q 2878 72 2862 47 
Q 2847 22 2826 11 
Q 2806 0 2784 0 
L 672 0 
Q 650 0 631 11 
Q 613 22 595 47 
Q 578 72 568 112 
Q 559 153 559 213 
Q 559 269 568 309 
Q 578 350 592 376 
Q 606 403 626 417 
Q 647 431 672 431 
L 1516 431 
L 1516 3506 
L 734 3041 
Q 675 3009 639 3003 
Q 603 2997 581 3017 
Q 559 3038 551 3084 
Q 544 3131 544 3203 
Q 544 3256 548 3293 
Q 553 3331 562 3356 
Q 572 3381 589 3400 
Q 606 3419 634 3438 
L 1566 4034 
Q 1578 4044 1597 4050 
Q 1616 4056 1644 4062 
Q 1672 4069 1709 4070 
Q 1747 4072 1803 4072 
Q 1878 4072 1928 4065 
Q 1978 4059 2006 4048 
Q 2034 4038 2043 4020 
Q 2053 4003 2053 3984 
L 2053 431 
L 2784 431 
Q 2809 431 2831 417 
Q 2853 403 2867 376 
Q 2881 350 2889 309 
Q 2897 269 2897 213 
z
" transform="scale(0.015625)"/>
        <path id="Calibri-36" d="M 2991 1309 
Q 2991 1044 2909 795 
Q 2828 547 2659 358 
Q 2491 169 2231 55 
Q 1972 -59 1619 -59 
Q 1366 -59 1172 3 
Q 978 66 834 181 
Q 691 297 595 465 
Q 500 634 442 850 
Q 384 1066 359 1322 
Q 334 1578 334 1872 
Q 334 2131 362 2397 
Q 391 2663 462 2909 
Q 534 3156 657 3373 
Q 781 3591 967 3752 
Q 1153 3913 1412 4006 
Q 1672 4100 2016 4100 
Q 2131 4100 2250 4086 
Q 2369 4072 2469 4048 
Q 2569 4025 2637 3997 
Q 2706 3969 2728 3951 
Q 2750 3934 2761 3914 
Q 2772 3894 2778 3870 
Q 2784 3847 2787 3817 
Q 2791 3788 2791 3744 
Q 2791 3688 2789 3647 
Q 2788 3606 2777 3581 
Q 2766 3556 2748 3543 
Q 2731 3531 2703 3531 
Q 2669 3531 2609 3553 
Q 2550 3575 2465 3601 
Q 2381 3628 2261 3650 
Q 2141 3672 1981 3672 
Q 1691 3672 1481 3553 
Q 1272 3434 1139 3234 
Q 1006 3034 942 2770 
Q 878 2506 869 2219 
Q 950 2266 1051 2312 
Q 1153 2359 1273 2396 
Q 1394 2434 1528 2457 
Q 1663 2481 1816 2481 
Q 2144 2481 2369 2392 
Q 2594 2303 2733 2145 
Q 2872 1988 2931 1773 
Q 2991 1559 2991 1309 
z
M 2447 1259 
Q 2447 1441 2411 1589 
Q 2375 1738 2290 1841 
Q 2206 1944 2065 2000 
Q 1925 2056 1719 2056 
Q 1603 2056 1487 2036 
Q 1372 2016 1264 1980 
Q 1156 1944 1057 1895 
Q 959 1847 878 1791 
Q 878 1388 929 1116 
Q 981 844 1079 680 
Q 1178 516 1325 445 
Q 1472 375 1669 375 
Q 1869 375 2016 450 
Q 2163 525 2259 651 
Q 2356 778 2401 936 
Q 2447 1094 2447 1259 
z
" transform="scale(0.015625)"/>
       </defs>
       <use xlink:href="#Calibri-31"/>
       <use xlink:href="#Calibri-36" x="50.683594"/>
      </g>
     </g>
    </g>
    <g id="xtick_7">
     <g id="line2d_12">
      <g>
       <use xlink:href="#mab955b247a" x="315.359128" y="106.299213" style="stroke: #000000; stroke-width: 0.8"/>
      </g>
     </g>
     <g id="text_12">
      <!-- 24 -->
      <g transform="translate(309.276628 121.461088) scale(0.12 -0.12)">
       <use xlink:href="#Calibri-32"/>
       <use xlink:href="#Calibri-34" x="50.683594"/>
      </g>
     </g>
    </g>
   </g>
   <g id="matplotlib.axis_4">
    <g id="ytick_4">
     <g id="line2d_13">
      <g>
       <use xlink:href="#mf8dd3fef35" x="211.617573" y="105.829771" style="stroke: #000000; stroke-width: 0.8"/>
      </g>
     </g>
     <g id="text_13">
      <!-- 0 -->
      <g transform="translate(198.535073 109.910708) scale(0.12 -0.12)">
       <use xlink:href="#Calibri-30"/>
      </g>
     </g>
    </g>
    <g id="ytick_5">
     <g id="line2d_14">
      <g>
       <use xlink:href="#mf8dd3fef35" x="211.617573" y="83.296556" style="stroke: #000000; stroke-width: 0.8"/>
      </g>
     </g>
     <g id="text_14">
      <!-- 6 -->
      <g transform="translate(198.535073 87.377493) scale(0.12 -0.12)">
       <use xlink:href="#Calibri-36"/>
      </g>
     </g>
    </g>
    <g id="ytick_6">
     <g id="line2d_15">
      <g>
       <use xlink:href="#mf8dd3fef35" x="211.617573" y="60.763341" style="stroke: #000000; stroke-width: 0.8"/>
      </g>
     </g>
     <g id="text_15">
      <!-- 12 -->
      <g transform="translate(192.452573 64.844279) scale(0.12 -0.12)">
       <use xlink:href="#Calibri-31"/>
       <use xlink:href="#Calibri-32" x="50.683594"/>
      </g>
     </g>
    </g>
    <g id="ytick_7">
     <g id="line2d_16">
      <g>
       <use xlink:href="#mf8dd3fef35" x="211.617573" y="38.230127" style="stroke: #000000; stroke-width: 0.8"/>
      </g>
     </g>
     <g id="text_16">
      <!-- 18 -->
      <g transform="translate(192.452573 42.311064) scale(0.12 -0.12)">
       <use xlink:href="#Calibri-31"/>
       <use xlink:href="#Calibri-38" x="50.683594"/>
      </g>
     </g>
    </g>
   </g>
   <g id="line2d_17">
    <path d="M 217.096258 102.228953 
L 217.828793 101.774936 
L 218.561328 101.320918 
L 219.293863 100.866901 
L 220.026398 100.412883 
L 220.758933 99.958866 
L 221.491468 99.504849 
L 222.224003 99.050831 
L 222.956539 98.596814 
L 223.689074 98.142797 
L 224.421609 97.688779 
L 225.154144 97.234762 
L 225.886679 96.780744 
L 226.619214 96.326727 
L 227.351749 95.87271 
L 228.084284 95.418692 
L 228.816819 94.964675 
L 229.549354 94.510658 
L 230.281889 94.05664 
L 231.014424 93.602623 
L 231.746959 93.148605 
L 232.479495 92.694588 
L 233.21203 92.240571 
L 233.944565 91.786553 
L 234.6771 91.332536 
L 235.409635 90.878519 
L 236.14217 90.424501 
L 236.874705 89.970484 
L 237.60724 89.516466 
L 238.339775 89.062449 
L 239.07231 88.608432 
L 239.804845 88.154414 
L 240.53738 87.700397 
L 241.269915 87.24638 
L 242.002451 86.792362 
L 242.734986 86.338345 
L 243.467521 85.884327 
L 244.200056 85.43031 
L 244.932591 84.976293 
L 245.665126 84.522275 
L 246.397661 84.068258 
L 247.130196 83.614241 
L 247.862731 83.160223 
L 248.595266 82.706206 
L 249.327801 82.252189 
L 250.060336 81.798171 
L 250.792871 81.344154 
L 251.525406 80.890136 
L 252.257942 80.436119 
L 252.990477 79.982102 
L 253.723012 79.528084 
L 254.455547 79.074067 
L 255.188082 78.62005 
L 255.920617 78.166032 
L 256.653152 77.712015 
L 257.385687 77.257997 
L 258.118222 76.80398 
L 258.850757 76.349963 
L 259.583292 75.895945 
L 260.315827 75.441928 
L 261.048362 74.987911 
L 261.780898 74.533893 
L 262.513433 74.079876 
L 263.245968 73.625858 
L 263.978503 73.171841 
L 264.711038 72.717824 
L 265.443573 72.263806 
L 266.176108 71.809789 
L 266.908643 71.355772 
L 267.641178 70.901754 
L 268.373713 70.447737 
L 269.106248 69.993719 
L 269.838783 69.539702 
L 270.571318 69.085685 
L 271.303854 68.631667 
L 272.036389 68.17765 
L 272.768924 67.723633 
L 273.501459 67.269615 
L 274.233994 66.815598 
L 274.966529 66.36158 
L 275.699064 65.907563 
L 276.431599 65.453546 
L 277.164134 64.999528 
L 277.896669 64.545511 
L 278.629204 64.091494 
L 279.361739 63.637476 
L 280.094274 63.183459 
L 280.826809 62.729442 
L 281.559345 62.275424 
L 282.29188 61.821407 
L 283.024415 61.367389 
L 283.75695 60.913372 
L 284.489485 60.459355 
L 285.22202 60.005337 
L 285.954555 59.55132 
L 286.68709 59.097303 
L 287.419625 58.643285 
L 288.15216 58.189268 
L 288.884695 57.73525 
L 289.61723 57.281233 
" clip-path="url(#p89beafcb5d)" style="fill: none; stroke-dasharray: 5.55,2.4; stroke-dashoffset: 0; stroke: #e69f00; stroke-width: 1.5"/>
   </g>
   <g id="line2d_18">
    <path d="M 237.597145 100.803432 
L 238.49687 100.245792 
L 239.396595 99.688151 
L 240.296321 99.130511 
L 241.196046 98.572871 
L 242.095772 98.015231 
L 242.995497 97.457591 
L 243.895223 96.899951 
L 244.794948 96.34231 
L 245.694674 95.78467 
L 246.594399 95.22703 
L 247.494124 94.66939 
L 248.39385 94.11175 
L 249.293575 93.55411 
L 250.193301 92.996469 
L 251.093026 92.438829 
L 251.992752 91.881189 
L 252.892477 91.323549 
L 253.792202 90.765909 
L 254.691928 90.208269 
L 255.591653 89.650629 
L 256.491379 89.092988 
L 257.391104 88.535348 
L 258.29083 87.977708 
L 259.190555 87.420068 
L 260.09028 86.862428 
L 260.990006 86.304788 
L 261.889731 85.747147 
L 262.789457 85.189507 
L 263.689182 84.631867 
L 264.588908 84.074227 
L 265.488633 83.516587 
L 266.388358 82.958947 
L 267.288084 82.401306 
L 268.187809 81.843666 
L 269.087535 81.286026 
L 269.98726 80.728386 
L 270.886986 80.170746 
L 271.786711 79.613106 
L 272.686437 79.055465 
L 273.586162 78.497825 
L 274.485887 77.940185 
L 275.385613 77.382545 
L 276.285338 76.824905 
L 277.185064 76.267265 
L 278.084789 75.709625 
L 278.984515 75.151984 
L 279.88424 74.594344 
L 280.783965 74.036704 
L 281.683691 73.479064 
L 282.583416 72.921424 
L 283.483142 72.363784 
L 284.382867 71.806143 
L 285.282593 71.248503 
L 286.182318 70.690863 
L 287.082043 70.133223 
L 287.981769 69.575583 
L 288.881494 69.017943 
L 289.78122 68.460302 
L 290.680945 67.902662 
L 291.580671 67.345022 
L 292.480396 66.787382 
L 293.380121 66.229742 
L 294.279847 65.672102 
L 295.179572 65.114461 
L 296.079298 64.556821 
L 296.979023 63.999181 
L 297.878749 63.441541 
L 298.778474 62.883901 
L 299.6782 62.326261 
L 300.577925 61.76862 
L 301.47765 61.21098 
L 302.377376 60.65334 
L 303.277101 60.0957 
L 304.176827 59.53806 
L 305.076552 58.98042 
L 305.976278 58.42278 
L 306.876003 57.865139 
L 307.775728 57.307499 
L 308.675454 56.749859 
L 309.575179 56.192219 
L 310.474905 55.634579 
L 311.37463 55.076939 
L 312.274356 54.519298 
L 313.174081 53.961658 
L 314.073806 53.404018 
L 314.973532 52.846378 
L 315.873257 52.288738 
L 316.772983 51.731098 
L 317.672708 51.173457 
L 318.572434 50.615817 
L 319.472159 50.058177 
L 320.371884 49.500537 
L 321.27161 48.942897 
L 322.171335 48.385257 
L 323.071061 47.827616 
L 323.970786 47.269976 
L 324.870512 46.712336 
L 325.770237 46.154696 
L 326.669963 45.597056 
" clip-path="url(#p89beafcb5d)" style="fill: none; stroke-dasharray: 5.55,2.4; stroke-dashoffset: 0; stroke: #cc79a7; stroke-width: 1.5"/>
   </g>
   <g id="patch_6">
    <path d="M 211.617573 106.299213 
L 211.617573 27.12 
" style="fill: none; stroke: #000000; stroke-width: 0.8; stroke-linejoin: miter; stroke-linecap: square"/>
   </g>
   <g id="patch_7">
    <path d="M 211.617573 106.299213 
L 332.148648 106.299213 
" style="fill: none; stroke: #000000; stroke-width: 0.8; stroke-linejoin: miter; stroke-linecap: square"/>
   </g>
   <g id="text_17">
    <!-- Foot Faults -->
    <g transform="translate(245.15311 21.12) scale(0.12 -0.12)">
     <defs>
      <path id="Calibri-46" d="M 2663 3813 
Q 2663 3753 2656 3709 
Q 2650 3666 2634 3639 
Q 2619 3613 2598 3600 
Q 2578 3588 2556 3588 
L 1075 3588 
L 1075 2213 
L 2475 2213 
Q 2497 2213 2517 2202 
Q 2538 2191 2553 2166 
Q 2569 2141 2575 2098 
Q 2581 2056 2581 1991 
Q 2581 1931 2575 1889 
Q 2569 1847 2553 1820 
Q 2538 1794 2517 1780 
Q 2497 1766 2475 1766 
L 1075 1766 
L 1075 81 
Q 1075 59 1062 39 
Q 1050 19 1019 8 
Q 988 -3 938 -11 
Q 888 -19 806 -19 
Q 731 -19 678 -11 
Q 625 -3 594 8 
Q 563 19 550 39 
Q 538 59 538 81 
L 538 3825 
Q 538 3947 602 3995 
Q 666 4044 738 4044 
L 2556 4044 
Q 2578 4044 2598 4031 
Q 2619 4019 2634 3991 
Q 2650 3963 2656 3917 
Q 2663 3872 2663 3813 
z
" transform="scale(0.015625)"/>
      <path id="Calibri-74" d="M 1941 284 
Q 1941 194 1928 141 
Q 1916 88 1891 63 
Q 1866 38 1816 16 
Q 1766 -6 1702 -20 
Q 1638 -34 1566 -43 
Q 1494 -53 1422 -53 
Q 1203 -53 1047 5 
Q 891 63 791 180 
Q 691 297 645 476 
Q 600 656 600 900 
L 600 2544 
L 206 2544 
Q 159 2544 131 2594 
Q 103 2644 103 2756 
Q 103 2816 111 2856 
Q 119 2897 131 2923 
Q 144 2950 164 2961 
Q 184 2972 209 2972 
L 600 2972 
L 600 3641 
Q 600 3663 611 3681 
Q 622 3700 651 3714 
Q 681 3728 731 3734 
Q 781 3741 856 3741 
Q 934 3741 984 3734 
Q 1034 3728 1062 3714 
Q 1091 3700 1103 3681 
Q 1116 3663 1116 3641 
L 1116 2972 
L 1838 2972 
Q 1863 2972 1881 2961 
Q 1900 2950 1914 2923 
Q 1928 2897 1934 2856 
Q 1941 2816 1941 2756 
Q 1941 2644 1912 2594 
Q 1884 2544 1838 2544 
L 1116 2544 
L 1116 975 
Q 1116 684 1202 536 
Q 1288 388 1509 388 
Q 1581 388 1637 402 
Q 1694 416 1737 431 
Q 1781 447 1812 461 
Q 1844 475 1869 475 
Q 1884 475 1898 467 
Q 1913 459 1920 437 
Q 1928 416 1934 378 
Q 1941 341 1941 284 
z
" transform="scale(0.015625)"/>
      <path id="Calibri-75" d="M 2888 78 
Q 2888 53 2877 36 
Q 2866 19 2837 6 
Q 2809 -6 2764 -12 
Q 2719 -19 2653 -19 
Q 2581 -19 2536 -12 
Q 2491 -6 2464 6 
Q 2438 19 2428 36 
Q 2419 53 2419 78 
L 2419 450 
Q 2178 184 1943 62 
Q 1709 -59 1469 -59 
Q 1188 -59 995 34 
Q 803 128 684 289 
Q 566 450 514 664 
Q 463 878 463 1184 
L 463 2891 
Q 463 2916 473 2933 
Q 484 2950 515 2964 
Q 547 2978 597 2983 
Q 647 2988 722 2988 
Q 797 2988 847 2983 
Q 897 2978 926 2964 
Q 956 2950 968 2933 
Q 981 2916 981 2891 
L 981 1253 
Q 981 1006 1017 857 
Q 1053 709 1126 604 
Q 1200 500 1312 442 
Q 1425 384 1575 384 
Q 1769 384 1961 521 
Q 2153 659 2369 925 
L 2369 2891 
Q 2369 2916 2380 2933 
Q 2391 2950 2422 2964 
Q 2453 2978 2501 2983 
Q 2550 2988 2628 2988 
Q 2703 2988 2753 2983 
Q 2803 2978 2831 2964 
Q 2859 2950 2873 2933 
Q 2888 2916 2888 2891 
L 2888 78 
z
" transform="scale(0.015625)"/>
      <path id="Calibri-6c" d="M 994 78 
Q 994 53 981 36 
Q 969 19 941 6 
Q 913 -6 863 -12 
Q 813 -19 734 -19 
Q 659 -19 609 -12 
Q 559 -6 529 6 
Q 500 19 489 36 
Q 478 53 478 78 
L 478 4253 
Q 478 4278 489 4297 
Q 500 4316 529 4328 
Q 559 4341 609 4347 
Q 659 4353 734 4353 
Q 813 4353 863 4347 
Q 913 4341 941 4328 
Q 969 4316 981 4297 
Q 994 4278 994 4253 
L 994 78 
z
" transform="scale(0.015625)"/>
     </defs>
     <use xlink:href="#Calibri-46"/>
     <use xlink:href="#Calibri-6f" x="44.572266"/>
     <use xlink:href="#Calibri-6f" x="97.306641"/>
     <use xlink:href="#Calibri-74" x="150.041016"/>
     <use xlink:href="#Calibri-20" x="183.537109"/>
     <use xlink:href="#Calibri-46" x="206.144531"/>
     <use xlink:href="#Calibri-61" x="249.466797"/>
     <use xlink:href="#Calibri-75" x="297.367188"/>
     <use xlink:href="#Calibri-6c" x="349.90625"/>
     <use xlink:href="#Calibri-74" x="372.855469"/>
     <use xlink:href="#Calibri-73" x="406.351562"/>
    </g>
   </g>
  </g>
  <g id="axes_3">
   <g id="patch_8">
    <path d="M 376.745145 106.299213 
L 497.27622 106.299213 
L 497.27622 27.12 
L 376.745145 27.12 
z
" style="fill: #ffffff"/>
   </g>
   <g id="PathCollection_9">
    <g clip-path="url(#p8a0ea2dd6b)">
     <use xlink:href="#m2e1768a1eb" x="382.831448" y="91.30315" style="fill: #e69f00; fill-opacity: 0.9; stroke: #e69f00; stroke-opacity: 0.9"/>
     <use xlink:href="#m2e1768a1eb" x="397.41427" y="91.663055" style="fill: #e69f00; fill-opacity: 0.9; stroke: #e69f00; stroke-opacity: 0.9"/>
     <use xlink:href="#m2e1768a1eb" x="388.907624" y="87.704094" style="fill: #e69f00; fill-opacity: 0.9; stroke: #e69f00; stroke-opacity: 0.9"/>
     <use xlink:href="#m2e1768a1eb" x="383.844144" y="90.703307" style="fill: #e69f00; fill-opacity: 0.9; stroke: #e69f00; stroke-opacity: 0.9"/>
     <use xlink:href="#m2e1768a1eb" x="383.844144" y="95.502047" style="fill: #e69f00; fill-opacity: 0.9; stroke: #e69f00; stroke-opacity: 0.9"/>
     <use xlink:href="#m2e1768a1eb" x="388.907624" y="87.704094" style="fill: #e69f00; fill-opacity: 0.9; stroke: #e69f00; stroke-opacity: 0.9"/>
     <use xlink:href="#m2e1768a1eb" x="404.098064" y="78.706457" style="fill: #e69f00; fill-opacity: 0.9; stroke: #e69f00; stroke-opacity: 0.9"/>
     <use xlink:href="#m2e1768a1eb" x="410.781857" y="74.747496" style="fill: #e69f00; fill-opacity: 0.9; stroke: #e69f00; stroke-opacity: 0.9"/>
     <use xlink:href="#m2e1768a1eb" x="399.034584" y="81.705669" style="fill: #e69f00; fill-opacity: 0.9; stroke: #e69f00; stroke-opacity: 0.9"/>
     <use xlink:href="#m2e1768a1eb" x="383.844144" y="90.703307" style="fill: #e69f00; fill-opacity: 0.9; stroke: #e69f00; stroke-opacity: 0.9"/>
     <use xlink:href="#m2e1768a1eb" x="388.907624" y="87.704094" style="fill: #e69f00; fill-opacity: 0.9; stroke: #e69f00; stroke-opacity: 0.9"/>
     <use xlink:href="#m2e1768a1eb" x="382.223831" y="87.704094" style="fill: #e69f00; fill-opacity: 0.9; stroke: #e69f00; stroke-opacity: 0.9"/>
     <use xlink:href="#m2e1768a1eb" x="388.907624" y="84.704882" style="fill: #e69f00; fill-opacity: 0.9; stroke: #e69f00; stroke-opacity: 0.9"/>
     <use xlink:href="#m2e1768a1eb" x="388.907624" y="96.701732" style="fill: #e69f00; fill-opacity: 0.9; stroke: #e69f00; stroke-opacity: 0.9"/>
     <use xlink:href="#m2e1768a1eb" x="404.098064" y="75.707244" style="fill: #e69f00; fill-opacity: 0.9; stroke: #e69f00; stroke-opacity: 0.9"/>
     <use xlink:href="#m2e1768a1eb" x="437.922109" y="62.630677" style="fill: #e69f00; fill-opacity: 0.9; stroke: #e69f00; stroke-opacity: 0.9"/>
     <use xlink:href="#m2e1768a1eb" x="404.098064" y="82.665417" style="fill: #e69f00; fill-opacity: 0.9; stroke: #e69f00; stroke-opacity: 0.9"/>
     <use xlink:href="#m2e1768a1eb" x="417.66819" y="78.706457" style="fill: #e69f00; fill-opacity: 0.9; stroke: #e69f00; stroke-opacity: 0.9"/>
     <use xlink:href="#m2e1768a1eb" x="383.844144" y="94.662268" style="fill: #e69f00; fill-opacity: 0.9; stroke: #e69f00; stroke-opacity: 0.9"/>
     <use xlink:href="#m2e1768a1eb" x="383.844144" y="96.701732" style="fill: #e69f00; fill-opacity: 0.9; stroke: #e69f00; stroke-opacity: 0.9"/>
     <use xlink:href="#m2e1768a1eb" x="383.844144" y="102.700157" style="fill: #e69f00; fill-opacity: 0.9; stroke: #e69f00; stroke-opacity: 0.9"/>
     <use xlink:href="#m2e1768a1eb" x="404.098064" y="78.706457" style="fill: #e69f00; fill-opacity: 0.9; stroke: #e69f00; stroke-opacity: 0.9"/>
    </g>
   </g>
   <g id="PathCollection_10">
    <g clip-path="url(#p8a0ea2dd6b)">
     <use xlink:href="#m9421ee6124" x="383.844144" y="102.700157" style="fill: #ff0000; fill-opacity: 0.5; stroke: #ff0000; stroke-opacity: 0.5; stroke-width: 1.5"/>
    </g>
   </g>
   <g id="PathCollection_11">
    <g clip-path="url(#p8a0ea2dd6b)">
     <use xlink:href="#m918501ded0" x="388.907624" y="78.706457" style="fill: #cc79a7; fill-opacity: 0.9; stroke: #cc79a7; stroke-opacity: 0.9"/>
     <use xlink:href="#m918501ded0" x="485.113742" y="45.715118" style="fill: #cc79a7; fill-opacity: 0.9; stroke: #cc79a7; stroke-opacity: 0.9"/>
     <use xlink:href="#m918501ded0" x="451.289696" y="53.753008" style="fill: #cc79a7; fill-opacity: 0.9; stroke: #cc79a7; stroke-opacity: 0.9"/>
     <use xlink:href="#m918501ded0" x="444.605903" y="57.711969" style="fill: #cc79a7; fill-opacity: 0.9; stroke: #cc79a7; stroke-opacity: 0.9"/>
     <use xlink:href="#m918501ded0" x="409.161544" y="69.708819" style="fill: #cc79a7; fill-opacity: 0.9; stroke: #cc79a7; stroke-opacity: 0.9"/>
     <use xlink:href="#m918501ded0" x="424.351983" y="61.670929" style="fill: #cc79a7; fill-opacity: 0.9; stroke: #cc79a7; stroke-opacity: 0.9"/>
     <use xlink:href="#m918501ded0" x="434.478943" y="57.711969" style="fill: #cc79a7; fill-opacity: 0.9; stroke: #cc79a7; stroke-opacity: 0.9"/>
     <use xlink:href="#m918501ded0" x="410.17424" y="69.108976" style="fill: #cc79a7; fill-opacity: 0.9; stroke: #cc79a7; stroke-opacity: 0.9"/>
     <use xlink:href="#m918501ded0" x="423.541827" y="71.748283" style="fill: #cc79a7; fill-opacity: 0.9; stroke: #cc79a7; stroke-opacity: 0.9"/>
     <use xlink:href="#m918501ded0" x="393.971104" y="90.703307" style="fill: #cc79a7; fill-opacity: 0.9; stroke: #cc79a7; stroke-opacity: 0.9"/>
     <use xlink:href="#m918501ded0" x="419.288503" y="69.708819" style="fill: #cc79a7; fill-opacity: 0.9; stroke: #cc79a7; stroke-opacity: 0.9"/>
     <use xlink:href="#m918501ded0" x="388.907624" y="90.703307" style="fill: #cc79a7; fill-opacity: 0.9; stroke: #cc79a7; stroke-opacity: 0.9"/>
     <use xlink:href="#m918501ded0" x="491.797535" y="30.719055" style="fill: #cc79a7; fill-opacity: 0.9; stroke: #cc79a7; stroke-opacity: 0.9"/>
     <use xlink:href="#m918501ded0" x="457.97349" y="44.75537" style="fill: #cc79a7; fill-opacity: 0.9; stroke: #cc79a7; stroke-opacity: 0.9"/>
     <use xlink:href="#m918501ded0" x="434.478943" y="48.714331" style="fill: #cc79a7; fill-opacity: 0.9; stroke: #cc79a7; stroke-opacity: 0.9"/>
     <use xlink:href="#m918501ded0" x="427.79515" y="64.670142" style="fill: #cc79a7; fill-opacity: 0.9; stroke: #cc79a7; stroke-opacity: 0.9"/>
     <use xlink:href="#m918501ded0" x="410.781857" y="70.788535" style="fill: #cc79a7; fill-opacity: 0.9; stroke: #cc79a7; stroke-opacity: 0.9"/>
     <use xlink:href="#m918501ded0" x="414.225024" y="72.708031" style="fill: #cc79a7; fill-opacity: 0.9; stroke: #cc79a7; stroke-opacity: 0.9"/>
     <use xlink:href="#m918501ded0" x="420.908817" y="64.670142" style="fill: #cc79a7; fill-opacity: 0.9; stroke: #cc79a7; stroke-opacity: 0.9"/>
     <use xlink:href="#m918501ded0" x="419.288503" y="69.708819" style="fill: #cc79a7; fill-opacity: 0.9; stroke: #cc79a7; stroke-opacity: 0.9"/>
     <use xlink:href="#m918501ded0" x="469.923302" y="39.716693" style="fill: #cc79a7; fill-opacity: 0.9; stroke: #cc79a7; stroke-opacity: 0.9"/>
     <use xlink:href="#m918501ded0" x="414.225024" y="72.708031" style="fill: #cc79a7; fill-opacity: 0.9; stroke: #cc79a7; stroke-opacity: 0.9"/>
     <use xlink:href="#m918501ded0" x="419.288503" y="63.710394" style="fill: #cc79a7; fill-opacity: 0.9; stroke: #cc79a7; stroke-opacity: 0.9"/>
     <use xlink:href="#m918501ded0" x="409.161544" y="75.707244" style="fill: #cc79a7; fill-opacity: 0.9; stroke: #cc79a7; stroke-opacity: 0.9"/>
     <use xlink:href="#m918501ded0" x="419.288503" y="75.707244" style="fill: #cc79a7; fill-opacity: 0.9; stroke: #cc79a7; stroke-opacity: 0.9"/>
     <use xlink:href="#m918501ded0" x="431.035777" y="54.712756" style="fill: #cc79a7; fill-opacity: 0.9; stroke: #cc79a7; stroke-opacity: 0.9"/>
    </g>
   </g>
   <g id="PathCollection_12"/>
   <g id="matplotlib.axis_5">
    <g id="xtick_8">
     <g id="line2d_19">
      <g>
       <use xlink:href="#mab955b247a" x="383.844144" y="106.299213" style="stroke: #000000; stroke-width: 0.8"/>
      </g>
     </g>
     <g id="text_18">
      <!-- 0.0 -->
      <g transform="translate(376.246644 121.461088) scale(0.12 -0.12)">
       <defs>
        <path id="Calibri-2e" d="M 1144 341 
Q 1144 119 1070 45 
Q 997 -28 803 -28 
Q 616 -28 544 44 
Q 472 116 472 331 
Q 472 553 545 626 
Q 619 700 813 700 
Q 1000 700 1072 628 
Q 1144 556 1144 341 
z
" transform="scale(0.015625)"/>
       </defs>
       <use xlink:href="#Calibri-30"/>
       <use xlink:href="#Calibri-2e" x="50.683594"/>
       <use xlink:href="#Calibri-30" x="75.927734"/>
      </g>
     </g>
    </g>
    <g id="xtick_9">
     <g id="line2d_20">
      <g>
       <use xlink:href="#mab955b247a" x="414.225024" y="106.299213" style="stroke: #000000; stroke-width: 0.8"/>
      </g>
     </g>
     <g id="text_19">
      <!-- 1.5 -->
      <g transform="translate(406.627524 121.461088) scale(0.12 -0.12)">
       <use xlink:href="#Calibri-31"/>
       <use xlink:href="#Calibri-2e" x="50.683594"/>
       <use xlink:href="#Calibri-35" x="75.927734"/>
      </g>
     </g>
    </g>
    <g id="xtick_10">
     <g id="line2d_21">
      <g>
       <use xlink:href="#mab955b247a" x="444.605903" y="106.299213" style="stroke: #000000; stroke-width: 0.8"/>
      </g>
     </g>
     <g id="text_20">
      <!-- 3.0 -->
      <g transform="translate(437.008403 121.461088) scale(0.12 -0.12)">
       <defs>
        <path id="Calibri-33" d="M 2856 1156 
Q 2856 878 2759 654 
Q 2663 431 2481 272 
Q 2300 113 2034 27 
Q 1769 -59 1434 -59 
Q 1231 -59 1054 -26 
Q 878 6 740 51 
Q 603 97 512 145 
Q 422 194 398 216 
Q 375 238 362 259 
Q 350 281 340 312 
Q 331 344 326 389 
Q 322 434 322 500 
Q 322 613 344 656 
Q 366 700 406 700 
Q 434 700 517 650 
Q 600 600 729 542 
Q 859 484 1032 434 
Q 1206 384 1419 384 
Q 1625 384 1781 437 
Q 1938 491 2044 587 
Q 2150 684 2203 817 
Q 2256 950 2256 1106 
Q 2256 1278 2189 1415 
Q 2122 1553 1992 1653 
Q 1863 1753 1673 1806 
Q 1484 1859 1244 1859 
L 859 1859 
Q 834 1859 811 1870 
Q 788 1881 770 1906 
Q 753 1931 742 1972 
Q 731 2013 731 2078 
Q 731 2138 740 2177 
Q 750 2216 767 2239 
Q 784 2263 806 2273 
Q 828 2284 856 2284 
L 1209 2284 
Q 1416 2284 1580 2337 
Q 1744 2391 1858 2491 
Q 1972 2591 2033 2730 
Q 2094 2869 2094 3041 
Q 2094 3166 2053 3280 
Q 2013 3394 1931 3478 
Q 1850 3563 1723 3611 
Q 1597 3659 1431 3659 
Q 1250 3659 1098 3604 
Q 947 3550 828 3487 
Q 709 3425 631 3370 
Q 553 3316 522 3316 
Q 500 3316 483 3323 
Q 466 3331 455 3354 
Q 444 3378 439 3420 
Q 434 3463 434 3531 
Q 434 3578 437 3614 
Q 441 3650 450 3676 
Q 459 3703 471 3725 
Q 484 3747 514 3776 
Q 544 3806 634 3862 
Q 725 3919 858 3973 
Q 991 4028 1164 4065 
Q 1338 4103 1538 4103 
Q 1819 4103 2031 4031 
Q 2244 3959 2386 3828 
Q 2528 3697 2598 3514 
Q 2669 3331 2669 3109 
Q 2669 2919 2619 2755 
Q 2569 2591 2472 2464 
Q 2375 2338 2234 2248 
Q 2094 2159 1909 2125 
L 1909 2119 
Q 2119 2097 2292 2014 
Q 2466 1931 2591 1806 
Q 2716 1681 2786 1514 
Q 2856 1347 2856 1156 
z
" transform="scale(0.015625)"/>
       </defs>
       <use xlink:href="#Calibri-33"/>
       <use xlink:href="#Calibri-2e" x="50.683594"/>
       <use xlink:href="#Calibri-30" x="75.927734"/>
      </g>
     </g>
    </g>
    <g id="xtick_11">
     <g id="line2d_22">
      <g>
       <use xlink:href="#mab955b247a" x="474.986782" y="106.299213" style="stroke: #000000; stroke-width: 0.8"/>
      </g>
     </g>
     <g id="text_21">
      <!-- 4.5 -->
      <g transform="translate(467.389282 121.461088) scale(0.12 -0.12)">
       <use xlink:href="#Calibri-34"/>
       <use xlink:href="#Calibri-2e" x="50.683594"/>
       <use xlink:href="#Calibri-35" x="75.927734"/>
      </g>
     </g>
    </g>
   </g>
   <g id="matplotlib.axis_6">
    <g id="ytick_8">
     <g id="line2d_23">
      <g>
       <use xlink:href="#mf8dd3fef35" x="376.745145" y="90.703307" style="stroke: #000000; stroke-width: 0.8"/>
      </g>
     </g>
     <g id="text_22">
      <!-- 0 -->
      <g transform="translate(363.662645 94.784245) scale(0.12 -0.12)">
       <use xlink:href="#Calibri-30"/>
      </g>
     </g>
    </g>
    <g id="ytick_9">
     <g id="line2d_24">
      <g>
       <use xlink:href="#mf8dd3fef35" x="376.745145" y="66.709606" style="stroke: #000000; stroke-width: 0.8"/>
      </g>
     </g>
     <g id="text_23">
      <!-- 2 -->
      <g transform="translate(363.662645 70.790544) scale(0.12 -0.12)">
       <use xlink:href="#Calibri-32"/>
      </g>
     </g>
    </g>
    <g id="ytick_10">
     <g id="line2d_25">
      <g>
       <use xlink:href="#mf8dd3fef35" x="376.745145" y="42.715906" style="stroke: #000000; stroke-width: 0.8"/>
      </g>
     </g>
     <g id="text_24">
      <!-- 4 -->
      <g transform="translate(363.662645 46.796843) scale(0.12 -0.12)">
       <use xlink:href="#Calibri-34"/>
      </g>
     </g>
    </g>
   </g>
   <g id="line2d_26">
    <path d="M 382.223831 89.873648 
L 382.78644 89.640375 
L 383.349048 89.407103 
L 383.911657 89.173831 
L 384.474266 88.940559 
L 385.036875 88.707287 
L 385.599484 88.474015 
L 386.162093 88.240743 
L 386.724702 88.007471 
L 387.287311 87.774199 
L 387.849919 87.540927 
L 388.412528 87.307655 
L 388.975137 87.074382 
L 389.537746 86.84111 
L 390.100355 86.607838 
L 390.662964 86.374566 
L 391.225573 86.141294 
L 391.788182 85.908022 
L 392.35079 85.67475 
L 392.913399 85.441478 
L 393.476008 85.208206 
L 394.038617 84.974934 
L 394.601226 84.741662 
L 395.163835 84.508389 
L 395.726444 84.275117 
L 396.289053 84.041845 
L 396.851661 83.808573 
L 397.41427 83.575301 
L 397.976879 83.342029 
L 398.539488 83.108757 
L 399.102097 82.875485 
L 399.664706 82.642213 
L 400.227315 82.408941 
L 400.789924 82.175669 
L 401.352532 81.942396 
L 401.915141 81.709124 
L 402.47775 81.475852 
L 403.040359 81.24258 
L 403.602968 81.009308 
L 404.165577 80.776036 
L 404.728186 80.542764 
L 405.290795 80.309492 
L 405.853403 80.07622 
L 406.416012 79.842948 
L 406.978621 79.609676 
L 407.54123 79.376403 
L 408.103839 79.143131 
L 408.666448 78.909859 
L 409.229057 78.676587 
L 409.791666 78.443315 
L 410.354274 78.210043 
L 410.916883 77.976771 
L 411.479492 77.743499 
L 412.042101 77.510227 
L 412.60471 77.276955 
L 413.167319 77.043683 
L 413.729928 76.81041 
L 414.292537 76.577138 
L 414.855145 76.343866 
L 415.417754 76.110594 
L 415.980363 75.877322 
L 416.542972 75.64405 
L 417.105581 75.410778 
L 417.66819 75.177506 
L 418.230799 74.944234 
L 418.793408 74.710962 
L 419.356016 74.47769 
L 419.918625 74.244417 
L 420.481234 74.011145 
L 421.043843 73.777873 
L 421.606452 73.544601 
L 422.169061 73.311329 
L 422.73167 73.078057 
L 423.294279 72.844785 
L 423.856887 72.611513 
L 424.419496 72.378241 
L 424.982105 72.144969 
L 425.544714 71.911697 
L 426.107323 71.678424 
L 426.669932 71.445152 
L 427.232541 71.21188 
L 427.79515 70.978608 
L 428.357758 70.745336 
L 428.920367 70.512064 
L 429.482976 70.278792 
L 430.045585 70.04552 
L 430.608194 69.812248 
L 431.170803 69.578976 
L 431.733412 69.345704 
L 432.296021 69.112431 
L 432.858629 68.879159 
L 433.421238 68.645887 
L 433.983847 68.412615 
L 434.546456 68.179343 
L 435.109065 67.946071 
L 435.671674 67.712799 
L 436.234283 67.479527 
L 436.796892 67.246255 
L 437.3595 67.012983 
L 437.922109 66.779711 
" clip-path="url(#p8a0ea2dd6b)" style="fill: none; stroke-dasharray: 5.55,2.4; stroke-dashoffset: 0; stroke: #e69f00; stroke-width: 1.5"/>
   </g>
   <g id="line2d_27">
    <path d="M 388.907624 81.096443 
L 389.946916 80.665525 
L 390.986208 80.234608 
L 392.0255 79.803691 
L 393.064792 79.372774 
L 394.104084 78.941857 
L 395.143376 78.510939 
L 396.182668 78.080022 
L 397.22196 77.649105 
L 398.261252 77.218188 
L 399.300544 76.787271 
L 400.339836 76.356354 
L 401.379129 75.925436 
L 402.418421 75.494519 
L 403.457713 75.063602 
L 404.497005 74.632685 
L 405.536297 74.201768 
L 406.575589 73.770851 
L 407.614881 73.339933 
L 408.654173 72.909016 
L 409.693465 72.478099 
L 410.732757 72.047182 
L 411.772049 71.616265 
L 412.811341 71.185348 
L 413.850633 70.75443 
L 414.889925 70.323513 
L 415.929217 69.892596 
L 416.968509 69.461679 
L 418.007801 69.030762 
L 419.047093 68.599845 
L 420.086385 68.168927 
L 421.125677 67.73801 
L 422.164969 67.307093 
L 423.204261 66.876176 
L 424.243553 66.445259 
L 425.282845 66.014341 
L 426.322137 65.583424 
L 427.361429 65.152507 
L 428.400721 64.72159 
L 429.440013 64.290673 
L 430.479305 63.859756 
L 431.518597 63.428838 
L 432.557889 62.997921 
L 433.597181 62.567004 
L 434.636474 62.136087 
L 435.675766 61.70517 
L 436.715058 61.274253 
L 437.75435 60.843335 
L 438.793642 60.412418 
L 439.832934 59.981501 
L 440.872226 59.550584 
L 441.911518 59.119667 
L 442.95081 58.68875 
L 443.990102 58.257832 
L 445.029394 57.826915 
L 446.068686 57.395998 
L 447.107978 56.965081 
L 448.14727 56.534164 
L 449.186562 56.103247 
L 450.225854 55.672329 
L 451.265146 55.241412 
L 452.304438 54.810495 
L 453.34373 54.379578 
L 454.383022 53.948661 
L 455.422314 53.517744 
L 456.461606 53.086826 
L 457.500898 52.655909 
L 458.54019 52.224992 
L 459.579482 51.794075 
L 460.618774 51.363158 
L 461.658066 50.93224 
L 462.697358 50.501323 
L 463.73665 50.070406 
L 464.775942 49.639489 
L 465.815234 49.208572 
L 466.854526 48.777655 
L 467.893819 48.346737 
L 468.933111 47.91582 
L 469.972403 47.484903 
L 471.011695 47.053986 
L 472.050987 46.623069 
L 473.090279 46.192152 
L 474.129571 45.761234 
L 475.168863 45.330317 
L 476.208155 44.8994 
L 477.247447 44.468483 
L 478.286739 44.037566 
L 479.326031 43.606649 
L 480.365323 43.175731 
L 481.404615 42.744814 
L 482.443907 42.313897 
L 483.483199 41.88298 
L 484.522491 41.452063 
L 485.561783 41.021146 
L 486.601075 40.590228 
L 487.640367 40.159311 
L 488.679659 39.728394 
L 489.718951 39.297477 
L 490.758243 38.86656 
L 491.797535 38.435643 
" clip-path="url(#p8a0ea2dd6b)" style="fill: none; stroke-dasharray: 5.55,2.4; stroke-dashoffset: 0; stroke: #cc79a7; stroke-width: 1.5"/>
   </g>
   <g id="patch_9">
    <path d="M 376.745145 106.299213 
L 376.745145 27.12 
" style="fill: none; stroke: #000000; stroke-width: 0.8; stroke-linejoin: miter; stroke-linecap: square"/>
   </g>
   <g id="patch_10">
    <path d="M 376.745145 106.299213 
L 497.27622 106.299213 
" style="fill: none; stroke: #000000; stroke-width: 0.8; stroke-linejoin: miter; stroke-linecap: square"/>
   </g>
   <g id="text_25">
    <!-- Hindlimb Drops -->
    <g transform="translate(399.085058 21.12) scale(0.12 -0.12)">
     <defs>
      <path id="Calibri-48" d="M 3450 81 
Q 3450 56 3437 37 
Q 3425 19 3394 8 
Q 3363 -3 3311 -11 
Q 3259 -19 3184 -19 
Q 3103 -19 3053 -11 
Q 3003 -3 2972 8 
Q 2941 19 2928 37 
Q 2916 56 2916 81 
L 2916 1875 
L 1075 1875 
L 1075 81 
Q 1075 56 1062 37 
Q 1050 19 1019 8 
Q 988 -3 936 -11 
Q 884 -19 806 -19 
Q 731 -19 678 -11 
Q 625 -3 594 8 
Q 563 19 550 37 
Q 538 56 538 81 
L 538 3963 
Q 538 3988 550 4006 
Q 563 4025 594 4036 
Q 625 4047 678 4055 
Q 731 4063 806 4063 
Q 884 4063 936 4055 
Q 988 4047 1019 4036 
Q 1050 4025 1062 4006 
Q 1075 3988 1075 3963 
L 1075 2344 
L 2916 2344 
L 2916 3963 
Q 2916 3988 2928 4006 
Q 2941 4025 2972 4036 
Q 3003 4047 3053 4055 
Q 3103 4063 3184 4063 
Q 3259 4063 3311 4055 
Q 3363 4047 3394 4036 
Q 3425 4025 3437 4006 
Q 3450 3988 3450 3963 
L 3450 81 
z
" transform="scale(0.015625)"/>
      <path id="Calibri-69" d="M 994 78 
Q 994 53 981 36 
Q 969 19 941 6 
Q 913 -6 863 -12 
Q 813 -19 734 -19 
Q 659 -19 609 -12 
Q 559 -6 529 6 
Q 500 19 489 36 
Q 478 53 478 78 
L 478 2891 
Q 478 2913 489 2931 
Q 500 2950 529 2962 
Q 559 2975 609 2981 
Q 659 2988 734 2988 
Q 813 2988 863 2981 
Q 913 2975 941 2962 
Q 969 2950 981 2931 
Q 994 2913 994 2891 
L 994 78 
z
M 1053 3841 
Q 1053 3659 984 3593 
Q 916 3528 731 3528 
Q 550 3528 483 3592 
Q 416 3656 416 3834 
Q 416 4016 484 4081 
Q 553 4147 738 4147 
Q 919 4147 986 4083 
Q 1053 4019 1053 3841 
z
" transform="scale(0.015625)"/>
      <path id="Calibri-6d" d="M 4650 78 
Q 4650 53 4637 36 
Q 4625 19 4597 6 
Q 4569 -6 4519 -12 
Q 4469 -19 4394 -19 
Q 4316 -19 4266 -12 
Q 4216 -6 4186 6 
Q 4156 19 4143 36 
Q 4131 53 4131 78 
L 4131 1788 
Q 4131 1966 4100 2112 
Q 4069 2259 4000 2365 
Q 3931 2472 3825 2528 
Q 3719 2584 3575 2584 
Q 3397 2584 3217 2446 
Q 3038 2309 2822 2044 
L 2822 78 
Q 2822 53 2809 36 
Q 2797 19 2767 6 
Q 2738 -6 2688 -12 
Q 2638 -19 2563 -19 
Q 2491 -19 2439 -12 
Q 2388 -6 2358 6 
Q 2328 19 2317 36 
Q 2306 53 2306 78 
L 2306 1788 
Q 2306 1966 2272 2112 
Q 2238 2259 2169 2365 
Q 2100 2472 1995 2528 
Q 1891 2584 1747 2584 
Q 1569 2584 1387 2446 
Q 1206 2309 994 2044 
L 994 78 
Q 994 53 981 36 
Q 969 19 941 6 
Q 913 -6 863 -12 
Q 813 -19 734 -19 
Q 659 -19 609 -12 
Q 559 -6 529 6 
Q 500 19 489 36 
Q 478 53 478 78 
L 478 2891 
Q 478 2916 487 2933 
Q 497 2950 525 2964 
Q 553 2978 597 2983 
Q 641 2988 713 2988 
Q 781 2988 826 2983 
Q 872 2978 897 2964 
Q 922 2950 933 2933 
Q 944 2916 944 2891 
L 944 2519 
Q 1181 2784 1404 2907 
Q 1628 3031 1856 3031 
Q 2031 3031 2170 2990 
Q 2309 2950 2415 2876 
Q 2522 2803 2597 2701 
Q 2672 2600 2722 2475 
Q 2863 2628 2989 2734 
Q 3116 2841 3233 2906 
Q 3350 2972 3461 3001 
Q 3572 3031 3684 3031 
Q 3956 3031 4140 2936 
Q 4325 2841 4439 2681 
Q 4553 2522 4601 2308 
Q 4650 2094 4650 1856 
L 4650 78 
z
" transform="scale(0.015625)"/>
      <path id="Calibri-70" d="M 3066 1528 
Q 3066 1159 2986 865 
Q 2906 572 2751 367 
Q 2597 163 2369 52 
Q 2141 -59 1847 -59 
Q 1722 -59 1615 -34 
Q 1509 -9 1407 44 
Q 1306 97 1206 178 
Q 1106 259 994 369 
L 994 -1038 
Q 994 -1063 981 -1081 
Q 969 -1100 941 -1112 
Q 913 -1125 863 -1131 
Q 813 -1138 734 -1138 
Q 659 -1138 609 -1131 
Q 559 -1125 529 -1112 
Q 500 -1100 489 -1081 
Q 478 -1063 478 -1038 
L 478 2891 
Q 478 2919 487 2936 
Q 497 2953 525 2965 
Q 553 2978 597 2983 
Q 641 2988 703 2988 
Q 769 2988 811 2983 
Q 853 2978 881 2965 
Q 909 2953 920 2936 
Q 931 2919 931 2891 
L 931 2513 
Q 1059 2644 1178 2741 
Q 1297 2838 1417 2902 
Q 1538 2966 1664 2998 
Q 1791 3031 1931 3031 
Q 2238 3031 2453 2912 
Q 2669 2794 2805 2587 
Q 2941 2381 3003 2107 
Q 3066 1834 3066 1528 
z
M 2522 1469 
Q 2522 1684 2489 1886 
Q 2456 2088 2376 2244 
Q 2297 2400 2162 2494 
Q 2028 2588 1828 2588 
Q 1728 2588 1631 2558 
Q 1534 2528 1434 2464 
Q 1334 2400 1225 2295 
Q 1116 2191 994 2038 
L 994 919 
Q 1206 659 1397 521 
Q 1588 384 1797 384 
Q 1991 384 2130 478 
Q 2269 572 2355 728 
Q 2441 884 2481 1078 
Q 2522 1272 2522 1469 
z
" transform="scale(0.015625)"/>
     </defs>
     <use xlink:href="#Calibri-48"/>
     <use xlink:href="#Calibri-69" x="62.304688"/>
     <use xlink:href="#Calibri-6e" x="85.253906"/>
     <use xlink:href="#Calibri-64" x="137.792969"/>
     <use xlink:href="#Calibri-6c" x="190.332031"/>
     <use xlink:href="#Calibri-69" x="213.28125"/>
     <use xlink:href="#Calibri-6d" x="236.230469"/>
     <use xlink:href="#Calibri-62" x="316.113281"/>
     <use xlink:href="#Calibri-20" x="368.652344"/>
     <use xlink:href="#Calibri-44" x="391.259766"/>
     <use xlink:href="#Calibri-72" x="452.783203"/>
     <use xlink:href="#Calibri-6f" x="487.646484"/>
     <use xlink:href="#Calibri-70" x="540.380859"/>
     <use xlink:href="#Calibri-73" x="592.919922"/>
    </g>
   </g>
  </g>
  <g id="text_26">
   <!-- Initial impairment -->
   <g transform="translate(211.472798 138.181211) scale(0.12 -0.12)">
    <defs>
     <path id="Calibri-49" d="M 1075 81 
Q 1075 56 1062 37 
Q 1050 19 1019 8 
Q 988 -3 936 -11 
Q 884 -19 806 -19 
Q 731 -19 678 -11 
Q 625 -3 594 8 
Q 563 19 550 37 
Q 538 56 538 81 
L 538 3963 
Q 538 3988 552 4006 
Q 566 4025 598 4036 
Q 631 4047 682 4055 
Q 734 4063 806 4063 
Q 884 4063 936 4055 
Q 988 4047 1019 4036 
Q 1050 4025 1062 4006 
Q 1075 3988 1075 3963 
L 1075 81 
z
" transform="scale(0.015625)"/>
    </defs>
    <use xlink:href="#Calibri-49"/>
    <use xlink:href="#Calibri-6e" x="25.195312"/>
    <use xlink:href="#Calibri-69" x="77.734375"/>
    <use xlink:href="#Calibri-74" x="100.683594"/>
    <use xlink:href="#Calibri-69" x="134.179688"/>
    <use xlink:href="#Calibri-61" x="157.128906"/>
    <use xlink:href="#Calibri-6c" x="205.029297"/>
    <use xlink:href="#Calibri-20" x="227.978516"/>
    <use xlink:href="#Calibri-69" x="250.585938"/>
    <use xlink:href="#Calibri-6d" x="273.535156"/>
    <use xlink:href="#Calibri-70" x="353.417969"/>
    <use xlink:href="#Calibri-61" x="405.957031"/>
    <use xlink:href="#Calibri-69" x="453.857422"/>
    <use xlink:href="#Calibri-72" x="476.806641"/>
    <use xlink:href="#Calibri-6d" x="511.669922"/>
    <use xlink:href="#Calibri-65" x="591.552734"/>
    <use xlink:href="#Calibri-6e" x="641.308594"/>
    <use xlink:href="#Calibri-74" x="693.847656"/>
   </g>
  </g>
 </g>
 <defs>
  <clipPath id="p49661dca28">
   <rect x="46.49" y="27.12" width="120.531075" height="79.179213"/>
  </clipPath>
  <clipPath id="p89beafcb5d">
   <rect x="211.617573" y="27.12" width="120.531075" height="79.179213"/>
  </clipPath>
  <clipPath id="p8a0ea2dd6b">
   <rect x="376.745145" y="27.12" width="120.531075" height="79.179213"/>
  </clipPath>
 </defs>
</svg>
