<?xml version="1.0" encoding="utf-8" standalone="no"?>
<!DOCTYPE svg PUBLIC "-//W3C//DTD SVG 1.1//EN"
  "http://www.w3.org/Graphics/SVG/1.1/DTD/svg11.dtd">
<svg xmlns:xlink="http://www.w3.org/1999/xlink" width="510.23622pt" height="141.732283pt" viewBox="0 0 510.23622 141.732283" xmlns="http://www.w3.org/2000/svg" version="1.1">
 <metadata>
  <rdf:RDF xmlns:dc="http://purl.org/dc/elements/1.1/" xmlns:cc="http://creativecommons.org/ns#" xmlns:rdf="http://www.w3.org/1999/02/22-rdf-syntax-ns#">
   <cc:Work>
    <dc:type rdf:resource="http://purl.org/dc/dcmitype/StillImage"/>
    <dc:date>2025-04-06T14:32:53.092477</dc:date>
    <dc:format>image/svg+xml</dc:format>
    <dc:creator>
     <cc:Agent>
      <dc:title>Matplotlib v3.8.3, https://matplotlib.org/</dc:title>
     </cc:Agent>
    </dc:creator>
   </cc:Work>
  </rdf:RDF>
 </metadata>
 <defs>
  <style type="text/css">*{stroke-linejoin: round; stroke-linecap: butt}</style>
 </defs>
 <g id="figure_1">
  <g id="patch_1">
   <path d="M 0 141.732283 
L 510.23622 141.732283 
L 510.23622 0 
L 0 0 
z
" style="fill: #ffffff"/>
  </g>
  <g id="axes_1">
   <g id="patch_2">
    <path d="M 63.779528 99.212598 
L 180.083372 99.212598 
L 180.083372 17.007874 
L 63.779528 17.007874 
z
" style="fill: #ffffff"/>
   </g>
   <g id="PathCollection_1">
    <defs>
     <path id="me00c2ad450" d="M 0 1.936492 
C 0.513564 1.936492 1.006162 1.732451 1.369306 1.369306 
C 1.732451 1.006162 1.936492 0.513564 1.936492 0 
C 1.936492 -0.513564 1.732451 -1.006162 1.369306 -1.369306 
C 1.006162 -1.732451 0.513564 -1.936492 0 -1.936492 
C -0.513564 -1.936492 -1.006162 -1.732451 -1.369306 -1.369306 
C -1.732451 -1.006162 -1.936492 -0.513564 -1.936492 0 
C -1.936492 0.513564 -1.732451 1.006162 -1.369306 1.369306 
C -1.006162 1.732451 -0.513564 1.936492 0 1.936492 
z
" style="stroke: #0000ff; stroke-opacity: 0.6"/>
    </defs>
    <g clip-path="url(#pcccd0e644e)">
     <use xlink:href="#me00c2ad450" x="84.463751" y="60.323428" style="fill: #0000ff; fill-opacity: 0.6; stroke: #0000ff; stroke-opacity: 0.6"/>
     <use xlink:href="#me00c2ad450" x="137.950444" y="64.633405" style="fill: #0000ff; fill-opacity: 0.6; stroke: #0000ff; stroke-opacity: 0.6"/>
     <use xlink:href="#me00c2ad450" x="132.453201" y="58.126391" style="fill: #0000ff; fill-opacity: 0.6; stroke: #0000ff; stroke-opacity: 0.6"/>
     <use xlink:href="#me00c2ad450" x="143.744836" y="60.123697" style="fill: #0000ff; fill-opacity: 0.6; stroke: #0000ff; stroke-opacity: 0.6"/>
     <use xlink:href="#me00c2ad450" x="135.27611" y="63.027473" style="fill: #0000ff; fill-opacity: 0.6; stroke: #0000ff; stroke-opacity: 0.6"/>
     <use xlink:href="#me00c2ad450" x="110.730389" y="68.312653" style="fill: #0000ff; fill-opacity: 0.6; stroke: #0000ff; stroke-opacity: 0.6"/>
     <use xlink:href="#me00c2ad450" x="174.796834" y="55.929354" style="fill: #0000ff; fill-opacity: 0.6; stroke: #0000ff; stroke-opacity: 0.6"/>
     <use xlink:href="#me00c2ad450" x="148.138386" y="65.345227" style="fill: #0000ff; fill-opacity: 0.6; stroke: #0000ff; stroke-opacity: 0.6"/>
     <use xlink:href="#me00c2ad450" x="135.27611" y="72.107535" style="fill: #0000ff; fill-opacity: 0.6; stroke: #0000ff; stroke-opacity: 0.6"/>
     <use xlink:href="#me00c2ad450" x="152.213563" y="67.228401" style="fill: #0000ff; fill-opacity: 0.6; stroke: #0000ff; stroke-opacity: 0.6"/>
     <use xlink:href="#me00c2ad450" x="126.807383" y="76.016549" style="fill: #0000ff; fill-opacity: 0.6; stroke: #0000ff; stroke-opacity: 0.6"/>
     <use xlink:href="#me00c2ad450" x="140.921927" y="68.77357" style="fill: #0000ff; fill-opacity: 0.6; stroke: #0000ff; stroke-opacity: 0.6"/>
     <use xlink:href="#me00c2ad450" x="164.722924" y="20.744452" style="fill: #0000ff; fill-opacity: 0.6; stroke: #0000ff; stroke-opacity: 0.6"/>
     <use xlink:href="#me00c2ad450" x="135.27611" y="29.56491" style="fill: #0000ff; fill-opacity: 0.6; stroke: #0000ff; stroke-opacity: 0.6"/>
     <use xlink:href="#me00c2ad450" x="146.567745" y="33.958984" style="fill: #0000ff; fill-opacity: 0.6; stroke: #0000ff; stroke-opacity: 0.6"/>
     <use xlink:href="#me00c2ad450" x="159.74132" y="23.706144" style="fill: #0000ff; fill-opacity: 0.6; stroke: #0000ff; stroke-opacity: 0.6"/>
     <use xlink:href="#me00c2ad450" x="130.656804" y="90.283023" style="fill: #0000ff; fill-opacity: 0.6; stroke: #0000ff; stroke-opacity: 0.6"/>
     <use xlink:href="#me00c2ad450" x="69.066066" y="95.47602" style="fill: #0000ff; fill-opacity: 0.6; stroke: #0000ff; stroke-opacity: 0.6"/>
     <use xlink:href="#me00c2ad450" x="84.463751" y="88.884909" style="fill: #0000ff; fill-opacity: 0.6; stroke: #0000ff; stroke-opacity: 0.6"/>
     <use xlink:href="#me00c2ad450" x="160.682289" y="42.747132" style="fill: #0000ff; fill-opacity: 0.6; stroke: #0000ff; stroke-opacity: 0.6"/>
     <use xlink:href="#me00c2ad450" x="160.682289" y="49.338243" style="fill: #0000ff; fill-opacity: 0.6; stroke: #0000ff; stroke-opacity: 0.6"/>
     <use xlink:href="#me00c2ad450" x="114.353374" y="59.031053" style="fill: #0000ff; fill-opacity: 0.6; stroke: #0000ff; stroke-opacity: 0.6"/>
     <use xlink:href="#me00c2ad450" x="100.191386" y="63.462052" style="fill: #0000ff; fill-opacity: 0.6; stroke: #0000ff; stroke-opacity: 0.6"/>
     <use xlink:href="#me00c2ad450" x="135.27611" y="46.042687" style="fill: #0000ff; fill-opacity: 0.6; stroke: #0000ff; stroke-opacity: 0.6"/>
     <use xlink:href="#me00c2ad450" x="125.524243" y="78.913741" style="fill: #0000ff; fill-opacity: 0.6; stroke: #0000ff; stroke-opacity: 0.6"/>
     <use xlink:href="#me00c2ad450" x="92.932477" y="82.293798" style="fill: #0000ff; fill-opacity: 0.6; stroke: #0000ff; stroke-opacity: 0.6"/>
     <use xlink:href="#me00c2ad450" x="111.563675" y="61.202243" style="fill: #0000ff; fill-opacity: 0.6; stroke: #0000ff; stroke-opacity: 0.6"/>
     <use xlink:href="#me00c2ad450" x="82.85066" y="64.717502" style="fill: #0000ff; fill-opacity: 0.6; stroke: #0000ff; stroke-opacity: 0.6"/>
     <use xlink:href="#me00c2ad450" x="140.921927" y="44.944169" style="fill: #0000ff; fill-opacity: 0.6; stroke: #0000ff; stroke-opacity: 0.6"/>
     <use xlink:href="#me00c2ad450" x="98.074204" y="70.400064" style="fill: #0000ff; fill-opacity: 0.6; stroke: #0000ff; stroke-opacity: 0.6"/>
     <use xlink:href="#me00c2ad450" x="92.932477" y="72.660636" style="fill: #0000ff; fill-opacity: 0.6; stroke: #0000ff; stroke-opacity: 0.6"/>
     <use xlink:href="#me00c2ad450" x="126.807383" y="55.929354" style="fill: #0000ff; fill-opacity: 0.6; stroke: #0000ff; stroke-opacity: 0.6"/>
     <use xlink:href="#me00c2ad450" x="136.485928" y="57.184804" style="fill: #0000ff; fill-opacity: 0.6; stroke: #0000ff; stroke-opacity: 0.6"/>
     <use xlink:href="#me00c2ad450" x="138.099019" y="55.615491" style="fill: #0000ff; fill-opacity: 0.6; stroke: #0000ff; stroke-opacity: 0.6"/>
     <use xlink:href="#me00c2ad450" x="167.196694" y="39.560221" style="fill: #0000ff; fill-opacity: 0.6; stroke: #0000ff; stroke-opacity: 0.6"/>
     <use xlink:href="#me00c2ad450" x="126.807383" y="64.717502" style="fill: #0000ff; fill-opacity: 0.6; stroke: #0000ff; stroke-opacity: 0.6"/>
     <use xlink:href="#me00c2ad450" x="125.524243" y="64.717502" style="fill: #0000ff; fill-opacity: 0.6; stroke: #0000ff; stroke-opacity: 0.6"/>
     <use xlink:href="#me00c2ad450" x="155.036472" y="40.350364" style="fill: #0000ff; fill-opacity: 0.6; stroke: #0000ff; stroke-opacity: 0.6"/>
     <use xlink:href="#me00c2ad450" x="122.188078" y="60.218307" style="fill: #0000ff; fill-opacity: 0.6; stroke: #0000ff; stroke-opacity: 0.6"/>
     <use xlink:href="#me00c2ad450" x="127.664542" y="68.097559" style="fill: #0000ff; fill-opacity: 0.6; stroke: #0000ff; stroke-opacity: 0.6"/>
    </g>
   </g>
   <g id="PathCollection_2"/>
   <g id="matplotlib.axis_1">
    <g id="xtick_1">
     <g id="line2d_1">
      <defs>
       <path id="m5e7e183d65" d="M 0 0 
L 0 3.5 
" style="stroke: #000000; stroke-width: 0.8"/>
      </defs>
      <g>
       <use xlink:href="#m5e7e183d65" x="84.463751" y="99.212598" style="stroke: #000000; stroke-width: 0.8"/>
      </g>
     </g>
     <g id="text_1">
      <!-- 0 -->
      <g transform="translate(81.422501 114.374473) scale(0.12 -0.12)">
       <defs>
        <path id="Calibri-30" d="M 3022 2031 
Q 3022 1566 2948 1181 
Q 2875 797 2704 520 
Q 2534 244 2259 92 
Q 1984 -59 1581 -59 
Q 1200 -59 939 77 
Q 678 213 518 477 
Q 359 741 292 1127 
Q 225 1513 225 2013 
Q 225 2475 300 2861 
Q 375 3247 544 3523 
Q 713 3800 988 3951 
Q 1263 4103 1663 4103 
Q 2047 4103 2308 3967 
Q 2569 3831 2728 3567 
Q 2888 3303 2955 2917 
Q 3022 2531 3022 2031 
z
M 2472 1994 
Q 2472 2297 2450 2537 
Q 2428 2778 2386 2962 
Q 2344 3147 2276 3280 
Q 2209 3413 2115 3498 
Q 2022 3584 1901 3623 
Q 1781 3663 1631 3663 
Q 1366 3663 1200 3538 
Q 1034 3413 939 3194 
Q 844 2975 809 2681 
Q 775 2388 775 2050 
Q 775 1597 822 1280 
Q 869 963 970 763 
Q 1072 563 1230 472 
Q 1388 381 1613 381 
Q 1788 381 1920 437 
Q 2053 494 2148 598 
Q 2244 703 2306 850 
Q 2369 997 2406 1175 
Q 2444 1353 2458 1561 
Q 2472 1769 2472 1994 
z
" transform="scale(0.015625)"/>
       </defs>
       <use xlink:href="#Calibri-30"/>
      </g>
     </g>
    </g>
    <g id="xtick_2">
     <g id="line2d_2">
      <g>
       <use xlink:href="#m5e7e183d65" x="118.338657" y="99.212598" style="stroke: #000000; stroke-width: 0.8"/>
      </g>
     </g>
     <g id="text_2">
      <!-- 20 -->
      <g transform="translate(112.256157 114.374473) scale(0.12 -0.12)">
       <defs>
        <path id="Calibri-32" d="M 2888 231 
Q 2888 175 2880 131 
Q 2872 88 2858 58 
Q 2844 28 2820 14 
Q 2797 0 2769 0 
L 534 0 
Q 491 0 458 11 
Q 425 22 401 47 
Q 378 72 367 119 
Q 356 166 356 234 
Q 356 297 361 344 
Q 366 391 381 427 
Q 397 463 420 498 
Q 444 534 481 575 
L 1266 1406 
Q 1538 1694 1702 1922 
Q 1866 2150 1955 2337 
Q 2044 2525 2072 2678 
Q 2100 2831 2100 2966 
Q 2100 3100 2056 3220 
Q 2013 3341 1930 3431 
Q 1847 3522 1722 3575 
Q 1597 3628 1434 3628 
Q 1244 3628 1092 3575 
Q 941 3522 827 3459 
Q 713 3397 636 3344 
Q 559 3291 522 3291 
Q 500 3291 483 3303 
Q 466 3316 455 3344 
Q 444 3372 437 3419 
Q 431 3466 431 3531 
Q 431 3578 434 3612 
Q 438 3647 445 3672 
Q 453 3697 465 3719 
Q 478 3741 515 3773 
Q 553 3806 645 3862 
Q 738 3919 877 3973 
Q 1016 4028 1183 4065 
Q 1350 4103 1534 4103 
Q 1828 4103 2048 4020 
Q 2269 3938 2414 3794 
Q 2559 3650 2631 3459 
Q 2703 3269 2703 3053 
Q 2703 2859 2668 2667 
Q 2634 2475 2523 2251 
Q 2413 2028 2203 1754 
Q 1994 1481 1647 1125 
L 1006 456 
L 2766 456 
Q 2791 456 2814 442 
Q 2838 428 2855 400 
Q 2872 372 2880 330 
Q 2888 288 2888 231 
z
" transform="scale(0.015625)"/>
       </defs>
       <use xlink:href="#Calibri-32"/>
       <use xlink:href="#Calibri-30" x="50.683594"/>
      </g>
     </g>
    </g>
    <g id="xtick_3">
     <g id="line2d_3">
      <g>
       <use xlink:href="#m5e7e183d65" x="152.213563" y="99.212598" style="stroke: #000000; stroke-width: 0.8"/>
      </g>
     </g>
     <g id="text_3">
      <!-- 40 -->
      <g transform="translate(146.131063 114.374473) scale(0.12 -0.12)">
       <defs>
        <path id="Calibri-34" d="M 3059 1150 
Q 3059 1047 3028 987 
Q 2997 928 2941 928 
L 2484 928 
L 2484 78 
Q 2484 53 2471 36 
Q 2459 19 2428 6 
Q 2397 -6 2347 -12 
Q 2297 -19 2219 -19 
Q 2144 -19 2094 -12 
Q 2044 -6 2014 6 
Q 1984 19 1973 36 
Q 1963 53 1963 78 
L 1963 928 
L 294 928 
Q 256 928 231 937 
Q 206 947 186 972 
Q 166 997 158 1044 
Q 150 1091 150 1166 
Q 150 1225 153 1272 
Q 156 1319 165 1358 
Q 175 1397 190 1433 
Q 206 1469 228 1509 
L 1684 3966 
Q 1700 3991 1729 4009 
Q 1759 4028 1806 4040 
Q 1853 4053 1922 4058 
Q 1991 4063 2084 4063 
Q 2188 4063 2264 4055 
Q 2341 4047 2387 4034 
Q 2434 4022 2459 4001 
Q 2484 3981 2484 3953 
L 2484 1372 
L 2941 1372 
Q 2994 1372 3026 1317 
Q 3059 1263 3059 1150 
z
M 1963 3591 
L 1956 3591 
L 641 1372 
L 1963 1372 
L 1963 3591 
z
" transform="scale(0.015625)"/>
       </defs>
       <use xlink:href="#Calibri-34"/>
       <use xlink:href="#Calibri-30" x="50.683594"/>
      </g>
     </g>
    </g>
   </g>
   <g id="matplotlib.axis_2">
    <g id="ytick_1">
     <g id="line2d_4">
      <defs>
       <path id="mb0a5589d49" d="M 0 0 
L -3.5 0 
" style="stroke: #000000; stroke-width: 0.8"/>
      </defs>
      <g>
       <use xlink:href="#mb0a5589d49" x="63.779528" y="82.293798" style="stroke: #000000; stroke-width: 0.8"/>
      </g>
     </g>
     <g id="text_4">
      <!-- 0 -->
      <g transform="translate(50.697028 86.374735) scale(0.12 -0.12)">
       <use xlink:href="#Calibri-30"/>
      </g>
     </g>
    </g>
    <g id="ytick_2">
     <g id="line2d_5">
      <g>
       <use xlink:href="#mb0a5589d49" x="63.779528" y="55.929354" style="stroke: #000000; stroke-width: 0.8"/>
      </g>
     </g>
     <g id="text_5">
      <!-- 20 -->
      <g transform="translate(44.614528 60.010291) scale(0.12 -0.12)">
       <use xlink:href="#Calibri-32"/>
       <use xlink:href="#Calibri-30" x="50.683594"/>
      </g>
     </g>
    </g>
    <g id="ytick_3">
     <g id="line2d_6">
      <g>
       <use xlink:href="#mb0a5589d49" x="63.779528" y="29.56491" style="stroke: #000000; stroke-width: 0.8"/>
      </g>
     </g>
     <g id="text_6">
      <!-- 40 -->
      <g transform="translate(44.614528 33.645847) scale(0.12 -0.12)">
       <use xlink:href="#Calibri-34"/>
       <use xlink:href="#Calibri-30" x="50.683594"/>
      </g>
     </g>
    </g>
    <g id="text_7">
     <!-- Change observed -->
     <g transform="translate(38.475153 100.244299) rotate(-90) scale(0.12 -0.12)">
      <defs>
       <path id="Calibri-43" d="M 3238 572 
Q 3238 522 3234 484 
Q 3231 447 3223 419 
Q 3216 391 3203 369 
Q 3191 347 3159 315 
Q 3128 284 3028 220 
Q 2928 156 2779 95 
Q 2631 34 2439 -8 
Q 2247 -50 2019 -50 
Q 1625 -50 1308 81 
Q 991 213 767 469 
Q 544 725 423 1101 
Q 303 1478 303 1969 
Q 303 2472 433 2865 
Q 563 3259 797 3532 
Q 1031 3806 1357 3950 
Q 1684 4094 2081 4094 
Q 2256 4094 2422 4061 
Q 2588 4028 2728 3978 
Q 2869 3928 2978 3862 
Q 3088 3797 3130 3755 
Q 3172 3713 3184 3691 
Q 3197 3669 3205 3639 
Q 3213 3609 3217 3568 
Q 3222 3528 3222 3472 
Q 3222 3409 3215 3365 
Q 3209 3322 3196 3292 
Q 3184 3263 3167 3248 
Q 3150 3234 3125 3234 
Q 3081 3234 3003 3295 
Q 2925 3356 2801 3429 
Q 2678 3503 2501 3564 
Q 2325 3625 2078 3625 
Q 1809 3625 1589 3517 
Q 1369 3409 1212 3200 
Q 1056 2991 970 2689 
Q 884 2388 884 2000 
Q 884 1616 967 1320 
Q 1050 1025 1204 826 
Q 1359 628 1584 526 
Q 1809 425 2094 425 
Q 2334 425 2514 484 
Q 2694 544 2820 617 
Q 2947 691 3028 750 
Q 3109 809 3156 809 
Q 3178 809 3193 800 
Q 3209 791 3218 764 
Q 3228 738 3233 691 
Q 3238 644 3238 572 
z
" transform="scale(0.015625)"/>
       <path id="Calibri-68" d="M 2900 78 
Q 2900 53 2887 36 
Q 2875 19 2847 6 
Q 2819 -6 2769 -12 
Q 2719 -19 2644 -19 
Q 2566 -19 2516 -12 
Q 2466 -6 2437 6 
Q 2409 19 2396 36 
Q 2384 53 2384 78 
L 2384 1725 
Q 2384 1966 2346 2112 
Q 2309 2259 2237 2365 
Q 2166 2472 2052 2528 
Q 1938 2584 1788 2584 
Q 1594 2584 1400 2446 
Q 1206 2309 994 2044 
L 994 78 
Q 994 53 981 36 
Q 969 19 941 6 
Q 913 -6 863 -12 
Q 813 -19 734 -19 
Q 659 -19 609 -12 
Q 559 -6 529 6 
Q 500 19 489 36 
Q 478 53 478 78 
L 478 4253 
Q 478 4278 489 4297 
Q 500 4316 529 4328 
Q 559 4341 609 4347 
Q 659 4353 734 4353 
Q 813 4353 863 4347 
Q 913 4341 941 4328 
Q 969 4316 981 4297 
Q 994 4278 994 4253 
L 994 2569 
Q 1216 2803 1441 2917 
Q 1666 3031 1894 3031 
Q 2175 3031 2367 2936 
Q 2559 2841 2678 2681 
Q 2797 2522 2848 2308 
Q 2900 2094 2900 1791 
L 2900 78 
z
" transform="scale(0.015625)"/>
       <path id="Calibri-61" d="M 2597 75 
Q 2597 38 2572 19 
Q 2547 0 2503 -9 
Q 2459 -19 2375 -19 
Q 2294 -19 2245 -9 
Q 2197 0 2175 19 
Q 2153 38 2153 75 
L 2153 356 
Q 1969 159 1742 50 
Q 1516 -59 1263 -59 
Q 1041 -59 861 -1 
Q 681 56 554 165 
Q 428 275 358 434 
Q 288 594 288 797 
Q 288 1034 384 1209 
Q 481 1384 662 1500 
Q 844 1616 1106 1673 
Q 1369 1731 1697 1731 
L 2084 1731 
L 2084 1950 
Q 2084 2113 2050 2238 
Q 2016 2363 1939 2445 
Q 1863 2528 1741 2570 
Q 1619 2613 1441 2613 
Q 1250 2613 1098 2567 
Q 947 2522 833 2467 
Q 719 2413 642 2367 
Q 566 2322 528 2322 
Q 503 2322 484 2334 
Q 466 2347 452 2372 
Q 438 2397 431 2436 
Q 425 2475 425 2522 
Q 425 2600 436 2645 
Q 447 2691 489 2731 
Q 531 2772 634 2826 
Q 738 2881 872 2926 
Q 1006 2972 1165 3001 
Q 1325 3031 1488 3031 
Q 1791 3031 2003 2962 
Q 2216 2894 2347 2761 
Q 2478 2628 2537 2431 
Q 2597 2234 2597 1972 
L 2597 75 
z
M 2084 1359 
L 1644 1359 
Q 1431 1359 1275 1323 
Q 1119 1288 1016 1217 
Q 913 1147 864 1048 
Q 816 950 816 822 
Q 816 603 955 473 
Q 1094 344 1344 344 
Q 1547 344 1720 447 
Q 1894 550 2084 763 
L 2084 1359 
z
" transform="scale(0.015625)"/>
       <path id="Calibri-6e" d="M 2900 78 
Q 2900 53 2887 36 
Q 2875 19 2847 6 
Q 2819 -6 2769 -12 
Q 2719 -19 2644 -19 
Q 2566 -19 2516 -12 
Q 2466 -6 2437 6 
Q 2409 19 2396 36 
Q 2384 53 2384 78 
L 2384 1725 
Q 2384 1966 2346 2112 
Q 2309 2259 2237 2365 
Q 2166 2472 2052 2528 
Q 1938 2584 1788 2584 
Q 1594 2584 1400 2446 
Q 1206 2309 994 2044 
L 994 78 
Q 994 53 981 36 
Q 969 19 941 6 
Q 913 -6 863 -12 
Q 813 -19 734 -19 
Q 659 -19 609 -12 
Q 559 -6 529 6 
Q 500 19 489 36 
Q 478 53 478 78 
L 478 2891 
Q 478 2916 487 2933 
Q 497 2950 525 2964 
Q 553 2978 597 2983 
Q 641 2988 713 2988 
Q 781 2988 826 2983 
Q 872 2978 897 2964 
Q 922 2950 933 2933 
Q 944 2916 944 2891 
L 944 2519 
Q 1181 2784 1417 2907 
Q 1653 3031 1894 3031 
Q 2175 3031 2367 2936 
Q 2559 2841 2678 2681 
Q 2797 2522 2848 2308 
Q 2900 2094 2900 1794 
L 2900 78 
z
" transform="scale(0.015625)"/>
       <path id="Calibri-67" d="M 2828 2763 
Q 2828 2653 2798 2604 
Q 2769 2556 2722 2556 
L 2319 2556 
Q 2428 2444 2472 2308 
Q 2516 2172 2516 2025 
Q 2516 1781 2437 1593 
Q 2359 1406 2214 1276 
Q 2069 1147 1869 1078 
Q 1669 1009 1425 1009 
Q 1253 1009 1098 1054 
Q 944 1100 859 1169 
Q 803 1113 767 1041 
Q 731 969 731 875 
Q 731 766 832 694 
Q 934 622 1103 616 
L 1838 584 
Q 2047 578 2222 526 
Q 2397 475 2525 379 
Q 2653 284 2725 145 
Q 2797 6 2797 -178 
Q 2797 -372 2715 -547 
Q 2634 -722 2467 -855 
Q 2300 -988 2040 -1064 
Q 1781 -1141 1428 -1141 
Q 1088 -1141 848 -1083 
Q 609 -1025 456 -925 
Q 303 -825 234 -686 
Q 166 -547 166 -384 
Q 166 -281 191 -184 
Q 216 -88 267 0 
Q 319 88 395 167 
Q 472 247 572 325 
Q 419 403 345 522 
Q 272 641 272 778 
Q 272 969 350 1119 
Q 428 1269 544 1388 
Q 447 1503 390 1648 
Q 334 1794 334 2000 
Q 334 2241 415 2431 
Q 497 2622 640 2753 
Q 784 2884 986 2954 
Q 1188 3025 1425 3025 
Q 1553 3025 1664 3011 
Q 1775 2997 1872 2972 
L 2722 2972 
Q 2775 2972 2801 2920 
Q 2828 2869 2828 2763 
z
M 2022 2022 
Q 2022 2309 1864 2470 
Q 1706 2631 1416 2631 
Q 1266 2631 1155 2581 
Q 1044 2531 970 2443 
Q 897 2356 861 2242 
Q 825 2128 825 2003 
Q 825 1725 983 1565 
Q 1141 1406 1425 1406 
Q 1578 1406 1690 1454 
Q 1803 1503 1876 1589 
Q 1950 1675 1986 1787 
Q 2022 1900 2022 2022 
z
M 2281 -206 
Q 2281 -25 2132 73 
Q 1984 172 1731 178 
L 1003 203 
Q 903 125 839 54 
Q 775 -16 737 -80 
Q 700 -144 686 -206 
Q 672 -269 672 -334 
Q 672 -538 878 -642 
Q 1084 -747 1453 -747 
Q 1688 -747 1845 -701 
Q 2003 -656 2100 -581 
Q 2197 -506 2239 -409 
Q 2281 -313 2281 -206 
z
" transform="scale(0.015625)"/>
       <path id="Calibri-65" d="M 2878 1606 
Q 2878 1484 2817 1432 
Q 2756 1381 2678 1381 
L 834 1381 
Q 834 1147 881 959 
Q 928 772 1037 637 
Q 1147 503 1322 431 
Q 1497 359 1750 359 
Q 1950 359 2106 392 
Q 2263 425 2377 465 
Q 2491 506 2564 539 
Q 2638 572 2675 572 
Q 2697 572 2714 561 
Q 2731 550 2740 528 
Q 2750 506 2754 467 
Q 2759 428 2759 372 
Q 2759 331 2756 301 
Q 2753 272 2748 248 
Q 2744 225 2733 206 
Q 2722 188 2705 170 
Q 2688 153 2603 114 
Q 2519 75 2384 37 
Q 2250 0 2073 -29 
Q 1897 -59 1697 -59 
Q 1350 -59 1089 37 
Q 828 134 650 325 
Q 472 516 381 803 
Q 291 1091 291 1472 
Q 291 1834 384 2123 
Q 478 2413 654 2614 
Q 831 2816 1081 2923 
Q 1331 3031 1641 3031 
Q 1972 3031 2205 2925 
Q 2438 2819 2588 2639 
Q 2738 2459 2808 2217 
Q 2878 1975 2878 1700 
L 2878 1606 
z
M 2359 1759 
Q 2369 2166 2180 2397 
Q 1991 2628 1619 2628 
Q 1428 2628 1284 2556 
Q 1141 2484 1044 2365 
Q 947 2247 894 2089 
Q 841 1931 834 1759 
L 2359 1759 
z
" transform="scale(0.015625)"/>
       <path id="Calibri-20" transform="scale(0.015625)"/>
       <path id="Calibri-6f" d="M 3094 1516 
Q 3094 1172 3003 883 
Q 2913 594 2733 384 
Q 2553 175 2283 58 
Q 2013 -59 1656 -59 
Q 1309 -59 1051 44 
Q 794 147 622 344 
Q 450 541 365 822 
Q 281 1103 281 1459 
Q 281 1803 370 2092 
Q 459 2381 639 2590 
Q 819 2800 1087 2915 
Q 1356 3031 1716 3031 
Q 2063 3031 2320 2928 
Q 2578 2825 2750 2628 
Q 2922 2431 3008 2150 
Q 3094 1869 3094 1516 
z
M 2550 1481 
Q 2550 1709 2508 1912 
Q 2466 2116 2369 2269 
Q 2272 2422 2106 2511 
Q 1941 2600 1694 2600 
Q 1466 2600 1302 2519 
Q 1138 2438 1031 2289 
Q 925 2141 873 1937 
Q 822 1734 822 1494 
Q 822 1263 864 1059 
Q 906 856 1004 704 
Q 1103 553 1268 464 
Q 1434 375 1681 375 
Q 1906 375 2072 456 
Q 2238 538 2344 684 
Q 2450 831 2500 1034 
Q 2550 1238 2550 1481 
z
" transform="scale(0.015625)"/>
       <path id="Calibri-62" d="M 3066 1522 
Q 3066 1156 2986 864 
Q 2906 572 2751 365 
Q 2597 159 2372 50 
Q 2147 -59 1856 -59 
Q 1722 -59 1608 -32 
Q 1494 -6 1384 53 
Q 1275 113 1165 203 
Q 1056 294 934 422 
L 934 78 
Q 934 53 921 34 
Q 909 16 881 5 
Q 853 -6 811 -12 
Q 769 -19 703 -19 
Q 641 -19 597 -12 
Q 553 -6 525 5 
Q 497 16 487 34 
Q 478 53 478 78 
L 478 4253 
Q 478 4278 489 4297 
Q 500 4316 529 4328 
Q 559 4341 609 4347 
Q 659 4353 734 4353 
Q 813 4353 863 4347 
Q 913 4341 941 4328 
Q 969 4316 981 4297 
Q 994 4278 994 4253 
L 994 2569 
Q 1119 2697 1236 2784 
Q 1353 2872 1465 2926 
Q 1578 2981 1690 3006 
Q 1803 3031 1928 3031 
Q 2234 3031 2451 2909 
Q 2669 2788 2805 2583 
Q 2941 2378 3003 2103 
Q 3066 1828 3066 1522 
z
M 2522 1463 
Q 2522 1678 2489 1881 
Q 2456 2084 2375 2240 
Q 2294 2397 2159 2492 
Q 2025 2588 1825 2588 
Q 1725 2588 1628 2559 
Q 1531 2531 1431 2465 
Q 1331 2400 1223 2297 
Q 1116 2194 994 2038 
L 994 916 
Q 1206 656 1400 520 
Q 1594 384 1803 384 
Q 1997 384 2134 478 
Q 2272 572 2358 726 
Q 2444 881 2483 1073 
Q 2522 1266 2522 1463 
z
" transform="scale(0.015625)"/>
       <path id="Calibri-73" d="M 2244 844 
Q 2244 628 2164 459 
Q 2084 291 1937 175 
Q 1791 59 1587 0 
Q 1384 -59 1141 -59 
Q 991 -59 855 -36 
Q 719 -13 611 23 
Q 503 59 428 98 
Q 353 138 318 169 
Q 284 200 268 256 
Q 253 313 253 409 
Q 253 469 259 509 
Q 266 550 275 575 
Q 284 600 301 611 
Q 319 622 341 622 
Q 375 622 442 580 
Q 509 538 607 488 
Q 706 438 840 395 
Q 975 353 1150 353 
Q 1281 353 1387 381 
Q 1494 409 1572 464 
Q 1650 519 1692 603 
Q 1734 688 1734 803 
Q 1734 922 1673 1003 
Q 1613 1084 1513 1146 
Q 1413 1209 1288 1257 
Q 1163 1306 1030 1359 
Q 897 1413 770 1480 
Q 644 1547 544 1644 
Q 444 1741 383 1875 
Q 322 2009 322 2197 
Q 322 2363 386 2514 
Q 450 2666 578 2780 
Q 706 2894 898 2962 
Q 1091 3031 1347 3031 
Q 1459 3031 1571 3012 
Q 1684 2994 1775 2966 
Q 1866 2938 1930 2905 
Q 1994 2872 2026 2847 
Q 2059 2822 2070 2803 
Q 2081 2784 2086 2761 
Q 2091 2738 2095 2703 
Q 2100 2669 2100 2619 
Q 2100 2566 2095 2527 
Q 2091 2488 2080 2463 
Q 2069 2438 2053 2427 
Q 2038 2416 2019 2416 
Q 1991 2416 1937 2450 
Q 1884 2484 1800 2523 
Q 1716 2563 1602 2597 
Q 1488 2631 1341 2631 
Q 1209 2631 1109 2601 
Q 1009 2572 945 2517 
Q 881 2463 848 2388 
Q 816 2313 816 2225 
Q 816 2103 878 2020 
Q 941 1938 1041 1875 
Q 1141 1813 1269 1763 
Q 1397 1713 1530 1659 
Q 1663 1606 1792 1540 
Q 1922 1475 2022 1381 
Q 2122 1288 2183 1156 
Q 2244 1025 2244 844 
z
" transform="scale(0.015625)"/>
       <path id="Calibri-72" d="M 2122 2706 
Q 2122 2638 2119 2591 
Q 2116 2544 2106 2517 
Q 2097 2491 2083 2477 
Q 2069 2463 2044 2463 
Q 2019 2463 1983 2477 
Q 1947 2491 1901 2505 
Q 1856 2519 1800 2531 
Q 1744 2544 1678 2544 
Q 1600 2544 1525 2512 
Q 1450 2481 1367 2409 
Q 1284 2338 1193 2219 
Q 1103 2100 994 1928 
L 994 78 
Q 994 53 981 36 
Q 969 19 941 6 
Q 913 -6 863 -12 
Q 813 -19 734 -19 
Q 659 -19 609 -12 
Q 559 -6 529 6 
Q 500 19 489 36 
Q 478 53 478 78 
L 478 2891 
Q 478 2916 487 2933 
Q 497 2950 525 2964 
Q 553 2978 597 2983 
Q 641 2988 713 2988 
Q 781 2988 826 2983 
Q 872 2978 897 2964 
Q 922 2950 933 2933 
Q 944 2916 944 2891 
L 944 2481 
Q 1059 2650 1161 2756 
Q 1263 2863 1353 2923 
Q 1444 2984 1533 3007 
Q 1622 3031 1713 3031 
Q 1753 3031 1804 3026 
Q 1856 3022 1912 3009 
Q 1969 2997 2014 2981 
Q 2059 2966 2078 2950 
Q 2097 2934 2103 2920 
Q 2109 2906 2114 2884 
Q 2119 2863 2120 2820 
Q 2122 2778 2122 2706 
z
" transform="scale(0.015625)"/>
       <path id="Calibri-76" d="M 2784 2897 
Q 2784 2884 2782 2870 
Q 2781 2856 2778 2840 
Q 2775 2825 2770 2806 
Q 2766 2788 2759 2766 
L 1800 94 
Q 1788 59 1767 37 
Q 1747 16 1706 3 
Q 1666 -9 1603 -14 
Q 1541 -19 1447 -19 
Q 1353 -19 1290 -12 
Q 1228 -6 1189 6 
Q 1150 19 1128 41 
Q 1106 63 1094 94 
L 138 2766 
Q 125 2803 117 2831 
Q 109 2859 107 2873 
Q 106 2888 106 2897 
Q 106 2922 118 2940 
Q 131 2959 161 2970 
Q 191 2981 239 2984 
Q 288 2988 359 2988 
Q 450 2988 504 2983 
Q 559 2978 589 2965 
Q 619 2953 633 2934 
Q 647 2916 659 2888 
L 1453 569 
L 1466 531 
L 1475 569 
L 2259 2888 
Q 2266 2916 2281 2934 
Q 2297 2953 2326 2965 
Q 2356 2978 2407 2983 
Q 2459 2988 2544 2988 
Q 2616 2988 2662 2984 
Q 2709 2981 2736 2968 
Q 2763 2956 2773 2939 
Q 2784 2922 2784 2897 
z
" transform="scale(0.015625)"/>
       <path id="Calibri-64" d="M 2888 78 
Q 2888 53 2877 34 
Q 2866 16 2839 5 
Q 2813 -6 2769 -12 
Q 2725 -19 2663 -19 
Q 2597 -19 2553 -12 
Q 2509 -6 2481 5 
Q 2453 16 2440 34 
Q 2428 53 2428 78 
L 2428 450 
Q 2206 209 1967 75 
Q 1728 -59 1444 -59 
Q 1134 -59 915 61 
Q 697 181 561 386 
Q 425 591 362 867 
Q 300 1144 300 1450 
Q 300 1813 378 2105 
Q 456 2397 609 2603 
Q 763 2809 989 2920 
Q 1216 3031 1513 3031 
Q 1759 3031 1964 2923 
Q 2169 2816 2369 2606 
L 2369 4241 
Q 2369 4263 2380 4283 
Q 2391 4303 2422 4314 
Q 2453 4325 2501 4333 
Q 2550 4341 2625 4341 
Q 2703 4341 2753 4333 
Q 2803 4325 2831 4314 
Q 2859 4303 2873 4283 
Q 2888 4263 2888 4241 
L 2888 78 
z
M 2369 2056 
Q 2159 2316 1964 2452 
Q 1769 2588 1556 2588 
Q 1359 2588 1221 2494 
Q 1084 2400 998 2247 
Q 913 2094 873 1900 
Q 834 1706 834 1506 
Q 834 1294 867 1091 
Q 900 888 981 730 
Q 1063 572 1197 476 
Q 1331 381 1534 381 
Q 1638 381 1733 409 
Q 1828 438 1928 503 
Q 2028 569 2137 673 
Q 2247 778 2369 931 
L 2369 2056 
z
" transform="scale(0.015625)"/>
      </defs>
      <use xlink:href="#Calibri-43"/>
      <use xlink:href="#Calibri-68" x="53.320312"/>
      <use xlink:href="#Calibri-61" x="105.859375"/>
      <use xlink:href="#Calibri-6e" x="153.759766"/>
      <use xlink:href="#Calibri-67" x="206.298828"/>
      <use xlink:href="#Calibri-65" x="253.369141"/>
      <use xlink:href="#Calibri-20" x="303.125"/>
      <use xlink:href="#Calibri-6f" x="325.732422"/>
      <use xlink:href="#Calibri-62" x="378.466797"/>
      <use xlink:href="#Calibri-73" x="431.005859"/>
      <use xlink:href="#Calibri-65" x="470.117188"/>
      <use xlink:href="#Calibri-72" x="519.873047"/>
      <use xlink:href="#Calibri-76" x="554.736328"/>
      <use xlink:href="#Calibri-65" x="599.902344"/>
      <use xlink:href="#Calibri-64" x="649.658203"/>
     </g>
    </g>
   </g>
   <g id="line2d_7">
    <path d="M 69.066066 92.669754 
L 70.134053 92.087913 
L 71.202041 91.506071 
L 72.270029 90.92423 
L 73.338016 90.342388 
L 74.406004 89.760547 
L 75.473991 89.178705 
L 76.541979 88.596863 
L 77.609966 88.015022 
L 78.677954 87.43318 
L 79.745941 86.851339 
L 80.813929 86.269497 
L 81.881917 85.687656 
L 82.949904 85.105814 
L 84.017892 84.523972 
L 85.085879 83.942131 
L 86.153867 83.360289 
L 87.221854 82.778448 
L 88.289842 82.196606 
L 89.357829 81.614765 
L 90.425817 81.032923 
L 91.493805 80.451081 
L 92.561792 79.86924 
L 93.62978 79.287398 
L 94.697767 78.705557 
L 95.765755 78.123715 
L 96.833742 77.541874 
L 97.90173 76.960032 
L 98.969717 76.37819 
L 100.037705 75.796349 
L 101.105692 75.214507 
L 102.17368 74.632666 
L 103.241668 74.050824 
L 104.309655 73.468982 
L 105.377643 72.887141 
L 106.44563 72.305299 
L 107.513618 71.723458 
L 108.581605 71.141616 
L 109.649593 70.559775 
L 110.71758 69.977933 
L 111.785568 69.396091 
L 112.853556 68.81425 
L 113.921543 68.232408 
L 114.989531 67.650567 
L 116.057518 67.068725 
L 117.125506 66.486884 
L 118.193493 65.905042 
L 119.261481 65.3232 
L 120.329468 64.741359 
L 121.397456 64.159517 
L 122.465444 63.577676 
L 123.533431 62.995834 
L 124.601419 62.413993 
L 125.669406 61.832151 
L 126.737394 61.250309 
L 127.805381 60.668468 
L 128.873369 60.086626 
L 129.941356 59.504785 
L 131.009344 58.922943 
L 132.077331 58.341102 
L 133.145319 57.75926 
L 134.213307 57.177418 
L 135.281294 56.595577 
L 136.349282 56.013735 
L 137.417269 55.431894 
L 138.485257 54.850052 
L 139.553244 54.268211 
L 140.621232 53.686369 
L 141.689219 53.104527 
L 142.757207 52.522686 
L 143.825195 51.940844 
L 144.893182 51.359003 
L 145.96117 50.777161 
L 147.029157 50.19532 
L 148.097145 49.613478 
L 149.165132 49.031636 
L 150.23312 48.449795 
L 151.301107 47.867953 
L 152.369095 47.286112 
L 153.437083 46.70427 
L 154.50507 46.122429 
L 155.573058 45.540587 
L 156.641045 44.958745 
L 157.709033 44.376904 
L 158.77702 43.795062 
L 159.845008 43.213221 
L 160.912995 42.631379 
L 161.980983 42.049538 
L 163.04897 41.467696 
L 164.116958 40.885854 
L 165.184946 40.304013 
L 166.252933 39.722171 
L 167.320921 39.14033 
L 168.388908 38.558488 
L 169.456896 37.976647 
L 170.524883 37.394805 
L 171.592871 36.812963 
L 172.660858 36.231122 
L 173.728846 35.64928 
L 174.796834 35.067439 
" clip-path="url(#pcccd0e644e)" style="fill: none; stroke-dasharray: 5.55,2.4; stroke-dashoffset: 0; stroke: #000000; stroke-width: 1.5"/>
   </g>
   <g id="line2d_8">
    <path d="M 69.066066 92.68782 
L 70.134053 92.104726 
L 71.202041 91.521631 
L 72.270029 90.938537 
L 73.338016 90.355442 
L 74.406004 89.772347 
L 75.473991 89.189253 
L 76.541979 88.606158 
L 77.609966 88.023063 
L 78.677954 87.439969 
L 79.745941 86.856874 
L 80.813929 86.273779 
L 81.881917 85.690685 
L 82.949904 85.10759 
L 84.017892 84.524496 
L 85.085879 83.941401 
L 86.153867 83.358306 
L 87.221854 82.775212 
L 88.289842 82.192117 
L 89.357829 81.609022 
L 90.425817 81.025928 
L 91.493805 80.442833 
L 92.561792 79.859738 
L 93.62978 79.276644 
L 94.697767 78.693549 
L 95.765755 78.110454 
L 96.833742 77.52736 
L 97.90173 76.944265 
L 98.969717 76.361171 
L 100.037705 75.778076 
L 101.105692 75.194981 
L 102.17368 74.611887 
L 103.241668 74.028792 
L 104.309655 73.445697 
L 105.377643 72.862603 
L 106.44563 72.279508 
L 107.513618 71.696413 
L 108.581605 71.113319 
L 109.649593 70.530224 
L 110.71758 69.947129 
L 111.785568 69.364035 
L 112.853556 68.78094 
L 113.921543 68.197846 
L 114.989531 67.614751 
L 116.057518 67.031656 
L 117.125506 66.448562 
L 118.193493 65.865467 
L 119.261481 65.282372 
L 120.329468 64.699278 
L 121.397456 64.116183 
L 122.465444 63.533088 
L 123.533431 62.949994 
L 124.601419 62.366899 
L 125.669406 61.783804 
L 126.737394 61.20071 
L 127.805381 60.617615 
L 128.873369 60.034521 
L 129.941356 59.451426 
L 131.009344 58.868331 
L 132.077331 58.285237 
L 133.145319 57.702142 
L 134.213307 57.119047 
L 135.281294 56.535953 
L 136.349282 55.952858 
L 137.417269 55.369763 
L 138.485257 54.786669 
L 139.553244 54.203574 
L 140.621232 53.620479 
L 141.689219 53.037385 
L 142.757207 52.45429 
L 143.825195 51.871196 
L 144.893182 51.288101 
L 145.96117 50.705006 
L 147.029157 50.121912 
L 148.097145 49.538817 
L 149.165132 48.955722 
L 150.23312 48.372628 
L 151.301107 47.789533 
L 152.369095 47.206438 
L 153.437083 46.623344 
L 154.50507 46.040249 
L 155.573058 45.457155 
L 156.641045 44.87406 
L 157.709033 44.290965 
L 158.77702 43.707871 
L 159.845008 43.124776 
L 160.912995 42.541681 
L 161.980983 41.958587 
L 163.04897 41.375492 
L 164.116958 40.792397 
L 165.184946 40.209303 
L 166.252933 39.626208 
L 167.320921 39.043113 
L 168.388908 38.460019 
L 169.456896 37.876924 
L 170.524883 37.29383 
L 171.592871 36.710735 
L 172.660858 36.12764 
L 173.728846 35.544546 
L 174.796834 34.961451 
" clip-path="url(#pcccd0e644e)" style="fill: none; stroke: #000000; stroke-width: 1.5; stroke-linecap: square"/>
   </g>
   <g id="patch_3">
    <path d="M 63.779528 99.212598 
L 63.779528 17.007874 
" style="fill: none; stroke: #000000; stroke-width: 0.8; stroke-linejoin: miter; stroke-linecap: square"/>
   </g>
   <g id="patch_4">
    <path d="M 63.779528 99.212598 
L 180.083372 99.212598 
" style="fill: none; stroke: #000000; stroke-width: 0.8; stroke-linejoin: miter; stroke-linecap: square"/>
   </g>
   <g id="text_8">
    <!-- Paw Drags -->
    <g transform="translate(96.483012 11.007874) scale(0.12 -0.12)">
     <defs>
      <path id="Calibri-50" d="M 3022 2859 
Q 3022 2556 2922 2312 
Q 2822 2069 2636 1897 
Q 2450 1725 2179 1631 
Q 1909 1538 1534 1538 
L 1075 1538 
L 1075 81 
Q 1075 56 1061 37 
Q 1047 19 1017 8 
Q 988 -3 936 -11 
Q 884 -19 806 -19 
Q 728 -19 676 -11 
Q 625 -3 594 8 
Q 563 19 550 37 
Q 538 56 538 81 
L 538 3813 
Q 538 3938 603 3991 
Q 669 4044 750 4044 
L 1616 4044 
Q 1747 4044 1867 4033 
Q 1988 4022 2152 3986 
Q 2316 3950 2486 3851 
Q 2656 3753 2775 3609 
Q 2894 3466 2958 3277 
Q 3022 3088 3022 2859 
z
M 2456 2816 
Q 2456 3063 2364 3228 
Q 2272 3394 2136 3475 
Q 2000 3556 1854 3578 
Q 1709 3600 1572 3600 
L 1075 3600 
L 1075 1978 
L 1559 1978 
Q 1803 1978 1964 2040 
Q 2125 2103 2234 2214 
Q 2344 2325 2400 2479 
Q 2456 2634 2456 2816 
z
" transform="scale(0.015625)"/>
      <path id="Calibri-77" d="M 4413 2897 
Q 4413 2875 4406 2844 
Q 4400 2813 4384 2766 
L 3556 94 
Q 3547 59 3526 37 
Q 3506 16 3470 3 
Q 3434 -9 3371 -14 
Q 3309 -19 3216 -19 
Q 3119 -19 3053 -12 
Q 2988 -6 2948 6 
Q 2909 19 2890 41 
Q 2872 63 2863 94 
L 2272 2134 
L 2266 2163 
L 2259 2134 
L 1713 94 
Q 1703 59 1683 37 
Q 1663 16 1622 3 
Q 1581 -9 1517 -14 
Q 1453 -19 1359 -19 
Q 1263 -19 1202 -12 
Q 1141 -6 1102 6 
Q 1063 19 1044 41 
Q 1025 63 1016 94 
L 194 2766 
Q 178 2813 172 2844 
Q 166 2875 166 2897 
Q 166 2925 178 2942 
Q 191 2959 220 2970 
Q 250 2981 300 2984 
Q 350 2988 422 2988 
Q 509 2988 562 2983 
Q 616 2978 644 2967 
Q 672 2956 684 2936 
Q 697 2916 706 2888 
L 1384 569 
L 1391 541 
L 1397 569 
L 2019 2888 
Q 2025 2916 2039 2936 
Q 2053 2956 2081 2967 
Q 2109 2978 2157 2983 
Q 2206 2988 2284 2988 
Q 2359 2988 2407 2983 
Q 2456 2978 2484 2967 
Q 2513 2956 2525 2937 
Q 2538 2919 2544 2894 
L 3216 569 
L 3222 541 
L 3225 569 
L 3894 2888 
Q 3900 2916 3914 2936 
Q 3928 2956 3958 2967 
Q 3988 2978 4039 2983 
Q 4091 2988 4172 2988 
Q 4247 2988 4292 2984 
Q 4338 2981 4364 2968 
Q 4391 2956 4402 2940 
Q 4413 2925 4413 2897 
z
" transform="scale(0.015625)"/>
      <path id="Calibri-44" d="M 3647 2081 
Q 3647 1556 3512 1164 
Q 3378 772 3120 514 
Q 2863 256 2488 128 
Q 2113 0 1594 0 
L 738 0 
Q 666 0 602 48 
Q 538 97 538 219 
L 538 3825 
Q 538 3947 602 3995 
Q 666 4044 738 4044 
L 1653 4044 
Q 2178 4044 2540 3908 
Q 2903 3772 3148 3517 
Q 3394 3263 3520 2900 
Q 3647 2538 3647 2081 
z
M 3081 2059 
Q 3081 2388 3000 2670 
Q 2919 2953 2745 3159 
Q 2572 3366 2306 3481 
Q 2041 3597 1622 3597 
L 1075 3597 
L 1075 450 
L 1628 450 
Q 2016 450 2281 547 
Q 2547 644 2725 844 
Q 2903 1044 2992 1345 
Q 3081 1647 3081 2059 
z
" transform="scale(0.015625)"/>
     </defs>
     <use xlink:href="#Calibri-50"/>
     <use xlink:href="#Calibri-61" x="51.660156"/>
     <use xlink:href="#Calibri-77" x="99.560547"/>
     <use xlink:href="#Calibri-20" x="171.044922"/>
     <use xlink:href="#Calibri-44" x="193.652344"/>
     <use xlink:href="#Calibri-72" x="255.175781"/>
     <use xlink:href="#Calibri-61" x="290.039062"/>
     <use xlink:href="#Calibri-67" x="337.939453"/>
     <use xlink:href="#Calibri-73" x="385.009766"/>
    </g>
   </g>
  </g>
  <g id="axes_2">
   <g id="patch_5">
    <path d="M 203.344141 99.212598 
L 319.647985 99.212598 
L 319.647985 17.007874 
L 203.344141 17.007874 
z
" style="fill: #ffffff"/>
   </g>
   <g id="PathCollection_3">
    <g clip-path="url(#p70d2fa78cf)">
     <use xlink:href="#me00c2ad450" x="245.691116" y="81.499134" style="fill: #0000ff; fill-opacity: 0.6; stroke: #0000ff; stroke-opacity: 0.6"/>
     <use xlink:href="#me00c2ad450" x="238.015422" y="64.000212" style="fill: #0000ff; fill-opacity: 0.6; stroke: #0000ff; stroke-opacity: 0.6"/>
     <use xlink:href="#me00c2ad450" x="246.830182" y="68.291768" style="fill: #0000ff; fill-opacity: 0.6; stroke: #0000ff; stroke-opacity: 0.6"/>
     <use xlink:href="#me00c2ad450" x="232.505369" y="73.687645" style="fill: #0000ff; fill-opacity: 0.6; stroke: #0000ff; stroke-opacity: 0.6"/>
     <use xlink:href="#me00c2ad450" x="246.148048" y="68.212596" style="fill: #0000ff; fill-opacity: 0.6; stroke: #0000ff; stroke-opacity: 0.6"/>
     <use xlink:href="#me00c2ad450" x="238.733802" y="69.222394" style="fill: #0000ff; fill-opacity: 0.6; stroke: #0000ff; stroke-opacity: 0.6"/>
     <use xlink:href="#me00c2ad450" x="240.690976" y="73.998187" style="fill: #0000ff; fill-opacity: 0.6; stroke: #0000ff; stroke-opacity: 0.6"/>
     <use xlink:href="#me00c2ad450" x="265.136431" y="67.161496" style="fill: #0000ff; fill-opacity: 0.6; stroke: #0000ff; stroke-opacity: 0.6"/>
     <use xlink:href="#me00c2ad450" x="246.319694" y="67.499908" style="fill: #0000ff; fill-opacity: 0.6; stroke: #0000ff; stroke-opacity: 0.6"/>
     <use xlink:href="#me00c2ad450" x="238.259906" y="77.012697" style="fill: #0000ff; fill-opacity: 0.6; stroke: #0000ff; stroke-opacity: 0.6"/>
     <use xlink:href="#me00c2ad450" x="250.659481" y="76.178948" style="fill: #0000ff; fill-opacity: 0.6; stroke: #0000ff; stroke-opacity: 0.6"/>
     <use xlink:href="#me00c2ad450" x="228.412565" y="82.595145" style="fill: #0000ff; fill-opacity: 0.6; stroke: #0000ff; stroke-opacity: 0.6"/>
     <use xlink:href="#me00c2ad450" x="272.041298" y="60.655968" style="fill: #0000ff; fill-opacity: 0.6; stroke: #0000ff; stroke-opacity: 0.6"/>
     <use xlink:href="#me00c2ad450" x="250.186489" y="74.167852" style="fill: #0000ff; fill-opacity: 0.6; stroke: #0000ff; stroke-opacity: 0.6"/>
     <use xlink:href="#me00c2ad450" x="263.803281" y="55.631525" style="fill: #0000ff; fill-opacity: 0.6; stroke: #0000ff; stroke-opacity: 0.6"/>
     <use xlink:href="#me00c2ad450" x="249.878332" y="63.291087" style="fill: #0000ff; fill-opacity: 0.6; stroke: #0000ff; stroke-opacity: 0.6"/>
     <use xlink:href="#me00c2ad450" x="270.022738" y="92.571248" style="fill: #0000ff; fill-opacity: 0.6; stroke: #0000ff; stroke-opacity: 0.6"/>
     <use xlink:href="#me00c2ad450" x="218.862689" y="80.079632" style="fill: #0000ff; fill-opacity: 0.6; stroke: #0000ff; stroke-opacity: 0.6"/>
     <use xlink:href="#me00c2ad450" x="208.630679" y="89.448344" style="fill: #0000ff; fill-opacity: 0.6; stroke: #0000ff; stroke-opacity: 0.6"/>
     <use xlink:href="#me00c2ad450" x="280.254748" y="58.219302" style="fill: #0000ff; fill-opacity: 0.6; stroke: #0000ff; stroke-opacity: 0.6"/>
     <use xlink:href="#me00c2ad450" x="314.361447" y="20.744452" style="fill: #0000ff; fill-opacity: 0.6; stroke: #0000ff; stroke-opacity: 0.6"/>
     <use xlink:href="#me00c2ad450" x="215.452019" y="83.202536" style="fill: #0000ff; fill-opacity: 0.6; stroke: #0000ff; stroke-opacity: 0.6"/>
     <use xlink:href="#me00c2ad450" x="239.326708" y="67.588015" style="fill: #0000ff; fill-opacity: 0.6; stroke: #0000ff; stroke-opacity: 0.6"/>
     <use xlink:href="#me00c2ad450" x="242.737378" y="83.202536" style="fill: #0000ff; fill-opacity: 0.6; stroke: #0000ff; stroke-opacity: 0.6"/>
     <use xlink:href="#me00c2ad450" x="239.326708" y="76.956728" style="fill: #0000ff; fill-opacity: 0.6; stroke: #0000ff; stroke-opacity: 0.6"/>
     <use xlink:href="#me00c2ad450" x="260.945829" y="63.291087" style="fill: #0000ff; fill-opacity: 0.6; stroke: #0000ff; stroke-opacity: 0.6"/>
     <use xlink:href="#me00c2ad450" x="271.833656" y="48.37573" style="fill: #0000ff; fill-opacity: 0.6; stroke: #0000ff; stroke-opacity: 0.6"/>
     <use xlink:href="#me00c2ad450" x="225.73642" y="90.72437" style="fill: #0000ff; fill-opacity: 0.6; stroke: #0000ff; stroke-opacity: 0.6"/>
     <use xlink:href="#me00c2ad450" x="276.293058" y="70.25894" style="fill: #0000ff; fill-opacity: 0.6; stroke: #0000ff; stroke-opacity: 0.6"/>
     <use xlink:href="#me00c2ad450" x="232.476186" y="79.455051" style="fill: #0000ff; fill-opacity: 0.6; stroke: #0000ff; stroke-opacity: 0.6"/>
     <use xlink:href="#me00c2ad450" x="224.319761" y="75.707566" style="fill: #0000ff; fill-opacity: 0.6; stroke: #0000ff; stroke-opacity: 0.6"/>
     <use xlink:href="#me00c2ad450" x="271.809279" y="68.034144" style="fill: #0000ff; fill-opacity: 0.6; stroke: #0000ff; stroke-opacity: 0.6"/>
     <use xlink:href="#me00c2ad450" x="278.608217" y="87.436982" style="fill: #0000ff; fill-opacity: 0.6; stroke: #0000ff; stroke-opacity: 0.6"/>
     <use xlink:href="#me00c2ad450" x="308.07164" y="32.067068" style="fill: #0000ff; fill-opacity: 0.6; stroke: #0000ff; stroke-opacity: 0.6"/>
     <use xlink:href="#me00c2ad450" x="306.175839" y="53.911848" style="fill: #0000ff; fill-opacity: 0.6; stroke: #0000ff; stroke-opacity: 0.6"/>
     <use xlink:href="#me00c2ad450" x="291.765955" y="81.273592" style="fill: #0000ff; fill-opacity: 0.6; stroke: #0000ff; stroke-opacity: 0.6"/>
     <use xlink:href="#me00c2ad450" x="297.511951" y="49.620188" style="fill: #0000ff; fill-opacity: 0.6; stroke: #0000ff; stroke-opacity: 0.6"/>
     <use xlink:href="#me00c2ad450" x="298.569084" y="37.554814" style="fill: #0000ff; fill-opacity: 0.6; stroke: #0000ff; stroke-opacity: 0.6"/>
     <use xlink:href="#me00c2ad450" x="264.816978" y="75.598943" style="fill: #0000ff; fill-opacity: 0.6; stroke: #0000ff; stroke-opacity: 0.6"/>
     <use xlink:href="#me00c2ad450" x="279.939916" y="82.48384" style="fill: #0000ff; fill-opacity: 0.6; stroke: #0000ff; stroke-opacity: 0.6"/>
    </g>
   </g>
   <g id="PathCollection_4">
    <defs>
     <path id="m4fd7e5b232" d="M -3.162278 3.162278 
L 3.162278 -3.162278 
M -3.162278 -3.162278 
L 3.162278 3.162278 
" style="stroke: #ff0000; stroke-opacity: 0.5; stroke-width: 1.5"/>
    </defs>
    <g clip-path="url(#p70d2fa78cf)">
     <use xlink:href="#m4fd7e5b232" x="270.022738" y="92.571248" style="fill: #ff0000; fill-opacity: 0.5; stroke: #ff0000; stroke-opacity: 0.5; stroke-width: 1.5"/>
     <use xlink:href="#m4fd7e5b232" x="278.608217" y="87.436982" style="fill: #ff0000; fill-opacity: 0.5; stroke: #ff0000; stroke-opacity: 0.5; stroke-width: 1.5"/>
     <use xlink:href="#m4fd7e5b232" x="306.175839" y="53.911848" style="fill: #ff0000; fill-opacity: 0.5; stroke: #ff0000; stroke-opacity: 0.5; stroke-width: 1.5"/>
     <use xlink:href="#m4fd7e5b232" x="291.765955" y="81.273592" style="fill: #ff0000; fill-opacity: 0.5; stroke: #ff0000; stroke-opacity: 0.5; stroke-width: 1.5"/>
     <use xlink:href="#m4fd7e5b232" x="279.939916" y="82.48384" style="fill: #ff0000; fill-opacity: 0.5; stroke: #ff0000; stroke-opacity: 0.5; stroke-width: 1.5"/>
    </g>
   </g>
   <g id="matplotlib.axis_3">
    <g id="xtick_4">
     <g id="line2d_9">
      <g>
       <use xlink:href="#m5e7e183d65" x="205.220009" y="99.212598" style="stroke: #000000; stroke-width: 0.8"/>
      </g>
     </g>
     <g id="text_9">
      <!-- 0 -->
      <g transform="translate(202.178759 114.374473) scale(0.12 -0.12)">
       <use xlink:href="#Calibri-30"/>
      </g>
     </g>
    </g>
    <g id="xtick_5">
     <g id="line2d_10">
      <g>
       <use xlink:href="#m5e7e183d65" x="237.962441" y="99.212598" style="stroke: #000000; stroke-width: 0.8"/>
      </g>
     </g>
     <g id="text_10">
      <!-- 8 -->
      <g transform="translate(234.921191 114.374473) scale(0.12 -0.12)">
       <defs>
        <path id="Calibri-38" d="M 2981 1038 
Q 2981 775 2887 570 
Q 2794 366 2617 225 
Q 2441 84 2181 12 
Q 1922 -59 1588 -59 
Q 1275 -59 1028 6 
Q 781 72 609 200 
Q 438 328 347 515 
Q 256 703 256 944 
Q 256 1134 318 1293 
Q 381 1453 498 1587 
Q 616 1722 787 1839 
Q 959 1956 1175 2063 
Q 988 2159 844 2267 
Q 700 2375 600 2501 
Q 500 2628 448 2772 
Q 397 2916 397 3084 
Q 397 3297 473 3483 
Q 550 3669 704 3806 
Q 859 3944 1098 4023 
Q 1338 4103 1656 4103 
Q 1963 4103 2186 4029 
Q 2409 3956 2554 3829 
Q 2700 3703 2769 3531 
Q 2838 3359 2838 3163 
Q 2838 3003 2786 2856 
Q 2734 2709 2634 2578 
Q 2534 2447 2389 2333 
Q 2244 2219 2056 2119 
Q 2278 2009 2451 1893 
Q 2625 1778 2742 1645 
Q 2859 1513 2920 1364 
Q 2981 1216 2981 1038 
z
M 2306 3113 
Q 2306 3244 2261 3350 
Q 2216 3456 2128 3531 
Q 2041 3606 1911 3645 
Q 1781 3684 1616 3684 
Q 1278 3684 1104 3531 
Q 931 3378 931 3113 
Q 931 2991 973 2886 
Q 1016 2781 1105 2687 
Q 1194 2594 1330 2505 
Q 1466 2416 1653 2319 
Q 1969 2481 2137 2678 
Q 2306 2875 2306 3113 
z
M 2438 981 
Q 2438 1125 2384 1242 
Q 2331 1359 2223 1461 
Q 2116 1563 1955 1658 
Q 1794 1753 1581 1856 
Q 1384 1759 1236 1662 
Q 1088 1566 992 1462 
Q 897 1359 848 1245 
Q 800 1131 800 994 
Q 800 691 1008 525 
Q 1216 359 1628 359 
Q 2028 359 2233 526 
Q 2438 694 2438 981 
z
" transform="scale(0.015625)"/>
       </defs>
       <use xlink:href="#Calibri-38"/>
      </g>
     </g>
    </g>
    <g id="xtick_6">
     <g id="line2d_11">
      <g>
       <use xlink:href="#m5e7e183d65" x="270.704872" y="99.212598" style="stroke: #000000; stroke-width: 0.8"/>
      </g>
     </g>
     <g id="text_11">
      <!-- 16 -->
      <g transform="translate(264.622372 114.374473) scale(0.12 -0.12)">
       <defs>
        <path id="Calibri-31" d="M 2897 213 
Q 2897 153 2887 112 
Q 2878 72 2862 47 
Q 2847 22 2826 11 
Q 2806 0 2784 0 
L 672 0 
Q 650 0 631 11 
Q 613 22 595 47 
Q 578 72 568 112 
Q 559 153 559 213 
Q 559 269 568 309 
Q 578 350 592 376 
Q 606 403 626 417 
Q 647 431 672 431 
L 1516 431 
L 1516 3506 
L 734 3041 
Q 675 3009 639 3003 
Q 603 2997 581 3017 
Q 559 3038 551 3084 
Q 544 3131 544 3203 
Q 544 3256 548 3293 
Q 553 3331 562 3356 
Q 572 3381 589 3400 
Q 606 3419 634 3438 
L 1566 4034 
Q 1578 4044 1597 4050 
Q 1616 4056 1644 4062 
Q 1672 4069 1709 4070 
Q 1747 4072 1803 4072 
Q 1878 4072 1928 4065 
Q 1978 4059 2006 4048 
Q 2034 4038 2043 4020 
Q 2053 4003 2053 3984 
L 2053 431 
L 2784 431 
Q 2809 431 2831 417 
Q 2853 403 2867 376 
Q 2881 350 2889 309 
Q 2897 269 2897 213 
z
" transform="scale(0.015625)"/>
        <path id="Calibri-36" d="M 2991 1309 
Q 2991 1044 2909 795 
Q 2828 547 2659 358 
Q 2491 169 2231 55 
Q 1972 -59 1619 -59 
Q 1366 -59 1172 3 
Q 978 66 834 181 
Q 691 297 595 465 
Q 500 634 442 850 
Q 384 1066 359 1322 
Q 334 1578 334 1872 
Q 334 2131 362 2397 
Q 391 2663 462 2909 
Q 534 3156 657 3373 
Q 781 3591 967 3752 
Q 1153 3913 1412 4006 
Q 1672 4100 2016 4100 
Q 2131 4100 2250 4086 
Q 2369 4072 2469 4048 
Q 2569 4025 2637 3997 
Q 2706 3969 2728 3951 
Q 2750 3934 2761 3914 
Q 2772 3894 2778 3870 
Q 2784 3847 2787 3817 
Q 2791 3788 2791 3744 
Q 2791 3688 2789 3647 
Q 2788 3606 2777 3581 
Q 2766 3556 2748 3543 
Q 2731 3531 2703 3531 
Q 2669 3531 2609 3553 
Q 2550 3575 2465 3601 
Q 2381 3628 2261 3650 
Q 2141 3672 1981 3672 
Q 1691 3672 1481 3553 
Q 1272 3434 1139 3234 
Q 1006 3034 942 2770 
Q 878 2506 869 2219 
Q 950 2266 1051 2312 
Q 1153 2359 1273 2396 
Q 1394 2434 1528 2457 
Q 1663 2481 1816 2481 
Q 2144 2481 2369 2392 
Q 2594 2303 2733 2145 
Q 2872 1988 2931 1773 
Q 2991 1559 2991 1309 
z
M 2447 1259 
Q 2447 1441 2411 1589 
Q 2375 1738 2290 1841 
Q 2206 1944 2065 2000 
Q 1925 2056 1719 2056 
Q 1603 2056 1487 2036 
Q 1372 2016 1264 1980 
Q 1156 1944 1057 1895 
Q 959 1847 878 1791 
Q 878 1388 929 1116 
Q 981 844 1079 680 
Q 1178 516 1325 445 
Q 1472 375 1669 375 
Q 1869 375 2016 450 
Q 2163 525 2259 651 
Q 2356 778 2401 936 
Q 2447 1094 2447 1259 
z
" transform="scale(0.015625)"/>
       </defs>
       <use xlink:href="#Calibri-31"/>
       <use xlink:href="#Calibri-36" x="50.683594"/>
      </g>
     </g>
    </g>
    <g id="xtick_7">
     <g id="line2d_12">
      <g>
       <use xlink:href="#m5e7e183d65" x="303.447303" y="99.212598" style="stroke: #000000; stroke-width: 0.8"/>
      </g>
     </g>
     <g id="text_12">
      <!-- 24 -->
      <g transform="translate(297.364803 114.374473) scale(0.12 -0.12)">
       <use xlink:href="#Calibri-32"/>
       <use xlink:href="#Calibri-34" x="50.683594"/>
      </g>
     </g>
    </g>
   </g>
   <g id="matplotlib.axis_4">
    <g id="ytick_4">
     <g id="line2d_13">
      <g>
       <use xlink:href="#mb0a5589d49" x="203.344141" y="95.694153" style="stroke: #000000; stroke-width: 0.8"/>
      </g>
     </g>
     <g id="text_13">
      <!-- 0 -->
      <g transform="translate(190.261641 99.77509) scale(0.12 -0.12)">
       <use xlink:href="#Calibri-30"/>
      </g>
     </g>
    </g>
    <g id="ytick_5">
     <g id="line2d_14">
      <g>
       <use xlink:href="#mb0a5589d49" x="203.344141" y="73.209243" style="stroke: #000000; stroke-width: 0.8"/>
      </g>
     </g>
     <g id="text_14">
      <!-- 6 -->
      <g transform="translate(190.261641 77.29018) scale(0.12 -0.12)">
       <use xlink:href="#Calibri-36"/>
      </g>
     </g>
    </g>
    <g id="ytick_6">
     <g id="line2d_15">
      <g>
       <use xlink:href="#mb0a5589d49" x="203.344141" y="50.724332" style="stroke: #000000; stroke-width: 0.8"/>
      </g>
     </g>
     <g id="text_15">
      <!-- 12 -->
      <g transform="translate(184.179141 54.80527) scale(0.12 -0.12)">
       <use xlink:href="#Calibri-31"/>
       <use xlink:href="#Calibri-32" x="50.683594"/>
      </g>
     </g>
    </g>
    <g id="ytick_7">
     <g id="line2d_16">
      <g>
       <use xlink:href="#mb0a5589d49" x="203.344141" y="28.239422" style="stroke: #000000; stroke-width: 0.8"/>
      </g>
     </g>
     <g id="text_16">
      <!-- 18 -->
      <g transform="translate(184.179141 32.32036) scale(0.12 -0.12)">
       <use xlink:href="#Calibri-31"/>
       <use xlink:href="#Calibri-38" x="50.683594"/>
      </g>
     </g>
    </g>
   </g>
   <g id="line2d_17">
    <path d="M 208.630679 95.391278 
L 209.698667 94.706763 
L 210.766654 94.022247 
L 211.834642 93.337732 
L 212.902629 92.653216 
L 213.970617 91.968701 
L 215.038604 91.284186 
L 216.106592 90.59967 
L 217.17458 89.915155 
L 218.242567 89.23064 
L 219.310555 88.546124 
L 220.378542 87.861609 
L 221.44653 87.177094 
L 222.514517 86.492578 
L 223.582505 85.808063 
L 224.650492 85.123548 
L 225.71848 84.439032 
L 226.786468 83.754517 
L 227.854455 83.070001 
L 228.922443 82.385486 
L 229.99043 81.700971 
L 231.058418 81.016455 
L 232.126405 80.33194 
L 233.194393 79.647425 
L 234.26238 78.962909 
L 235.330368 78.278394 
L 236.398356 77.593879 
L 237.466343 76.909363 
L 238.534331 76.224848 
L 239.602318 75.540333 
L 240.670306 74.855817 
L 241.738293 74.171302 
L 242.806281 73.486786 
L 243.874268 72.802271 
L 244.942256 72.117756 
L 246.010243 71.43324 
L 247.078231 70.748725 
L 248.146219 70.06421 
L 249.214206 69.379694 
L 250.282194 68.695179 
L 251.350181 68.010664 
L 252.418169 67.326148 
L 253.486156 66.641633 
L 254.554144 65.957117 
L 255.622131 65.272602 
L 256.690119 64.588087 
L 257.758107 63.903571 
L 258.826094 63.219056 
L 259.894082 62.534541 
L 260.962069 61.850025 
L 262.030057 61.16551 
L 263.098044 60.480995 
L 264.166032 59.796479 
L 265.234019 59.111964 
L 266.302007 58.427449 
L 267.369995 57.742933 
L 268.437982 57.058418 
L 269.50597 56.373902 
L 270.573957 55.689387 
L 271.641945 55.004872 
L 272.709932 54.320356 
L 273.77792 53.635841 
L 274.845907 52.951326 
L 275.913895 52.26681 
L 276.981882 51.582295 
L 278.04987 50.89778 
L 279.117858 50.213264 
L 280.185845 49.528749 
L 281.253833 48.844234 
L 282.32182 48.159718 
L 283.389808 47.475203 
L 284.457795 46.790687 
L 285.525783 46.106172 
L 286.59377 45.421657 
L 287.661758 44.737141 
L 288.729746 44.052626 
L 289.797733 43.368111 
L 290.865721 42.683595 
L 291.933708 41.99908 
L 293.001696 41.314565 
L 294.069683 40.630049 
L 295.137671 39.945534 
L 296.205658 39.261018 
L 297.273646 38.576503 
L 298.341634 37.891988 
L 299.409621 37.207472 
L 300.477609 36.522957 
L 301.545596 35.838442 
L 302.613584 35.153926 
L 303.681571 34.469411 
L 304.749559 33.784896 
L 305.817546 33.10038 
L 306.885534 32.415865 
L 307.953521 31.73135 
L 309.021509 31.046834 
L 310.089497 30.362319 
L 311.157484 29.677803 
L 312.225472 28.993288 
L 313.293459 28.308773 
L 314.361447 27.624257 
" clip-path="url(#p70d2fa78cf)" style="fill: none; stroke-dasharray: 5.55,2.4; stroke-dashoffset: 0; stroke: #000000; stroke-width: 1.5"/>
   </g>
   <g id="line2d_18">
    <path d="M 208.630679 95.47602 
L 209.698667 94.81804 
L 210.766654 94.16006 
L 211.834642 93.50208 
L 212.902629 92.8441 
L 213.970617 92.18612 
L 215.038604 91.52814 
L 216.106592 90.87016 
L 217.17458 90.21218 
L 218.242567 89.554201 
L 219.310555 88.896221 
L 220.378542 88.238241 
L 221.44653 87.580261 
L 222.514517 86.922281 
L 223.582505 86.264301 
L 224.650492 85.606321 
L 225.71848 84.948341 
L 226.786468 84.290361 
L 227.854455 83.632381 
L 228.922443 82.974401 
L 229.99043 82.316421 
L 231.058418 81.658441 
L 232.126405 81.000461 
L 233.194393 80.342481 
L 234.26238 79.684501 
L 235.330368 79.026521 
L 236.398356 78.368541 
L 237.466343 77.710561 
L 238.534331 77.052582 
L 239.602318 76.394602 
L 240.670306 75.736622 
L 241.738293 75.078642 
L 242.806281 74.420662 
L 243.874268 73.762682 
L 244.942256 73.104702 
L 246.010243 72.446722 
L 247.078231 71.788742 
L 248.146219 71.130762 
L 249.214206 70.472782 
L 250.282194 69.814802 
L 251.350181 69.156822 
L 252.418169 68.498842 
L 253.486156 67.840862 
L 254.554144 67.182882 
L 255.622131 66.524902 
L 256.690119 65.866922 
L 257.758107 65.208942 
L 258.826094 64.550963 
L 259.894082 63.892983 
L 260.962069 63.235003 
L 262.030057 62.577023 
L 263.098044 61.919043 
L 264.166032 61.261063 
L 265.234019 60.603083 
L 266.302007 59.945103 
L 267.369995 59.287123 
L 268.437982 58.629143 
L 269.50597 57.971163 
L 270.573957 57.313183 
L 271.641945 56.655203 
L 272.709932 55.997223 
L 273.77792 55.339243 
L 274.845907 54.681263 
L 275.913895 54.023283 
L 276.981882 53.365303 
L 278.04987 52.707324 
L 279.117858 52.049344 
L 280.185845 51.391364 
L 281.253833 50.733384 
L 282.32182 50.075404 
L 283.389808 49.417424 
L 284.457795 48.759444 
L 285.525783 48.101464 
L 286.59377 47.443484 
L 287.661758 46.785504 
L 288.729746 46.127524 
L 289.797733 45.469544 
L 290.865721 44.811564 
L 291.933708 44.153584 
L 293.001696 43.495604 
L 294.069683 42.837624 
L 295.137671 42.179644 
L 296.205658 41.521664 
L 297.273646 40.863684 
L 298.341634 40.205705 
L 299.409621 39.547725 
L 300.477609 38.889745 
L 301.545596 38.231765 
L 302.613584 37.573785 
L 303.681571 36.915805 
L 304.749559 36.257825 
L 305.817546 35.599845 
L 306.885534 34.941865 
L 307.953521 34.283885 
L 309.021509 33.625905 
L 310.089497 32.967925 
L 311.157484 32.309945 
L 312.225472 31.651965 
L 313.293459 30.993985 
L 314.361447 30.336005 
" clip-path="url(#p70d2fa78cf)" style="fill: none; stroke: #000000; stroke-width: 1.5; stroke-linecap: square"/>
   </g>
   <g id="patch_6">
    <path d="M 203.344141 99.212598 
L 203.344141 17.007874 
" style="fill: none; stroke: #000000; stroke-width: 0.8; stroke-linejoin: miter; stroke-linecap: square"/>
   </g>
   <g id="patch_7">
    <path d="M 203.344141 99.212598 
L 319.647985 99.212598 
" style="fill: none; stroke: #000000; stroke-width: 0.8; stroke-linejoin: miter; stroke-linecap: square"/>
   </g>
   <g id="text_17">
    <!-- Foot Faults -->
    <g transform="translate(234.766063 11.007874) scale(0.12 -0.12)">
     <defs>
      <path id="Calibri-46" d="M 2663 3813 
Q 2663 3753 2656 3709 
Q 2650 3666 2634 3639 
Q 2619 3613 2598 3600 
Q 2578 3588 2556 3588 
L 1075 3588 
L 1075 2213 
L 2475 2213 
Q 2497 2213 2517 2202 
Q 2538 2191 2553 2166 
Q 2569 2141 2575 2098 
Q 2581 2056 2581 1991 
Q 2581 1931 2575 1889 
Q 2569 1847 2553 1820 
Q 2538 1794 2517 1780 
Q 2497 1766 2475 1766 
L 1075 1766 
L 1075 81 
Q 1075 59 1062 39 
Q 1050 19 1019 8 
Q 988 -3 938 -11 
Q 888 -19 806 -19 
Q 731 -19 678 -11 
Q 625 -3 594 8 
Q 563 19 550 39 
Q 538 59 538 81 
L 538 3825 
Q 538 3947 602 3995 
Q 666 4044 738 4044 
L 2556 4044 
Q 2578 4044 2598 4031 
Q 2619 4019 2634 3991 
Q 2650 3963 2656 3917 
Q 2663 3872 2663 3813 
z
" transform="scale(0.015625)"/>
      <path id="Calibri-74" d="M 1941 284 
Q 1941 194 1928 141 
Q 1916 88 1891 63 
Q 1866 38 1816 16 
Q 1766 -6 1702 -20 
Q 1638 -34 1566 -43 
Q 1494 -53 1422 -53 
Q 1203 -53 1047 5 
Q 891 63 791 180 
Q 691 297 645 476 
Q 600 656 600 900 
L 600 2544 
L 206 2544 
Q 159 2544 131 2594 
Q 103 2644 103 2756 
Q 103 2816 111 2856 
Q 119 2897 131 2923 
Q 144 2950 164 2961 
Q 184 2972 209 2972 
L 600 2972 
L 600 3641 
Q 600 3663 611 3681 
Q 622 3700 651 3714 
Q 681 3728 731 3734 
Q 781 3741 856 3741 
Q 934 3741 984 3734 
Q 1034 3728 1062 3714 
Q 1091 3700 1103 3681 
Q 1116 3663 1116 3641 
L 1116 2972 
L 1838 2972 
Q 1863 2972 1881 2961 
Q 1900 2950 1914 2923 
Q 1928 2897 1934 2856 
Q 1941 2816 1941 2756 
Q 1941 2644 1912 2594 
Q 1884 2544 1838 2544 
L 1116 2544 
L 1116 975 
Q 1116 684 1202 536 
Q 1288 388 1509 388 
Q 1581 388 1637 402 
Q 1694 416 1737 431 
Q 1781 447 1812 461 
Q 1844 475 1869 475 
Q 1884 475 1898 467 
Q 1913 459 1920 437 
Q 1928 416 1934 378 
Q 1941 341 1941 284 
z
" transform="scale(0.015625)"/>
      <path id="Calibri-75" d="M 2888 78 
Q 2888 53 2877 36 
Q 2866 19 2837 6 
Q 2809 -6 2764 -12 
Q 2719 -19 2653 -19 
Q 2581 -19 2536 -12 
Q 2491 -6 2464 6 
Q 2438 19 2428 36 
Q 2419 53 2419 78 
L 2419 450 
Q 2178 184 1943 62 
Q 1709 -59 1469 -59 
Q 1188 -59 995 34 
Q 803 128 684 289 
Q 566 450 514 664 
Q 463 878 463 1184 
L 463 2891 
Q 463 2916 473 2933 
Q 484 2950 515 2964 
Q 547 2978 597 2983 
Q 647 2988 722 2988 
Q 797 2988 847 2983 
Q 897 2978 926 2964 
Q 956 2950 968 2933 
Q 981 2916 981 2891 
L 981 1253 
Q 981 1006 1017 857 
Q 1053 709 1126 604 
Q 1200 500 1312 442 
Q 1425 384 1575 384 
Q 1769 384 1961 521 
Q 2153 659 2369 925 
L 2369 2891 
Q 2369 2916 2380 2933 
Q 2391 2950 2422 2964 
Q 2453 2978 2501 2983 
Q 2550 2988 2628 2988 
Q 2703 2988 2753 2983 
Q 2803 2978 2831 2964 
Q 2859 2950 2873 2933 
Q 2888 2916 2888 2891 
L 2888 78 
z
" transform="scale(0.015625)"/>
      <path id="Calibri-6c" d="M 994 78 
Q 994 53 981 36 
Q 969 19 941 6 
Q 913 -6 863 -12 
Q 813 -19 734 -19 
Q 659 -19 609 -12 
Q 559 -6 529 6 
Q 500 19 489 36 
Q 478 53 478 78 
L 478 4253 
Q 478 4278 489 4297 
Q 500 4316 529 4328 
Q 559 4341 609 4347 
Q 659 4353 734 4353 
Q 813 4353 863 4347 
Q 913 4341 941 4328 
Q 969 4316 981 4297 
Q 994 4278 994 4253 
L 994 78 
z
" transform="scale(0.015625)"/>
     </defs>
     <use xlink:href="#Calibri-46"/>
     <use xlink:href="#Calibri-6f" x="44.572266"/>
     <use xlink:href="#Calibri-6f" x="97.306641"/>
     <use xlink:href="#Calibri-74" x="150.041016"/>
     <use xlink:href="#Calibri-20" x="183.537109"/>
     <use xlink:href="#Calibri-46" x="206.144531"/>
     <use xlink:href="#Calibri-61" x="249.466797"/>
     <use xlink:href="#Calibri-75" x="297.367188"/>
     <use xlink:href="#Calibri-6c" x="349.90625"/>
     <use xlink:href="#Calibri-74" x="372.855469"/>
     <use xlink:href="#Calibri-73" x="406.351562"/>
    </g>
   </g>
  </g>
  <g id="axes_3">
   <g id="patch_8">
    <path d="M 342.908754 99.212598 
L 459.212598 99.212598 
L 459.212598 17.007874 
L 342.908754 17.007874 
z
" style="fill: #ffffff"/>
   </g>
   <g id="PathCollection_5">
    <g clip-path="url(#pba8e930793)">
     <use xlink:href="#me00c2ad450" x="348.7816" y="83.643522" style="fill: #0000ff; fill-opacity: 0.6; stroke: #0000ff; stroke-opacity: 0.6"/>
     <use xlink:href="#me00c2ad450" x="362.852977" y="84.01718" style="fill: #0000ff; fill-opacity: 0.6; stroke: #0000ff; stroke-opacity: 0.6"/>
     <use xlink:href="#me00c2ad450" x="354.644674" y="79.906943" style="fill: #0000ff; fill-opacity: 0.6; stroke: #0000ff; stroke-opacity: 0.6"/>
     <use xlink:href="#me00c2ad450" x="349.758779" y="83.020759" style="fill: #0000ff; fill-opacity: 0.6; stroke: #0000ff; stroke-opacity: 0.6"/>
     <use xlink:href="#me00c2ad450" x="349.758779" y="88.002863" style="fill: #0000ff; fill-opacity: 0.6; stroke: #0000ff; stroke-opacity: 0.6"/>
     <use xlink:href="#me00c2ad450" x="354.644674" y="79.906943" style="fill: #0000ff; fill-opacity: 0.6; stroke: #0000ff; stroke-opacity: 0.6"/>
     <use xlink:href="#me00c2ad450" x="354.644674" y="70.565497" style="fill: #0000ff; fill-opacity: 0.6; stroke: #0000ff; stroke-opacity: 0.6"/>
     <use xlink:href="#me00c2ad450" x="447.476679" y="36.313529" style="fill: #0000ff; fill-opacity: 0.6; stroke: #0000ff; stroke-opacity: 0.6"/>
     <use xlink:href="#me00c2ad450" x="369.302359" y="70.565497" style="fill: #0000ff; fill-opacity: 0.6; stroke: #0000ff; stroke-opacity: 0.6"/>
     <use xlink:href="#me00c2ad450" x="414.8389" y="44.658554" style="fill: #0000ff; fill-opacity: 0.6; stroke: #0000ff; stroke-opacity: 0.6"/>
     <use xlink:href="#me00c2ad450" x="375.75174" y="66.455261" style="fill: #0000ff; fill-opacity: 0.6; stroke: #0000ff; stroke-opacity: 0.6"/>
     <use xlink:href="#me00c2ad450" x="408.389519" y="48.76879" style="fill: #0000ff; fill-opacity: 0.6; stroke: #0000ff; stroke-opacity: 0.6"/>
     <use xlink:href="#me00c2ad450" x="374.188254" y="61.224052" style="fill: #0000ff; fill-opacity: 0.6; stroke: #0000ff; stroke-opacity: 0.6"/>
     <use xlink:href="#me00c2ad450" x="388.845939" y="52.879026" style="fill: #0000ff; fill-opacity: 0.6; stroke: #0000ff; stroke-opacity: 0.6"/>
     <use xlink:href="#me00c2ad450" x="398.617729" y="48.76879" style="fill: #0000ff; fill-opacity: 0.6; stroke: #0000ff; stroke-opacity: 0.6"/>
     <use xlink:href="#me00c2ad450" x="375.165433" y="60.601288" style="fill: #0000ff; fill-opacity: 0.6; stroke: #0000ff; stroke-opacity: 0.6"/>
     <use xlink:href="#me00c2ad450" x="364.416464" y="73.679313" style="fill: #0000ff; fill-opacity: 0.6; stroke: #0000ff; stroke-opacity: 0.6"/>
     <use xlink:href="#me00c2ad450" x="349.758779" y="83.020759" style="fill: #0000ff; fill-opacity: 0.6; stroke: #0000ff; stroke-opacity: 0.6"/>
     <use xlink:href="#me00c2ad450" x="354.644674" y="79.906943" style="fill: #0000ff; fill-opacity: 0.6; stroke: #0000ff; stroke-opacity: 0.6"/>
     <use xlink:href="#me00c2ad450" x="359.530569" y="83.020759" style="fill: #0000ff; fill-opacity: 0.6; stroke: #0000ff; stroke-opacity: 0.6"/>
     <use xlink:href="#me00c2ad450" x="383.960044" y="61.224052" style="fill: #0000ff; fill-opacity: 0.6; stroke: #0000ff; stroke-opacity: 0.6"/>
     <use xlink:href="#me00c2ad450" x="348.195292" y="79.906943" style="fill: #0000ff; fill-opacity: 0.6; stroke: #0000ff; stroke-opacity: 0.6"/>
     <use xlink:href="#me00c2ad450" x="354.644674" y="76.793128" style="fill: #0000ff; fill-opacity: 0.6; stroke: #0000ff; stroke-opacity: 0.6"/>
     <use xlink:href="#me00c2ad450" x="354.644674" y="89.248389" style="fill: #0000ff; fill-opacity: 0.6; stroke: #0000ff; stroke-opacity: 0.6"/>
     <use xlink:href="#me00c2ad450" x="369.302359" y="67.451682" style="fill: #0000ff; fill-opacity: 0.6; stroke: #0000ff; stroke-opacity: 0.6"/>
     <use xlink:href="#me00c2ad450" x="401.940137" y="53.875447" style="fill: #0000ff; fill-opacity: 0.6; stroke: #0000ff; stroke-opacity: 0.6"/>
     <use xlink:href="#me00c2ad450" x="369.302359" y="74.675734" style="fill: #0000ff; fill-opacity: 0.6; stroke: #0000ff; stroke-opacity: 0.6"/>
     <use xlink:href="#me00c2ad450" x="382.396557" y="70.565497" style="fill: #0000ff; fill-opacity: 0.6; stroke: #0000ff; stroke-opacity: 0.6"/>
     <use xlink:href="#me00c2ad450" x="453.92606" y="20.744452" style="fill: #0000ff; fill-opacity: 0.6; stroke: #0000ff; stroke-opacity: 0.6"/>
     <use xlink:href="#me00c2ad450" x="349.758779" y="87.130995" style="fill: #0000ff; fill-opacity: 0.6; stroke: #0000ff; stroke-opacity: 0.6"/>
     <use xlink:href="#me00c2ad450" x="349.758779" y="89.248389" style="fill: #0000ff; fill-opacity: 0.6; stroke: #0000ff; stroke-opacity: 0.6"/>
     <use xlink:href="#me00c2ad450" x="421.288282" y="35.317108" style="fill: #0000ff; fill-opacity: 0.6; stroke: #0000ff; stroke-opacity: 0.6"/>
     <use xlink:href="#me00c2ad450" x="349.758779" y="95.47602" style="fill: #0000ff; fill-opacity: 0.6; stroke: #0000ff; stroke-opacity: 0.6"/>
     <use xlink:href="#me00c2ad450" x="398.617729" y="39.427344" style="fill: #0000ff; fill-opacity: 0.6; stroke: #0000ff; stroke-opacity: 0.6"/>
     <use xlink:href="#me00c2ad450" x="392.168347" y="55.992842" style="fill: #0000ff; fill-opacity: 0.6; stroke: #0000ff; stroke-opacity: 0.6"/>
     <use xlink:href="#me00c2ad450" x="375.75174" y="62.345025" style="fill: #0000ff; fill-opacity: 0.6; stroke: #0000ff; stroke-opacity: 0.6"/>
     <use xlink:href="#me00c2ad450" x="379.074149" y="64.337867" style="fill: #0000ff; fill-opacity: 0.6; stroke: #0000ff; stroke-opacity: 0.6"/>
     <use xlink:href="#me00c2ad450" x="385.52353" y="55.992842" style="fill: #0000ff; fill-opacity: 0.6; stroke: #0000ff; stroke-opacity: 0.6"/>
     <use xlink:href="#me00c2ad450" x="369.302359" y="70.565497" style="fill: #0000ff; fill-opacity: 0.6; stroke: #0000ff; stroke-opacity: 0.6"/>
     <use xlink:href="#me00c2ad450" x="383.960044" y="61.224052" style="fill: #0000ff; fill-opacity: 0.6; stroke: #0000ff; stroke-opacity: 0.6"/>
    </g>
   </g>
   <g id="PathCollection_6">
    <g clip-path="url(#pba8e930793)">
     <use xlink:href="#m4fd7e5b232" x="349.758779" y="95.47602" style="fill: #ff0000; fill-opacity: 0.5; stroke: #ff0000; stroke-opacity: 0.5; stroke-width: 1.5"/>
    </g>
   </g>
   <g id="matplotlib.axis_5">
    <g id="xtick_8">
     <g id="line2d_19">
      <g>
       <use xlink:href="#m5e7e183d65" x="349.758779" y="99.212598" style="stroke: #000000; stroke-width: 0.8"/>
      </g>
     </g>
     <g id="text_18">
      <!-- 0.0 -->
      <g transform="translate(342.161279 114.374473) scale(0.12 -0.12)">
       <defs>
        <path id="Calibri-2e" d="M 1144 341 
Q 1144 119 1070 45 
Q 997 -28 803 -28 
Q 616 -28 544 44 
Q 472 116 472 331 
Q 472 553 545 626 
Q 619 700 813 700 
Q 1000 700 1072 628 
Q 1144 556 1144 341 
z
" transform="scale(0.015625)"/>
       </defs>
       <use xlink:href="#Calibri-30"/>
       <use xlink:href="#Calibri-2e" x="50.683594"/>
       <use xlink:href="#Calibri-30" x="75.927734"/>
      </g>
     </g>
    </g>
    <g id="xtick_9">
     <g id="line2d_20">
      <g>
       <use xlink:href="#m5e7e183d65" x="379.074149" y="99.212598" style="stroke: #000000; stroke-width: 0.8"/>
      </g>
     </g>
     <g id="text_19">
      <!-- 1.5 -->
      <g transform="translate(371.476649 114.374473) scale(0.12 -0.12)">
       <defs>
        <path id="Calibri-35" d="M 2869 1300 
Q 2869 975 2759 722 
Q 2650 469 2450 295 
Q 2250 122 1973 31 
Q 1697 -59 1359 -59 
Q 1172 -59 1003 -32 
Q 834 -6 703 33 
Q 572 72 487 109 
Q 403 147 379 169 
Q 356 191 347 209 
Q 338 228 330 254 
Q 322 281 319 322 
Q 316 363 316 419 
Q 316 472 320 514 
Q 325 556 337 582 
Q 350 609 367 621 
Q 384 634 406 634 
Q 438 634 503 595 
Q 569 556 680 511 
Q 791 466 955 425 
Q 1119 384 1344 384 
Q 1553 384 1728 434 
Q 1903 484 2029 590 
Q 2156 697 2228 858 
Q 2300 1019 2300 1250 
Q 2300 1444 2239 1592 
Q 2178 1741 2051 1839 
Q 1925 1938 1731 1986 
Q 1538 2034 1269 2034 
Q 1078 2034 940 2015 
Q 803 1997 684 1997 
Q 597 1997 559 2037 
Q 522 2078 522 2194 
L 522 3841 
Q 522 3944 570 3994 
Q 619 4044 709 4044 
L 2500 4044 
Q 2525 4044 2548 4030 
Q 2572 4016 2587 3987 
Q 2603 3959 2611 3915 
Q 2619 3872 2619 3813 
Q 2619 3700 2587 3637 
Q 2556 3575 2500 3575 
L 991 3575 
L 991 2441 
Q 1100 2456 1214 2459 
Q 1328 2463 1478 2463 
Q 1825 2463 2084 2380 
Q 2344 2297 2517 2145 
Q 2691 1994 2780 1778 
Q 2869 1563 2869 1300 
z
" transform="scale(0.015625)"/>
       </defs>
       <use xlink:href="#Calibri-31"/>
       <use xlink:href="#Calibri-2e" x="50.683594"/>
       <use xlink:href="#Calibri-35" x="75.927734"/>
      </g>
     </g>
    </g>
    <g id="xtick_10">
     <g id="line2d_21">
      <g>
       <use xlink:href="#m5e7e183d65" x="408.389519" y="99.212598" style="stroke: #000000; stroke-width: 0.8"/>
      </g>
     </g>
     <g id="text_20">
      <!-- 3.0 -->
      <g transform="translate(400.792019 114.374473) scale(0.12 -0.12)">
       <defs>
        <path id="Calibri-33" d="M 2856 1156 
Q 2856 878 2759 654 
Q 2663 431 2481 272 
Q 2300 113 2034 27 
Q 1769 -59 1434 -59 
Q 1231 -59 1054 -26 
Q 878 6 740 51 
Q 603 97 512 145 
Q 422 194 398 216 
Q 375 238 362 259 
Q 350 281 340 312 
Q 331 344 326 389 
Q 322 434 322 500 
Q 322 613 344 656 
Q 366 700 406 700 
Q 434 700 517 650 
Q 600 600 729 542 
Q 859 484 1032 434 
Q 1206 384 1419 384 
Q 1625 384 1781 437 
Q 1938 491 2044 587 
Q 2150 684 2203 817 
Q 2256 950 2256 1106 
Q 2256 1278 2189 1415 
Q 2122 1553 1992 1653 
Q 1863 1753 1673 1806 
Q 1484 1859 1244 1859 
L 859 1859 
Q 834 1859 811 1870 
Q 788 1881 770 1906 
Q 753 1931 742 1972 
Q 731 2013 731 2078 
Q 731 2138 740 2177 
Q 750 2216 767 2239 
Q 784 2263 806 2273 
Q 828 2284 856 2284 
L 1209 2284 
Q 1416 2284 1580 2337 
Q 1744 2391 1858 2491 
Q 1972 2591 2033 2730 
Q 2094 2869 2094 3041 
Q 2094 3166 2053 3280 
Q 2013 3394 1931 3478 
Q 1850 3563 1723 3611 
Q 1597 3659 1431 3659 
Q 1250 3659 1098 3604 
Q 947 3550 828 3487 
Q 709 3425 631 3370 
Q 553 3316 522 3316 
Q 500 3316 483 3323 
Q 466 3331 455 3354 
Q 444 3378 439 3420 
Q 434 3463 434 3531 
Q 434 3578 437 3614 
Q 441 3650 450 3676 
Q 459 3703 471 3725 
Q 484 3747 514 3776 
Q 544 3806 634 3862 
Q 725 3919 858 3973 
Q 991 4028 1164 4065 
Q 1338 4103 1538 4103 
Q 1819 4103 2031 4031 
Q 2244 3959 2386 3828 
Q 2528 3697 2598 3514 
Q 2669 3331 2669 3109 
Q 2669 2919 2619 2755 
Q 2569 2591 2472 2464 
Q 2375 2338 2234 2248 
Q 2094 2159 1909 2125 
L 1909 2119 
Q 2119 2097 2292 2014 
Q 2466 1931 2591 1806 
Q 2716 1681 2786 1514 
Q 2856 1347 2856 1156 
z
" transform="scale(0.015625)"/>
       </defs>
       <use xlink:href="#Calibri-33"/>
       <use xlink:href="#Calibri-2e" x="50.683594"/>
       <use xlink:href="#Calibri-30" x="75.927734"/>
      </g>
     </g>
    </g>
    <g id="xtick_11">
     <g id="line2d_22">
      <g>
       <use xlink:href="#m5e7e183d65" x="437.704889" y="99.212598" style="stroke: #000000; stroke-width: 0.8"/>
      </g>
     </g>
     <g id="text_21">
      <!-- 4.5 -->
      <g transform="translate(430.107389 114.374473) scale(0.12 -0.12)">
       <use xlink:href="#Calibri-34"/>
       <use xlink:href="#Calibri-2e" x="50.683594"/>
       <use xlink:href="#Calibri-35" x="75.927734"/>
      </g>
     </g>
    </g>
   </g>
   <g id="matplotlib.axis_6">
    <g id="ytick_8">
     <g id="line2d_23">
      <g>
       <use xlink:href="#mb0a5589d49" x="342.908754" y="83.020759" style="stroke: #000000; stroke-width: 0.8"/>
      </g>
     </g>
     <g id="text_22">
      <!-- 0 -->
      <g transform="translate(329.826254 87.101696) scale(0.12 -0.12)">
       <use xlink:href="#Calibri-30"/>
      </g>
     </g>
    </g>
    <g id="ytick_9">
     <g id="line2d_24">
      <g>
       <use xlink:href="#mb0a5589d49" x="342.908754" y="58.110236" style="stroke: #000000; stroke-width: 0.8"/>
      </g>
     </g>
     <g id="text_23">
      <!-- 2 -->
      <g transform="translate(329.826254 62.191174) scale(0.12 -0.12)">
       <use xlink:href="#Calibri-32"/>
      </g>
     </g>
    </g>
    <g id="ytick_10">
     <g id="line2d_25">
      <g>
       <use xlink:href="#mb0a5589d49" x="342.908754" y="33.199714" style="stroke: #000000; stroke-width: 0.8"/>
      </g>
     </g>
     <g id="text_24">
      <!-- 4 -->
      <g transform="translate(329.826254 37.280651) scale(0.12 -0.12)">
       <use xlink:href="#Calibri-34"/>
      </g>
     </g>
    </g>
   </g>
   <g id="line2d_26">
    <path d="M 348.195292 77.459328 
L 349.26328 76.982883 
L 350.331268 76.506438 
L 351.399255 76.029993 
L 352.467243 75.553547 
L 353.53523 75.077102 
L 354.603218 74.600657 
L 355.671205 74.124212 
L 356.739193 73.647767 
L 357.80718 73.171321 
L 358.875168 72.694876 
L 359.943156 72.218431 
L 361.011143 71.741986 
L 362.079131 71.265541 
L 363.147118 70.789095 
L 364.215106 70.31265 
L 365.283093 69.836205 
L 366.351081 69.35976 
L 367.419068 68.883315 
L 368.487056 68.406869 
L 369.555043 67.930424 
L 370.623031 67.453979 
L 371.691019 66.977534 
L 372.759006 66.501089 
L 373.826994 66.024643 
L 374.894981 65.548198 
L 375.962969 65.071753 
L 377.030956 64.595308 
L 378.098944 64.118863 
L 379.166931 63.642417 
L 380.234919 63.165972 
L 381.302907 62.689527 
L 382.370894 62.213082 
L 383.438882 61.736637 
L 384.506869 61.260191 
L 385.574857 60.783746 
L 386.642844 60.307301 
L 387.710832 59.830856 
L 388.778819 59.354411 
L 389.846807 58.877965 
L 390.914794 58.40152 
L 391.982782 57.925075 
L 393.05077 57.44863 
L 394.118757 56.972185 
L 395.186745 56.495739 
L 396.254732 56.019294 
L 397.32272 55.542849 
L 398.390707 55.066404 
L 399.458695 54.589959 
L 400.526682 54.113514 
L 401.59467 53.637068 
L 402.662658 53.160623 
L 403.730645 52.684178 
L 404.798633 52.207733 
L 405.86662 51.731288 
L 406.934608 51.254842 
L 408.002595 50.778397 
L 409.070583 50.301952 
L 410.13857 49.825507 
L 411.206558 49.349062 
L 412.274546 48.872616 
L 413.342533 48.396171 
L 414.410521 47.919726 
L 415.478508 47.443281 
L 416.546496 46.966836 
L 417.614483 46.49039 
L 418.682471 46.013945 
L 419.750458 45.5375 
L 420.818446 45.061055 
L 421.886433 44.58461 
L 422.954421 44.108164 
L 424.022409 43.631719 
L 425.090396 43.155274 
L 426.158384 42.678829 
L 427.226371 42.202384 
L 428.294359 41.725938 
L 429.362346 41.249493 
L 430.430334 40.773048 
L 431.498321 40.296603 
L 432.566309 39.820158 
L 433.634297 39.343712 
L 434.702284 38.867267 
L 435.770272 38.390822 
L 436.838259 37.914377 
L 437.906247 37.437932 
L 438.974234 36.961486 
L 440.042222 36.485041 
L 441.110209 36.008596 
L 442.178197 35.532151 
L 443.246185 35.055706 
L 444.314172 34.57926 
L 445.38216 34.102815 
L 446.450147 33.62637 
L 447.518135 33.149925 
L 448.586122 32.67348 
L 449.65411 32.197034 
L 450.722097 31.720589 
L 451.790085 31.244144 
L 452.858072 30.767699 
L 453.92606 30.291254 
" clip-path="url(#pba8e930793)" style="fill: none; stroke-dasharray: 5.55,2.4; stroke-dashoffset: 0; stroke: #000000; stroke-width: 1.5"/>
   </g>
   <g id="line2d_27">
    <path d="M 348.195292 77.536939 
L 349.26328 77.007479 
L 350.331268 76.47802 
L 351.399255 75.94856 
L 352.467243 75.419101 
L 353.53523 74.889641 
L 354.603218 74.360181 
L 355.671205 73.830722 
L 356.739193 73.301262 
L 357.80718 72.771803 
L 358.875168 72.242343 
L 359.943156 71.712884 
L 361.011143 71.183424 
L 362.079131 70.653965 
L 363.147118 70.124505 
L 364.215106 69.595045 
L 365.283093 69.065586 
L 366.351081 68.536126 
L 367.419068 68.006667 
L 368.487056 67.477207 
L 369.555043 66.947748 
L 370.623031 66.418288 
L 371.691019 65.888829 
L 372.759006 65.359369 
L 373.826994 64.829909 
L 374.894981 64.30045 
L 375.962969 63.77099 
L 377.030956 63.241531 
L 378.098944 62.712071 
L 379.166931 62.182612 
L 380.234919 61.653152 
L 381.302907 61.123693 
L 382.370894 60.594233 
L 383.438882 60.064773 
L 384.506869 59.535314 
L 385.574857 59.005854 
L 386.642844 58.476395 
L 387.710832 57.946935 
L 388.778819 57.417476 
L 389.846807 56.888016 
L 390.914794 56.358556 
L 391.982782 55.829097 
L 393.05077 55.299637 
L 394.118757 54.770178 
L 395.186745 54.240718 
L 396.254732 53.711259 
L 397.32272 53.181799 
L 398.390707 52.65234 
L 399.458695 52.12288 
L 400.526682 51.59342 
L 401.59467 51.063961 
L 402.662658 50.534501 
L 403.730645 50.005042 
L 404.798633 49.475582 
L 405.86662 48.946123 
L 406.934608 48.416663 
L 408.002595 47.887204 
L 409.070583 47.357744 
L 410.13857 46.828284 
L 411.206558 46.298825 
L 412.274546 45.769365 
L 413.342533 45.239906 
L 414.410521 44.710446 
L 415.478508 44.180987 
L 416.546496 43.651527 
L 417.614483 43.122068 
L 418.682471 42.592608 
L 419.750458 42.063148 
L 420.818446 41.533689 
L 421.886433 41.004229 
L 422.954421 40.47477 
L 424.022409 39.94531 
L 425.090396 39.415851 
L 426.158384 38.886391 
L 427.226371 38.356932 
L 428.294359 37.827472 
L 429.362346 37.298012 
L 430.430334 36.768553 
L 431.498321 36.239093 
L 432.566309 35.709634 
L 433.634297 35.180174 
L 434.702284 34.650715 
L 435.770272 34.121255 
L 436.838259 33.591796 
L 437.906247 33.062336 
L 438.974234 32.532876 
L 440.042222 32.003417 
L 441.110209 31.473957 
L 442.178197 30.944498 
L 443.246185 30.415038 
L 444.314172 29.885579 
L 445.38216 29.356119 
L 446.450147 28.826659 
L 447.518135 28.2972 
L 448.586122 27.76774 
L 449.65411 27.238281 
L 450.722097 26.708821 
L 451.790085 26.179362 
L 452.858072 25.649902 
L 453.92606 25.120443 
" clip-path="url(#pba8e930793)" style="fill: none; stroke: #000000; stroke-width: 1.5; stroke-linecap: square"/>
   </g>
   <g id="patch_9">
    <path d="M 342.908754 99.212598 
L 342.908754 17.007874 
" style="fill: none; stroke: #000000; stroke-width: 0.8; stroke-linejoin: miter; stroke-linecap: square"/>
   </g>
   <g id="patch_10">
    <path d="M 342.908754 99.212598 
L 459.212598 99.212598 
" style="fill: none; stroke: #000000; stroke-width: 0.8; stroke-linejoin: miter; stroke-linecap: square"/>
   </g>
   <g id="text_25">
    <!-- Hindlimb Drops -->
    <g transform="translate(363.135051 11.007874) scale(0.12 -0.12)">
     <defs>
      <path id="Calibri-48" d="M 3450 81 
Q 3450 56 3437 37 
Q 3425 19 3394 8 
Q 3363 -3 3311 -11 
Q 3259 -19 3184 -19 
Q 3103 -19 3053 -11 
Q 3003 -3 2972 8 
Q 2941 19 2928 37 
Q 2916 56 2916 81 
L 2916 1875 
L 1075 1875 
L 1075 81 
Q 1075 56 1062 37 
Q 1050 19 1019 8 
Q 988 -3 936 -11 
Q 884 -19 806 -19 
Q 731 -19 678 -11 
Q 625 -3 594 8 
Q 563 19 550 37 
Q 538 56 538 81 
L 538 3963 
Q 538 3988 550 4006 
Q 563 4025 594 4036 
Q 625 4047 678 4055 
Q 731 4063 806 4063 
Q 884 4063 936 4055 
Q 988 4047 1019 4036 
Q 1050 4025 1062 4006 
Q 1075 3988 1075 3963 
L 1075 2344 
L 2916 2344 
L 2916 3963 
Q 2916 3988 2928 4006 
Q 2941 4025 2972 4036 
Q 3003 4047 3053 4055 
Q 3103 4063 3184 4063 
Q 3259 4063 3311 4055 
Q 3363 4047 3394 4036 
Q 3425 4025 3437 4006 
Q 3450 3988 3450 3963 
L 3450 81 
z
" transform="scale(0.015625)"/>
      <path id="Calibri-69" d="M 994 78 
Q 994 53 981 36 
Q 969 19 941 6 
Q 913 -6 863 -12 
Q 813 -19 734 -19 
Q 659 -19 609 -12 
Q 559 -6 529 6 
Q 500 19 489 36 
Q 478 53 478 78 
L 478 2891 
Q 478 2913 489 2931 
Q 500 2950 529 2962 
Q 559 2975 609 2981 
Q 659 2988 734 2988 
Q 813 2988 863 2981 
Q 913 2975 941 2962 
Q 969 2950 981 2931 
Q 994 2913 994 2891 
L 994 78 
z
M 1053 3841 
Q 1053 3659 984 3593 
Q 916 3528 731 3528 
Q 550 3528 483 3592 
Q 416 3656 416 3834 
Q 416 4016 484 4081 
Q 553 4147 738 4147 
Q 919 4147 986 4083 
Q 1053 4019 1053 3841 
z
" transform="scale(0.015625)"/>
      <path id="Calibri-6d" d="M 4650 78 
Q 4650 53 4637 36 
Q 4625 19 4597 6 
Q 4569 -6 4519 -12 
Q 4469 -19 4394 -19 
Q 4316 -19 4266 -12 
Q 4216 -6 4186 6 
Q 4156 19 4143 36 
Q 4131 53 4131 78 
L 4131 1788 
Q 4131 1966 4100 2112 
Q 4069 2259 4000 2365 
Q 3931 2472 3825 2528 
Q 3719 2584 3575 2584 
Q 3397 2584 3217 2446 
Q 3038 2309 2822 2044 
L 2822 78 
Q 2822 53 2809 36 
Q 2797 19 2767 6 
Q 2738 -6 2688 -12 
Q 2638 -19 2563 -19 
Q 2491 -19 2439 -12 
Q 2388 -6 2358 6 
Q 2328 19 2317 36 
Q 2306 53 2306 78 
L 2306 1788 
Q 2306 1966 2272 2112 
Q 2238 2259 2169 2365 
Q 2100 2472 1995 2528 
Q 1891 2584 1747 2584 
Q 1569 2584 1387 2446 
Q 1206 2309 994 2044 
L 994 78 
Q 994 53 981 36 
Q 969 19 941 6 
Q 913 -6 863 -12 
Q 813 -19 734 -19 
Q 659 -19 609 -12 
Q 559 -6 529 6 
Q 500 19 489 36 
Q 478 53 478 78 
L 478 2891 
Q 478 2916 487 2933 
Q 497 2950 525 2964 
Q 553 2978 597 2983 
Q 641 2988 713 2988 
Q 781 2988 826 2983 
Q 872 2978 897 2964 
Q 922 2950 933 2933 
Q 944 2916 944 2891 
L 944 2519 
Q 1181 2784 1404 2907 
Q 1628 3031 1856 3031 
Q 2031 3031 2170 2990 
Q 2309 2950 2415 2876 
Q 2522 2803 2597 2701 
Q 2672 2600 2722 2475 
Q 2863 2628 2989 2734 
Q 3116 2841 3233 2906 
Q 3350 2972 3461 3001 
Q 3572 3031 3684 3031 
Q 3956 3031 4140 2936 
Q 4325 2841 4439 2681 
Q 4553 2522 4601 2308 
Q 4650 2094 4650 1856 
L 4650 78 
z
" transform="scale(0.015625)"/>
      <path id="Calibri-70" d="M 3066 1528 
Q 3066 1159 2986 865 
Q 2906 572 2751 367 
Q 2597 163 2369 52 
Q 2141 -59 1847 -59 
Q 1722 -59 1615 -34 
Q 1509 -9 1407 44 
Q 1306 97 1206 178 
Q 1106 259 994 369 
L 994 -1038 
Q 994 -1063 981 -1081 
Q 969 -1100 941 -1112 
Q 913 -1125 863 -1131 
Q 813 -1138 734 -1138 
Q 659 -1138 609 -1131 
Q 559 -1125 529 -1112 
Q 500 -1100 489 -1081 
Q 478 -1063 478 -1038 
L 478 2891 
Q 478 2919 487 2936 
Q 497 2953 525 2965 
Q 553 2978 597 2983 
Q 641 2988 703 2988 
Q 769 2988 811 2983 
Q 853 2978 881 2965 
Q 909 2953 920 2936 
Q 931 2919 931 2891 
L 931 2513 
Q 1059 2644 1178 2741 
Q 1297 2838 1417 2902 
Q 1538 2966 1664 2998 
Q 1791 3031 1931 3031 
Q 2238 3031 2453 2912 
Q 2669 2794 2805 2587 
Q 2941 2381 3003 2107 
Q 3066 1834 3066 1528 
z
M 2522 1469 
Q 2522 1684 2489 1886 
Q 2456 2088 2376 2244 
Q 2297 2400 2162 2494 
Q 2028 2588 1828 2588 
Q 1728 2588 1631 2558 
Q 1534 2528 1434 2464 
Q 1334 2400 1225 2295 
Q 1116 2191 994 2038 
L 994 919 
Q 1206 659 1397 521 
Q 1588 384 1797 384 
Q 1991 384 2130 478 
Q 2269 572 2355 728 
Q 2441 884 2481 1078 
Q 2522 1272 2522 1469 
z
" transform="scale(0.015625)"/>
     </defs>
     <use xlink:href="#Calibri-48"/>
     <use xlink:href="#Calibri-69" x="62.304688"/>
     <use xlink:href="#Calibri-6e" x="85.253906"/>
     <use xlink:href="#Calibri-64" x="137.792969"/>
     <use xlink:href="#Calibri-6c" x="190.332031"/>
     <use xlink:href="#Calibri-69" x="213.28125"/>
     <use xlink:href="#Calibri-6d" x="236.230469"/>
     <use xlink:href="#Calibri-62" x="316.113281"/>
     <use xlink:href="#Calibri-20" x="368.652344"/>
     <use xlink:href="#Calibri-44" x="391.259766"/>
     <use xlink:href="#Calibri-72" x="452.783203"/>
     <use xlink:href="#Calibri-6f" x="487.646484"/>
     <use xlink:href="#Calibri-70" x="540.380859"/>
     <use xlink:href="#Calibri-73" x="592.919922"/>
    </g>
   </g>
  </g>
  <g id="text_26">
   <!-- Initial impairment -->
   <g transform="translate(211.472798 138.181211) scale(0.12 -0.12)">
    <defs>
     <path id="Calibri-49" d="M 1075 81 
Q 1075 56 1062 37 
Q 1050 19 1019 8 
Q 988 -3 936 -11 
Q 884 -19 806 -19 
Q 731 -19 678 -11 
Q 625 -3 594 8 
Q 563 19 550 37 
Q 538 56 538 81 
L 538 3963 
Q 538 3988 552 4006 
Q 566 4025 598 4036 
Q 631 4047 682 4055 
Q 734 4063 806 4063 
Q 884 4063 936 4055 
Q 988 4047 1019 4036 
Q 1050 4025 1062 4006 
Q 1075 3988 1075 3963 
L 1075 81 
z
" transform="scale(0.015625)"/>
    </defs>
    <use xlink:href="#Calibri-49"/>
    <use xlink:href="#Calibri-6e" x="25.195312"/>
    <use xlink:href="#Calibri-69" x="77.734375"/>
    <use xlink:href="#Calibri-74" x="100.683594"/>
    <use xlink:href="#Calibri-69" x="134.179688"/>
    <use xlink:href="#Calibri-61" x="157.128906"/>
    <use xlink:href="#Calibri-6c" x="205.029297"/>
    <use xlink:href="#Calibri-20" x="227.978516"/>
    <use xlink:href="#Calibri-69" x="250.585938"/>
    <use xlink:href="#Calibri-6d" x="273.535156"/>
    <use xlink:href="#Calibri-70" x="353.417969"/>
    <use xlink:href="#Calibri-61" x="405.957031"/>
    <use xlink:href="#Calibri-69" x="453.857422"/>
    <use xlink:href="#Calibri-72" x="476.806641"/>
    <use xlink:href="#Calibri-6d" x="511.669922"/>
    <use xlink:href="#Calibri-65" x="591.552734"/>
    <use xlink:href="#Calibri-6e" x="641.308594"/>
    <use xlink:href="#Calibri-74" x="693.847656"/>
   </g>
  </g>
 </g>
 <defs>
  <clipPath id="pcccd0e644e">
   <rect x="63.779528" y="17.007874" width="116.303844" height="82.204724"/>
  </clipPath>
  <clipPath id="p70d2fa78cf">
   <rect x="203.344141" y="17.007874" width="116.303844" height="82.204724"/>
  </clipPath>
  <clipPath id="pba8e930793">
   <rect x="342.908754" y="17.007874" width="116.303844" height="82.204724"/>
  </clipPath>
 </defs>
</svg>
