<?xml version="1.0" encoding="utf-8" standalone="no"?>
<!DOCTYPE svg PUBLIC "-//W3C//DTD SVG 1.1//EN"
  "http://www.w3.org/Graphics/SVG/1.1/DTD/svg11.dtd">
<svg xmlns:xlink="http://www.w3.org/1999/xlink" width="510.23622pt" height="141.732283pt" viewBox="0 0 510.23622 141.732283" xmlns="http://www.w3.org/2000/svg" version="1.1">
 <metadata>
  <rdf:RDF xmlns:dc="http://purl.org/dc/elements/1.1/" xmlns:cc="http://creativecommons.org/ns#" xmlns:rdf="http://www.w3.org/1999/02/22-rdf-syntax-ns#">
   <cc:Work>
    <dc:type rdf:resource="http://purl.org/dc/dcmitype/StillImage"/>
    <dc:date>2025-04-07T21:46:37.963955</dc:date>
    <dc:format>image/svg+xml</dc:format>
    <dc:creator>
     <cc:Agent>
      <dc:title>Matplotlib v3.8.3, https://matplotlib.org/</dc:title>
     </cc:Agent>
    </dc:creator>
   </cc:Work>
  </rdf:RDF>
 </metadata>
 <defs>
  <style type="text/css">*{stroke-linejoin: round; stroke-linecap: butt}</style>
 </defs>
 <g id="figure_1">
  <g id="patch_1">
   <path d="M 0 141.732283 
L 510.23622 141.732283 
L 510.23622 0 
L 0 0 
z
" style="fill: #ffffff"/>
  </g>
  <g id="axes_1">
   <g id="patch_2">
    <path d="M 46.46 106.299213 
L 116.030404 106.299213 
L 116.030404 34.206614 
L 46.46 34.206614 
z
" style="fill: #ffffff"/>
   </g>
   <g id="PathCollection_1">
    <defs>
     <path id="m46897d8e74" d="M 0 1.936492 
C 0.513564 1.936492 1.006162 1.732451 1.369306 1.369306 
C 1.732451 1.006162 1.936492 0.513564 1.936492 0 
C 1.936492 -0.513564 1.732451 -1.006162 1.369306 -1.369306 
C 1.006162 -1.732451 0.513564 -1.936492 0 -1.936492 
C -0.513564 -1.936492 -1.006162 -1.732451 -1.369306 -1.369306 
C -1.732451 -1.006162 -1.936492 -0.513564 -1.936492 0 
C -1.936492 0.513564 -1.732451 1.006162 -1.369306 1.369306 
C -1.006162 1.732451 -0.513564 1.936492 0 1.936492 
z
" style="stroke: #ff0000; stroke-opacity: 0.6"/>
    </defs>
    <g clip-path="url(#p2913368a4b)">
     <use xlink:href="#m46897d8e74" x="88.774467" y="53.425403" style="fill: #ff0000; fill-opacity: 0.6; stroke: #ff0000; stroke-opacity: 0.6"/>
     <use xlink:href="#m46897d8e74" x="112.868113" y="103.022276" style="fill: #ff0000; fill-opacity: 0.6; stroke: #ff0000; stroke-opacity: 0.6"/>
     <use xlink:href="#m46897d8e74" x="91.786173" y="56.968037" style="fill: #ff0000; fill-opacity: 0.6; stroke: #ff0000; stroke-opacity: 0.6"/>
     <use xlink:href="#m46897d8e74" x="54.13985" y="83.53779" style="fill: #ff0000; fill-opacity: 0.6; stroke: #ff0000; stroke-opacity: 0.6"/>
     <use xlink:href="#m46897d8e74" x="96.303731" y="37.48355" style="fill: #ff0000; fill-opacity: 0.6; stroke: #ff0000; stroke-opacity: 0.6"/>
     <use xlink:href="#m46897d8e74" x="90.28032" y="51.654086" style="fill: #ff0000; fill-opacity: 0.6; stroke: #ff0000; stroke-opacity: 0.6"/>
     <use xlink:href="#m46897d8e74" x="78.233496" y="67.595938" style="fill: #ff0000; fill-opacity: 0.6; stroke: #ff0000; stroke-opacity: 0.6"/>
     <use xlink:href="#m46897d8e74" x="51.128144" y="90.623058" style="fill: #ff0000; fill-opacity: 0.6; stroke: #ff0000; stroke-opacity: 0.6"/>
     <use xlink:href="#m46897d8e74" x="97.809584" y="90.623058" style="fill: #ff0000; fill-opacity: 0.6; stroke: #ff0000; stroke-opacity: 0.6"/>
     <use xlink:href="#m46897d8e74" x="91.786173" y="101.250959" style="fill: #ff0000; fill-opacity: 0.6; stroke: #ff0000; stroke-opacity: 0.6"/>
     <use xlink:href="#m46897d8e74" x="69.198379" y="76.452523" style="fill: #ff0000; fill-opacity: 0.6; stroke: #ff0000; stroke-opacity: 0.6"/>
     <use xlink:href="#m46897d8e74" x="49.622291" y="87.080424" style="fill: #ff0000; fill-opacity: 0.6; stroke: #ff0000; stroke-opacity: 0.6"/>
     <use xlink:href="#m46897d8e74" x="82.751055" y="60.51067" style="fill: #ff0000; fill-opacity: 0.6; stroke: #ff0000; stroke-opacity: 0.6"/>
     <use xlink:href="#m46897d8e74" x="69.198379" y="69.367255" style="fill: #ff0000; fill-opacity: 0.6; stroke: #ff0000; stroke-opacity: 0.6"/>
     <use xlink:href="#m46897d8e74" x="99.315437" y="56.968037" style="fill: #ff0000; fill-opacity: 0.6; stroke: #ff0000; stroke-opacity: 0.6"/>
    </g>
   </g>
   <g id="PathCollection_2"/>
   <g id="matplotlib.axis_1">
    <g id="xtick_1">
     <g id="line2d_1">
      <defs>
       <path id="m81a988f9c2" d="M 0 0 
L 0 3.5 
" style="stroke: #000000; stroke-width: 0.8"/>
      </defs>
      <g>
       <use xlink:href="#m81a988f9c2" x="60.163261" y="106.299213" style="stroke: #000000; stroke-width: 0.8"/>
      </g>
     </g>
     <g id="text_1">
      <!-- 15 -->
      <g transform="translate(54.080761 121.461088) scale(0.12 -0.12)">
       <defs>
        <path id="Calibri-31" d="M 2897 213 
Q 2897 153 2887 112 
Q 2878 72 2862 47 
Q 2847 22 2826 11 
Q 2806 0 2784 0 
L 672 0 
Q 650 0 631 11 
Q 613 22 595 47 
Q 578 72 568 112 
Q 559 153 559 213 
Q 559 269 568 309 
Q 578 350 592 376 
Q 606 403 626 417 
Q 647 431 672 431 
L 1516 431 
L 1516 3506 
L 734 3041 
Q 675 3009 639 3003 
Q 603 2997 581 3017 
Q 559 3038 551 3084 
Q 544 3131 544 3203 
Q 544 3256 548 3293 
Q 553 3331 562 3356 
Q 572 3381 589 3400 
Q 606 3419 634 3438 
L 1566 4034 
Q 1578 4044 1597 4050 
Q 1616 4056 1644 4062 
Q 1672 4069 1709 4070 
Q 1747 4072 1803 4072 
Q 1878 4072 1928 4065 
Q 1978 4059 2006 4048 
Q 2034 4038 2043 4020 
Q 2053 4003 2053 3984 
L 2053 431 
L 2784 431 
Q 2809 431 2831 417 
Q 2853 403 2867 376 
Q 2881 350 2889 309 
Q 2897 269 2897 213 
z
" transform="scale(0.015625)"/>
        <path id="Calibri-35" d="M 2869 1300 
Q 2869 975 2759 722 
Q 2650 469 2450 295 
Q 2250 122 1973 31 
Q 1697 -59 1359 -59 
Q 1172 -59 1003 -32 
Q 834 -6 703 33 
Q 572 72 487 109 
Q 403 147 379 169 
Q 356 191 347 209 
Q 338 228 330 254 
Q 322 281 319 322 
Q 316 363 316 419 
Q 316 472 320 514 
Q 325 556 337 582 
Q 350 609 367 621 
Q 384 634 406 634 
Q 438 634 503 595 
Q 569 556 680 511 
Q 791 466 955 425 
Q 1119 384 1344 384 
Q 1553 384 1728 434 
Q 1903 484 2029 590 
Q 2156 697 2228 858 
Q 2300 1019 2300 1250 
Q 2300 1444 2239 1592 
Q 2178 1741 2051 1839 
Q 1925 1938 1731 1986 
Q 1538 2034 1269 2034 
Q 1078 2034 940 2015 
Q 803 1997 684 1997 
Q 597 1997 559 2037 
Q 522 2078 522 2194 
L 522 3841 
Q 522 3944 570 3994 
Q 619 4044 709 4044 
L 2500 4044 
Q 2525 4044 2548 4030 
Q 2572 4016 2587 3987 
Q 2603 3959 2611 3915 
Q 2619 3872 2619 3813 
Q 2619 3700 2587 3637 
Q 2556 3575 2500 3575 
L 991 3575 
L 991 2441 
Q 1100 2456 1214 2459 
Q 1328 2463 1478 2463 
Q 1825 2463 2084 2380 
Q 2344 2297 2517 2145 
Q 2691 1994 2780 1778 
Q 2869 1563 2869 1300 
z
" transform="scale(0.015625)"/>
       </defs>
       <use xlink:href="#Calibri-31"/>
       <use xlink:href="#Calibri-35" x="50.683594"/>
      </g>
     </g>
    </g>
    <g id="xtick_2">
     <g id="line2d_2">
      <g>
       <use xlink:href="#m81a988f9c2" x="82.751055" y="106.299213" style="stroke: #000000; stroke-width: 0.8"/>
      </g>
     </g>
     <g id="text_2">
      <!-- 30 -->
      <g transform="translate(76.668555 121.461088) scale(0.12 -0.12)">
       <defs>
        <path id="Calibri-33" d="M 2856 1156 
Q 2856 878 2759 654 
Q 2663 431 2481 272 
Q 2300 113 2034 27 
Q 1769 -59 1434 -59 
Q 1231 -59 1054 -26 
Q 878 6 740 51 
Q 603 97 512 145 
Q 422 194 398 216 
Q 375 238 362 259 
Q 350 281 340 312 
Q 331 344 326 389 
Q 322 434 322 500 
Q 322 613 344 656 
Q 366 700 406 700 
Q 434 700 517 650 
Q 600 600 729 542 
Q 859 484 1032 434 
Q 1206 384 1419 384 
Q 1625 384 1781 437 
Q 1938 491 2044 587 
Q 2150 684 2203 817 
Q 2256 950 2256 1106 
Q 2256 1278 2189 1415 
Q 2122 1553 1992 1653 
Q 1863 1753 1673 1806 
Q 1484 1859 1244 1859 
L 859 1859 
Q 834 1859 811 1870 
Q 788 1881 770 1906 
Q 753 1931 742 1972 
Q 731 2013 731 2078 
Q 731 2138 740 2177 
Q 750 2216 767 2239 
Q 784 2263 806 2273 
Q 828 2284 856 2284 
L 1209 2284 
Q 1416 2284 1580 2337 
Q 1744 2391 1858 2491 
Q 1972 2591 2033 2730 
Q 2094 2869 2094 3041 
Q 2094 3166 2053 3280 
Q 2013 3394 1931 3478 
Q 1850 3563 1723 3611 
Q 1597 3659 1431 3659 
Q 1250 3659 1098 3604 
Q 947 3550 828 3487 
Q 709 3425 631 3370 
Q 553 3316 522 3316 
Q 500 3316 483 3323 
Q 466 3331 455 3354 
Q 444 3378 439 3420 
Q 434 3463 434 3531 
Q 434 3578 437 3614 
Q 441 3650 450 3676 
Q 459 3703 471 3725 
Q 484 3747 514 3776 
Q 544 3806 634 3862 
Q 725 3919 858 3973 
Q 991 4028 1164 4065 
Q 1338 4103 1538 4103 
Q 1819 4103 2031 4031 
Q 2244 3959 2386 3828 
Q 2528 3697 2598 3514 
Q 2669 3331 2669 3109 
Q 2669 2919 2619 2755 
Q 2569 2591 2472 2464 
Q 2375 2338 2234 2248 
Q 2094 2159 1909 2125 
L 1909 2119 
Q 2119 2097 2292 2014 
Q 2466 1931 2591 1806 
Q 2716 1681 2786 1514 
Q 2856 1347 2856 1156 
z
" transform="scale(0.015625)"/>
        <path id="Calibri-30" d="M 3022 2031 
Q 3022 1566 2948 1181 
Q 2875 797 2704 520 
Q 2534 244 2259 92 
Q 1984 -59 1581 -59 
Q 1200 -59 939 77 
Q 678 213 518 477 
Q 359 741 292 1127 
Q 225 1513 225 2013 
Q 225 2475 300 2861 
Q 375 3247 544 3523 
Q 713 3800 988 3951 
Q 1263 4103 1663 4103 
Q 2047 4103 2308 3967 
Q 2569 3831 2728 3567 
Q 2888 3303 2955 2917 
Q 3022 2531 3022 2031 
z
M 2472 1994 
Q 2472 2297 2450 2537 
Q 2428 2778 2386 2962 
Q 2344 3147 2276 3280 
Q 2209 3413 2115 3498 
Q 2022 3584 1901 3623 
Q 1781 3663 1631 3663 
Q 1366 3663 1200 3538 
Q 1034 3413 939 3194 
Q 844 2975 809 2681 
Q 775 2388 775 2050 
Q 775 1597 822 1280 
Q 869 963 970 763 
Q 1072 563 1230 472 
Q 1388 381 1613 381 
Q 1788 381 1920 437 
Q 2053 494 2148 598 
Q 2244 703 2306 850 
Q 2369 997 2406 1175 
Q 2444 1353 2458 1561 
Q 2472 1769 2472 1994 
z
" transform="scale(0.015625)"/>
       </defs>
       <use xlink:href="#Calibri-33"/>
       <use xlink:href="#Calibri-30" x="50.683594"/>
      </g>
     </g>
    </g>
    <g id="xtick_3">
     <g id="line2d_3">
      <g>
       <use xlink:href="#m81a988f9c2" x="105.338849" y="106.299213" style="stroke: #000000; stroke-width: 0.8"/>
      </g>
     </g>
     <g id="text_3">
      <!-- 45 -->
      <g transform="translate(99.256349 121.461088) scale(0.12 -0.12)">
       <defs>
        <path id="Calibri-34" d="M 3059 1150 
Q 3059 1047 3028 987 
Q 2997 928 2941 928 
L 2484 928 
L 2484 78 
Q 2484 53 2471 36 
Q 2459 19 2428 6 
Q 2397 -6 2347 -12 
Q 2297 -19 2219 -19 
Q 2144 -19 2094 -12 
Q 2044 -6 2014 6 
Q 1984 19 1973 36 
Q 1963 53 1963 78 
L 1963 928 
L 294 928 
Q 256 928 231 937 
Q 206 947 186 972 
Q 166 997 158 1044 
Q 150 1091 150 1166 
Q 150 1225 153 1272 
Q 156 1319 165 1358 
Q 175 1397 190 1433 
Q 206 1469 228 1509 
L 1684 3966 
Q 1700 3991 1729 4009 
Q 1759 4028 1806 4040 
Q 1853 4053 1922 4058 
Q 1991 4063 2084 4063 
Q 2188 4063 2264 4055 
Q 2341 4047 2387 4034 
Q 2434 4022 2459 4001 
Q 2484 3981 2484 3953 
L 2484 1372 
L 2941 1372 
Q 2994 1372 3026 1317 
Q 3059 1263 3059 1150 
z
M 1963 3591 
L 1956 3591 
L 641 1372 
L 1963 1372 
L 1963 3591 
z
" transform="scale(0.015625)"/>
       </defs>
       <use xlink:href="#Calibri-34"/>
       <use xlink:href="#Calibri-35" x="50.683594"/>
      </g>
     </g>
    </g>
   </g>
   <g id="matplotlib.axis_2">
    <g id="ytick_1">
     <g id="line2d_4">
      <defs>
       <path id="mc16a18d78e" d="M 0 0 
L -3.5 0 
" style="stroke: #000000; stroke-width: 0.8"/>
      </defs>
      <g>
       <use xlink:href="#mc16a18d78e" x="46.46" y="101.250959" style="stroke: #000000; stroke-width: 0.8"/>
      </g>
     </g>
     <g id="text_4">
      <!-- 0 -->
      <g transform="translate(33.3775 105.331897) scale(0.12 -0.12)">
       <use xlink:href="#Calibri-30"/>
      </g>
     </g>
    </g>
    <g id="ytick_2">
     <g id="line2d_5">
      <g>
       <use xlink:href="#mc16a18d78e" x="46.46" y="74.681206" style="stroke: #000000; stroke-width: 0.8"/>
      </g>
     </g>
     <g id="text_5">
      <!-- 15 -->
      <g transform="translate(27.295 78.762143) scale(0.12 -0.12)">
       <use xlink:href="#Calibri-31"/>
       <use xlink:href="#Calibri-35" x="50.683594"/>
      </g>
     </g>
    </g>
    <g id="ytick_3">
     <g id="line2d_6">
      <g>
       <use xlink:href="#mc16a18d78e" x="46.46" y="48.111452" style="stroke: #000000; stroke-width: 0.8"/>
      </g>
     </g>
     <g id="text_6">
      <!-- 30 -->
      <g transform="translate(27.295 52.192389) scale(0.12 -0.12)">
       <use xlink:href="#Calibri-33"/>
       <use xlink:href="#Calibri-30" x="50.683594"/>
      </g>
     </g>
    </g>
    <g id="text_7">
     <!-- Change observed -->
     <g transform="translate(21.155625 112.386976) rotate(-90) scale(0.12 -0.12)">
      <defs>
       <path id="Calibri-43" d="M 3238 572 
Q 3238 522 3234 484 
Q 3231 447 3223 419 
Q 3216 391 3203 369 
Q 3191 347 3159 315 
Q 3128 284 3028 220 
Q 2928 156 2779 95 
Q 2631 34 2439 -8 
Q 2247 -50 2019 -50 
Q 1625 -50 1308 81 
Q 991 213 767 469 
Q 544 725 423 1101 
Q 303 1478 303 1969 
Q 303 2472 433 2865 
Q 563 3259 797 3532 
Q 1031 3806 1357 3950 
Q 1684 4094 2081 4094 
Q 2256 4094 2422 4061 
Q 2588 4028 2728 3978 
Q 2869 3928 2978 3862 
Q 3088 3797 3130 3755 
Q 3172 3713 3184 3691 
Q 3197 3669 3205 3639 
Q 3213 3609 3217 3568 
Q 3222 3528 3222 3472 
Q 3222 3409 3215 3365 
Q 3209 3322 3196 3292 
Q 3184 3263 3167 3248 
Q 3150 3234 3125 3234 
Q 3081 3234 3003 3295 
Q 2925 3356 2801 3429 
Q 2678 3503 2501 3564 
Q 2325 3625 2078 3625 
Q 1809 3625 1589 3517 
Q 1369 3409 1212 3200 
Q 1056 2991 970 2689 
Q 884 2388 884 2000 
Q 884 1616 967 1320 
Q 1050 1025 1204 826 
Q 1359 628 1584 526 
Q 1809 425 2094 425 
Q 2334 425 2514 484 
Q 2694 544 2820 617 
Q 2947 691 3028 750 
Q 3109 809 3156 809 
Q 3178 809 3193 800 
Q 3209 791 3218 764 
Q 3228 738 3233 691 
Q 3238 644 3238 572 
z
" transform="scale(0.015625)"/>
       <path id="Calibri-68" d="M 2900 78 
Q 2900 53 2887 36 
Q 2875 19 2847 6 
Q 2819 -6 2769 -12 
Q 2719 -19 2644 -19 
Q 2566 -19 2516 -12 
Q 2466 -6 2437 6 
Q 2409 19 2396 36 
Q 2384 53 2384 78 
L 2384 1725 
Q 2384 1966 2346 2112 
Q 2309 2259 2237 2365 
Q 2166 2472 2052 2528 
Q 1938 2584 1788 2584 
Q 1594 2584 1400 2446 
Q 1206 2309 994 2044 
L 994 78 
Q 994 53 981 36 
Q 969 19 941 6 
Q 913 -6 863 -12 
Q 813 -19 734 -19 
Q 659 -19 609 -12 
Q 559 -6 529 6 
Q 500 19 489 36 
Q 478 53 478 78 
L 478 4253 
Q 478 4278 489 4297 
Q 500 4316 529 4328 
Q 559 4341 609 4347 
Q 659 4353 734 4353 
Q 813 4353 863 4347 
Q 913 4341 941 4328 
Q 969 4316 981 4297 
Q 994 4278 994 4253 
L 994 2569 
Q 1216 2803 1441 2917 
Q 1666 3031 1894 3031 
Q 2175 3031 2367 2936 
Q 2559 2841 2678 2681 
Q 2797 2522 2848 2308 
Q 2900 2094 2900 1791 
L 2900 78 
z
" transform="scale(0.015625)"/>
       <path id="Calibri-61" d="M 2597 75 
Q 2597 38 2572 19 
Q 2547 0 2503 -9 
Q 2459 -19 2375 -19 
Q 2294 -19 2245 -9 
Q 2197 0 2175 19 
Q 2153 38 2153 75 
L 2153 356 
Q 1969 159 1742 50 
Q 1516 -59 1263 -59 
Q 1041 -59 861 -1 
Q 681 56 554 165 
Q 428 275 358 434 
Q 288 594 288 797 
Q 288 1034 384 1209 
Q 481 1384 662 1500 
Q 844 1616 1106 1673 
Q 1369 1731 1697 1731 
L 2084 1731 
L 2084 1950 
Q 2084 2113 2050 2238 
Q 2016 2363 1939 2445 
Q 1863 2528 1741 2570 
Q 1619 2613 1441 2613 
Q 1250 2613 1098 2567 
Q 947 2522 833 2467 
Q 719 2413 642 2367 
Q 566 2322 528 2322 
Q 503 2322 484 2334 
Q 466 2347 452 2372 
Q 438 2397 431 2436 
Q 425 2475 425 2522 
Q 425 2600 436 2645 
Q 447 2691 489 2731 
Q 531 2772 634 2826 
Q 738 2881 872 2926 
Q 1006 2972 1165 3001 
Q 1325 3031 1488 3031 
Q 1791 3031 2003 2962 
Q 2216 2894 2347 2761 
Q 2478 2628 2537 2431 
Q 2597 2234 2597 1972 
L 2597 75 
z
M 2084 1359 
L 1644 1359 
Q 1431 1359 1275 1323 
Q 1119 1288 1016 1217 
Q 913 1147 864 1048 
Q 816 950 816 822 
Q 816 603 955 473 
Q 1094 344 1344 344 
Q 1547 344 1720 447 
Q 1894 550 2084 763 
L 2084 1359 
z
" transform="scale(0.015625)"/>
       <path id="Calibri-6e" d="M 2900 78 
Q 2900 53 2887 36 
Q 2875 19 2847 6 
Q 2819 -6 2769 -12 
Q 2719 -19 2644 -19 
Q 2566 -19 2516 -12 
Q 2466 -6 2437 6 
Q 2409 19 2396 36 
Q 2384 53 2384 78 
L 2384 1725 
Q 2384 1966 2346 2112 
Q 2309 2259 2237 2365 
Q 2166 2472 2052 2528 
Q 1938 2584 1788 2584 
Q 1594 2584 1400 2446 
Q 1206 2309 994 2044 
L 994 78 
Q 994 53 981 36 
Q 969 19 941 6 
Q 913 -6 863 -12 
Q 813 -19 734 -19 
Q 659 -19 609 -12 
Q 559 -6 529 6 
Q 500 19 489 36 
Q 478 53 478 78 
L 478 2891 
Q 478 2916 487 2933 
Q 497 2950 525 2964 
Q 553 2978 597 2983 
Q 641 2988 713 2988 
Q 781 2988 826 2983 
Q 872 2978 897 2964 
Q 922 2950 933 2933 
Q 944 2916 944 2891 
L 944 2519 
Q 1181 2784 1417 2907 
Q 1653 3031 1894 3031 
Q 2175 3031 2367 2936 
Q 2559 2841 2678 2681 
Q 2797 2522 2848 2308 
Q 2900 2094 2900 1794 
L 2900 78 
z
" transform="scale(0.015625)"/>
       <path id="Calibri-67" d="M 2828 2763 
Q 2828 2653 2798 2604 
Q 2769 2556 2722 2556 
L 2319 2556 
Q 2428 2444 2472 2308 
Q 2516 2172 2516 2025 
Q 2516 1781 2437 1593 
Q 2359 1406 2214 1276 
Q 2069 1147 1869 1078 
Q 1669 1009 1425 1009 
Q 1253 1009 1098 1054 
Q 944 1100 859 1169 
Q 803 1113 767 1041 
Q 731 969 731 875 
Q 731 766 832 694 
Q 934 622 1103 616 
L 1838 584 
Q 2047 578 2222 526 
Q 2397 475 2525 379 
Q 2653 284 2725 145 
Q 2797 6 2797 -178 
Q 2797 -372 2715 -547 
Q 2634 -722 2467 -855 
Q 2300 -988 2040 -1064 
Q 1781 -1141 1428 -1141 
Q 1088 -1141 848 -1083 
Q 609 -1025 456 -925 
Q 303 -825 234 -686 
Q 166 -547 166 -384 
Q 166 -281 191 -184 
Q 216 -88 267 0 
Q 319 88 395 167 
Q 472 247 572 325 
Q 419 403 345 522 
Q 272 641 272 778 
Q 272 969 350 1119 
Q 428 1269 544 1388 
Q 447 1503 390 1648 
Q 334 1794 334 2000 
Q 334 2241 415 2431 
Q 497 2622 640 2753 
Q 784 2884 986 2954 
Q 1188 3025 1425 3025 
Q 1553 3025 1664 3011 
Q 1775 2997 1872 2972 
L 2722 2972 
Q 2775 2972 2801 2920 
Q 2828 2869 2828 2763 
z
M 2022 2022 
Q 2022 2309 1864 2470 
Q 1706 2631 1416 2631 
Q 1266 2631 1155 2581 
Q 1044 2531 970 2443 
Q 897 2356 861 2242 
Q 825 2128 825 2003 
Q 825 1725 983 1565 
Q 1141 1406 1425 1406 
Q 1578 1406 1690 1454 
Q 1803 1503 1876 1589 
Q 1950 1675 1986 1787 
Q 2022 1900 2022 2022 
z
M 2281 -206 
Q 2281 -25 2132 73 
Q 1984 172 1731 178 
L 1003 203 
Q 903 125 839 54 
Q 775 -16 737 -80 
Q 700 -144 686 -206 
Q 672 -269 672 -334 
Q 672 -538 878 -642 
Q 1084 -747 1453 -747 
Q 1688 -747 1845 -701 
Q 2003 -656 2100 -581 
Q 2197 -506 2239 -409 
Q 2281 -313 2281 -206 
z
" transform="scale(0.015625)"/>
       <path id="Calibri-65" d="M 2878 1606 
Q 2878 1484 2817 1432 
Q 2756 1381 2678 1381 
L 834 1381 
Q 834 1147 881 959 
Q 928 772 1037 637 
Q 1147 503 1322 431 
Q 1497 359 1750 359 
Q 1950 359 2106 392 
Q 2263 425 2377 465 
Q 2491 506 2564 539 
Q 2638 572 2675 572 
Q 2697 572 2714 561 
Q 2731 550 2740 528 
Q 2750 506 2754 467 
Q 2759 428 2759 372 
Q 2759 331 2756 301 
Q 2753 272 2748 248 
Q 2744 225 2733 206 
Q 2722 188 2705 170 
Q 2688 153 2603 114 
Q 2519 75 2384 37 
Q 2250 0 2073 -29 
Q 1897 -59 1697 -59 
Q 1350 -59 1089 37 
Q 828 134 650 325 
Q 472 516 381 803 
Q 291 1091 291 1472 
Q 291 1834 384 2123 
Q 478 2413 654 2614 
Q 831 2816 1081 2923 
Q 1331 3031 1641 3031 
Q 1972 3031 2205 2925 
Q 2438 2819 2588 2639 
Q 2738 2459 2808 2217 
Q 2878 1975 2878 1700 
L 2878 1606 
z
M 2359 1759 
Q 2369 2166 2180 2397 
Q 1991 2628 1619 2628 
Q 1428 2628 1284 2556 
Q 1141 2484 1044 2365 
Q 947 2247 894 2089 
Q 841 1931 834 1759 
L 2359 1759 
z
" transform="scale(0.015625)"/>
       <path id="Calibri-20" transform="scale(0.015625)"/>
       <path id="Calibri-6f" d="M 3094 1516 
Q 3094 1172 3003 883 
Q 2913 594 2733 384 
Q 2553 175 2283 58 
Q 2013 -59 1656 -59 
Q 1309 -59 1051 44 
Q 794 147 622 344 
Q 450 541 365 822 
Q 281 1103 281 1459 
Q 281 1803 370 2092 
Q 459 2381 639 2590 
Q 819 2800 1087 2915 
Q 1356 3031 1716 3031 
Q 2063 3031 2320 2928 
Q 2578 2825 2750 2628 
Q 2922 2431 3008 2150 
Q 3094 1869 3094 1516 
z
M 2550 1481 
Q 2550 1709 2508 1912 
Q 2466 2116 2369 2269 
Q 2272 2422 2106 2511 
Q 1941 2600 1694 2600 
Q 1466 2600 1302 2519 
Q 1138 2438 1031 2289 
Q 925 2141 873 1937 
Q 822 1734 822 1494 
Q 822 1263 864 1059 
Q 906 856 1004 704 
Q 1103 553 1268 464 
Q 1434 375 1681 375 
Q 1906 375 2072 456 
Q 2238 538 2344 684 
Q 2450 831 2500 1034 
Q 2550 1238 2550 1481 
z
" transform="scale(0.015625)"/>
       <path id="Calibri-62" d="M 3066 1522 
Q 3066 1156 2986 864 
Q 2906 572 2751 365 
Q 2597 159 2372 50 
Q 2147 -59 1856 -59 
Q 1722 -59 1608 -32 
Q 1494 -6 1384 53 
Q 1275 113 1165 203 
Q 1056 294 934 422 
L 934 78 
Q 934 53 921 34 
Q 909 16 881 5 
Q 853 -6 811 -12 
Q 769 -19 703 -19 
Q 641 -19 597 -12 
Q 553 -6 525 5 
Q 497 16 487 34 
Q 478 53 478 78 
L 478 4253 
Q 478 4278 489 4297 
Q 500 4316 529 4328 
Q 559 4341 609 4347 
Q 659 4353 734 4353 
Q 813 4353 863 4347 
Q 913 4341 941 4328 
Q 969 4316 981 4297 
Q 994 4278 994 4253 
L 994 2569 
Q 1119 2697 1236 2784 
Q 1353 2872 1465 2926 
Q 1578 2981 1690 3006 
Q 1803 3031 1928 3031 
Q 2234 3031 2451 2909 
Q 2669 2788 2805 2583 
Q 2941 2378 3003 2103 
Q 3066 1828 3066 1522 
z
M 2522 1463 
Q 2522 1678 2489 1881 
Q 2456 2084 2375 2240 
Q 2294 2397 2159 2492 
Q 2025 2588 1825 2588 
Q 1725 2588 1628 2559 
Q 1531 2531 1431 2465 
Q 1331 2400 1223 2297 
Q 1116 2194 994 2038 
L 994 916 
Q 1206 656 1400 520 
Q 1594 384 1803 384 
Q 1997 384 2134 478 
Q 2272 572 2358 726 
Q 2444 881 2483 1073 
Q 2522 1266 2522 1463 
z
" transform="scale(0.015625)"/>
       <path id="Calibri-73" d="M 2244 844 
Q 2244 628 2164 459 
Q 2084 291 1937 175 
Q 1791 59 1587 0 
Q 1384 -59 1141 -59 
Q 991 -59 855 -36 
Q 719 -13 611 23 
Q 503 59 428 98 
Q 353 138 318 169 
Q 284 200 268 256 
Q 253 313 253 409 
Q 253 469 259 509 
Q 266 550 275 575 
Q 284 600 301 611 
Q 319 622 341 622 
Q 375 622 442 580 
Q 509 538 607 488 
Q 706 438 840 395 
Q 975 353 1150 353 
Q 1281 353 1387 381 
Q 1494 409 1572 464 
Q 1650 519 1692 603 
Q 1734 688 1734 803 
Q 1734 922 1673 1003 
Q 1613 1084 1513 1146 
Q 1413 1209 1288 1257 
Q 1163 1306 1030 1359 
Q 897 1413 770 1480 
Q 644 1547 544 1644 
Q 444 1741 383 1875 
Q 322 2009 322 2197 
Q 322 2363 386 2514 
Q 450 2666 578 2780 
Q 706 2894 898 2962 
Q 1091 3031 1347 3031 
Q 1459 3031 1571 3012 
Q 1684 2994 1775 2966 
Q 1866 2938 1930 2905 
Q 1994 2872 2026 2847 
Q 2059 2822 2070 2803 
Q 2081 2784 2086 2761 
Q 2091 2738 2095 2703 
Q 2100 2669 2100 2619 
Q 2100 2566 2095 2527 
Q 2091 2488 2080 2463 
Q 2069 2438 2053 2427 
Q 2038 2416 2019 2416 
Q 1991 2416 1937 2450 
Q 1884 2484 1800 2523 
Q 1716 2563 1602 2597 
Q 1488 2631 1341 2631 
Q 1209 2631 1109 2601 
Q 1009 2572 945 2517 
Q 881 2463 848 2388 
Q 816 2313 816 2225 
Q 816 2103 878 2020 
Q 941 1938 1041 1875 
Q 1141 1813 1269 1763 
Q 1397 1713 1530 1659 
Q 1663 1606 1792 1540 
Q 1922 1475 2022 1381 
Q 2122 1288 2183 1156 
Q 2244 1025 2244 844 
z
" transform="scale(0.015625)"/>
       <path id="Calibri-72" d="M 2122 2706 
Q 2122 2638 2119 2591 
Q 2116 2544 2106 2517 
Q 2097 2491 2083 2477 
Q 2069 2463 2044 2463 
Q 2019 2463 1983 2477 
Q 1947 2491 1901 2505 
Q 1856 2519 1800 2531 
Q 1744 2544 1678 2544 
Q 1600 2544 1525 2512 
Q 1450 2481 1367 2409 
Q 1284 2338 1193 2219 
Q 1103 2100 994 1928 
L 994 78 
Q 994 53 981 36 
Q 969 19 941 6 
Q 913 -6 863 -12 
Q 813 -19 734 -19 
Q 659 -19 609 -12 
Q 559 -6 529 6 
Q 500 19 489 36 
Q 478 53 478 78 
L 478 2891 
Q 478 2916 487 2933 
Q 497 2950 525 2964 
Q 553 2978 597 2983 
Q 641 2988 713 2988 
Q 781 2988 826 2983 
Q 872 2978 897 2964 
Q 922 2950 933 2933 
Q 944 2916 944 2891 
L 944 2481 
Q 1059 2650 1161 2756 
Q 1263 2863 1353 2923 
Q 1444 2984 1533 3007 
Q 1622 3031 1713 3031 
Q 1753 3031 1804 3026 
Q 1856 3022 1912 3009 
Q 1969 2997 2014 2981 
Q 2059 2966 2078 2950 
Q 2097 2934 2103 2920 
Q 2109 2906 2114 2884 
Q 2119 2863 2120 2820 
Q 2122 2778 2122 2706 
z
" transform="scale(0.015625)"/>
       <path id="Calibri-76" d="M 2784 2897 
Q 2784 2884 2782 2870 
Q 2781 2856 2778 2840 
Q 2775 2825 2770 2806 
Q 2766 2788 2759 2766 
L 1800 94 
Q 1788 59 1767 37 
Q 1747 16 1706 3 
Q 1666 -9 1603 -14 
Q 1541 -19 1447 -19 
Q 1353 -19 1290 -12 
Q 1228 -6 1189 6 
Q 1150 19 1128 41 
Q 1106 63 1094 94 
L 138 2766 
Q 125 2803 117 2831 
Q 109 2859 107 2873 
Q 106 2888 106 2897 
Q 106 2922 118 2940 
Q 131 2959 161 2970 
Q 191 2981 239 2984 
Q 288 2988 359 2988 
Q 450 2988 504 2983 
Q 559 2978 589 2965 
Q 619 2953 633 2934 
Q 647 2916 659 2888 
L 1453 569 
L 1466 531 
L 1475 569 
L 2259 2888 
Q 2266 2916 2281 2934 
Q 2297 2953 2326 2965 
Q 2356 2978 2407 2983 
Q 2459 2988 2544 2988 
Q 2616 2988 2662 2984 
Q 2709 2981 2736 2968 
Q 2763 2956 2773 2939 
Q 2784 2922 2784 2897 
z
" transform="scale(0.015625)"/>
       <path id="Calibri-64" d="M 2888 78 
Q 2888 53 2877 34 
Q 2866 16 2839 5 
Q 2813 -6 2769 -12 
Q 2725 -19 2663 -19 
Q 2597 -19 2553 -12 
Q 2509 -6 2481 5 
Q 2453 16 2440 34 
Q 2428 53 2428 78 
L 2428 450 
Q 2206 209 1967 75 
Q 1728 -59 1444 -59 
Q 1134 -59 915 61 
Q 697 181 561 386 
Q 425 591 362 867 
Q 300 1144 300 1450 
Q 300 1813 378 2105 
Q 456 2397 609 2603 
Q 763 2809 989 2920 
Q 1216 3031 1513 3031 
Q 1759 3031 1964 2923 
Q 2169 2816 2369 2606 
L 2369 4241 
Q 2369 4263 2380 4283 
Q 2391 4303 2422 4314 
Q 2453 4325 2501 4333 
Q 2550 4341 2625 4341 
Q 2703 4341 2753 4333 
Q 2803 4325 2831 4314 
Q 2859 4303 2873 4283 
Q 2888 4263 2888 4241 
L 2888 78 
z
M 2369 2056 
Q 2159 2316 1964 2452 
Q 1769 2588 1556 2588 
Q 1359 2588 1221 2494 
Q 1084 2400 998 2247 
Q 913 2094 873 1900 
Q 834 1706 834 1506 
Q 834 1294 867 1091 
Q 900 888 981 730 
Q 1063 572 1197 476 
Q 1331 381 1534 381 
Q 1638 381 1733 409 
Q 1828 438 1928 503 
Q 2028 569 2137 673 
Q 2247 778 2369 931 
L 2369 2056 
z
" transform="scale(0.015625)"/>
      </defs>
      <use xlink:href="#Calibri-43"/>
      <use xlink:href="#Calibri-68" x="53.320312"/>
      <use xlink:href="#Calibri-61" x="105.859375"/>
      <use xlink:href="#Calibri-6e" x="153.759766"/>
      <use xlink:href="#Calibri-67" x="206.298828"/>
      <use xlink:href="#Calibri-65" x="253.369141"/>
      <use xlink:href="#Calibri-20" x="303.125"/>
      <use xlink:href="#Calibri-6f" x="325.732422"/>
      <use xlink:href="#Calibri-62" x="378.466797"/>
      <use xlink:href="#Calibri-73" x="431.005859"/>
      <use xlink:href="#Calibri-65" x="470.117188"/>
      <use xlink:href="#Calibri-72" x="519.873047"/>
      <use xlink:href="#Calibri-76" x="554.736328"/>
      <use xlink:href="#Calibri-65" x="599.902344"/>
      <use xlink:href="#Calibri-64" x="649.658203"/>
     </g>
    </g>
   </g>
   <g id="line2d_7">
    <path d="M 49.622291 90.441476 
L 50.261138 89.915448 
L 50.899984 89.389421 
L 51.538831 88.863393 
L 52.177678 88.337366 
L 52.816525 87.811338 
L 53.455371 87.285311 
L 54.094218 86.759284 
L 54.733065 86.233256 
L 55.371911 85.707229 
L 56.010758 85.181201 
L 56.649605 84.655174 
L 57.288451 84.129146 
L 57.927298 83.603119 
L 58.566145 83.077091 
L 59.204991 82.551064 
L 59.843838 82.025037 
L 60.482685 81.499009 
L 61.121532 80.972982 
L 61.760378 80.446954 
L 62.399225 79.920927 
L 63.038072 79.394899 
L 63.676918 78.868872 
L 64.315765 78.342844 
L 64.954612 77.816817 
L 65.593458 77.290789 
L 66.232305 76.764762 
L 66.871152 76.238735 
L 67.509998 75.712707 
L 68.148845 75.18668 
L 68.787692 74.660652 
L 69.426538 74.134625 
L 70.065385 73.608597 
L 70.704232 73.08257 
L 71.343079 72.556542 
L 71.981925 72.030515 
L 72.620772 71.504488 
L 73.259619 70.97846 
L 73.898465 70.452433 
L 74.537312 69.926405 
L 75.176159 69.400378 
L 75.815005 68.87435 
L 76.453852 68.348323 
L 77.092699 67.822295 
L 77.731545 67.296268 
L 78.370392 66.770241 
L 79.009239 66.244213 
L 79.648085 65.718186 
L 80.286932 65.192158 
L 80.925779 64.666131 
L 81.564626 64.140103 
L 82.203472 63.614076 
L 82.842319 63.088048 
L 83.481166 62.562021 
L 84.120012 62.035994 
L 84.758859 61.509966 
L 85.397706 60.983939 
L 86.036552 60.457911 
L 86.675399 59.931884 
L 87.314246 59.405856 
L 87.953092 58.879829 
L 88.591939 58.353801 
L 89.230786 57.827774 
L 89.869632 57.301746 
L 90.508479 56.775719 
L 91.147326 56.249692 
L 91.786173 55.723664 
L 92.425019 55.197637 
L 93.063866 54.671609 
L 93.702713 54.145582 
L 94.341559 53.619554 
L 94.980406 53.093527 
L 95.619253 52.567499 
L 96.258099 52.041472 
L 96.896946 51.515445 
L 97.535793 50.989417 
L 98.174639 50.46339 
L 98.813486 49.937362 
L 99.452333 49.411335 
L 100.09118 48.885307 
L 100.730026 48.35928 
L 101.368873 47.833252 
L 102.00772 47.307225 
L 102.646566 46.781198 
L 103.285413 46.25517 
L 103.92426 45.729143 
L 104.563106 45.203115 
L 105.201953 44.677088 
L 105.8408 44.15106 
L 106.479646 43.625033 
L 107.118493 43.099005 
L 107.75734 42.572978 
L 108.396186 42.046951 
L 109.035033 41.520923 
L 109.67388 40.994896 
L 110.312727 40.468868 
L 110.951573 39.942841 
L 111.59042 39.416813 
L 112.229267 38.890786 
L 112.868113 38.364758 
" clip-path="url(#p2913368a4b)" style="fill: none; stroke-dasharray: 5.55,2.4; stroke-dashoffset: 0; stroke: #000000; stroke-width: 1.5"/>
   </g>
   <g id="line2d_8">
    <path d="M 49.622291 90.690706 
L 50.261138 90.177896 
L 50.899984 89.665085 
L 51.538831 89.152274 
L 52.177678 88.639463 
L 52.816525 88.126653 
L 53.455371 87.613842 
L 54.094218 87.101031 
L 54.733065 86.588221 
L 55.371911 86.07541 
L 56.010758 85.562599 
L 56.649605 85.049789 
L 57.288451 84.536978 
L 57.927298 84.024167 
L 58.566145 83.511357 
L 59.204991 82.998546 
L 59.843838 82.485735 
L 60.482685 81.972925 
L 61.121532 81.460114 
L 61.760378 80.947303 
L 62.399225 80.434493 
L 63.038072 79.921682 
L 63.676918 79.408871 
L 64.315765 78.896061 
L 64.954612 78.38325 
L 65.593458 77.870439 
L 66.232305 77.357629 
L 66.871152 76.844818 
L 67.509998 76.332007 
L 68.148845 75.819197 
L 68.787692 75.306386 
L 69.426538 74.793575 
L 70.065385 74.280765 
L 70.704232 73.767954 
L 71.343079 73.255143 
L 71.981925 72.742332 
L 72.620772 72.229522 
L 73.259619 71.716711 
L 73.898465 71.2039 
L 74.537312 70.69109 
L 75.176159 70.178279 
L 75.815005 69.665468 
L 76.453852 69.152658 
L 77.092699 68.639847 
L 77.731545 68.127036 
L 78.370392 67.614226 
L 79.009239 67.101415 
L 79.648085 66.588604 
L 80.286932 66.075794 
L 80.925779 65.562983 
L 81.564626 65.050172 
L 82.203472 64.537362 
L 82.842319 64.024551 
L 83.481166 63.51174 
L 84.120012 62.99893 
L 84.758859 62.486119 
L 85.397706 61.973308 
L 86.036552 61.460498 
L 86.675399 60.947687 
L 87.314246 60.434876 
L 87.953092 59.922066 
L 88.591939 59.409255 
L 89.230786 58.896444 
L 89.869632 58.383634 
L 90.508479 57.870823 
L 91.147326 57.358012 
L 91.786173 56.845201 
L 92.425019 56.332391 
L 93.063866 55.81958 
L 93.702713 55.306769 
L 94.341559 54.793959 
L 94.980406 54.281148 
L 95.619253 53.768337 
L 96.258099 53.255527 
L 96.896946 52.742716 
L 97.535793 52.229905 
L 98.174639 51.717095 
L 98.813486 51.204284 
L 99.452333 50.691473 
L 100.09118 50.178663 
L 100.730026 49.665852 
L 101.368873 49.153041 
L 102.00772 48.640231 
L 102.646566 48.12742 
L 103.285413 47.614609 
L 103.92426 47.101799 
L 104.563106 46.588988 
L 105.201953 46.076177 
L 105.8408 45.563367 
L 106.479646 45.050556 
L 107.118493 44.537745 
L 107.75734 44.024935 
L 108.396186 43.512124 
L 109.035033 42.999313 
L 109.67388 42.486503 
L 110.312727 41.973692 
L 110.951573 41.460881 
L 111.59042 40.94807 
L 112.229267 40.43526 
L 112.868113 39.922449 
" clip-path="url(#p2913368a4b)" style="fill: none; stroke: #000000; stroke-width: 1.5; stroke-linecap: square"/>
   </g>
   <g id="patch_3">
    <path d="M 46.46 106.299213 
L 46.46 34.206614 
" style="fill: none; stroke: #000000; stroke-width: 0.8; stroke-linejoin: miter; stroke-linecap: square"/>
   </g>
   <g id="patch_4">
    <path d="M 46.46 106.299213 
L 116.030404 106.299213 
" style="fill: none; stroke: #000000; stroke-width: 0.8; stroke-linejoin: miter; stroke-linecap: square"/>
   </g>
   <g id="text_8">
    <!-- FM-LE -->
    <g transform="translate(66.068952 28.206614) scale(0.12 -0.12)">
     <defs>
      <path id="Calibri-46" d="M 2663 3813 
Q 2663 3753 2656 3709 
Q 2650 3666 2634 3639 
Q 2619 3613 2598 3600 
Q 2578 3588 2556 3588 
L 1075 3588 
L 1075 2213 
L 2475 2213 
Q 2497 2213 2517 2202 
Q 2538 2191 2553 2166 
Q 2569 2141 2575 2098 
Q 2581 2056 2581 1991 
Q 2581 1931 2575 1889 
Q 2569 1847 2553 1820 
Q 2538 1794 2517 1780 
Q 2497 1766 2475 1766 
L 1075 1766 
L 1075 81 
Q 1075 59 1062 39 
Q 1050 19 1019 8 
Q 988 -3 938 -11 
Q 888 -19 806 -19 
Q 731 -19 678 -11 
Q 625 -3 594 8 
Q 563 19 550 39 
Q 538 59 538 81 
L 538 3825 
Q 538 3947 602 3995 
Q 666 4044 738 4044 
L 2556 4044 
Q 2578 4044 2598 4031 
Q 2619 4019 2634 3991 
Q 2650 3963 2656 3917 
Q 2663 3872 2663 3813 
z
" transform="scale(0.015625)"/>
      <path id="Calibri-4d" d="M 4934 81 
Q 4934 56 4921 37 
Q 4909 19 4878 8 
Q 4847 -3 4798 -11 
Q 4750 -19 4672 -19 
Q 4600 -19 4548 -11 
Q 4497 -3 4467 8 
Q 4438 19 4425 37 
Q 4413 56 4413 81 
L 4413 3603 
L 4406 3603 
L 2966 66 
Q 2956 44 2939 28 
Q 2922 13 2889 2 
Q 2856 -9 2811 -14 
Q 2766 -19 2703 -19 
Q 2638 -19 2591 -12 
Q 2544 -6 2512 5 
Q 2481 16 2464 31 
Q 2447 47 2441 66 
L 1063 3603 
L 1059 3603 
L 1059 81 
Q 1059 56 1046 37 
Q 1034 19 1003 8 
Q 972 -3 922 -11 
Q 872 -19 794 -19 
Q 719 -19 669 -11 
Q 619 -3 589 8 
Q 559 19 548 37 
Q 538 56 538 81 
L 538 3800 
Q 538 3931 606 3987 
Q 675 4044 759 4044 
L 1084 4044 
Q 1184 4044 1259 4025 
Q 1334 4006 1390 3965 
Q 1447 3925 1484 3862 
Q 1522 3800 1550 3716 
L 2722 788 
L 2738 788 
L 3956 3706 
Q 3991 3800 4031 3865 
Q 4072 3931 4120 3970 
Q 4169 4009 4228 4026 
Q 4288 4044 4366 4044 
L 4706 4044 
Q 4753 4044 4795 4030 
Q 4838 4016 4867 3986 
Q 4897 3956 4915 3911 
Q 4934 3866 4934 3800 
L 4934 81 
z
" transform="scale(0.015625)"/>
      <path id="Calibri-2d" d="M 1744 1578 
Q 1744 1456 1716 1409 
Q 1688 1363 1634 1363 
L 328 1363 
Q 272 1363 244 1411 
Q 216 1459 216 1578 
Q 216 1697 244 1744 
Q 272 1791 328 1791 
L 1634 1791 
Q 1659 1791 1679 1781 
Q 1700 1772 1714 1745 
Q 1728 1719 1736 1678 
Q 1744 1638 1744 1578 
z
" transform="scale(0.015625)"/>
      <path id="Calibri-4c" d="M 2634 234 
Q 2634 172 2628 130 
Q 2622 88 2608 58 
Q 2594 28 2573 14 
Q 2553 0 2525 0 
L 738 0 
Q 666 0 602 48 
Q 538 97 538 219 
L 538 3963 
Q 538 3988 550 4006 
Q 563 4025 594 4036 
Q 625 4047 678 4055 
Q 731 4063 806 4063 
Q 884 4063 936 4055 
Q 988 4047 1019 4036 
Q 1050 4025 1062 4006 
Q 1075 3988 1075 3963 
L 1075 466 
L 2525 466 
Q 2553 466 2573 452 
Q 2594 438 2608 411 
Q 2622 384 2628 340 
Q 2634 297 2634 234 
z
" transform="scale(0.015625)"/>
      <path id="Calibri-45" d="M 2788 222 
Q 2788 166 2781 123 
Q 2775 81 2759 53 
Q 2744 25 2723 12 
Q 2703 0 2678 0 
L 738 0 
Q 666 0 602 48 
Q 538 97 538 219 
L 538 3825 
Q 538 3947 602 3995 
Q 666 4044 738 4044 
L 2656 4044 
Q 2681 4044 2701 4031 
Q 2722 4019 2734 3991 
Q 2747 3963 2755 3920 
Q 2763 3878 2763 3816 
Q 2763 3759 2755 3717 
Q 2747 3675 2734 3648 
Q 2722 3622 2701 3609 
Q 2681 3597 2656 3597 
L 1075 3597 
L 1075 2328 
L 2431 2328 
Q 2456 2328 2476 2314 
Q 2497 2300 2511 2275 
Q 2525 2250 2531 2206 
Q 2538 2163 2538 2103 
Q 2538 2047 2531 2006 
Q 2525 1966 2511 1941 
Q 2497 1916 2476 1905 
Q 2456 1894 2431 1894 
L 1075 1894 
L 1075 447 
L 2678 447 
Q 2703 447 2723 434 
Q 2744 422 2759 395 
Q 2775 369 2781 326 
Q 2788 284 2788 222 
z
" transform="scale(0.015625)"/>
     </defs>
     <use xlink:href="#Calibri-46"/>
     <use xlink:href="#Calibri-4d" x="45.947266"/>
     <use xlink:href="#Calibri-2d" x="131.445312"/>
     <use xlink:href="#Calibri-4c" x="162.060547"/>
     <use xlink:href="#Calibri-45" x="204.101562"/>
    </g>
   </g>
  </g>
  <g id="axes_2">
   <g id="patch_5">
    <path d="M 141.771454 106.299213 
L 211.341858 106.299213 
L 211.341858 34.206614 
L 141.771454 34.206614 
z
" style="fill: #ffffff"/>
   </g>
   <g id="PathCollection_3">
    <g clip-path="url(#p7f8cfc2205)">
     <use xlink:href="#m46897d8e74" x="144.933745" y="59.003729" style="fill: #ff0000; fill-opacity: 0.6; stroke: #ff0000; stroke-opacity: 0.6"/>
     <use xlink:href="#m46897d8e74" x="208.179567" y="98.131327" style="fill: #ff0000; fill-opacity: 0.6; stroke: #ff0000; stroke-opacity: 0.6"/>
     <use xlink:href="#m46897d8e74" x="176.556656" y="65.851059" style="fill: #ff0000; fill-opacity: 0.6; stroke: #ff0000; stroke-opacity: 0.6"/>
     <use xlink:href="#m46897d8e74" x="176.556656" y="70.742008" style="fill: #ff0000; fill-opacity: 0.6; stroke: #ff0000; stroke-opacity: 0.6"/>
     <use xlink:href="#m46897d8e74" x="172.603792" y="37.48355" style="fill: #ff0000; fill-opacity: 0.6; stroke: #ff0000; stroke-opacity: 0.6"/>
     <use xlink:href="#m46897d8e74" x="196.320976" y="67.807439" style="fill: #ff0000; fill-opacity: 0.6; stroke: #ff0000; stroke-opacity: 0.6"/>
     <use xlink:href="#m46897d8e74" x="172.603792" y="71.720198" style="fill: #ff0000; fill-opacity: 0.6; stroke: #ff0000; stroke-opacity: 0.6"/>
     <use xlink:href="#m46897d8e74" x="180.50952" y="75.632958" style="fill: #ff0000; fill-opacity: 0.6; stroke: #ff0000; stroke-opacity: 0.6"/>
     <use xlink:href="#m46897d8e74" x="184.462384" y="101.065896" style="fill: #ff0000; fill-opacity: 0.6; stroke: #ff0000; stroke-opacity: 0.6"/>
     <use xlink:href="#m46897d8e74" x="184.462384" y="103.022276" style="fill: #ff0000; fill-opacity: 0.6; stroke: #ff0000; stroke-opacity: 0.6"/>
     <use xlink:href="#m46897d8e74" x="172.603792" y="79.545718" style="fill: #ff0000; fill-opacity: 0.6; stroke: #ff0000; stroke-opacity: 0.6"/>
     <use xlink:href="#m46897d8e74" x="164.698065" y="40.41812" style="fill: #ff0000; fill-opacity: 0.6; stroke: #ff0000; stroke-opacity: 0.6"/>
     <use xlink:href="#m46897d8e74" x="146.910177" y="67.807439" style="fill: #ff0000; fill-opacity: 0.6; stroke: #ff0000; stroke-opacity: 0.6"/>
     <use xlink:href="#m46897d8e74" x="164.698065" y="67.807439" style="fill: #ff0000; fill-opacity: 0.6; stroke: #ff0000; stroke-opacity: 0.6"/>
     <use xlink:href="#m46897d8e74" x="178.533088" y="59.981919" style="fill: #ff0000; fill-opacity: 0.6; stroke: #ff0000; stroke-opacity: 0.6"/>
    </g>
   </g>
   <g id="PathCollection_4"/>
   <g id="matplotlib.axis_3">
    <g id="xtick_4">
     <g id="line2d_9">
      <g>
       <use xlink:href="#m81a988f9c2" x="160.745201" y="106.299213" style="stroke: #000000; stroke-width: 0.8"/>
      </g>
     </g>
     <g id="text_9">
      <!-- 60 -->
      <g transform="translate(154.662701 121.461088) scale(0.12 -0.12)">
       <defs>
        <path id="Calibri-36" d="M 2991 1309 
Q 2991 1044 2909 795 
Q 2828 547 2659 358 
Q 2491 169 2231 55 
Q 1972 -59 1619 -59 
Q 1366 -59 1172 3 
Q 978 66 834 181 
Q 691 297 595 465 
Q 500 634 442 850 
Q 384 1066 359 1322 
Q 334 1578 334 1872 
Q 334 2131 362 2397 
Q 391 2663 462 2909 
Q 534 3156 657 3373 
Q 781 3591 967 3752 
Q 1153 3913 1412 4006 
Q 1672 4100 2016 4100 
Q 2131 4100 2250 4086 
Q 2369 4072 2469 4048 
Q 2569 4025 2637 3997 
Q 2706 3969 2728 3951 
Q 2750 3934 2761 3914 
Q 2772 3894 2778 3870 
Q 2784 3847 2787 3817 
Q 2791 3788 2791 3744 
Q 2791 3688 2789 3647 
Q 2788 3606 2777 3581 
Q 2766 3556 2748 3543 
Q 2731 3531 2703 3531 
Q 2669 3531 2609 3553 
Q 2550 3575 2465 3601 
Q 2381 3628 2261 3650 
Q 2141 3672 1981 3672 
Q 1691 3672 1481 3553 
Q 1272 3434 1139 3234 
Q 1006 3034 942 2770 
Q 878 2506 869 2219 
Q 950 2266 1051 2312 
Q 1153 2359 1273 2396 
Q 1394 2434 1528 2457 
Q 1663 2481 1816 2481 
Q 2144 2481 2369 2392 
Q 2594 2303 2733 2145 
Q 2872 1988 2931 1773 
Q 2991 1559 2991 1309 
z
M 2447 1259 
Q 2447 1441 2411 1589 
Q 2375 1738 2290 1841 
Q 2206 1944 2065 2000 
Q 1925 2056 1719 2056 
Q 1603 2056 1487 2036 
Q 1372 2016 1264 1980 
Q 1156 1944 1057 1895 
Q 959 1847 878 1791 
Q 878 1388 929 1116 
Q 981 844 1079 680 
Q 1178 516 1325 445 
Q 1472 375 1669 375 
Q 1869 375 2016 450 
Q 2163 525 2259 651 
Q 2356 778 2401 936 
Q 2447 1094 2447 1259 
z
" transform="scale(0.015625)"/>
       </defs>
       <use xlink:href="#Calibri-36"/>
       <use xlink:href="#Calibri-30" x="50.683594"/>
      </g>
     </g>
    </g>
    <g id="xtick_5">
     <g id="line2d_10">
      <g>
       <use xlink:href="#m81a988f9c2" x="180.50952" y="106.299213" style="stroke: #000000; stroke-width: 0.8"/>
      </g>
     </g>
     <g id="text_10">
      <!-- 70 -->
      <g transform="translate(174.42702 121.461088) scale(0.12 -0.12)">
       <defs>
        <path id="Calibri-37" d="M 2947 3813 
Q 2947 3756 2942 3711 
Q 2938 3666 2930 3623 
Q 2922 3581 2908 3542 
Q 2894 3503 2875 3459 
L 1419 103 
Q 1403 66 1379 42 
Q 1356 19 1320 5 
Q 1284 -9 1228 -14 
Q 1172 -19 1091 -19 
Q 984 -19 925 -9 
Q 866 0 839 20 
Q 813 41 816 70 
Q 819 100 838 141 
L 2369 3572 
L 428 3572 
Q 369 3572 339 3634 
Q 309 3697 309 3809 
Q 309 3869 317 3912 
Q 325 3956 340 3986 
Q 356 4016 378 4030 
Q 400 4044 428 4044 
L 2784 4044 
Q 2828 4044 2861 4034 
Q 2894 4025 2911 3997 
Q 2928 3969 2937 3925 
Q 2947 3881 2947 3813 
z
" transform="scale(0.015625)"/>
       </defs>
       <use xlink:href="#Calibri-37"/>
       <use xlink:href="#Calibri-30" x="50.683594"/>
      </g>
     </g>
    </g>
    <g id="xtick_6">
     <g id="line2d_11">
      <g>
       <use xlink:href="#m81a988f9c2" x="200.27384" y="106.299213" style="stroke: #000000; stroke-width: 0.8"/>
      </g>
     </g>
     <g id="text_11">
      <!-- 80 -->
      <g transform="translate(194.19134 121.461088) scale(0.12 -0.12)">
       <defs>
        <path id="Calibri-38" d="M 2981 1038 
Q 2981 775 2887 570 
Q 2794 366 2617 225 
Q 2441 84 2181 12 
Q 1922 -59 1588 -59 
Q 1275 -59 1028 6 
Q 781 72 609 200 
Q 438 328 347 515 
Q 256 703 256 944 
Q 256 1134 318 1293 
Q 381 1453 498 1587 
Q 616 1722 787 1839 
Q 959 1956 1175 2063 
Q 988 2159 844 2267 
Q 700 2375 600 2501 
Q 500 2628 448 2772 
Q 397 2916 397 3084 
Q 397 3297 473 3483 
Q 550 3669 704 3806 
Q 859 3944 1098 4023 
Q 1338 4103 1656 4103 
Q 1963 4103 2186 4029 
Q 2409 3956 2554 3829 
Q 2700 3703 2769 3531 
Q 2838 3359 2838 3163 
Q 2838 3003 2786 2856 
Q 2734 2709 2634 2578 
Q 2534 2447 2389 2333 
Q 2244 2219 2056 2119 
Q 2278 2009 2451 1893 
Q 2625 1778 2742 1645 
Q 2859 1513 2920 1364 
Q 2981 1216 2981 1038 
z
M 2306 3113 
Q 2306 3244 2261 3350 
Q 2216 3456 2128 3531 
Q 2041 3606 1911 3645 
Q 1781 3684 1616 3684 
Q 1278 3684 1104 3531 
Q 931 3378 931 3113 
Q 931 2991 973 2886 
Q 1016 2781 1105 2687 
Q 1194 2594 1330 2505 
Q 1466 2416 1653 2319 
Q 1969 2481 2137 2678 
Q 2306 2875 2306 3113 
z
M 2438 981 
Q 2438 1125 2384 1242 
Q 2331 1359 2223 1461 
Q 2116 1563 1955 1658 
Q 1794 1753 1581 1856 
Q 1384 1759 1236 1662 
Q 1088 1566 992 1462 
Q 897 1359 848 1245 
Q 800 1131 800 994 
Q 800 691 1008 525 
Q 1216 359 1628 359 
Q 2028 359 2233 526 
Q 2438 694 2438 981 
z
" transform="scale(0.015625)"/>
       </defs>
       <use xlink:href="#Calibri-38"/>
       <use xlink:href="#Calibri-30" x="50.683594"/>
      </g>
     </g>
    </g>
   </g>
   <g id="matplotlib.axis_4">
    <g id="ytick_4">
     <g id="line2d_12">
      <g>
       <use xlink:href="#mc16a18d78e" x="141.771454" y="96.174947" style="stroke: #000000; stroke-width: 0.8"/>
      </g>
     </g>
     <g id="text_12">
      <!-- 0 -->
      <g transform="translate(128.688954 100.255884) scale(0.12 -0.12)">
       <use xlink:href="#Calibri-30"/>
      </g>
     </g>
    </g>
    <g id="ytick_5">
     <g id="line2d_13">
      <g>
       <use xlink:href="#mc16a18d78e" x="141.771454" y="76.611148" style="stroke: #000000; stroke-width: 0.8"/>
      </g>
     </g>
     <g id="text_13">
      <!-- 20 -->
      <g transform="translate(122.606454 80.692085) scale(0.12 -0.12)">
       <defs>
        <path id="Calibri-32" d="M 2888 231 
Q 2888 175 2880 131 
Q 2872 88 2858 58 
Q 2844 28 2820 14 
Q 2797 0 2769 0 
L 534 0 
Q 491 0 458 11 
Q 425 22 401 47 
Q 378 72 367 119 
Q 356 166 356 234 
Q 356 297 361 344 
Q 366 391 381 427 
Q 397 463 420 498 
Q 444 534 481 575 
L 1266 1406 
Q 1538 1694 1702 1922 
Q 1866 2150 1955 2337 
Q 2044 2525 2072 2678 
Q 2100 2831 2100 2966 
Q 2100 3100 2056 3220 
Q 2013 3341 1930 3431 
Q 1847 3522 1722 3575 
Q 1597 3628 1434 3628 
Q 1244 3628 1092 3575 
Q 941 3522 827 3459 
Q 713 3397 636 3344 
Q 559 3291 522 3291 
Q 500 3291 483 3303 
Q 466 3316 455 3344 
Q 444 3372 437 3419 
Q 431 3466 431 3531 
Q 431 3578 434 3612 
Q 438 3647 445 3672 
Q 453 3697 465 3719 
Q 478 3741 515 3773 
Q 553 3806 645 3862 
Q 738 3919 877 3973 
Q 1016 4028 1183 4065 
Q 1350 4103 1534 4103 
Q 1828 4103 2048 4020 
Q 2269 3938 2414 3794 
Q 2559 3650 2631 3459 
Q 2703 3269 2703 3053 
Q 2703 2859 2668 2667 
Q 2634 2475 2523 2251 
Q 2413 2028 2203 1754 
Q 1994 1481 1647 1125 
L 1006 456 
L 2766 456 
Q 2791 456 2814 442 
Q 2838 428 2855 400 
Q 2872 372 2880 330 
Q 2888 288 2888 231 
z
" transform="scale(0.015625)"/>
       </defs>
       <use xlink:href="#Calibri-32"/>
       <use xlink:href="#Calibri-30" x="50.683594"/>
      </g>
     </g>
    </g>
    <g id="ytick_6">
     <g id="line2d_14">
      <g>
       <use xlink:href="#mc16a18d78e" x="141.771454" y="57.047349" style="stroke: #000000; stroke-width: 0.8"/>
      </g>
     </g>
     <g id="text_14">
      <!-- 40 -->
      <g transform="translate(122.606454 61.128287) scale(0.12 -0.12)">
       <use xlink:href="#Calibri-34"/>
       <use xlink:href="#Calibri-30" x="50.683594"/>
      </g>
     </g>
    </g>
    <g id="ytick_7">
     <g id="line2d_15">
      <g>
       <use xlink:href="#mc16a18d78e" x="141.771454" y="37.48355" style="stroke: #000000; stroke-width: 0.8"/>
      </g>
     </g>
     <g id="text_15">
      <!-- 60 -->
      <g transform="translate(122.606454 41.564488) scale(0.12 -0.12)">
       <use xlink:href="#Calibri-36"/>
       <use xlink:href="#Calibri-30" x="50.683594"/>
      </g>
     </g>
    </g>
   </g>
   <g id="line2d_16">
    <path d="M 144.933745 81.705601 
L 145.572592 81.484273 
L 146.211439 81.262945 
L 146.850285 81.041617 
L 147.489132 80.820289 
L 148.127979 80.598961 
L 148.766825 80.377634 
L 149.405672 80.156306 
L 150.044519 79.934978 
L 150.683365 79.71365 
L 151.322212 79.492322 
L 151.961059 79.270994 
L 152.599905 79.049667 
L 153.238752 78.828339 
L 153.877599 78.607011 
L 154.516445 78.385683 
L 155.155292 78.164355 
L 155.794139 77.943027 
L 156.432986 77.7217 
L 157.071832 77.500372 
L 157.710679 77.279044 
L 158.349526 77.057716 
L 158.988372 76.836388 
L 159.627219 76.615061 
L 160.266066 76.393733 
L 160.904912 76.172405 
L 161.543759 75.951077 
L 162.182606 75.729749 
L 162.821452 75.508421 
L 163.460299 75.287094 
L 164.099146 75.065766 
L 164.737992 74.844438 
L 165.376839 74.62311 
L 166.015686 74.401782 
L 166.654533 74.180454 
L 167.293379 73.959127 
L 167.932226 73.737799 
L 168.571073 73.516471 
L 169.209919 73.295143 
L 169.848766 73.073815 
L 170.487613 72.852488 
L 171.126459 72.63116 
L 171.765306 72.409832 
L 172.404153 72.188504 
L 173.042999 71.967176 
L 173.681846 71.745848 
L 174.320693 71.524521 
L 174.959539 71.303193 
L 175.598386 71.081865 
L 176.237233 70.860537 
L 176.87608 70.639209 
L 177.514926 70.417881 
L 178.153773 70.196554 
L 178.79262 69.975226 
L 179.431466 69.753898 
L 180.070313 69.53257 
L 180.70916 69.311242 
L 181.348006 69.089915 
L 181.986853 68.868587 
L 182.6257 68.647259 
L 183.264546 68.425931 
L 183.903393 68.204603 
L 184.54224 67.983275 
L 185.181087 67.761948 
L 185.819933 67.54062 
L 186.45878 67.319292 
L 187.097627 67.097964 
L 187.736473 66.876636 
L 188.37532 66.655308 
L 189.014167 66.433981 
L 189.653013 66.212653 
L 190.29186 65.991325 
L 190.930707 65.769997 
L 191.569553 65.548669 
L 192.2084 65.327342 
L 192.847247 65.106014 
L 193.486093 64.884686 
L 194.12494 64.663358 
L 194.763787 64.44203 
L 195.402634 64.220702 
L 196.04148 63.999375 
L 196.680327 63.778047 
L 197.319174 63.556719 
L 197.95802 63.335391 
L 198.596867 63.114063 
L 199.235714 62.892735 
L 199.87456 62.671408 
L 200.513407 62.45008 
L 201.152254 62.228752 
L 201.7911 62.007424 
L 202.429947 61.786096 
L 203.068794 61.564768 
L 203.70764 61.343441 
L 204.346487 61.122113 
L 204.985334 60.900785 
L 205.624181 60.679457 
L 206.263027 60.458129 
L 206.901874 60.236802 
L 207.540721 60.015474 
L 208.179567 59.794146 
" clip-path="url(#p7f8cfc2205)" style="fill: none; stroke-dasharray: 5.55,2.4; stroke-dashoffset: 0; stroke: #000000; stroke-width: 1.5"/>
   </g>
   <g id="line2d_17">
    <path d="M 144.933745 81.143264 
L 145.572592 80.918441 
L 146.211439 80.693618 
L 146.850285 80.468794 
L 147.489132 80.243971 
L 148.127979 80.019148 
L 148.766825 79.794324 
L 149.405672 79.569501 
L 150.044519 79.344678 
L 150.683365 79.119854 
L 151.322212 78.895031 
L 151.961059 78.670208 
L 152.599905 78.445384 
L 153.238752 78.220561 
L 153.877599 77.995738 
L 154.516445 77.770915 
L 155.155292 77.546091 
L 155.794139 77.321268 
L 156.432986 77.096445 
L 157.071832 76.871621 
L 157.710679 76.646798 
L 158.349526 76.421975 
L 158.988372 76.197151 
L 159.627219 75.972328 
L 160.266066 75.747505 
L 160.904912 75.522681 
L 161.543759 75.297858 
L 162.182606 75.073035 
L 162.821452 74.848211 
L 163.460299 74.623388 
L 164.099146 74.398565 
L 164.737992 74.173742 
L 165.376839 73.948918 
L 166.015686 73.724095 
L 166.654533 73.499272 
L 167.293379 73.274448 
L 167.932226 73.049625 
L 168.571073 72.824802 
L 169.209919 72.599978 
L 169.848766 72.375155 
L 170.487613 72.150332 
L 171.126459 71.925508 
L 171.765306 71.700685 
L 172.404153 71.475862 
L 173.042999 71.251039 
L 173.681846 71.026215 
L 174.320693 70.801392 
L 174.959539 70.576569 
L 175.598386 70.351745 
L 176.237233 70.126922 
L 176.87608 69.902099 
L 177.514926 69.677275 
L 178.153773 69.452452 
L 178.79262 69.227629 
L 179.431466 69.002805 
L 180.070313 68.777982 
L 180.70916 68.553159 
L 181.348006 68.328335 
L 181.986853 68.103512 
L 182.6257 67.878689 
L 183.264546 67.653866 
L 183.903393 67.429042 
L 184.54224 67.204219 
L 185.181087 66.979396 
L 185.819933 66.754572 
L 186.45878 66.529749 
L 187.097627 66.304926 
L 187.736473 66.080102 
L 188.37532 65.855279 
L 189.014167 65.630456 
L 189.653013 65.405632 
L 190.29186 65.180809 
L 190.930707 64.955986 
L 191.569553 64.731163 
L 192.2084 64.506339 
L 192.847247 64.281516 
L 193.486093 64.056693 
L 194.12494 63.831869 
L 194.763787 63.607046 
L 195.402634 63.382223 
L 196.04148 63.157399 
L 196.680327 62.932576 
L 197.319174 62.707753 
L 197.95802 62.482929 
L 198.596867 62.258106 
L 199.235714 62.033283 
L 199.87456 61.808459 
L 200.513407 61.583636 
L 201.152254 61.358813 
L 201.7911 61.13399 
L 202.429947 60.909166 
L 203.068794 60.684343 
L 203.70764 60.45952 
L 204.346487 60.234696 
L 204.985334 60.009873 
L 205.624181 59.78505 
L 206.263027 59.560226 
L 206.901874 59.335403 
L 207.540721 59.11058 
L 208.179567 58.885756 
" clip-path="url(#p7f8cfc2205)" style="fill: none; stroke: #000000; stroke-width: 1.5; stroke-linecap: square"/>
   </g>
   <g id="patch_6">
    <path d="M 141.771454 106.299213 
L 141.771454 34.206614 
" style="fill: none; stroke: #000000; stroke-width: 0.8; stroke-linejoin: miter; stroke-linecap: square"/>
   </g>
   <g id="patch_7">
    <path d="M 141.771454 106.299213 
L 211.341858 106.299213 
" style="fill: none; stroke: #000000; stroke-width: 0.8; stroke-linejoin: miter; stroke-linecap: square"/>
   </g>
   <g id="text_16">
    <!-- FM-UE -->
    <g transform="translate(160.053844 28.206614) scale(0.12 -0.12)">
     <defs>
      <path id="Calibri-55" d="M 3578 1494 
Q 3578 1125 3470 836 
Q 3363 547 3163 347 
Q 2963 147 2675 44 
Q 2388 -59 2022 -59 
Q 1688 -59 1413 37 
Q 1138 134 941 323 
Q 744 513 637 797 
Q 531 1081 531 1453 
L 531 3963 
Q 531 3988 543 4006 
Q 556 4025 587 4036 
Q 619 4047 669 4055 
Q 719 4063 800 4063 
Q 875 4063 928 4055 
Q 981 4047 1011 4036 
Q 1041 4025 1053 4006 
Q 1066 3988 1066 3963 
L 1066 1519 
Q 1066 1238 1134 1028 
Q 1203 819 1333 680 
Q 1463 541 1645 470 
Q 1828 400 2056 400 
Q 2291 400 2473 469 
Q 2656 538 2782 675 
Q 2909 813 2976 1016 
Q 3044 1219 3044 1491 
L 3044 3963 
Q 3044 3988 3056 4006 
Q 3069 4025 3100 4036 
Q 3131 4047 3182 4055 
Q 3234 4063 3313 4063 
Q 3388 4063 3439 4055 
Q 3491 4047 3520 4036 
Q 3550 4025 3564 4006 
Q 3578 3988 3578 3963 
L 3578 1494 
z
" transform="scale(0.015625)"/>
     </defs>
     <use xlink:href="#Calibri-46"/>
     <use xlink:href="#Calibri-4d" x="45.947266"/>
     <use xlink:href="#Calibri-2d" x="131.445312"/>
     <use xlink:href="#Calibri-55" x="162.060547"/>
     <use xlink:href="#Calibri-45" x="226.220703"/>
    </g>
   </g>
  </g>
  <g id="axes_3">
   <g id="patch_8">
    <path d="M 237.082908 106.299213 
L 306.653312 106.299213 
L 306.653312 34.206614 
L 237.082908 34.206614 
z
" style="fill: #ffffff"/>
   </g>
   <g id="PathCollection_5">
    <g clip-path="url(#p6b41ce4be8)">
     <use xlink:href="#m46897d8e74" x="287.679566" y="49.772062" style="fill: #ff0000; fill-opacity: 0.6; stroke: #ff0000; stroke-opacity: 0.6"/>
     <use xlink:href="#m46897d8e74" x="303.491021" y="103.022276" style="fill: #ff0000; fill-opacity: 0.6; stroke: #ff0000; stroke-opacity: 0.6"/>
     <use xlink:href="#m46897d8e74" x="240.245199" y="49.772062" style="fill: #ff0000; fill-opacity: 0.6; stroke: #ff0000; stroke-opacity: 0.6"/>
     <use xlink:href="#m46897d8e74" x="271.86811" y="53.868232" style="fill: #ff0000; fill-opacity: 0.6; stroke: #ff0000; stroke-opacity: 0.6"/>
     <use xlink:href="#m46897d8e74" x="303.491021" y="37.48355" style="fill: #ff0000; fill-opacity: 0.6; stroke: #ff0000; stroke-opacity: 0.6"/>
     <use xlink:href="#m46897d8e74" x="271.86811" y="41.579721" style="fill: #ff0000; fill-opacity: 0.6; stroke: #ff0000; stroke-opacity: 0.6"/>
     <use xlink:href="#m46897d8e74" x="303.491021" y="45.675891" style="fill: #ff0000; fill-opacity: 0.6; stroke: #ff0000; stroke-opacity: 0.6"/>
     <use xlink:href="#m46897d8e74" x="303.491021" y="49.772062" style="fill: #ff0000; fill-opacity: 0.6; stroke: #ff0000; stroke-opacity: 0.6"/>
     <use xlink:href="#m46897d8e74" x="303.491021" y="78.445254" style="fill: #ff0000; fill-opacity: 0.6; stroke: #ff0000; stroke-opacity: 0.6"/>
     <use xlink:href="#m46897d8e74" x="303.491021" y="86.637595" style="fill: #ff0000; fill-opacity: 0.6; stroke: #ff0000; stroke-opacity: 0.6"/>
     <use xlink:href="#m46897d8e74" x="303.491021" y="74.349084" style="fill: #ff0000; fill-opacity: 0.6; stroke: #ff0000; stroke-opacity: 0.6"/>
     <use xlink:href="#m46897d8e74" x="240.245199" y="49.772062" style="fill: #ff0000; fill-opacity: 0.6; stroke: #ff0000; stroke-opacity: 0.6"/>
     <use xlink:href="#m46897d8e74" x="287.679566" y="37.48355" style="fill: #ff0000; fill-opacity: 0.6; stroke: #ff0000; stroke-opacity: 0.6"/>
     <use xlink:href="#m46897d8e74" x="287.679566" y="37.48355" style="fill: #ff0000; fill-opacity: 0.6; stroke: #ff0000; stroke-opacity: 0.6"/>
     <use xlink:href="#m46897d8e74" x="271.86811" y="66.156743" style="fill: #ff0000; fill-opacity: 0.6; stroke: #ff0000; stroke-opacity: 0.6"/>
    </g>
   </g>
   <g id="PathCollection_6"/>
   <g id="matplotlib.axis_5">
    <g id="xtick_7">
     <g id="line2d_18">
      <g>
       <use xlink:href="#m81a988f9c2" x="249.732072" y="106.299213" style="stroke: #000000; stroke-width: 0.8"/>
      </g>
     </g>
     <g id="text_17">
      <!-- 78 -->
      <g transform="translate(243.649572 121.461088) scale(0.12 -0.12)">
       <use xlink:href="#Calibri-37"/>
       <use xlink:href="#Calibri-38" x="50.683594"/>
      </g>
     </g>
    </g>
    <g id="xtick_8">
     <g id="line2d_19">
      <g>
       <use xlink:href="#m81a988f9c2" x="268.705819" y="106.299213" style="stroke: #000000; stroke-width: 0.8"/>
      </g>
     </g>
     <g id="text_18">
      <!-- 84 -->
      <g transform="translate(262.623319 121.461088) scale(0.12 -0.12)">
       <use xlink:href="#Calibri-38"/>
       <use xlink:href="#Calibri-34" x="50.683594"/>
      </g>
     </g>
    </g>
    <g id="xtick_9">
     <g id="line2d_20">
      <g>
       <use xlink:href="#m81a988f9c2" x="287.679566" y="106.299213" style="stroke: #000000; stroke-width: 0.8"/>
      </g>
     </g>
     <g id="text_19">
      <!-- 90 -->
      <g transform="translate(281.597066 121.461088) scale(0.12 -0.12)">
       <defs>
        <path id="Calibri-39" d="M 2919 2181 
Q 2919 1919 2887 1650 
Q 2856 1381 2781 1132 
Q 2706 884 2579 667 
Q 2453 450 2261 287 
Q 2069 125 1805 33 
Q 1541 -59 1191 -59 
Q 1056 -59 929 -42 
Q 803 -25 701 0 
Q 600 25 531 53 
Q 463 81 431 109 
Q 400 138 386 186 
Q 372 234 372 316 
Q 372 384 376 425 
Q 381 466 390 487 
Q 400 509 417 517 
Q 434 525 459 525 
Q 494 525 556 501 
Q 619 478 714 450 
Q 809 422 937 398 
Q 1066 375 1225 375 
Q 1528 375 1745 492 
Q 1963 609 2100 806 
Q 2238 1003 2306 1262 
Q 2375 1522 2381 1809 
Q 2216 1713 1984 1638 
Q 1753 1563 1453 1563 
Q 1116 1563 886 1655 
Q 656 1747 517 1906 
Q 378 2066 317 2284 
Q 256 2503 256 2763 
Q 256 3031 334 3273 
Q 413 3516 578 3700 
Q 744 3884 1000 3993 
Q 1256 4103 1613 4103 
Q 1866 4103 2061 4039 
Q 2256 3975 2400 3854 
Q 2544 3734 2644 3564 
Q 2744 3394 2805 3178 
Q 2866 2963 2892 2711 
Q 2919 2459 2919 2181 
z
M 2372 2241 
Q 2372 2641 2319 2914 
Q 2266 3188 2162 3356 
Q 2059 3525 1909 3600 
Q 1759 3675 1563 3675 
Q 1359 3675 1215 3601 
Q 1072 3528 980 3404 
Q 888 3281 844 3125 
Q 800 2969 800 2803 
Q 800 2619 839 2466 
Q 878 2313 965 2206 
Q 1053 2100 1193 2042 
Q 1334 1984 1541 1984 
Q 1775 1984 1994 2054 
Q 2213 2125 2372 2241 
z
" transform="scale(0.015625)"/>
       </defs>
       <use xlink:href="#Calibri-39"/>
       <use xlink:href="#Calibri-30" x="50.683594"/>
      </g>
     </g>
    </g>
    <g id="xtick_10">
     <g id="line2d_21">
      <g>
       <use xlink:href="#m81a988f9c2" x="306.653312" y="106.299213" style="stroke: #000000; stroke-width: 0.8"/>
      </g>
     </g>
     <g id="text_20">
      <!-- 96 -->
      <g transform="translate(300.570812 121.461088) scale(0.12 -0.12)">
       <use xlink:href="#Calibri-39"/>
       <use xlink:href="#Calibri-36" x="50.683594"/>
      </g>
     </g>
    </g>
   </g>
   <g id="matplotlib.axis_6">
    <g id="ytick_8">
     <g id="line2d_22">
      <g>
       <use xlink:href="#mc16a18d78e" x="237.082908" y="90.733765" style="stroke: #000000; stroke-width: 0.8"/>
      </g>
     </g>
     <g id="text_21">
      <!-- 25 -->
      <g transform="translate(217.917908 94.814703) scale(0.12 -0.12)">
       <use xlink:href="#Calibri-32"/>
       <use xlink:href="#Calibri-35" x="50.683594"/>
      </g>
     </g>
    </g>
    <g id="ytick_9">
     <g id="line2d_23">
      <g>
       <use xlink:href="#mc16a18d78e" x="237.082908" y="70.252913" style="stroke: #000000; stroke-width: 0.8"/>
      </g>
     </g>
     <g id="text_22">
      <!-- 50 -->
      <g transform="translate(217.917908 74.333851) scale(0.12 -0.12)">
       <use xlink:href="#Calibri-35"/>
       <use xlink:href="#Calibri-30" x="50.683594"/>
      </g>
     </g>
    </g>
    <g id="ytick_10">
     <g id="line2d_24">
      <g>
       <use xlink:href="#mc16a18d78e" x="237.082908" y="49.772062" style="stroke: #000000; stroke-width: 0.8"/>
      </g>
     </g>
     <g id="text_23">
      <!-- 75 -->
      <g transform="translate(217.917908 53.852999) scale(0.12 -0.12)">
       <use xlink:href="#Calibri-37"/>
       <use xlink:href="#Calibri-35" x="50.683594"/>
      </g>
     </g>
    </g>
   </g>
   <g id="line2d_25">
    <path d="M 240.245199 58.736294 
L 240.884046 58.620442 
L 241.522893 58.504591 
L 242.161739 58.38874 
L 242.800586 58.272889 
L 243.439433 58.157037 
L 244.078279 58.041186 
L 244.717126 57.925335 
L 245.355973 57.809483 
L 245.994819 57.693632 
L 246.633666 57.577781 
L 247.272513 57.46193 
L 247.911359 57.346078 
L 248.550206 57.230227 
L 249.189053 57.114376 
L 249.827899 56.998524 
L 250.466746 56.882673 
L 251.105593 56.766822 
L 251.74444 56.650971 
L 252.383286 56.535119 
L 253.022133 56.419268 
L 253.66098 56.303417 
L 254.299826 56.187565 
L 254.938673 56.071714 
L 255.57752 55.955863 
L 256.216366 55.840012 
L 256.855213 55.72416 
L 257.49406 55.608309 
L 258.132906 55.492458 
L 258.771753 55.376606 
L 259.4106 55.260755 
L 260.049446 55.144904 
L 260.688293 55.029053 
L 261.32714 54.913201 
L 261.965987 54.79735 
L 262.604833 54.681499 
L 263.24368 54.565648 
L 263.882527 54.449796 
L 264.521373 54.333945 
L 265.16022 54.218094 
L 265.799067 54.102242 
L 266.437913 53.986391 
L 267.07676 53.87054 
L 267.715607 53.754689 
L 268.354453 53.638837 
L 268.9933 53.522986 
L 269.632147 53.407135 
L 270.270994 53.291283 
L 270.90984 53.175432 
L 271.548687 53.059581 
L 272.187534 52.94373 
L 272.82638 52.827878 
L 273.465227 52.712027 
L 274.104074 52.596176 
L 274.74292 52.480324 
L 275.381767 52.364473 
L 276.020614 52.248622 
L 276.65946 52.132771 
L 277.298307 52.016919 
L 277.937154 51.901068 
L 278.576 51.785217 
L 279.214847 51.669365 
L 279.853694 51.553514 
L 280.492541 51.437663 
L 281.131387 51.321812 
L 281.770234 51.20596 
L 282.409081 51.090109 
L 283.047927 50.974258 
L 283.686774 50.858406 
L 284.325621 50.742555 
L 284.964467 50.626704 
L 285.603314 50.510853 
L 286.242161 50.395001 
L 286.881007 50.27915 
L 287.519854 50.163299 
L 288.158701 50.047447 
L 288.797547 49.931596 
L 289.436394 49.815745 
L 290.075241 49.699894 
L 290.714088 49.584042 
L 291.352934 49.468191 
L 291.991781 49.35234 
L 292.630628 49.236488 
L 293.269474 49.120637 
L 293.908321 49.004786 
L 294.547168 48.888935 
L 295.186014 48.773083 
L 295.824861 48.657232 
L 296.463708 48.541381 
L 297.102554 48.425529 
L 297.741401 48.309678 
L 298.380248 48.193827 
L 299.019095 48.077976 
L 299.657941 47.962124 
L 300.296788 47.846273 
L 300.935635 47.730422 
L 301.574481 47.614571 
L 302.213328 47.498719 
L 302.852175 47.382868 
L 303.491021 47.267017 
" clip-path="url(#p6b41ce4be8)" style="fill: none; stroke-dasharray: 5.55,2.4; stroke-dashoffset: 0; stroke: #000000; stroke-width: 1.5"/>
   </g>
   <g id="line2d_26">
    <path d="M 240.245199 57.470392 
L 240.884046 57.351131 
L 241.522893 57.23187 
L 242.161739 57.112608 
L 242.800586 56.993347 
L 243.439433 56.874086 
L 244.078279 56.754825 
L 244.717126 56.635564 
L 245.355973 56.516303 
L 245.994819 56.397042 
L 246.633666 56.277781 
L 247.272513 56.158519 
L 247.911359 56.039258 
L 248.550206 55.919997 
L 249.189053 55.800736 
L 249.827899 55.681475 
L 250.466746 55.562214 
L 251.105593 55.442953 
L 251.74444 55.323692 
L 252.383286 55.204431 
L 253.022133 55.085169 
L 253.66098 54.965908 
L 254.299826 54.846647 
L 254.938673 54.727386 
L 255.57752 54.608125 
L 256.216366 54.488864 
L 256.855213 54.369603 
L 257.49406 54.250342 
L 258.132906 54.13108 
L 258.771753 54.011819 
L 259.4106 53.892558 
L 260.049446 53.773297 
L 260.688293 53.654036 
L 261.32714 53.534775 
L 261.965987 53.415514 
L 262.604833 53.296253 
L 263.24368 53.176991 
L 263.882527 53.05773 
L 264.521373 52.938469 
L 265.16022 52.819208 
L 265.799067 52.699947 
L 266.437913 52.580686 
L 267.07676 52.461425 
L 267.715607 52.342164 
L 268.354453 52.222903 
L 268.9933 52.103641 
L 269.632147 51.98438 
L 270.270994 51.865119 
L 270.90984 51.745858 
L 271.548687 51.626597 
L 272.187534 51.507336 
L 272.82638 51.388075 
L 273.465227 51.268814 
L 274.104074 51.149552 
L 274.74292 51.030291 
L 275.381767 50.91103 
L 276.020614 50.791769 
L 276.65946 50.672508 
L 277.298307 50.553247 
L 277.937154 50.433986 
L 278.576 50.314725 
L 279.214847 50.195463 
L 279.853694 50.076202 
L 280.492541 49.956941 
L 281.131387 49.83768 
L 281.770234 49.718419 
L 282.409081 49.599158 
L 283.047927 49.479897 
L 283.686774 49.360636 
L 284.325621 49.241375 
L 284.964467 49.122113 
L 285.603314 49.002852 
L 286.242161 48.883591 
L 286.881007 48.76433 
L 287.519854 48.645069 
L 288.158701 48.525808 
L 288.797547 48.406547 
L 289.436394 48.287286 
L 290.075241 48.168024 
L 290.714088 48.048763 
L 291.352934 47.929502 
L 291.991781 47.810241 
L 292.630628 47.69098 
L 293.269474 47.571719 
L 293.908321 47.452458 
L 294.547168 47.333197 
L 295.186014 47.213935 
L 295.824861 47.094674 
L 296.463708 46.975413 
L 297.102554 46.856152 
L 297.741401 46.736891 
L 298.380248 46.61763 
L 299.019095 46.498369 
L 299.657941 46.379108 
L 300.296788 46.259847 
L 300.935635 46.140585 
L 301.574481 46.021324 
L 302.213328 45.902063 
L 302.852175 45.782802 
L 303.491021 45.663541 
" clip-path="url(#p6b41ce4be8)" style="fill: none; stroke: #000000; stroke-width: 1.5; stroke-linecap: square"/>
   </g>
   <g id="patch_9">
    <path d="M 237.082908 106.299213 
L 237.082908 34.206614 
" style="fill: none; stroke: #000000; stroke-width: 0.8; stroke-linejoin: miter; stroke-linecap: square"/>
   </g>
   <g id="patch_10">
    <path d="M 237.082908 106.299213 
L 306.653312 106.299213 
" style="fill: none; stroke: #000000; stroke-width: 0.8; stroke-linejoin: miter; stroke-linecap: square"/>
   </g>
   <g id="text_24">
    <!-- BI -->
    <g transform="translate(267.092485 28.206614) scale(0.12 -0.12)">
     <defs>
      <path id="Calibri-42" d="M 3203 1159 
Q 3203 969 3154 808 
Q 3106 647 3018 519 
Q 2931 391 2807 294 
Q 2684 197 2529 131 
Q 2375 66 2198 33 
Q 2022 0 1794 0 
L 738 0 
Q 666 0 602 48 
Q 538 97 538 219 
L 538 3825 
Q 538 3947 602 3995 
Q 666 4044 738 4044 
L 1656 4044 
Q 2019 4044 2250 3975 
Q 2481 3906 2636 3775 
Q 2791 3644 2869 3453 
Q 2947 3263 2947 3022 
Q 2947 2878 2912 2747 
Q 2878 2616 2811 2505 
Q 2744 2394 2642 2306 
Q 2541 2219 2409 2163 
Q 2575 2131 2719 2048 
Q 2863 1966 2970 1837 
Q 3078 1709 3140 1537 
Q 3203 1366 3203 1159 
z
M 2394 2969 
Q 2394 3116 2353 3234 
Q 2313 3353 2225 3436 
Q 2138 3519 1997 3562 
Q 1856 3606 1625 3606 
L 1069 3606 
L 1069 2297 
L 1681 2297 
Q 1891 2297 2019 2351 
Q 2147 2406 2231 2498 
Q 2316 2591 2355 2714 
Q 2394 2838 2394 2969 
z
M 2638 1128 
Q 2638 1309 2580 1446 
Q 2522 1584 2411 1678 
Q 2300 1772 2133 1820 
Q 1966 1869 1713 1869 
L 1069 1869 
L 1069 444 
L 1850 444 
Q 2034 444 2171 487 
Q 2309 531 2414 617 
Q 2519 703 2578 831 
Q 2638 959 2638 1128 
z
" transform="scale(0.015625)"/>
      <path id="Calibri-49" d="M 1075 81 
Q 1075 56 1062 37 
Q 1050 19 1019 8 
Q 988 -3 936 -11 
Q 884 -19 806 -19 
Q 731 -19 678 -11 
Q 625 -3 594 8 
Q 563 19 550 37 
Q 538 56 538 81 
L 538 3963 
Q 538 3988 552 4006 
Q 566 4025 598 4036 
Q 631 4047 682 4055 
Q 734 4063 806 4063 
Q 884 4063 936 4055 
Q 988 4047 1019 4036 
Q 1050 4025 1062 4006 
Q 1075 3988 1075 3963 
L 1075 81 
z
" transform="scale(0.015625)"/>
     </defs>
     <use xlink:href="#Calibri-42"/>
     <use xlink:href="#Calibri-49" x="54.394531"/>
    </g>
   </g>
  </g>
  <g id="axes_4">
   <g id="patch_11">
    <path d="M 332.394362 106.299213 
L 401.964766 106.299213 
L 401.964766 34.206614 
L 332.394362 34.206614 
z
" style="fill: #ffffff"/>
   </g>
   <g id="PathCollection_7">
    <g clip-path="url(#pc7a2e92da8)">
     <use xlink:href="#m46897d8e74" x="398.802475" y="37.48355" style="fill: #ff0000; fill-opacity: 0.6; stroke: #ff0000; stroke-opacity: 0.6"/>
     <use xlink:href="#m46897d8e74" x="398.802475" y="103.022276" style="fill: #ff0000; fill-opacity: 0.6; stroke: #ff0000; stroke-opacity: 0.6"/>
     <use xlink:href="#m46897d8e74" x="398.802475" y="37.48355" style="fill: #ff0000; fill-opacity: 0.6; stroke: #ff0000; stroke-opacity: 0.6"/>
     <use xlink:href="#m46897d8e74" x="335.556653" y="37.48355" style="fill: #ff0000; fill-opacity: 0.6; stroke: #ff0000; stroke-opacity: 0.6"/>
     <use xlink:href="#m46897d8e74" x="398.802475" y="37.48355" style="fill: #ff0000; fill-opacity: 0.6; stroke: #ff0000; stroke-opacity: 0.6"/>
     <use xlink:href="#m46897d8e74" x="398.802475" y="37.48355" style="fill: #ff0000; fill-opacity: 0.6; stroke: #ff0000; stroke-opacity: 0.6"/>
     <use xlink:href="#m46897d8e74" x="398.802475" y="59.329792" style="fill: #ff0000; fill-opacity: 0.6; stroke: #ff0000; stroke-opacity: 0.6"/>
     <use xlink:href="#m46897d8e74" x="398.802475" y="37.48355" style="fill: #ff0000; fill-opacity: 0.6; stroke: #ff0000; stroke-opacity: 0.6"/>
     <use xlink:href="#m46897d8e74" x="398.802475" y="81.176034" style="fill: #ff0000; fill-opacity: 0.6; stroke: #ff0000; stroke-opacity: 0.6"/>
     <use xlink:href="#m46897d8e74" x="398.802475" y="81.176034" style="fill: #ff0000; fill-opacity: 0.6; stroke: #ff0000; stroke-opacity: 0.6"/>
     <use xlink:href="#m46897d8e74" x="398.802475" y="59.329792" style="fill: #ff0000; fill-opacity: 0.6; stroke: #ff0000; stroke-opacity: 0.6"/>
     <use xlink:href="#m46897d8e74" x="335.556653" y="59.329792" style="fill: #ff0000; fill-opacity: 0.6; stroke: #ff0000; stroke-opacity: 0.6"/>
     <use xlink:href="#m46897d8e74" x="398.802475" y="59.329792" style="fill: #ff0000; fill-opacity: 0.6; stroke: #ff0000; stroke-opacity: 0.6"/>
     <use xlink:href="#m46897d8e74" x="398.802475" y="37.48355" style="fill: #ff0000; fill-opacity: 0.6; stroke: #ff0000; stroke-opacity: 0.6"/>
     <use xlink:href="#m46897d8e74" x="398.802475" y="59.329792" style="fill: #ff0000; fill-opacity: 0.6; stroke: #ff0000; stroke-opacity: 0.6"/>
    </g>
   </g>
   <g id="PathCollection_8"/>
   <g id="matplotlib.axis_7">
    <g id="xtick_11">
     <g id="line2d_27">
      <g>
       <use xlink:href="#m81a988f9c2" x="335.556653" y="106.299213" style="stroke: #000000; stroke-width: 0.8"/>
      </g>
     </g>
     <g id="text_25">
      <!-- 4 -->
      <g transform="translate(332.515403 121.461088) scale(0.12 -0.12)">
       <use xlink:href="#Calibri-34"/>
      </g>
     </g>
    </g>
    <g id="xtick_12">
     <g id="line2d_28">
      <g>
       <use xlink:href="#m81a988f9c2" x="398.802475" y="106.299213" style="stroke: #000000; stroke-width: 0.8"/>
      </g>
     </g>
     <g id="text_26">
      <!-- 5 -->
      <g transform="translate(395.761225 121.461088) scale(0.12 -0.12)">
       <use xlink:href="#Calibri-35"/>
      </g>
     </g>
    </g>
   </g>
   <g id="matplotlib.axis_8">
    <g id="ytick_11">
     <g id="line2d_29">
      <g>
       <use xlink:href="#mc16a18d78e" x="332.394362" y="103.022276" style="stroke: #000000; stroke-width: 0.8"/>
      </g>
     </g>
     <g id="text_27">
      <!-- 0 -->
      <g transform="translate(319.311862 107.103214) scale(0.12 -0.12)">
       <use xlink:href="#Calibri-30"/>
      </g>
     </g>
    </g>
    <g id="ytick_12">
     <g id="line2d_30">
      <g>
       <use xlink:href="#mc16a18d78e" x="332.394362" y="59.329792" style="stroke: #000000; stroke-width: 0.8"/>
      </g>
     </g>
     <g id="text_28">
      <!-- 2 -->
      <g transform="translate(319.311862 63.41073) scale(0.12 -0.12)">
       <use xlink:href="#Calibri-32"/>
      </g>
     </g>
    </g>
   </g>
   <g id="line2d_31">
    <path d="M 335.556653 52.83081 
L 336.1955 52.676342 
L 336.834347 52.521873 
L 337.473193 52.367405 
L 338.11204 52.212936 
L 338.750887 52.058468 
L 339.389733 51.904 
L 340.02858 51.749531 
L 340.667427 51.595063 
L 341.306273 51.440594 
L 341.94512 51.286126 
L 342.583967 51.131658 
L 343.222813 50.977189 
L 343.86166 50.822721 
L 344.500507 50.668253 
L 345.139353 50.513784 
L 345.7782 50.359316 
L 346.417047 50.204847 
L 347.055894 50.050379 
L 347.69474 49.895911 
L 348.333587 49.741442 
L 348.972434 49.586974 
L 349.61128 49.432506 
L 350.250127 49.278037 
L 350.888974 49.123569 
L 351.52782 48.9691 
L 352.166667 48.814632 
L 352.805514 48.660164 
L 353.44436 48.505695 
L 354.083207 48.351227 
L 354.722054 48.196759 
L 355.360901 48.04229 
L 355.999747 47.887822 
L 356.638594 47.733353 
L 357.277441 47.578885 
L 357.916287 47.424417 
L 358.555134 47.269948 
L 359.193981 47.11548 
L 359.832827 46.961012 
L 360.471674 46.806543 
L 361.110521 46.652075 
L 361.749367 46.497606 
L 362.388214 46.343138 
L 363.027061 46.18867 
L 363.665907 46.034201 
L 364.304754 45.879733 
L 364.943601 45.725265 
L 365.582448 45.570796 
L 366.221294 45.416328 
L 366.860141 45.261859 
L 367.498988 45.107391 
L 368.137834 44.952923 
L 368.776681 44.798454 
L 369.415528 44.643986 
L 370.054374 44.489518 
L 370.693221 44.335049 
L 371.332068 44.180581 
L 371.970914 44.026112 
L 372.609761 43.871644 
L 373.248608 43.717176 
L 373.887454 43.562707 
L 374.526301 43.408239 
L 375.165148 43.25377 
L 375.803995 43.099302 
L 376.442841 42.944834 
L 377.081688 42.790365 
L 377.720535 42.635897 
L 378.359381 42.481429 
L 378.998228 42.32696 
L 379.637075 42.172492 
L 380.275921 42.018023 
L 380.914768 41.863555 
L 381.553615 41.709087 
L 382.192461 41.554618 
L 382.831308 41.40015 
L 383.470155 41.245682 
L 384.109002 41.091213 
L 384.747848 40.936745 
L 385.386695 40.782276 
L 386.025542 40.627808 
L 386.664388 40.47334 
L 387.303235 40.318871 
L 387.942082 40.164403 
L 388.580928 40.009935 
L 389.219775 39.855466 
L 389.858622 39.700998 
L 390.497468 39.546529 
L 391.136315 39.392061 
L 391.775162 39.237593 
L 392.414008 39.083124 
L 393.052855 38.928656 
L 393.691702 38.774188 
L 394.330549 38.619719 
L 394.969395 38.465251 
L 395.608242 38.310782 
L 396.247089 38.156314 
L 396.885935 38.001846 
L 397.524782 37.847377 
L 398.163629 37.692909 
L 398.802475 37.538441 
" clip-path="url(#pc7a2e92da8)" style="fill: none; stroke-dasharray: 5.55,2.4; stroke-dashoffset: 0; stroke: #000000; stroke-width: 1.5"/>
   </g>
   <g id="line2d_32">
    <path d="M 335.556653 53.533403 
L 336.1955 53.380708 
L 336.834347 53.228014 
L 337.473193 53.07532 
L 338.11204 52.922626 
L 338.750887 52.769932 
L 339.389733 52.617238 
L 340.02858 52.464544 
L 340.667427 52.311849 
L 341.306273 52.159155 
L 341.94512 52.006461 
L 342.583967 51.853767 
L 343.222813 51.701073 
L 343.86166 51.548379 
L 344.500507 51.395684 
L 345.139353 51.24299 
L 345.7782 51.090296 
L 346.417047 50.937602 
L 347.055894 50.784908 
L 347.69474 50.632214 
L 348.333587 50.47952 
L 348.972434 50.326825 
L 349.61128 50.174131 
L 350.250127 50.021437 
L 350.888974 49.868743 
L 351.52782 49.716049 
L 352.166667 49.563355 
L 352.805514 49.41066 
L 353.44436 49.257966 
L 354.083207 49.105272 
L 354.722054 48.952578 
L 355.360901 48.799884 
L 355.999747 48.64719 
L 356.638594 48.494496 
L 357.277441 48.341801 
L 357.916287 48.189107 
L 358.555134 48.036413 
L 359.193981 47.883719 
L 359.832827 47.731025 
L 360.471674 47.578331 
L 361.110521 47.425636 
L 361.749367 47.272942 
L 362.388214 47.120248 
L 363.027061 46.967554 
L 363.665907 46.81486 
L 364.304754 46.662166 
L 364.943601 46.509472 
L 365.582448 46.356777 
L 366.221294 46.204083 
L 366.860141 46.051389 
L 367.498988 45.898695 
L 368.137834 45.746001 
L 368.776681 45.593307 
L 369.415528 45.440612 
L 370.054374 45.287918 
L 370.693221 45.135224 
L 371.332068 44.98253 
L 371.970914 44.829836 
L 372.609761 44.677142 
L 373.248608 44.524448 
L 373.887454 44.371753 
L 374.526301 44.219059 
L 375.165148 44.066365 
L 375.803995 43.913671 
L 376.442841 43.760977 
L 377.081688 43.608283 
L 377.720535 43.455588 
L 378.359381 43.302894 
L 378.998228 43.1502 
L 379.637075 42.997506 
L 380.275921 42.844812 
L 380.914768 42.692118 
L 381.553615 42.539424 
L 382.192461 42.386729 
L 382.831308 42.234035 
L 383.470155 42.081341 
L 384.109002 41.928647 
L 384.747848 41.775953 
L 385.386695 41.623259 
L 386.025542 41.470564 
L 386.664388 41.31787 
L 387.303235 41.165176 
L 387.942082 41.012482 
L 388.580928 40.859788 
L 389.219775 40.707094 
L 389.858622 40.5544 
L 390.497468 40.401705 
L 391.136315 40.249011 
L 391.775162 40.096317 
L 392.414008 39.943623 
L 393.052855 39.790929 
L 393.691702 39.638235 
L 394.330549 39.48554 
L 394.969395 39.332846 
L 395.608242 39.180152 
L 396.247089 39.027458 
L 396.885935 38.874764 
L 397.524782 38.72207 
L 398.163629 38.569376 
L 398.802475 38.416681 
" clip-path="url(#pc7a2e92da8)" style="fill: none; stroke: #000000; stroke-width: 1.5; stroke-linecap: square"/>
   </g>
   <g id="patch_12">
    <path d="M 332.394362 106.299213 
L 332.394362 34.206614 
" style="fill: none; stroke: #000000; stroke-width: 0.8; stroke-linejoin: miter; stroke-linecap: square"/>
   </g>
   <g id="patch_13">
    <path d="M 332.394362 106.299213 
L 401.964766 106.299213 
" style="fill: none; stroke: #000000; stroke-width: 0.8; stroke-linejoin: miter; stroke-linecap: square"/>
   </g>
   <g id="text_29">
    <!-- MRS -->
    <g transform="translate(356.034564 28.206614) scale(0.12 -0.12)">
     <defs>
      <path id="Calibri-52" d="M 3234 81 
Q 3234 56 3225 37 
Q 3216 19 3184 6 
Q 3153 -6 3097 -12 
Q 3041 -19 2947 -19 
Q 2866 -19 2814 -12 
Q 2763 -6 2731 8 
Q 2700 22 2683 47 
Q 2666 72 2653 109 
L 2281 1063 
Q 2216 1225 2145 1361 
Q 2075 1497 1978 1595 
Q 1881 1694 1750 1748 
Q 1619 1803 1434 1803 
L 1075 1803 
L 1075 81 
Q 1075 56 1061 37 
Q 1047 19 1017 8 
Q 988 -3 936 -11 
Q 884 -19 806 -19 
Q 728 -19 676 -11 
Q 625 -3 594 8 
Q 563 19 550 37 
Q 538 56 538 81 
L 538 3825 
Q 538 3947 602 3995 
Q 666 4044 738 4044 
L 1597 4044 
Q 1750 4044 1851 4036 
Q 1953 4028 2034 4019 
Q 2269 3978 2448 3890 
Q 2628 3803 2750 3668 
Q 2872 3534 2933 3361 
Q 2994 3188 2994 2978 
Q 2994 2775 2939 2614 
Q 2884 2453 2781 2329 
Q 2678 2206 2534 2115 
Q 2391 2025 2213 1963 
Q 2313 1919 2394 1851 
Q 2475 1784 2545 1690 
Q 2616 1597 2678 1475 
Q 2741 1353 2803 1200 
L 3166 309 
Q 3209 197 3221 151 
Q 3234 106 3234 81 
z
M 2425 2922 
Q 2425 3159 2319 3323 
Q 2213 3488 1963 3559 
Q 1884 3581 1786 3590 
Q 1688 3600 1528 3600 
L 1075 3600 
L 1075 2238 
L 1600 2238 
Q 1813 2238 1967 2289 
Q 2122 2341 2225 2433 
Q 2328 2525 2376 2650 
Q 2425 2775 2425 2922 
z
" transform="scale(0.015625)"/>
      <path id="Calibri-53" d="M 2709 1134 
Q 2709 850 2604 628 
Q 2500 406 2314 251 
Q 2128 97 1876 19 
Q 1625 -59 1334 -59 
Q 1131 -59 957 -25 
Q 784 9 648 59 
Q 513 109 420 162 
Q 328 216 292 253 
Q 256 291 239 348 
Q 222 406 222 503 
Q 222 572 228 617 
Q 234 663 246 691 
Q 259 719 278 730 
Q 297 741 322 741 
Q 366 741 445 687 
Q 525 634 650 571 
Q 775 509 951 454 
Q 1128 400 1359 400 
Q 1534 400 1679 447 
Q 1825 494 1929 580 
Q 2034 666 2090 791 
Q 2147 916 2147 1075 
Q 2147 1247 2069 1369 
Q 1991 1491 1862 1583 
Q 1734 1675 1570 1751 
Q 1406 1828 1234 1908 
Q 1063 1988 900 2084 
Q 738 2181 609 2312 
Q 481 2444 401 2620 
Q 322 2797 322 3044 
Q 322 3297 414 3495 
Q 506 3694 670 3828 
Q 834 3963 1061 4033 
Q 1288 4103 1550 4103 
Q 1684 4103 1820 4079 
Q 1956 4056 2076 4017 
Q 2197 3978 2290 3929 
Q 2384 3881 2414 3851 
Q 2444 3822 2453 3805 
Q 2463 3788 2469 3761 
Q 2475 3734 2478 3696 
Q 2481 3659 2481 3600 
Q 2481 3544 2476 3500 
Q 2472 3456 2462 3426 
Q 2453 3397 2436 3383 
Q 2419 3369 2397 3369 
Q 2363 3369 2289 3412 
Q 2216 3456 2109 3511 
Q 2003 3566 1858 3611 
Q 1713 3656 1531 3656 
Q 1363 3656 1238 3611 
Q 1113 3566 1031 3491 
Q 950 3416 909 3312 
Q 869 3209 869 3094 
Q 869 2925 947 2803 
Q 1025 2681 1154 2587 
Q 1284 2494 1450 2416 
Q 1616 2338 1787 2258 
Q 1959 2178 2125 2083 
Q 2291 1988 2420 1858 
Q 2550 1728 2629 1551 
Q 2709 1375 2709 1134 
z
" transform="scale(0.015625)"/>
     </defs>
     <use xlink:href="#Calibri-4d"/>
     <use xlink:href="#Calibri-52" x="85.498047"/>
     <use xlink:href="#Calibri-53" x="139.794922"/>
    </g>
   </g>
  </g>
  <g id="axes_5">
   <g id="patch_14">
    <path d="M 427.705816 106.299213 
L 497.27622 106.299213 
L 497.27622 34.206614 
L 427.705816 34.206614 
z
" style="fill: #ffffff"/>
   </g>
   <g id="PathCollection_9">
    <g clip-path="url(#pb2ac5207ee)">
     <use xlink:href="#m46897d8e74" x="448.436391" y="66.19653" style="fill: #ff0000; fill-opacity: 0.6; stroke: #ff0000; stroke-opacity: 0.6"/>
     <use xlink:href="#m46897d8e74" x="494.113929" y="62.513955" style="fill: #ff0000; fill-opacity: 0.6; stroke: #ff0000; stroke-opacity: 0.6"/>
     <use xlink:href="#m46897d8e74" x="441.409078" y="80.926828" style="fill: #ff0000; fill-opacity: 0.6; stroke: #ff0000; stroke-opacity: 0.6"/>
     <use xlink:href="#m46897d8e74" x="441.409078" y="77.244254" style="fill: #ff0000; fill-opacity: 0.6; stroke: #ff0000; stroke-opacity: 0.6"/>
     <use xlink:href="#m46897d8e74" x="444.922734" y="66.19653" style="fill: #ff0000; fill-opacity: 0.6; stroke: #ff0000; stroke-opacity: 0.6"/>
     <use xlink:href="#m46897d8e74" x="430.868107" y="103.022276" style="fill: #ff0000; fill-opacity: 0.6; stroke: #ff0000; stroke-opacity: 0.6"/>
     <use xlink:href="#m46897d8e74" x="451.950048" y="69.879104" style="fill: #ff0000; fill-opacity: 0.6; stroke: #ff0000; stroke-opacity: 0.6"/>
     <use xlink:href="#m46897d8e74" x="437.895421" y="99.339702" style="fill: #ff0000; fill-opacity: 0.6; stroke: #ff0000; stroke-opacity: 0.6"/>
     <use xlink:href="#m46897d8e74" x="480.059302" y="47.783656" style="fill: #ff0000; fill-opacity: 0.6; stroke: #ff0000; stroke-opacity: 0.6"/>
     <use xlink:href="#m46897d8e74" x="455.463705" y="84.609403" style="fill: #ff0000; fill-opacity: 0.6; stroke: #ff0000; stroke-opacity: 0.6"/>
     <use xlink:href="#m46897d8e74" x="437.895421" y="103.022276" style="fill: #ff0000; fill-opacity: 0.6; stroke: #ff0000; stroke-opacity: 0.6"/>
     <use xlink:href="#m46897d8e74" x="444.922734" y="69.879104" style="fill: #ff0000; fill-opacity: 0.6; stroke: #ff0000; stroke-opacity: 0.6"/>
     <use xlink:href="#m46897d8e74" x="444.922734" y="66.19653" style="fill: #ff0000; fill-opacity: 0.6; stroke: #ff0000; stroke-opacity: 0.6"/>
     <use xlink:href="#m46897d8e74" x="448.436391" y="66.19653" style="fill: #ff0000; fill-opacity: 0.6; stroke: #ff0000; stroke-opacity: 0.6"/>
     <use xlink:href="#m46897d8e74" x="437.895421" y="84.609403" style="fill: #ff0000; fill-opacity: 0.6; stroke: #ff0000; stroke-opacity: 0.6"/>
    </g>
   </g>
   <g id="PathCollection_10"/>
   <g id="matplotlib.axis_9">
    <g id="xtick_13">
     <g id="line2d_33">
      <g>
       <use xlink:href="#m81a988f9c2" x="444.922734" y="106.299213" style="stroke: #000000; stroke-width: 0.8"/>
      </g>
     </g>
     <g id="text_30">
      <!-- 10 -->
      <g transform="translate(438.840234 121.461088) scale(0.12 -0.12)">
       <use xlink:href="#Calibri-31"/>
       <use xlink:href="#Calibri-30" x="50.683594"/>
      </g>
     </g>
    </g>
    <g id="xtick_14">
     <g id="line2d_34">
      <g>
       <use xlink:href="#m81a988f9c2" x="462.491018" y="106.299213" style="stroke: #000000; stroke-width: 0.8"/>
      </g>
     </g>
     <g id="text_31">
      <!-- 15 -->
      <g transform="translate(456.408518 121.461088) scale(0.12 -0.12)">
       <use xlink:href="#Calibri-31"/>
       <use xlink:href="#Calibri-35" x="50.683594"/>
      </g>
     </g>
    </g>
    <g id="xtick_15">
     <g id="line2d_35">
      <g>
       <use xlink:href="#m81a988f9c2" x="480.059302" y="106.299213" style="stroke: #000000; stroke-width: 0.8"/>
      </g>
     </g>
     <g id="text_32">
      <!-- 20 -->
      <g transform="translate(473.976802 121.461088) scale(0.12 -0.12)">
       <use xlink:href="#Calibri-32"/>
       <use xlink:href="#Calibri-30" x="50.683594"/>
      </g>
     </g>
    </g>
   </g>
   <g id="matplotlib.axis_10">
    <g id="ytick_13">
     <g id="line2d_36">
      <g>
       <use xlink:href="#mc16a18d78e" x="427.705816" y="103.022276" style="stroke: #000000; stroke-width: 0.8"/>
      </g>
     </g>
     <g id="text_33">
      <!-- 0 -->
      <g transform="translate(414.623316 107.103214) scale(0.12 -0.12)">
       <use xlink:href="#Calibri-30"/>
      </g>
     </g>
    </g>
    <g id="ytick_14">
     <g id="line2d_37">
      <g>
       <use xlink:href="#mc16a18d78e" x="427.705816" y="84.609403" style="stroke: #000000; stroke-width: 0.8"/>
      </g>
     </g>
     <g id="text_34">
      <!-- 5 -->
      <g transform="translate(414.623316 88.69034) scale(0.12 -0.12)">
       <use xlink:href="#Calibri-35"/>
      </g>
     </g>
    </g>
    <g id="ytick_15">
     <g id="line2d_38">
      <g>
       <use xlink:href="#mc16a18d78e" x="427.705816" y="66.19653" style="stroke: #000000; stroke-width: 0.8"/>
      </g>
     </g>
     <g id="text_35">
      <!-- 10 -->
      <g transform="translate(408.540816 70.277467) scale(0.12 -0.12)">
       <use xlink:href="#Calibri-31"/>
       <use xlink:href="#Calibri-30" x="50.683594"/>
      </g>
     </g>
    </g>
    <g id="ytick_16">
     <g id="line2d_39">
      <g>
       <use xlink:href="#mc16a18d78e" x="427.705816" y="47.783656" style="stroke: #000000; stroke-width: 0.8"/>
      </g>
     </g>
     <g id="text_36">
      <!-- 15 -->
      <g transform="translate(408.540816 51.864594) scale(0.12 -0.12)">
       <use xlink:href="#Calibri-31"/>
       <use xlink:href="#Calibri-35" x="50.683594"/>
      </g>
     </g>
    </g>
   </g>
   <g id="line2d_40">
    <path d="M 430.868107 85.704923 
L 431.506954 85.236231 
L 432.145801 84.76754 
L 432.784647 84.298849 
L 433.423494 83.830157 
L 434.062341 83.361466 
L 434.701187 82.892775 
L 435.340034 82.424083 
L 435.978881 81.955392 
L 436.617727 81.486701 
L 437.256574 81.018009 
L 437.895421 80.549318 
L 438.534267 80.080627 
L 439.173114 79.611935 
L 439.811961 79.143244 
L 440.450808 78.674553 
L 441.089654 78.205862 
L 441.728501 77.73717 
L 442.367348 77.268479 
L 443.006194 76.799788 
L 443.645041 76.331096 
L 444.283888 75.862405 
L 444.922734 75.393714 
L 445.561581 74.925022 
L 446.200428 74.456331 
L 446.839274 73.98764 
L 447.478121 73.518948 
L 448.116968 73.050257 
L 448.755814 72.581566 
L 449.394661 72.112874 
L 450.033508 71.644183 
L 450.672355 71.175492 
L 451.311201 70.7068 
L 451.950048 70.238109 
L 452.588895 69.769418 
L 453.227741 69.300726 
L 453.866588 68.832035 
L 454.505435 68.363344 
L 455.144281 67.894652 
L 455.783128 67.425961 
L 456.421975 66.95727 
L 457.060821 66.488578 
L 457.699668 66.019887 
L 458.338515 65.551196 
L 458.977361 65.082505 
L 459.616208 64.613813 
L 460.255055 64.145122 
L 460.893902 63.676431 
L 461.532748 63.207739 
L 462.171595 62.739048 
L 462.810442 62.270357 
L 463.449288 61.801665 
L 464.088135 61.332974 
L 464.726982 60.864283 
L 465.365828 60.395591 
L 466.004675 59.9269 
L 466.643522 59.458209 
L 467.282368 58.989517 
L 467.921215 58.520826 
L 468.560062 58.052135 
L 469.198909 57.583443 
L 469.837755 57.114752 
L 470.476602 56.646061 
L 471.115449 56.177369 
L 471.754295 55.708678 
L 472.393142 55.239987 
L 473.031989 54.771295 
L 473.670835 54.302604 
L 474.309682 53.833913 
L 474.948529 53.365221 
L 475.587375 52.89653 
L 476.226222 52.427839 
L 476.865069 51.959148 
L 477.503915 51.490456 
L 478.142762 51.021765 
L 478.781609 50.553074 
L 479.420456 50.084382 
L 480.059302 49.615691 
L 480.698149 49.147 
L 481.336996 48.678308 
L 481.975842 48.209617 
L 482.614689 47.740926 
L 483.253536 47.272234 
L 483.892382 46.803543 
L 484.531229 46.334852 
L 485.170076 45.86616 
L 485.808922 45.397469 
L 486.447769 44.928778 
L 487.086616 44.460086 
L 487.725462 43.991395 
L 488.364309 43.522704 
L 489.003156 43.054012 
L 489.642003 42.585321 
L 490.280849 42.11663 
L 490.919696 41.647938 
L 491.558543 41.179247 
L 492.197389 40.710556 
L 492.836236 40.241865 
L 493.475083 39.773173 
L 494.113929 39.304482 
" clip-path="url(#pb2ac5207ee)" style="fill: none; stroke-dasharray: 5.55,2.4; stroke-dashoffset: 0; stroke: #000000; stroke-width: 1.5"/>
   </g>
   <g id="line2d_41">
    <path d="M 430.868107 85.24969 
L 431.506954 84.767204 
L 432.145801 84.284717 
L 432.784647 83.802231 
L 433.423494 83.319745 
L 434.062341 82.837259 
L 434.701187 82.354772 
L 435.340034 81.872286 
L 435.978881 81.3898 
L 436.617727 80.907314 
L 437.256574 80.424827 
L 437.895421 79.942341 
L 438.534267 79.459855 
L 439.173114 78.977368 
L 439.811961 78.494882 
L 440.450808 78.012396 
L 441.089654 77.52991 
L 441.728501 77.047423 
L 442.367348 76.564937 
L 443.006194 76.082451 
L 443.645041 75.599965 
L 444.283888 75.117478 
L 444.922734 74.634992 
L 445.561581 74.152506 
L 446.200428 73.67002 
L 446.839274 73.187533 
L 447.478121 72.705047 
L 448.116968 72.222561 
L 448.755814 71.740075 
L 449.394661 71.257588 
L 450.033508 70.775102 
L 450.672355 70.292616 
L 451.311201 69.81013 
L 451.950048 69.327643 
L 452.588895 68.845157 
L 453.227741 68.362671 
L 453.866588 67.880185 
L 454.505435 67.397698 
L 455.144281 66.915212 
L 455.783128 66.432726 
L 456.421975 65.95024 
L 457.060821 65.467753 
L 457.699668 64.985267 
L 458.338515 64.502781 
L 458.977361 64.020295 
L 459.616208 63.537808 
L 460.255055 63.055322 
L 460.893902 62.572836 
L 461.532748 62.09035 
L 462.171595 61.607863 
L 462.810442 61.125377 
L 463.449288 60.642891 
L 464.088135 60.160405 
L 464.726982 59.677918 
L 465.365828 59.195432 
L 466.004675 58.712946 
L 466.643522 58.230459 
L 467.282368 57.747973 
L 467.921215 57.265487 
L 468.560062 56.783001 
L 469.198909 56.300514 
L 469.837755 55.818028 
L 470.476602 55.335542 
L 471.115449 54.853056 
L 471.754295 54.370569 
L 472.393142 53.888083 
L 473.031989 53.405597 
L 473.670835 52.923111 
L 474.309682 52.440624 
L 474.948529 51.958138 
L 475.587375 51.475652 
L 476.226222 50.993166 
L 476.865069 50.510679 
L 477.503915 50.028193 
L 478.142762 49.545707 
L 478.781609 49.063221 
L 479.420456 48.580734 
L 480.059302 48.098248 
L 480.698149 47.615762 
L 481.336996 47.133276 
L 481.975842 46.650789 
L 482.614689 46.168303 
L 483.253536 45.685817 
L 483.892382 45.203331 
L 484.531229 44.720844 
L 485.170076 44.238358 
L 485.808922 43.755872 
L 486.447769 43.273386 
L 487.086616 42.790899 
L 487.725462 42.308413 
L 488.364309 41.825927 
L 489.003156 41.343441 
L 489.642003 40.860954 
L 490.280849 40.378468 
L 490.919696 39.895982 
L 491.558543 39.413495 
L 492.197389 38.931009 
L 492.836236 38.448523 
L 493.475083 37.966037 
L 494.113929 37.48355 
" clip-path="url(#pb2ac5207ee)" style="fill: none; stroke: #000000; stroke-width: 1.5; stroke-linecap: square"/>
   </g>
   <g id="patch_15">
    <path d="M 427.705816 106.299213 
L 427.705816 34.206614 
" style="fill: none; stroke: #000000; stroke-width: 0.8; stroke-linejoin: miter; stroke-linecap: square"/>
   </g>
   <g id="patch_16">
    <path d="M 427.705816 106.299213 
L 497.27622 106.299213 
" style="fill: none; stroke: #000000; stroke-width: 0.8; stroke-linejoin: miter; stroke-linecap: square"/>
   </g>
   <g id="text_37">
    <!-- NIHSS -->
    <g transform="translate(447.852893 28.206614) scale(0.12 -0.12)">
     <defs>
      <path id="Calibri-4e" d="M 3594 222 
Q 3594 159 3573 115 
Q 3553 72 3520 44 
Q 3488 16 3447 3 
Q 3406 -9 3366 -9 
L 3194 -9 
Q 3113 -9 3052 8 
Q 2991 25 2936 70 
Q 2881 116 2826 194 
Q 2772 272 2706 394 
L 1431 2694 
Q 1331 2872 1229 3067 
Q 1128 3263 1041 3447 
L 1034 3447 
Q 1041 3222 1044 2987 
Q 1047 2753 1047 2522 
L 1047 81 
Q 1047 59 1034 39 
Q 1022 19 992 8 
Q 963 -3 914 -11 
Q 866 -19 791 -19 
Q 716 -19 667 -11 
Q 619 -3 591 8 
Q 563 19 550 39 
Q 538 59 538 81 
L 538 3813 
Q 538 3938 606 3991 
Q 675 4044 756 4044 
L 1013 4044 
Q 1103 4044 1164 4028 
Q 1225 4013 1273 3977 
Q 1322 3941 1367 3877 
Q 1413 3813 1466 3716 
L 2447 1941 
Q 2538 1778 2622 1623 
Q 2706 1469 2784 1319 
Q 2863 1169 2939 1023 
Q 3016 878 3091 731 
L 3094 731 
Q 3088 978 3086 1245 
Q 3084 1513 3084 1759 
L 3084 3953 
Q 3084 3975 3096 3994 
Q 3109 4013 3139 4027 
Q 3169 4041 3217 4047 
Q 3266 4053 3344 4053 
Q 3413 4053 3463 4047 
Q 3513 4041 3541 4027 
Q 3569 4013 3581 3994 
Q 3594 3975 3594 3953 
L 3594 222 
z
" transform="scale(0.015625)"/>
      <path id="Calibri-48" d="M 3450 81 
Q 3450 56 3437 37 
Q 3425 19 3394 8 
Q 3363 -3 3311 -11 
Q 3259 -19 3184 -19 
Q 3103 -19 3053 -11 
Q 3003 -3 2972 8 
Q 2941 19 2928 37 
Q 2916 56 2916 81 
L 2916 1875 
L 1075 1875 
L 1075 81 
Q 1075 56 1062 37 
Q 1050 19 1019 8 
Q 988 -3 936 -11 
Q 884 -19 806 -19 
Q 731 -19 678 -11 
Q 625 -3 594 8 
Q 563 19 550 37 
Q 538 56 538 81 
L 538 3963 
Q 538 3988 550 4006 
Q 563 4025 594 4036 
Q 625 4047 678 4055 
Q 731 4063 806 4063 
Q 884 4063 936 4055 
Q 988 4047 1019 4036 
Q 1050 4025 1062 4006 
Q 1075 3988 1075 3963 
L 1075 2344 
L 2916 2344 
L 2916 3963 
Q 2916 3988 2928 4006 
Q 2941 4025 2972 4036 
Q 3003 4047 3053 4055 
Q 3103 4063 3184 4063 
Q 3259 4063 3311 4055 
Q 3363 4047 3394 4036 
Q 3425 4025 3437 4006 
Q 3450 3988 3450 3963 
L 3450 81 
z
" transform="scale(0.015625)"/>
     </defs>
     <use xlink:href="#Calibri-4e"/>
     <use xlink:href="#Calibri-49" x="64.550781"/>
     <use xlink:href="#Calibri-48" x="89.746094"/>
     <use xlink:href="#Calibri-53" x="152.050781"/>
     <use xlink:href="#Calibri-53" x="197.998047"/>
    </g>
   </g>
  </g>
  <g id="text_38">
   <!-- Initial impairment -->
   <g transform="translate(211.472798 138.181211) scale(0.12 -0.12)">
    <defs>
     <path id="Calibri-69" d="M 994 78 
Q 994 53 981 36 
Q 969 19 941 6 
Q 913 -6 863 -12 
Q 813 -19 734 -19 
Q 659 -19 609 -12 
Q 559 -6 529 6 
Q 500 19 489 36 
Q 478 53 478 78 
L 478 2891 
Q 478 2913 489 2931 
Q 500 2950 529 2962 
Q 559 2975 609 2981 
Q 659 2988 734 2988 
Q 813 2988 863 2981 
Q 913 2975 941 2962 
Q 969 2950 981 2931 
Q 994 2913 994 2891 
L 994 78 
z
M 1053 3841 
Q 1053 3659 984 3593 
Q 916 3528 731 3528 
Q 550 3528 483 3592 
Q 416 3656 416 3834 
Q 416 4016 484 4081 
Q 553 4147 738 4147 
Q 919 4147 986 4083 
Q 1053 4019 1053 3841 
z
" transform="scale(0.015625)"/>
     <path id="Calibri-74" d="M 1941 284 
Q 1941 194 1928 141 
Q 1916 88 1891 63 
Q 1866 38 1816 16 
Q 1766 -6 1702 -20 
Q 1638 -34 1566 -43 
Q 1494 -53 1422 -53 
Q 1203 -53 1047 5 
Q 891 63 791 180 
Q 691 297 645 476 
Q 600 656 600 900 
L 600 2544 
L 206 2544 
Q 159 2544 131 2594 
Q 103 2644 103 2756 
Q 103 2816 111 2856 
Q 119 2897 131 2923 
Q 144 2950 164 2961 
Q 184 2972 209 2972 
L 600 2972 
L 600 3641 
Q 600 3663 611 3681 
Q 622 3700 651 3714 
Q 681 3728 731 3734 
Q 781 3741 856 3741 
Q 934 3741 984 3734 
Q 1034 3728 1062 3714 
Q 1091 3700 1103 3681 
Q 1116 3663 1116 3641 
L 1116 2972 
L 1838 2972 
Q 1863 2972 1881 2961 
Q 1900 2950 1914 2923 
Q 1928 2897 1934 2856 
Q 1941 2816 1941 2756 
Q 1941 2644 1912 2594 
Q 1884 2544 1838 2544 
L 1116 2544 
L 1116 975 
Q 1116 684 1202 536 
Q 1288 388 1509 388 
Q 1581 388 1637 402 
Q 1694 416 1737 431 
Q 1781 447 1812 461 
Q 1844 475 1869 475 
Q 1884 475 1898 467 
Q 1913 459 1920 437 
Q 1928 416 1934 378 
Q 1941 341 1941 284 
z
" transform="scale(0.015625)"/>
     <path id="Calibri-6c" d="M 994 78 
Q 994 53 981 36 
Q 969 19 941 6 
Q 913 -6 863 -12 
Q 813 -19 734 -19 
Q 659 -19 609 -12 
Q 559 -6 529 6 
Q 500 19 489 36 
Q 478 53 478 78 
L 478 4253 
Q 478 4278 489 4297 
Q 500 4316 529 4328 
Q 559 4341 609 4347 
Q 659 4353 734 4353 
Q 813 4353 863 4347 
Q 913 4341 941 4328 
Q 969 4316 981 4297 
Q 994 4278 994 4253 
L 994 78 
z
" transform="scale(0.015625)"/>
     <path id="Calibri-6d" d="M 4650 78 
Q 4650 53 4637 36 
Q 4625 19 4597 6 
Q 4569 -6 4519 -12 
Q 4469 -19 4394 -19 
Q 4316 -19 4266 -12 
Q 4216 -6 4186 6 
Q 4156 19 4143 36 
Q 4131 53 4131 78 
L 4131 1788 
Q 4131 1966 4100 2112 
Q 4069 2259 4000 2365 
Q 3931 2472 3825 2528 
Q 3719 2584 3575 2584 
Q 3397 2584 3217 2446 
Q 3038 2309 2822 2044 
L 2822 78 
Q 2822 53 2809 36 
Q 2797 19 2767 6 
Q 2738 -6 2688 -12 
Q 2638 -19 2563 -19 
Q 2491 -19 2439 -12 
Q 2388 -6 2358 6 
Q 2328 19 2317 36 
Q 2306 53 2306 78 
L 2306 1788 
Q 2306 1966 2272 2112 
Q 2238 2259 2169 2365 
Q 2100 2472 1995 2528 
Q 1891 2584 1747 2584 
Q 1569 2584 1387 2446 
Q 1206 2309 994 2044 
L 994 78 
Q 994 53 981 36 
Q 969 19 941 6 
Q 913 -6 863 -12 
Q 813 -19 734 -19 
Q 659 -19 609 -12 
Q 559 -6 529 6 
Q 500 19 489 36 
Q 478 53 478 78 
L 478 2891 
Q 478 2916 487 2933 
Q 497 2950 525 2964 
Q 553 2978 597 2983 
Q 641 2988 713 2988 
Q 781 2988 826 2983 
Q 872 2978 897 2964 
Q 922 2950 933 2933 
Q 944 2916 944 2891 
L 944 2519 
Q 1181 2784 1404 2907 
Q 1628 3031 1856 3031 
Q 2031 3031 2170 2990 
Q 2309 2950 2415 2876 
Q 2522 2803 2597 2701 
Q 2672 2600 2722 2475 
Q 2863 2628 2989 2734 
Q 3116 2841 3233 2906 
Q 3350 2972 3461 3001 
Q 3572 3031 3684 3031 
Q 3956 3031 4140 2936 
Q 4325 2841 4439 2681 
Q 4553 2522 4601 2308 
Q 4650 2094 4650 1856 
L 4650 78 
z
" transform="scale(0.015625)"/>
     <path id="Calibri-70" d="M 3066 1528 
Q 3066 1159 2986 865 
Q 2906 572 2751 367 
Q 2597 163 2369 52 
Q 2141 -59 1847 -59 
Q 1722 -59 1615 -34 
Q 1509 -9 1407 44 
Q 1306 97 1206 178 
Q 1106 259 994 369 
L 994 -1038 
Q 994 -1063 981 -1081 
Q 969 -1100 941 -1112 
Q 913 -1125 863 -1131 
Q 813 -1138 734 -1138 
Q 659 -1138 609 -1131 
Q 559 -1125 529 -1112 
Q 500 -1100 489 -1081 
Q 478 -1063 478 -1038 
L 478 2891 
Q 478 2919 487 2936 
Q 497 2953 525 2965 
Q 553 2978 597 2983 
Q 641 2988 703 2988 
Q 769 2988 811 2983 
Q 853 2978 881 2965 
Q 909 2953 920 2936 
Q 931 2919 931 2891 
L 931 2513 
Q 1059 2644 1178 2741 
Q 1297 2838 1417 2902 
Q 1538 2966 1664 2998 
Q 1791 3031 1931 3031 
Q 2238 3031 2453 2912 
Q 2669 2794 2805 2587 
Q 2941 2381 3003 2107 
Q 3066 1834 3066 1528 
z
M 2522 1469 
Q 2522 1684 2489 1886 
Q 2456 2088 2376 2244 
Q 2297 2400 2162 2494 
Q 2028 2588 1828 2588 
Q 1728 2588 1631 2558 
Q 1534 2528 1434 2464 
Q 1334 2400 1225 2295 
Q 1116 2191 994 2038 
L 994 919 
Q 1206 659 1397 521 
Q 1588 384 1797 384 
Q 1991 384 2130 478 
Q 2269 572 2355 728 
Q 2441 884 2481 1078 
Q 2522 1272 2522 1469 
z
" transform="scale(0.015625)"/>
    </defs>
    <use xlink:href="#Calibri-49"/>
    <use xlink:href="#Calibri-6e" x="25.195312"/>
    <use xlink:href="#Calibri-69" x="77.734375"/>
    <use xlink:href="#Calibri-74" x="100.683594"/>
    <use xlink:href="#Calibri-69" x="134.179688"/>
    <use xlink:href="#Calibri-61" x="157.128906"/>
    <use xlink:href="#Calibri-6c" x="205.029297"/>
    <use xlink:href="#Calibri-20" x="227.978516"/>
    <use xlink:href="#Calibri-69" x="250.585938"/>
    <use xlink:href="#Calibri-6d" x="273.535156"/>
    <use xlink:href="#Calibri-70" x="353.417969"/>
    <use xlink:href="#Calibri-61" x="405.957031"/>
    <use xlink:href="#Calibri-69" x="453.857422"/>
    <use xlink:href="#Calibri-72" x="476.806641"/>
    <use xlink:href="#Calibri-6d" x="511.669922"/>
    <use xlink:href="#Calibri-65" x="591.552734"/>
    <use xlink:href="#Calibri-6e" x="641.308594"/>
    <use xlink:href="#Calibri-74" x="693.847656"/>
   </g>
  </g>
 </g>
 <defs>
  <clipPath id="p2913368a4b">
   <rect x="46.46" y="34.206614" width="69.570404" height="72.092598"/>
  </clipPath>
  <clipPath id="p7f8cfc2205">
   <rect x="141.771454" y="34.206614" width="69.570404" height="72.092598"/>
  </clipPath>
  <clipPath id="p6b41ce4be8">
   <rect x="237.082908" y="34.206614" width="69.570404" height="72.092598"/>
  </clipPath>
  <clipPath id="pc7a2e92da8">
   <rect x="332.394362" y="34.206614" width="69.570404" height="72.092598"/>
  </clipPath>
  <clipPath id="pb2ac5207ee">
   <rect x="427.705816" y="34.206614" width="69.570404" height="72.092598"/>
  </clipPath>
 </defs>
</svg>
