<?xml version="1.0" encoding="utf-8" standalone="no"?>
<!DOCTYPE svg PUBLIC "-//W3C//DTD SVG 1.1//EN"
  "http://www.w3.org/Graphics/SVG/1.1/DTD/svg11.dtd">
<svg xmlns:xlink="http://www.w3.org/1999/xlink" width="340.1568pt" height="283.464pt" viewBox="0 0 340.1568 283.464" xmlns="http://www.w3.org/2000/svg" version="1.1">
 <metadata>
  <rdf:RDF xmlns:dc="http://purl.org/dc/elements/1.1/" xmlns:cc="http://creativecommons.org/ns#" xmlns:rdf="http://www.w3.org/1999/02/22-rdf-syntax-ns#">
   <cc:Work>
    <dc:type rdf:resource="http://purl.org/dc/dcmitype/StillImage"/>
    <dc:date>2025-03-19T14:32:43.791078</dc:date>
    <dc:format>image/svg+xml</dc:format>
    <dc:creator>
     <cc:Agent>
      <dc:title>Matplotlib v3.8.3, https://matplotlib.org/</dc:title>
     </cc:Agent>
    </dc:creator>
   </cc:Work>
  </rdf:RDF>
 </metadata>
 <defs>
  <style type="text/css">*{stroke-linejoin: round; stroke-linecap: butt}</style>
 </defs>
 <g id="figure_1">
  <g id="patch_1">
   <path d="M 0 283.464 
L 340.1568 283.464 
L 340.1568 0 
L 0 0 
z
" style="fill: #ffffff"/>
  </g>
  <g id="axes_1">
   <g id="patch_2">
    <path d="M 50.27 242.224 
L 182.6634 242.224 
L 182.6634 23.52 
L 50.27 23.52 
z
" style="fill: #ffffff"/>
   </g>
   <g id="matplotlib.axis_1">
    <g id="xtick_1">
     <g id="line2d_1">
      <defs>
       <path id="m331fe6da4a" d="M 0 0 
L 0 3.5 
" style="stroke: #000000; stroke-width: 0.8"/>
      </defs>
      <g>
       <use xlink:href="#m331fe6da4a" x="70.175301" y="242.224" style="stroke: #000000; stroke-width: 0.8"/>
      </g>
     </g>
     <g id="text_1">
      <!-- 0 -->
      <g transform="translate(67.630301 255.30275) scale(0.08 -0.08)">
       <defs>
        <path id="DejaVuSans-30" d="M 2034 4250 
Q 1547 4250 1301 3770 
Q 1056 3291 1056 2328 
Q 1056 1369 1301 889 
Q 1547 409 2034 409 
Q 2525 409 2770 889 
Q 3016 1369 3016 2328 
Q 3016 3291 2770 3770 
Q 2525 4250 2034 4250 
z
M 2034 4750 
Q 2819 4750 3233 4129 
Q 3647 3509 3647 2328 
Q 3647 1150 3233 529 
Q 2819 -91 2034 -91 
Q 1250 -91 836 529 
Q 422 1150 422 2328 
Q 422 3509 836 4129 
Q 1250 4750 2034 4750 
z
" transform="scale(0.015625)"/>
       </defs>
       <use xlink:href="#DejaVuSans-30"/>
      </g>
     </g>
    </g>
    <g id="xtick_2">
     <g id="line2d_2">
      <g>
       <use xlink:href="#m331fe6da4a" x="116.4667" y="242.224" style="stroke: #000000; stroke-width: 0.8"/>
      </g>
     </g>
     <g id="text_2">
      <!-- 1 -->
      <g transform="translate(113.9217 255.30275) scale(0.08 -0.08)">
       <defs>
        <path id="DejaVuSans-31" d="M 794 531 
L 1825 531 
L 1825 4091 
L 703 3866 
L 703 4441 
L 1819 4666 
L 2450 4666 
L 2450 531 
L 3481 531 
L 3481 0 
L 794 0 
L 794 531 
z
" transform="scale(0.015625)"/>
       </defs>
       <use xlink:href="#DejaVuSans-31"/>
      </g>
     </g>
    </g>
    <g id="xtick_3">
     <g id="line2d_3">
      <g>
       <use xlink:href="#m331fe6da4a" x="162.758099" y="242.224" style="stroke: #000000; stroke-width: 0.8"/>
      </g>
     </g>
     <g id="text_3">
      <!-- 2 -->
      <g transform="translate(160.213099 255.30275) scale(0.08 -0.08)">
       <defs>
        <path id="DejaVuSans-32" d="M 1228 531 
L 3431 531 
L 3431 0 
L 469 0 
L 469 531 
Q 828 903 1448 1529 
Q 2069 2156 2228 2338 
Q 2531 2678 2651 2914 
Q 2772 3150 2772 3378 
Q 2772 3750 2511 3984 
Q 2250 4219 1831 4219 
Q 1534 4219 1204 4116 
Q 875 4013 500 3803 
L 500 4441 
Q 881 4594 1212 4672 
Q 1544 4750 1819 4750 
Q 2544 4750 2975 4387 
Q 3406 4025 3406 3419 
Q 3406 3131 3298 2873 
Q 3191 2616 2906 2266 
Q 2828 2175 2409 1742 
Q 1991 1309 1228 531 
z
" transform="scale(0.015625)"/>
       </defs>
       <use xlink:href="#DejaVuSans-32"/>
      </g>
     </g>
    </g>
    <g id="text_4">
     <!-- Timepoint -->
     <g transform="translate(86.484513 270.084625) scale(0.12 -0.12)">
      <defs>
       <path id="DejaVuSans-54" d="M -19 4666 
L 3928 4666 
L 3928 4134 
L 2272 4134 
L 2272 0 
L 1638 0 
L 1638 4134 
L -19 4134 
L -19 4666 
z
" transform="scale(0.015625)"/>
       <path id="DejaVuSans-69" d="M 603 3500 
L 1178 3500 
L 1178 0 
L 603 0 
L 603 3500 
z
M 603 4863 
L 1178 4863 
L 1178 4134 
L 603 4134 
L 603 4863 
z
" transform="scale(0.015625)"/>
       <path id="DejaVuSans-6d" d="M 3328 2828 
Q 3544 3216 3844 3400 
Q 4144 3584 4550 3584 
Q 5097 3584 5394 3201 
Q 5691 2819 5691 2113 
L 5691 0 
L 5113 0 
L 5113 2094 
Q 5113 2597 4934 2840 
Q 4756 3084 4391 3084 
Q 3944 3084 3684 2787 
Q 3425 2491 3425 1978 
L 3425 0 
L 2847 0 
L 2847 2094 
Q 2847 2600 2669 2842 
Q 2491 3084 2119 3084 
Q 1678 3084 1418 2786 
Q 1159 2488 1159 1978 
L 1159 0 
L 581 0 
L 581 3500 
L 1159 3500 
L 1159 2956 
Q 1356 3278 1631 3431 
Q 1906 3584 2284 3584 
Q 2666 3584 2933 3390 
Q 3200 3197 3328 2828 
z
" transform="scale(0.015625)"/>
       <path id="DejaVuSans-65" d="M 3597 1894 
L 3597 1613 
L 953 1613 
Q 991 1019 1311 708 
Q 1631 397 2203 397 
Q 2534 397 2845 478 
Q 3156 559 3463 722 
L 3463 178 
Q 3153 47 2828 -22 
Q 2503 -91 2169 -91 
Q 1331 -91 842 396 
Q 353 884 353 1716 
Q 353 2575 817 3079 
Q 1281 3584 2069 3584 
Q 2775 3584 3186 3129 
Q 3597 2675 3597 1894 
z
M 3022 2063 
Q 3016 2534 2758 2815 
Q 2500 3097 2075 3097 
Q 1594 3097 1305 2825 
Q 1016 2553 972 2059 
L 3022 2063 
z
" transform="scale(0.015625)"/>
       <path id="DejaVuSans-70" d="M 1159 525 
L 1159 -1331 
L 581 -1331 
L 581 3500 
L 1159 3500 
L 1159 2969 
Q 1341 3281 1617 3432 
Q 1894 3584 2278 3584 
Q 2916 3584 3314 3078 
Q 3713 2572 3713 1747 
Q 3713 922 3314 415 
Q 2916 -91 2278 -91 
Q 1894 -91 1617 61 
Q 1341 213 1159 525 
z
M 3116 1747 
Q 3116 2381 2855 2742 
Q 2594 3103 2138 3103 
Q 1681 3103 1420 2742 
Q 1159 2381 1159 1747 
Q 1159 1113 1420 752 
Q 1681 391 2138 391 
Q 2594 391 2855 752 
Q 3116 1113 3116 1747 
z
" transform="scale(0.015625)"/>
       <path id="DejaVuSans-6f" d="M 1959 3097 
Q 1497 3097 1228 2736 
Q 959 2375 959 1747 
Q 959 1119 1226 758 
Q 1494 397 1959 397 
Q 2419 397 2687 759 
Q 2956 1122 2956 1747 
Q 2956 2369 2687 2733 
Q 2419 3097 1959 3097 
z
M 1959 3584 
Q 2709 3584 3137 3096 
Q 3566 2609 3566 1747 
Q 3566 888 3137 398 
Q 2709 -91 1959 -91 
Q 1206 -91 779 398 
Q 353 888 353 1747 
Q 353 2609 779 3096 
Q 1206 3584 1959 3584 
z
" transform="scale(0.015625)"/>
       <path id="DejaVuSans-6e" d="M 3513 2113 
L 3513 0 
L 2938 0 
L 2938 2094 
Q 2938 2591 2744 2837 
Q 2550 3084 2163 3084 
Q 1697 3084 1428 2787 
Q 1159 2491 1159 1978 
L 1159 0 
L 581 0 
L 581 3500 
L 1159 3500 
L 1159 2956 
Q 1366 3272 1645 3428 
Q 1925 3584 2291 3584 
Q 2894 3584 3203 3211 
Q 3513 2838 3513 2113 
z
" transform="scale(0.015625)"/>
       <path id="DejaVuSans-74" d="M 1172 4494 
L 1172 3500 
L 2356 3500 
L 2356 3053 
L 1172 3053 
L 1172 1153 
Q 1172 725 1289 603 
Q 1406 481 1766 481 
L 2356 481 
L 2356 0 
L 1766 0 
Q 1100 0 847 248 
Q 594 497 594 1153 
L 594 3053 
L 172 3053 
L 172 3500 
L 594 3500 
L 594 4494 
L 1172 4494 
z
" transform="scale(0.015625)"/>
      </defs>
      <use xlink:href="#DejaVuSans-54"/>
      <use xlink:href="#DejaVuSans-69" x="57.958984"/>
      <use xlink:href="#DejaVuSans-6d" x="85.742188"/>
      <use xlink:href="#DejaVuSans-65" x="183.154297"/>
      <use xlink:href="#DejaVuSans-70" x="244.677734"/>
      <use xlink:href="#DejaVuSans-6f" x="308.154297"/>
      <use xlink:href="#DejaVuSans-69" x="369.335938"/>
      <use xlink:href="#DejaVuSans-6e" x="397.119141"/>
      <use xlink:href="#DejaVuSans-74" x="460.498047"/>
     </g>
    </g>
   </g>
   <g id="matplotlib.axis_2">
    <g id="ytick_1">
     <g id="line2d_4">
      <defs>
       <path id="m5e5c9d2bda" d="M 0 0 
L -3.5 0 
" style="stroke: #000000; stroke-width: 0.8"/>
      </defs>
      <g>
       <use xlink:href="#m5e5c9d2bda" x="50.27" y="234.308642" style="stroke: #000000; stroke-width: 0.8"/>
      </g>
     </g>
     <g id="text_5">
      <!-- −60 -->
      <g transform="translate(26.38625 237.348017) scale(0.08 -0.08)">
       <defs>
        <path id="DejaVuSans-2212" d="M 678 2272 
L 4684 2272 
L 4684 1741 
L 678 1741 
L 678 2272 
z
" transform="scale(0.015625)"/>
        <path id="DejaVuSans-36" d="M 2113 2584 
Q 1688 2584 1439 2293 
Q 1191 2003 1191 1497 
Q 1191 994 1439 701 
Q 1688 409 2113 409 
Q 2538 409 2786 701 
Q 3034 994 3034 1497 
Q 3034 2003 2786 2293 
Q 2538 2584 2113 2584 
z
M 3366 4563 
L 3366 3988 
Q 3128 4100 2886 4159 
Q 2644 4219 2406 4219 
Q 1781 4219 1451 3797 
Q 1122 3375 1075 2522 
Q 1259 2794 1537 2939 
Q 1816 3084 2150 3084 
Q 2853 3084 3261 2657 
Q 3669 2231 3669 1497 
Q 3669 778 3244 343 
Q 2819 -91 2113 -91 
Q 1303 -91 875 529 
Q 447 1150 447 2328 
Q 447 3434 972 4092 
Q 1497 4750 2381 4750 
Q 2619 4750 2861 4703 
Q 3103 4656 3366 4563 
z
" transform="scale(0.015625)"/>
       </defs>
       <use xlink:href="#DejaVuSans-2212"/>
       <use xlink:href="#DejaVuSans-36" x="83.789062"/>
       <use xlink:href="#DejaVuSans-30" x="147.412109"/>
      </g>
     </g>
    </g>
    <g id="ytick_2">
     <g id="line2d_5">
      <g>
       <use xlink:href="#m5e5c9d2bda" x="50.27" y="201.581334" style="stroke: #000000; stroke-width: 0.8"/>
      </g>
     </g>
     <g id="text_6">
      <!-- −40 -->
      <g transform="translate(26.38625 204.620709) scale(0.08 -0.08)">
       <defs>
        <path id="DejaVuSans-34" d="M 2419 4116 
L 825 1625 
L 2419 1625 
L 2419 4116 
z
M 2253 4666 
L 3047 4666 
L 3047 1625 
L 3713 1625 
L 3713 1100 
L 3047 1100 
L 3047 0 
L 2419 0 
L 2419 1100 
L 313 1100 
L 313 1709 
L 2253 4666 
z
" transform="scale(0.015625)"/>
       </defs>
       <use xlink:href="#DejaVuSans-2212"/>
       <use xlink:href="#DejaVuSans-34" x="83.789062"/>
       <use xlink:href="#DejaVuSans-30" x="147.412109"/>
      </g>
     </g>
    </g>
    <g id="ytick_3">
     <g id="line2d_6">
      <g>
       <use xlink:href="#m5e5c9d2bda" x="50.27" y="168.854025" style="stroke: #000000; stroke-width: 0.8"/>
      </g>
     </g>
     <g id="text_7">
      <!-- −20 -->
      <g transform="translate(26.38625 171.8934) scale(0.08 -0.08)">
       <use xlink:href="#DejaVuSans-2212"/>
       <use xlink:href="#DejaVuSans-32" x="83.789062"/>
       <use xlink:href="#DejaVuSans-30" x="147.412109"/>
      </g>
     </g>
    </g>
    <g id="ytick_4">
     <g id="line2d_7">
      <g>
       <use xlink:href="#m5e5c9d2bda" x="50.27" y="136.126717" style="stroke: #000000; stroke-width: 0.8"/>
      </g>
     </g>
     <g id="text_8">
      <!-- 0 -->
      <g transform="translate(38.18 139.166092) scale(0.08 -0.08)">
       <use xlink:href="#DejaVuSans-30"/>
      </g>
     </g>
    </g>
    <g id="ytick_5">
     <g id="line2d_8">
      <g>
       <use xlink:href="#m5e5c9d2bda" x="50.27" y="103.399409" style="stroke: #000000; stroke-width: 0.8"/>
      </g>
     </g>
     <g id="text_9">
      <!-- 20 -->
      <g transform="translate(33.09 106.438784) scale(0.08 -0.08)">
       <use xlink:href="#DejaVuSans-32"/>
       <use xlink:href="#DejaVuSans-30" x="63.623047"/>
      </g>
     </g>
    </g>
    <g id="ytick_6">
     <g id="line2d_9">
      <g>
       <use xlink:href="#m5e5c9d2bda" x="50.27" y="70.672101" style="stroke: #000000; stroke-width: 0.8"/>
      </g>
     </g>
     <g id="text_10">
      <!-- 40 -->
      <g transform="translate(33.09 73.711476) scale(0.08 -0.08)">
       <use xlink:href="#DejaVuSans-34"/>
       <use xlink:href="#DejaVuSans-30" x="63.623047"/>
      </g>
     </g>
    </g>
    <g id="ytick_7">
     <g id="line2d_10">
      <g>
       <use xlink:href="#m5e5c9d2bda" x="50.27" y="37.944793" style="stroke: #000000; stroke-width: 0.8"/>
      </g>
     </g>
     <g id="text_11">
      <!-- 60 -->
      <g transform="translate(33.09 40.984168) scale(0.08 -0.08)">
       <use xlink:href="#DejaVuSans-36"/>
       <use xlink:href="#DejaVuSans-30" x="63.623047"/>
      </g>
     </g>
    </g>
    <g id="text_12">
     <!-- Distance to Boundary -->
     <g transform="translate(19.890625 197.84075) rotate(-90) scale(0.12 -0.12)">
      <defs>
       <path id="DejaVuSans-44" d="M 1259 4147 
L 1259 519 
L 2022 519 
Q 2988 519 3436 956 
Q 3884 1394 3884 2338 
Q 3884 3275 3436 3711 
Q 2988 4147 2022 4147 
L 1259 4147 
z
M 628 4666 
L 1925 4666 
Q 3281 4666 3915 4102 
Q 4550 3538 4550 2338 
Q 4550 1131 3912 565 
Q 3275 0 1925 0 
L 628 0 
L 628 4666 
z
" transform="scale(0.015625)"/>
       <path id="DejaVuSans-73" d="M 2834 3397 
L 2834 2853 
Q 2591 2978 2328 3040 
Q 2066 3103 1784 3103 
Q 1356 3103 1142 2972 
Q 928 2841 928 2578 
Q 928 2378 1081 2264 
Q 1234 2150 1697 2047 
L 1894 2003 
Q 2506 1872 2764 1633 
Q 3022 1394 3022 966 
Q 3022 478 2636 193 
Q 2250 -91 1575 -91 
Q 1294 -91 989 -36 
Q 684 19 347 128 
L 347 722 
Q 666 556 975 473 
Q 1284 391 1588 391 
Q 1994 391 2212 530 
Q 2431 669 2431 922 
Q 2431 1156 2273 1281 
Q 2116 1406 1581 1522 
L 1381 1569 
Q 847 1681 609 1914 
Q 372 2147 372 2553 
Q 372 3047 722 3315 
Q 1072 3584 1716 3584 
Q 2034 3584 2315 3537 
Q 2597 3491 2834 3397 
z
" transform="scale(0.015625)"/>
       <path id="DejaVuSans-61" d="M 2194 1759 
Q 1497 1759 1228 1600 
Q 959 1441 959 1056 
Q 959 750 1161 570 
Q 1363 391 1709 391 
Q 2188 391 2477 730 
Q 2766 1069 2766 1631 
L 2766 1759 
L 2194 1759 
z
M 3341 1997 
L 3341 0 
L 2766 0 
L 2766 531 
Q 2569 213 2275 61 
Q 1981 -91 1556 -91 
Q 1019 -91 701 211 
Q 384 513 384 1019 
Q 384 1609 779 1909 
Q 1175 2209 1959 2209 
L 2766 2209 
L 2766 2266 
Q 2766 2663 2505 2880 
Q 2244 3097 1772 3097 
Q 1472 3097 1187 3025 
Q 903 2953 641 2809 
L 641 3341 
Q 956 3463 1253 3523 
Q 1550 3584 1831 3584 
Q 2591 3584 2966 3190 
Q 3341 2797 3341 1997 
z
" transform="scale(0.015625)"/>
       <path id="DejaVuSans-63" d="M 3122 3366 
L 3122 2828 
Q 2878 2963 2633 3030 
Q 2388 3097 2138 3097 
Q 1578 3097 1268 2742 
Q 959 2388 959 1747 
Q 959 1106 1268 751 
Q 1578 397 2138 397 
Q 2388 397 2633 464 
Q 2878 531 3122 666 
L 3122 134 
Q 2881 22 2623 -34 
Q 2366 -91 2075 -91 
Q 1284 -91 818 406 
Q 353 903 353 1747 
Q 353 2603 823 3093 
Q 1294 3584 2113 3584 
Q 2378 3584 2631 3529 
Q 2884 3475 3122 3366 
z
" transform="scale(0.015625)"/>
       <path id="DejaVuSans-20" transform="scale(0.015625)"/>
       <path id="DejaVuSans-42" d="M 1259 2228 
L 1259 519 
L 2272 519 
Q 2781 519 3026 730 
Q 3272 941 3272 1375 
Q 3272 1813 3026 2020 
Q 2781 2228 2272 2228 
L 1259 2228 
z
M 1259 4147 
L 1259 2741 
L 2194 2741 
Q 2656 2741 2882 2914 
Q 3109 3088 3109 3444 
Q 3109 3797 2882 3972 
Q 2656 4147 2194 4147 
L 1259 4147 
z
M 628 4666 
L 2241 4666 
Q 2963 4666 3353 4366 
Q 3744 4066 3744 3513 
Q 3744 3084 3544 2831 
Q 3344 2578 2956 2516 
Q 3422 2416 3680 2098 
Q 3938 1781 3938 1306 
Q 3938 681 3513 340 
Q 3088 0 2303 0 
L 628 0 
L 628 4666 
z
" transform="scale(0.015625)"/>
       <path id="DejaVuSans-75" d="M 544 1381 
L 544 3500 
L 1119 3500 
L 1119 1403 
Q 1119 906 1312 657 
Q 1506 409 1894 409 
Q 2359 409 2629 706 
Q 2900 1003 2900 1516 
L 2900 3500 
L 3475 3500 
L 3475 0 
L 2900 0 
L 2900 538 
Q 2691 219 2414 64 
Q 2138 -91 1772 -91 
Q 1169 -91 856 284 
Q 544 659 544 1381 
z
M 1991 3584 
L 1991 3584 
z
" transform="scale(0.015625)"/>
       <path id="DejaVuSans-64" d="M 2906 2969 
L 2906 4863 
L 3481 4863 
L 3481 0 
L 2906 0 
L 2906 525 
Q 2725 213 2448 61 
Q 2172 -91 1784 -91 
Q 1150 -91 751 415 
Q 353 922 353 1747 
Q 353 2572 751 3078 
Q 1150 3584 1784 3584 
Q 2172 3584 2448 3432 
Q 2725 3281 2906 2969 
z
M 947 1747 
Q 947 1113 1208 752 
Q 1469 391 1925 391 
Q 2381 391 2643 752 
Q 2906 1113 2906 1747 
Q 2906 2381 2643 2742 
Q 2381 3103 1925 3103 
Q 1469 3103 1208 2742 
Q 947 2381 947 1747 
z
" transform="scale(0.015625)"/>
       <path id="DejaVuSans-72" d="M 2631 2963 
Q 2534 3019 2420 3045 
Q 2306 3072 2169 3072 
Q 1681 3072 1420 2755 
Q 1159 2438 1159 1844 
L 1159 0 
L 581 0 
L 581 3500 
L 1159 3500 
L 1159 2956 
Q 1341 3275 1631 3429 
Q 1922 3584 2338 3584 
Q 2397 3584 2469 3576 
Q 2541 3569 2628 3553 
L 2631 2963 
z
" transform="scale(0.015625)"/>
       <path id="DejaVuSans-79" d="M 2059 -325 
Q 1816 -950 1584 -1140 
Q 1353 -1331 966 -1331 
L 506 -1331 
L 506 -850 
L 844 -850 
Q 1081 -850 1212 -737 
Q 1344 -625 1503 -206 
L 1606 56 
L 191 3500 
L 800 3500 
L 1894 763 
L 2988 3500 
L 3597 3500 
L 2059 -325 
z
" transform="scale(0.015625)"/>
      </defs>
      <use xlink:href="#DejaVuSans-44"/>
      <use xlink:href="#DejaVuSans-69" x="77.001953"/>
      <use xlink:href="#DejaVuSans-73" x="104.785156"/>
      <use xlink:href="#DejaVuSans-74" x="156.884766"/>
      <use xlink:href="#DejaVuSans-61" x="196.09375"/>
      <use xlink:href="#DejaVuSans-6e" x="257.373047"/>
      <use xlink:href="#DejaVuSans-63" x="320.751953"/>
      <use xlink:href="#DejaVuSans-65" x="375.732422"/>
      <use xlink:href="#DejaVuSans-20" x="437.255859"/>
      <use xlink:href="#DejaVuSans-74" x="469.042969"/>
      <use xlink:href="#DejaVuSans-6f" x="508.251953"/>
      <use xlink:href="#DejaVuSans-20" x="569.433594"/>
      <use xlink:href="#DejaVuSans-42" x="601.220703"/>
      <use xlink:href="#DejaVuSans-6f" x="669.824219"/>
      <use xlink:href="#DejaVuSans-75" x="731.005859"/>
      <use xlink:href="#DejaVuSans-6e" x="794.384766"/>
      <use xlink:href="#DejaVuSans-64" x="857.763672"/>
      <use xlink:href="#DejaVuSans-61" x="921.240234"/>
      <use xlink:href="#DejaVuSans-72" x="982.519531"/>
      <use xlink:href="#DejaVuSans-79" x="1023.632812"/>
     </g>
    </g>
   </g>
   <g id="patch_3">
    <path d="M 56.287882 179.908042 
L 84.062721 179.908042 
L 84.062721 153.610887 
L 56.287882 153.610887 
L 56.287882 179.908042 
z
" clip-path="url(#pfee36fe2e9)" style="fill: #df2020; stroke: #4c4c4c; stroke-linejoin: miter"/>
   </g>
   <g id="line2d_11">
    <path d="M 70.175301 179.908042 
L 70.175301 208.250976 
" clip-path="url(#pfee36fe2e9)" style="fill: none; stroke: #4c4c4c"/>
   </g>
   <g id="line2d_12">
    <path d="M 70.175301 153.610887 
L 70.175301 126.79487 
" clip-path="url(#pfee36fe2e9)" style="fill: none; stroke: #4c4c4c"/>
   </g>
   <g id="line2d_13">
    <path d="M 63.231592 208.250976 
L 77.119011 208.250976 
" clip-path="url(#pfee36fe2e9)" style="fill: none; stroke: #4c4c4c; stroke-linecap: square"/>
   </g>
   <g id="line2d_14">
    <path d="M 63.231592 126.79487 
L 77.119011 126.79487 
" clip-path="url(#pfee36fe2e9)" style="fill: none; stroke: #4c4c4c; stroke-linecap: square"/>
   </g>
   <g id="patch_4">
    <path d="M 102.57928 159.62469 
L 130.35412 159.62469 
L 130.35412 116.798803 
L 102.57928 116.798803 
L 102.57928 159.62469 
z
" clip-path="url(#pfee36fe2e9)" style="fill: #df2020; stroke: #4c4c4c; stroke-linejoin: miter"/>
   </g>
   <g id="line2d_15">
    <path d="M 116.4667 159.62469 
L 116.4667 216.988923 
" clip-path="url(#pfee36fe2e9)" style="fill: none; stroke: #4c4c4c"/>
   </g>
   <g id="line2d_16">
    <path d="M 116.4667 116.798803 
L 116.4667 87.595703 
" clip-path="url(#pfee36fe2e9)" style="fill: none; stroke: #4c4c4c"/>
   </g>
   <g id="line2d_17">
    <path d="M 109.52299 216.988923 
L 123.41041 216.988923 
" clip-path="url(#pfee36fe2e9)" style="fill: none; stroke: #4c4c4c; stroke-linecap: square"/>
   </g>
   <g id="line2d_18">
    <path d="M 109.52299 87.595703 
L 123.41041 87.595703 
" clip-path="url(#pfee36fe2e9)" style="fill: none; stroke: #4c4c4c; stroke-linecap: square"/>
   </g>
   <g id="patch_5">
    <path d="M 148.870679 129.293435 
L 176.645518 129.293435 
L 176.645518 96.740345 
L 148.870679 96.740345 
L 148.870679 129.293435 
z
" clip-path="url(#pfee36fe2e9)" style="fill: #df2020; stroke: #4c4c4c; stroke-linejoin: miter"/>
   </g>
   <g id="line2d_19">
    <path d="M 162.758099 129.293435 
L 162.758099 140.149792 
" clip-path="url(#pfee36fe2e9)" style="fill: none; stroke: #4c4c4c"/>
   </g>
   <g id="line2d_20">
    <path d="M 162.758099 96.740345 
L 162.758099 56.084581 
" clip-path="url(#pfee36fe2e9)" style="fill: none; stroke: #4c4c4c"/>
   </g>
   <g id="line2d_21">
    <path d="M 155.814389 140.149792 
L 169.701808 140.149792 
" clip-path="url(#pfee36fe2e9)" style="fill: none; stroke: #4c4c4c; stroke-linecap: square"/>
   </g>
   <g id="line2d_22">
    <path d="M 155.814389 56.084581 
L 169.701808 56.084581 
" clip-path="url(#pfee36fe2e9)" style="fill: none; stroke: #4c4c4c; stroke-linecap: square"/>
   </g>
   <g id="line2d_23">
    <path d="M 70.175301 208.250976 
L 116.4667 216.988923 
L 162.758099 211.909982 
" clip-path="url(#pfee36fe2e9)" style="fill: none; stroke: #f77732; stroke-opacity: 0.8; stroke-width: 1.2; stroke-linecap: square"/>
    <defs>
     <path id="me94e815973" d="M 0 1 
C 0.265203 1 0.51958 0.894634 0.707107 0.707107 
C 0.894634 0.51958 1 0.265203 1 0 
C 1 -0.265203 0.894634 -0.51958 0.707107 -0.707107 
C 0.51958 -0.894634 0.265203 -1 0 -1 
C -0.265203 -1 -0.51958 -0.894634 -0.707107 -0.707107 
C -0.894634 -0.51958 -1 -0.265203 -1 0 
C -1 0.265203 -0.894634 0.51958 -0.707107 0.707107 
C -0.51958 0.894634 -0.265203 1 0 1 
z
" style="stroke: #f77732; stroke-opacity: 0.8"/>
    </defs>
    <g clip-path="url(#pfee36fe2e9)">
     <use xlink:href="#me94e815973" x="70.175301" y="208.250976" style="fill: #f77732; fill-opacity: 0.8; stroke: #f77732; stroke-opacity: 0.8"/>
     <use xlink:href="#me94e815973" x="116.4667" y="216.988923" style="fill: #f77732; fill-opacity: 0.8; stroke: #f77732; stroke-opacity: 0.8"/>
     <use xlink:href="#me94e815973" x="162.758099" y="211.909982" style="fill: #f77732; fill-opacity: 0.8; stroke: #f77732; stroke-opacity: 0.8"/>
    </g>
   </g>
   <g id="line2d_24">
    <path d="M 70.175301 174.615698 
L 116.4667 132.877746 
L 162.758099 110.992658 
" clip-path="url(#pfee36fe2e9)" style="fill: none; stroke: #ce9032; stroke-opacity: 0.8; stroke-width: 1.2; stroke-linecap: square"/>
    <defs>
     <path id="md8a964507e" d="M 0 1 
C 0.265203 1 0.51958 0.894634 0.707107 0.707107 
C 0.894634 0.51958 1 0.265203 1 0 
C 1 -0.265203 0.894634 -0.51958 0.707107 -0.707107 
C 0.51958 -0.894634 0.265203 -1 0 -1 
C -0.265203 -1 -0.51958 -0.894634 -0.707107 -0.707107 
C -0.894634 -0.51958 -1 -0.265203 -1 0 
C -1 0.265203 -0.894634 0.51958 -0.707107 0.707107 
C -0.51958 0.894634 -0.265203 1 0 1 
z
" style="stroke: #ce9032; stroke-opacity: 0.8"/>
    </defs>
    <g clip-path="url(#pfee36fe2e9)">
     <use xlink:href="#md8a964507e" x="70.175301" y="174.615698" style="fill: #ce9032; fill-opacity: 0.8; stroke: #ce9032; stroke-opacity: 0.8"/>
     <use xlink:href="#md8a964507e" x="116.4667" y="132.877746" style="fill: #ce9032; fill-opacity: 0.8; stroke: #ce9032; stroke-opacity: 0.8"/>
     <use xlink:href="#md8a964507e" x="162.758099" y="110.992658" style="fill: #ce9032; fill-opacity: 0.8; stroke: #ce9032; stroke-opacity: 0.8"/>
    </g>
   </g>
   <g id="line2d_25">
    <path d="M 70.175301 156.435583 
L 116.4667 129.36813 
L 162.758099 111.050116 
" clip-path="url(#pfee36fe2e9)" style="fill: none; stroke: #b39b32; stroke-opacity: 0.8; stroke-width: 1.2; stroke-linecap: square"/>
    <defs>
     <path id="mb279036b0f" d="M 0 1 
C 0.265203 1 0.51958 0.894634 0.707107 0.707107 
C 0.894634 0.51958 1 0.265203 1 0 
C 1 -0.265203 0.894634 -0.51958 0.707107 -0.707107 
C 0.51958 -0.894634 0.265203 -1 0 -1 
C -0.265203 -1 -0.51958 -0.894634 -0.707107 -0.707107 
C -0.894634 -0.51958 -1 -0.265203 -1 0 
C -1 0.265203 -0.894634 0.51958 -0.707107 0.707107 
C -0.51958 0.894634 -0.265203 1 0 1 
z
" style="stroke: #b39b32; stroke-opacity: 0.8"/>
    </defs>
    <g clip-path="url(#pfee36fe2e9)">
     <use xlink:href="#mb279036b0f" x="70.175301" y="156.435583" style="fill: #b39b32; fill-opacity: 0.8; stroke: #b39b32; stroke-opacity: 0.8"/>
     <use xlink:href="#mb279036b0f" x="116.4667" y="129.36813" style="fill: #b39b32; fill-opacity: 0.8; stroke: #b39b32; stroke-opacity: 0.8"/>
     <use xlink:href="#mb279036b0f" x="162.758099" y="111.050116" style="fill: #b39b32; fill-opacity: 0.8; stroke: #b39b32; stroke-opacity: 0.8"/>
    </g>
   </g>
   <g id="line2d_26">
    <path d="M 70.175301 173.865511 
L 116.4667 108.730603 
L 162.758099 59.732096 
" clip-path="url(#pfee36fe2e9)" style="fill: none; stroke: #97a431; stroke-opacity: 0.8; stroke-width: 1.2; stroke-linecap: square"/>
    <defs>
     <path id="m8116a21043" d="M 0 1 
C 0.265203 1 0.51958 0.894634 0.707107 0.707107 
C 0.894634 0.51958 1 0.265203 1 0 
C 1 -0.265203 0.894634 -0.51958 0.707107 -0.707107 
C 0.51958 -0.894634 0.265203 -1 0 -1 
C -0.265203 -1 -0.51958 -0.894634 -0.707107 -0.707107 
C -0.894634 -0.51958 -1 -0.265203 -1 0 
C -1 0.265203 -0.894634 0.51958 -0.707107 0.707107 
C -0.51958 0.894634 -0.265203 1 0 1 
z
" style="stroke: #97a431; stroke-opacity: 0.8"/>
    </defs>
    <g clip-path="url(#pfee36fe2e9)">
     <use xlink:href="#m8116a21043" x="70.175301" y="173.865511" style="fill: #97a431; fill-opacity: 0.8; stroke: #97a431; stroke-opacity: 0.8"/>
     <use xlink:href="#m8116a21043" x="116.4667" y="108.730603" style="fill: #97a431; fill-opacity: 0.8; stroke: #97a431; stroke-opacity: 0.8"/>
     <use xlink:href="#m8116a21043" x="162.758099" y="59.732096" style="fill: #97a431; fill-opacity: 0.8; stroke: #97a431; stroke-opacity: 0.8"/>
    </g>
   </g>
   <g id="line2d_27">
    <path d="M 70.175301 188.547502 
L 116.4667 152.049372 
L 162.758099 125.674649 
" clip-path="url(#pfee36fe2e9)" style="fill: none; stroke: #6cad31; stroke-opacity: 0.8; stroke-width: 1.2; stroke-linecap: square"/>
    <defs>
     <path id="m7356783315" d="M 0 1 
C 0.265203 1 0.51958 0.894634 0.707107 0.707107 
C 0.894634 0.51958 1 0.265203 1 0 
C 1 -0.265203 0.894634 -0.51958 0.707107 -0.707107 
C 0.51958 -0.894634 0.265203 -1 0 -1 
C -0.265203 -1 -0.51958 -0.894634 -0.707107 -0.707107 
C -0.894634 -0.51958 -1 -0.265203 -1 0 
C -1 0.265203 -0.894634 0.51958 -0.707107 0.707107 
C -0.51958 0.894634 -0.265203 1 0 1 
z
" style="stroke: #6cad31; stroke-opacity: 0.8"/>
    </defs>
    <g clip-path="url(#pfee36fe2e9)">
     <use xlink:href="#m7356783315" x="70.175301" y="188.547502" style="fill: #6cad31; fill-opacity: 0.8; stroke: #6cad31; stroke-opacity: 0.8"/>
     <use xlink:href="#m7356783315" x="116.4667" y="152.049372" style="fill: #6cad31; fill-opacity: 0.8; stroke: #6cad31; stroke-opacity: 0.8"/>
     <use xlink:href="#m7356783315" x="162.758099" y="125.674649" style="fill: #6cad31; fill-opacity: 0.8; stroke: #6cad31; stroke-opacity: 0.8"/>
    </g>
   </g>
   <g id="line2d_28">
    <path d="M 70.175301 165.139055 
L 116.4667 147.605703 
L 162.758099 114.674647 
" clip-path="url(#pfee36fe2e9)" style="fill: none; stroke: #32b166; stroke-opacity: 0.8; stroke-width: 1.2; stroke-linecap: square"/>
    <defs>
     <path id="m4c1f15d01d" d="M 0 1 
C 0.265203 1 0.51958 0.894634 0.707107 0.707107 
C 0.894634 0.51958 1 0.265203 1 0 
C 1 -0.265203 0.894634 -0.51958 0.707107 -0.707107 
C 0.51958 -0.894634 0.265203 -1 0 -1 
C -0.265203 -1 -0.51958 -0.894634 -0.707107 -0.707107 
C -0.894634 -0.51958 -1 -0.265203 -1 0 
C -1 0.265203 -0.894634 0.51958 -0.707107 0.707107 
C -0.51958 0.894634 -0.265203 1 0 1 
z
" style="stroke: #32b166; stroke-opacity: 0.8"/>
    </defs>
    <g clip-path="url(#pfee36fe2e9)">
     <use xlink:href="#m4c1f15d01d" x="70.175301" y="165.139055" style="fill: #32b166; fill-opacity: 0.8; stroke: #32b166; stroke-opacity: 0.8"/>
     <use xlink:href="#m4c1f15d01d" x="116.4667" y="147.605703" style="fill: #32b166; fill-opacity: 0.8; stroke: #32b166; stroke-opacity: 0.8"/>
     <use xlink:href="#m4c1f15d01d" x="162.758099" y="114.674647" style="fill: #32b166; fill-opacity: 0.8; stroke: #32b166; stroke-opacity: 0.8"/>
    </g>
   </g>
   <g id="line2d_29">
    <path d="M 70.175301 157.912975 
L 116.4667 127.152041 
L 162.758099 122.765831 
" clip-path="url(#pfee36fe2e9)" style="fill: none; stroke: #34af8e; stroke-opacity: 0.8; stroke-width: 1.2; stroke-linecap: square"/>
    <defs>
     <path id="m0f50d1072b" d="M 0 1 
C 0.265203 1 0.51958 0.894634 0.707107 0.707107 
C 0.894634 0.51958 1 0.265203 1 0 
C 1 -0.265203 0.894634 -0.51958 0.707107 -0.707107 
C 0.51958 -0.894634 0.265203 -1 0 -1 
C -0.265203 -1 -0.51958 -0.894634 -0.707107 -0.707107 
C -0.894634 -0.51958 -1 -0.265203 -1 0 
C -1 0.265203 -0.894634 0.51958 -0.707107 0.707107 
C -0.51958 0.894634 -0.265203 1 0 1 
z
" style="stroke: #34af8e; stroke-opacity: 0.8"/>
    </defs>
    <g clip-path="url(#pfee36fe2e9)">
     <use xlink:href="#m0f50d1072b" x="70.175301" y="157.912975" style="fill: #34af8e; fill-opacity: 0.8; stroke: #34af8e; stroke-opacity: 0.8"/>
     <use xlink:href="#m0f50d1072b" x="116.4667" y="127.152041" style="fill: #34af8e; fill-opacity: 0.8; stroke: #34af8e; stroke-opacity: 0.8"/>
     <use xlink:href="#m0f50d1072b" x="162.758099" y="122.765831" style="fill: #34af8e; fill-opacity: 0.8; stroke: #34af8e; stroke-opacity: 0.8"/>
    </g>
   </g>
   <g id="line2d_30">
    <path d="M 70.175301 183.38812 
L 116.4667 176.116074 
L 162.758099 186.354396 
" clip-path="url(#pfee36fe2e9)" style="fill: none; stroke: #36ada4; stroke-opacity: 0.8; stroke-width: 1.2; stroke-linecap: square"/>
    <defs>
     <path id="mae3c904e81" d="M 0 1 
C 0.265203 1 0.51958 0.894634 0.707107 0.707107 
C 0.894634 0.51958 1 0.265203 1 0 
C 1 -0.265203 0.894634 -0.51958 0.707107 -0.707107 
C 0.51958 -0.894634 0.265203 -1 0 -1 
C -0.265203 -1 -0.51958 -0.894634 -0.707107 -0.707107 
C -0.894634 -0.51958 -1 -0.265203 -1 0 
C -1 0.265203 -0.894634 0.51958 -0.707107 0.707107 
C -0.51958 0.894634 -0.265203 1 0 1 
z
" style="stroke: #36ada4; stroke-opacity: 0.8"/>
    </defs>
    <g clip-path="url(#pfee36fe2e9)">
     <use xlink:href="#mae3c904e81" x="70.175301" y="183.38812" style="fill: #36ada4; fill-opacity: 0.8; stroke: #36ada4; stroke-opacity: 0.8"/>
     <use xlink:href="#mae3c904e81" x="116.4667" y="176.116074" style="fill: #36ada4; fill-opacity: 0.8; stroke: #36ada4; stroke-opacity: 0.8"/>
     <use xlink:href="#mae3c904e81" x="162.758099" y="186.354396" style="fill: #36ada4; fill-opacity: 0.8; stroke: #36ada4; stroke-opacity: 0.8"/>
    </g>
   </g>
   <g id="line2d_31">
    <path d="M 70.175301 180.479302 
L 116.4667 184.796563 
L 162.758099 190.740607 
" clip-path="url(#pfee36fe2e9)" style="fill: none; stroke: #37abb8; stroke-opacity: 0.8; stroke-width: 1.2; stroke-linecap: square"/>
    <defs>
     <path id="m4bab3655da" d="M 0 1 
C 0.265203 1 0.51958 0.894634 0.707107 0.707107 
C 0.894634 0.51958 1 0.265203 1 0 
C 1 -0.265203 0.894634 -0.51958 0.707107 -0.707107 
C 0.51958 -0.894634 0.265203 -1 0 -1 
C -0.265203 -1 -0.51958 -0.894634 -0.707107 -0.707107 
C -0.894634 -0.51958 -1 -0.265203 -1 0 
C -1 0.265203 -0.894634 0.51958 -0.707107 0.707107 
C -0.51958 0.894634 -0.265203 1 0 1 
z
" style="stroke: #37abb8; stroke-opacity: 0.8"/>
    </defs>
    <g clip-path="url(#pfee36fe2e9)">
     <use xlink:href="#m4bab3655da" x="70.175301" y="180.479302" style="fill: #37abb8; fill-opacity: 0.8; stroke: #37abb8; stroke-opacity: 0.8"/>
     <use xlink:href="#m4bab3655da" x="116.4667" y="184.796563" style="fill: #37abb8; fill-opacity: 0.8; stroke: #37abb8; stroke-opacity: 0.8"/>
     <use xlink:href="#m4bab3655da" x="162.758099" y="190.740607" style="fill: #37abb8; fill-opacity: 0.8; stroke: #37abb8; stroke-opacity: 0.8"/>
    </g>
   </g>
   <g id="line2d_32">
    <path d="M 70.175301 160.775828 
L 116.4667 198.797316 
L 162.758099 125.674649 
" clip-path="url(#pfee36fe2e9)" style="fill: none; stroke: #39a7d0; stroke-opacity: 0.8; stroke-width: 1.2; stroke-linecap: square"/>
    <defs>
     <path id="m4997eaff3d" d="M 0 1 
C 0.265203 1 0.51958 0.894634 0.707107 0.707107 
C 0.894634 0.51958 1 0.265203 1 0 
C 1 -0.265203 0.894634 -0.51958 0.707107 -0.707107 
C 0.51958 -0.894634 0.265203 -1 0 -1 
C -0.265203 -1 -0.51958 -0.894634 -0.707107 -0.707107 
C -0.894634 -0.51958 -1 -0.265203 -1 0 
C -1 0.265203 -0.894634 0.51958 -0.707107 0.707107 
C -0.51958 0.894634 -0.265203 1 0 1 
z
" style="stroke: #39a7d0; stroke-opacity: 0.8"/>
    </defs>
    <g clip-path="url(#pfee36fe2e9)">
     <use xlink:href="#m4997eaff3d" x="70.175301" y="160.775828" style="fill: #39a7d0; fill-opacity: 0.8; stroke: #39a7d0; stroke-opacity: 0.8"/>
     <use xlink:href="#m4997eaff3d" x="116.4667" y="198.797316" style="fill: #39a7d0; fill-opacity: 0.8; stroke: #39a7d0; stroke-opacity: 0.8"/>
     <use xlink:href="#m4997eaff3d" x="162.758099" y="125.674649" style="fill: #39a7d0; fill-opacity: 0.8; stroke: #39a7d0; stroke-opacity: 0.8"/>
    </g>
   </g>
   <g id="line2d_33">
    <path d="M 70.175301 126.79487 
L 116.4667 87.595703 
L 162.758099 56.084581 
" clip-path="url(#pfee36fe2e9)" style="fill: none; stroke: #5a9ef4; stroke-opacity: 0.8; stroke-width: 1.2; stroke-linecap: square"/>
    <defs>
     <path id="ma53892df68" d="M 0 1 
C 0.265203 1 0.51958 0.894634 0.707107 0.707107 
C 0.894634 0.51958 1 0.265203 1 0 
C 1 -0.265203 0.894634 -0.51958 0.707107 -0.707107 
C 0.51958 -0.894634 0.265203 -1 0 -1 
C -0.265203 -1 -0.51958 -0.894634 -0.707107 -0.707107 
C -0.894634 -0.51958 -1 -0.265203 -1 0 
C -1 0.265203 -0.894634 0.51958 -0.707107 0.707107 
C -0.51958 0.894634 -0.265203 1 0 1 
z
" style="stroke: #5a9ef4; stroke-opacity: 0.8"/>
    </defs>
    <g clip-path="url(#pfee36fe2e9)">
     <use xlink:href="#ma53892df68" x="70.175301" y="126.79487" style="fill: #5a9ef4; fill-opacity: 0.8; stroke: #5a9ef4; stroke-opacity: 0.8"/>
     <use xlink:href="#ma53892df68" x="116.4667" y="87.595703" style="fill: #5a9ef4; fill-opacity: 0.8; stroke: #5a9ef4; stroke-opacity: 0.8"/>
     <use xlink:href="#ma53892df68" x="162.758099" y="56.084581" style="fill: #5a9ef4; fill-opacity: 0.8; stroke: #5a9ef4; stroke-opacity: 0.8"/>
    </g>
   </g>
   <g id="line2d_34">
    <path d="M 70.175301 148.263959 
L 116.4667 119.014892 
L 162.758099 89.027129 
" clip-path="url(#pfee36fe2e9)" style="fill: none; stroke: #a48cf4; stroke-opacity: 0.8; stroke-width: 1.2; stroke-linecap: square"/>
    <defs>
     <path id="m5491101b98" d="M 0 1 
C 0.265203 1 0.51958 0.894634 0.707107 0.707107 
C 0.894634 0.51958 1 0.265203 1 0 
C 1 -0.265203 0.894634 -0.51958 0.707107 -0.707107 
C 0.51958 -0.894634 0.265203 -1 0 -1 
C -0.265203 -1 -0.51958 -0.894634 -0.707107 -0.707107 
C -0.894634 -0.51958 -1 -0.265203 -1 0 
C -1 0.265203 -0.894634 0.51958 -0.707107 0.707107 
C -0.51958 0.894634 -0.265203 1 0 1 
z
" style="stroke: #a48cf4; stroke-opacity: 0.8"/>
    </defs>
    <g clip-path="url(#pfee36fe2e9)">
     <use xlink:href="#m5491101b98" x="70.175301" y="148.263959" style="fill: #a48cf4; fill-opacity: 0.8; stroke: #a48cf4; stroke-opacity: 0.8"/>
     <use xlink:href="#m5491101b98" x="116.4667" y="119.014892" style="fill: #a48cf4; fill-opacity: 0.8; stroke: #a48cf4; stroke-opacity: 0.8"/>
     <use xlink:href="#m5491101b98" x="162.758099" y="89.027129" style="fill: #a48cf4; fill-opacity: 0.8; stroke: #a48cf4; stroke-opacity: 0.8"/>
    </g>
   </g>
   <g id="line2d_35">
    <path d="M 70.175301 154.912224 
L 116.4667 126.79487 
L 162.758099 99.311418 
" clip-path="url(#pfee36fe2e9)" style="fill: none; stroke: #d673f4; stroke-opacity: 0.8; stroke-width: 1.2; stroke-linecap: square"/>
    <defs>
     <path id="m815a1f1d25" d="M 0 1 
C 0.265203 1 0.51958 0.894634 0.707107 0.707107 
C 0.894634 0.51958 1 0.265203 1 0 
C 1 -0.265203 0.894634 -0.51958 0.707107 -0.707107 
C 0.51958 -0.894634 0.265203 -1 0 -1 
C -0.265203 -1 -0.51958 -0.894634 -0.707107 -0.707107 
C -0.894634 -0.51958 -1 -0.265203 -1 0 
C -1 0.265203 -0.894634 0.51958 -0.707107 0.707107 
C -0.51958 0.894634 -0.265203 1 0 1 
z
" style="stroke: #d673f4; stroke-opacity: 0.8"/>
    </defs>
    <g clip-path="url(#pfee36fe2e9)">
     <use xlink:href="#m815a1f1d25" x="70.175301" y="154.912224" style="fill: #d673f4; fill-opacity: 0.8; stroke: #d673f4; stroke-opacity: 0.8"/>
     <use xlink:href="#m815a1f1d25" x="116.4667" y="126.79487" style="fill: #d673f4; fill-opacity: 0.8; stroke: #d673f4; stroke-opacity: 0.8"/>
     <use xlink:href="#m815a1f1d25" x="162.758099" y="99.311418" style="fill: #d673f4; fill-opacity: 0.8; stroke: #d673f4; stroke-opacity: 0.8"/>
    </g>
   </g>
   <g id="line2d_36">
    <path d="M 70.175301 179.717622 
L 116.4667 110.150537 
L 162.758099 107.299177 
" clip-path="url(#pfee36fe2e9)" style="fill: none; stroke: #f561dd; stroke-opacity: 0.8; stroke-width: 1.2; stroke-linecap: square"/>
    <defs>
     <path id="m052cd7e581" d="M 0 1 
C 0.265203 1 0.51958 0.894634 0.707107 0.707107 
C 0.894634 0.51958 1 0.265203 1 0 
C 1 -0.265203 0.894634 -0.51958 0.707107 -0.707107 
C 0.51958 -0.894634 0.265203 -1 0 -1 
C -0.265203 -1 -0.51958 -0.894634 -0.707107 -0.707107 
C -0.894634 -0.51958 -1 -0.265203 -1 0 
C -1 0.265203 -0.894634 0.51958 -0.707107 0.707107 
C -0.51958 0.894634 -0.265203 1 0 1 
z
" style="stroke: #f561dd; stroke-opacity: 0.8"/>
    </defs>
    <g clip-path="url(#pfee36fe2e9)">
     <use xlink:href="#m052cd7e581" x="70.175301" y="179.717622" style="fill: #f561dd; fill-opacity: 0.8; stroke: #f561dd; stroke-opacity: 0.8"/>
     <use xlink:href="#m052cd7e581" x="116.4667" y="110.150537" style="fill: #f561dd; fill-opacity: 0.8; stroke: #f561dd; stroke-opacity: 0.8"/>
     <use xlink:href="#m052cd7e581" x="162.758099" y="107.299177" style="fill: #f561dd; fill-opacity: 0.8; stroke: #f561dd; stroke-opacity: 0.8"/>
    </g>
   </g>
   <g id="line2d_37">
    <path d="M 70.175301 149.706876 
L 116.4667 87.595703 
L 162.758099 74.368121 
" clip-path="url(#pfee36fe2e9)" style="fill: none; stroke: #f77189; stroke-opacity: 0.8; stroke-width: 1.2; stroke-linecap: square"/>
    <defs>
     <path id="m58c99070f2" d="M 0 1 
C 0.265203 1 0.51958 0.894634 0.707107 0.707107 
C 0.894634 0.51958 1 0.265203 1 0 
C 1 -0.265203 0.894634 -0.51958 0.707107 -0.707107 
C 0.51958 -0.894634 0.265203 -1 0 -1 
C -0.265203 -1 -0.51958 -0.894634 -0.707107 -0.707107 
C -0.894634 -0.51958 -1 -0.265203 -1 0 
C -1 0.265203 -0.894634 0.51958 -0.707107 0.707107 
C -0.51958 0.894634 -0.265203 1 0 1 
z
" style="stroke: #f77189; stroke-opacity: 0.8"/>
    </defs>
    <g clip-path="url(#pfee36fe2e9)">
     <use xlink:href="#m58c99070f2" x="70.175301" y="149.706876" style="fill: #f77189; fill-opacity: 0.8; stroke: #f77189; stroke-opacity: 0.8"/>
     <use xlink:href="#m58c99070f2" x="116.4667" y="87.595703" style="fill: #f77189; fill-opacity: 0.8; stroke: #f77189; stroke-opacity: 0.8"/>
     <use xlink:href="#m58c99070f2" x="162.758099" y="74.368121" style="fill: #f77189; fill-opacity: 0.8; stroke: #f77189; stroke-opacity: 0.8"/>
    </g>
   </g>
   <g id="line2d_38">
    <path d="M 70.175301 139.537503 
L 116.4667 154.127562 
L 162.758099 140.149792 
" clip-path="url(#pfee36fe2e9)" style="fill: none; stroke: #f66ab5; stroke-opacity: 0.8; stroke-width: 1.2; stroke-linecap: square"/>
    <defs>
     <path id="m80ffdea70c" d="M 0 1 
C 0.265203 1 0.51958 0.894634 0.707107 0.707107 
C 0.894634 0.51958 1 0.265203 1 0 
C 1 -0.265203 0.894634 -0.51958 0.707107 -0.707107 
C 0.51958 -0.894634 0.265203 -1 0 -1 
C -0.265203 -1 -0.51958 -0.894634 -0.707107 -0.707107 
C -0.894634 -0.51958 -1 -0.265203 -1 0 
C -1 0.265203 -0.894634 0.51958 -0.707107 0.707107 
C -0.51958 0.894634 -0.265203 1 0 1 
z
" style="stroke: #f66ab5; stroke-opacity: 0.8"/>
    </defs>
    <g clip-path="url(#pfee36fe2e9)">
     <use xlink:href="#m80ffdea70c" x="70.175301" y="139.537503" style="fill: #f66ab5; fill-opacity: 0.8; stroke: #f66ab5; stroke-opacity: 0.8"/>
     <use xlink:href="#m80ffdea70c" x="116.4667" y="154.127562" style="fill: #f66ab5; fill-opacity: 0.8; stroke: #f66ab5; stroke-opacity: 0.8"/>
     <use xlink:href="#m80ffdea70c" x="162.758099" y="140.149792" style="fill: #f66ab5; fill-opacity: 0.8; stroke: #f66ab5; stroke-opacity: 0.8"/>
    </g>
   </g>
   <g id="line2d_39">
    <path d="M 56.287882 162.957441 
L 84.062721 162.957441 
" clip-path="url(#pfee36fe2e9)" style="fill: none; stroke: #4c4c4c"/>
   </g>
   <g id="line2d_40">
    <path d="M 102.57928 131.122938 
L 130.35412 131.122938 
" clip-path="url(#pfee36fe2e9)" style="fill: none; stroke: #4c4c4c"/>
   </g>
   <g id="line2d_41">
    <path d="M 148.870679 112.862381 
L 176.645518 112.862381 
" clip-path="url(#pfee36fe2e9)" style="fill: none; stroke: #4c4c4c"/>
   </g>
   <g id="patch_6">
    <path d="M 50.27 242.224 
L 50.27 23.52 
" style="fill: none; stroke: #000000; stroke-width: 0.8; stroke-linejoin: miter; stroke-linecap: square"/>
   </g>
   <g id="patch_7">
    <path d="M 50.27 242.224 
L 182.6634 242.224 
" style="fill: none; stroke: #000000; stroke-width: 0.8; stroke-linejoin: miter; stroke-linecap: square"/>
   </g>
   <g id="text_13">
    <!-- Bad group -->
    <g transform="translate(93.267091 17.52) scale(0.09 -0.09)">
     <defs>
      <path id="DejaVuSans-67" d="M 2906 1791 
Q 2906 2416 2648 2759 
Q 2391 3103 1925 3103 
Q 1463 3103 1205 2759 
Q 947 2416 947 1791 
Q 947 1169 1205 825 
Q 1463 481 1925 481 
Q 2391 481 2648 825 
Q 2906 1169 2906 1791 
z
M 3481 434 
Q 3481 -459 3084 -895 
Q 2688 -1331 1869 -1331 
Q 1566 -1331 1297 -1286 
Q 1028 -1241 775 -1147 
L 775 -588 
Q 1028 -725 1275 -790 
Q 1522 -856 1778 -856 
Q 2344 -856 2625 -561 
Q 2906 -266 2906 331 
L 2906 616 
Q 2728 306 2450 153 
Q 2172 0 1784 0 
Q 1141 0 747 490 
Q 353 981 353 1791 
Q 353 2603 747 3093 
Q 1141 3584 1784 3584 
Q 2172 3584 2450 3431 
Q 2728 3278 2906 2969 
L 2906 3500 
L 3481 3500 
L 3481 434 
z
" transform="scale(0.015625)"/>
     </defs>
     <use xlink:href="#DejaVuSans-42"/>
     <use xlink:href="#DejaVuSans-61" x="68.603516"/>
     <use xlink:href="#DejaVuSans-64" x="129.882812"/>
     <use xlink:href="#DejaVuSans-20" x="193.359375"/>
     <use xlink:href="#DejaVuSans-67" x="225.146484"/>
     <use xlink:href="#DejaVuSans-72" x="288.623047"/>
     <use xlink:href="#DejaVuSans-6f" x="327.486328"/>
     <use xlink:href="#DejaVuSans-75" x="388.667969"/>
     <use xlink:href="#DejaVuSans-70" x="452.046875"/>
    </g>
   </g>
  </g>
  <g id="axes_2">
   <g id="patch_8">
    <path d="M 196.9634 242.224 
L 329.3568 242.224 
L 329.3568 23.52 
L 196.9634 23.52 
z
" style="fill: #ffffff"/>
   </g>
   <g id="matplotlib.axis_3">
    <g id="xtick_4">
     <g id="line2d_42">
      <g>
       <use xlink:href="#m331fe6da4a" x="216.868701" y="242.224" style="stroke: #000000; stroke-width: 0.8"/>
      </g>
     </g>
     <g id="text_14">
      <!-- 0 -->
      <g transform="translate(214.323701 255.30275) scale(0.08 -0.08)">
       <use xlink:href="#DejaVuSans-30"/>
      </g>
     </g>
    </g>
    <g id="xtick_5">
     <g id="line2d_43">
      <g>
       <use xlink:href="#m331fe6da4a" x="263.1601" y="242.224" style="stroke: #000000; stroke-width: 0.8"/>
      </g>
     </g>
     <g id="text_15">
      <!-- 1 -->
      <g transform="translate(260.6151 255.30275) scale(0.08 -0.08)">
       <use xlink:href="#DejaVuSans-31"/>
      </g>
     </g>
    </g>
    <g id="xtick_6">
     <g id="line2d_44">
      <g>
       <use xlink:href="#m331fe6da4a" x="309.451499" y="242.224" style="stroke: #000000; stroke-width: 0.8"/>
      </g>
     </g>
     <g id="text_16">
      <!-- 2 -->
      <g transform="translate(306.906499 255.30275) scale(0.08 -0.08)">
       <use xlink:href="#DejaVuSans-32"/>
      </g>
     </g>
    </g>
    <g id="text_17">
     <!-- Timepoint -->
     <g transform="translate(233.177913 270.084625) scale(0.12 -0.12)">
      <use xlink:href="#DejaVuSans-54"/>
      <use xlink:href="#DejaVuSans-69" x="57.958984"/>
      <use xlink:href="#DejaVuSans-6d" x="85.742188"/>
      <use xlink:href="#DejaVuSans-65" x="183.154297"/>
      <use xlink:href="#DejaVuSans-70" x="244.677734"/>
      <use xlink:href="#DejaVuSans-6f" x="308.154297"/>
      <use xlink:href="#DejaVuSans-69" x="369.335938"/>
      <use xlink:href="#DejaVuSans-6e" x="397.119141"/>
      <use xlink:href="#DejaVuSans-74" x="460.498047"/>
     </g>
    </g>
   </g>
   <g id="matplotlib.axis_4">
    <g id="ytick_8">
     <g id="line2d_45">
      <g>
       <use xlink:href="#m5e5c9d2bda" x="196.9634" y="234.308642" style="stroke: #000000; stroke-width: 0.8"/>
      </g>
     </g>
    </g>
    <g id="ytick_9">
     <g id="line2d_46">
      <g>
       <use xlink:href="#m5e5c9d2bda" x="196.9634" y="201.581334" style="stroke: #000000; stroke-width: 0.8"/>
      </g>
     </g>
    </g>
    <g id="ytick_10">
     <g id="line2d_47">
      <g>
       <use xlink:href="#m5e5c9d2bda" x="196.9634" y="168.854025" style="stroke: #000000; stroke-width: 0.8"/>
      </g>
     </g>
    </g>
    <g id="ytick_11">
     <g id="line2d_48">
      <g>
       <use xlink:href="#m5e5c9d2bda" x="196.9634" y="136.126717" style="stroke: #000000; stroke-width: 0.8"/>
      </g>
     </g>
    </g>
    <g id="ytick_12">
     <g id="line2d_49">
      <g>
       <use xlink:href="#m5e5c9d2bda" x="196.9634" y="103.399409" style="stroke: #000000; stroke-width: 0.8"/>
      </g>
     </g>
    </g>
    <g id="ytick_13">
     <g id="line2d_50">
      <g>
       <use xlink:href="#m5e5c9d2bda" x="196.9634" y="70.672101" style="stroke: #000000; stroke-width: 0.8"/>
      </g>
     </g>
    </g>
    <g id="ytick_14">
     <g id="line2d_51">
      <g>
       <use xlink:href="#m5e5c9d2bda" x="196.9634" y="37.944793" style="stroke: #000000; stroke-width: 0.8"/>
      </g>
     </g>
    </g>
   </g>
   <g id="patch_9">
    <path d="M 202.981282 112.401101 
L 230.756121 112.401101 
L 230.756121 99.311418 
L 202.981282 99.311418 
L 202.981282 112.401101 
z
" clip-path="url(#p09194866c5)" style="fill: #107010; stroke: #262626; stroke-linejoin: miter"/>
   </g>
   <g id="line2d_52">
    <path d="M 216.868701 112.401101 
L 216.868701 126.332904 
" clip-path="url(#p09194866c5)" style="fill: none; stroke: #262626"/>
   </g>
   <g id="line2d_53">
    <path d="M 216.868701 99.311418 
L 216.868701 84.640918 
" clip-path="url(#p09194866c5)" style="fill: none; stroke: #262626"/>
   </g>
   <g id="line2d_54">
    <path d="M 209.924992 126.332904 
L 223.812411 126.332904 
" clip-path="url(#p09194866c5)" style="fill: none; stroke: #262626; stroke-linecap: square"/>
   </g>
   <g id="line2d_55">
    <path d="M 209.924992 84.640918 
L 223.812411 84.640918 
" clip-path="url(#p09194866c5)" style="fill: none; stroke: #262626; stroke-linecap: square"/>
   </g>
   <g id="patch_10">
    <path d="M 249.27268 102.162778 
L 277.04752 102.162778 
L 277.04752 69.277688 
L 249.27268 69.277688 
L 249.27268 102.162778 
z
" clip-path="url(#p09194866c5)" style="fill: #107010; stroke: #262626; stroke-linejoin: miter"/>
   </g>
   <g id="line2d_56">
    <path d="M 263.1601 102.162778 
L 263.1601 129.276197 
" clip-path="url(#p09194866c5)" style="fill: none; stroke: #262626"/>
   </g>
   <g id="line2d_57">
    <path d="M 263.1601 69.277688 
L 263.1601 48.755077 
" clip-path="url(#p09194866c5)" style="fill: none; stroke: #262626"/>
   </g>
   <g id="line2d_58">
    <path d="M 256.21639 129.276197 
L 270.10381 129.276197 
" clip-path="url(#p09194866c5)" style="fill: none; stroke: #262626; stroke-linecap: square"/>
   </g>
   <g id="line2d_59">
    <path d="M 256.21639 48.755077 
L 270.10381 48.755077 
" clip-path="url(#p09194866c5)" style="fill: none; stroke: #262626; stroke-linecap: square"/>
   </g>
   <g id="patch_11">
    <path d="M 295.564079 91.2662 
L 323.338918 91.2662 
L 323.338918 50.220978 
L 295.564079 50.220978 
L 295.564079 91.2662 
z
" clip-path="url(#p09194866c5)" style="fill: #107010; stroke: #262626; stroke-linejoin: miter"/>
   </g>
   <g id="line2d_60">
    <path d="M 309.451499 91.2662 
L 309.451499 150.594963 
" clip-path="url(#p09194866c5)" style="fill: none; stroke: #262626"/>
   </g>
   <g id="line2d_61">
    <path d="M 309.451499 50.220978 
L 309.451499 48.755077 
" clip-path="url(#p09194866c5)" style="fill: none; stroke: #262626"/>
   </g>
   <g id="line2d_62">
    <path d="M 302.507789 150.594963 
L 316.395208 150.594963 
" clip-path="url(#p09194866c5)" style="fill: none; stroke: #262626; stroke-linecap: square"/>
   </g>
   <g id="line2d_63">
    <path d="M 302.507789 48.755077 
L 316.395208 48.755077 
" clip-path="url(#p09194866c5)" style="fill: none; stroke: #262626; stroke-linecap: square"/>
   </g>
   <g id="line2d_64">
    <path d="M 216.868701 84.640918 
L 263.1601 48.755077 
L 309.451499 58.243212 
" clip-path="url(#p09194866c5)" style="fill: none; stroke: #b19b32; stroke-opacity: 0.8; stroke-width: 1.2; stroke-linecap: square"/>
    <defs>
     <path id="m619385a78e" d="M 0 1 
C 0.265203 1 0.51958 0.894634 0.707107 0.707107 
C 0.894634 0.51958 1 0.265203 1 0 
C 1 -0.265203 0.894634 -0.51958 0.707107 -0.707107 
C 0.51958 -0.894634 0.265203 -1 0 -1 
C -0.265203 -1 -0.51958 -0.894634 -0.707107 -0.707107 
C -0.894634 -0.51958 -1 -0.265203 -1 0 
C -1 0.265203 -0.894634 0.51958 -0.707107 0.707107 
C -0.51958 0.894634 -0.265203 1 0 1 
z
" style="stroke: #b19b32; stroke-opacity: 0.8"/>
    </defs>
    <g clip-path="url(#p09194866c5)">
     <use xlink:href="#m619385a78e" x="216.868701" y="84.640918" style="fill: #b19b32; fill-opacity: 0.8; stroke: #b19b32; stroke-opacity: 0.8"/>
     <use xlink:href="#m619385a78e" x="263.1601" y="48.755077" style="fill: #b19b32; fill-opacity: 0.8; stroke: #b19b32; stroke-opacity: 0.8"/>
     <use xlink:href="#m619385a78e" x="309.451499" y="58.243212" style="fill: #b19b32; fill-opacity: 0.8; stroke: #b19b32; stroke-opacity: 0.8"/>
    </g>
   </g>
   <g id="line2d_65">
    <path d="M 216.868701 118.934451 
L 263.1601 129.276197 
L 309.451499 54.595697 
" clip-path="url(#p09194866c5)" style="fill: none; stroke: #9da231; stroke-opacity: 0.8; stroke-width: 1.2; stroke-linecap: square"/>
    <defs>
     <path id="m65660afb3f" d="M 0 1 
C 0.265203 1 0.51958 0.894634 0.707107 0.707107 
C 0.894634 0.51958 1 0.265203 1 0 
C 1 -0.265203 0.894634 -0.51958 0.707107 -0.707107 
C 0.51958 -0.894634 0.265203 -1 0 -1 
C -0.265203 -1 -0.51958 -0.894634 -0.707107 -0.707107 
C -0.894634 -0.51958 -1 -0.265203 -1 0 
C -1 0.265203 -0.894634 0.51958 -0.707107 0.707107 
C -0.51958 0.894634 -0.265203 1 0 1 
z
" style="stroke: #9da231; stroke-opacity: 0.8"/>
    </defs>
    <g clip-path="url(#p09194866c5)">
     <use xlink:href="#m65660afb3f" x="216.868701" y="118.934451" style="fill: #9da231; fill-opacity: 0.8; stroke: #9da231; stroke-opacity: 0.8"/>
     <use xlink:href="#m65660afb3f" x="263.1601" y="129.276197" style="fill: #9da231; fill-opacity: 0.8; stroke: #9da231; stroke-opacity: 0.8"/>
     <use xlink:href="#m65660afb3f" x="309.451499" y="54.595697" style="fill: #9da231; fill-opacity: 0.8; stroke: #9da231; stroke-opacity: 0.8"/>
    </g>
   </g>
   <g id="line2d_66">
    <path d="M 216.868701 126.332904 
L 263.1601 61.91371 
L 309.451499 48.755077 
" clip-path="url(#p09194866c5)" style="fill: none; stroke: #82a931; stroke-opacity: 0.8; stroke-width: 1.2; stroke-linecap: square"/>
    <defs>
     <path id="me69e88ef85" d="M 0 1 
C 0.265203 1 0.51958 0.894634 0.707107 0.707107 
C 0.894634 0.51958 1 0.265203 1 0 
C 1 -0.265203 0.894634 -0.51958 0.707107 -0.707107 
C 0.51958 -0.894634 0.265203 -1 0 -1 
C -0.265203 -1 -0.51958 -0.894634 -0.707107 -0.707107 
C -0.894634 -0.51958 -1 -0.265203 -1 0 
C -1 0.265203 -0.894634 0.51958 -0.707107 0.707107 
C -0.51958 0.894634 -0.265203 1 0 1 
z
" style="stroke: #82a931; stroke-opacity: 0.8"/>
    </defs>
    <g clip-path="url(#p09194866c5)">
     <use xlink:href="#me69e88ef85" x="216.868701" y="126.332904" style="fill: #82a931; fill-opacity: 0.8; stroke: #82a931; stroke-opacity: 0.8"/>
     <use xlink:href="#me69e88ef85" x="263.1601" y="61.91371" style="fill: #82a931; fill-opacity: 0.8; stroke: #82a931; stroke-opacity: 0.8"/>
     <use xlink:href="#me69e88ef85" x="309.451499" y="48.755077" style="fill: #82a931; fill-opacity: 0.8; stroke: #82a931; stroke-opacity: 0.8"/>
    </g>
   </g>
   <g id="line2d_67">
    <path d="M 216.868701 99.311418 
L 263.1601 75.868496 
L 309.451499 63.414085 
" clip-path="url(#p09194866c5)" style="fill: none; stroke: #f77189; stroke-opacity: 0.8; stroke-width: 1.2; stroke-linecap: square"/>
    <g clip-path="url(#p09194866c5)">
     <use xlink:href="#m58c99070f2" x="216.868701" y="99.311418" style="fill: #f77189; fill-opacity: 0.8; stroke: #f77189; stroke-opacity: 0.8"/>
     <use xlink:href="#m58c99070f2" x="263.1601" y="75.868496" style="fill: #f77189; fill-opacity: 0.8; stroke: #f77189; stroke-opacity: 0.8"/>
     <use xlink:href="#m58c99070f2" x="309.451499" y="63.414085" style="fill: #f77189; fill-opacity: 0.8; stroke: #f77189; stroke-opacity: 0.8"/>
    </g>
   </g>
   <g id="line2d_68">
    <path d="M 216.868701 106.548989 
L 263.1601 118.322162 
L 309.451499 108.822535 
" clip-path="url(#p09194866c5)" style="fill: none; stroke: #f77553; stroke-opacity: 0.8; stroke-width: 1.2; stroke-linecap: square"/>
    <defs>
     <path id="mad724f16f7" d="M 0 1 
C 0.265203 1 0.51958 0.894634 0.707107 0.707107 
C 0.894634 0.51958 1 0.265203 1 0 
C 1 -0.265203 0.894634 -0.51958 0.707107 -0.707107 
C 0.51958 -0.894634 0.265203 -1 0 -1 
C -0.265203 -1 -0.51958 -0.894634 -0.707107 -0.707107 
C -0.894634 -0.51958 -1 -0.265203 -1 0 
C -1 0.265203 -0.894634 0.51958 -0.707107 0.707107 
C -0.51958 0.894634 -0.265203 1 0 1 
z
" style="stroke: #f77553; stroke-opacity: 0.8"/>
    </defs>
    <g clip-path="url(#p09194866c5)">
     <use xlink:href="#mad724f16f7" x="216.868701" y="106.548989" style="fill: #f77553; fill-opacity: 0.8; stroke: #f77553; stroke-opacity: 0.8"/>
     <use xlink:href="#mad724f16f7" x="263.1601" y="118.322162" style="fill: #f77553; fill-opacity: 0.8; stroke: #f77553; stroke-opacity: 0.8"/>
     <use xlink:href="#mad724f16f7" x="309.451499" y="108.822535" style="fill: #f77553; fill-opacity: 0.8; stroke: #f77553; stroke-opacity: 0.8"/>
    </g>
   </g>
   <g id="line2d_69">
    <path d="M 216.868701 100.050114 
L 263.1601 72.197998 
L 309.451499 93.459306 
" clip-path="url(#p09194866c5)" style="fill: none; stroke: #50b131; stroke-opacity: 0.8; stroke-width: 1.2; stroke-linecap: square"/>
    <defs>
     <path id="m6be93a8a7d" d="M 0 1 
C 0.265203 1 0.51958 0.894634 0.707107 0.707107 
C 0.894634 0.51958 1 0.265203 1 0 
C 1 -0.265203 0.894634 -0.51958 0.707107 -0.707107 
C 0.51958 -0.894634 0.265203 -1 0 -1 
C -0.265203 -1 -0.51958 -0.894634 -0.707107 -0.707107 
C -0.894634 -0.51958 -1 -0.265203 -1 0 
C -1 0.265203 -0.894634 0.51958 -0.707107 0.707107 
C -0.51958 0.894634 -0.265203 1 0 1 
z
" style="stroke: #50b131; stroke-opacity: 0.8"/>
    </defs>
    <g clip-path="url(#p09194866c5)">
     <use xlink:href="#m6be93a8a7d" x="216.868701" y="100.050114" style="fill: #50b131; fill-opacity: 0.8; stroke: #50b131; stroke-opacity: 0.8"/>
     <use xlink:href="#m6be93a8a7d" x="263.1601" y="72.197998" style="fill: #50b131; fill-opacity: 0.8; stroke: #50b131; stroke-opacity: 0.8"/>
     <use xlink:href="#m6be93a8a7d" x="309.451499" y="93.459306" style="fill: #50b131; fill-opacity: 0.8; stroke: #50b131; stroke-opacity: 0.8"/>
    </g>
   </g>
   <g id="line2d_70">
    <path d="M 216.868701 111.616438 
L 263.1601 84.629426 
L 309.451499 99.311418 
" clip-path="url(#p09194866c5)" style="fill: none; stroke: #33b16c; stroke-opacity: 0.8; stroke-width: 1.2; stroke-linecap: square"/>
    <defs>
     <path id="m9178d28f3e" d="M 0 1 
C 0.265203 1 0.51958 0.894634 0.707107 0.707107 
C 0.894634 0.51958 1 0.265203 1 0 
C 1 -0.265203 0.894634 -0.51958 0.707107 -0.707107 
C 0.51958 -0.894634 0.265203 -1 0 -1 
C -0.265203 -1 -0.51958 -0.894634 -0.707107 -0.707107 
C -0.894634 -0.51958 -1 -0.265203 -1 0 
C -1 0.265203 -0.894634 0.51958 -0.707107 0.707107 
C -0.51958 0.894634 -0.265203 1 0 1 
z
" style="stroke: #33b16c; stroke-opacity: 0.8"/>
    </defs>
    <g clip-path="url(#p09194866c5)">
     <use xlink:href="#m9178d28f3e" x="216.868701" y="111.616438" style="fill: #33b16c; fill-opacity: 0.8; stroke: #33b16c; stroke-opacity: 0.8"/>
     <use xlink:href="#m9178d28f3e" x="263.1601" y="84.629426" style="fill: #33b16c; fill-opacity: 0.8; stroke: #33b16c; stroke-opacity: 0.8"/>
     <use xlink:href="#m9178d28f3e" x="309.451499" y="99.311418" style="fill: #33b16c; fill-opacity: 0.8; stroke: #33b16c; stroke-opacity: 0.8"/>
    </g>
   </g>
   <g id="line2d_71">
    <path d="M 216.868701 108.083839 
L 263.1601 106.594955 
L 309.451499 62.675389 
" clip-path="url(#p09194866c5)" style="fill: none; stroke: #df8732; stroke-opacity: 0.8; stroke-width: 1.2; stroke-linecap: square"/>
    <defs>
     <path id="m1c41a71732" d="M 0 1 
C 0.265203 1 0.51958 0.894634 0.707107 0.707107 
C 0.894634 0.51958 1 0.265203 1 0 
C 1 -0.265203 0.894634 -0.51958 0.707107 -0.707107 
C 0.51958 -0.894634 0.265203 -1 0 -1 
C -0.265203 -1 -0.51958 -0.894634 -0.707107 -0.707107 
C -0.894634 -0.51958 -1 -0.265203 -1 0 
C -1 0.265203 -0.894634 0.51958 -0.707107 0.707107 
C -0.51958 0.894634 -0.265203 1 0 1 
z
" style="stroke: #df8732; stroke-opacity: 0.8"/>
    </defs>
    <g clip-path="url(#p09194866c5)">
     <use xlink:href="#m1c41a71732" x="216.868701" y="108.083839" style="fill: #df8732; fill-opacity: 0.8; stroke: #df8732; stroke-opacity: 0.8"/>
     <use xlink:href="#m1c41a71732" x="263.1601" y="106.594955" style="fill: #df8732; fill-opacity: 0.8; stroke: #df8732; stroke-opacity: 0.8"/>
     <use xlink:href="#m1c41a71732" x="309.451499" y="62.675389" style="fill: #df8732; fill-opacity: 0.8; stroke: #df8732; stroke-opacity: 0.8"/>
    </g>
   </g>
   <g id="line2d_72">
    <path d="M 216.868701 114.663156 
L 263.1601 54.607189 
L 309.451499 48.755077 
" clip-path="url(#p09194866c5)" style="fill: none; stroke: #34af8a; stroke-opacity: 0.8; stroke-width: 1.2; stroke-linecap: square"/>
    <defs>
     <path id="m52fa10fdf2" d="M 0 1 
C 0.265203 1 0.51958 0.894634 0.707107 0.707107 
C 0.894634 0.51958 1 0.265203 1 0 
C 1 -0.265203 0.894634 -0.51958 0.707107 -0.707107 
C 0.51958 -0.894634 0.265203 -1 0 -1 
C -0.265203 -1 -0.51958 -0.894634 -0.707107 -0.707107 
C -0.894634 -0.51958 -1 -0.265203 -1 0 
C -1 0.265203 -0.894634 0.51958 -0.707107 0.707107 
C -0.51958 0.894634 -0.265203 1 0 1 
z
" style="stroke: #34af8a; stroke-opacity: 0.8"/>
    </defs>
    <g clip-path="url(#p09194866c5)">
     <use xlink:href="#m52fa10fdf2" x="216.868701" y="114.663156" style="fill: #34af8a; fill-opacity: 0.8; stroke: #34af8a; stroke-opacity: 0.8"/>
     <use xlink:href="#m52fa10fdf2" x="263.1601" y="54.607189" style="fill: #34af8a; fill-opacity: 0.8; stroke: #34af8a; stroke-opacity: 0.8"/>
     <use xlink:href="#m52fa10fdf2" x="309.451499" y="48.755077" style="fill: #34af8a; fill-opacity: 0.8; stroke: #34af8a; stroke-opacity: 0.8"/>
    </g>
   </g>
   <g id="line2d_73">
    <path d="M 216.868701 74.368121 
L 263.1601 77.322905 
L 309.451499 50.220978 
" clip-path="url(#p09194866c5)" style="fill: none; stroke: #35ad9c; stroke-opacity: 0.8; stroke-width: 1.2; stroke-linecap: square"/>
    <defs>
     <path id="ma23d4674cb" d="M 0 1 
C 0.265203 1 0.51958 0.894634 0.707107 0.707107 
C 0.894634 0.51958 1 0.265203 1 0 
C 1 -0.265203 0.894634 -0.51958 0.707107 -0.707107 
C 0.51958 -0.894634 0.265203 -1 0 -1 
C -0.265203 -1 -0.51958 -0.894634 -0.707107 -0.707107 
C -0.894634 -0.51958 -1 -0.265203 -1 0 
C -1 0.265203 -0.894634 0.51958 -0.707107 0.707107 
C -0.51958 0.894634 -0.265203 1 0 1 
z
" style="stroke: #35ad9c; stroke-opacity: 0.8"/>
    </defs>
    <g clip-path="url(#p09194866c5)">
     <use xlink:href="#ma23d4674cb" x="216.868701" y="74.368121" style="fill: #35ad9c; fill-opacity: 0.8; stroke: #35ad9c; stroke-opacity: 0.8"/>
     <use xlink:href="#ma23d4674cb" x="263.1601" y="77.322905" style="fill: #35ad9c; fill-opacity: 0.8; stroke: #35ad9c; stroke-opacity: 0.8"/>
     <use xlink:href="#ma23d4674cb" x="309.451499" y="50.220978" style="fill: #35ad9c; fill-opacity: 0.8; stroke: #35ad9c; stroke-opacity: 0.8"/>
    </g>
   </g>
   <g id="line2d_74">
    <path d="M 216.868701 106.537497 
L 263.1601 154.912224 
L 309.451499 150.594963 
" clip-path="url(#p09194866c5)" style="fill: none; stroke: #36acab; stroke-opacity: 0.8; stroke-width: 1.2; stroke-linecap: square"/>
    <defs>
     <path id="mf2b36896d1" d="M 0 1 
C 0.265203 1 0.51958 0.894634 0.707107 0.707107 
C 0.894634 0.51958 1 0.265203 1 0 
C 1 -0.265203 0.894634 -0.51958 0.707107 -0.707107 
C 0.51958 -0.894634 0.265203 -1 0 -1 
C -0.265203 -1 -0.51958 -0.894634 -0.707107 -0.707107 
C -0.894634 -0.51958 -1 -0.265203 -1 0 
C -1 0.265203 -0.894634 0.51958 -0.707107 0.707107 
C -0.51958 0.894634 -0.265203 1 0 1 
z
" style="stroke: #36acab; stroke-opacity: 0.8"/>
    </defs>
    <g clip-path="url(#p09194866c5)">
     <use xlink:href="#mf2b36896d1" x="216.868701" y="106.537497" style="fill: #36acab; fill-opacity: 0.8; stroke: #36acab; stroke-opacity: 0.8"/>
     <use xlink:href="#mf2b36896d1" x="263.1601" y="154.912224" style="fill: #36acab; fill-opacity: 0.8; stroke: #36acab; stroke-opacity: 0.8"/>
     <use xlink:href="#mf2b36896d1" x="309.451499" y="150.594963" style="fill: #36acab; fill-opacity: 0.8; stroke: #36acab; stroke-opacity: 0.8"/>
    </g>
   </g>
   <g id="line2d_75">
    <path d="M 216.868701 91.128302 
L 263.1601 59.016383 
L 309.451499 48.755077 
" clip-path="url(#p09194866c5)" style="fill: none; stroke: #37aabb; stroke-opacity: 0.8; stroke-width: 1.2; stroke-linecap: square"/>
    <defs>
     <path id="m5d4fba10cf" d="M 0 1 
C 0.265203 1 0.51958 0.894634 0.707107 0.707107 
C 0.894634 0.51958 1 0.265203 1 0 
C 1 -0.265203 0.894634 -0.51958 0.707107 -0.707107 
C 0.51958 -0.894634 0.265203 -1 0 -1 
C -0.265203 -1 -0.51958 -0.894634 -0.707107 -0.707107 
C -0.894634 -0.51958 -1 -0.265203 -1 0 
C -1 0.265203 -0.894634 0.51958 -0.707107 0.707107 
C -0.51958 0.894634 -0.265203 1 0 1 
z
" style="stroke: #37aabb; stroke-opacity: 0.8"/>
    </defs>
    <g clip-path="url(#p09194866c5)">
     <use xlink:href="#m5d4fba10cf" x="216.868701" y="91.128302" style="fill: #37aabb; fill-opacity: 0.8; stroke: #37aabb; stroke-opacity: 0.8"/>
     <use xlink:href="#m5d4fba10cf" x="263.1601" y="59.016383" style="fill: #37aabb; fill-opacity: 0.8; stroke: #37aabb; stroke-opacity: 0.8"/>
     <use xlink:href="#m5d4fba10cf" x="309.451499" y="48.755077" style="fill: #37aabb; fill-opacity: 0.8; stroke: #37aabb; stroke-opacity: 0.8"/>
    </g>
   </g>
   <g id="line2d_76">
    <path d="M 216.868701 107.299177 
L 263.1601 88.253958 
L 309.451499 48.755077 
" clip-path="url(#p09194866c5)" style="fill: none; stroke: #39a8cd; stroke-opacity: 0.8; stroke-width: 1.2; stroke-linecap: square"/>
    <defs>
     <path id="m6d82a4d159" d="M 0 1 
C 0.265203 1 0.51958 0.894634 0.707107 0.707107 
C 0.894634 0.51958 1 0.265203 1 0 
C 1 -0.265203 0.894634 -0.51958 0.707107 -0.707107 
C 0.51958 -0.894634 0.265203 -1 0 -1 
C -0.265203 -1 -0.51958 -0.894634 -0.707107 -0.707107 
C -0.894634 -0.51958 -1 -0.265203 -1 0 
C -1 0.265203 -0.894634 0.51958 -0.707107 0.707107 
C -0.51958 0.894634 -0.265203 1 0 1 
z
" style="stroke: #39a8cd; stroke-opacity: 0.8"/>
    </defs>
    <g clip-path="url(#p09194866c5)">
     <use xlink:href="#m6d82a4d159" x="216.868701" y="107.299177" style="fill: #39a8cd; fill-opacity: 0.8; stroke: #39a8cd; stroke-opacity: 0.8"/>
     <use xlink:href="#m6d82a4d159" x="263.1601" y="88.253958" style="fill: #39a8cd; fill-opacity: 0.8; stroke: #39a8cd; stroke-opacity: 0.8"/>
     <use xlink:href="#m6d82a4d159" x="309.451499" y="48.755077" style="fill: #39a8cd; fill-opacity: 0.8; stroke: #39a8cd; stroke-opacity: 0.8"/>
    </g>
   </g>
   <g id="line2d_77">
    <path d="M 216.868701 71.459302 
L 263.1601 91.947439 
L 309.451499 48.755077 
" clip-path="url(#p09194866c5)" style="fill: none; stroke: #3ba3ec; stroke-opacity: 0.8; stroke-width: 1.2; stroke-linecap: square"/>
    <defs>
     <path id="m69462ef5be" d="M 0 1 
C 0.265203 1 0.51958 0.894634 0.707107 0.707107 
C 0.894634 0.51958 1 0.265203 1 0 
C 1 -0.265203 0.894634 -0.51958 0.707107 -0.707107 
C 0.51958 -0.894634 0.265203 -1 0 -1 
C -0.265203 -1 -0.51958 -0.894634 -0.707107 -0.707107 
C -0.894634 -0.51958 -1 -0.265203 -1 0 
C -1 0.265203 -0.894634 0.51958 -0.707107 0.707107 
C -0.51958 0.894634 -0.265203 1 0 1 
z
" style="stroke: #3ba3ec; stroke-opacity: 0.8"/>
    </defs>
    <g clip-path="url(#p09194866c5)">
     <use xlink:href="#m69462ef5be" x="216.868701" y="71.459302" style="fill: #3ba3ec; fill-opacity: 0.8; stroke: #3ba3ec; stroke-opacity: 0.8"/>
     <use xlink:href="#m69462ef5be" x="263.1601" y="91.947439" style="fill: #3ba3ec; fill-opacity: 0.8; stroke: #3ba3ec; stroke-opacity: 0.8"/>
     <use xlink:href="#m69462ef5be" x="309.451499" y="48.755077" style="fill: #3ba3ec; fill-opacity: 0.8; stroke: #3ba3ec; stroke-opacity: 0.8"/>
    </g>
   </g>
   <g id="line2d_78">
    <path d="M 216.868701 112.401101 
L 263.1601 69.277688 
L 309.451499 67.0616 
" clip-path="url(#p09194866c5)" style="fill: none; stroke: #8197f4; stroke-opacity: 0.8; stroke-width: 1.2; stroke-linecap: square"/>
    <defs>
     <path id="mc6bd77f14c" d="M 0 1 
C 0.265203 1 0.51958 0.894634 0.707107 0.707107 
C 0.894634 0.51958 1 0.265203 1 0 
C 1 -0.265203 0.894634 -0.51958 0.707107 -0.707107 
C 0.51958 -0.894634 0.265203 -1 0 -1 
C -0.265203 -1 -0.51958 -0.894634 -0.707107 -0.707107 
C -0.894634 -0.51958 -1 -0.265203 -1 0 
C -1 0.265203 -0.894634 0.51958 -0.707107 0.707107 
C -0.51958 0.894634 -0.265203 1 0 1 
z
" style="stroke: #8197f4; stroke-opacity: 0.8"/>
    </defs>
    <g clip-path="url(#p09194866c5)">
     <use xlink:href="#mc6bd77f14c" x="216.868701" y="112.401101" style="fill: #8197f4; fill-opacity: 0.8; stroke: #8197f4; stroke-opacity: 0.8"/>
     <use xlink:href="#mc6bd77f14c" x="263.1601" y="69.277688" style="fill: #8197f4; fill-opacity: 0.8; stroke: #8197f4; stroke-opacity: 0.8"/>
     <use xlink:href="#mc6bd77f14c" x="309.451499" y="67.0616" style="fill: #8197f4; fill-opacity: 0.8; stroke: #8197f4; stroke-opacity: 0.8"/>
    </g>
   </g>
   <g id="line2d_79">
    <path d="M 216.868701 123.343645 
L 263.1601 99.242468 
L 309.451499 105.856259 
" clip-path="url(#p09194866c5)" style="fill: none; stroke: #ae88f4; stroke-opacity: 0.8; stroke-width: 1.2; stroke-linecap: square"/>
    <defs>
     <path id="m26cf23df95" d="M 0 1 
C 0.265203 1 0.51958 0.894634 0.707107 0.707107 
C 0.894634 0.51958 1 0.265203 1 0 
C 1 -0.265203 0.894634 -0.51958 0.707107 -0.707107 
C 0.51958 -0.894634 0.265203 -1 0 -1 
C -0.265203 -1 -0.51958 -0.894634 -0.707107 -0.707107 
C -0.894634 -0.51958 -1 -0.265203 -1 0 
C -1 0.265203 -0.894634 0.51958 -0.707107 0.707107 
C -0.51958 0.894634 -0.265203 1 0 1 
z
" style="stroke: #ae88f4; stroke-opacity: 0.8"/>
    </defs>
    <g clip-path="url(#p09194866c5)">
     <use xlink:href="#m26cf23df95" x="216.868701" y="123.343645" style="fill: #ae88f4; fill-opacity: 0.8; stroke: #ae88f4; stroke-opacity: 0.8"/>
     <use xlink:href="#m26cf23df95" x="263.1601" y="99.242468" style="fill: #ae88f4; fill-opacity: 0.8; stroke: #ae88f4; stroke-opacity: 0.8"/>
     <use xlink:href="#m26cf23df95" x="309.451499" y="105.856259" style="fill: #ae88f4; fill-opacity: 0.8; stroke: #ae88f4; stroke-opacity: 0.8"/>
    </g>
   </g>
   <g id="line2d_80">
    <path d="M 216.868701 88.1965 
L 263.1601 64.095323 
L 309.451499 61.91371 
" clip-path="url(#p09194866c5)" style="fill: none; stroke: #d475f4; stroke-opacity: 0.8; stroke-width: 1.2; stroke-linecap: square"/>
    <defs>
     <path id="mf219599b54" d="M 0 1 
C 0.265203 1 0.51958 0.894634 0.707107 0.707107 
C 0.894634 0.51958 1 0.265203 1 0 
C 1 -0.265203 0.894634 -0.51958 0.707107 -0.707107 
C 0.51958 -0.894634 0.265203 -1 0 -1 
C -0.265203 -1 -0.51958 -0.894634 -0.707107 -0.707107 
C -0.894634 -0.51958 -1 -0.265203 -1 0 
C -1 0.265203 -0.894634 0.51958 -0.707107 0.707107 
C -0.51958 0.894634 -0.265203 1 0 1 
z
" style="stroke: #d475f4; stroke-opacity: 0.8"/>
    </defs>
    <g clip-path="url(#p09194866c5)">
     <use xlink:href="#mf219599b54" x="216.868701" y="88.1965" style="fill: #d475f4; fill-opacity: 0.8; stroke: #d475f4; stroke-opacity: 0.8"/>
     <use xlink:href="#mf219599b54" x="263.1601" y="64.095323" style="fill: #d475f4; fill-opacity: 0.8; stroke: #d475f4; stroke-opacity: 0.8"/>
     <use xlink:href="#mf219599b54" x="309.451499" y="61.91371" style="fill: #d475f4; fill-opacity: 0.8; stroke: #d475f4; stroke-opacity: 0.8"/>
    </g>
   </g>
   <g id="line2d_81">
    <path d="M 216.868701 122.627932 
L 263.1601 76.584209 
L 309.451499 59.016383 
" clip-path="url(#p09194866c5)" style="fill: none; stroke: #c69432; stroke-opacity: 0.8; stroke-width: 1.2; stroke-linecap: square"/>
    <defs>
     <path id="macf8cec935" d="M 0 1 
C 0.265203 1 0.51958 0.894634 0.707107 0.707107 
C 0.894634 0.51958 1 0.265203 1 0 
C 1 -0.265203 0.894634 -0.51958 0.707107 -0.707107 
C 0.51958 -0.894634 0.265203 -1 0 -1 
C -0.265203 -1 -0.51958 -0.894634 -0.707107 -0.707107 
C -0.894634 -0.51958 -1 -0.265203 -1 0 
C -1 0.265203 -0.894634 0.51958 -0.707107 0.707107 
C -0.51958 0.894634 -0.265203 1 0 1 
z
" style="stroke: #c69432; stroke-opacity: 0.8"/>
    </defs>
    <g clip-path="url(#p09194866c5)">
     <use xlink:href="#macf8cec935" x="216.868701" y="122.627932" style="fill: #c69432; fill-opacity: 0.8; stroke: #c69432; stroke-opacity: 0.8"/>
     <use xlink:href="#macf8cec935" x="263.1601" y="76.584209" style="fill: #c69432; fill-opacity: 0.8; stroke: #c69432; stroke-opacity: 0.8"/>
     <use xlink:href="#macf8cec935" x="309.451499" y="59.016383" style="fill: #c69432; fill-opacity: 0.8; stroke: #c69432; stroke-opacity: 0.8"/>
    </g>
   </g>
   <g id="line2d_82">
    <path d="M 216.868701 110.946691 
L 263.1601 102.162778 
L 309.451499 67.0616 
" clip-path="url(#p09194866c5)" style="fill: none; stroke: #f45deb; stroke-opacity: 0.8; stroke-width: 1.2; stroke-linecap: square"/>
    <defs>
     <path id="m57c07b91b8" d="M 0 1 
C 0.265203 1 0.51958 0.894634 0.707107 0.707107 
C 0.894634 0.51958 1 0.265203 1 0 
C 1 -0.265203 0.894634 -0.51958 0.707107 -0.707107 
C 0.51958 -0.894634 0.265203 -1 0 -1 
C -0.265203 -1 -0.51958 -0.894634 -0.707107 -0.707107 
C -0.894634 -0.51958 -1 -0.265203 -1 0 
C -1 0.265203 -0.894634 0.51958 -0.707107 0.707107 
C -0.51958 0.894634 -0.265203 1 0 1 
z
" style="stroke: #f45deb; stroke-opacity: 0.8"/>
    </defs>
    <g clip-path="url(#p09194866c5)">
     <use xlink:href="#m57c07b91b8" x="216.868701" y="110.946691" style="fill: #f45deb; fill-opacity: 0.8; stroke: #f45deb; stroke-opacity: 0.8"/>
     <use xlink:href="#m57c07b91b8" x="263.1601" y="102.162778" style="fill: #f45deb; fill-opacity: 0.8; stroke: #f45deb; stroke-opacity: 0.8"/>
     <use xlink:href="#m57c07b91b8" x="309.451499" y="67.0616" style="fill: #f45deb; fill-opacity: 0.8; stroke: #f45deb; stroke-opacity: 0.8"/>
    </g>
   </g>
   <g id="line2d_83">
    <path d="M 216.868701 108.753586 
L 263.1601 96.287683 
L 309.451499 79.504519 
" clip-path="url(#p09194866c5)" style="fill: none; stroke: #f566c9; stroke-opacity: 0.8; stroke-width: 1.2; stroke-linecap: square"/>
    <defs>
     <path id="mffa190982b" d="M 0 1 
C 0.265203 1 0.51958 0.894634 0.707107 0.707107 
C 0.894634 0.51958 1 0.265203 1 0 
C 1 -0.265203 0.894634 -0.51958 0.707107 -0.707107 
C 0.51958 -0.894634 0.265203 -1 0 -1 
C -0.265203 -1 -0.51958 -0.894634 -0.707107 -0.707107 
C -0.894634 -0.51958 -1 -0.265203 -1 0 
C -1 0.265203 -0.894634 0.51958 -0.707107 0.707107 
C -0.51958 0.894634 -0.265203 1 0 1 
z
" style="stroke: #f566c9; stroke-opacity: 0.8"/>
    </defs>
    <g clip-path="url(#p09194866c5)">
     <use xlink:href="#mffa190982b" x="216.868701" y="108.753586" style="fill: #f566c9; fill-opacity: 0.8; stroke: #f566c9; stroke-opacity: 0.8"/>
     <use xlink:href="#mffa190982b" x="263.1601" y="96.287683" style="fill: #f566c9; fill-opacity: 0.8; stroke: #f566c9; stroke-opacity: 0.8"/>
     <use xlink:href="#mffa190982b" x="309.451499" y="79.504519" style="fill: #f566c9; fill-opacity: 0.8; stroke: #f566c9; stroke-opacity: 0.8"/>
    </g>
   </g>
   <g id="line2d_84">
    <path d="M 216.868701 101.527506 
L 263.1601 112.481542 
L 309.451499 91.2662 
" clip-path="url(#p09194866c5)" style="fill: none; stroke: #f66cac; stroke-opacity: 0.8; stroke-width: 1.2; stroke-linecap: square"/>
    <defs>
     <path id="m596320a88c" d="M 0 1 
C 0.265203 1 0.51958 0.894634 0.707107 0.707107 
C 0.894634 0.51958 1 0.265203 1 0 
C 1 -0.265203 0.894634 -0.51958 0.707107 -0.707107 
C 0.51958 -0.894634 0.265203 -1 0 -1 
C -0.265203 -1 -0.51958 -0.894634 -0.707107 -0.707107 
C -0.894634 -0.51958 -1 -0.265203 -1 0 
C -1 0.265203 -0.894634 0.51958 -0.707107 0.707107 
C -0.51958 0.894634 -0.265203 1 0 1 
z
" style="stroke: #f66cac; stroke-opacity: 0.8"/>
    </defs>
    <g clip-path="url(#p09194866c5)">
     <use xlink:href="#m596320a88c" x="216.868701" y="101.527506" style="fill: #f66cac; fill-opacity: 0.8; stroke: #f66cac; stroke-opacity: 0.8"/>
     <use xlink:href="#m596320a88c" x="263.1601" y="112.481542" style="fill: #f66cac; fill-opacity: 0.8; stroke: #f66cac; stroke-opacity: 0.8"/>
     <use xlink:href="#m596320a88c" x="309.451499" y="91.2662" style="fill: #f66cac; fill-opacity: 0.8; stroke: #f66cac; stroke-opacity: 0.8"/>
    </g>
   </g>
   <g id="line2d_85">
    <path d="M 202.981282 107.299177 
L 230.756121 107.299177 
" clip-path="url(#p09194866c5)" style="fill: none; stroke: #262626"/>
   </g>
   <g id="line2d_86">
    <path d="M 249.27268 84.629426 
L 277.04752 84.629426 
" clip-path="url(#p09194866c5)" style="fill: none; stroke: #262626"/>
   </g>
   <g id="line2d_87">
    <path d="M 295.564079 62.675389 
L 323.338918 62.675389 
" clip-path="url(#p09194866c5)" style="fill: none; stroke: #262626"/>
   </g>
   <g id="patch_12">
    <path d="M 196.9634 242.224 
L 196.9634 23.52 
" style="fill: none; stroke: #000000; stroke-width: 0.8; stroke-linejoin: miter; stroke-linecap: square"/>
   </g>
   <g id="patch_13">
    <path d="M 196.9634 242.224 
L 329.3568 242.224 
" style="fill: none; stroke: #000000; stroke-width: 0.8; stroke-linejoin: miter; stroke-linecap: square"/>
   </g>
   <g id="text_18">
    <!-- Good group -->
    <g transform="translate(236.811897 17.52) scale(0.09 -0.09)">
     <defs>
      <path id="DejaVuSans-47" d="M 3809 666 
L 3809 1919 
L 2778 1919 
L 2778 2438 
L 4434 2438 
L 4434 434 
Q 4069 175 3628 42 
Q 3188 -91 2688 -91 
Q 1594 -91 976 548 
Q 359 1188 359 2328 
Q 359 3472 976 4111 
Q 1594 4750 2688 4750 
Q 3144 4750 3555 4637 
Q 3966 4525 4313 4306 
L 4313 3634 
Q 3963 3931 3569 4081 
Q 3175 4231 2741 4231 
Q 1884 4231 1454 3753 
Q 1025 3275 1025 2328 
Q 1025 1384 1454 906 
Q 1884 428 2741 428 
Q 3075 428 3337 486 
Q 3600 544 3809 666 
z
" transform="scale(0.015625)"/>
     </defs>
     <use xlink:href="#DejaVuSans-47"/>
     <use xlink:href="#DejaVuSans-6f" x="77.490234"/>
     <use xlink:href="#DejaVuSans-6f" x="138.671875"/>
     <use xlink:href="#DejaVuSans-64" x="199.853516"/>
     <use xlink:href="#DejaVuSans-20" x="263.330078"/>
     <use xlink:href="#DejaVuSans-67" x="295.117188"/>
     <use xlink:href="#DejaVuSans-72" x="358.59375"/>
     <use xlink:href="#DejaVuSans-6f" x="397.457031"/>
     <use xlink:href="#DejaVuSans-75" x="458.638672"/>
     <use xlink:href="#DejaVuSans-70" x="522.017578"/>
    </g>
   </g>
  </g>
 </g>
 <defs>
  <clipPath id="pfee36fe2e9">
   <rect x="50.27" y="23.52" width="132.3934" height="218.704"/>
  </clipPath>
  <clipPath id="p09194866c5">
   <rect x="196.9634" y="23.52" width="132.3934" height="218.704"/>
  </clipPath>
 </defs>
</svg>
