<?xml version="1.0" encoding="utf-8" standalone="no"?>
<!DOCTYPE svg PUBLIC "-//W3C//DTD SVG 1.1//EN"
  "http://www.w3.org/Graphics/SVG/1.1/DTD/svg11.dtd">
<svg xmlns:xlink="http://www.w3.org/1999/xlink" width="135.09249pt" height="135.09249pt" viewBox="0 0 135.09249 135.09249" xmlns="http://www.w3.org/2000/svg" version="1.1">
 <metadata>
  <rdf:RDF xmlns:dc="http://purl.org/dc/elements/1.1/" xmlns:cc="http://creativecommons.org/ns#" xmlns:rdf="http://www.w3.org/1999/02/22-rdf-syntax-ns#">
   <cc:Work>
    <dc:type rdf:resource="http://purl.org/dc/dcmitype/StillImage"/>
    <dc:date>2025-03-03T13:27:01.955538</dc:date>
    <dc:format>image/svg+xml</dc:format>
    <dc:creator>
     <cc:Agent>
      <dc:title>Matplotlib v3.8.3, https://matplotlib.org/</dc:title>
     </cc:Agent>
    </dc:creator>
   </cc:Work>
  </rdf:RDF>
 </metadata>
 <defs>
  <style type="text/css">*{stroke-linejoin: round; stroke-linecap: butt}</style>
 </defs>
 <g id="figure_1">
  <g id="patch_1">
   <path d="M 0 135.09249 
L 135.09249 135.09249 
L 135.09249 0 
L 0 0 
z
" style="fill: #ffffff"/>
  </g>
  <g id="axes_1">
   <g id="patch_2">
    <path d="M 7.2 62.146245 
L 62.146245 62.146245 
L 62.146245 7.2 
L 7.2 7.2 
z
" style="fill: #ffffff"/>
   </g>
   <g id="matplotlib.axis_1"/>
   <g id="matplotlib.axis_2"/>
   <g id="line2d_1">
    <path d="M 9.697557 59.648688 
L 34.673123 34.673123 
L 59.648688 9.697557 
" clip-path="url(#pd14680a0cf)" style="fill: none; stroke: #e41a1c; stroke-linecap: square"/>
    <defs>
     <path id="mdf5a308659" d="M 0 1 
C 0.265203 1 0.51958 0.894634 0.707107 0.707107 
C 0.894634 0.51958 1 0.265203 1 0 
C 1 -0.265203 0.894634 -0.51958 0.707107 -0.707107 
C 0.51958 -0.894634 0.265203 -1 0 -1 
C -0.265203 -1 -0.51958 -0.894634 -0.707107 -0.707107 
C -0.894634 -0.51958 -1 -0.265203 -1 0 
C -1 0.265203 -0.894634 0.51958 -0.707107 0.707107 
C -0.51958 0.894634 -0.265203 1 0 1 
z
" style="stroke: #e41a1c"/>
    </defs>
    <g clip-path="url(#pd14680a0cf)">
     <use xlink:href="#mdf5a308659" x="9.697557" y="59.648688" style="fill: #e41a1c; stroke: #e41a1c"/>
     <use xlink:href="#mdf5a308659" x="34.673123" y="34.673123" style="fill: #e41a1c; stroke: #e41a1c"/>
     <use xlink:href="#mdf5a308659" x="59.648688" y="9.697557" style="fill: #e41a1c; stroke: #e41a1c"/>
    </g>
   </g>
   <g id="patch_3">
    <path d="M 7.2 62.146245 
L 7.2 7.2 
" style="fill: none; stroke: #000000; stroke-width: 0.8; stroke-linejoin: miter; stroke-linecap: square"/>
   </g>
   <g id="patch_4">
    <path d="M 62.146245 62.146245 
L 62.146245 7.2 
" style="fill: none; stroke: #000000; stroke-width: 0.8; stroke-linejoin: miter; stroke-linecap: square"/>
   </g>
   <g id="patch_5">
    <path d="M 7.2 62.146245 
L 62.146245 62.146245 
" style="fill: none; stroke: #000000; stroke-width: 0.8; stroke-linejoin: miter; stroke-linecap: square"/>
   </g>
   <g id="patch_6">
    <path d="M 7.2 7.2 
L 62.146245 7.2 
" style="fill: none; stroke: #000000; stroke-width: 0.8; stroke-linejoin: miter; stroke-linecap: square"/>
   </g>
  </g>
  <g id="axes_2">
   <g id="patch_7">
    <path d="M 72.946245 62.146245 
L 127.89249 62.146245 
L 127.89249 7.2 
L 72.946245 7.2 
z
" style="fill: #ffffff"/>
   </g>
   <g id="matplotlib.axis_3"/>
   <g id="matplotlib.axis_4"/>
   <g id="line2d_2">
    <path d="M 75.443802 9.697557 
L 100.419368 34.673123 
L 125.394934 59.648688 
" clip-path="url(#pd3402031b9)" style="fill: none; stroke-dasharray: 3.7,1.6; stroke-dashoffset: 0; stroke: #377eb8"/>
    <defs>
     <path id="m90f00195f8" d="M 0 1 
C 0.265203 1 0.51958 0.894634 0.707107 0.707107 
C 0.894634 0.51958 1 0.265203 1 0 
C 1 -0.265203 0.894634 -0.51958 0.707107 -0.707107 
C 0.51958 -0.894634 0.265203 -1 0 -1 
C -0.265203 -1 -0.51958 -0.894634 -0.707107 -0.707107 
C -0.894634 -0.51958 -1 -0.265203 -1 0 
C -1 0.265203 -0.894634 0.51958 -0.707107 0.707107 
C -0.51958 0.894634 -0.265203 1 0 1 
z
" style="stroke: #377eb8"/>
    </defs>
    <g clip-path="url(#pd3402031b9)">
     <use xlink:href="#m90f00195f8" x="75.443802" y="9.697557" style="fill: #377eb8; stroke: #377eb8"/>
     <use xlink:href="#m90f00195f8" x="100.419368" y="34.673123" style="fill: #377eb8; stroke: #377eb8"/>
     <use xlink:href="#m90f00195f8" x="125.394934" y="59.648688" style="fill: #377eb8; stroke: #377eb8"/>
    </g>
   </g>
   <g id="patch_8">
    <path d="M 72.946245 62.146245 
L 72.946245 7.2 
" style="fill: none; stroke: #000000; stroke-width: 0.8; stroke-linejoin: miter; stroke-linecap: square"/>
   </g>
   <g id="patch_9">
    <path d="M 127.89249 62.146245 
L 127.89249 7.2 
" style="fill: none; stroke: #000000; stroke-width: 0.8; stroke-linejoin: miter; stroke-linecap: square"/>
   </g>
   <g id="patch_10">
    <path d="M 72.946245 62.146245 
L 127.89249 62.146245 
" style="fill: none; stroke: #000000; stroke-width: 0.8; stroke-linejoin: miter; stroke-linecap: square"/>
   </g>
   <g id="patch_11">
    <path d="M 72.946245 7.2 
L 127.89249 7.2 
" style="fill: none; stroke: #000000; stroke-width: 0.8; stroke-linejoin: miter; stroke-linecap: square"/>
   </g>
  </g>
  <g id="axes_3">
   <g id="patch_12">
    <path d="M 7.2 127.89249 
L 62.146245 127.89249 
L 62.146245 72.946245 
L 7.2 72.946245 
z
" style="fill: #ffffff"/>
   </g>
   <g id="matplotlib.axis_5"/>
   <g id="matplotlib.axis_6"/>
   <g id="line2d_3">
    <path d="M 9.697557 125.394934 
L 34.673123 75.443802 
L 59.648688 108.744556 
" clip-path="url(#p11443c51d0)" style="fill: none; stroke-dasharray: 1,1.65; stroke-dashoffset: 0; stroke: #4daf4a"/>
    <defs>
     <path id="mdbbbf4d988" d="M 0 1 
C 0.265203 1 0.51958 0.894634 0.707107 0.707107 
C 0.894634 0.51958 1 0.265203 1 0 
C 1 -0.265203 0.894634 -0.51958 0.707107 -0.707107 
C 0.51958 -0.894634 0.265203 -1 0 -1 
C -0.265203 -1 -0.51958 -0.894634 -0.707107 -0.707107 
C -0.894634 -0.51958 -1 -0.265203 -1 0 
C -1 0.265203 -0.894634 0.51958 -0.707107 0.707107 
C -0.51958 0.894634 -0.265203 1 0 1 
z
" style="stroke: #4daf4a"/>
    </defs>
    <g clip-path="url(#p11443c51d0)">
     <use xlink:href="#mdbbbf4d988" x="9.697557" y="125.394934" style="fill: #4daf4a; stroke: #4daf4a"/>
     <use xlink:href="#mdbbbf4d988" x="34.673123" y="75.443802" style="fill: #4daf4a; stroke: #4daf4a"/>
     <use xlink:href="#mdbbbf4d988" x="59.648688" y="108.744556" style="fill: #4daf4a; stroke: #4daf4a"/>
    </g>
   </g>
   <g id="patch_13">
    <path d="M 7.2 127.89249 
L 7.2 72.946245 
" style="fill: none; stroke: #000000; stroke-width: 0.8; stroke-linejoin: miter; stroke-linecap: square"/>
   </g>
   <g id="patch_14">
    <path d="M 62.146245 127.89249 
L 62.146245 72.946245 
" style="fill: none; stroke: #000000; stroke-width: 0.8; stroke-linejoin: miter; stroke-linecap: square"/>
   </g>
   <g id="patch_15">
    <path d="M 7.2 127.89249 
L 62.146245 127.89249 
" style="fill: none; stroke: #000000; stroke-width: 0.8; stroke-linejoin: miter; stroke-linecap: square"/>
   </g>
   <g id="patch_16">
    <path d="M 7.2 72.946245 
L 62.146245 72.946245 
" style="fill: none; stroke: #000000; stroke-width: 0.8; stroke-linejoin: miter; stroke-linecap: square"/>
   </g>
  </g>
  <g id="axes_4">
   <g id="patch_17">
    <path d="M 72.946245 127.89249 
L 127.89249 127.89249 
L 127.89249 72.946245 
L 72.946245 72.946245 
z
" style="fill: #ffffff"/>
   </g>
   <g id="matplotlib.axis_7"/>
   <g id="matplotlib.axis_8"/>
   <g id="line2d_4">
    <path d="M 75.443802 75.443802 
L 100.419368 125.394934 
L 125.394934 92.094179 
" clip-path="url(#p70cb425db4)" style="fill: none; stroke-dasharray: 6.4,1.6,1,1.6; stroke-dashoffset: 0; stroke: #984ea3"/>
    <defs>
     <path id="md88fe2021f" d="M 0 1 
C 0.265203 1 0.51958 0.894634 0.707107 0.707107 
C 0.894634 0.51958 1 0.265203 1 0 
C 1 -0.265203 0.894634 -0.51958 0.707107 -0.707107 
C 0.51958 -0.894634 0.265203 -1 0 -1 
C -0.265203 -1 -0.51958 -0.894634 -0.707107 -0.707107 
C -0.894634 -0.51958 -1 -0.265203 -1 0 
C -1 0.265203 -0.894634 0.51958 -0.707107 0.707107 
C -0.51958 0.894634 -0.265203 1 0 1 
z
" style="stroke: #984ea3"/>
    </defs>
    <g clip-path="url(#p70cb425db4)">
     <use xlink:href="#md88fe2021f" x="75.443802" y="75.443802" style="fill: #984ea3; stroke: #984ea3"/>
     <use xlink:href="#md88fe2021f" x="100.419368" y="125.394934" style="fill: #984ea3; stroke: #984ea3"/>
     <use xlink:href="#md88fe2021f" x="125.394934" y="92.094179" style="fill: #984ea3; stroke: #984ea3"/>
    </g>
   </g>
   <g id="patch_18">
    <path d="M 72.946245 127.89249 
L 72.946245 72.946245 
" style="fill: none; stroke: #000000; stroke-width: 0.8; stroke-linejoin: miter; stroke-linecap: square"/>
   </g>
   <g id="patch_19">
    <path d="M 127.89249 127.89249 
L 127.89249 72.946245 
" style="fill: none; stroke: #000000; stroke-width: 0.8; stroke-linejoin: miter; stroke-linecap: square"/>
   </g>
   <g id="patch_20">
    <path d="M 72.946245 127.89249 
L 127.89249 127.89249 
" style="fill: none; stroke: #000000; stroke-width: 0.8; stroke-linejoin: miter; stroke-linecap: square"/>
   </g>
   <g id="patch_21">
    <path d="M 72.946245 72.946245 
L 127.89249 72.946245 
" style="fill: none; stroke: #000000; stroke-width: 0.8; stroke-linejoin: miter; stroke-linecap: square"/>
   </g>
  </g>
 </g>
 <defs>
  <clipPath id="pd14680a0cf">
   <rect x="7.2" y="7.2" width="54.946245" height="54.946245"/>
  </clipPath>
  <clipPath id="pd3402031b9">
   <rect x="72.946245" y="7.2" width="54.946245" height="54.946245"/>
  </clipPath>
  <clipPath id="p11443c51d0">
   <rect x="7.2" y="72.946245" width="54.946245" height="54.946245"/>
  </clipPath>
  <clipPath id="p70cb425db4">
   <rect x="72.946245" y="72.946245" width="54.946245" height="54.946245"/>
  </clipPath>
 </defs>
</svg>
