<?xml version="1.0" encoding="utf-8" standalone="no"?>
<!DOCTYPE svg PUBLIC "-//W3C//DTD SVG 1.1//EN"
  "http://www.w3.org/Graphics/SVG/1.1/DTD/svg11.dtd">
<svg xmlns:xlink="http://www.w3.org/1999/xlink" width="690.285956pt" height="121.83083pt" viewBox="0 0 690.285956 121.83083" xmlns="http://www.w3.org/2000/svg" version="1.1">
 <metadata>
  <rdf:RDF xmlns:dc="http://purl.org/dc/elements/1.1/" xmlns:cc="http://creativecommons.org/ns#" xmlns:rdf="http://www.w3.org/1999/02/22-rdf-syntax-ns#">
   <cc:Work>
    <dc:type rdf:resource="http://purl.org/dc/dcmitype/StillImage"/>
    <dc:date>2025-04-04T12:12:11.433189</dc:date>
    <dc:format>image/svg+xml</dc:format>
    <dc:creator>
     <cc:Agent>
      <dc:title>Matplotlib v3.8.3, https://matplotlib.org/</dc:title>
     </cc:Agent>
    </dc:creator>
   </cc:Work>
  </rdf:RDF>
 </metadata>
 <defs>
  <style type="text/css">*{stroke-linejoin: round; stroke-linecap: butt}</style>
 </defs>
 <g id="figure_1">
  <g id="patch_1">
   <path d="M 0 121.83083 
L 690.285956 121.83083 
L 690.285956 0 
L 0 0 
z
" style="fill: #ffffff"/>
  </g>
  <g id="axes_1">
   <g id="patch_2">
    <path d="M 7.2 56.032195 
L 47.624003 56.032195 
L 47.624003 7.2 
L 7.2 7.2 
z
" style="fill: #ffffff"/>
   </g>
   <g id="matplotlib.axis_1"/>
   <g id="matplotlib.axis_2"/>
   <g id="line2d_1">
    <path d="M 9.037455 53.81255 
L 27.412001 31.616098 
L 45.786548 9.419645 
" clip-path="url(#pa9868727eb)" style="fill: none; stroke: #009e73; stroke-linecap: square"/>
    <defs>
     <path id="m18ee094bb1" d="M 0 1 
C 0.265203 1 0.51958 0.894634 0.707107 0.707107 
C 0.894634 0.51958 1 0.265203 1 0 
C 1 -0.265203 0.894634 -0.51958 0.707107 -0.707107 
C 0.51958 -0.894634 0.265203 -1 0 -1 
C -0.265203 -1 -0.51958 -0.894634 -0.707107 -0.707107 
C -0.894634 -0.51958 -1 -0.265203 -1 0 
C -1 0.265203 -0.894634 0.51958 -0.707107 0.707107 
C -0.51958 0.894634 -0.265203 1 0 1 
z
" style="stroke: #009e73"/>
    </defs>
    <g clip-path="url(#pa9868727eb)">
     <use xlink:href="#m18ee094bb1" x="9.037455" y="53.81255" style="fill: #009e73; stroke: #009e73"/>
     <use xlink:href="#m18ee094bb1" x="27.412001" y="31.616098" style="fill: #009e73; stroke: #009e73"/>
     <use xlink:href="#m18ee094bb1" x="45.786548" y="9.419645" style="fill: #009e73; stroke: #009e73"/>
    </g>
   </g>
   <g id="patch_3">
    <path d="M 7.2 56.032195 
L 7.2 7.2 
" style="fill: none; stroke: #000000; stroke-width: 0.8; stroke-linejoin: miter; stroke-linecap: square"/>
   </g>
   <g id="patch_4">
    <path d="M 47.624003 56.032195 
L 47.624003 7.2 
" style="fill: none; stroke: #000000; stroke-width: 0.8; stroke-linejoin: miter; stroke-linecap: square"/>
   </g>
   <g id="patch_5">
    <path d="M 7.2 56.032195 
L 47.624003 56.032195 
" style="fill: none; stroke: #000000; stroke-width: 0.8; stroke-linejoin: miter; stroke-linecap: square"/>
   </g>
   <g id="patch_6">
    <path d="M 7.2 7.2 
L 47.624003 7.2 
" style="fill: none; stroke: #000000; stroke-width: 0.8; stroke-linejoin: miter; stroke-linecap: square"/>
   </g>
  </g>
  <g id="axes_2">
   <g id="patch_7">
    <path d="M 55.708803 56.032195 
L 96.132806 56.032195 
L 96.132806 7.2 
L 55.708803 7.2 
z
" style="fill: #ffffff"/>
   </g>
   <g id="matplotlib.axis_3"/>
   <g id="matplotlib.axis_4"/>
   <g id="line2d_2">
    <path d="M 57.546258 9.419645 
L 75.920805 31.616098 
L 94.295352 53.81255 
" clip-path="url(#p67da5aa654)" style="fill: none; stroke-dasharray: 3.7,1.6; stroke-dashoffset: 0; stroke: #d55e00"/>
    <defs>
     <path id="mad8374a456" d="M 0 1 
C 0.265203 1 0.51958 0.894634 0.707107 0.707107 
C 0.894634 0.51958 1 0.265203 1 0 
C 1 -0.265203 0.894634 -0.51958 0.707107 -0.707107 
C 0.51958 -0.894634 0.265203 -1 0 -1 
C -0.265203 -1 -0.51958 -0.894634 -0.707107 -0.707107 
C -0.894634 -0.51958 -1 -0.265203 -1 0 
C -1 0.265203 -0.894634 0.51958 -0.707107 0.707107 
C -0.51958 0.894634 -0.265203 1 0 1 
z
" style="stroke: #d55e00"/>
    </defs>
    <g clip-path="url(#p67da5aa654)">
     <use xlink:href="#mad8374a456" x="57.546258" y="9.419645" style="fill: #d55e00; stroke: #d55e00"/>
     <use xlink:href="#mad8374a456" x="75.920805" y="31.616098" style="fill: #d55e00; stroke: #d55e00"/>
     <use xlink:href="#mad8374a456" x="94.295352" y="53.81255" style="fill: #d55e00; stroke: #d55e00"/>
    </g>
   </g>
   <g id="patch_8">
    <path d="M 55.708803 56.032195 
L 55.708803 7.2 
" style="fill: none; stroke: #000000; stroke-width: 0.8; stroke-linejoin: miter; stroke-linecap: square"/>
   </g>
   <g id="patch_9">
    <path d="M 96.132806 56.032195 
L 96.132806 7.2 
" style="fill: none; stroke: #000000; stroke-width: 0.8; stroke-linejoin: miter; stroke-linecap: square"/>
   </g>
   <g id="patch_10">
    <path d="M 55.708803 56.032195 
L 96.132806 56.032195 
" style="fill: none; stroke: #000000; stroke-width: 0.8; stroke-linejoin: miter; stroke-linecap: square"/>
   </g>
   <g id="patch_11">
    <path d="M 55.708803 7.2 
L 96.132806 7.2 
" style="fill: none; stroke: #000000; stroke-width: 0.8; stroke-linejoin: miter; stroke-linecap: square"/>
   </g>
  </g>
  <g id="axes_3">
   <g id="patch_12">
    <path d="M 7.2 114.63083 
L 47.624003 114.63083 
L 47.624003 65.798635 
L 7.2 65.798635 
z
" style="fill: #ffffff"/>
   </g>
   <g id="matplotlib.axis_5"/>
   <g id="matplotlib.axis_6"/>
   <g id="line2d_3">
    <path d="M 9.037455 112.411185 
L 27.412001 68.01828 
L 45.786548 97.61355 
" clip-path="url(#p42c053979c)" style="fill: none; stroke-dasharray: 1,1.65; stroke-dashoffset: 0; stroke: #e69f00"/>
    <defs>
     <path id="m55e7dc9315" d="M 0 1 
C 0.265203 1 0.51958 0.894634 0.707107 0.707107 
C 0.894634 0.51958 1 0.265203 1 0 
C 1 -0.265203 0.894634 -0.51958 0.707107 -0.707107 
C 0.51958 -0.894634 0.265203 -1 0 -1 
C -0.265203 -1 -0.51958 -0.894634 -0.707107 -0.707107 
C -0.894634 -0.51958 -1 -0.265203 -1 0 
C -1 0.265203 -0.894634 0.51958 -0.707107 0.707107 
C -0.51958 0.894634 -0.265203 1 0 1 
z
" style="stroke: #e69f00"/>
    </defs>
    <g clip-path="url(#p42c053979c)">
     <use xlink:href="#m55e7dc9315" x="9.037455" y="112.411185" style="fill: #e69f00; stroke: #e69f00"/>
     <use xlink:href="#m55e7dc9315" x="27.412001" y="68.01828" style="fill: #e69f00; stroke: #e69f00"/>
     <use xlink:href="#m55e7dc9315" x="45.786548" y="97.61355" style="fill: #e69f00; stroke: #e69f00"/>
    </g>
   </g>
   <g id="patch_13">
    <path d="M 7.2 114.63083 
L 7.2 65.798635 
" style="fill: none; stroke: #000000; stroke-width: 0.8; stroke-linejoin: miter; stroke-linecap: square"/>
   </g>
   <g id="patch_14">
    <path d="M 47.624003 114.63083 
L 47.624003 65.798635 
" style="fill: none; stroke: #000000; stroke-width: 0.8; stroke-linejoin: miter; stroke-linecap: square"/>
   </g>
   <g id="patch_15">
    <path d="M 7.2 114.63083 
L 47.624003 114.63083 
" style="fill: none; stroke: #000000; stroke-width: 0.8; stroke-linejoin: miter; stroke-linecap: square"/>
   </g>
   <g id="patch_16">
    <path d="M 7.2 65.798635 
L 47.624003 65.798635 
" style="fill: none; stroke: #000000; stroke-width: 0.8; stroke-linejoin: miter; stroke-linecap: square"/>
   </g>
  </g>
  <g id="axes_4">
   <g id="patch_17">
    <path d="M 55.708803 114.63083 
L 96.132806 114.63083 
L 96.132806 65.798635 
L 55.708803 65.798635 
z
" style="fill: #ffffff"/>
   </g>
   <g id="matplotlib.axis_7"/>
   <g id="matplotlib.axis_8"/>
   <g id="line2d_4">
    <path d="M 57.546258 68.01828 
L 75.920805 112.411185 
L 94.295352 82.815915 
" clip-path="url(#p89b99c873f)" style="fill: none; stroke-dasharray: 6.4,1.6,1,1.6; stroke-dashoffset: 0; stroke: #0072b2"/>
    <defs>
     <path id="madd92d1466" d="M 0 1 
C 0.265203 1 0.51958 0.894634 0.707107 0.707107 
C 0.894634 0.51958 1 0.265203 1 0 
C 1 -0.265203 0.894634 -0.51958 0.707107 -0.707107 
C 0.51958 -0.894634 0.265203 -1 0 -1 
C -0.265203 -1 -0.51958 -0.894634 -0.707107 -0.707107 
C -0.894634 -0.51958 -1 -0.265203 -1 0 
C -1 0.265203 -0.894634 0.51958 -0.707107 0.707107 
C -0.51958 0.894634 -0.265203 1 0 1 
z
" style="stroke: #0072b2"/>
    </defs>
    <g clip-path="url(#p89b99c873f)">
     <use xlink:href="#madd92d1466" x="57.546258" y="68.01828" style="fill: #0072b2; stroke: #0072b2"/>
     <use xlink:href="#madd92d1466" x="75.920805" y="112.411185" style="fill: #0072b2; stroke: #0072b2"/>
     <use xlink:href="#madd92d1466" x="94.295352" y="82.815915" style="fill: #0072b2; stroke: #0072b2"/>
    </g>
   </g>
   <g id="patch_18">
    <path d="M 55.708803 114.63083 
L 55.708803 65.798635 
" style="fill: none; stroke: #000000; stroke-width: 0.8; stroke-linejoin: miter; stroke-linecap: square"/>
   </g>
   <g id="patch_19">
    <path d="M 96.132806 114.63083 
L 96.132806 65.798635 
" style="fill: none; stroke: #000000; stroke-width: 0.8; stroke-linejoin: miter; stroke-linecap: square"/>
   </g>
   <g id="patch_20">
    <path d="M 55.708803 114.63083 
L 96.132806 114.63083 
" style="fill: none; stroke: #000000; stroke-width: 0.8; stroke-linejoin: miter; stroke-linecap: square"/>
   </g>
   <g id="patch_21">
    <path d="M 55.708803 65.798635 
L 96.132806 65.798635 
" style="fill: none; stroke: #000000; stroke-width: 0.8; stroke-linejoin: miter; stroke-linecap: square"/>
   </g>
  </g>
  <g id="legend_1">
   <g id="line2d_5">
    <path d="M 109.401581 46.993021 
L 119.401581 46.993021 
L 129.401581 46.993021 
" style="fill: none; stroke: #009e73; stroke-width: 2; stroke-linecap: square"/>
    <defs>
     <path id="m764be8c652" d="M 0 2.5 
C 0.663008 2.5 1.29895 2.236584 1.767767 1.767767 
C 2.236584 1.29895 2.5 0.663008 2.5 0 
C 2.5 -0.663008 2.236584 -1.29895 1.767767 -1.767767 
C 1.29895 -2.236584 0.663008 -2.5 0 -2.5 
C -0.663008 -2.5 -1.29895 -2.236584 -1.767767 -1.767767 
C -2.236584 -1.29895 -2.5 -0.663008 -2.5 0 
C -2.5 0.663008 -2.236584 1.29895 -1.767767 1.767767 
C -1.29895 2.236584 -0.663008 2.5 0 2.5 
z
" style="stroke: #009e73"/>
    </defs>
    <g>
     <use xlink:href="#m764be8c652" x="119.401581" y="46.993021" style="fill: #009e73; stroke: #009e73"/>
    </g>
   </g>
   <g id="text_1">
    <!-- Steady recovery -->
    <g transform="translate(137.401581 50.493021) scale(0.1 -0.1)">
     <defs>
      <path id="Calibri-53" d="M 2709 1134 
Q 2709 850 2604 628 
Q 2500 406 2314 251 
Q 2128 97 1876 19 
Q 1625 -59 1334 -59 
Q 1131 -59 957 -25 
Q 784 9 648 59 
Q 513 109 420 162 
Q 328 216 292 253 
Q 256 291 239 348 
Q 222 406 222 503 
Q 222 572 228 617 
Q 234 663 246 691 
Q 259 719 278 730 
Q 297 741 322 741 
Q 366 741 445 687 
Q 525 634 650 571 
Q 775 509 951 454 
Q 1128 400 1359 400 
Q 1534 400 1679 447 
Q 1825 494 1929 580 
Q 2034 666 2090 791 
Q 2147 916 2147 1075 
Q 2147 1247 2069 1369 
Q 1991 1491 1862 1583 
Q 1734 1675 1570 1751 
Q 1406 1828 1234 1908 
Q 1063 1988 900 2084 
Q 738 2181 609 2312 
Q 481 2444 401 2620 
Q 322 2797 322 3044 
Q 322 3297 414 3495 
Q 506 3694 670 3828 
Q 834 3963 1061 4033 
Q 1288 4103 1550 4103 
Q 1684 4103 1820 4079 
Q 1956 4056 2076 4017 
Q 2197 3978 2290 3929 
Q 2384 3881 2414 3851 
Q 2444 3822 2453 3805 
Q 2463 3788 2469 3761 
Q 2475 3734 2478 3696 
Q 2481 3659 2481 3600 
Q 2481 3544 2476 3500 
Q 2472 3456 2462 3426 
Q 2453 3397 2436 3383 
Q 2419 3369 2397 3369 
Q 2363 3369 2289 3412 
Q 2216 3456 2109 3511 
Q 2003 3566 1858 3611 
Q 1713 3656 1531 3656 
Q 1363 3656 1238 3611 
Q 1113 3566 1031 3491 
Q 950 3416 909 3312 
Q 869 3209 869 3094 
Q 869 2925 947 2803 
Q 1025 2681 1154 2587 
Q 1284 2494 1450 2416 
Q 1616 2338 1787 2258 
Q 1959 2178 2125 2083 
Q 2291 1988 2420 1858 
Q 2550 1728 2629 1551 
Q 2709 1375 2709 1134 
z
" transform="scale(0.015625)"/>
      <path id="Calibri-74" d="M 1941 284 
Q 1941 194 1928 141 
Q 1916 88 1891 63 
Q 1866 38 1816 16 
Q 1766 -6 1702 -20 
Q 1638 -34 1566 -43 
Q 1494 -53 1422 -53 
Q 1203 -53 1047 5 
Q 891 63 791 180 
Q 691 297 645 476 
Q 600 656 600 900 
L 600 2544 
L 206 2544 
Q 159 2544 131 2594 
Q 103 2644 103 2756 
Q 103 2816 111 2856 
Q 119 2897 131 2923 
Q 144 2950 164 2961 
Q 184 2972 209 2972 
L 600 2972 
L 600 3641 
Q 600 3663 611 3681 
Q 622 3700 651 3714 
Q 681 3728 731 3734 
Q 781 3741 856 3741 
Q 934 3741 984 3734 
Q 1034 3728 1062 3714 
Q 1091 3700 1103 3681 
Q 1116 3663 1116 3641 
L 1116 2972 
L 1838 2972 
Q 1863 2972 1881 2961 
Q 1900 2950 1914 2923 
Q 1928 2897 1934 2856 
Q 1941 2816 1941 2756 
Q 1941 2644 1912 2594 
Q 1884 2544 1838 2544 
L 1116 2544 
L 1116 975 
Q 1116 684 1202 536 
Q 1288 388 1509 388 
Q 1581 388 1637 402 
Q 1694 416 1737 431 
Q 1781 447 1812 461 
Q 1844 475 1869 475 
Q 1884 475 1898 467 
Q 1913 459 1920 437 
Q 1928 416 1934 378 
Q 1941 341 1941 284 
z
" transform="scale(0.015625)"/>
      <path id="Calibri-65" d="M 2878 1606 
Q 2878 1484 2817 1432 
Q 2756 1381 2678 1381 
L 834 1381 
Q 834 1147 881 959 
Q 928 772 1037 637 
Q 1147 503 1322 431 
Q 1497 359 1750 359 
Q 1950 359 2106 392 
Q 2263 425 2377 465 
Q 2491 506 2564 539 
Q 2638 572 2675 572 
Q 2697 572 2714 561 
Q 2731 550 2740 528 
Q 2750 506 2754 467 
Q 2759 428 2759 372 
Q 2759 331 2756 301 
Q 2753 272 2748 248 
Q 2744 225 2733 206 
Q 2722 188 2705 170 
Q 2688 153 2603 114 
Q 2519 75 2384 37 
Q 2250 0 2073 -29 
Q 1897 -59 1697 -59 
Q 1350 -59 1089 37 
Q 828 134 650 325 
Q 472 516 381 803 
Q 291 1091 291 1472 
Q 291 1834 384 2123 
Q 478 2413 654 2614 
Q 831 2816 1081 2923 
Q 1331 3031 1641 3031 
Q 1972 3031 2205 2925 
Q 2438 2819 2588 2639 
Q 2738 2459 2808 2217 
Q 2878 1975 2878 1700 
L 2878 1606 
z
M 2359 1759 
Q 2369 2166 2180 2397 
Q 1991 2628 1619 2628 
Q 1428 2628 1284 2556 
Q 1141 2484 1044 2365 
Q 947 2247 894 2089 
Q 841 1931 834 1759 
L 2359 1759 
z
" transform="scale(0.015625)"/>
      <path id="Calibri-61" d="M 2597 75 
Q 2597 38 2572 19 
Q 2547 0 2503 -9 
Q 2459 -19 2375 -19 
Q 2294 -19 2245 -9 
Q 2197 0 2175 19 
Q 2153 38 2153 75 
L 2153 356 
Q 1969 159 1742 50 
Q 1516 -59 1263 -59 
Q 1041 -59 861 -1 
Q 681 56 554 165 
Q 428 275 358 434 
Q 288 594 288 797 
Q 288 1034 384 1209 
Q 481 1384 662 1500 
Q 844 1616 1106 1673 
Q 1369 1731 1697 1731 
L 2084 1731 
L 2084 1950 
Q 2084 2113 2050 2238 
Q 2016 2363 1939 2445 
Q 1863 2528 1741 2570 
Q 1619 2613 1441 2613 
Q 1250 2613 1098 2567 
Q 947 2522 833 2467 
Q 719 2413 642 2367 
Q 566 2322 528 2322 
Q 503 2322 484 2334 
Q 466 2347 452 2372 
Q 438 2397 431 2436 
Q 425 2475 425 2522 
Q 425 2600 436 2645 
Q 447 2691 489 2731 
Q 531 2772 634 2826 
Q 738 2881 872 2926 
Q 1006 2972 1165 3001 
Q 1325 3031 1488 3031 
Q 1791 3031 2003 2962 
Q 2216 2894 2347 2761 
Q 2478 2628 2537 2431 
Q 2597 2234 2597 1972 
L 2597 75 
z
M 2084 1359 
L 1644 1359 
Q 1431 1359 1275 1323 
Q 1119 1288 1016 1217 
Q 913 1147 864 1048 
Q 816 950 816 822 
Q 816 603 955 473 
Q 1094 344 1344 344 
Q 1547 344 1720 447 
Q 1894 550 2084 763 
L 2084 1359 
z
" transform="scale(0.015625)"/>
      <path id="Calibri-64" d="M 2888 78 
Q 2888 53 2877 34 
Q 2866 16 2839 5 
Q 2813 -6 2769 -12 
Q 2725 -19 2663 -19 
Q 2597 -19 2553 -12 
Q 2509 -6 2481 5 
Q 2453 16 2440 34 
Q 2428 53 2428 78 
L 2428 450 
Q 2206 209 1967 75 
Q 1728 -59 1444 -59 
Q 1134 -59 915 61 
Q 697 181 561 386 
Q 425 591 362 867 
Q 300 1144 300 1450 
Q 300 1813 378 2105 
Q 456 2397 609 2603 
Q 763 2809 989 2920 
Q 1216 3031 1513 3031 
Q 1759 3031 1964 2923 
Q 2169 2816 2369 2606 
L 2369 4241 
Q 2369 4263 2380 4283 
Q 2391 4303 2422 4314 
Q 2453 4325 2501 4333 
Q 2550 4341 2625 4341 
Q 2703 4341 2753 4333 
Q 2803 4325 2831 4314 
Q 2859 4303 2873 4283 
Q 2888 4263 2888 4241 
L 2888 78 
z
M 2369 2056 
Q 2159 2316 1964 2452 
Q 1769 2588 1556 2588 
Q 1359 2588 1221 2494 
Q 1084 2400 998 2247 
Q 913 2094 873 1900 
Q 834 1706 834 1506 
Q 834 1294 867 1091 
Q 900 888 981 730 
Q 1063 572 1197 476 
Q 1331 381 1534 381 
Q 1638 381 1733 409 
Q 1828 438 1928 503 
Q 2028 569 2137 673 
Q 2247 778 2369 931 
L 2369 2056 
z
" transform="scale(0.015625)"/>
      <path id="Calibri-79" d="M 1759 0 
L 1384 -1034 
Q 1366 -1084 1289 -1111 
Q 1213 -1138 1056 -1138 
Q 975 -1138 925 -1130 
Q 875 -1122 848 -1103 
Q 822 -1084 819 -1053 
Q 816 -1022 834 -978 
L 1222 0 
Q 1194 13 1169 41 
Q 1144 69 1134 100 
L 131 2788 
Q 106 2853 106 2890 
Q 106 2928 131 2950 
Q 156 2972 212 2980 
Q 269 2988 363 2988 
Q 456 2988 509 2983 
Q 563 2978 594 2965 
Q 625 2953 639 2929 
Q 653 2906 669 2866 
L 1472 609 
L 1481 609 
L 2256 2878 
Q 2275 2938 2301 2955 
Q 2328 2972 2381 2980 
Q 2434 2988 2534 2988 
Q 2622 2988 2678 2980 
Q 2734 2972 2761 2950 
Q 2788 2928 2788 2890 
Q 2788 2853 2769 2797 
L 1759 0 
z
" transform="scale(0.015625)"/>
      <path id="Calibri-20" transform="scale(0.015625)"/>
      <path id="Calibri-72" d="M 2122 2706 
Q 2122 2638 2119 2591 
Q 2116 2544 2106 2517 
Q 2097 2491 2083 2477 
Q 2069 2463 2044 2463 
Q 2019 2463 1983 2477 
Q 1947 2491 1901 2505 
Q 1856 2519 1800 2531 
Q 1744 2544 1678 2544 
Q 1600 2544 1525 2512 
Q 1450 2481 1367 2409 
Q 1284 2338 1193 2219 
Q 1103 2100 994 1928 
L 994 78 
Q 994 53 981 36 
Q 969 19 941 6 
Q 913 -6 863 -12 
Q 813 -19 734 -19 
Q 659 -19 609 -12 
Q 559 -6 529 6 
Q 500 19 489 36 
Q 478 53 478 78 
L 478 2891 
Q 478 2916 487 2933 
Q 497 2950 525 2964 
Q 553 2978 597 2983 
Q 641 2988 713 2988 
Q 781 2988 826 2983 
Q 872 2978 897 2964 
Q 922 2950 933 2933 
Q 944 2916 944 2891 
L 944 2481 
Q 1059 2650 1161 2756 
Q 1263 2863 1353 2923 
Q 1444 2984 1533 3007 
Q 1622 3031 1713 3031 
Q 1753 3031 1804 3026 
Q 1856 3022 1912 3009 
Q 1969 2997 2014 2981 
Q 2059 2966 2078 2950 
Q 2097 2934 2103 2920 
Q 2109 2906 2114 2884 
Q 2119 2863 2120 2820 
Q 2122 2778 2122 2706 
z
" transform="scale(0.015625)"/>
      <path id="Calibri-63" d="M 2500 506 
Q 2500 453 2497 414 
Q 2494 375 2486 348 
Q 2478 322 2467 301 
Q 2456 281 2417 242 
Q 2378 203 2284 145 
Q 2191 88 2073 42 
Q 1956 -3 1818 -31 
Q 1681 -59 1534 -59 
Q 1231 -59 997 41 
Q 763 141 605 333 
Q 447 525 364 804 
Q 281 1084 281 1450 
Q 281 1866 382 2164 
Q 484 2463 661 2653 
Q 838 2844 1077 2936 
Q 1316 3028 1594 3028 
Q 1728 3028 1854 3003 
Q 1981 2978 2087 2937 
Q 2194 2897 2276 2844 
Q 2359 2791 2396 2753 
Q 2434 2716 2448 2694 
Q 2463 2672 2472 2642 
Q 2481 2613 2484 2575 
Q 2488 2538 2488 2481 
Q 2488 2359 2459 2311 
Q 2431 2263 2391 2263 
Q 2344 2263 2283 2314 
Q 2222 2366 2128 2428 
Q 2034 2491 1901 2542 
Q 1769 2594 1588 2594 
Q 1216 2594 1017 2308 
Q 819 2022 819 1478 
Q 819 1206 870 1001 
Q 922 797 1022 659 
Q 1122 522 1267 455 
Q 1413 388 1600 388 
Q 1778 388 1912 444 
Q 2047 500 2145 567 
Q 2244 634 2311 689 
Q 2378 744 2416 744 
Q 2438 744 2453 731 
Q 2469 719 2480 689 
Q 2491 659 2495 614 
Q 2500 569 2500 506 
z
" transform="scale(0.015625)"/>
      <path id="Calibri-6f" d="M 3094 1516 
Q 3094 1172 3003 883 
Q 2913 594 2733 384 
Q 2553 175 2283 58 
Q 2013 -59 1656 -59 
Q 1309 -59 1051 44 
Q 794 147 622 344 
Q 450 541 365 822 
Q 281 1103 281 1459 
Q 281 1803 370 2092 
Q 459 2381 639 2590 
Q 819 2800 1087 2915 
Q 1356 3031 1716 3031 
Q 2063 3031 2320 2928 
Q 2578 2825 2750 2628 
Q 2922 2431 3008 2150 
Q 3094 1869 3094 1516 
z
M 2550 1481 
Q 2550 1709 2508 1912 
Q 2466 2116 2369 2269 
Q 2272 2422 2106 2511 
Q 1941 2600 1694 2600 
Q 1466 2600 1302 2519 
Q 1138 2438 1031 2289 
Q 925 2141 873 1937 
Q 822 1734 822 1494 
Q 822 1263 864 1059 
Q 906 856 1004 704 
Q 1103 553 1268 464 
Q 1434 375 1681 375 
Q 1906 375 2072 456 
Q 2238 538 2344 684 
Q 2450 831 2500 1034 
Q 2550 1238 2550 1481 
z
" transform="scale(0.015625)"/>
      <path id="Calibri-76" d="M 2784 2897 
Q 2784 2884 2782 2870 
Q 2781 2856 2778 2840 
Q 2775 2825 2770 2806 
Q 2766 2788 2759 2766 
L 1800 94 
Q 1788 59 1767 37 
Q 1747 16 1706 3 
Q 1666 -9 1603 -14 
Q 1541 -19 1447 -19 
Q 1353 -19 1290 -12 
Q 1228 -6 1189 6 
Q 1150 19 1128 41 
Q 1106 63 1094 94 
L 138 2766 
Q 125 2803 117 2831 
Q 109 2859 107 2873 
Q 106 2888 106 2897 
Q 106 2922 118 2940 
Q 131 2959 161 2970 
Q 191 2981 239 2984 
Q 288 2988 359 2988 
Q 450 2988 504 2983 
Q 559 2978 589 2965 
Q 619 2953 633 2934 
Q 647 2916 659 2888 
L 1453 569 
L 1466 531 
L 1475 569 
L 2259 2888 
Q 2266 2916 2281 2934 
Q 2297 2953 2326 2965 
Q 2356 2978 2407 2983 
Q 2459 2988 2544 2988 
Q 2616 2988 2662 2984 
Q 2709 2981 2736 2968 
Q 2763 2956 2773 2939 
Q 2784 2922 2784 2897 
z
" transform="scale(0.015625)"/>
     </defs>
     <use xlink:href="#Calibri-53"/>
     <use xlink:href="#Calibri-74" x="45.947266"/>
     <use xlink:href="#Calibri-65" x="79.443359"/>
     <use xlink:href="#Calibri-61" x="129.199219"/>
     <use xlink:href="#Calibri-64" x="177.099609"/>
     <use xlink:href="#Calibri-79" x="229.638672"/>
     <use xlink:href="#Calibri-20" x="274.902344"/>
     <use xlink:href="#Calibri-72" x="297.509766"/>
     <use xlink:href="#Calibri-65" x="332.373047"/>
     <use xlink:href="#Calibri-63" x="382.128906"/>
     <use xlink:href="#Calibri-6f" x="424.414062"/>
     <use xlink:href="#Calibri-76" x="477.148438"/>
     <use xlink:href="#Calibri-65" x="522.314453"/>
     <use xlink:href="#Calibri-72" x="572.070312"/>
     <use xlink:href="#Calibri-79" x="606.933594"/>
    </g>
   </g>
   <g id="line2d_6">
    <path d="M 222.621894 46.993021 
L 232.621894 46.993021 
L 242.621894 46.993021 
" style="fill: none; stroke-dasharray: 7.4,3.2; stroke-dashoffset: 0; stroke: #d55e00; stroke-width: 2"/>
    <defs>
     <path id="mab344d73f1" d="M 0 2.5 
C 0.663008 2.5 1.29895 2.236584 1.767767 1.767767 
C 2.236584 1.29895 2.5 0.663008 2.5 0 
C 2.5 -0.663008 2.236584 -1.29895 1.767767 -1.767767 
C 1.29895 -2.236584 0.663008 -2.5 0 -2.5 
C -0.663008 -2.5 -1.29895 -2.236584 -1.767767 -1.767767 
C -2.236584 -1.29895 -2.5 -0.663008 -2.5 0 
C -2.5 0.663008 -2.236584 1.29895 -1.767767 1.767767 
C -1.29895 2.236584 -0.663008 2.5 0 2.5 
z
" style="stroke: #d55e00"/>
    </defs>
    <g>
     <use xlink:href="#mab344d73f1" x="232.621894" y="46.993021" style="fill: #d55e00; stroke: #d55e00"/>
    </g>
   </g>
   <g id="text_2">
    <!-- Steady decline -->
    <g transform="translate(250.621894 50.493021) scale(0.1 -0.1)">
     <defs>
      <path id="Calibri-6c" d="M 994 78 
Q 994 53 981 36 
Q 969 19 941 6 
Q 913 -6 863 -12 
Q 813 -19 734 -19 
Q 659 -19 609 -12 
Q 559 -6 529 6 
Q 500 19 489 36 
Q 478 53 478 78 
L 478 4253 
Q 478 4278 489 4297 
Q 500 4316 529 4328 
Q 559 4341 609 4347 
Q 659 4353 734 4353 
Q 813 4353 863 4347 
Q 913 4341 941 4328 
Q 969 4316 981 4297 
Q 994 4278 994 4253 
L 994 78 
z
" transform="scale(0.015625)"/>
      <path id="Calibri-69" d="M 994 78 
Q 994 53 981 36 
Q 969 19 941 6 
Q 913 -6 863 -12 
Q 813 -19 734 -19 
Q 659 -19 609 -12 
Q 559 -6 529 6 
Q 500 19 489 36 
Q 478 53 478 78 
L 478 2891 
Q 478 2913 489 2931 
Q 500 2950 529 2962 
Q 559 2975 609 2981 
Q 659 2988 734 2988 
Q 813 2988 863 2981 
Q 913 2975 941 2962 
Q 969 2950 981 2931 
Q 994 2913 994 2891 
L 994 78 
z
M 1053 3841 
Q 1053 3659 984 3593 
Q 916 3528 731 3528 
Q 550 3528 483 3592 
Q 416 3656 416 3834 
Q 416 4016 484 4081 
Q 553 4147 738 4147 
Q 919 4147 986 4083 
Q 1053 4019 1053 3841 
z
" transform="scale(0.015625)"/>
      <path id="Calibri-6e" d="M 2900 78 
Q 2900 53 2887 36 
Q 2875 19 2847 6 
Q 2819 -6 2769 -12 
Q 2719 -19 2644 -19 
Q 2566 -19 2516 -12 
Q 2466 -6 2437 6 
Q 2409 19 2396 36 
Q 2384 53 2384 78 
L 2384 1725 
Q 2384 1966 2346 2112 
Q 2309 2259 2237 2365 
Q 2166 2472 2052 2528 
Q 1938 2584 1788 2584 
Q 1594 2584 1400 2446 
Q 1206 2309 994 2044 
L 994 78 
Q 994 53 981 36 
Q 969 19 941 6 
Q 913 -6 863 -12 
Q 813 -19 734 -19 
Q 659 -19 609 -12 
Q 559 -6 529 6 
Q 500 19 489 36 
Q 478 53 478 78 
L 478 2891 
Q 478 2916 487 2933 
Q 497 2950 525 2964 
Q 553 2978 597 2983 
Q 641 2988 713 2988 
Q 781 2988 826 2983 
Q 872 2978 897 2964 
Q 922 2950 933 2933 
Q 944 2916 944 2891 
L 944 2519 
Q 1181 2784 1417 2907 
Q 1653 3031 1894 3031 
Q 2175 3031 2367 2936 
Q 2559 2841 2678 2681 
Q 2797 2522 2848 2308 
Q 2900 2094 2900 1794 
L 2900 78 
z
" transform="scale(0.015625)"/>
     </defs>
     <use xlink:href="#Calibri-53"/>
     <use xlink:href="#Calibri-74" x="45.947266"/>
     <use xlink:href="#Calibri-65" x="79.443359"/>
     <use xlink:href="#Calibri-61" x="129.199219"/>
     <use xlink:href="#Calibri-64" x="177.099609"/>
     <use xlink:href="#Calibri-79" x="229.638672"/>
     <use xlink:href="#Calibri-20" x="274.902344"/>
     <use xlink:href="#Calibri-64" x="297.509766"/>
     <use xlink:href="#Calibri-65" x="350.048828"/>
     <use xlink:href="#Calibri-63" x="399.804688"/>
     <use xlink:href="#Calibri-6c" x="442.089844"/>
     <use xlink:href="#Calibri-69" x="465.039062"/>
     <use xlink:href="#Calibri-6e" x="487.988281"/>
     <use xlink:href="#Calibri-65" x="540.527344"/>
    </g>
   </g>
   <g id="line2d_7">
    <path d="M 329.653144 46.993021 
L 339.653144 46.993021 
L 349.653144 46.993021 
" style="fill: none; stroke-dasharray: 2,3.3; stroke-dashoffset: 0; stroke: #e69f00; stroke-width: 2"/>
    <defs>
     <path id="mf6cd6d6db9" d="M 0 2.5 
C 0.663008 2.5 1.29895 2.236584 1.767767 1.767767 
C 2.236584 1.29895 2.5 0.663008 2.5 0 
C 2.5 -0.663008 2.236584 -1.29895 1.767767 -1.767767 
C 1.29895 -2.236584 0.663008 -2.5 0 -2.5 
C -0.663008 -2.5 -1.29895 -2.236584 -1.767767 -1.767767 
C -2.236584 -1.29895 -2.5 -0.663008 -2.5 0 
C -2.5 0.663008 -2.236584 1.29895 -1.767767 1.767767 
C -1.29895 2.236584 -0.663008 2.5 0 2.5 
z
" style="stroke: #e69f00"/>
    </defs>
    <g>
     <use xlink:href="#mf6cd6d6db9" x="339.653144" y="46.993021" style="fill: #e69f00; stroke: #e69f00"/>
    </g>
   </g>
   <g id="text_3">
    <!-- Early recovery with chronic decline -->
    <g transform="translate(357.653144 50.493021) scale(0.1 -0.1)">
     <defs>
      <path id="Calibri-45" d="M 2788 222 
Q 2788 166 2781 123 
Q 2775 81 2759 53 
Q 2744 25 2723 12 
Q 2703 0 2678 0 
L 738 0 
Q 666 0 602 48 
Q 538 97 538 219 
L 538 3825 
Q 538 3947 602 3995 
Q 666 4044 738 4044 
L 2656 4044 
Q 2681 4044 2701 4031 
Q 2722 4019 2734 3991 
Q 2747 3963 2755 3920 
Q 2763 3878 2763 3816 
Q 2763 3759 2755 3717 
Q 2747 3675 2734 3648 
Q 2722 3622 2701 3609 
Q 2681 3597 2656 3597 
L 1075 3597 
L 1075 2328 
L 2431 2328 
Q 2456 2328 2476 2314 
Q 2497 2300 2511 2275 
Q 2525 2250 2531 2206 
Q 2538 2163 2538 2103 
Q 2538 2047 2531 2006 
Q 2525 1966 2511 1941 
Q 2497 1916 2476 1905 
Q 2456 1894 2431 1894 
L 1075 1894 
L 1075 447 
L 2678 447 
Q 2703 447 2723 434 
Q 2744 422 2759 395 
Q 2775 369 2781 326 
Q 2788 284 2788 222 
z
" transform="scale(0.015625)"/>
      <path id="Calibri-77" d="M 4413 2897 
Q 4413 2875 4406 2844 
Q 4400 2813 4384 2766 
L 3556 94 
Q 3547 59 3526 37 
Q 3506 16 3470 3 
Q 3434 -9 3371 -14 
Q 3309 -19 3216 -19 
Q 3119 -19 3053 -12 
Q 2988 -6 2948 6 
Q 2909 19 2890 41 
Q 2872 63 2863 94 
L 2272 2134 
L 2266 2163 
L 2259 2134 
L 1713 94 
Q 1703 59 1683 37 
Q 1663 16 1622 3 
Q 1581 -9 1517 -14 
Q 1453 -19 1359 -19 
Q 1263 -19 1202 -12 
Q 1141 -6 1102 6 
Q 1063 19 1044 41 
Q 1025 63 1016 94 
L 194 2766 
Q 178 2813 172 2844 
Q 166 2875 166 2897 
Q 166 2925 178 2942 
Q 191 2959 220 2970 
Q 250 2981 300 2984 
Q 350 2988 422 2988 
Q 509 2988 562 2983 
Q 616 2978 644 2967 
Q 672 2956 684 2936 
Q 697 2916 706 2888 
L 1384 569 
L 1391 541 
L 1397 569 
L 2019 2888 
Q 2025 2916 2039 2936 
Q 2053 2956 2081 2967 
Q 2109 2978 2157 2983 
Q 2206 2988 2284 2988 
Q 2359 2988 2407 2983 
Q 2456 2978 2484 2967 
Q 2513 2956 2525 2937 
Q 2538 2919 2544 2894 
L 3216 569 
L 3222 541 
L 3225 569 
L 3894 2888 
Q 3900 2916 3914 2936 
Q 3928 2956 3958 2967 
Q 3988 2978 4039 2983 
Q 4091 2988 4172 2988 
Q 4247 2988 4292 2984 
Q 4338 2981 4364 2968 
Q 4391 2956 4402 2940 
Q 4413 2925 4413 2897 
z
" transform="scale(0.015625)"/>
      <path id="Calibri-68" d="M 2900 78 
Q 2900 53 2887 36 
Q 2875 19 2847 6 
Q 2819 -6 2769 -12 
Q 2719 -19 2644 -19 
Q 2566 -19 2516 -12 
Q 2466 -6 2437 6 
Q 2409 19 2396 36 
Q 2384 53 2384 78 
L 2384 1725 
Q 2384 1966 2346 2112 
Q 2309 2259 2237 2365 
Q 2166 2472 2052 2528 
Q 1938 2584 1788 2584 
Q 1594 2584 1400 2446 
Q 1206 2309 994 2044 
L 994 78 
Q 994 53 981 36 
Q 969 19 941 6 
Q 913 -6 863 -12 
Q 813 -19 734 -19 
Q 659 -19 609 -12 
Q 559 -6 529 6 
Q 500 19 489 36 
Q 478 53 478 78 
L 478 4253 
Q 478 4278 489 4297 
Q 500 4316 529 4328 
Q 559 4341 609 4347 
Q 659 4353 734 4353 
Q 813 4353 863 4347 
Q 913 4341 941 4328 
Q 969 4316 981 4297 
Q 994 4278 994 4253 
L 994 2569 
Q 1216 2803 1441 2917 
Q 1666 3031 1894 3031 
Q 2175 3031 2367 2936 
Q 2559 2841 2678 2681 
Q 2797 2522 2848 2308 
Q 2900 2094 2900 1791 
L 2900 78 
z
" transform="scale(0.015625)"/>
     </defs>
     <use xlink:href="#Calibri-45"/>
     <use xlink:href="#Calibri-61" x="47.203125"/>
     <use xlink:href="#Calibri-72" x="95.103516"/>
     <use xlink:href="#Calibri-6c" x="129.966797"/>
     <use xlink:href="#Calibri-79" x="152.916016"/>
     <use xlink:href="#Calibri-20" x="198.179688"/>
     <use xlink:href="#Calibri-72" x="220.787109"/>
     <use xlink:href="#Calibri-65" x="255.650391"/>
     <use xlink:href="#Calibri-63" x="305.40625"/>
     <use xlink:href="#Calibri-6f" x="347.691406"/>
     <use xlink:href="#Calibri-76" x="400.425781"/>
     <use xlink:href="#Calibri-65" x="445.591797"/>
     <use xlink:href="#Calibri-72" x="495.347656"/>
     <use xlink:href="#Calibri-79" x="530.210938"/>
     <use xlink:href="#Calibri-20" x="575.474609"/>
     <use xlink:href="#Calibri-77" x="598.082031"/>
     <use xlink:href="#Calibri-69" x="669.566406"/>
     <use xlink:href="#Calibri-74" x="692.515625"/>
     <use xlink:href="#Calibri-68" x="726.011719"/>
     <use xlink:href="#Calibri-20" x="778.550781"/>
     <use xlink:href="#Calibri-63" x="801.158203"/>
     <use xlink:href="#Calibri-68" x="843.443359"/>
     <use xlink:href="#Calibri-72" x="895.982422"/>
     <use xlink:href="#Calibri-6f" x="930.845703"/>
     <use xlink:href="#Calibri-6e" x="983.580078"/>
     <use xlink:href="#Calibri-69" x="1036.119141"/>
     <use xlink:href="#Calibri-63" x="1059.068359"/>
     <use xlink:href="#Calibri-20" x="1101.353516"/>
     <use xlink:href="#Calibri-64" x="1123.960938"/>
     <use xlink:href="#Calibri-65" x="1176.5"/>
     <use xlink:href="#Calibri-63" x="1226.255859"/>
     <use xlink:href="#Calibri-6c" x="1268.541016"/>
     <use xlink:href="#Calibri-69" x="1291.490234"/>
     <use xlink:href="#Calibri-6e" x="1314.439453"/>
     <use xlink:href="#Calibri-65" x="1366.978516"/>
    </g>
   </g>
   <g id="line2d_8">
    <path d="M 519.329706 46.993021 
L 529.329706 46.993021 
L 539.329706 46.993021 
" style="fill: none; stroke-dasharray: 12.8,3.2,2,3.2; stroke-dashoffset: 0; stroke: #0072b2; stroke-width: 2"/>
    <defs>
     <path id="m69bb8f867d" d="M 0 2.5 
C 0.663008 2.5 1.29895 2.236584 1.767767 1.767767 
C 2.236584 1.29895 2.5 0.663008 2.5 0 
C 2.5 -0.663008 2.236584 -1.29895 1.767767 -1.767767 
C 1.29895 -2.236584 0.663008 -2.5 0 -2.5 
C -0.663008 -2.5 -1.29895 -2.236584 -1.767767 -1.767767 
C -2.236584 -1.29895 -2.5 -0.663008 -2.5 0 
C -2.5 0.663008 -2.236584 1.29895 -1.767767 1.767767 
C -1.29895 2.236584 -0.663008 2.5 0 2.5 
z
" style="stroke: #0072b2"/>
    </defs>
    <g>
     <use xlink:href="#m69bb8f867d" x="529.329706" y="46.993021" style="fill: #0072b2; stroke: #0072b2"/>
    </g>
   </g>
   <g id="text_4">
    <!-- Late recovery with acute decline -->
    <g transform="translate(547.329706 50.493021) scale(0.1 -0.1)">
     <defs>
      <path id="Calibri-4c" d="M 2634 234 
Q 2634 172 2628 130 
Q 2622 88 2608 58 
Q 2594 28 2573 14 
Q 2553 0 2525 0 
L 738 0 
Q 666 0 602 48 
Q 538 97 538 219 
L 538 3963 
Q 538 3988 550 4006 
Q 563 4025 594 4036 
Q 625 4047 678 4055 
Q 731 4063 806 4063 
Q 884 4063 936 4055 
Q 988 4047 1019 4036 
Q 1050 4025 1062 4006 
Q 1075 3988 1075 3963 
L 1075 466 
L 2525 466 
Q 2553 466 2573 452 
Q 2594 438 2608 411 
Q 2622 384 2628 340 
Q 2634 297 2634 234 
z
" transform="scale(0.015625)"/>
      <path id="Calibri-75" d="M 2888 78 
Q 2888 53 2877 36 
Q 2866 19 2837 6 
Q 2809 -6 2764 -12 
Q 2719 -19 2653 -19 
Q 2581 -19 2536 -12 
Q 2491 -6 2464 6 
Q 2438 19 2428 36 
Q 2419 53 2419 78 
L 2419 450 
Q 2178 184 1943 62 
Q 1709 -59 1469 -59 
Q 1188 -59 995 34 
Q 803 128 684 289 
Q 566 450 514 664 
Q 463 878 463 1184 
L 463 2891 
Q 463 2916 473 2933 
Q 484 2950 515 2964 
Q 547 2978 597 2983 
Q 647 2988 722 2988 
Q 797 2988 847 2983 
Q 897 2978 926 2964 
Q 956 2950 968 2933 
Q 981 2916 981 2891 
L 981 1253 
Q 981 1006 1017 857 
Q 1053 709 1126 604 
Q 1200 500 1312 442 
Q 1425 384 1575 384 
Q 1769 384 1961 521 
Q 2153 659 2369 925 
L 2369 2891 
Q 2369 2916 2380 2933 
Q 2391 2950 2422 2964 
Q 2453 2978 2501 2983 
Q 2550 2988 2628 2988 
Q 2703 2988 2753 2983 
Q 2803 2978 2831 2964 
Q 2859 2950 2873 2933 
Q 2888 2916 2888 2891 
L 2888 78 
z
" transform="scale(0.015625)"/>
     </defs>
     <use xlink:href="#Calibri-4c"/>
     <use xlink:href="#Calibri-61" x="42.041016"/>
     <use xlink:href="#Calibri-74" x="89.941406"/>
     <use xlink:href="#Calibri-65" x="123.4375"/>
     <use xlink:href="#Calibri-20" x="173.193359"/>
     <use xlink:href="#Calibri-72" x="195.800781"/>
     <use xlink:href="#Calibri-65" x="230.664062"/>
     <use xlink:href="#Calibri-63" x="280.419922"/>
     <use xlink:href="#Calibri-6f" x="322.705078"/>
     <use xlink:href="#Calibri-76" x="375.439453"/>
     <use xlink:href="#Calibri-65" x="420.605469"/>
     <use xlink:href="#Calibri-72" x="470.361328"/>
     <use xlink:href="#Calibri-79" x="505.224609"/>
     <use xlink:href="#Calibri-20" x="550.488281"/>
     <use xlink:href="#Calibri-77" x="573.095703"/>
     <use xlink:href="#Calibri-69" x="644.580078"/>
     <use xlink:href="#Calibri-74" x="667.529297"/>
     <use xlink:href="#Calibri-68" x="701.025391"/>
     <use xlink:href="#Calibri-20" x="753.564453"/>
     <use xlink:href="#Calibri-61" x="776.171875"/>
     <use xlink:href="#Calibri-63" x="824.072266"/>
     <use xlink:href="#Calibri-75" x="866.357422"/>
     <use xlink:href="#Calibri-74" x="918.896484"/>
     <use xlink:href="#Calibri-65" x="952.392578"/>
     <use xlink:href="#Calibri-20" x="1002.148438"/>
     <use xlink:href="#Calibri-64" x="1024.755859"/>
     <use xlink:href="#Calibri-65" x="1077.294922"/>
     <use xlink:href="#Calibri-63" x="1127.050781"/>
     <use xlink:href="#Calibri-6c" x="1169.335938"/>
     <use xlink:href="#Calibri-69" x="1192.285156"/>
     <use xlink:href="#Calibri-6e" x="1215.234375"/>
     <use xlink:href="#Calibri-65" x="1267.773438"/>
    </g>
   </g>
  </g>
 </g>
 <defs>
  <clipPath id="pa9868727eb">
   <rect x="7.2" y="7.2" width="40.424003" height="48.832195"/>
  </clipPath>
  <clipPath id="p67da5aa654">
   <rect x="55.708803" y="7.2" width="40.424003" height="48.832195"/>
  </clipPath>
  <clipPath id="p42c053979c">
   <rect x="7.2" y="65.798635" width="40.424003" height="48.832195"/>
  </clipPath>
  <clipPath id="p89b99c873f">
   <rect x="55.708803" y="65.798635" width="40.424003" height="48.832195"/>
  </clipPath>
 </defs>
</svg>
