<?xml version="1.0" encoding="utf-8" standalone="no"?>
<!DOCTYPE svg PUBLIC "-//W3C//DTD SVG 1.1//EN"
  "http://www.w3.org/Graphics/SVG/1.1/DTD/svg11.dtd">
<svg xmlns:xlink="http://www.w3.org/1999/xlink" width="514.285714pt" height="171.428571pt" viewBox="0 0 514.285714 171.428571" xmlns="http://www.w3.org/2000/svg" version="1.1">
 <metadata>
  <rdf:RDF xmlns:dc="http://purl.org/dc/elements/1.1/" xmlns:cc="http://creativecommons.org/ns#" xmlns:rdf="http://www.w3.org/1999/02/22-rdf-syntax-ns#">
   <cc:Work>
    <dc:type rdf:resource="http://purl.org/dc/dcmitype/StillImage"/>
    <dc:date>2025-04-11T14:35:00.695702</dc:date>
    <dc:format>image/svg+xml</dc:format>
    <dc:creator>
     <cc:Agent>
      <dc:title>Matplotlib v3.8.3, https://matplotlib.org/</dc:title>
     </cc:Agent>
    </dc:creator>
   </cc:Work>
  </rdf:RDF>
 </metadata>
 <defs>
  <style type="text/css">*{stroke-linejoin: round; stroke-linecap: butt}</style>
 </defs>
 <g id="figure_1">
  <g id="patch_1">
   <path d="M 0 171.428571 
L 514.285714 171.428571 
L 514.285714 0 
L 0 0 
z
" style="fill: #ffffff"/>
  </g>
  <g id="axes_1">
   <g id="patch_2">
    <path d="M 71.489572 126.492571 
L 196.73942 126.492571 
L 196.73942 12.96 
L 71.489572 12.96 
z
" style="fill: #ffffff"/>
   </g>
   <g id="PathCollection_1">
    <defs>
     <path id="C0_0_122b261352" d="M 0 1.936492 
C 0.513564 1.936492 1.006162 1.732451 1.369306 1.369306 
C 1.732451 1.006162 1.936492 0.513564 1.936492 -0 
C 1.936492 -0.513564 1.732451 -1.006162 1.369306 -1.369306 
C 1.006162 -1.732451 0.513564 -1.936492 0 -1.936492 
C -0.513564 -1.936492 -1.006162 -1.732451 -1.369306 -1.369306 
C -1.732451 -1.006162 -1.936492 -0.513564 -1.936492 0 
C -1.936492 0.513564 -1.732451 1.006162 -1.369306 1.369306 
C -1.006162 1.732451 -0.513564 1.936492 0 1.936492 
z
"/>
    </defs>
    <g clip-path="url(#pd9cbe6bbb2)">
     <use xlink:href="#C0_0_122b261352" x="176.603196" y="53.624875" style="fill: #e69f00; stroke: #000000; stroke-width: 0.309839"/>
    </g>
    <g clip-path="url(#pd9cbe6bbb2)">
     <use xlink:href="#C0_0_122b261352" x="156.340328" y="51.274305" style="fill: #e69f00; stroke: #000000; stroke-width: 0.309839"/>
    </g>
    <g clip-path="url(#pd9cbe6bbb2)">
     <use xlink:href="#C0_0_122b261352" x="171.537479" y="56.75897" style="fill: #e69f00; stroke: #000000; stroke-width: 0.309839"/>
    </g>
    <g clip-path="url(#pd9cbe6bbb2)">
     <use xlink:href="#C0_0_122b261352" x="146.208895" y="56.75897" style="fill: #e69f00; stroke: #000000; stroke-width: 0.309839"/>
    </g>
    <g clip-path="url(#pd9cbe6bbb2)">
     <use xlink:href="#C0_0_122b261352" x="137.34389" y="68.511824" style="fill: #cc79a7; stroke: #000000; stroke-width: 0.309839"/>
    </g>
    <g clip-path="url(#pd9cbe6bbb2)">
     <use xlink:href="#C0_0_122b261352" x="174.070337" y="45.006116" style="fill: #e69f00; stroke: #000000; stroke-width: 0.309839"/>
    </g>
    <g clip-path="url(#pd9cbe6bbb2)">
     <use xlink:href="#C0_0_122b261352" x="139.876749" y="52.841352" style="fill: #e69f00; stroke: #000000; stroke-width: 0.309839"/>
    </g>
    <g clip-path="url(#pd9cbe6bbb2)">
     <use xlink:href="#C0_0_122b261352" x="117.081023" y="93.58458" style="fill: #cc79a7; stroke: #000000; stroke-width: 0.309839"/>
    </g>
    <g clip-path="url(#pd9cbe6bbb2)">
     <use xlink:href="#C0_0_122b261352" x="155.073899" y="61.460112" style="fill: #e69f00; stroke: #000000; stroke-width: 0.309839"/>
    </g>
    <g clip-path="url(#pd9cbe6bbb2)">
     <use xlink:href="#C0_0_122b261352" x="134.811032" y="81.048202" style="fill: #cc79a7; stroke: #000000; stroke-width: 0.309839"/>
    </g>
    <g clip-path="url(#pd9cbe6bbb2)">
     <use xlink:href="#C0_0_122b261352" x="166.471762" y="81.048202" style="fill: #cc79a7; stroke: #000000; stroke-width: 0.309839"/>
    </g>
    <g clip-path="url(#pd9cbe6bbb2)">
     <use xlink:href="#C0_0_122b261352" x="177.869625" y="54.408399" style="fill: #e69f00; stroke: #000000; stroke-width: 0.309839"/>
    </g>
    <g clip-path="url(#pd9cbe6bbb2)">
     <use xlink:href="#C0_0_122b261352" x="142.409607" y="49.707257" style="fill: #e69f00; stroke: #000000; stroke-width: 0.309839"/>
    </g>
    <g clip-path="url(#pd9cbe6bbb2)">
     <use xlink:href="#C0_0_122b261352" x="167.738191" y="59.109541" style="fill: #e69f00; stroke: #000000; stroke-width: 0.309839"/>
    </g>
    <g clip-path="url(#pd9cbe6bbb2)">
     <use xlink:href="#C0_0_122b261352" x="131.011744" y="79.481155" style="fill: #cc79a7; stroke: #000000; stroke-width: 0.309839"/>
    </g>
    <g clip-path="url(#pd9cbe6bbb2)">
     <use xlink:href="#C0_0_122b261352" x="136.077461" y="88.883438" style="fill: #cc79a7; stroke: #000000; stroke-width: 0.309839"/>
    </g>
    <g clip-path="url(#pd9cbe6bbb2)">
     <use xlink:href="#C0_0_122b261352" x="171.537479" y="38.737927" style="fill: #e69f00; stroke: #000000; stroke-width: 0.309839"/>
    </g>
    <g clip-path="url(#pd9cbe6bbb2)">
     <use xlink:href="#C0_0_122b261352" x="146.208895" y="79.481155" style="fill: #cc79a7; stroke: #000000; stroke-width: 0.309839"/>
    </g>
    <g clip-path="url(#pd9cbe6bbb2)">
     <use xlink:href="#C0_0_122b261352" x="153.80747" y="50.490781" style="fill: #e69f00; stroke: #000000; stroke-width: 0.309839"/>
    </g>
    <g clip-path="url(#pd9cbe6bbb2)">
     <use xlink:href="#C0_0_122b261352" x="169.00462" y="82.615249" style="fill: #cc79a7; stroke: #000000; stroke-width: 0.309839"/>
    </g>
    <g clip-path="url(#pd9cbe6bbb2)">
     <use xlink:href="#C0_0_122b261352" x="150.008182" y="41.088498" style="fill: #e69f00; stroke: #000000; stroke-width: 0.309839"/>
    </g>
    <g clip-path="url(#pd9cbe6bbb2)">
     <use xlink:href="#C0_0_122b261352" x="160.139616" y="52.841352" style="fill: #e69f00; stroke: #000000; stroke-width: 0.309839"/>
    </g>
    <g clip-path="url(#pd9cbe6bbb2)">
     <use xlink:href="#C0_0_122b261352" x="176.603196" y="38.737927" style="fill: #e69f00; stroke: #000000; stroke-width: 0.309839"/>
    </g>
    <g clip-path="url(#pd9cbe6bbb2)">
     <use xlink:href="#C0_0_122b261352" x="153.80747" y="53.624875" style="fill: #e69f00; stroke: #000000; stroke-width: 0.309839"/>
    </g>
    <g clip-path="url(#pd9cbe6bbb2)">
     <use xlink:href="#C0_0_122b261352" x="142.409607" y="55.975446" style="fill: #e69f00; stroke: #000000; stroke-width: 0.309839"/>
    </g>
    <g clip-path="url(#pd9cbe6bbb2)">
     <use xlink:href="#C0_0_122b261352" x="129.745315" y="84.182296" style="fill: #cc79a7; stroke: #000000; stroke-width: 0.309839"/>
    </g>
    <g clip-path="url(#pd9cbe6bbb2)">
     <use xlink:href="#C0_0_122b261352" x="134.811032" y="84.182296" style="fill: #cc79a7; stroke: #000000; stroke-width: 0.309839"/>
    </g>
    <g clip-path="url(#pd9cbe6bbb2)">
     <use xlink:href="#C0_0_122b261352" x="150.008182" y="39.52145" style="fill: #e69f00; stroke: #000000; stroke-width: 0.309839"/>
    </g>
    <g clip-path="url(#pd9cbe6bbb2)">
     <use xlink:href="#C0_0_122b261352" x="153.80747" y="79.481155" style="fill: #cc79a7; stroke: #000000; stroke-width: 0.309839"/>
    </g>
    <g clip-path="url(#pd9cbe6bbb2)">
     <use xlink:href="#C0_0_122b261352" x="170.27105" y="76.34706" style="fill: #cc79a7; stroke: #000000; stroke-width: 0.309839"/>
    </g>
    <g clip-path="url(#pd9cbe6bbb2)">
     <use xlink:href="#C0_0_122b261352" x="142.409607" y="69.295348" style="fill: #cc79a7; stroke: #000000; stroke-width: 0.309839"/>
    </g>
    <g clip-path="url(#pd9cbe6bbb2)">
     <use xlink:href="#C0_0_122b261352" x="153.80747" y="76.34706" style="fill: #cc79a7; stroke: #000000; stroke-width: 0.309839"/>
    </g>
    <g clip-path="url(#pd9cbe6bbb2)">
     <use xlink:href="#C0_0_122b261352" x="128.478886" y="81.831726" style="fill: #cc79a7; stroke: #000000; stroke-width: 0.309839"/>
    </g>
    <g clip-path="url(#pd9cbe6bbb2)">
     <use xlink:href="#C0_0_122b261352" x="156.340328" y="53.624875" style="fill: #e69f00; stroke: #000000; stroke-width: 0.309839"/>
    </g>
    <g clip-path="url(#pd9cbe6bbb2)">
     <use xlink:href="#C0_0_122b261352" x="157.606758" y="52.841352" style="fill: #e69f00; stroke: #000000; stroke-width: 0.309839"/>
    </g>
    <g clip-path="url(#pd9cbe6bbb2)">
     <use xlink:href="#C0_0_122b261352" x="180.402483" y="55.975446" style="fill: #e69f00; stroke: #000000; stroke-width: 0.309839"/>
    </g>
    <g clip-path="url(#pd9cbe6bbb2)">
     <use xlink:href="#C0_0_122b261352" x="157.606758" y="69.295348" style="fill: #cc79a7; stroke: #000000; stroke-width: 0.309839"/>
    </g>
   </g>
   <g id="matplotlib.axis_1">
    <g id="xtick_1">
     <g id="line2d_1">
      <defs>
       <path id="mc97fb6324f" d="M 0 0 
L 0 3.5 
" style="stroke: #000000; stroke-width: 0.8"/>
      </defs>
      <g>
       <use xlink:href="#mc97fb6324f" x="71.489572" y="126.492571" style="stroke: #000000; stroke-width: 0.8"/>
      </g>
     </g>
     <g id="text_1">
      <!-- 0 -->
      <g transform="translate(68.448322 141.654446) scale(0.12 -0.12)">
       <defs>
        <path id="Calibri-30" d="M 3022 2031 
Q 3022 1566 2948 1181 
Q 2875 797 2704 520 
Q 2534 244 2259 92 
Q 1984 -59 1581 -59 
Q 1200 -59 939 77 
Q 678 213 518 477 
Q 359 741 292 1127 
Q 225 1513 225 2013 
Q 225 2475 300 2861 
Q 375 3247 544 3523 
Q 713 3800 988 3951 
Q 1263 4103 1663 4103 
Q 2047 4103 2308 3967 
Q 2569 3831 2728 3567 
Q 2888 3303 2955 2917 
Q 3022 2531 3022 2031 
z
M 2472 1994 
Q 2472 2297 2450 2537 
Q 2428 2778 2386 2962 
Q 2344 3147 2276 3280 
Q 2209 3413 2115 3498 
Q 2022 3584 1901 3623 
Q 1781 3663 1631 3663 
Q 1366 3663 1200 3538 
Q 1034 3413 939 3194 
Q 844 2975 809 2681 
Q 775 2388 775 2050 
Q 775 1597 822 1280 
Q 869 963 970 763 
Q 1072 563 1230 472 
Q 1388 381 1613 381 
Q 1788 381 1920 437 
Q 2053 494 2148 598 
Q 2244 703 2306 850 
Q 2369 997 2406 1175 
Q 2444 1353 2458 1561 
Q 2472 1769 2472 1994 
z
" transform="scale(0.015625)"/>
       </defs>
       <use xlink:href="#Calibri-30"/>
      </g>
     </g>
    </g>
    <g id="xtick_2">
     <g id="line2d_2">
      <g>
       <use xlink:href="#mc97fb6324f" x="98.7178" y="126.492571" style="stroke: #000000; stroke-width: 0.8"/>
      </g>
     </g>
     <g id="text_2">
      <!-- 21 -->
      <g transform="translate(92.6353 141.654446) scale(0.12 -0.12)">
       <defs>
        <path id="Calibri-32" d="M 2888 231 
Q 2888 175 2880 131 
Q 2872 88 2858 58 
Q 2844 28 2820 14 
Q 2797 0 2769 0 
L 534 0 
Q 491 0 458 11 
Q 425 22 401 47 
Q 378 72 367 119 
Q 356 166 356 234 
Q 356 297 361 344 
Q 366 391 381 427 
Q 397 463 420 498 
Q 444 534 481 575 
L 1266 1406 
Q 1538 1694 1702 1922 
Q 1866 2150 1955 2337 
Q 2044 2525 2072 2678 
Q 2100 2831 2100 2966 
Q 2100 3100 2056 3220 
Q 2013 3341 1930 3431 
Q 1847 3522 1722 3575 
Q 1597 3628 1434 3628 
Q 1244 3628 1092 3575 
Q 941 3522 827 3459 
Q 713 3397 636 3344 
Q 559 3291 522 3291 
Q 500 3291 483 3303 
Q 466 3316 455 3344 
Q 444 3372 437 3419 
Q 431 3466 431 3531 
Q 431 3578 434 3612 
Q 438 3647 445 3672 
Q 453 3697 465 3719 
Q 478 3741 515 3773 
Q 553 3806 645 3862 
Q 738 3919 877 3973 
Q 1016 4028 1183 4065 
Q 1350 4103 1534 4103 
Q 1828 4103 2048 4020 
Q 2269 3938 2414 3794 
Q 2559 3650 2631 3459 
Q 2703 3269 2703 3053 
Q 2703 2859 2668 2667 
Q 2634 2475 2523 2251 
Q 2413 2028 2203 1754 
Q 1994 1481 1647 1125 
L 1006 456 
L 2766 456 
Q 2791 456 2814 442 
Q 2838 428 2855 400 
Q 2872 372 2880 330 
Q 2888 288 2888 231 
z
" transform="scale(0.015625)"/>
        <path id="Calibri-31" d="M 2897 213 
Q 2897 153 2887 112 
Q 2878 72 2862 47 
Q 2847 22 2826 11 
Q 2806 0 2784 0 
L 672 0 
Q 650 0 631 11 
Q 613 22 595 47 
Q 578 72 568 112 
Q 559 153 559 213 
Q 559 269 568 309 
Q 578 350 592 376 
Q 606 403 626 417 
Q 647 431 672 431 
L 1516 431 
L 1516 3506 
L 734 3041 
Q 675 3009 639 3003 
Q 603 2997 581 3017 
Q 559 3038 551 3084 
Q 544 3131 544 3203 
Q 544 3256 548 3293 
Q 553 3331 562 3356 
Q 572 3381 589 3400 
Q 606 3419 634 3438 
L 1566 4034 
Q 1578 4044 1597 4050 
Q 1616 4056 1644 4062 
Q 1672 4069 1709 4070 
Q 1747 4072 1803 4072 
Q 1878 4072 1928 4065 
Q 1978 4059 2006 4048 
Q 2034 4038 2043 4020 
Q 2053 4003 2053 3984 
L 2053 431 
L 2784 431 
Q 2809 431 2831 417 
Q 2853 403 2867 376 
Q 2881 350 2889 309 
Q 2897 269 2897 213 
z
" transform="scale(0.015625)"/>
       </defs>
       <use xlink:href="#Calibri-32"/>
       <use xlink:href="#Calibri-31" x="50.683594"/>
      </g>
     </g>
    </g>
    <g id="xtick_3">
     <g id="line2d_3">
      <g>
       <use xlink:href="#mc97fb6324f" x="125.946028" y="126.492571" style="stroke: #000000; stroke-width: 0.8"/>
      </g>
     </g>
     <g id="text_3">
      <!-- 43 -->
      <g transform="translate(119.863528 141.654446) scale(0.12 -0.12)">
       <defs>
        <path id="Calibri-34" d="M 3059 1150 
Q 3059 1047 3028 987 
Q 2997 928 2941 928 
L 2484 928 
L 2484 78 
Q 2484 53 2471 36 
Q 2459 19 2428 6 
Q 2397 -6 2347 -12 
Q 2297 -19 2219 -19 
Q 2144 -19 2094 -12 
Q 2044 -6 2014 6 
Q 1984 19 1973 36 
Q 1963 53 1963 78 
L 1963 928 
L 294 928 
Q 256 928 231 937 
Q 206 947 186 972 
Q 166 997 158 1044 
Q 150 1091 150 1166 
Q 150 1225 153 1272 
Q 156 1319 165 1358 
Q 175 1397 190 1433 
Q 206 1469 228 1509 
L 1684 3966 
Q 1700 3991 1729 4009 
Q 1759 4028 1806 4040 
Q 1853 4053 1922 4058 
Q 1991 4063 2084 4063 
Q 2188 4063 2264 4055 
Q 2341 4047 2387 4034 
Q 2434 4022 2459 4001 
Q 2484 3981 2484 3953 
L 2484 1372 
L 2941 1372 
Q 2994 1372 3026 1317 
Q 3059 1263 3059 1150 
z
M 1963 3591 
L 1956 3591 
L 641 1372 
L 1963 1372 
L 1963 3591 
z
" transform="scale(0.015625)"/>
        <path id="Calibri-33" d="M 2856 1156 
Q 2856 878 2759 654 
Q 2663 431 2481 272 
Q 2300 113 2034 27 
Q 1769 -59 1434 -59 
Q 1231 -59 1054 -26 
Q 878 6 740 51 
Q 603 97 512 145 
Q 422 194 398 216 
Q 375 238 362 259 
Q 350 281 340 312 
Q 331 344 326 389 
Q 322 434 322 500 
Q 322 613 344 656 
Q 366 700 406 700 
Q 434 700 517 650 
Q 600 600 729 542 
Q 859 484 1032 434 
Q 1206 384 1419 384 
Q 1625 384 1781 437 
Q 1938 491 2044 587 
Q 2150 684 2203 817 
Q 2256 950 2256 1106 
Q 2256 1278 2189 1415 
Q 2122 1553 1992 1653 
Q 1863 1753 1673 1806 
Q 1484 1859 1244 1859 
L 859 1859 
Q 834 1859 811 1870 
Q 788 1881 770 1906 
Q 753 1931 742 1972 
Q 731 2013 731 2078 
Q 731 2138 740 2177 
Q 750 2216 767 2239 
Q 784 2263 806 2273 
Q 828 2284 856 2284 
L 1209 2284 
Q 1416 2284 1580 2337 
Q 1744 2391 1858 2491 
Q 1972 2591 2033 2730 
Q 2094 2869 2094 3041 
Q 2094 3166 2053 3280 
Q 2013 3394 1931 3478 
Q 1850 3563 1723 3611 
Q 1597 3659 1431 3659 
Q 1250 3659 1098 3604 
Q 947 3550 828 3487 
Q 709 3425 631 3370 
Q 553 3316 522 3316 
Q 500 3316 483 3323 
Q 466 3331 455 3354 
Q 444 3378 439 3420 
Q 434 3463 434 3531 
Q 434 3578 437 3614 
Q 441 3650 450 3676 
Q 459 3703 471 3725 
Q 484 3747 514 3776 
Q 544 3806 634 3862 
Q 725 3919 858 3973 
Q 991 4028 1164 4065 
Q 1338 4103 1538 4103 
Q 1819 4103 2031 4031 
Q 2244 3959 2386 3828 
Q 2528 3697 2598 3514 
Q 2669 3331 2669 3109 
Q 2669 2919 2619 2755 
Q 2569 2591 2472 2464 
Q 2375 2338 2234 2248 
Q 2094 2159 1909 2125 
L 1909 2119 
Q 2119 2097 2292 2014 
Q 2466 1931 2591 1806 
Q 2716 1681 2786 1514 
Q 2856 1347 2856 1156 
z
" transform="scale(0.015625)"/>
       </defs>
       <use xlink:href="#Calibri-34"/>
       <use xlink:href="#Calibri-33" x="50.683594"/>
      </g>
     </g>
    </g>
    <g id="xtick_4">
     <g id="line2d_4">
      <g>
       <use xlink:href="#mc97fb6324f" x="153.174255" y="126.492571" style="stroke: #000000; stroke-width: 0.8"/>
      </g>
     </g>
     <g id="text_4">
      <!-- 64 -->
      <g transform="translate(147.091755 141.654446) scale(0.12 -0.12)">
       <defs>
        <path id="Calibri-36" d="M 2991 1309 
Q 2991 1044 2909 795 
Q 2828 547 2659 358 
Q 2491 169 2231 55 
Q 1972 -59 1619 -59 
Q 1366 -59 1172 3 
Q 978 66 834 181 
Q 691 297 595 465 
Q 500 634 442 850 
Q 384 1066 359 1322 
Q 334 1578 334 1872 
Q 334 2131 362 2397 
Q 391 2663 462 2909 
Q 534 3156 657 3373 
Q 781 3591 967 3752 
Q 1153 3913 1412 4006 
Q 1672 4100 2016 4100 
Q 2131 4100 2250 4086 
Q 2369 4072 2469 4048 
Q 2569 4025 2637 3997 
Q 2706 3969 2728 3951 
Q 2750 3934 2761 3914 
Q 2772 3894 2778 3870 
Q 2784 3847 2787 3817 
Q 2791 3788 2791 3744 
Q 2791 3688 2789 3647 
Q 2788 3606 2777 3581 
Q 2766 3556 2748 3543 
Q 2731 3531 2703 3531 
Q 2669 3531 2609 3553 
Q 2550 3575 2465 3601 
Q 2381 3628 2261 3650 
Q 2141 3672 1981 3672 
Q 1691 3672 1481 3553 
Q 1272 3434 1139 3234 
Q 1006 3034 942 2770 
Q 878 2506 869 2219 
Q 950 2266 1051 2312 
Q 1153 2359 1273 2396 
Q 1394 2434 1528 2457 
Q 1663 2481 1816 2481 
Q 2144 2481 2369 2392 
Q 2594 2303 2733 2145 
Q 2872 1988 2931 1773 
Q 2991 1559 2991 1309 
z
M 2447 1259 
Q 2447 1441 2411 1589 
Q 2375 1738 2290 1841 
Q 2206 1944 2065 2000 
Q 1925 2056 1719 2056 
Q 1603 2056 1487 2036 
Q 1372 2016 1264 1980 
Q 1156 1944 1057 1895 
Q 959 1847 878 1791 
Q 878 1388 929 1116 
Q 981 844 1079 680 
Q 1178 516 1325 445 
Q 1472 375 1669 375 
Q 1869 375 2016 450 
Q 2163 525 2259 651 
Q 2356 778 2401 936 
Q 2447 1094 2447 1259 
z
" transform="scale(0.015625)"/>
       </defs>
       <use xlink:href="#Calibri-36"/>
       <use xlink:href="#Calibri-34" x="50.683594"/>
      </g>
     </g>
    </g>
    <g id="xtick_5">
     <g id="line2d_5">
      <g>
       <use xlink:href="#mc97fb6324f" x="180.402483" y="126.492571" style="stroke: #000000; stroke-width: 0.8"/>
      </g>
     </g>
     <g id="text_5">
      <!--      86$_{max}$ -->
      <g transform="translate(158.142483 141.628196) scale(0.12 -0.12)">
       <defs>
        <path id="Calibri-20" transform="scale(0.015625)"/>
        <path id="Calibri-38" d="M 2981 1038 
Q 2981 775 2887 570 
Q 2794 366 2617 225 
Q 2441 84 2181 12 
Q 1922 -59 1588 -59 
Q 1275 -59 1028 6 
Q 781 72 609 200 
Q 438 328 347 515 
Q 256 703 256 944 
Q 256 1134 318 1293 
Q 381 1453 498 1587 
Q 616 1722 787 1839 
Q 959 1956 1175 2063 
Q 988 2159 844 2267 
Q 700 2375 600 2501 
Q 500 2628 448 2772 
Q 397 2916 397 3084 
Q 397 3297 473 3483 
Q 550 3669 704 3806 
Q 859 3944 1098 4023 
Q 1338 4103 1656 4103 
Q 1963 4103 2186 4029 
Q 2409 3956 2554 3829 
Q 2700 3703 2769 3531 
Q 2838 3359 2838 3163 
Q 2838 3003 2786 2856 
Q 2734 2709 2634 2578 
Q 2534 2447 2389 2333 
Q 2244 2219 2056 2119 
Q 2278 2009 2451 1893 
Q 2625 1778 2742 1645 
Q 2859 1513 2920 1364 
Q 2981 1216 2981 1038 
z
M 2306 3113 
Q 2306 3244 2261 3350 
Q 2216 3456 2128 3531 
Q 2041 3606 1911 3645 
Q 1781 3684 1616 3684 
Q 1278 3684 1104 3531 
Q 931 3378 931 3113 
Q 931 2991 973 2886 
Q 1016 2781 1105 2687 
Q 1194 2594 1330 2505 
Q 1466 2416 1653 2319 
Q 1969 2481 2137 2678 
Q 2306 2875 2306 3113 
z
M 2438 981 
Q 2438 1125 2384 1242 
Q 2331 1359 2223 1461 
Q 2116 1563 1955 1658 
Q 1794 1753 1581 1856 
Q 1384 1759 1236 1662 
Q 1088 1566 992 1462 
Q 897 1359 848 1245 
Q 800 1131 800 994 
Q 800 691 1008 525 
Q 1216 359 1628 359 
Q 2028 359 2233 526 
Q 2438 694 2438 981 
z
" transform="scale(0.015625)"/>
        <path id="DejaVuSans-Oblique-6d" d="M 5747 2113 
L 5338 0 
L 4763 0 
L 5166 2094 
Q 5191 2228 5203 2325 
Q 5216 2422 5216 2491 
Q 5216 2772 5059 2928 
Q 4903 3084 4622 3084 
Q 4203 3084 3875 2770 
Q 3547 2456 3450 1953 
L 3066 0 
L 2491 0 
L 2900 2094 
Q 2925 2209 2937 2307 
Q 2950 2406 2950 2484 
Q 2950 2769 2794 2926 
Q 2638 3084 2363 3084 
Q 1938 3084 1609 2770 
Q 1281 2456 1184 1953 
L 800 0 
L 225 0 
L 909 3500 
L 1484 3500 
L 1375 2956 
Q 1609 3263 1923 3423 
Q 2238 3584 2597 3584 
Q 2978 3584 3223 3384 
Q 3469 3184 3519 2828 
Q 3781 3197 4126 3390 
Q 4472 3584 4856 3584 
Q 5306 3584 5551 3325 
Q 5797 3066 5797 2591 
Q 5797 2488 5784 2364 
Q 5772 2241 5747 2113 
z
" transform="scale(0.015625)"/>
        <path id="DejaVuSans-Oblique-61" d="M 3438 1997 
L 3047 0 
L 2472 0 
L 2578 531 
Q 2325 219 2001 64 
Q 1678 -91 1281 -91 
Q 834 -91 548 182 
Q 263 456 263 884 
Q 263 1497 752 1853 
Q 1241 2209 2100 2209 
L 2900 2209 
L 2931 2363 
Q 2938 2388 2941 2417 
Q 2944 2447 2944 2509 
Q 2944 2788 2717 2942 
Q 2491 3097 2081 3097 
Q 1800 3097 1504 3025 
Q 1209 2953 897 2809 
L 997 3341 
Q 1322 3463 1633 3523 
Q 1944 3584 2234 3584 
Q 2853 3584 3176 3315 
Q 3500 3047 3500 2534 
Q 3500 2431 3484 2292 
Q 3469 2153 3438 1997 
z
M 2816 1759 
L 2241 1759 
Q 1534 1759 1195 1570 
Q 856 1381 856 984 
Q 856 709 1029 553 
Q 1203 397 1509 397 
Q 1978 397 2328 733 
Q 2678 1069 2791 1631 
L 2816 1759 
z
" transform="scale(0.015625)"/>
        <path id="DejaVuSans-Oblique-78" d="M 3841 3500 
L 2234 1784 
L 3219 0 
L 2559 0 
L 1819 1388 
L 531 0 
L -166 0 
L 1556 1844 
L 641 3500 
L 1300 3500 
L 1972 2234 
L 3144 3500 
L 3841 3500 
z
" transform="scale(0.015625)"/>
       </defs>
       <use xlink:href="#Calibri-20" transform="translate(0 0.890625)"/>
       <use xlink:href="#Calibri-20" transform="translate(22.607422 0.890625)"/>
       <use xlink:href="#Calibri-20" transform="translate(45.214844 0.890625)"/>
       <use xlink:href="#Calibri-20" transform="translate(67.822266 0.890625)"/>
       <use xlink:href="#Calibri-20" transform="translate(90.429688 0.890625)"/>
       <use xlink:href="#Calibri-38" transform="translate(113.037109 0.890625)"/>
       <use xlink:href="#Calibri-36" transform="translate(163.720703 0.890625)"/>
       <use xlink:href="#DejaVuSans-Oblique-6d" transform="translate(215.361328 -15.515625) scale(0.7)"/>
       <use xlink:href="#DejaVuSans-Oblique-61" transform="translate(283.549805 -15.515625) scale(0.7)"/>
       <use xlink:href="#DejaVuSans-Oblique-78" transform="translate(326.445312 -15.515625) scale(0.7)"/>
      </g>
     </g>
    </g>
    <g id="text_6">
     <!-- FM-LE -->
     <g transform="translate(118.938246 155.950071) scale(0.12 -0.12)">
      <defs>
       <path id="Calibri-46" d="M 2663 3813 
Q 2663 3753 2656 3709 
Q 2650 3666 2634 3639 
Q 2619 3613 2598 3600 
Q 2578 3588 2556 3588 
L 1075 3588 
L 1075 2213 
L 2475 2213 
Q 2497 2213 2517 2202 
Q 2538 2191 2553 2166 
Q 2569 2141 2575 2098 
Q 2581 2056 2581 1991 
Q 2581 1931 2575 1889 
Q 2569 1847 2553 1820 
Q 2538 1794 2517 1780 
Q 2497 1766 2475 1766 
L 1075 1766 
L 1075 81 
Q 1075 59 1062 39 
Q 1050 19 1019 8 
Q 988 -3 938 -11 
Q 888 -19 806 -19 
Q 731 -19 678 -11 
Q 625 -3 594 8 
Q 563 19 550 39 
Q 538 59 538 81 
L 538 3825 
Q 538 3947 602 3995 
Q 666 4044 738 4044 
L 2556 4044 
Q 2578 4044 2598 4031 
Q 2619 4019 2634 3991 
Q 2650 3963 2656 3917 
Q 2663 3872 2663 3813 
z
" transform="scale(0.015625)"/>
       <path id="Calibri-4d" d="M 4934 81 
Q 4934 56 4921 37 
Q 4909 19 4878 8 
Q 4847 -3 4798 -11 
Q 4750 -19 4672 -19 
Q 4600 -19 4548 -11 
Q 4497 -3 4467 8 
Q 4438 19 4425 37 
Q 4413 56 4413 81 
L 4413 3603 
L 4406 3603 
L 2966 66 
Q 2956 44 2939 28 
Q 2922 13 2889 2 
Q 2856 -9 2811 -14 
Q 2766 -19 2703 -19 
Q 2638 -19 2591 -12 
Q 2544 -6 2512 5 
Q 2481 16 2464 31 
Q 2447 47 2441 66 
L 1063 3603 
L 1059 3603 
L 1059 81 
Q 1059 56 1046 37 
Q 1034 19 1003 8 
Q 972 -3 922 -11 
Q 872 -19 794 -19 
Q 719 -19 669 -11 
Q 619 -3 589 8 
Q 559 19 548 37 
Q 538 56 538 81 
L 538 3800 
Q 538 3931 606 3987 
Q 675 4044 759 4044 
L 1084 4044 
Q 1184 4044 1259 4025 
Q 1334 4006 1390 3965 
Q 1447 3925 1484 3862 
Q 1522 3800 1550 3716 
L 2722 788 
L 2738 788 
L 3956 3706 
Q 3991 3800 4031 3865 
Q 4072 3931 4120 3970 
Q 4169 4009 4228 4026 
Q 4288 4044 4366 4044 
L 4706 4044 
Q 4753 4044 4795 4030 
Q 4838 4016 4867 3986 
Q 4897 3956 4915 3911 
Q 4934 3866 4934 3800 
L 4934 81 
z
" transform="scale(0.015625)"/>
       <path id="Calibri-2d" d="M 1744 1578 
Q 1744 1456 1716 1409 
Q 1688 1363 1634 1363 
L 328 1363 
Q 272 1363 244 1411 
Q 216 1459 216 1578 
Q 216 1697 244 1744 
Q 272 1791 328 1791 
L 1634 1791 
Q 1659 1791 1679 1781 
Q 1700 1772 1714 1745 
Q 1728 1719 1736 1678 
Q 1744 1638 1744 1578 
z
" transform="scale(0.015625)"/>
       <path id="Calibri-4c" d="M 2634 234 
Q 2634 172 2628 130 
Q 2622 88 2608 58 
Q 2594 28 2573 14 
Q 2553 0 2525 0 
L 738 0 
Q 666 0 602 48 
Q 538 97 538 219 
L 538 3963 
Q 538 3988 550 4006 
Q 563 4025 594 4036 
Q 625 4047 678 4055 
Q 731 4063 806 4063 
Q 884 4063 936 4055 
Q 988 4047 1019 4036 
Q 1050 4025 1062 4006 
Q 1075 3988 1075 3963 
L 1075 466 
L 2525 466 
Q 2553 466 2573 452 
Q 2594 438 2608 411 
Q 2622 384 2628 340 
Q 2634 297 2634 234 
z
" transform="scale(0.015625)"/>
       <path id="Calibri-45" d="M 2788 222 
Q 2788 166 2781 123 
Q 2775 81 2759 53 
Q 2744 25 2723 12 
Q 2703 0 2678 0 
L 738 0 
Q 666 0 602 48 
Q 538 97 538 219 
L 538 3825 
Q 538 3947 602 3995 
Q 666 4044 738 4044 
L 2656 4044 
Q 2681 4044 2701 4031 
Q 2722 4019 2734 3991 
Q 2747 3963 2755 3920 
Q 2763 3878 2763 3816 
Q 2763 3759 2755 3717 
Q 2747 3675 2734 3648 
Q 2722 3622 2701 3609 
Q 2681 3597 2656 3597 
L 1075 3597 
L 1075 2328 
L 2431 2328 
Q 2456 2328 2476 2314 
Q 2497 2300 2511 2275 
Q 2525 2250 2531 2206 
Q 2538 2163 2538 2103 
Q 2538 2047 2531 2006 
Q 2525 1966 2511 1941 
Q 2497 1916 2476 1905 
Q 2456 1894 2431 1894 
L 1075 1894 
L 1075 447 
L 2678 447 
Q 2703 447 2723 434 
Q 2744 422 2759 395 
Q 2775 369 2781 326 
Q 2788 284 2788 222 
z
" transform="scale(0.015625)"/>
      </defs>
      <use xlink:href="#Calibri-46"/>
      <use xlink:href="#Calibri-4d" x="45.947266"/>
      <use xlink:href="#Calibri-2d" x="131.445312"/>
      <use xlink:href="#Calibri-4c" x="162.060547"/>
      <use xlink:href="#Calibri-45" x="204.101562"/>
     </g>
    </g>
   </g>
   <g id="matplotlib.axis_2">
    <g id="ytick_1">
     <g id="line2d_6">
      <defs>
       <path id="meebd5784cb" d="M 0 0 
L -3.5 0 
" style="stroke: #000000; stroke-width: 0.8"/>
      </defs>
      <g>
       <use xlink:href="#meebd5784cb" x="71.489572" y="126.492571" style="stroke: #000000; stroke-width: 0.8"/>
      </g>
     </g>
     <g id="text_7">
      <!-- 0 -->
      <g transform="translate(58.407072 130.573509) scale(0.12 -0.12)">
       <use xlink:href="#Calibri-30"/>
      </g>
     </g>
    </g>
    <g id="ytick_2">
     <g id="line2d_7">
      <g>
       <use xlink:href="#meebd5784cb" x="71.489572" y="101.811578" style="stroke: #000000; stroke-width: 0.8"/>
      </g>
     </g>
     <g id="text_8">
      <!-- 31 -->
      <g transform="translate(52.324572 105.892515) scale(0.12 -0.12)">
       <use xlink:href="#Calibri-33"/>
       <use xlink:href="#Calibri-31" x="50.683594"/>
      </g>
     </g>
    </g>
    <g id="ytick_3">
     <g id="line2d_8">
      <g>
       <use xlink:href="#meebd5784cb" x="71.489572" y="77.130584" style="stroke: #000000; stroke-width: 0.8"/>
      </g>
     </g>
     <g id="text_9">
      <!-- 63 -->
      <g transform="translate(52.324572 81.211521) scale(0.12 -0.12)">
       <use xlink:href="#Calibri-36"/>
       <use xlink:href="#Calibri-33" x="50.683594"/>
      </g>
     </g>
    </g>
    <g id="ytick_4">
     <g id="line2d_9">
      <g>
       <use xlink:href="#meebd5784cb" x="71.489572" y="52.44959" style="stroke: #000000; stroke-width: 0.8"/>
      </g>
     </g>
     <g id="text_10">
      <!-- 94 -->
      <g transform="translate(52.324572 56.530528) scale(0.12 -0.12)">
       <defs>
        <path id="Calibri-39" d="M 2919 2181 
Q 2919 1919 2887 1650 
Q 2856 1381 2781 1132 
Q 2706 884 2579 667 
Q 2453 450 2261 287 
Q 2069 125 1805 33 
Q 1541 -59 1191 -59 
Q 1056 -59 929 -42 
Q 803 -25 701 0 
Q 600 25 531 53 
Q 463 81 431 109 
Q 400 138 386 186 
Q 372 234 372 316 
Q 372 384 376 425 
Q 381 466 390 487 
Q 400 509 417 517 
Q 434 525 459 525 
Q 494 525 556 501 
Q 619 478 714 450 
Q 809 422 937 398 
Q 1066 375 1225 375 
Q 1528 375 1745 492 
Q 1963 609 2100 806 
Q 2238 1003 2306 1262 
Q 2375 1522 2381 1809 
Q 2216 1713 1984 1638 
Q 1753 1563 1453 1563 
Q 1116 1563 886 1655 
Q 656 1747 517 1906 
Q 378 2066 317 2284 
Q 256 2503 256 2763 
Q 256 3031 334 3273 
Q 413 3516 578 3700 
Q 744 3884 1000 3993 
Q 1256 4103 1613 4103 
Q 1866 4103 2061 4039 
Q 2256 3975 2400 3854 
Q 2544 3734 2644 3564 
Q 2744 3394 2805 3178 
Q 2866 2963 2892 2711 
Q 2919 2459 2919 2181 
z
M 2372 2241 
Q 2372 2641 2319 2914 
Q 2266 3188 2162 3356 
Q 2059 3525 1909 3600 
Q 1759 3675 1563 3675 
Q 1359 3675 1215 3601 
Q 1072 3528 980 3404 
Q 888 3281 844 3125 
Q 800 2969 800 2803 
Q 800 2619 839 2466 
Q 878 2313 965 2206 
Q 1053 2100 1193 2042 
Q 1334 1984 1541 1984 
Q 1775 1984 1994 2054 
Q 2213 2125 2372 2241 
z
" transform="scale(0.015625)"/>
       </defs>
       <use xlink:href="#Calibri-39"/>
       <use xlink:href="#Calibri-34" x="50.683594"/>
      </g>
     </g>
    </g>
    <g id="ytick_5">
     <g id="line2d_10">
      <g>
       <use xlink:href="#meebd5784cb" x="71.489572" y="27.768596" style="stroke: #000000; stroke-width: 0.8"/>
      </g>
     </g>
     <g id="text_11">
      <!-- 126$_{max}$ -->
      <g transform="translate(27.409572 31.836409) scale(0.12 -0.12)">
       <use xlink:href="#Calibri-31" transform="translate(0 0.890625)"/>
       <use xlink:href="#Calibri-32" transform="translate(50.683594 0.890625)"/>
       <use xlink:href="#Calibri-36" transform="translate(101.367188 0.890625)"/>
       <use xlink:href="#DejaVuSans-Oblique-6d" transform="translate(153.007812 -15.515625) scale(0.7)"/>
       <use xlink:href="#DejaVuSans-Oblique-61" transform="translate(221.196289 -15.515625) scale(0.7)"/>
       <use xlink:href="#DejaVuSans-Oblique-78" transform="translate(264.091797 -15.515625) scale(0.7)"/>
      </g>
     </g>
    </g>
    <g id="text_12">
     <!-- FM-UE -->
     <g transform="translate(21.275822 86.229098) rotate(-90) scale(0.12 -0.12)">
      <defs>
       <path id="Calibri-55" d="M 3578 1494 
Q 3578 1125 3470 836 
Q 3363 547 3163 347 
Q 2963 147 2675 44 
Q 2388 -59 2022 -59 
Q 1688 -59 1413 37 
Q 1138 134 941 323 
Q 744 513 637 797 
Q 531 1081 531 1453 
L 531 3963 
Q 531 3988 543 4006 
Q 556 4025 587 4036 
Q 619 4047 669 4055 
Q 719 4063 800 4063 
Q 875 4063 928 4055 
Q 981 4047 1011 4036 
Q 1041 4025 1053 4006 
Q 1066 3988 1066 3963 
L 1066 1519 
Q 1066 1238 1134 1028 
Q 1203 819 1333 680 
Q 1463 541 1645 470 
Q 1828 400 2056 400 
Q 2291 400 2473 469 
Q 2656 538 2782 675 
Q 2909 813 2976 1016 
Q 3044 1219 3044 1491 
L 3044 3963 
Q 3044 3988 3056 4006 
Q 3069 4025 3100 4036 
Q 3131 4047 3182 4055 
Q 3234 4063 3313 4063 
Q 3388 4063 3439 4055 
Q 3491 4047 3520 4036 
Q 3550 4025 3564 4006 
Q 3578 3988 3578 3963 
L 3578 1494 
z
" transform="scale(0.015625)"/>
      </defs>
      <use xlink:href="#Calibri-46"/>
      <use xlink:href="#Calibri-4d" x="45.947266"/>
      <use xlink:href="#Calibri-2d" x="131.445312"/>
      <use xlink:href="#Calibri-55" x="162.060547"/>
      <use xlink:href="#Calibri-45" x="226.220703"/>
     </g>
    </g>
   </g>
   <g id="line2d_11">
    <path d="M 71.489572 100.112631 
L 72.754722 99.556065 
L 74.019872 98.999499 
L 75.285022 98.442933 
L 76.550172 97.886367 
L 77.815322 97.329801 
L 79.080472 96.773236 
L 80.345622 96.21667 
L 81.610772 95.660104 
L 82.875922 95.103538 
L 84.141072 94.546972 
L 85.406222 93.990406 
L 86.671372 93.433841 
L 87.936522 92.877275 
L 89.201672 92.320709 
L 90.466822 91.764143 
L 91.731972 91.207577 
L 92.997122 90.651011 
L 94.262272 90.094446 
L 95.527421 89.53788 
L 96.792571 88.981314 
L 98.057721 88.424748 
L 99.322871 87.868182 
L 100.588021 87.311616 
L 101.853171 86.75505 
L 103.118321 86.198485 
L 104.383471 85.641919 
L 105.648621 85.085353 
L 106.913771 84.528787 
L 108.178921 83.972221 
L 109.444071 83.415655 
L 110.709221 82.85909 
L 111.974371 82.302524 
L 113.239521 81.745958 
L 114.504671 81.189392 
L 115.769821 80.632826 
L 117.034971 80.07626 
L 118.300121 79.519695 
L 119.565271 78.963129 
L 120.830421 78.406563 
L 122.095571 77.849997 
L 123.360721 77.293431 
L 124.625871 76.736865 
L 125.891021 76.180299 
L 127.156171 75.623734 
L 128.421321 75.067168 
L 129.686471 74.510602 
L 130.951621 73.954036 
L 132.216771 73.39747 
L 133.481921 72.840904 
L 134.747071 72.284339 
L 136.012221 71.727773 
L 137.277371 71.171207 
L 138.542521 70.614641 
L 139.807671 70.058075 
L 141.072821 69.501509 
L 142.337971 68.944944 
L 143.603121 68.388378 
L 144.868271 67.831812 
L 146.133421 67.275246 
L 147.398571 66.71868 
L 148.663721 66.162114 
L 149.928871 65.605548 
L 151.194021 65.048983 
L 152.459171 64.492417 
L 153.724321 63.935851 
L 154.989471 63.379285 
L 156.25462 62.822719 
L 157.51977 62.266153 
L 158.78492 61.709588 
L 160.05007 61.153022 
L 161.31522 60.596456 
L 162.58037 60.03989 
L 163.84552 59.483324 
L 165.11067 58.926758 
L 166.37582 58.370193 
L 167.64097 57.813627 
L 168.90612 57.257061 
L 170.17127 56.700495 
L 171.43642 56.143929 
L 172.70157 55.587363 
L 173.96672 55.030797 
L 175.23187 54.474232 
L 176.49702 53.917666 
L 177.76217 53.3611 
L 179.02732 52.804534 
L 180.29247 52.247968 
L 181.55762 51.691402 
L 182.82277 51.134837 
L 184.08792 50.578271 
L 185.35307 50.021705 
L 186.61822 49.465139 
L 187.88337 48.908573 
L 189.14852 48.352007 
L 190.41367 47.795442 
L 191.67882 47.238876 
L 192.94397 46.68231 
L 194.20912 46.125744 
L 195.47427 45.569178 
L 196.73942 45.012612 
" clip-path="url(#pd9cbe6bbb2)" style="fill: none; stroke: #000000; stroke-width: 1.5; stroke-linecap: square"/>
   </g>
   <g id="line2d_12"/>
   <g id="line2d_13"/>
   <g id="patch_3">
    <path d="M 71.489572 126.492571 
L 71.489572 12.96 
" style="fill: none; stroke: #000000; stroke-width: 0.8; stroke-linejoin: miter; stroke-linecap: square"/>
   </g>
   <g id="patch_4">
    <path d="M 71.489572 126.492571 
L 196.73942 126.492571 
" style="fill: none; stroke: #000000; stroke-width: 0.8; stroke-linejoin: miter; stroke-linecap: square"/>
   </g>
   <g id="legend_1">
    <g id="patch_5">
     <path d="M 119.51317 52.43125 
L 191.13942 52.43125 
Q 192.73942 52.43125 192.73942 50.83125 
L 192.73942 18.56 
Q 192.73942 16.96 191.13942 16.96 
L 119.51317 16.96 
Q 117.91317 16.96 117.91317 18.56 
L 117.91317 50.83125 
Q 117.91317 52.43125 119.51317 52.43125 
z
" style="fill: #ffffff; opacity: 0.8; stroke: #cccccc; stroke-linejoin: miter"/>
    </g>
    <g id="line2d_14">
     <path d="M 121.11317 22.96 
L 129.11317 22.96 
L 137.11317 22.96 
" style="fill: none; stroke: #000000; stroke-width: 1.5; stroke-linecap: square"/>
    </g>
    <g id="text_13">
     <!-- Best Fit (solid) -->
     <g transform="translate(143.51317 25.76) scale(0.08 -0.08)">
      <defs>
       <path id="Calibri-42" d="M 3203 1159 
Q 3203 969 3154 808 
Q 3106 647 3018 519 
Q 2931 391 2807 294 
Q 2684 197 2529 131 
Q 2375 66 2198 33 
Q 2022 0 1794 0 
L 738 0 
Q 666 0 602 48 
Q 538 97 538 219 
L 538 3825 
Q 538 3947 602 3995 
Q 666 4044 738 4044 
L 1656 4044 
Q 2019 4044 2250 3975 
Q 2481 3906 2636 3775 
Q 2791 3644 2869 3453 
Q 2947 3263 2947 3022 
Q 2947 2878 2912 2747 
Q 2878 2616 2811 2505 
Q 2744 2394 2642 2306 
Q 2541 2219 2409 2163 
Q 2575 2131 2719 2048 
Q 2863 1966 2970 1837 
Q 3078 1709 3140 1537 
Q 3203 1366 3203 1159 
z
M 2394 2969 
Q 2394 3116 2353 3234 
Q 2313 3353 2225 3436 
Q 2138 3519 1997 3562 
Q 1856 3606 1625 3606 
L 1069 3606 
L 1069 2297 
L 1681 2297 
Q 1891 2297 2019 2351 
Q 2147 2406 2231 2498 
Q 2316 2591 2355 2714 
Q 2394 2838 2394 2969 
z
M 2638 1128 
Q 2638 1309 2580 1446 
Q 2522 1584 2411 1678 
Q 2300 1772 2133 1820 
Q 1966 1869 1713 1869 
L 1069 1869 
L 1069 444 
L 1850 444 
Q 2034 444 2171 487 
Q 2309 531 2414 617 
Q 2519 703 2578 831 
Q 2638 959 2638 1128 
z
" transform="scale(0.015625)"/>
       <path id="Calibri-65" d="M 2878 1606 
Q 2878 1484 2817 1432 
Q 2756 1381 2678 1381 
L 834 1381 
Q 834 1147 881 959 
Q 928 772 1037 637 
Q 1147 503 1322 431 
Q 1497 359 1750 359 
Q 1950 359 2106 392 
Q 2263 425 2377 465 
Q 2491 506 2564 539 
Q 2638 572 2675 572 
Q 2697 572 2714 561 
Q 2731 550 2740 528 
Q 2750 506 2754 467 
Q 2759 428 2759 372 
Q 2759 331 2756 301 
Q 2753 272 2748 248 
Q 2744 225 2733 206 
Q 2722 188 2705 170 
Q 2688 153 2603 114 
Q 2519 75 2384 37 
Q 2250 0 2073 -29 
Q 1897 -59 1697 -59 
Q 1350 -59 1089 37 
Q 828 134 650 325 
Q 472 516 381 803 
Q 291 1091 291 1472 
Q 291 1834 384 2123 
Q 478 2413 654 2614 
Q 831 2816 1081 2923 
Q 1331 3031 1641 3031 
Q 1972 3031 2205 2925 
Q 2438 2819 2588 2639 
Q 2738 2459 2808 2217 
Q 2878 1975 2878 1700 
L 2878 1606 
z
M 2359 1759 
Q 2369 2166 2180 2397 
Q 1991 2628 1619 2628 
Q 1428 2628 1284 2556 
Q 1141 2484 1044 2365 
Q 947 2247 894 2089 
Q 841 1931 834 1759 
L 2359 1759 
z
" transform="scale(0.015625)"/>
       <path id="Calibri-73" d="M 2244 844 
Q 2244 628 2164 459 
Q 2084 291 1937 175 
Q 1791 59 1587 0 
Q 1384 -59 1141 -59 
Q 991 -59 855 -36 
Q 719 -13 611 23 
Q 503 59 428 98 
Q 353 138 318 169 
Q 284 200 268 256 
Q 253 313 253 409 
Q 253 469 259 509 
Q 266 550 275 575 
Q 284 600 301 611 
Q 319 622 341 622 
Q 375 622 442 580 
Q 509 538 607 488 
Q 706 438 840 395 
Q 975 353 1150 353 
Q 1281 353 1387 381 
Q 1494 409 1572 464 
Q 1650 519 1692 603 
Q 1734 688 1734 803 
Q 1734 922 1673 1003 
Q 1613 1084 1513 1146 
Q 1413 1209 1288 1257 
Q 1163 1306 1030 1359 
Q 897 1413 770 1480 
Q 644 1547 544 1644 
Q 444 1741 383 1875 
Q 322 2009 322 2197 
Q 322 2363 386 2514 
Q 450 2666 578 2780 
Q 706 2894 898 2962 
Q 1091 3031 1347 3031 
Q 1459 3031 1571 3012 
Q 1684 2994 1775 2966 
Q 1866 2938 1930 2905 
Q 1994 2872 2026 2847 
Q 2059 2822 2070 2803 
Q 2081 2784 2086 2761 
Q 2091 2738 2095 2703 
Q 2100 2669 2100 2619 
Q 2100 2566 2095 2527 
Q 2091 2488 2080 2463 
Q 2069 2438 2053 2427 
Q 2038 2416 2019 2416 
Q 1991 2416 1937 2450 
Q 1884 2484 1800 2523 
Q 1716 2563 1602 2597 
Q 1488 2631 1341 2631 
Q 1209 2631 1109 2601 
Q 1009 2572 945 2517 
Q 881 2463 848 2388 
Q 816 2313 816 2225 
Q 816 2103 878 2020 
Q 941 1938 1041 1875 
Q 1141 1813 1269 1763 
Q 1397 1713 1530 1659 
Q 1663 1606 1792 1540 
Q 1922 1475 2022 1381 
Q 2122 1288 2183 1156 
Q 2244 1025 2244 844 
z
" transform="scale(0.015625)"/>
       <path id="Calibri-74" d="M 1941 284 
Q 1941 194 1928 141 
Q 1916 88 1891 63 
Q 1866 38 1816 16 
Q 1766 -6 1702 -20 
Q 1638 -34 1566 -43 
Q 1494 -53 1422 -53 
Q 1203 -53 1047 5 
Q 891 63 791 180 
Q 691 297 645 476 
Q 600 656 600 900 
L 600 2544 
L 206 2544 
Q 159 2544 131 2594 
Q 103 2644 103 2756 
Q 103 2816 111 2856 
Q 119 2897 131 2923 
Q 144 2950 164 2961 
Q 184 2972 209 2972 
L 600 2972 
L 600 3641 
Q 600 3663 611 3681 
Q 622 3700 651 3714 
Q 681 3728 731 3734 
Q 781 3741 856 3741 
Q 934 3741 984 3734 
Q 1034 3728 1062 3714 
Q 1091 3700 1103 3681 
Q 1116 3663 1116 3641 
L 1116 2972 
L 1838 2972 
Q 1863 2972 1881 2961 
Q 1900 2950 1914 2923 
Q 1928 2897 1934 2856 
Q 1941 2816 1941 2756 
Q 1941 2644 1912 2594 
Q 1884 2544 1838 2544 
L 1116 2544 
L 1116 975 
Q 1116 684 1202 536 
Q 1288 388 1509 388 
Q 1581 388 1637 402 
Q 1694 416 1737 431 
Q 1781 447 1812 461 
Q 1844 475 1869 475 
Q 1884 475 1898 467 
Q 1913 459 1920 437 
Q 1928 416 1934 378 
Q 1941 341 1941 284 
z
" transform="scale(0.015625)"/>
       <path id="Calibri-69" d="M 994 78 
Q 994 53 981 36 
Q 969 19 941 6 
Q 913 -6 863 -12 
Q 813 -19 734 -19 
Q 659 -19 609 -12 
Q 559 -6 529 6 
Q 500 19 489 36 
Q 478 53 478 78 
L 478 2891 
Q 478 2913 489 2931 
Q 500 2950 529 2962 
Q 559 2975 609 2981 
Q 659 2988 734 2988 
Q 813 2988 863 2981 
Q 913 2975 941 2962 
Q 969 2950 981 2931 
Q 994 2913 994 2891 
L 994 78 
z
M 1053 3841 
Q 1053 3659 984 3593 
Q 916 3528 731 3528 
Q 550 3528 483 3592 
Q 416 3656 416 3834 
Q 416 4016 484 4081 
Q 553 4147 738 4147 
Q 919 4147 986 4083 
Q 1053 4019 1053 3841 
z
" transform="scale(0.015625)"/>
       <path id="Calibri-28" d="M 1547 4306 
Q 1250 3678 1104 3017 
Q 959 2356 959 1688 
Q 959 1016 1107 356 
Q 1256 -303 1541 -938 
Q 1556 -975 1557 -1001 
Q 1559 -1028 1537 -1045 
Q 1516 -1063 1470 -1070 
Q 1425 -1078 1347 -1078 
Q 1291 -1078 1250 -1075 
Q 1209 -1072 1179 -1062 
Q 1150 -1053 1131 -1040 
Q 1113 -1028 1103 -1013 
Q 934 -694 806 -367 
Q 678 -41 590 296 
Q 503 634 459 979 
Q 416 1325 416 1678 
Q 416 2031 464 2375 
Q 513 2719 602 3058 
Q 691 3397 819 3725 
Q 947 4053 1106 4375 
Q 1109 4388 1123 4397 
Q 1138 4406 1163 4415 
Q 1188 4425 1231 4429 
Q 1275 4434 1344 4434 
Q 1416 4434 1459 4425 
Q 1503 4416 1528 4400 
Q 1553 4384 1556 4359 
Q 1559 4334 1547 4306 
z
" transform="scale(0.015625)"/>
       <path id="Calibri-6f" d="M 3094 1516 
Q 3094 1172 3003 883 
Q 2913 594 2733 384 
Q 2553 175 2283 58 
Q 2013 -59 1656 -59 
Q 1309 -59 1051 44 
Q 794 147 622 344 
Q 450 541 365 822 
Q 281 1103 281 1459 
Q 281 1803 370 2092 
Q 459 2381 639 2590 
Q 819 2800 1087 2915 
Q 1356 3031 1716 3031 
Q 2063 3031 2320 2928 
Q 2578 2825 2750 2628 
Q 2922 2431 3008 2150 
Q 3094 1869 3094 1516 
z
M 2550 1481 
Q 2550 1709 2508 1912 
Q 2466 2116 2369 2269 
Q 2272 2422 2106 2511 
Q 1941 2600 1694 2600 
Q 1466 2600 1302 2519 
Q 1138 2438 1031 2289 
Q 925 2141 873 1937 
Q 822 1734 822 1494 
Q 822 1263 864 1059 
Q 906 856 1004 704 
Q 1103 553 1268 464 
Q 1434 375 1681 375 
Q 1906 375 2072 456 
Q 2238 538 2344 684 
Q 2450 831 2500 1034 
Q 2550 1238 2550 1481 
z
" transform="scale(0.015625)"/>
       <path id="Calibri-6c" d="M 994 78 
Q 994 53 981 36 
Q 969 19 941 6 
Q 913 -6 863 -12 
Q 813 -19 734 -19 
Q 659 -19 609 -12 
Q 559 -6 529 6 
Q 500 19 489 36 
Q 478 53 478 78 
L 478 4253 
Q 478 4278 489 4297 
Q 500 4316 529 4328 
Q 559 4341 609 4347 
Q 659 4353 734 4353 
Q 813 4353 863 4347 
Q 913 4341 941 4328 
Q 969 4316 981 4297 
Q 994 4278 994 4253 
L 994 78 
z
" transform="scale(0.015625)"/>
       <path id="Calibri-64" d="M 2888 78 
Q 2888 53 2877 34 
Q 2866 16 2839 5 
Q 2813 -6 2769 -12 
Q 2725 -19 2663 -19 
Q 2597 -19 2553 -12 
Q 2509 -6 2481 5 
Q 2453 16 2440 34 
Q 2428 53 2428 78 
L 2428 450 
Q 2206 209 1967 75 
Q 1728 -59 1444 -59 
Q 1134 -59 915 61 
Q 697 181 561 386 
Q 425 591 362 867 
Q 300 1144 300 1450 
Q 300 1813 378 2105 
Q 456 2397 609 2603 
Q 763 2809 989 2920 
Q 1216 3031 1513 3031 
Q 1759 3031 1964 2923 
Q 2169 2816 2369 2606 
L 2369 4241 
Q 2369 4263 2380 4283 
Q 2391 4303 2422 4314 
Q 2453 4325 2501 4333 
Q 2550 4341 2625 4341 
Q 2703 4341 2753 4333 
Q 2803 4325 2831 4314 
Q 2859 4303 2873 4283 
Q 2888 4263 2888 4241 
L 2888 78 
z
M 2369 2056 
Q 2159 2316 1964 2452 
Q 1769 2588 1556 2588 
Q 1359 2588 1221 2494 
Q 1084 2400 998 2247 
Q 913 2094 873 1900 
Q 834 1706 834 1506 
Q 834 1294 867 1091 
Q 900 888 981 730 
Q 1063 572 1197 476 
Q 1331 381 1534 381 
Q 1638 381 1733 409 
Q 1828 438 1928 503 
Q 2028 569 2137 673 
Q 2247 778 2369 931 
L 2369 2056 
z
" transform="scale(0.015625)"/>
       <path id="Calibri-29" d="M 1522 1678 
Q 1522 1325 1478 979 
Q 1434 634 1346 296 
Q 1259 -41 1132 -367 
Q 1006 -694 838 -1013 
Q 828 -1028 809 -1040 
Q 791 -1053 761 -1062 
Q 731 -1072 690 -1075 
Q 650 -1078 594 -1078 
Q 513 -1078 467 -1070 
Q 422 -1063 401 -1045 
Q 381 -1028 382 -1001 
Q 384 -975 400 -938 
Q 688 -306 834 355 
Q 981 1016 981 1688 
Q 981 2356 834 3017 
Q 688 3678 394 4306 
Q 381 4334 384 4359 
Q 388 4384 413 4400 
Q 438 4416 481 4425 
Q 525 4434 597 4434 
Q 663 4434 706 4429 
Q 750 4425 776 4415 
Q 803 4406 815 4397 
Q 828 4388 834 4375 
Q 1156 3734 1339 3057 
Q 1522 2381 1522 1678 
z
" transform="scale(0.015625)"/>
      </defs>
      <use xlink:href="#Calibri-42"/>
      <use xlink:href="#Calibri-65" x="54.394531"/>
      <use xlink:href="#Calibri-73" x="104.150391"/>
      <use xlink:href="#Calibri-74" x="143.261719"/>
      <use xlink:href="#Calibri-20" x="176.757812"/>
      <use xlink:href="#Calibri-46" x="199.365234"/>
      <use xlink:href="#Calibri-69" x="245.3125"/>
      <use xlink:href="#Calibri-74" x="268.261719"/>
      <use xlink:href="#Calibri-20" x="301.757812"/>
      <use xlink:href="#Calibri-28" x="324.365234"/>
      <use xlink:href="#Calibri-73" x="354.6875"/>
      <use xlink:href="#Calibri-6f" x="393.798828"/>
      <use xlink:href="#Calibri-6c" x="446.533203"/>
      <use xlink:href="#Calibri-69" x="469.482422"/>
      <use xlink:href="#Calibri-64" x="492.431641"/>
      <use xlink:href="#Calibri-29" x="544.970703"/>
     </g>
    </g>
    <g id="line2d_15">
     <defs>
      <path id="m0560703de5" d="M 0 1.936492 
C 0.513564 1.936492 1.006162 1.732451 1.369306 1.369306 
C 1.732451 1.006162 1.936492 0.513564 1.936492 0 
C 1.936492 -0.513564 1.732451 -1.006162 1.369306 -1.369306 
C 1.006162 -1.732451 0.513564 -1.936492 0 -1.936492 
C -0.513564 -1.936492 -1.006162 -1.732451 -1.369306 -1.369306 
C -1.732451 -1.006162 -1.936492 -0.513564 -1.936492 0 
C -1.936492 0.513564 -1.732451 1.006162 -1.369306 1.369306 
C -1.006162 1.732451 -0.513564 1.936492 0 1.936492 
z
" style="stroke: #000000; stroke-width: 0.309839"/>
     </defs>
     <g>
      <use xlink:href="#m0560703de5" x="129.11317" y="33.9825" style="fill: #e69f00; stroke: #000000; stroke-width: 0.309839"/>
     </g>
    </g>
    <g id="text_14">
     <!-- good -->
     <g transform="translate(143.51317 36.7825) scale(0.08 -0.08)">
      <defs>
       <path id="Calibri-67" d="M 2828 2763 
Q 2828 2653 2798 2604 
Q 2769 2556 2722 2556 
L 2319 2556 
Q 2428 2444 2472 2308 
Q 2516 2172 2516 2025 
Q 2516 1781 2437 1593 
Q 2359 1406 2214 1276 
Q 2069 1147 1869 1078 
Q 1669 1009 1425 1009 
Q 1253 1009 1098 1054 
Q 944 1100 859 1169 
Q 803 1113 767 1041 
Q 731 969 731 875 
Q 731 766 832 694 
Q 934 622 1103 616 
L 1838 584 
Q 2047 578 2222 526 
Q 2397 475 2525 379 
Q 2653 284 2725 145 
Q 2797 6 2797 -178 
Q 2797 -372 2715 -547 
Q 2634 -722 2467 -855 
Q 2300 -988 2040 -1064 
Q 1781 -1141 1428 -1141 
Q 1088 -1141 848 -1083 
Q 609 -1025 456 -925 
Q 303 -825 234 -686 
Q 166 -547 166 -384 
Q 166 -281 191 -184 
Q 216 -88 267 0 
Q 319 88 395 167 
Q 472 247 572 325 
Q 419 403 345 522 
Q 272 641 272 778 
Q 272 969 350 1119 
Q 428 1269 544 1388 
Q 447 1503 390 1648 
Q 334 1794 334 2000 
Q 334 2241 415 2431 
Q 497 2622 640 2753 
Q 784 2884 986 2954 
Q 1188 3025 1425 3025 
Q 1553 3025 1664 3011 
Q 1775 2997 1872 2972 
L 2722 2972 
Q 2775 2972 2801 2920 
Q 2828 2869 2828 2763 
z
M 2022 2022 
Q 2022 2309 1864 2470 
Q 1706 2631 1416 2631 
Q 1266 2631 1155 2581 
Q 1044 2531 970 2443 
Q 897 2356 861 2242 
Q 825 2128 825 2003 
Q 825 1725 983 1565 
Q 1141 1406 1425 1406 
Q 1578 1406 1690 1454 
Q 1803 1503 1876 1589 
Q 1950 1675 1986 1787 
Q 2022 1900 2022 2022 
z
M 2281 -206 
Q 2281 -25 2132 73 
Q 1984 172 1731 178 
L 1003 203 
Q 903 125 839 54 
Q 775 -16 737 -80 
Q 700 -144 686 -206 
Q 672 -269 672 -334 
Q 672 -538 878 -642 
Q 1084 -747 1453 -747 
Q 1688 -747 1845 -701 
Q 2003 -656 2100 -581 
Q 2197 -506 2239 -409 
Q 2281 -313 2281 -206 
z
" transform="scale(0.015625)"/>
      </defs>
      <use xlink:href="#Calibri-67"/>
      <use xlink:href="#Calibri-6f" x="47.070312"/>
      <use xlink:href="#Calibri-6f" x="99.804688"/>
      <use xlink:href="#Calibri-64" x="152.539062"/>
     </g>
    </g>
    <g id="line2d_16">
     <defs>
      <path id="me2546fb2de" d="M 0 1.936492 
C 0.513564 1.936492 1.006162 1.732451 1.369306 1.369306 
C 1.732451 1.006162 1.936492 0.513564 1.936492 0 
C 1.936492 -0.513564 1.732451 -1.006162 1.369306 -1.369306 
C 1.006162 -1.732451 0.513564 -1.936492 0 -1.936492 
C -0.513564 -1.936492 -1.006162 -1.732451 -1.369306 -1.369306 
C -1.732451 -1.006162 -1.936492 -0.513564 -1.936492 0 
C -1.936492 0.513564 -1.732451 1.006162 -1.369306 1.369306 
C -1.006162 1.732451 -0.513564 1.936492 0 1.936492 
z
" style="stroke: #000000; stroke-width: 0.309839"/>
     </defs>
     <g>
      <use xlink:href="#me2546fb2de" x="129.11317" y="45.00875" style="fill: #cc79a7; stroke: #000000; stroke-width: 0.309839"/>
     </g>
    </g>
    <g id="text_15">
     <!-- poor -->
     <g transform="translate(143.51317 47.80875) scale(0.08 -0.08)">
      <defs>
       <path id="Calibri-70" d="M 3066 1528 
Q 3066 1159 2986 865 
Q 2906 572 2751 367 
Q 2597 163 2369 52 
Q 2141 -59 1847 -59 
Q 1722 -59 1615 -34 
Q 1509 -9 1407 44 
Q 1306 97 1206 178 
Q 1106 259 994 369 
L 994 -1038 
Q 994 -1063 981 -1081 
Q 969 -1100 941 -1112 
Q 913 -1125 863 -1131 
Q 813 -1138 734 -1138 
Q 659 -1138 609 -1131 
Q 559 -1125 529 -1112 
Q 500 -1100 489 -1081 
Q 478 -1063 478 -1038 
L 478 2891 
Q 478 2919 487 2936 
Q 497 2953 525 2965 
Q 553 2978 597 2983 
Q 641 2988 703 2988 
Q 769 2988 811 2983 
Q 853 2978 881 2965 
Q 909 2953 920 2936 
Q 931 2919 931 2891 
L 931 2513 
Q 1059 2644 1178 2741 
Q 1297 2838 1417 2902 
Q 1538 2966 1664 2998 
Q 1791 3031 1931 3031 
Q 2238 3031 2453 2912 
Q 2669 2794 2805 2587 
Q 2941 2381 3003 2107 
Q 3066 1834 3066 1528 
z
M 2522 1469 
Q 2522 1684 2489 1886 
Q 2456 2088 2376 2244 
Q 2297 2400 2162 2494 
Q 2028 2588 1828 2588 
Q 1728 2588 1631 2558 
Q 1534 2528 1434 2464 
Q 1334 2400 1225 2295 
Q 1116 2191 994 2038 
L 994 919 
Q 1206 659 1397 521 
Q 1588 384 1797 384 
Q 1991 384 2130 478 
Q 2269 572 2355 728 
Q 2441 884 2481 1078 
Q 2522 1272 2522 1469 
z
" transform="scale(0.015625)"/>
       <path id="Calibri-72" d="M 2122 2706 
Q 2122 2638 2119 2591 
Q 2116 2544 2106 2517 
Q 2097 2491 2083 2477 
Q 2069 2463 2044 2463 
Q 2019 2463 1983 2477 
Q 1947 2491 1901 2505 
Q 1856 2519 1800 2531 
Q 1744 2544 1678 2544 
Q 1600 2544 1525 2512 
Q 1450 2481 1367 2409 
Q 1284 2338 1193 2219 
Q 1103 2100 994 1928 
L 994 78 
Q 994 53 981 36 
Q 969 19 941 6 
Q 913 -6 863 -12 
Q 813 -19 734 -19 
Q 659 -19 609 -12 
Q 559 -6 529 6 
Q 500 19 489 36 
Q 478 53 478 78 
L 478 2891 
Q 478 2916 487 2933 
Q 497 2950 525 2964 
Q 553 2978 597 2983 
Q 641 2988 713 2988 
Q 781 2988 826 2983 
Q 872 2978 897 2964 
Q 922 2950 933 2933 
Q 944 2916 944 2891 
L 944 2481 
Q 1059 2650 1161 2756 
Q 1263 2863 1353 2923 
Q 1444 2984 1533 3007 
Q 1622 3031 1713 3031 
Q 1753 3031 1804 3026 
Q 1856 3022 1912 3009 
Q 1969 2997 2014 2981 
Q 2059 2966 2078 2950 
Q 2097 2934 2103 2920 
Q 2109 2906 2114 2884 
Q 2119 2863 2120 2820 
Q 2122 2778 2122 2706 
z
" transform="scale(0.015625)"/>
      </defs>
      <use xlink:href="#Calibri-70"/>
      <use xlink:href="#Calibri-6f" x="52.539062"/>
      <use xlink:href="#Calibri-6f" x="105.273438"/>
      <use xlink:href="#Calibri-72" x="158.007812"/>
     </g>
    </g>
   </g>
  </g>
  <g id="axes_2">
   <g id="patch_6">
    <path d="M 220.254953 126.492571 
L 345.504801 126.492571 
L 345.504801 12.96 
L 220.254953 12.96 
z
" style="fill: #ffffff"/>
   </g>
   <g id="PathCollection_2">
    <defs>
     <path id="C1_0_944c364aa7" d="M 0 1.936492 
C 0.513564 1.936492 1.006162 1.732451 1.369306 1.369306 
C 1.732451 1.006162 1.936492 0.513564 1.936492 -0 
C 1.936492 -0.513564 1.732451 -1.006162 1.369306 -1.369306 
C 1.006162 -1.732451 0.513564 -1.936492 0 -1.936492 
C -0.513564 -1.936492 -1.006162 -1.732451 -1.369306 -1.369306 
C -1.732451 -1.006162 -1.936492 -0.513564 -1.936492 0 
C -1.936492 0.513564 -1.732451 1.006162 -1.369306 1.369306 
C -1.006162 1.732451 -0.513564 1.936492 0 1.936492 
z
"/>
    </defs>
    <g clip-path="url(#pb3db69b4f0)">
     <use xlink:href="#C1_0_944c364aa7" x="327.901435" y="41.872021" style="fill: #e69f00; stroke: #000000; stroke-width: 0.309839"/>
    </g>
    <g clip-path="url(#pb3db69b4f0)">
     <use xlink:href="#C1_0_944c364aa7" x="315.237143" y="60.676588" style="fill: #e69f00; stroke: #000000; stroke-width: 0.309839"/>
    </g>
    <g clip-path="url(#pb3db69b4f0)">
     <use xlink:href="#C1_0_944c364aa7" x="315.237143" y="54.408399" style="fill: #e69f00; stroke: #000000; stroke-width: 0.309839"/>
    </g>
    <g clip-path="url(#pb3db69b4f0)">
     <use xlink:href="#C1_0_944c364aa7" x="324.102147" y="41.088498" style="fill: #e69f00; stroke: #000000; stroke-width: 0.309839"/>
    </g>
    <g clip-path="url(#pb3db69b4f0)">
     <use xlink:href="#C1_0_944c364aa7" x="327.901435" y="48.14021" style="fill: #cc79a7; stroke: #000000; stroke-width: 0.309839"/>
    </g>
    <g clip-path="url(#pb3db69b4f0)">
     <use xlink:href="#C1_0_944c364aa7" x="329.167864" y="27.768596" style="fill: #e69f00; stroke: #000000; stroke-width: 0.309839"/>
    </g>
    <g clip-path="url(#pb3db69b4f0)">
     <use xlink:href="#C1_0_944c364aa7" x="306.372138" y="63.810682" style="fill: #e69f00; stroke: #000000; stroke-width: 0.309839"/>
    </g>
    <g clip-path="url(#pb3db69b4f0)">
     <use xlink:href="#C1_0_944c364aa7" x="253.182112" y="94.368103" style="fill: #cc79a7; stroke: #000000; stroke-width: 0.309839"/>
    </g>
    <g clip-path="url(#pb3db69b4f0)">
     <use xlink:href="#C1_0_944c364aa7" x="321.569289" y="32.469738" style="fill: #e69f00; stroke: #000000; stroke-width: 0.309839"/>
    </g>
    <g clip-path="url(#pb3db69b4f0)">
     <use xlink:href="#C1_0_944c364aa7" x="292.441417" y="61.460112" style="fill: #cc79a7; stroke: #000000; stroke-width: 0.309839"/>
    </g>
    <g clip-path="url(#pb3db69b4f0)">
     <use xlink:href="#C1_0_944c364aa7" x="326.635006" y="70.078871" style="fill: #cc79a7; stroke: #000000; stroke-width: 0.309839"/>
    </g>
    <g clip-path="url(#pb3db69b4f0)">
     <use xlink:href="#C1_0_944c364aa7" x="326.635006" y="39.52145" style="fill: #e69f00; stroke: #000000; stroke-width: 0.309839"/>
    </g>
    <g clip-path="url(#pb3db69b4f0)">
     <use xlink:href="#C1_0_944c364aa7" x="320.30286" y="44.222592" style="fill: #e69f00; stroke: #000000; stroke-width: 0.309839"/>
    </g>
    <g clip-path="url(#pb3db69b4f0)">
     <use xlink:href="#C1_0_944c364aa7" x="326.635006" y="30.119167" style="fill: #e69f00; stroke: #000000; stroke-width: 0.309839"/>
    </g>
    <g clip-path="url(#pb3db69b4f0)">
     <use xlink:href="#C1_0_944c364aa7" x="301.306422" y="51.274305" style="fill: #cc79a7; stroke: #000000; stroke-width: 0.309839"/>
    </g>
    <g clip-path="url(#pb3db69b4f0)">
     <use xlink:href="#C1_0_944c364aa7" x="317.770001" y="79.481155" style="fill: #cc79a7; stroke: #000000; stroke-width: 0.309839"/>
    </g>
    <g clip-path="url(#pb3db69b4f0)">
     <use xlink:href="#C1_0_944c364aa7" x="325.368576" y="41.872021" style="fill: #e69f00; stroke: #000000; stroke-width: 0.309839"/>
    </g>
    <g clip-path="url(#pb3db69b4f0)">
     <use xlink:href="#C1_0_944c364aa7" x="307.638568" y="73.996489" style="fill: #cc79a7; stroke: #000000; stroke-width: 0.309839"/>
    </g>
    <g clip-path="url(#pb3db69b4f0)">
     <use xlink:href="#C1_0_944c364aa7" x="302.572851" y="76.34706" style="fill: #e69f00; stroke: #000000; stroke-width: 0.309839"/>
    </g>
    <g clip-path="url(#pb3db69b4f0)">
     <use xlink:href="#C1_0_944c364aa7" x="322.835718" y="67.728301" style="fill: #cc79a7; stroke: #000000; stroke-width: 0.309839"/>
    </g>
    <g clip-path="url(#pb3db69b4f0)">
     <use xlink:href="#C1_0_944c364aa7" x="329.167864" y="33.253262" style="fill: #e69f00; stroke: #000000; stroke-width: 0.309839"/>
    </g>
    <g clip-path="url(#pb3db69b4f0)">
     <use xlink:href="#C1_0_944c364aa7" x="311.437855" y="43.439069" style="fill: #e69f00; stroke: #000000; stroke-width: 0.309839"/>
    </g>
    <g clip-path="url(#pb3db69b4f0)">
     <use xlink:href="#C1_0_944c364aa7" x="317.770001" y="47.356687" style="fill: #e69f00; stroke: #000000; stroke-width: 0.309839"/>
    </g>
    <g clip-path="url(#pb3db69b4f0)">
     <use xlink:href="#C1_0_944c364aa7" x="329.167864" y="38.737927" style="fill: #e69f00; stroke: #000000; stroke-width: 0.309839"/>
    </g>
    <g clip-path="url(#pb3db69b4f0)">
     <use xlink:href="#C1_0_944c364aa7" x="310.171426" y="48.923734" style="fill: #e69f00; stroke: #000000; stroke-width: 0.309839"/>
    </g>
    <g clip-path="url(#pb3db69b4f0)">
     <use xlink:href="#C1_0_944c364aa7" x="291.174988" y="84.182296" style="fill: #cc79a7; stroke: #000000; stroke-width: 0.309839"/>
    </g>
    <g clip-path="url(#pb3db69b4f0)">
     <use xlink:href="#C1_0_944c364aa7" x="265.846404" y="81.048202" style="fill: #cc79a7; stroke: #000000; stroke-width: 0.309839"/>
    </g>
    <g clip-path="url(#pb3db69b4f0)">
     <use xlink:href="#C1_0_944c364aa7" x="317.770001" y="32.469738" style="fill: #e69f00; stroke: #000000; stroke-width: 0.309839"/>
    </g>
    <g clip-path="url(#pb3db69b4f0)">
     <use xlink:href="#C1_0_944c364aa7" x="282.309984" y="93.58458" style="fill: #cc79a7; stroke: #000000; stroke-width: 0.309839"/>
    </g>
    <g clip-path="url(#pb3db69b4f0)">
     <use xlink:href="#C1_0_944c364aa7" x="327.901435" y="48.14021" style="fill: #cc79a7; stroke: #000000; stroke-width: 0.309839"/>
    </g>
    <g clip-path="url(#pb3db69b4f0)">
     <use xlink:href="#C1_0_944c364aa7" x="306.372138" y="58.326017" style="fill: #cc79a7; stroke: #000000; stroke-width: 0.309839"/>
    </g>
    <g clip-path="url(#pb3db69b4f0)">
     <use xlink:href="#C1_0_944c364aa7" x="319.03643" y="76.34706" style="fill: #cc79a7; stroke: #000000; stroke-width: 0.309839"/>
    </g>
    <g clip-path="url(#pb3db69b4f0)">
     <use xlink:href="#C1_0_944c364aa7" x="291.174988" y="48.923734" style="fill: #cc79a7; stroke: #000000; stroke-width: 0.309839"/>
    </g>
    <g clip-path="url(#pb3db69b4f0)">
     <use xlink:href="#C1_0_944c364aa7" x="307.638568" y="49.707257" style="fill: #e69f00; stroke: #000000; stroke-width: 0.309839"/>
    </g>
    <g clip-path="url(#pb3db69b4f0)">
     <use xlink:href="#C1_0_944c364aa7" x="305.105709" y="45.789639" style="fill: #e69f00; stroke: #000000; stroke-width: 0.309839"/>
    </g>
    <g clip-path="url(#pb3db69b4f0)">
     <use xlink:href="#C1_0_944c364aa7" x="320.30286" y="59.109541" style="fill: #e69f00; stroke: #000000; stroke-width: 0.309839"/>
    </g>
    <g clip-path="url(#pb3db69b4f0)">
     <use xlink:href="#C1_0_944c364aa7" x="291.174988" y="72.429442" style="fill: #cc79a7; stroke: #000000; stroke-width: 0.309839"/>
    </g>
   </g>
   <g id="matplotlib.axis_3">
    <g id="xtick_6">
     <g id="line2d_17">
      <g>
       <use xlink:href="#mc97fb6324f" x="220.254953" y="126.492571" style="stroke: #000000; stroke-width: 0.8"/>
      </g>
     </g>
     <g id="text_16">
      <!-- 0 -->
      <g transform="translate(217.213703 141.654446) scale(0.12 -0.12)">
       <use xlink:href="#Calibri-30"/>
      </g>
     </g>
    </g>
    <g id="xtick_7">
     <g id="line2d_18">
      <g>
       <use xlink:href="#mc97fb6324f" x="247.48318" y="126.492571" style="stroke: #000000; stroke-width: 0.8"/>
      </g>
     </g>
     <g id="text_17">
      <!-- 21 -->
      <g transform="translate(241.40068 141.654446) scale(0.12 -0.12)">
       <use xlink:href="#Calibri-32"/>
       <use xlink:href="#Calibri-31" x="50.683594"/>
      </g>
     </g>
    </g>
    <g id="xtick_8">
     <g id="line2d_19">
      <g>
       <use xlink:href="#mc97fb6324f" x="274.711408" y="126.492571" style="stroke: #000000; stroke-width: 0.8"/>
      </g>
     </g>
     <g id="text_18">
      <!-- 43 -->
      <g transform="translate(268.628908 141.654446) scale(0.12 -0.12)">
       <use xlink:href="#Calibri-34"/>
       <use xlink:href="#Calibri-33" x="50.683594"/>
      </g>
     </g>
    </g>
    <g id="xtick_9">
     <g id="line2d_20">
      <g>
       <use xlink:href="#mc97fb6324f" x="301.939636" y="126.492571" style="stroke: #000000; stroke-width: 0.8"/>
      </g>
     </g>
     <g id="text_19">
      <!-- 64 -->
      <g transform="translate(295.857136 141.654446) scale(0.12 -0.12)">
       <use xlink:href="#Calibri-36"/>
       <use xlink:href="#Calibri-34" x="50.683594"/>
      </g>
     </g>
    </g>
    <g id="xtick_10">
     <g id="line2d_21">
      <g>
       <use xlink:href="#mc97fb6324f" x="329.167864" y="126.492571" style="stroke: #000000; stroke-width: 0.8"/>
      </g>
     </g>
     <g id="text_20">
      <!--      86$_{max}$ -->
      <g transform="translate(306.907864 141.628196) scale(0.12 -0.12)">
       <use xlink:href="#Calibri-20" transform="translate(0 0.890625)"/>
       <use xlink:href="#Calibri-20" transform="translate(22.607422 0.890625)"/>
       <use xlink:href="#Calibri-20" transform="translate(45.214844 0.890625)"/>
       <use xlink:href="#Calibri-20" transform="translate(67.822266 0.890625)"/>
       <use xlink:href="#Calibri-20" transform="translate(90.429688 0.890625)"/>
       <use xlink:href="#Calibri-38" transform="translate(113.037109 0.890625)"/>
       <use xlink:href="#Calibri-36" transform="translate(163.720703 0.890625)"/>
       <use xlink:href="#DejaVuSans-Oblique-6d" transform="translate(215.361328 -15.515625) scale(0.7)"/>
       <use xlink:href="#DejaVuSans-Oblique-61" transform="translate(283.549805 -15.515625) scale(0.7)"/>
       <use xlink:href="#DejaVuSans-Oblique-78" transform="translate(326.445312 -15.515625) scale(0.7)"/>
      </g>
     </g>
    </g>
    <g id="text_21">
     <!-- FM-LE -->
     <g transform="translate(267.703627 155.950071) scale(0.12 -0.12)">
      <use xlink:href="#Calibri-46"/>
      <use xlink:href="#Calibri-4d" x="45.947266"/>
      <use xlink:href="#Calibri-2d" x="131.445312"/>
      <use xlink:href="#Calibri-4c" x="162.060547"/>
      <use xlink:href="#Calibri-45" x="204.101562"/>
     </g>
    </g>
   </g>
   <g id="matplotlib.axis_4">
    <g id="ytick_6">
     <g id="line2d_22">
      <g>
       <use xlink:href="#meebd5784cb" x="220.254953" y="126.492571" style="stroke: #000000; stroke-width: 0.8"/>
      </g>
     </g>
    </g>
    <g id="ytick_7">
     <g id="line2d_23">
      <g>
       <use xlink:href="#meebd5784cb" x="220.254953" y="101.811578" style="stroke: #000000; stroke-width: 0.8"/>
      </g>
     </g>
    </g>
    <g id="ytick_8">
     <g id="line2d_24">
      <g>
       <use xlink:href="#meebd5784cb" x="220.254953" y="77.130584" style="stroke: #000000; stroke-width: 0.8"/>
      </g>
     </g>
    </g>
    <g id="ytick_9">
     <g id="line2d_25">
      <g>
       <use xlink:href="#meebd5784cb" x="220.254953" y="52.44959" style="stroke: #000000; stroke-width: 0.8"/>
      </g>
     </g>
    </g>
    <g id="ytick_10">
     <g id="line2d_26">
      <g>
       <use xlink:href="#meebd5784cb" x="220.254953" y="27.768596" style="stroke: #000000; stroke-width: 0.8"/>
      </g>
     </g>
    </g>
   </g>
   <g id="line2d_27">
    <path d="M 220.254953 100.112631 
L 221.520103 99.556065 
L 222.785253 98.999499 
L 224.050403 98.442933 
L 225.315553 97.886367 
L 226.580703 97.329801 
L 227.845853 96.773236 
L 229.111003 96.21667 
L 230.376153 95.660104 
L 231.641302 95.103538 
L 232.906452 94.546972 
L 234.171602 93.990406 
L 235.436752 93.433841 
L 236.701902 92.877275 
L 237.967052 92.320709 
L 239.232202 91.764143 
L 240.497352 91.207577 
L 241.762502 90.651011 
L 243.027652 90.094446 
L 244.292802 89.53788 
L 245.557952 88.981314 
L 246.823102 88.424748 
L 248.088252 87.868182 
L 249.353402 87.311616 
L 250.618552 86.75505 
L 251.883702 86.198485 
L 253.148852 85.641919 
L 254.414002 85.085353 
L 255.679152 84.528787 
L 256.944302 83.972221 
L 258.209452 83.415655 
L 259.474602 82.85909 
L 260.739752 82.302524 
L 262.004902 81.745958 
L 263.270052 81.189392 
L 264.535202 80.632826 
L 265.800352 80.07626 
L 267.065502 79.519695 
L 268.330652 78.963129 
L 269.595802 78.406563 
L 270.860952 77.849997 
L 272.126102 77.293431 
L 273.391252 76.736865 
L 274.656402 76.180299 
L 275.921552 75.623734 
L 277.186702 75.067168 
L 278.451852 74.510602 
L 279.717002 73.954036 
L 280.982152 73.39747 
L 282.247302 72.840904 
L 283.512452 72.284339 
L 284.777602 71.727773 
L 286.042752 71.171207 
L 287.307902 70.614641 
L 288.573052 70.058075 
L 289.838202 69.501509 
L 291.103352 68.944944 
L 292.368501 68.388378 
L 293.633651 67.831812 
L 294.898801 67.275246 
L 296.163951 66.71868 
L 297.429101 66.162114 
L 298.694251 65.605548 
L 299.959401 65.048983 
L 301.224551 64.492417 
L 302.489701 63.935851 
L 303.754851 63.379285 
L 305.020001 62.822719 
L 306.285151 62.266153 
L 307.550301 61.709588 
L 308.815451 61.153022 
L 310.080601 60.596456 
L 311.345751 60.03989 
L 312.610901 59.483324 
L 313.876051 58.926758 
L 315.141201 58.370193 
L 316.406351 57.813627 
L 317.671501 57.257061 
L 318.936651 56.700495 
L 320.201801 56.143929 
L 321.466951 55.587363 
L 322.732101 55.030797 
L 323.997251 54.474232 
L 325.262401 53.917666 
L 326.527551 53.3611 
L 327.792701 52.804534 
L 329.057851 52.247968 
L 330.323001 51.691402 
L 331.588151 51.134837 
L 332.853301 50.578271 
L 334.118451 50.021705 
L 335.383601 49.465139 
L 336.648751 48.908573 
L 337.913901 48.352007 
L 339.179051 47.795442 
L 340.444201 47.238876 
L 341.709351 46.68231 
L 342.974501 46.125744 
L 344.239651 45.569178 
L 345.504801 45.012612 
" clip-path="url(#pb3db69b4f0)" style="fill: none; stroke: #000000; stroke-width: 1.5; stroke-linecap: square"/>
   </g>
   <g id="line2d_28"/>
   <g id="line2d_29"/>
   <g id="patch_7">
    <path d="M 220.254953 126.492571 
L 220.254953 12.96 
" style="fill: none; stroke: #000000; stroke-width: 0.8; stroke-linejoin: miter; stroke-linecap: square"/>
   </g>
   <g id="patch_8">
    <path d="M 220.254953 126.492571 
L 345.504801 126.492571 
" style="fill: none; stroke: #000000; stroke-width: 0.8; stroke-linejoin: miter; stroke-linecap: square"/>
   </g>
  </g>
  <g id="axes_3">
   <g id="patch_9">
    <path d="M 369.020333 126.492571 
L 494.270181 126.492571 
L 494.270181 12.96 
L 369.020333 12.96 
z
" style="fill: #ffffff"/>
   </g>
   <g id="PathCollection_3">
    <defs>
     <path id="C2_0_5b51b77e8b" d="M 0 1.936492 
C 0.513564 1.936492 1.006162 1.732451 1.369306 1.369306 
C 1.732451 1.006162 1.936492 0.513564 1.936492 -0 
C 1.936492 -0.513564 1.732451 -1.006162 1.369306 -1.369306 
C 1.006162 -1.732451 0.513564 -1.936492 0 -1.936492 
C -0.513564 -1.936492 -1.006162 -1.732451 -1.369306 -1.369306 
C -1.732451 -1.006162 -1.936492 -0.513564 -1.936492 0 
C -1.936492 0.513564 -1.732451 1.006162 -1.369306 1.369306 
C -1.006162 1.732451 -0.513564 1.936492 0 1.936492 
z
"/>
    </defs>
    <g clip-path="url(#pe54e6e6d80)">
     <use xlink:href="#C2_0_5b51b77e8b" x="477.933245" y="35.603832" style="fill: #e69f00; stroke: #000000; stroke-width: 0.309839"/>
    </g>
    <g clip-path="url(#pe54e6e6d80)">
     <use xlink:href="#C2_0_5b51b77e8b" x="470.33467" y="57.542494" style="fill: #e69f00; stroke: #000000; stroke-width: 0.309839"/>
    </g>
    <g clip-path="url(#pe54e6e6d80)">
     <use xlink:href="#C2_0_5b51b77e8b" x="476.666816" y="34.820309" style="fill: #e69f00; stroke: #000000; stroke-width: 0.309839"/>
    </g>
    <g clip-path="url(#pe54e6e6d80)">
     <use xlink:href="#C2_0_5b51b77e8b" x="477.933245" y="33.253262" style="fill: #e69f00; stroke: #000000; stroke-width: 0.309839"/>
    </g>
    <g clip-path="url(#pe54e6e6d80)">
     <use xlink:href="#C2_0_5b51b77e8b" x="469.06824" y="38.737927" style="fill: #cc79a7; stroke: #000000; stroke-width: 0.309839"/>
    </g>
    <g clip-path="url(#pe54e6e6d80)">
     <use xlink:href="#C2_0_5b51b77e8b" x="469.06824" y="30.119167" style="fill: #e69f00; stroke: #000000; stroke-width: 0.309839"/>
    </g>
    <g clip-path="url(#pe54e6e6d80)">
     <use xlink:href="#C2_0_5b51b77e8b" x="472.867528" y="29.335643" style="fill: #e69f00; stroke: #000000; stroke-width: 0.309839"/>
    </g>
    <g clip-path="url(#pe54e6e6d80)">
     <use xlink:href="#C2_0_5b51b77e8b" x="413.345356" y="95.151627" style="fill: #cc79a7; stroke: #000000; stroke-width: 0.309839"/>
    </g>
    <g clip-path="url(#pe54e6e6d80)">
     <use xlink:href="#C2_0_5b51b77e8b" x="477.933245" y="27.768596" style="fill: #e69f00; stroke: #000000; stroke-width: 0.309839"/>
    </g>
    <g clip-path="url(#pe54e6e6d80)">
     <use xlink:href="#C2_0_5b51b77e8b" x="464.002524" y="56.75897" style="fill: #cc79a7; stroke: #000000; stroke-width: 0.309839"/>
    </g>
    <g clip-path="url(#pe54e6e6d80)">
     <use xlink:href="#C2_0_5b51b77e8b" x="476.666816" y="60.676588" style="fill: #cc79a7; stroke: #000000; stroke-width: 0.309839"/>
    </g>
    <g clip-path="url(#pe54e6e6d80)">
     <use xlink:href="#C2_0_5b51b77e8b" x="476.666816" y="51.274305" style="fill: #e69f00; stroke: #000000; stroke-width: 0.309839"/>
    </g>
    <g clip-path="url(#pe54e6e6d80)">
     <use xlink:href="#C2_0_5b51b77e8b" x="474.133957" y="53.624875" style="fill: #e69f00; stroke: #000000; stroke-width: 0.309839"/>
    </g>
    <g clip-path="url(#pe54e6e6d80)">
     <use xlink:href="#C2_0_5b51b77e8b" x="477.933245" y="27.768596" style="fill: #e69f00; stroke: #000000; stroke-width: 0.309839"/>
    </g>
    <g clip-path="url(#pe54e6e6d80)">
     <use xlink:href="#C2_0_5b51b77e8b" x="474.133957" y="32.469738" style="fill: #cc79a7; stroke: #000000; stroke-width: 0.309839"/>
    </g>
    <g clip-path="url(#pe54e6e6d80)">
     <use xlink:href="#C2_0_5b51b77e8b" x="469.06824" y="66.161253" style="fill: #cc79a7; stroke: #000000; stroke-width: 0.309839"/>
    </g>
    <g clip-path="url(#pe54e6e6d80)">
     <use xlink:href="#C2_0_5b51b77e8b" x="477.933245" y="28.55212" style="fill: #e69f00; stroke: #000000; stroke-width: 0.309839"/>
    </g>
    <g clip-path="url(#pe54e6e6d80)">
     <use xlink:href="#C2_0_5b51b77e8b" x="467.801811" y="59.893064" style="fill: #cc79a7; stroke: #000000; stroke-width: 0.309839"/>
    </g>
    <g clip-path="url(#pe54e6e6d80)">
     <use xlink:href="#C2_0_5b51b77e8b" x="469.06824" y="79.481155" style="fill: #e69f00; stroke: #000000; stroke-width: 0.309839"/>
    </g>
    <g clip-path="url(#pe54e6e6d80)">
     <use xlink:href="#C2_0_5b51b77e8b" x="474.133957" y="66.161253" style="fill: #cc79a7; stroke: #000000; stroke-width: 0.309839"/>
    </g>
    <g clip-path="url(#pe54e6e6d80)">
     <use xlink:href="#C2_0_5b51b77e8b" x="477.933245" y="27.768596" style="fill: #e69f00; stroke: #000000; stroke-width: 0.309839"/>
    </g>
    <g clip-path="url(#pe54e6e6d80)">
     <use xlink:href="#C2_0_5b51b77e8b" x="477.933245" y="27.768596" style="fill: #e69f00; stroke: #000000; stroke-width: 0.309839"/>
    </g>
    <g clip-path="url(#pe54e6e6d80)">
     <use xlink:href="#C2_0_5b51b77e8b" x="477.933245" y="27.768596" style="fill: #e69f00; stroke: #000000; stroke-width: 0.309839"/>
    </g>
    <g clip-path="url(#pe54e6e6d80)">
     <use xlink:href="#C2_0_5b51b77e8b" x="474.133957" y="36.387356" style="fill: #e69f00; stroke: #000000; stroke-width: 0.309839"/>
    </g>
    <g clip-path="url(#pe54e6e6d80)">
     <use xlink:href="#C2_0_5b51b77e8b" x="462.736094" y="53.624875" style="fill: #e69f00; stroke: #000000; stroke-width: 0.309839"/>
    </g>
    <g clip-path="url(#pe54e6e6d80)">
     <use xlink:href="#C2_0_5b51b77e8b" x="434.874652" y="88.099914" style="fill: #cc79a7; stroke: #000000; stroke-width: 0.309839"/>
    </g>
    <g clip-path="url(#pe54e6e6d80)">
     <use xlink:href="#C2_0_5b51b77e8b" x="432.341794" y="89.666962" style="fill: #cc79a7; stroke: #000000; stroke-width: 0.309839"/>
    </g>
    <g clip-path="url(#pe54e6e6d80)">
     <use xlink:href="#C2_0_5b51b77e8b" x="470.33467" y="32.469738" style="fill: #e69f00; stroke: #000000; stroke-width: 0.309839"/>
    </g>
    <g clip-path="url(#pe54e6e6d80)">
     <use xlink:href="#C2_0_5b51b77e8b" x="469.06824" y="66.161253" style="fill: #cc79a7; stroke: #000000; stroke-width: 0.309839"/>
    </g>
    <g clip-path="url(#pe54e6e6d80)">
     <use xlink:href="#C2_0_5b51b77e8b" x="477.933245" y="31.686214" style="fill: #cc79a7; stroke: #000000; stroke-width: 0.309839"/>
    </g>
    <g clip-path="url(#pe54e6e6d80)">
     <use xlink:href="#C2_0_5b51b77e8b" x="469.06824" y="46.573163" style="fill: #cc79a7; stroke: #000000; stroke-width: 0.309839"/>
    </g>
    <g clip-path="url(#pe54e6e6d80)">
     <use xlink:href="#C2_0_5b51b77e8b" x="474.133957" y="53.624875" style="fill: #cc79a7; stroke: #000000; stroke-width: 0.309839"/>
    </g>
    <g clip-path="url(#pe54e6e6d80)">
     <use xlink:href="#C2_0_5b51b77e8b" x="457.670378" y="52.841352" style="fill: #cc79a7; stroke: #000000; stroke-width: 0.309839"/>
    </g>
    <g clip-path="url(#pe54e6e6d80)">
     <use xlink:href="#C2_0_5b51b77e8b" x="474.133957" y="36.387356" style="fill: #e69f00; stroke: #000000; stroke-width: 0.309839"/>
    </g>
    <g clip-path="url(#pe54e6e6d80)">
     <use xlink:href="#C2_0_5b51b77e8b" x="470.33467" y="41.872021" style="fill: #e69f00; stroke: #000000; stroke-width: 0.309839"/>
    </g>
    <g clip-path="url(#pe54e6e6d80)">
     <use xlink:href="#C2_0_5b51b77e8b" x="477.933245" y="50.490781" style="fill: #e69f00; stroke: #000000; stroke-width: 0.309839"/>
    </g>
    <g clip-path="url(#pe54e6e6d80)">
     <use xlink:href="#C2_0_5b51b77e8b" x="428.542506" y="61.460112" style="fill: #cc79a7; stroke: #000000; stroke-width: 0.309839"/>
    </g>
   </g>
   <g id="matplotlib.axis_5">
    <g id="xtick_11">
     <g id="line2d_30">
      <g>
       <use xlink:href="#mc97fb6324f" x="369.020333" y="126.492571" style="stroke: #000000; stroke-width: 0.8"/>
      </g>
     </g>
     <g id="text_22">
      <!-- 0 -->
      <g transform="translate(365.979083 141.654446) scale(0.12 -0.12)">
       <use xlink:href="#Calibri-30"/>
      </g>
     </g>
    </g>
    <g id="xtick_12">
     <g id="line2d_31">
      <g>
       <use xlink:href="#mc97fb6324f" x="396.248561" y="126.492571" style="stroke: #000000; stroke-width: 0.8"/>
      </g>
     </g>
     <g id="text_23">
      <!-- 21 -->
      <g transform="translate(390.166061 141.654446) scale(0.12 -0.12)">
       <use xlink:href="#Calibri-32"/>
       <use xlink:href="#Calibri-31" x="50.683594"/>
      </g>
     </g>
    </g>
    <g id="xtick_13">
     <g id="line2d_32">
      <g>
       <use xlink:href="#mc97fb6324f" x="423.476789" y="126.492571" style="stroke: #000000; stroke-width: 0.8"/>
      </g>
     </g>
     <g id="text_24">
      <!-- 43 -->
      <g transform="translate(417.394289 141.654446) scale(0.12 -0.12)">
       <use xlink:href="#Calibri-34"/>
       <use xlink:href="#Calibri-33" x="50.683594"/>
      </g>
     </g>
    </g>
    <g id="xtick_14">
     <g id="line2d_33">
      <g>
       <use xlink:href="#mc97fb6324f" x="450.705017" y="126.492571" style="stroke: #000000; stroke-width: 0.8"/>
      </g>
     </g>
     <g id="text_25">
      <!-- 64 -->
      <g transform="translate(444.622517 141.654446) scale(0.12 -0.12)">
       <use xlink:href="#Calibri-36"/>
       <use xlink:href="#Calibri-34" x="50.683594"/>
      </g>
     </g>
    </g>
    <g id="xtick_15">
     <g id="line2d_34">
      <g>
       <use xlink:href="#mc97fb6324f" x="477.933245" y="126.492571" style="stroke: #000000; stroke-width: 0.8"/>
      </g>
     </g>
     <g id="text_26">
      <!--      86$_{max}$ -->
      <g transform="translate(455.673245 141.628196) scale(0.12 -0.12)">
       <use xlink:href="#Calibri-20" transform="translate(0 0.890625)"/>
       <use xlink:href="#Calibri-20" transform="translate(22.607422 0.890625)"/>
       <use xlink:href="#Calibri-20" transform="translate(45.214844 0.890625)"/>
       <use xlink:href="#Calibri-20" transform="translate(67.822266 0.890625)"/>
       <use xlink:href="#Calibri-20" transform="translate(90.429688 0.890625)"/>
       <use xlink:href="#Calibri-38" transform="translate(113.037109 0.890625)"/>
       <use xlink:href="#Calibri-36" transform="translate(163.720703 0.890625)"/>
       <use xlink:href="#DejaVuSans-Oblique-6d" transform="translate(215.361328 -15.515625) scale(0.7)"/>
       <use xlink:href="#DejaVuSans-Oblique-61" transform="translate(283.549805 -15.515625) scale(0.7)"/>
       <use xlink:href="#DejaVuSans-Oblique-78" transform="translate(326.445312 -15.515625) scale(0.7)"/>
      </g>
     </g>
    </g>
    <g id="text_27">
     <!-- FM-LE -->
     <g transform="translate(416.469007 155.950071) scale(0.12 -0.12)">
      <use xlink:href="#Calibri-46"/>
      <use xlink:href="#Calibri-4d" x="45.947266"/>
      <use xlink:href="#Calibri-2d" x="131.445312"/>
      <use xlink:href="#Calibri-4c" x="162.060547"/>
      <use xlink:href="#Calibri-45" x="204.101562"/>
     </g>
    </g>
   </g>
   <g id="matplotlib.axis_6">
    <g id="ytick_11">
     <g id="line2d_35">
      <g>
       <use xlink:href="#meebd5784cb" x="369.020333" y="126.492571" style="stroke: #000000; stroke-width: 0.8"/>
      </g>
     </g>
    </g>
    <g id="ytick_12">
     <g id="line2d_36">
      <g>
       <use xlink:href="#meebd5784cb" x="369.020333" y="101.811578" style="stroke: #000000; stroke-width: 0.8"/>
      </g>
     </g>
    </g>
    <g id="ytick_13">
     <g id="line2d_37">
      <g>
       <use xlink:href="#meebd5784cb" x="369.020333" y="77.130584" style="stroke: #000000; stroke-width: 0.8"/>
      </g>
     </g>
    </g>
    <g id="ytick_14">
     <g id="line2d_38">
      <g>
       <use xlink:href="#meebd5784cb" x="369.020333" y="52.44959" style="stroke: #000000; stroke-width: 0.8"/>
      </g>
     </g>
    </g>
    <g id="ytick_15">
     <g id="line2d_39">
      <g>
       <use xlink:href="#meebd5784cb" x="369.020333" y="27.768596" style="stroke: #000000; stroke-width: 0.8"/>
      </g>
     </g>
    </g>
   </g>
   <g id="line2d_40">
    <path d="M 369.020333 100.112631 
L 370.285483 99.556065 
L 371.550633 98.999499 
L 372.815783 98.442933 
L 374.080933 97.886367 
L 375.346083 97.329801 
L 376.611233 96.773236 
L 377.876383 96.21667 
L 379.141533 95.660104 
L 380.406683 95.103538 
L 381.671833 94.546972 
L 382.936983 93.990406 
L 384.202133 93.433841 
L 385.467283 92.877275 
L 386.732433 92.320709 
L 387.997583 91.764143 
L 389.262733 91.207577 
L 390.527883 90.651011 
L 391.793033 90.094446 
L 393.058183 89.53788 
L 394.323333 88.981314 
L 395.588483 88.424748 
L 396.853633 87.868182 
L 398.118783 87.311616 
L 399.383933 86.75505 
L 400.649083 86.198485 
L 401.914233 85.641919 
L 403.179383 85.085353 
L 404.444533 84.528787 
L 405.709683 83.972221 
L 406.974833 83.415655 
L 408.239983 82.85909 
L 409.505133 82.302524 
L 410.770283 81.745958 
L 412.035433 81.189392 
L 413.300583 80.632826 
L 414.565733 80.07626 
L 415.830883 79.519695 
L 417.096033 78.963129 
L 418.361183 78.406563 
L 419.626333 77.849997 
L 420.891483 77.293431 
L 422.156633 76.736865 
L 423.421783 76.180299 
L 424.686933 75.623734 
L 425.952083 75.067168 
L 427.217233 74.510602 
L 428.482383 73.954036 
L 429.747532 73.39747 
L 431.012682 72.840904 
L 432.277832 72.284339 
L 433.542982 71.727773 
L 434.808132 71.171207 
L 436.073282 70.614641 
L 437.338432 70.058075 
L 438.603582 69.501509 
L 439.868732 68.944944 
L 441.133882 68.388378 
L 442.399032 67.831812 
L 443.664182 67.275246 
L 444.929332 66.71868 
L 446.194482 66.162114 
L 447.459632 65.605548 
L 448.724782 65.048983 
L 449.989932 64.492417 
L 451.255082 63.935851 
L 452.520232 63.379285 
L 453.785382 62.822719 
L 455.050532 62.266153 
L 456.315682 61.709588 
L 457.580832 61.153022 
L 458.845982 60.596456 
L 460.111132 60.03989 
L 461.376282 59.483324 
L 462.641432 58.926758 
L 463.906582 58.370193 
L 465.171732 57.813627 
L 466.436882 57.257061 
L 467.702032 56.700495 
L 468.967182 56.143929 
L 470.232332 55.587363 
L 471.497482 55.030797 
L 472.762632 54.474232 
L 474.027782 53.917666 
L 475.292932 53.3611 
L 476.558082 52.804534 
L 477.823232 52.247968 
L 479.088382 51.691402 
L 480.353532 51.134837 
L 481.618682 50.578271 
L 482.883832 50.021705 
L 484.148982 49.465139 
L 485.414132 48.908573 
L 486.679282 48.352007 
L 487.944432 47.795442 
L 489.209582 47.238876 
L 490.474731 46.68231 
L 491.739881 46.125744 
L 493.005031 45.569178 
L 494.270181 45.012612 
" clip-path="url(#pe54e6e6d80)" style="fill: none; stroke: #000000; stroke-width: 1.5; stroke-linecap: square"/>
   </g>
   <g id="line2d_41"/>
   <g id="line2d_42"/>
   <g id="patch_10">
    <path d="M 369.020333 126.492571 
L 369.020333 12.96 
" style="fill: none; stroke: #000000; stroke-width: 0.8; stroke-linejoin: miter; stroke-linecap: square"/>
   </g>
   <g id="patch_11">
    <path d="M 369.020333 126.492571 
L 494.270181 126.492571 
" style="fill: none; stroke: #000000; stroke-width: 0.8; stroke-linejoin: miter; stroke-linecap: square"/>
   </g>
  </g>
 </g>
 <defs>
  <clipPath id="pd9cbe6bbb2">
   <rect x="71.489572" y="12.96" width="125.249848" height="113.532571"/>
  </clipPath>
  <clipPath id="pb3db69b4f0">
   <rect x="220.254953" y="12.96" width="125.249848" height="113.532571"/>
  </clipPath>
  <clipPath id="pe54e6e6d80">
   <rect x="369.020333" y="12.96" width="125.249848" height="113.532571"/>
  </clipPath>
 </defs>
</svg>
