<?xml version="1.0" encoding="utf-8" standalone="no"?>
<!DOCTYPE svg PUBLIC "-//W3C//DTD SVG 1.1//EN"
  "http://www.w3.org/Graphics/SVG/1.1/DTD/svg11.dtd">
<svg xmlns:xlink="http://www.w3.org/1999/xlink" width="257.142857pt" height="257.142857pt" viewBox="0 0 257.142857 257.142857" xmlns="http://www.w3.org/2000/svg" version="1.1">
 <metadata>
  <rdf:RDF xmlns:dc="http://purl.org/dc/elements/1.1/" xmlns:cc="http://creativecommons.org/ns#" xmlns:rdf="http://www.w3.org/1999/02/22-rdf-syntax-ns#">
   <cc:Work>
    <dc:type rdf:resource="http://purl.org/dc/dcmitype/StillImage"/>
    <dc:date>2025-02-24T13:52:04.057429</dc:date>
    <dc:format>image/svg+xml</dc:format>
    <dc:creator>
     <cc:Agent>
      <dc:title>Matplotlib v3.6.2, https://matplotlib.org/</dc:title>
     </cc:Agent>
    </dc:creator>
   </cc:Work>
  </rdf:RDF>
 </metadata>
 <defs>
  <style type="text/css">*{stroke-linejoin: round; stroke-linecap: butt}</style>
 </defs>
 <g id="figure_1">
  <g id="patch_1">
   <path d="M 0 257.142857 
L 257.142857 257.142857 
L 257.142857 0 
L 0 0 
z
" style="fill: #ffffff"/>
  </g>
  <g id="axes_1">
   <g id="patch_2">
    <path d="M 52.4 213.742857 
L 236.802857 213.742857 
L 236.802857 26.208 
L 52.4 26.208 
z
" style="fill: #ffffff"/>
   </g>
   <g id="PathCollection_1">
    <defs>
     <path id="C0_0_f3b9305467" d="M 0 2.738613 
C 0.726289 2.738613 1.422928 2.450055 1.936492 1.936492 
C 2.450055 1.422928 2.738613 0.726289 2.738613 -0 
C 2.738613 -0.726289 2.450055 -1.422928 1.936492 -1.936492 
C 1.422928 -2.450055 0.726289 -2.738613 0 -2.738613 
C -0.726289 -2.738613 -1.422928 -2.450055 -1.936492 -1.936492 
C -2.450055 -1.422928 -2.738613 -0.726289 -2.738613 0 
C -2.738613 0.726289 -2.450055 1.422928 -1.936492 1.936492 
C -1.422928 2.450055 -0.726289 2.738613 0 2.738613 
z
"/>
    </defs>
    <g clip-path="url(#p80d2b301ce)">
     <use xlink:href="#C0_0_f3b9305467" x="195.004876" y="106.222872" style="fill: #008000; fill-opacity: 0.8; stroke: #000000; stroke-opacity: 0.8; stroke-width: 0.438178"/>
    </g>
    <g clip-path="url(#p80d2b301ce)">
     <use xlink:href="#C0_0_f3b9305467" x="160.58301" y="113.724267" style="fill: #008000; fill-opacity: 0.8; stroke: #000000; stroke-opacity: 0.8; stroke-width: 0.438178"/>
    </g>
    <g clip-path="url(#p80d2b301ce)">
     <use xlink:href="#C0_0_f3b9305467" x="196.234229" y="107.473105" style="fill: #008000; fill-opacity: 0.8; stroke: #000000; stroke-opacity: 0.8; stroke-width: 0.438178"/>
    </g>
    <g clip-path="url(#p80d2b301ce)">
     <use xlink:href="#C0_0_f3b9305467" x="198.692933" y="116.224731" style="fill: #008000; fill-opacity: 0.8; stroke: #000000; stroke-opacity: 0.8; stroke-width: 0.438178"/>
    </g>
    <g clip-path="url(#p80d2b301ce)">
     <use xlink:href="#C0_0_f3b9305467" x="198.692933" y="106.222872" style="fill: #008000; fill-opacity: 0.8; stroke: #000000; stroke-opacity: 0.8; stroke-width: 0.438178"/>
    </g>
    <g clip-path="url(#p80d2b301ce)">
     <use xlink:href="#C0_0_f3b9305467" x="190.087467" y="114.974499" style="fill: #ff0000; fill-opacity: 0.8; stroke: #000000; stroke-opacity: 0.8; stroke-width: 0.438178"/>
    </g>
    <g clip-path="url(#p80d2b301ce)">
     <use xlink:href="#C0_0_f3b9305467" x="203.610343" y="114.974499" style="fill: #008000; fill-opacity: 0.8; stroke: #000000; stroke-opacity: 0.8; stroke-width: 0.438178"/>
    </g>
    <g clip-path="url(#p80d2b301ce)">
     <use xlink:href="#C0_0_f3b9305467" x="204.839695" y="111.223802" style="fill: #008000; fill-opacity: 0.8; stroke: #000000; stroke-opacity: 0.8; stroke-width: 0.438178"/>
    </g>
    <g clip-path="url(#p80d2b301ce)">
     <use xlink:href="#C0_0_f3b9305467" x="101.574095" y="169.984724" style="fill: #ff0000; fill-opacity: 0.8; stroke: #000000; stroke-opacity: 0.8; stroke-width: 0.438178"/>
    </g>
    <g clip-path="url(#p80d2b301ce)">
     <use xlink:href="#C0_0_f3b9305467" x="207.2984" y="106.222872" style="fill: #008000; fill-opacity: 0.8; stroke: #000000; stroke-opacity: 0.8; stroke-width: 0.438178"/>
    </g>
    <g clip-path="url(#p80d2b301ce)">
     <use xlink:href="#C0_0_f3b9305467" x="171.647181" y="136.22845" style="fill: #ff0000; fill-opacity: 0.8; stroke: #000000; stroke-opacity: 0.8; stroke-width: 0.438178"/>
    </g>
    <g clip-path="url(#p80d2b301ce)">
     <use xlink:href="#C0_0_f3b9305467" x="158.124305" y="131.22752" style="fill: #008000; fill-opacity: 0.8; stroke: #000000; stroke-opacity: 0.8; stroke-width: 0.438178"/>
    </g>
    <g clip-path="url(#p80d2b301ce)">
     <use xlink:href="#C0_0_f3b9305467" x="161.812362" y="119.975429" style="fill: #ff0000; fill-opacity: 0.8; stroke: #000000; stroke-opacity: 0.8; stroke-width: 0.438178"/>
    </g>
    <g clip-path="url(#p80d2b301ce)">
     <use xlink:href="#C0_0_f3b9305467" x="155.6656" y="107.473105" style="fill: #ff0000; fill-opacity: 0.8; stroke: #000000; stroke-opacity: 0.8; stroke-width: 0.438178"/>
    </g>
    <g clip-path="url(#p80d2b301ce)">
     <use xlink:href="#C0_0_f3b9305467" x="170.417829" y="107.473105" style="fill: #008000; fill-opacity: 0.8; stroke: #000000; stroke-opacity: 0.8; stroke-width: 0.438178"/>
    </g>
    <g clip-path="url(#p80d2b301ce)">
     <use xlink:href="#C0_0_f3b9305467" x="166.729771" y="109.97357" style="fill: #008000; fill-opacity: 0.8; stroke: #000000; stroke-opacity: 0.8; stroke-width: 0.438178"/>
    </g>
    <g clip-path="url(#p80d2b301ce)">
     <use xlink:href="#C0_0_f3b9305467" x="207.2984" y="106.222872" style="fill: #008000; fill-opacity: 0.8; stroke: #000000; stroke-opacity: 0.8; stroke-width: 0.438178"/>
    </g>
    <g clip-path="url(#p80d2b301ce)">
     <use xlink:href="#C0_0_f3b9305467" x="199.922286" y="109.97357" style="fill: #ff0000; fill-opacity: 0.8; stroke: #000000; stroke-opacity: 0.8; stroke-width: 0.438178"/>
    </g>
    <g clip-path="url(#p80d2b301ce)">
     <use xlink:href="#C0_0_f3b9305467" x="147.060133" y="114.974499" style="fill: #ff0000; fill-opacity: 0.8; stroke: #000000; stroke-opacity: 0.8; stroke-width: 0.438178"/>
    </g>
    <g clip-path="url(#p80d2b301ce)">
     <use xlink:href="#C0_0_f3b9305467" x="206.069048" y="106.222872" style="fill: #008000; fill-opacity: 0.8; stroke: #000000; stroke-opacity: 0.8; stroke-width: 0.438178"/>
    </g>
    <g clip-path="url(#p80d2b301ce)">
     <use xlink:href="#C0_0_f3b9305467" x="156.894952" y="116.224731" style="fill: #ff0000; fill-opacity: 0.8; stroke: #000000; stroke-opacity: 0.8; stroke-width: 0.438178"/>
    </g>
    <g clip-path="url(#p80d2b301ce)">
     <use xlink:href="#C0_0_f3b9305467" x="122.473086" y="144.980076" style="fill: #ff0000; fill-opacity: 0.8; stroke: #000000; stroke-opacity: 0.8; stroke-width: 0.438178"/>
    </g>
    <g clip-path="url(#p80d2b301ce)">
     <use xlink:href="#C0_0_f3b9305467" x="126.161143" y="114.974499" style="fill: #008000; fill-opacity: 0.8; stroke: #000000; stroke-opacity: 0.8; stroke-width: 0.438178"/>
    </g>
    <g clip-path="url(#p80d2b301ce)">
     <use xlink:href="#C0_0_f3b9305467" x="147.060133" y="109.97357" style="fill: #ff0000; fill-opacity: 0.8; stroke: #000000; stroke-opacity: 0.8; stroke-width: 0.438178"/>
    </g>
    <g clip-path="url(#p80d2b301ce)">
     <use xlink:href="#C0_0_f3b9305467" x="207.2984" y="106.222872" style="fill: #008000; fill-opacity: 0.8; stroke: #000000; stroke-opacity: 0.8; stroke-width: 0.438178"/>
    </g>
    <g clip-path="url(#p80d2b301ce)">
     <use xlink:href="#C0_0_f3b9305467" x="207.2984" y="106.222872" style="fill: #008000; fill-opacity: 0.8; stroke: #000000; stroke-opacity: 0.8; stroke-width: 0.438178"/>
    </g>
    <g clip-path="url(#p80d2b301ce)">
     <use xlink:href="#C0_0_f3b9305467" x="207.2984" y="106.222872" style="fill: #008000; fill-opacity: 0.8; stroke: #000000; stroke-opacity: 0.8; stroke-width: 0.438178"/>
    </g>
    <g clip-path="url(#p80d2b301ce)">
     <use xlink:href="#C0_0_f3b9305467" x="193.775524" y="109.97357" style="fill: #008000; fill-opacity: 0.8; stroke: #000000; stroke-opacity: 0.8; stroke-width: 0.438178"/>
    </g>
    <g clip-path="url(#p80d2b301ce)">
     <use xlink:href="#C0_0_f3b9305467" x="166.729771" y="121.225661" style="fill: #008000; fill-opacity: 0.8; stroke: #000000; stroke-opacity: 0.8; stroke-width: 0.438178"/>
    </g>
    <g clip-path="url(#p80d2b301ce)">
     <use xlink:href="#C0_0_f3b9305467" x="198.692933" y="106.222872" style="fill: #008000; fill-opacity: 0.8; stroke: #000000; stroke-opacity: 0.8; stroke-width: 0.438178"/>
    </g>
    <g clip-path="url(#p80d2b301ce)">
     <use xlink:href="#C0_0_f3b9305467" x="112.638267" y="148.730773" style="fill: #ff0000; fill-opacity: 0.8; stroke: #000000; stroke-opacity: 0.8; stroke-width: 0.438178"/>
    </g>
    <g clip-path="url(#p80d2b301ce)">
     <use xlink:href="#C0_0_f3b9305467" x="110.179562" y="151.231238" style="fill: #ff0000; fill-opacity: 0.8; stroke: #000000; stroke-opacity: 0.8; stroke-width: 0.438178"/>
    </g>
    <g clip-path="url(#p80d2b301ce)">
     <use xlink:href="#C0_0_f3b9305467" x="199.922286" y="113.724267" style="fill: #008000; fill-opacity: 0.8; stroke: #000000; stroke-opacity: 0.8; stroke-width: 0.438178"/>
    </g>
    <g clip-path="url(#p80d2b301ce)">
     <use xlink:href="#C0_0_f3b9305467" x="147.060133" y="114.974499" style="fill: #ff0000; fill-opacity: 0.8; stroke: #000000; stroke-opacity: 0.8; stroke-width: 0.438178"/>
    </g>
    <g clip-path="url(#p80d2b301ce)">
     <use xlink:href="#C0_0_f3b9305467" x="201.151638" y="106.222872" style="fill: #ff0000; fill-opacity: 0.8; stroke: #000000; stroke-opacity: 0.8; stroke-width: 0.438178"/>
    </g>
    <g clip-path="url(#p80d2b301ce)">
     <use xlink:href="#C0_0_f3b9305467" x="177.793943" y="114.974499" style="fill: #ff0000; fill-opacity: 0.8; stroke: #000000; stroke-opacity: 0.8; stroke-width: 0.438178"/>
    </g>
    <g clip-path="url(#p80d2b301ce)">
     <use xlink:href="#C0_0_f3b9305467" x="166.729771" y="109.97357" style="fill: #ff0000; fill-opacity: 0.8; stroke: #000000; stroke-opacity: 0.8; stroke-width: 0.438178"/>
    </g>
    <g clip-path="url(#p80d2b301ce)">
     <use xlink:href="#C0_0_f3b9305467" x="167.959124" y="126.22659" style="fill: #ff0000; fill-opacity: 0.8; stroke: #000000; stroke-opacity: 0.8; stroke-width: 0.438178"/>
    </g>
    <g clip-path="url(#p80d2b301ce)">
     <use xlink:href="#C0_0_f3b9305467" x="193.775524" y="109.97357" style="fill: #008000; fill-opacity: 0.8; stroke: #000000; stroke-opacity: 0.8; stroke-width: 0.438178"/>
    </g>
    <g clip-path="url(#p80d2b301ce)">
     <use xlink:href="#C0_0_f3b9305467" x="185.170057" y="113.724267" style="fill: #008000; fill-opacity: 0.8; stroke: #000000; stroke-opacity: 0.8; stroke-width: 0.438178"/>
    </g>
    <g clip-path="url(#p80d2b301ce)">
     <use xlink:href="#C0_0_f3b9305467" x="171.647181" y="106.222872" style="fill: #008000; fill-opacity: 0.8; stroke: #000000; stroke-opacity: 0.8; stroke-width: 0.438178"/>
    </g>
    <g clip-path="url(#p80d2b301ce)">
     <use xlink:href="#C0_0_f3b9305467" x="154.436248" y="154.981935" style="fill: #ff0000; fill-opacity: 0.8; stroke: #000000; stroke-opacity: 0.8; stroke-width: 0.438178"/>
    </g>
    <g clip-path="url(#p80d2b301ce)">
     <use xlink:href="#C0_0_f3b9305467" x="207.2984" y="106.222872" style="fill: #008000; fill-opacity: 0.8; stroke: #000000; stroke-opacity: 0.8; stroke-width: 0.438178"/>
    </g>
    <g clip-path="url(#p80d2b301ce)">
     <use xlink:href="#C0_0_f3b9305467" x="156.894952" y="127.476823" style="fill: #ff0000; fill-opacity: 0.8; stroke: #000000; stroke-opacity: 0.8; stroke-width: 0.438178"/>
    </g>
   </g>
   <g id="PathCollection_2"/>
   <g id="PathCollection_3"/>
   <g id="matplotlib.axis_1">
    <g id="xtick_1">
     <g id="line2d_1">
      <defs>
       <path id="m7383af5c9c" d="M 0 0 
L 0 3.5 
" style="stroke: #000000; stroke-width: 0.8"/>
      </defs>
      <g>
       <use xlink:href="#m7383af5c9c" x="52.4" y="213.742857" style="stroke: #000000; stroke-width: 0.8"/>
      </g>
     </g>
     <g id="text_1">
      <!-- 0 -->
      <g transform="translate(49.21875 228.341295) scale(0.1 -0.1)">
       <defs>
        <path id="DejaVuSans-30" d="M 2034 4250 
Q 1547 4250 1301 3770 
Q 1056 3291 1056 2328 
Q 1056 1369 1301 889 
Q 1547 409 2034 409 
Q 2525 409 2770 889 
Q 3016 1369 3016 2328 
Q 3016 3291 2770 3770 
Q 2525 4250 2034 4250 
z
M 2034 4750 
Q 2819 4750 3233 4129 
Q 3647 3509 3647 2328 
Q 3647 1150 3233 529 
Q 2819 -91 2034 -91 
Q 1250 -91 836 529 
Q 422 1150 422 2328 
Q 422 3509 836 4129 
Q 1250 4750 2034 4750 
z
" transform="scale(0.015625)"/>
       </defs>
       <use xlink:href="#DejaVuSans-30"/>
      </g>
     </g>
    </g>
    <g id="xtick_2">
     <g id="line2d_2">
      <g>
       <use xlink:href="#m7383af5c9c" x="83.13381" y="213.742857" style="stroke: #000000; stroke-width: 0.8"/>
      </g>
     </g>
     <g id="text_2">
      <!-- 25 -->
      <g transform="translate(76.77131 228.341295) scale(0.1 -0.1)">
       <defs>
        <path id="DejaVuSans-32" d="M 1228 531 
L 3431 531 
L 3431 0 
L 469 0 
L 469 531 
Q 828 903 1448 1529 
Q 2069 2156 2228 2338 
Q 2531 2678 2651 2914 
Q 2772 3150 2772 3378 
Q 2772 3750 2511 3984 
Q 2250 4219 1831 4219 
Q 1534 4219 1204 4116 
Q 875 4013 500 3803 
L 500 4441 
Q 881 4594 1212 4672 
Q 1544 4750 1819 4750 
Q 2544 4750 2975 4387 
Q 3406 4025 3406 3419 
Q 3406 3131 3298 2873 
Q 3191 2616 2906 2266 
Q 2828 2175 2409 1742 
Q 1991 1309 1228 531 
z
" transform="scale(0.015625)"/>
        <path id="DejaVuSans-35" d="M 691 4666 
L 3169 4666 
L 3169 4134 
L 1269 4134 
L 1269 2991 
Q 1406 3038 1543 3061 
Q 1681 3084 1819 3084 
Q 2600 3084 3056 2656 
Q 3513 2228 3513 1497 
Q 3513 744 3044 326 
Q 2575 -91 1722 -91 
Q 1428 -91 1123 -41 
Q 819 9 494 109 
L 494 744 
Q 775 591 1075 516 
Q 1375 441 1709 441 
Q 2250 441 2565 725 
Q 2881 1009 2881 1497 
Q 2881 1984 2565 2268 
Q 2250 2553 1709 2553 
Q 1456 2553 1204 2497 
Q 953 2441 691 2322 
L 691 4666 
z
" transform="scale(0.015625)"/>
       </defs>
       <use xlink:href="#DejaVuSans-32"/>
       <use xlink:href="#DejaVuSans-35" x="63.623047"/>
      </g>
     </g>
    </g>
    <g id="xtick_3">
     <g id="line2d_3">
      <g>
       <use xlink:href="#m7383af5c9c" x="113.867619" y="213.742857" style="stroke: #000000; stroke-width: 0.8"/>
      </g>
     </g>
     <g id="text_3">
      <!-- 50 -->
      <g transform="translate(107.505119 228.341295) scale(0.1 -0.1)">
       <use xlink:href="#DejaVuSans-35"/>
       <use xlink:href="#DejaVuSans-30" x="63.623047"/>
      </g>
     </g>
    </g>
    <g id="xtick_4">
     <g id="line2d_4">
      <g>
       <use xlink:href="#m7383af5c9c" x="144.601429" y="213.742857" style="stroke: #000000; stroke-width: 0.8"/>
      </g>
     </g>
     <g id="text_4">
      <!-- 75 -->
      <g transform="translate(138.238929 228.341295) scale(0.1 -0.1)">
       <defs>
        <path id="DejaVuSans-37" d="M 525 4666 
L 3525 4666 
L 3525 4397 
L 1831 0 
L 1172 0 
L 2766 4134 
L 525 4134 
L 525 4666 
z
" transform="scale(0.015625)"/>
       </defs>
       <use xlink:href="#DejaVuSans-37"/>
       <use xlink:href="#DejaVuSans-35" x="63.623047"/>
      </g>
     </g>
    </g>
    <g id="xtick_5">
     <g id="line2d_5">
      <g>
       <use xlink:href="#m7383af5c9c" x="175.335238" y="213.742857" style="stroke: #000000; stroke-width: 0.8"/>
      </g>
     </g>
     <g id="text_5">
      <!-- 100 -->
      <g transform="translate(165.791488 228.341295) scale(0.1 -0.1)">
       <defs>
        <path id="DejaVuSans-31" d="M 794 531 
L 1825 531 
L 1825 4091 
L 703 3866 
L 703 4441 
L 1819 4666 
L 2450 4666 
L 2450 531 
L 3481 531 
L 3481 0 
L 794 0 
L 794 531 
z
" transform="scale(0.015625)"/>
       </defs>
       <use xlink:href="#DejaVuSans-31"/>
       <use xlink:href="#DejaVuSans-30" x="63.623047"/>
       <use xlink:href="#DejaVuSans-30" x="127.246094"/>
      </g>
     </g>
    </g>
    <g id="xtick_6">
     <g id="line2d_6">
      <g>
       <use xlink:href="#m7383af5c9c" x="206.069048" y="213.742857" style="stroke: #000000; stroke-width: 0.8"/>
      </g>
     </g>
     <g id="text_6">
      <!-- 125 -->
      <g transform="translate(196.525298 228.341295) scale(0.1 -0.1)">
       <use xlink:href="#DejaVuSans-31"/>
       <use xlink:href="#DejaVuSans-32" x="63.623047"/>
       <use xlink:href="#DejaVuSans-35" x="127.246094"/>
      </g>
     </g>
    </g>
    <g id="xtick_7">
     <g id="line2d_7">
      <g>
       <use xlink:href="#m7383af5c9c" x="236.802857" y="213.742857" style="stroke: #000000; stroke-width: 0.8"/>
      </g>
     </g>
     <g id="text_7">
      <!-- 150 -->
      <g transform="translate(227.259107 228.341295) scale(0.1 -0.1)">
       <use xlink:href="#DejaVuSans-31"/>
       <use xlink:href="#DejaVuSans-35" x="63.623047"/>
       <use xlink:href="#DejaVuSans-30" x="127.246094"/>
      </g>
     </g>
    </g>
    <g id="text_8">
     <!-- uex Score -->
     <g transform="translate(114.951116 243.539107) scale(0.12 -0.12)">
      <defs>
       <path id="DejaVuSans-75" d="M 544 1381 
L 544 3500 
L 1119 3500 
L 1119 1403 
Q 1119 906 1312 657 
Q 1506 409 1894 409 
Q 2359 409 2629 706 
Q 2900 1003 2900 1516 
L 2900 3500 
L 3475 3500 
L 3475 0 
L 2900 0 
L 2900 538 
Q 2691 219 2414 64 
Q 2138 -91 1772 -91 
Q 1169 -91 856 284 
Q 544 659 544 1381 
z
M 1991 3584 
L 1991 3584 
z
" transform="scale(0.015625)"/>
       <path id="DejaVuSans-65" d="M 3597 1894 
L 3597 1613 
L 953 1613 
Q 991 1019 1311 708 
Q 1631 397 2203 397 
Q 2534 397 2845 478 
Q 3156 559 3463 722 
L 3463 178 
Q 3153 47 2828 -22 
Q 2503 -91 2169 -91 
Q 1331 -91 842 396 
Q 353 884 353 1716 
Q 353 2575 817 3079 
Q 1281 3584 2069 3584 
Q 2775 3584 3186 3129 
Q 3597 2675 3597 1894 
z
M 3022 2063 
Q 3016 2534 2758 2815 
Q 2500 3097 2075 3097 
Q 1594 3097 1305 2825 
Q 1016 2553 972 2059 
L 3022 2063 
z
" transform="scale(0.015625)"/>
       <path id="DejaVuSans-78" d="M 3513 3500 
L 2247 1797 
L 3578 0 
L 2900 0 
L 1881 1375 
L 863 0 
L 184 0 
L 1544 1831 
L 300 3500 
L 978 3500 
L 1906 2253 
L 2834 3500 
L 3513 3500 
z
" transform="scale(0.015625)"/>
       <path id="DejaVuSans-20" transform="scale(0.015625)"/>
       <path id="DejaVuSans-53" d="M 3425 4513 
L 3425 3897 
Q 3066 4069 2747 4153 
Q 2428 4238 2131 4238 
Q 1616 4238 1336 4038 
Q 1056 3838 1056 3469 
Q 1056 3159 1242 3001 
Q 1428 2844 1947 2747 
L 2328 2669 
Q 3034 2534 3370 2195 
Q 3706 1856 3706 1288 
Q 3706 609 3251 259 
Q 2797 -91 1919 -91 
Q 1588 -91 1214 -16 
Q 841 59 441 206 
L 441 856 
Q 825 641 1194 531 
Q 1563 422 1919 422 
Q 2459 422 2753 634 
Q 3047 847 3047 1241 
Q 3047 1584 2836 1778 
Q 2625 1972 2144 2069 
L 1759 2144 
Q 1053 2284 737 2584 
Q 422 2884 422 3419 
Q 422 4038 858 4394 
Q 1294 4750 2059 4750 
Q 2388 4750 2728 4690 
Q 3069 4631 3425 4513 
z
" transform="scale(0.015625)"/>
       <path id="DejaVuSans-63" d="M 3122 3366 
L 3122 2828 
Q 2878 2963 2633 3030 
Q 2388 3097 2138 3097 
Q 1578 3097 1268 2742 
Q 959 2388 959 1747 
Q 959 1106 1268 751 
Q 1578 397 2138 397 
Q 2388 397 2633 464 
Q 2878 531 3122 666 
L 3122 134 
Q 2881 22 2623 -34 
Q 2366 -91 2075 -91 
Q 1284 -91 818 406 
Q 353 903 353 1747 
Q 353 2603 823 3093 
Q 1294 3584 2113 3584 
Q 2378 3584 2631 3529 
Q 2884 3475 3122 3366 
z
" transform="scale(0.015625)"/>
       <path id="DejaVuSans-6f" d="M 1959 3097 
Q 1497 3097 1228 2736 
Q 959 2375 959 1747 
Q 959 1119 1226 758 
Q 1494 397 1959 397 
Q 2419 397 2687 759 
Q 2956 1122 2956 1747 
Q 2956 2369 2687 2733 
Q 2419 3097 1959 3097 
z
M 1959 3584 
Q 2709 3584 3137 3096 
Q 3566 2609 3566 1747 
Q 3566 888 3137 398 
Q 2709 -91 1959 -91 
Q 1206 -91 779 398 
Q 353 888 353 1747 
Q 353 2609 779 3096 
Q 1206 3584 1959 3584 
z
" transform="scale(0.015625)"/>
       <path id="DejaVuSans-72" d="M 2631 2963 
Q 2534 3019 2420 3045 
Q 2306 3072 2169 3072 
Q 1681 3072 1420 2755 
Q 1159 2438 1159 1844 
L 1159 0 
L 581 0 
L 581 3500 
L 1159 3500 
L 1159 2956 
Q 1341 3275 1631 3429 
Q 1922 3584 2338 3584 
Q 2397 3584 2469 3576 
Q 2541 3569 2628 3553 
L 2631 2963 
z
" transform="scale(0.015625)"/>
      </defs>
      <use xlink:href="#DejaVuSans-75"/>
      <use xlink:href="#DejaVuSans-65" x="63.378906"/>
      <use xlink:href="#DejaVuSans-78" x="123.152344"/>
      <use xlink:href="#DejaVuSans-20" x="182.332031"/>
      <use xlink:href="#DejaVuSans-53" x="214.119141"/>
      <use xlink:href="#DejaVuSans-63" x="277.595703"/>
      <use xlink:href="#DejaVuSans-6f" x="332.576172"/>
      <use xlink:href="#DejaVuSans-72" x="393.757812"/>
      <use xlink:href="#DejaVuSans-65" x="432.621094"/>
     </g>
    </g>
   </g>
   <g id="matplotlib.axis_2">
    <g id="ytick_1">
     <g id="line2d_8">
      <defs>
       <path id="md40875bc34" d="M 0 0 
L -3.5 0 
" style="stroke: #000000; stroke-width: 0.8"/>
      </defs>
      <g>
       <use xlink:href="#md40875bc34" x="52.4" y="213.742857" style="stroke: #000000; stroke-width: 0.8"/>
      </g>
     </g>
     <g id="text_9">
      <!-- 0 -->
      <g transform="translate(39.0375 217.542076) scale(0.1 -0.1)">
       <use xlink:href="#DejaVuSans-30"/>
      </g>
     </g>
    </g>
    <g id="ytick_2">
     <g id="line2d_9">
      <g>
       <use xlink:href="#md40875bc34" x="52.4" y="188.73821" style="stroke: #000000; stroke-width: 0.8"/>
      </g>
     </g>
     <g id="text_10">
      <!-- 20 -->
      <g transform="translate(32.675 192.537428) scale(0.1 -0.1)">
       <use xlink:href="#DejaVuSans-32"/>
       <use xlink:href="#DejaVuSans-30" x="63.623047"/>
      </g>
     </g>
    </g>
    <g id="ytick_3">
     <g id="line2d_10">
      <g>
       <use xlink:href="#md40875bc34" x="52.4" y="163.733562" style="stroke: #000000; stroke-width: 0.8"/>
      </g>
     </g>
     <g id="text_11">
      <!-- 40 -->
      <g transform="translate(32.675 167.532781) scale(0.1 -0.1)">
       <defs>
        <path id="DejaVuSans-34" d="M 2419 4116 
L 825 1625 
L 2419 1625 
L 2419 4116 
z
M 2253 4666 
L 3047 4666 
L 3047 1625 
L 3713 1625 
L 3713 1100 
L 3047 1100 
L 3047 0 
L 2419 0 
L 2419 1100 
L 313 1100 
L 313 1709 
L 2253 4666 
z
" transform="scale(0.015625)"/>
       </defs>
       <use xlink:href="#DejaVuSans-34"/>
       <use xlink:href="#DejaVuSans-30" x="63.623047"/>
      </g>
     </g>
    </g>
    <g id="ytick_4">
     <g id="line2d_11">
      <g>
       <use xlink:href="#md40875bc34" x="52.4" y="138.728914" style="stroke: #000000; stroke-width: 0.8"/>
      </g>
     </g>
     <g id="text_12">
      <!-- 60 -->
      <g transform="translate(32.675 142.528133) scale(0.1 -0.1)">
       <defs>
        <path id="DejaVuSans-36" d="M 2113 2584 
Q 1688 2584 1439 2293 
Q 1191 2003 1191 1497 
Q 1191 994 1439 701 
Q 1688 409 2113 409 
Q 2538 409 2786 701 
Q 3034 994 3034 1497 
Q 3034 2003 2786 2293 
Q 2538 2584 2113 2584 
z
M 3366 4563 
L 3366 3988 
Q 3128 4100 2886 4159 
Q 2644 4219 2406 4219 
Q 1781 4219 1451 3797 
Q 1122 3375 1075 2522 
Q 1259 2794 1537 2939 
Q 1816 3084 2150 3084 
Q 2853 3084 3261 2657 
Q 3669 2231 3669 1497 
Q 3669 778 3244 343 
Q 2819 -91 2113 -91 
Q 1303 -91 875 529 
Q 447 1150 447 2328 
Q 447 3434 972 4092 
Q 1497 4750 2381 4750 
Q 2619 4750 2861 4703 
Q 3103 4656 3366 4563 
z
" transform="scale(0.015625)"/>
       </defs>
       <use xlink:href="#DejaVuSans-36"/>
       <use xlink:href="#DejaVuSans-30" x="63.623047"/>
      </g>
     </g>
    </g>
    <g id="ytick_5">
     <g id="line2d_12">
      <g>
       <use xlink:href="#md40875bc34" x="52.4" y="113.724267" style="stroke: #000000; stroke-width: 0.8"/>
      </g>
     </g>
     <g id="text_13">
      <!-- 80 -->
      <g transform="translate(32.675 117.523485) scale(0.1 -0.1)">
       <defs>
        <path id="DejaVuSans-38" d="M 2034 2216 
Q 1584 2216 1326 1975 
Q 1069 1734 1069 1313 
Q 1069 891 1326 650 
Q 1584 409 2034 409 
Q 2484 409 2743 651 
Q 3003 894 3003 1313 
Q 3003 1734 2745 1975 
Q 2488 2216 2034 2216 
z
M 1403 2484 
Q 997 2584 770 2862 
Q 544 3141 544 3541 
Q 544 4100 942 4425 
Q 1341 4750 2034 4750 
Q 2731 4750 3128 4425 
Q 3525 4100 3525 3541 
Q 3525 3141 3298 2862 
Q 3072 2584 2669 2484 
Q 3125 2378 3379 2068 
Q 3634 1759 3634 1313 
Q 3634 634 3220 271 
Q 2806 -91 2034 -91 
Q 1263 -91 848 271 
Q 434 634 434 1313 
Q 434 1759 690 2068 
Q 947 2378 1403 2484 
z
M 1172 3481 
Q 1172 3119 1398 2916 
Q 1625 2713 2034 2713 
Q 2441 2713 2670 2916 
Q 2900 3119 2900 3481 
Q 2900 3844 2670 4047 
Q 2441 4250 2034 4250 
Q 1625 4250 1398 4047 
Q 1172 3844 1172 3481 
z
" transform="scale(0.015625)"/>
       </defs>
       <use xlink:href="#DejaVuSans-38"/>
       <use xlink:href="#DejaVuSans-30" x="63.623047"/>
      </g>
     </g>
    </g>
    <g id="ytick_6">
     <g id="line2d_13">
      <g>
       <use xlink:href="#md40875bc34" x="52.4" y="88.719619" style="stroke: #000000; stroke-width: 0.8"/>
      </g>
     </g>
     <g id="text_14">
      <!-- 100 -->
      <g transform="translate(26.3125 92.518838) scale(0.1 -0.1)">
       <use xlink:href="#DejaVuSans-31"/>
       <use xlink:href="#DejaVuSans-30" x="63.623047"/>
       <use xlink:href="#DejaVuSans-30" x="127.246094"/>
      </g>
     </g>
    </g>
    <g id="ytick_7">
     <g id="line2d_14">
      <g>
       <use xlink:href="#md40875bc34" x="52.4" y="63.714971" style="stroke: #000000; stroke-width: 0.8"/>
      </g>
     </g>
     <g id="text_15">
      <!-- 120 -->
      <g transform="translate(26.3125 67.51419) scale(0.1 -0.1)">
       <use xlink:href="#DejaVuSans-31"/>
       <use xlink:href="#DejaVuSans-32" x="63.623047"/>
       <use xlink:href="#DejaVuSans-30" x="127.246094"/>
      </g>
     </g>
    </g>
    <g id="ytick_8">
     <g id="line2d_15">
      <g>
       <use xlink:href="#md40875bc34" x="52.4" y="38.710324" style="stroke: #000000; stroke-width: 0.8"/>
      </g>
     </g>
     <g id="text_16">
      <!-- 140 -->
      <g transform="translate(26.3125 42.509543) scale(0.1 -0.1)">
       <use xlink:href="#DejaVuSans-31"/>
       <use xlink:href="#DejaVuSans-34" x="63.623047"/>
       <use xlink:href="#DejaVuSans-30" x="127.246094"/>
      </g>
     </g>
    </g>
    <g id="text_17">
     <!-- lex Score -->
     <g transform="translate(19.816875 147.490116) rotate(-90) scale(0.12 -0.12)">
      <defs>
       <path id="DejaVuSans-6c" d="M 603 4863 
L 1178 4863 
L 1178 0 
L 603 0 
L 603 4863 
z
" transform="scale(0.015625)"/>
      </defs>
      <use xlink:href="#DejaVuSans-6c"/>
      <use xlink:href="#DejaVuSans-65" x="27.783203"/>
      <use xlink:href="#DejaVuSans-78" x="87.556641"/>
      <use xlink:href="#DejaVuSans-20" x="146.736328"/>
      <use xlink:href="#DejaVuSans-53" x="178.523438"/>
      <use xlink:href="#DejaVuSans-63" x="242"/>
      <use xlink:href="#DejaVuSans-6f" x="296.980469"/>
      <use xlink:href="#DejaVuSans-72" x="358.162109"/>
      <use xlink:href="#DejaVuSans-65" x="397.025391"/>
     </g>
    </g>
   </g>
   <g id="PathCollection_4">
    <path d="M 94.562462 26.208 
L 94.562462 27.150386 
L 95.48911 28.092772 
L 95.48911 29.035159 
L 96.415757 29.977545 
L 96.415757 30.919931 
L 97.342405 31.862317 
L 97.342405 32.804704 
L 98.269052 33.74709 
L 98.269052 34.689476 
L 99.1957 35.631862 
L 99.1957 36.574248 
L 100.122347 37.516635 
L 100.122347 38.459021 
L 101.048995 39.401407 
L 101.048995 40.343793 
L 101.975642 41.286179 
L 101.975642 42.228566 
L 102.90229 43.170952 
L 102.90229 44.113338 
L 103.828938 45.055724 
L 103.828938 45.998111 
L 104.755585 46.940497 
L 104.755585 47.882883 
L 105.682233 48.825269 
L 105.682233 49.767655 
L 106.60888 50.710042 
L 106.60888 51.652428 
L 107.535528 52.594814 
L 107.535528 53.5372 
L 108.462175 54.479587 
L 108.462175 55.421973 
L 109.388823 56.364359 
L 109.388823 57.306745 
L 110.31547 58.249131 
L 110.31547 59.191518 
L 112.168765 61.07629 
L 112.168765 62.018676 
L 113.095413 62.961062 
L 113.095413 63.903449 
L 114.02206 64.845835 
L 114.02206 65.788221 
L 114.948708 66.730607 
L 114.948708 67.672994 
L 115.875355 68.61538 
L 115.875355 69.557766 
L 116.802003 70.500152 
L 116.802003 71.442538 
L 117.72865 72.384925 
L 117.72865 73.327311 
L 118.655298 74.269697 
L 118.655298 75.212083 
L 119.581945 76.154469 
L 119.581945 77.096856 
L 120.508593 78.039242 
L 120.508593 78.981628 
L 121.43524 79.924014 
L 121.43524 80.866401 
L 122.361888 81.808787 
L 122.361888 82.751173 
L 123.288536 83.693559 
L 123.288536 84.635945 
L 124.215183 85.578332 
L 124.215183 86.520718 
L 125.141831 87.463104 
L 125.141831 88.40549 
L 126.068478 89.347877 
L 126.068478 90.290263 
L 126.995126 91.232649 
L 126.995126 92.175035 
L 127.921773 93.117421 
L 127.921773 94.059808 
L 128.848421 95.002194 
L 128.848421 95.94458 
L 129.775068 96.886966 
L 129.775068 97.829352 
L 130.701716 98.771739 
L 130.701716 99.714125 
L 131.628363 100.656511 
L 131.628363 101.598897 
L 132.555011 102.541284 
L 132.555011 103.48367 
L 133.481658 104.426056 
L 133.481658 105.368442 
L 134.408306 106.310828 
L 134.408306 107.253215 
L 135.334953 108.195601 
L 135.334953 109.137987 
L 136.261601 110.080373 
L 136.261601 111.02276 
L 137.188248 111.965146 
L 137.188248 112.907532 
L 138.114896 113.849918 
L 138.114896 114.792304 
L 139.041543 115.734691 
L 139.041543 116.677077 
L 139.968191 117.619463 
L 139.968191 118.561849 
L 140.894838 119.504235 
L 140.894838 120.446622 
L 141.821486 121.389008 
L 141.821486 122.331394 
L 142.748134 123.27378 
L 142.748134 124.216167 
L 143.674781 125.158553 
L 143.674781 126.100939 
L 144.601429 127.043325 
L 144.601429 127.985711 
L 146.454724 129.870484 
L 146.454724 130.81287 
L 147.381371 131.755256 
L 147.381371 132.697642 
L 148.308019 133.640029 
L 148.308019 134.582415 
L 149.234666 135.524801 
L 149.234666 136.467187 
L 150.161314 137.409574 
L 150.161314 138.35196 
L 151.087961 139.294346 
L 151.087961 140.236732 
L 152.014609 141.179118 
L 152.014609 142.121505 
L 152.941256 143.063891 
L 152.941256 144.006277 
L 153.867904 144.948663 
L 153.867904 145.89105 
L 154.794551 146.833436 
L 154.794551 147.775822 
L 155.721199 148.718208 
L 155.721199 149.660594 
L 156.647846 150.602981 
L 156.647846 151.545367 
L 157.574494 152.487753 
L 157.574494 153.430139 
L 158.501141 154.372525 
L 158.501141 155.314912 
L 159.427789 156.257298 
L 159.427789 157.199684 
L 160.354436 158.14207 
L 160.354436 159.084457 
L 161.281084 160.026843 
L 161.281084 160.969229 
L 162.207732 161.911615 
L 162.207732 162.854001 
L 163.134379 163.796388 
L 163.134379 164.738774 
L 164.061027 165.68116 
L 164.061027 166.623546 
L 164.987674 167.565933 
L 164.987674 168.508319 
L 165.914322 169.450705 
L 165.914322 170.393091 
L 166.840969 171.335477 
L 166.840969 172.277864 
L 167.767617 173.22025 
L 167.767617 174.162636 
L 168.694264 175.105022 
L 168.694264 176.047408 
L 169.620912 176.989795 
L 169.620912 177.932181 
L 170.547559 178.874567 
L 170.547559 179.816953 
L 171.474207 180.75934 
L 171.474207 181.701726 
L 172.400854 182.644112 
L 172.400854 183.586498 
L 173.327502 184.528884 
L 173.327502 185.471271 
L 174.254149 186.413657 
L 174.254149 187.356043 
L 175.180797 188.298429 
L 175.180797 189.240816 
L 176.107444 190.183202 
L 176.107444 191.125588 
L 177.034092 192.067974 
L 177.034092 193.01036 
L 177.960739 193.952747 
L 177.960739 194.895133 
L 178.887387 195.837519 
L 178.887387 196.779905 
L 180.740682 198.664678 
L 180.740682 199.607064 
L 181.66733 200.54945 
L 181.66733 201.491836 
L 182.593977 202.434223 
L 182.593977 203.376609 
L 183.520625 204.318995 
L 183.520625 205.261381 
L 184.447272 206.203767 
L 184.447272 207.146154 
L 185.37392 208.08854 
L 185.37392 209.030926 
L 186.300567 209.973312 
L 186.300567 210.915698 
L 187.227215 211.858085 
L 187.227215 212.800471 
L 188.153862 213.742857 
L 188.153862 213.742857 
" clip-path="url(#p80d2b301ce)" style="fill: none; stroke-dasharray: 3.7,1.6; stroke-dashoffset: 0; stroke: #808080"/>
   </g>
   <g id="patch_3">
    <path d="M 52.4 213.742857 
L 52.4 26.208 
" style="fill: none; stroke: #000000; stroke-width: 0.8; stroke-linejoin: miter; stroke-linecap: square"/>
   </g>
   <g id="patch_4">
    <path d="M 236.802857 213.742857 
L 236.802857 26.208 
" style="fill: none; stroke: #000000; stroke-width: 0.8; stroke-linejoin: miter; stroke-linecap: square"/>
   </g>
   <g id="patch_5">
    <path d="M 52.4 213.742857 
L 236.802857 213.742857 
" style="fill: none; stroke: #000000; stroke-width: 0.8; stroke-linejoin: miter; stroke-linecap: square"/>
   </g>
   <g id="patch_6">
    <path d="M 52.4 26.208 
L 236.802857 26.208 
" style="fill: none; stroke: #000000; stroke-width: 0.8; stroke-linejoin: miter; stroke-linecap: square"/>
   </g>
   <g id="text_18">
    <!-- Timepoint 2 -->
    <g transform="translate(129.723694 14.609094) scale(0.05 -0.05)">
     <defs>
      <path id="DejaVuSans-54" d="M -19 4666 
L 3928 4666 
L 3928 4134 
L 2272 4134 
L 2272 0 
L 1638 0 
L 1638 4134 
L -19 4134 
L -19 4666 
z
" transform="scale(0.015625)"/>
      <path id="DejaVuSans-69" d="M 603 3500 
L 1178 3500 
L 1178 0 
L 603 0 
L 603 3500 
z
M 603 4863 
L 1178 4863 
L 1178 4134 
L 603 4134 
L 603 4863 
z
" transform="scale(0.015625)"/>
      <path id="DejaVuSans-6d" d="M 3328 2828 
Q 3544 3216 3844 3400 
Q 4144 3584 4550 3584 
Q 5097 3584 5394 3201 
Q 5691 2819 5691 2113 
L 5691 0 
L 5113 0 
L 5113 2094 
Q 5113 2597 4934 2840 
Q 4756 3084 4391 3084 
Q 3944 3084 3684 2787 
Q 3425 2491 3425 1978 
L 3425 0 
L 2847 0 
L 2847 2094 
Q 2847 2600 2669 2842 
Q 2491 3084 2119 3084 
Q 1678 3084 1418 2786 
Q 1159 2488 1159 1978 
L 1159 0 
L 581 0 
L 581 3500 
L 1159 3500 
L 1159 2956 
Q 1356 3278 1631 3431 
Q 1906 3584 2284 3584 
Q 2666 3584 2933 3390 
Q 3200 3197 3328 2828 
z
" transform="scale(0.015625)"/>
      <path id="DejaVuSans-70" d="M 1159 525 
L 1159 -1331 
L 581 -1331 
L 581 3500 
L 1159 3500 
L 1159 2969 
Q 1341 3281 1617 3432 
Q 1894 3584 2278 3584 
Q 2916 3584 3314 3078 
Q 3713 2572 3713 1747 
Q 3713 922 3314 415 
Q 2916 -91 2278 -91 
Q 1894 -91 1617 61 
Q 1341 213 1159 525 
z
M 3116 1747 
Q 3116 2381 2855 2742 
Q 2594 3103 2138 3103 
Q 1681 3103 1420 2742 
Q 1159 2381 1159 1747 
Q 1159 1113 1420 752 
Q 1681 391 2138 391 
Q 2594 391 2855 752 
Q 3116 1113 3116 1747 
z
" transform="scale(0.015625)"/>
      <path id="DejaVuSans-6e" d="M 3513 2113 
L 3513 0 
L 2938 0 
L 2938 2094 
Q 2938 2591 2744 2837 
Q 2550 3084 2163 3084 
Q 1697 3084 1428 2787 
Q 1159 2491 1159 1978 
L 1159 0 
L 581 0 
L 581 3500 
L 1159 3500 
L 1159 2956 
Q 1366 3272 1645 3428 
Q 1925 3584 2291 3584 
Q 2894 3584 3203 3211 
Q 3513 2838 3513 2113 
z
" transform="scale(0.015625)"/>
      <path id="DejaVuSans-74" d="M 1172 4494 
L 1172 3500 
L 2356 3500 
L 2356 3053 
L 1172 3053 
L 1172 1153 
Q 1172 725 1289 603 
Q 1406 481 1766 481 
L 2356 481 
L 2356 0 
L 1766 0 
Q 1100 0 847 248 
Q 594 497 594 1153 
L 594 3053 
L 172 3053 
L 172 3500 
L 594 3500 
L 594 4494 
L 1172 4494 
z
" transform="scale(0.015625)"/>
     </defs>
     <use xlink:href="#DejaVuSans-54"/>
     <use xlink:href="#DejaVuSans-69" x="57.958984"/>
     <use xlink:href="#DejaVuSans-6d" x="85.742188"/>
     <use xlink:href="#DejaVuSans-65" x="183.154297"/>
     <use xlink:href="#DejaVuSans-70" x="244.677734"/>
     <use xlink:href="#DejaVuSans-6f" x="308.154297"/>
     <use xlink:href="#DejaVuSans-69" x="369.335938"/>
     <use xlink:href="#DejaVuSans-6e" x="397.119141"/>
     <use xlink:href="#DejaVuSans-74" x="460.498047"/>
     <use xlink:href="#DejaVuSans-20" x="499.707031"/>
     <use xlink:href="#DejaVuSans-32" x="531.494141"/>
    </g>
    <!-- Dots: Fixed clustering from tp==0 (good=green, bad=red) -->
    <g transform="translate(71.053382 20.208) scale(0.05 -0.05)">
     <defs>
      <path id="DejaVuSans-44" d="M 1259 4147 
L 1259 519 
L 2022 519 
Q 2988 519 3436 956 
Q 3884 1394 3884 2338 
Q 3884 3275 3436 3711 
Q 2988 4147 2022 4147 
L 1259 4147 
z
M 628 4666 
L 1925 4666 
Q 3281 4666 3915 4102 
Q 4550 3538 4550 2338 
Q 4550 1131 3912 565 
Q 3275 0 1925 0 
L 628 0 
L 628 4666 
z
" transform="scale(0.015625)"/>
      <path id="DejaVuSans-73" d="M 2834 3397 
L 2834 2853 
Q 2591 2978 2328 3040 
Q 2066 3103 1784 3103 
Q 1356 3103 1142 2972 
Q 928 2841 928 2578 
Q 928 2378 1081 2264 
Q 1234 2150 1697 2047 
L 1894 2003 
Q 2506 1872 2764 1633 
Q 3022 1394 3022 966 
Q 3022 478 2636 193 
Q 2250 -91 1575 -91 
Q 1294 -91 989 -36 
Q 684 19 347 128 
L 347 722 
Q 666 556 975 473 
Q 1284 391 1588 391 
Q 1994 391 2212 530 
Q 2431 669 2431 922 
Q 2431 1156 2273 1281 
Q 2116 1406 1581 1522 
L 1381 1569 
Q 847 1681 609 1914 
Q 372 2147 372 2553 
Q 372 3047 722 3315 
Q 1072 3584 1716 3584 
Q 2034 3584 2315 3537 
Q 2597 3491 2834 3397 
z
" transform="scale(0.015625)"/>
      <path id="DejaVuSans-3a" d="M 750 794 
L 1409 794 
L 1409 0 
L 750 0 
L 750 794 
z
M 750 3309 
L 1409 3309 
L 1409 2516 
L 750 2516 
L 750 3309 
z
" transform="scale(0.015625)"/>
      <path id="DejaVuSans-46" d="M 628 4666 
L 3309 4666 
L 3309 4134 
L 1259 4134 
L 1259 2759 
L 3109 2759 
L 3109 2228 
L 1259 2228 
L 1259 0 
L 628 0 
L 628 4666 
z
" transform="scale(0.015625)"/>
      <path id="DejaVuSans-64" d="M 2906 2969 
L 2906 4863 
L 3481 4863 
L 3481 0 
L 2906 0 
L 2906 525 
Q 2725 213 2448 61 
Q 2172 -91 1784 -91 
Q 1150 -91 751 415 
Q 353 922 353 1747 
Q 353 2572 751 3078 
Q 1150 3584 1784 3584 
Q 2172 3584 2448 3432 
Q 2725 3281 2906 2969 
z
M 947 1747 
Q 947 1113 1208 752 
Q 1469 391 1925 391 
Q 2381 391 2643 752 
Q 2906 1113 2906 1747 
Q 2906 2381 2643 2742 
Q 2381 3103 1925 3103 
Q 1469 3103 1208 2742 
Q 947 2381 947 1747 
z
" transform="scale(0.015625)"/>
      <path id="DejaVuSans-67" d="M 2906 1791 
Q 2906 2416 2648 2759 
Q 2391 3103 1925 3103 
Q 1463 3103 1205 2759 
Q 947 2416 947 1791 
Q 947 1169 1205 825 
Q 1463 481 1925 481 
Q 2391 481 2648 825 
Q 2906 1169 2906 1791 
z
M 3481 434 
Q 3481 -459 3084 -895 
Q 2688 -1331 1869 -1331 
Q 1566 -1331 1297 -1286 
Q 1028 -1241 775 -1147 
L 775 -588 
Q 1028 -725 1275 -790 
Q 1522 -856 1778 -856 
Q 2344 -856 2625 -561 
Q 2906 -266 2906 331 
L 2906 616 
Q 2728 306 2450 153 
Q 2172 0 1784 0 
Q 1141 0 747 490 
Q 353 981 353 1791 
Q 353 2603 747 3093 
Q 1141 3584 1784 3584 
Q 2172 3584 2450 3431 
Q 2728 3278 2906 2969 
L 2906 3500 
L 3481 3500 
L 3481 434 
z
" transform="scale(0.015625)"/>
      <path id="DejaVuSans-66" d="M 2375 4863 
L 2375 4384 
L 1825 4384 
Q 1516 4384 1395 4259 
Q 1275 4134 1275 3809 
L 1275 3500 
L 2222 3500 
L 2222 3053 
L 1275 3053 
L 1275 0 
L 697 0 
L 697 3053 
L 147 3053 
L 147 3500 
L 697 3500 
L 697 3744 
Q 697 4328 969 4595 
Q 1241 4863 1831 4863 
L 2375 4863 
z
" transform="scale(0.015625)"/>
      <path id="DejaVuSans-3d" d="M 678 2906 
L 4684 2906 
L 4684 2381 
L 678 2381 
L 678 2906 
z
M 678 1631 
L 4684 1631 
L 4684 1100 
L 678 1100 
L 678 1631 
z
" transform="scale(0.015625)"/>
      <path id="DejaVuSans-28" d="M 1984 4856 
Q 1566 4138 1362 3434 
Q 1159 2731 1159 2009 
Q 1159 1288 1364 580 
Q 1569 -128 1984 -844 
L 1484 -844 
Q 1016 -109 783 600 
Q 550 1309 550 2009 
Q 550 2706 781 3412 
Q 1013 4119 1484 4856 
L 1984 4856 
z
" transform="scale(0.015625)"/>
      <path id="DejaVuSans-2c" d="M 750 794 
L 1409 794 
L 1409 256 
L 897 -744 
L 494 -744 
L 750 256 
L 750 794 
z
" transform="scale(0.015625)"/>
      <path id="DejaVuSans-62" d="M 3116 1747 
Q 3116 2381 2855 2742 
Q 2594 3103 2138 3103 
Q 1681 3103 1420 2742 
Q 1159 2381 1159 1747 
Q 1159 1113 1420 752 
Q 1681 391 2138 391 
Q 2594 391 2855 752 
Q 3116 1113 3116 1747 
z
M 1159 2969 
Q 1341 3281 1617 3432 
Q 1894 3584 2278 3584 
Q 2916 3584 3314 3078 
Q 3713 2572 3713 1747 
Q 3713 922 3314 415 
Q 2916 -91 2278 -91 
Q 1894 -91 1617 61 
Q 1341 213 1159 525 
L 1159 0 
L 581 0 
L 581 4863 
L 1159 4863 
L 1159 2969 
z
" transform="scale(0.015625)"/>
      <path id="DejaVuSans-61" d="M 2194 1759 
Q 1497 1759 1228 1600 
Q 959 1441 959 1056 
Q 959 750 1161 570 
Q 1363 391 1709 391 
Q 2188 391 2477 730 
Q 2766 1069 2766 1631 
L 2766 1759 
L 2194 1759 
z
M 3341 1997 
L 3341 0 
L 2766 0 
L 2766 531 
Q 2569 213 2275 61 
Q 1981 -91 1556 -91 
Q 1019 -91 701 211 
Q 384 513 384 1019 
Q 384 1609 779 1909 
Q 1175 2209 1959 2209 
L 2766 2209 
L 2766 2266 
Q 2766 2663 2505 2880 
Q 2244 3097 1772 3097 
Q 1472 3097 1187 3025 
Q 903 2953 641 2809 
L 641 3341 
Q 956 3463 1253 3523 
Q 1550 3584 1831 3584 
Q 2591 3584 2966 3190 
Q 3341 2797 3341 1997 
z
" transform="scale(0.015625)"/>
      <path id="DejaVuSans-29" d="M 513 4856 
L 1013 4856 
Q 1481 4119 1714 3412 
Q 1947 2706 1947 2009 
Q 1947 1309 1714 600 
Q 1481 -109 1013 -844 
L 513 -844 
Q 928 -128 1133 580 
Q 1338 1288 1338 2009 
Q 1338 2731 1133 3434 
Q 928 4138 513 4856 
z
" transform="scale(0.015625)"/>
     </defs>
     <use xlink:href="#DejaVuSans-44"/>
     <use xlink:href="#DejaVuSans-6f" x="77.001953"/>
     <use xlink:href="#DejaVuSans-74" x="138.183594"/>
     <use xlink:href="#DejaVuSans-73" x="177.392578"/>
     <use xlink:href="#DejaVuSans-3a" x="229.492188"/>
     <use xlink:href="#DejaVuSans-20" x="263.183594"/>
     <use xlink:href="#DejaVuSans-46" x="294.970703"/>
     <use xlink:href="#DejaVuSans-69" x="345.240234"/>
     <use xlink:href="#DejaVuSans-78" x="373.023438"/>
     <use xlink:href="#DejaVuSans-65" x="429.078125"/>
     <use xlink:href="#DejaVuSans-64" x="490.601562"/>
     <use xlink:href="#DejaVuSans-20" x="554.078125"/>
     <use xlink:href="#DejaVuSans-63" x="585.865234"/>
     <use xlink:href="#DejaVuSans-6c" x="640.845703"/>
     <use xlink:href="#DejaVuSans-75" x="668.628906"/>
     <use xlink:href="#DejaVuSans-73" x="732.007812"/>
     <use xlink:href="#DejaVuSans-74" x="784.107422"/>
     <use xlink:href="#DejaVuSans-65" x="823.316406"/>
     <use xlink:href="#DejaVuSans-72" x="884.839844"/>
     <use xlink:href="#DejaVuSans-69" x="925.953125"/>
     <use xlink:href="#DejaVuSans-6e" x="953.736328"/>
     <use xlink:href="#DejaVuSans-67" x="1017.115234"/>
     <use xlink:href="#DejaVuSans-20" x="1080.591797"/>
     <use xlink:href="#DejaVuSans-66" x="1112.378906"/>
     <use xlink:href="#DejaVuSans-72" x="1147.583984"/>
     <use xlink:href="#DejaVuSans-6f" x="1186.447266"/>
     <use xlink:href="#DejaVuSans-6d" x="1247.628906"/>
     <use xlink:href="#DejaVuSans-20" x="1345.041016"/>
     <use xlink:href="#DejaVuSans-74" x="1376.828125"/>
     <use xlink:href="#DejaVuSans-70" x="1416.037109"/>
     <use xlink:href="#DejaVuSans-3d" x="1479.513672"/>
     <use xlink:href="#DejaVuSans-3d" x="1563.302734"/>
     <use xlink:href="#DejaVuSans-30" x="1647.091797"/>
     <use xlink:href="#DejaVuSans-20" x="1710.714844"/>
     <use xlink:href="#DejaVuSans-28" x="1742.501953"/>
     <use xlink:href="#DejaVuSans-67" x="1781.515625"/>
     <use xlink:href="#DejaVuSans-6f" x="1844.992188"/>
     <use xlink:href="#DejaVuSans-6f" x="1906.173828"/>
     <use xlink:href="#DejaVuSans-64" x="1967.355469"/>
     <use xlink:href="#DejaVuSans-3d" x="2030.832031"/>
     <use xlink:href="#DejaVuSans-67" x="2114.621094"/>
     <use xlink:href="#DejaVuSans-72" x="2178.097656"/>
     <use xlink:href="#DejaVuSans-65" x="2216.960938"/>
     <use xlink:href="#DejaVuSans-65" x="2278.484375"/>
     <use xlink:href="#DejaVuSans-6e" x="2340.007812"/>
     <use xlink:href="#DejaVuSans-2c" x="2403.386719"/>
     <use xlink:href="#DejaVuSans-20" x="2435.173828"/>
     <use xlink:href="#DejaVuSans-62" x="2466.960938"/>
     <use xlink:href="#DejaVuSans-61" x="2530.4375"/>
     <use xlink:href="#DejaVuSans-64" x="2591.716797"/>
     <use xlink:href="#DejaVuSans-3d" x="2655.193359"/>
     <use xlink:href="#DejaVuSans-72" x="2738.982422"/>
     <use xlink:href="#DejaVuSans-65" x="2777.845703"/>
     <use xlink:href="#DejaVuSans-64" x="2839.369141"/>
     <use xlink:href="#DejaVuSans-29" x="2902.845703"/>
    </g>
   </g>
   <g id="legend_1">
    <g id="patch_7">
     <path d="M 254.423 86.713625 
L 323.805812 86.713625 
Q 326.205812 86.713625 326.205812 84.313625 
L 326.205812 34.608 
Q 326.205812 32.208 323.805812 32.208 
L 254.423 32.208 
Q 252.023 32.208 252.023 34.608 
L 252.023 84.313625 
Q 252.023 86.713625 254.423 86.713625 
z
" style="fill: #ffffff; opacity: 0.8; stroke: #cccccc; stroke-linejoin: miter"/>
    </g>
    <g id="text_19">
     <!-- Fixed Cluster -->
     <g transform="translate(256.823 44.606438) scale(0.1 -0.1)">
      <defs>
       <path id="DejaVuSans-43" d="M 4122 4306 
L 4122 3641 
Q 3803 3938 3442 4084 
Q 3081 4231 2675 4231 
Q 1875 4231 1450 3742 
Q 1025 3253 1025 2328 
Q 1025 1406 1450 917 
Q 1875 428 2675 428 
Q 3081 428 3442 575 
Q 3803 722 4122 1019 
L 4122 359 
Q 3791 134 3420 21 
Q 3050 -91 2638 -91 
Q 1578 -91 968 557 
Q 359 1206 359 2328 
Q 359 3453 968 4101 
Q 1578 4750 2638 4750 
Q 3056 4750 3426 4639 
Q 3797 4528 4122 4306 
z
" transform="scale(0.015625)"/>
      </defs>
      <use xlink:href="#DejaVuSans-46"/>
      <use xlink:href="#DejaVuSans-69" x="50.269531"/>
      <use xlink:href="#DejaVuSans-78" x="78.052734"/>
      <use xlink:href="#DejaVuSans-65" x="134.107422"/>
      <use xlink:href="#DejaVuSans-64" x="195.630859"/>
      <use xlink:href="#DejaVuSans-20" x="259.107422"/>
      <use xlink:href="#DejaVuSans-43" x="290.894531"/>
      <use xlink:href="#DejaVuSans-6c" x="360.71875"/>
      <use xlink:href="#DejaVuSans-75" x="388.501953"/>
      <use xlink:href="#DejaVuSans-73" x="451.880859"/>
      <use xlink:href="#DejaVuSans-74" x="503.980469"/>
      <use xlink:href="#DejaVuSans-65" x="543.189453"/>
      <use xlink:href="#DejaVuSans-72" x="604.712891"/>
     </g>
    </g>
    <g id="PathCollection_5">
     <defs>
      <path id="m2059899988" d="M 0 3 
C 0.795609 3 1.55874 2.683901 2.12132 2.12132 
C 2.683901 1.55874 3 0.795609 3 0 
C 3 -0.795609 2.683901 -1.55874 2.12132 -2.12132 
C 1.55874 -2.683901 0.795609 -3 0 -3 
C -0.795609 -3 -1.55874 -2.683901 -2.12132 -2.12132 
C -2.683901 -1.55874 -3 -0.795609 -3 0 
C -3 0.795609 -2.683901 1.55874 -2.12132 2.12132 
C -1.55874 2.683901 -0.795609 3 0 3 
z
" style="stroke: #008000"/>
     </defs>
     <g>
      <use xlink:href="#m2059899988" x="269.353781" y="58.65425" style="fill: #008000; stroke: #008000"/>
     </g>
    </g>
    <g id="text_20">
     <!-- good -->
     <g transform="translate(290.953781 61.80425) scale(0.12 -0.12)">
      <use xlink:href="#DejaVuSans-67"/>
      <use xlink:href="#DejaVuSans-6f" x="63.476562"/>
      <use xlink:href="#DejaVuSans-6f" x="124.658203"/>
      <use xlink:href="#DejaVuSans-64" x="185.839844"/>
     </g>
    </g>
    <g id="PathCollection_6">
     <defs>
      <path id="m2b5b31ca52" d="M 0 3 
C 0.795609 3 1.55874 2.683901 2.12132 2.12132 
C 2.683901 1.55874 3 0.795609 3 0 
C 3 -0.795609 2.683901 -1.55874 2.12132 -2.12132 
C 1.55874 -2.683901 0.795609 -3 0 -3 
C -0.795609 -3 -1.55874 -2.683901 -2.12132 -2.12132 
C -2.683901 -1.55874 -3 -0.795609 -3 0 
C -3 0.795609 -2.683901 1.55874 -2.12132 2.12132 
C -1.55874 2.683901 -0.795609 3 0 3 
z
" style="stroke: #ff0000"/>
     </defs>
     <g>
      <use xlink:href="#m2b5b31ca52" x="269.353781" y="76.268" style="fill: #ff0000; stroke: #ff0000"/>
     </g>
    </g>
    <g id="text_21">
     <!-- bad -->
     <g transform="translate(290.953781 79.418) scale(0.12 -0.12)">
      <use xlink:href="#DejaVuSans-62"/>
      <use xlink:href="#DejaVuSans-61" x="63.476562"/>
      <use xlink:href="#DejaVuSans-64" x="124.755859"/>
     </g>
    </g>
   </g>
   <g id="legend_2">
    <g id="patch_8">
     <path d="M 254.423 86.713625 
L 323.805812 86.713625 
Q 326.205812 86.713625 326.205812 84.313625 
L 326.205812 34.608 
Q 326.205812 32.208 323.805812 32.208 
L 254.423 32.208 
Q 252.023 32.208 252.023 34.608 
L 252.023 84.313625 
Q 252.023 86.713625 254.423 86.713625 
z
" style="fill: #ffffff; opacity: 0.8; stroke: #cccccc; stroke-linejoin: miter"/>
    </g>
    <g id="text_22">
     <!-- Fixed Cluster -->
     <g transform="translate(256.823 44.606438) scale(0.1 -0.1)">
      <use xlink:href="#DejaVuSans-46"/>
      <use xlink:href="#DejaVuSans-69" x="50.269531"/>
      <use xlink:href="#DejaVuSans-78" x="78.052734"/>
      <use xlink:href="#DejaVuSans-65" x="134.107422"/>
      <use xlink:href="#DejaVuSans-64" x="195.630859"/>
      <use xlink:href="#DejaVuSans-20" x="259.107422"/>
      <use xlink:href="#DejaVuSans-43" x="290.894531"/>
      <use xlink:href="#DejaVuSans-6c" x="360.71875"/>
      <use xlink:href="#DejaVuSans-75" x="388.501953"/>
      <use xlink:href="#DejaVuSans-73" x="451.880859"/>
      <use xlink:href="#DejaVuSans-74" x="503.980469"/>
      <use xlink:href="#DejaVuSans-65" x="543.189453"/>
      <use xlink:href="#DejaVuSans-72" x="604.712891"/>
     </g>
    </g>
    <g id="PathCollection_7">
     <g>
      <use xlink:href="#m2059899988" x="269.353781" y="58.65425" style="fill: #008000; stroke: #008000"/>
     </g>
    </g>
    <g id="text_23">
     <!-- good -->
     <g transform="translate(290.953781 61.80425) scale(0.12 -0.12)">
      <use xlink:href="#DejaVuSans-67"/>
      <use xlink:href="#DejaVuSans-6f" x="63.476562"/>
      <use xlink:href="#DejaVuSans-6f" x="124.658203"/>
      <use xlink:href="#DejaVuSans-64" x="185.839844"/>
     </g>
    </g>
    <g id="PathCollection_8">
     <g>
      <use xlink:href="#m2b5b31ca52" x="269.353781" y="76.268" style="fill: #ff0000; stroke: #ff0000"/>
     </g>
    </g>
    <g id="text_24">
     <!-- bad -->
     <g transform="translate(290.953781 79.418) scale(0.12 -0.12)">
      <use xlink:href="#DejaVuSans-62"/>
      <use xlink:href="#DejaVuSans-61" x="63.476562"/>
      <use xlink:href="#DejaVuSans-64" x="124.755859"/>
     </g>
    </g>
   </g>
  </g>
 </g>
 <defs>
  <clipPath id="p80d2b301ce">
   <rect x="52.4" y="26.208" width="184.402857" height="187.534857"/>
  </clipPath>
 </defs>
</svg>
